%TF.GenerationSoftware,KiCad,Pcbnew,7.0.2*%
%TF.CreationDate,2023-05-17T13:24:13+02:00*%
%TF.ProjectId,mykeeb_v7a2_base,6d796b65-6562-45f7-9637-61325f626173,rev?*%
%TF.SameCoordinates,Original*%
%TF.FileFunction,Legend,Top*%
%TF.FilePolarity,Positive*%
%FSLAX46Y46*%
G04 Gerber Fmt 4.6, Leading zero omitted, Abs format (unit mm)*
G04 Created by KiCad (PCBNEW 7.0.2) date 2023-05-17 13:24:13*
%MOMM*%
%LPD*%
G01*
G04 APERTURE LIST*
%ADD10C,0.150000*%
G04 APERTURE END LIST*
D10*
%TO.C,H3*%
X99250679Y-157997129D02*
X99250679Y-156997129D01*
X99250679Y-157473319D02*
X99822107Y-157473319D01*
X99822107Y-157997129D02*
X99822107Y-156997129D01*
X100203060Y-156997129D02*
X100822107Y-156997129D01*
X100822107Y-156997129D02*
X100488774Y-157378081D01*
X100488774Y-157378081D02*
X100631631Y-157378081D01*
X100631631Y-157378081D02*
X100726869Y-157425700D01*
X100726869Y-157425700D02*
X100774488Y-157473319D01*
X100774488Y-157473319D02*
X100822107Y-157568557D01*
X100822107Y-157568557D02*
X100822107Y-157806652D01*
X100822107Y-157806652D02*
X100774488Y-157901890D01*
X100774488Y-157901890D02*
X100726869Y-157949510D01*
X100726869Y-157949510D02*
X100631631Y-157997129D01*
X100631631Y-157997129D02*
X100345917Y-157997129D01*
X100345917Y-157997129D02*
X100250679Y-157949510D01*
X100250679Y-157949510D02*
X100203060Y-157901890D01*
%TO.C,H8*%
X51625639Y-223481559D02*
X51625639Y-222481559D01*
X51625639Y-222957749D02*
X52197067Y-222957749D01*
X52197067Y-223481559D02*
X52197067Y-222481559D01*
X52816115Y-222910130D02*
X52720877Y-222862511D01*
X52720877Y-222862511D02*
X52673258Y-222814892D01*
X52673258Y-222814892D02*
X52625639Y-222719654D01*
X52625639Y-222719654D02*
X52625639Y-222672035D01*
X52625639Y-222672035D02*
X52673258Y-222576797D01*
X52673258Y-222576797D02*
X52720877Y-222529178D01*
X52720877Y-222529178D02*
X52816115Y-222481559D01*
X52816115Y-222481559D02*
X53006591Y-222481559D01*
X53006591Y-222481559D02*
X53101829Y-222529178D01*
X53101829Y-222529178D02*
X53149448Y-222576797D01*
X53149448Y-222576797D02*
X53197067Y-222672035D01*
X53197067Y-222672035D02*
X53197067Y-222719654D01*
X53197067Y-222719654D02*
X53149448Y-222814892D01*
X53149448Y-222814892D02*
X53101829Y-222862511D01*
X53101829Y-222862511D02*
X53006591Y-222910130D01*
X53006591Y-222910130D02*
X52816115Y-222910130D01*
X52816115Y-222910130D02*
X52720877Y-222957749D01*
X52720877Y-222957749D02*
X52673258Y-223005368D01*
X52673258Y-223005368D02*
X52625639Y-223100606D01*
X52625639Y-223100606D02*
X52625639Y-223291082D01*
X52625639Y-223291082D02*
X52673258Y-223386320D01*
X52673258Y-223386320D02*
X52720877Y-223433940D01*
X52720877Y-223433940D02*
X52816115Y-223481559D01*
X52816115Y-223481559D02*
X53006591Y-223481559D01*
X53006591Y-223481559D02*
X53101829Y-223433940D01*
X53101829Y-223433940D02*
X53149448Y-223386320D01*
X53149448Y-223386320D02*
X53197067Y-223291082D01*
X53197067Y-223291082D02*
X53197067Y-223100606D01*
X53197067Y-223100606D02*
X53149448Y-223005368D01*
X53149448Y-223005368D02*
X53101829Y-222957749D01*
X53101829Y-222957749D02*
X53006591Y-222910130D01*
%TO.C,H6*%
X145685093Y-228244063D02*
X145685093Y-227244063D01*
X145685093Y-227720253D02*
X146256521Y-227720253D01*
X146256521Y-228244063D02*
X146256521Y-227244063D01*
X147161283Y-227244063D02*
X146970807Y-227244063D01*
X146970807Y-227244063D02*
X146875569Y-227291682D01*
X146875569Y-227291682D02*
X146827950Y-227339301D01*
X146827950Y-227339301D02*
X146732712Y-227482158D01*
X146732712Y-227482158D02*
X146685093Y-227672634D01*
X146685093Y-227672634D02*
X146685093Y-228053586D01*
X146685093Y-228053586D02*
X146732712Y-228148824D01*
X146732712Y-228148824D02*
X146780331Y-228196444D01*
X146780331Y-228196444D02*
X146875569Y-228244063D01*
X146875569Y-228244063D02*
X147066045Y-228244063D01*
X147066045Y-228244063D02*
X147161283Y-228196444D01*
X147161283Y-228196444D02*
X147208902Y-228148824D01*
X147208902Y-228148824D02*
X147256521Y-228053586D01*
X147256521Y-228053586D02*
X147256521Y-227815491D01*
X147256521Y-227815491D02*
X147208902Y-227720253D01*
X147208902Y-227720253D02*
X147161283Y-227672634D01*
X147161283Y-227672634D02*
X147066045Y-227625015D01*
X147066045Y-227625015D02*
X146875569Y-227625015D01*
X146875569Y-227625015D02*
X146780331Y-227672634D01*
X146780331Y-227672634D02*
X146732712Y-227720253D01*
X146732712Y-227720253D02*
X146685093Y-227815491D01*
%TO.C,H9*%
X26622493Y-245508140D02*
X26622493Y-244508140D01*
X26622493Y-244984330D02*
X27193921Y-244984330D01*
X27193921Y-245508140D02*
X27193921Y-244508140D01*
X27717731Y-245508140D02*
X27908207Y-245508140D01*
X27908207Y-245508140D02*
X28003445Y-245460521D01*
X28003445Y-245460521D02*
X28051064Y-245412901D01*
X28051064Y-245412901D02*
X28146302Y-245270044D01*
X28146302Y-245270044D02*
X28193921Y-245079568D01*
X28193921Y-245079568D02*
X28193921Y-244698616D01*
X28193921Y-244698616D02*
X28146302Y-244603378D01*
X28146302Y-244603378D02*
X28098683Y-244555759D01*
X28098683Y-244555759D02*
X28003445Y-244508140D01*
X28003445Y-244508140D02*
X27812969Y-244508140D01*
X27812969Y-244508140D02*
X27717731Y-244555759D01*
X27717731Y-244555759D02*
X27670112Y-244603378D01*
X27670112Y-244603378D02*
X27622493Y-244698616D01*
X27622493Y-244698616D02*
X27622493Y-244936711D01*
X27622493Y-244936711D02*
X27670112Y-245031949D01*
X27670112Y-245031949D02*
X27717731Y-245079568D01*
X27717731Y-245079568D02*
X27812969Y-245127187D01*
X27812969Y-245127187D02*
X28003445Y-245127187D01*
X28003445Y-245127187D02*
X28098683Y-245079568D01*
X28098683Y-245079568D02*
X28146302Y-245031949D01*
X28146302Y-245031949D02*
X28193921Y-244936711D01*
%TO.C,H2*%
X124253825Y-150853373D02*
X124253825Y-149853373D01*
X124253825Y-150329563D02*
X124825253Y-150329563D01*
X124825253Y-150853373D02*
X124825253Y-149853373D01*
X125253825Y-149948611D02*
X125301444Y-149900992D01*
X125301444Y-149900992D02*
X125396682Y-149853373D01*
X125396682Y-149853373D02*
X125634777Y-149853373D01*
X125634777Y-149853373D02*
X125730015Y-149900992D01*
X125730015Y-149900992D02*
X125777634Y-149948611D01*
X125777634Y-149948611D02*
X125825253Y-150043849D01*
X125825253Y-150043849D02*
X125825253Y-150139087D01*
X125825253Y-150139087D02*
X125777634Y-150281944D01*
X125777634Y-150281944D02*
X125206206Y-150853373D01*
X125206206Y-150853373D02*
X125825253Y-150853373D01*
%TO.C,H1*%
X176641369Y-150258060D02*
X176641369Y-149258060D01*
X176641369Y-149734250D02*
X177212797Y-149734250D01*
X177212797Y-150258060D02*
X177212797Y-149258060D01*
X178212797Y-150258060D02*
X177641369Y-150258060D01*
X177927083Y-150258060D02*
X177927083Y-149258060D01*
X177927083Y-149258060D02*
X177831845Y-149400917D01*
X177831845Y-149400917D02*
X177736607Y-149496155D01*
X177736607Y-149496155D02*
X177641369Y-149543774D01*
%TO.C,H5*%
X176641369Y-231815941D02*
X176641369Y-230815941D01*
X176641369Y-231292131D02*
X177212797Y-231292131D01*
X177212797Y-231815941D02*
X177212797Y-230815941D01*
X178165178Y-230815941D02*
X177688988Y-230815941D01*
X177688988Y-230815941D02*
X177641369Y-231292131D01*
X177641369Y-231292131D02*
X177688988Y-231244512D01*
X177688988Y-231244512D02*
X177784226Y-231196893D01*
X177784226Y-231196893D02*
X178022321Y-231196893D01*
X178022321Y-231196893D02*
X178117559Y-231244512D01*
X178117559Y-231244512D02*
X178165178Y-231292131D01*
X178165178Y-231292131D02*
X178212797Y-231387369D01*
X178212797Y-231387369D02*
X178212797Y-231625464D01*
X178212797Y-231625464D02*
X178165178Y-231720702D01*
X178165178Y-231720702D02*
X178117559Y-231768322D01*
X178117559Y-231768322D02*
X178022321Y-231815941D01*
X178022321Y-231815941D02*
X177784226Y-231815941D01*
X177784226Y-231815941D02*
X177688988Y-231768322D01*
X177688988Y-231768322D02*
X177641369Y-231720702D01*
%TO.C,H4*%
X69485029Y-157997129D02*
X69485029Y-156997129D01*
X69485029Y-157473319D02*
X70056457Y-157473319D01*
X70056457Y-157997129D02*
X70056457Y-156997129D01*
X70961219Y-157330462D02*
X70961219Y-157997129D01*
X70723124Y-156949510D02*
X70485029Y-157663795D01*
X70485029Y-157663795D02*
X71104076Y-157663795D01*
%TO.C,H7*%
X107585061Y-213956551D02*
X107585061Y-212956551D01*
X107585061Y-213432741D02*
X108156489Y-213432741D01*
X108156489Y-213956551D02*
X108156489Y-212956551D01*
X108537442Y-212956551D02*
X109204108Y-212956551D01*
X109204108Y-212956551D02*
X108775537Y-213956551D01*
%TD*%
M02*
