<?xml version="1.0" standalone="no"?>
 <!DOCTYPE svg PUBLIC "-//W3C//DTD SVG 1.1//EN" 
 "http://www.w3.org/Graphics/SVG/1.1/DTD/svg11.dtd"> 
<svg
  xmlns:svg="http://www.w3.org/2000/svg"
  xmlns="http://www.w3.org/2000/svg"
  xmlns:xlink="http://www.w3.org/1999/xlink"
  version="1.1"
  width="17.810480cm" height="14.188440cm" viewBox="0 0 178104800 141884400">
<title>SVG Picture created as mykeeb-Edge_Cuts.svg date 2022/04/26 20:10:16 </title>
  <desc>Picture generated by PCBNEW </desc>
<g style="fill:#000000; fill-opacity:1.000000;stroke:#000000; stroke-opacity:1.000000;
stroke-linecap:round; stroke-linejoin:round;"
 transform="translate(0 0) scale(1 1)">
</g>
<g style="fill:#000000; fill-opacity:0.0; 
stroke:#000000; stroke-width:0.000000; stroke-opacity:1; 
stroke-linecap:round; stroke-linejoin:round;">
</g>
<g style="fill:#000000; fill-opacity:0.0; 
stroke:#000000; stroke-width:100000.000000; stroke-opacity:1; 
stroke-linecap:round; stroke-linejoin:round;">
<path style="fill:#000000; fill-opacity:0.0; 
stroke:#000000; stroke-width:100000.000000; stroke-opacity:1; 
stroke-linecap:round; stroke-linejoin:round;fill:none"
d="M 76281386.000000,90173750.000000
72709511.000000,90173750.000000
72709511.000000,87792500.000000
76281386.000000,87792500.000000
Z" /> 
<path style="fill:#000000; fill-opacity:0.0; 
stroke:#000000; stroke-width:100000.000000; stroke-opacity:1; 
stroke-linecap:round; stroke-linejoin:round;fill:none"
d="M 135812636.000000,90173750.000000
132240761.000000,90173750.000000
132240761.000000,87792500.000000
135812636.000000,87792500.000000
Z" /> 
<path style="fill:#000000; fill-opacity:0.0; 
stroke:#000000; stroke-width:100000.000000; stroke-opacity:1; 
stroke-linecap:round; stroke-linejoin:round;fill:none"
d="M 91759511.000000,13973750.000000
110809511.000000,13973750.000000
112000136.000000,12783125.000000
125097011.000000,12783125.000000
126287636.000000,11592500.000000
129859511.000000,11592500.000000
133431386.000000,8020625.000000
162006386.000000,8020625.000000
165578261.000000,11592500.000000
165578261.000000,43739375.000000
166768886.000000,44930000.000000
166768886.000000,58026875.000000
164387636.000000,60408125.000000
158434511.000000,60408125.000000
151290761.000000,67551875.000000
147719018.000000,67551875.000000
144147011.000000,71123821.000000
144147011.000000,84220707.000000
140575262.000000,87792585.000000
138193886.000000,87792500.000000
138193886.000000,90173750.000000
140575262.000000,90173750.000000
141765888.000000,88983211.000000
145337766.000000,88983211.000000
146528261.000000,90173750.000000
170340761.000000,113986250.000000
170340761.000000,115176875.000000
144147011.000000,141370625.000000
141765888.000000,141370625.000000
131050254.000000,130655121.000000
112000136.000000,117558125.000000
88187636.000000,110414375.000000
70328261.000000,110414375.000000
52468886.000000,121130000.000000
44134511.000000,105651875.000000
46515761.000000,104461250.000000
50087636.000000,100889375.000000
52468886.000000,100889375.000000
54850136.000000,99698750.000000
63184511.000000,91364375.000000
66756386.000000,91364375.000000
67947011.000000,90173750.000000
70328261.000000,90173750.000000
70328261.000000,87792500.000000
66756386.000000,87792500.000000
65565761.000000,88983125.000000
59612636.000000,88983125.000000
56040761.000000,92555000.000000
56040761.000000,94936250.000000
52468886.000000,98508125.000000
48897011.000000,98508125.000000
46515761.000000,100889375.000000
9606386.000000,100889375.000000
8415761.000000,99698750.000000
8415761.000000,25880000.000000
9606386.000000,24689375.000000
34609511.000000,24689375.000000
36990761.000000,22308125.000000
36990761.000000,18736250.000000
40562636.000000,15164375.000000
44134511.000000,15164375.000000
46515761.000000,12783125.000000
59612636.000000,12783125.000000
65565761.000000,6830000.000000
84615761.000000,6830000.000000
Z" /> 
<path style="fill:#000000; fill-opacity:0.0; 
stroke:#000000; stroke-width:100000.000000; stroke-opacity:1; 
stroke-linecap:round; stroke-linejoin:round;fill:none"
d="M 84615761.000000,90173750.000000
101284511.000000,90173750.000000
103665761.000000,92555000.000000
122715761.000000,92555000.000000
127478261.000000,87792500.000000
129859511.000000,87792500.000000
129859511.000000,90173750.000000
128668886.000000,90173750.000000
123906386.000000,94936250.000000
102475136.000000,94936250.000000
100093886.000000,92555000.000000
83425136.000000,92555000.000000
81043886.000000,90173750.000000
78662636.000000,90173750.000000
78662636.000000,87792500.000000
82234511.000000,87792500.000000
Z" /> 
<g >
</g>
<g >
</g>
<g >
</g>
<g >
</g>
<g >
</g>
<g >
</g>
<g >
</g>
<g >
</g>
<g >
</g>
<g >
</g>
<g >
</g>
<g >
</g>
<g >
</g>
<g >
</g>
<g >
</g>
<g >
</g>
<g >
</g>
<g >
</g>
<g >
</g>
<g >
</g>
<g >
</g>
<g >
</g>
<g >
</g>
<g >
</g>
<g >
</g>
<g >
</g>
<g >
</g>
<g >
</g>
<g >
</g>
<g >
</g>
<g >
</g>
<g >
</g>
<g >
</g>
<g >
</g>
<g >
</g>
<g >
</g>
<g >
</g>
<g >
</g>
<g >
</g>
<g >
</g>
<g >
</g>
<g >
</g>
<g >
</g>
<g >
</g>
<g >
</g>
<g >
</g>
<g >
</g>
<g >
</g>
<g >
</g>
<g >
</g>
<g >
</g>
<g >
</g>
<g >
</g>
<g >
</g>
<g >
</g>
<g >
</g>
<g >
</g>
<g >
</g>
<g >
</g>
<g >
</g>
<g >
</g>
<g >
</g>
<g >
</g>
<g >
</g>
<g >
</g>
<g >
</g>
<g >
</g>
<g >
</g>
<g >
</g>
<g >
</g>
<g >
</g>
<g >
</g>
<g >
</g>
<g >
</g>
<g >
</g>
<g >
</g>
<g >
</g>
<g >
</g>
<g >
</g>
<g >
</g>
<g >
</g>
<g >
</g>
<g >
</g>
<g >
</g>
<g >
</g>
<g >
</g>
<g >
</g>
<g >
</g>
<g >
</g>
<g >
</g>
<g >
</g>
<g >
</g>
<g >
</g>
<g >
</g>
<g >
</g>
<g >
</g>
<g >
</g>
<g >
</g>
<g >
</g>
<g >
</g>
<g >
</g>
<g >
</g>
<g >
</g>
<g >
</g>
<g >
</g>
<g >
</g>
<g >
</g>
<g >
</g>
<g >
</g>
<g >
</g>
<g >
</g>
<g >
</g>
<g >
</g>
<g >
</g>
<g >
</g>
<g >
</g>
<g >
</g>
</g> 
</svg>
