<?xml version="1.0" standalone="no"?>
 <!DOCTYPE svg PUBLIC "-//W3C//DTD SVG 1.1//EN" 
 "http://www.w3.org/Graphics/SVG/1.1/DTD/svg11.dtd"> 
<svg
  xmlns:svg="http://www.w3.org/2000/svg"
  xmlns="http://www.w3.org/2000/svg"
  xmlns:xlink="http://www.w3.org/1999/xlink"
  version="1.1"
  width="15.920720cm" height="9.420860cm" viewBox="0 0 159207200 94208600">
<title>SVG Picture created as mykeeb-Nutzer_4.svg date 2022/04/24 20:55:39 </title>
  <desc>Picture generated by PCBNEW </desc>
<g style="fill:#000000; fill-opacity:1.000000;stroke:#000000; stroke-opacity:1.000000;
stroke-linecap:round; stroke-linejoin:round;"
 transform="translate(0 0) scale(1 1)">
</g>
<g style="fill:#000000; fill-opacity:0.0; 
stroke:#000000; stroke-width:0.000000; stroke-opacity:1; 
stroke-linecap:round; stroke-linejoin:round;">
</g>
<g style="fill:#000000; fill-opacity:0.0; 
stroke:#000000; stroke-width:150000.000000; stroke-opacity:1; 
stroke-linecap:round; stroke-linejoin:round;">
</g>
<g style="fill:#000000; fill-opacity:1.0; 
stroke:#000000; stroke-width:150000.000000; stroke-opacity:1; 
stroke-linecap:round; stroke-linejoin:round;">
<path style="fill:#000000; fill-opacity:1.0; 
stroke:#000000; stroke-width:150000.000000; stroke-opacity:1; 
stroke-linecap:round; stroke-linejoin:round;fill-rule:evenodd;"
d="M 29840625.000000,15553125.000000
26268750.000000,19125000.000000
1265625.000000,19125000.000000
1265625.000000,92943750.000000
38175000.000000,92943750.000000
40556250.000000,90562500.000000
40556250.000000,91753125.000000
38175000.000000,94134375.000000
1265625.000000,94134375.000000
75000.000000,92943750.000000
75000.000000,19125000.000000
1265625.000000,17934375.000000
25078125.000000,17934375.000000
28650000.000000,14362500.000000
Z" /> 
<path style="fill:#000000; fill-opacity:1.0; 
stroke:#000000; stroke-width:150000.000000; stroke-opacity:1; 
stroke-linecap:round; stroke-linejoin:round;fill-rule:evenodd;"
d="M 82228125.000000,6028125.000000
81037500.000000,7218750.000000
78656250.000000,7218750.000000
76275000.000000,4837500.000000
76275000.000000,2456250.000000
77465625.000000,1265625.000000
Z" /> 
<path style="fill:#000000; fill-opacity:1.0; 
stroke:#000000; stroke-width:150000.000000; stroke-opacity:1; 
stroke-linecap:round; stroke-linejoin:round;fill-rule:evenodd;"
d="M 157237500.000000,4837500.000000
157237500.000000,36984375.000000
156046875.000000,35793750.000000
156046875.000000,3646875.000000
Z" /> 
<path style="fill:#000000; fill-opacity:1.0; 
stroke:#000000; stroke-width:150000.000000; stroke-opacity:1; 
stroke-linecap:round; stroke-linejoin:round;fill-rule:evenodd;"
d="M 131043750.000000,60796875.000000
115565625.000000,60796875.000000
115565625.000000,58415625.000000
131043750.000000,58415625.000000
Z" /> 
<path style="fill:#000000; fill-opacity:1.0; 
stroke:#000000; stroke-width:150000.000000; stroke-opacity:1; 
stroke-linecap:round; stroke-linejoin:round;fill-rule:evenodd;"
d="M 95325000.000000,45318750.000000
97706250.000000,47700000.000000
95325000.000000,50081250.000000
95325000.000000,47700000.000000
92943750.000000,45318750.000000
95325000.000000,42937500.000000
Z" /> 
<path style="fill:#000000; fill-opacity:1.0; 
stroke:#000000; stroke-width:150000.000000; stroke-opacity:1; 
stroke-linecap:round; stroke-linejoin:round;fill-rule:evenodd;"
d="M 95325000.000000,64368750.000000
97706250.000000,66750000.000000
95325000.000000,69131250.000000
95325000.000000,66750000.000000
92943750.000000,64368750.000000
95325000.000000,61987500.000000
Z" /> 
<path style="fill:#000000; fill-opacity:1.0; 
stroke:#000000; stroke-width:150000.000000; stroke-opacity:1; 
stroke-linecap:round; stroke-linejoin:round;fill-rule:evenodd;"
d="M 76275000.000000,78656250.000000
76275000.000000,83418750.000000
75084375.000000,82228125.000000
57225000.000000,82228125.000000
57225000.000000,78656250.000000
59606250.000000,76275000.000000
73893750.000000,76275000.000000
Z" /> 
<path style="fill:#000000; fill-opacity:1.0; 
stroke:#000000; stroke-width:150000.000000; stroke-opacity:1; 
stroke-linecap:round; stroke-linejoin:round;fill-rule:evenodd;"
d="M 39365625.000000,75084375.000000
38175000.000000,77465625.000000
35793750.000000,75084375.000000
38175000.000000,72703125.000000
Z" /> 
<path style="fill:#000000; fill-opacity:1.0; 
stroke:#000000; stroke-width:150000.000000; stroke-opacity:1; 
stroke-linecap:round; stroke-linejoin:round;fill-rule:evenodd;"
d="M 39365625.000000,56034375.000000
38175000.000000,58415625.000000
35793750.000000,56034375.000000
38175000.000000,53653125.000000
Z" /> 
<path style="fill:#000000; fill-opacity:1.0; 
stroke:#000000; stroke-width:150000.000000; stroke-opacity:1; 
stroke-linecap:round; stroke-linejoin:round;fill-rule:evenodd;"
d="M 39365625.000000,36984375.000000
38175000.000000,39365625.000000
35793750.000000,36984375.000000
38175000.000000,34603125.000000
Z" /> 
<path style="fill:#000000; fill-opacity:1.0; 
stroke:#000000; stroke-width:150000.000000; stroke-opacity:1; 
stroke-linecap:round; stroke-linejoin:round;fill-rule:evenodd;"
d="M 21506250.000000,36984375.000000
19125000.000000,39365625.000000
16743750.000000,36984375.000000
19125000.000000,34603125.000000
Z" /> 
<path style="fill:#000000; fill-opacity:1.0; 
stroke:#000000; stroke-width:150000.000000; stroke-opacity:1; 
stroke-linecap:round; stroke-linejoin:round;fill-rule:evenodd;"
d="M 21506250.000000,56034375.000000
19125000.000000,58415625.000000
16743750.000000,56034375.000000
19125000.000000,53653125.000000
Z" /> 
<path style="fill:#000000; fill-opacity:1.0; 
stroke:#000000; stroke-width:150000.000000; stroke-opacity:1; 
stroke-linecap:round; stroke-linejoin:round;fill-rule:evenodd;"
d="M 21506250.000000,75084375.000000
19125000.000000,77465625.000000
16743750.000000,75084375.000000
19125000.000000,72703125.000000
Z" /> 
<path style="fill:#000000; fill-opacity:1.0; 
stroke:#000000; stroke-width:150000.000000; stroke-opacity:1; 
stroke-linecap:round; stroke-linejoin:round;fill-rule:evenodd;"
d="M 95325000.000000,26268750.000000
97706250.000000,28650000.000000
95325000.000000,31031250.000000
95325000.000000,28650000.000000
92943750.000000,26268750.000000
95325000.000000,23887500.000000
Z" /> 
<path style="fill:#000000; fill-opacity:1.0; 
stroke:#000000; stroke-width:150000.000000; stroke-opacity:1; 
stroke-linecap:round; stroke-linejoin:round;fill-rule:evenodd;"
d="M 123900000.000000,7218750.000000
123900000.000000,11981250.000000
121518750.000000,14362500.000000
117946875.000000,14362500.000000
114375000.000000,10790625.000000
114375000.000000,6028125.000000
116756250.000000,6028125.000000
117946875.000000,4837500.000000
121518750.000000,4837500.000000
Z" /> 
<path style="fill:#000000; fill-opacity:1.0; 
stroke:#000000; stroke-width:150000.000000; stroke-opacity:1; 
stroke-linecap:round; stroke-linejoin:round;fill-rule:evenodd;"
d="M 38175000.000000,10790625.000000
38175000.000000,14362500.000000
34603125.000000,17934375.000000
31031250.000000,17934375.000000
28650000.000000,15553125.000000
28650000.000000,11981250.000000
32221875.000000,8409375.000000
35793750.000000,8409375.000000
Z" /> 
<path style="fill:#000000; fill-opacity:1.0; 
stroke:#000000; stroke-width:150000.000000; stroke-opacity:1; 
stroke-linecap:round; stroke-linejoin:round;fill-rule:evenodd;"
d="M 47700000.000000,85800000.000000
47700000.000000,88181250.000000
44128125.000000,91753125.000000
40556250.000000,91753125.000000
38175000.000000,89371875.000000
38175000.000000,85800000.000000
41746875.000000,82228125.000000
44128125.000000,82228125.000000
Z" /> 
<path style="fill:#000000; fill-opacity:1.0; 
stroke:#000000; stroke-width:150000.000000; stroke-opacity:1; 
stroke-linecap:round; stroke-linejoin:round;fill-rule:evenodd;"
d="M 147712500.000000,56034375.000000
142950000.000000,60796875.000000
136996875.000000,60796875.000000
136996875.000000,54843750.000000
140568750.000000,51271875.000000
142950000.000000,51271875.000000
Z" /> 
<g >
</g>
<g >
</g>
<g >
</g>
<g >
</g>
<g >
</g>
<g >
</g>
<g >
</g>
<g >
</g>
<g >
</g>
<g >
</g>
<g >
</g>
<g >
</g>
<g >
</g>
<g >
</g>
<g >
</g>
<g >
</g>
<g >
</g>
<g >
</g>
<g >
</g>
<g >
</g>
<g >
</g>
<g >
</g>
<g >
</g>
<g >
</g>
<g >
</g>
<g >
</g>
<g >
</g>
<g >
</g>
<g >
</g>
<g >
</g>
<g >
</g>
<g >
</g>
<g >
</g>
<g >
</g>
<g >
</g>
<g >
</g>
<g >
</g>
<g >
</g>
<g >
</g>
<g >
</g>
<g >
</g>
<g >
</g>
<g >
</g>
<g >
</g>
<g >
</g>
<g >
</g>
<g >
</g>
<g >
</g>
<g >
</g>
<g >
</g>
<g >
</g>
<g >
</g>
<g >
</g>
<g >
</g>
<g >
</g>
<g >
</g>
<g >
</g>
<g >
</g>
<g >
</g>
<g >
</g>
<g >
</g>
<g >
</g>
<g >
</g>
<g >
</g>
<g >
</g>
<g >
</g>
<g >
</g>
<g >
</g>
<g >
</g>
<g >
</g>
<g >
</g>
<g >
</g>
<g >
</g>
<g >
</g>
<g >
</g>
<g >
</g>
<g >
</g>
</g> 
</svg>
