<?xml version="1.0" standalone="no"?>
 <!DOCTYPE svg PUBLIC "-//W3C//DTD SVG 1.1//EN" 
 "http://www.w3.org/Graphics/SVG/1.1/DTD/svg11.dtd"> 
<svg
  xmlns:svg="http://www.w3.org/2000/svg"
  xmlns="http://www.w3.org/2000/svg"
  xmlns:xlink="http://www.w3.org/1999/xlink"
  version="1.1"
  width="17.038320cm" height="13.784580cm" viewBox="0 0 170383200 137845800">
<title>SVG Picture created as mykeeb-Edge_Cuts.svg date 2022/04/25 08:41:00 </title>
  <desc>Picture generated by PCBNEW </desc>
<g style="fill:#000000; fill-opacity:1.000000;stroke:#000000; stroke-opacity:1.000000;
stroke-linecap:round; stroke-linejoin:round;"
 transform="translate(0 0) scale(1 1)">
</g>
<g style="fill:#000000; fill-opacity:0.0; 
stroke:#000000; stroke-width:0.000000; stroke-opacity:1; 
stroke-linecap:round; stroke-linejoin:round;">
</g>
<g style="fill:#000000; fill-opacity:0.0; 
stroke:#000000; stroke-width:100000.000000; stroke-opacity:1; 
stroke-linecap:round; stroke-linejoin:round;">
<path d="M150100149 90173750
L139384524 90173750
" />
<path d="M170340774 110414375
L150100149 90173750
" />
<path d="M142956399 137798750
L170340774 110414375
" />
<path d="M140575149 137798750
L142956399 137798750
" />
<path d="M135812649 133036250
L140575149 137798750
" />
<path d="M97712649 112795625
L135812649 133036250
" />
<path d="M63184524 112795625
L97712649 112795625
" />
<path d="M59612649 109223750
L63184524 112795625
" />
<path d="M59612649 93745625
L59612649 109223750
" />
<path d="M61993899 91364375
L59612649 93745625
" />
<path d="M67947024 91364375
L61993899 91364375
" />
<path d="M69137649 90173750
L67947024 91364375
" />
<path d="M71518899 90173750
L69137649 90173750
" />
<path d="M131050149 90173750
L129859524 90173750
" />
<path d="M82234524 90173750
L79853274 90173750
" />
<path d="M84615774 92555000
L82234524 90173750
" />
<path d="M101284524 92555000
L84615774 92555000
" />
<path d="M103665774 94936250
L101284524 92555000
" />
<path d="M125097024 94936250
L103665774 94936250
" />
<path d="M126287649 93745625
L125097024 94936250
" />
<path d="M129859524 90173750
L126287649 93745625
" />
<path d="M131050149 87792500
L128668899 87792500
" />
<path d="M131050149.000000 90173750.000000 A1190625.000000 1190625.000000 0.0 0 0 131050149.000000 87792500.000000" />
<path d="M139384524.000000 87792500.000000 A1190625.000000 1190625.000000 0.0 0 0 139384524.000000 90173750.000000" />
<path d="M79853274 87792500
L83425149 87792500
" />
<path d="M85806399 6830000
L92950149 13973750
" />
<path d="M66756399 6830000
L85806399 6830000
" />
<path d="M60803274 12783125
L66756399 6830000
" />
<path d="M47706399 12783125
L60803274 12783125
" />
<path d="M45325149 15164375
L47706399 12783125
" />
<path d="M41753274 15164375
L45325149 15164375
" />
<path d="M38181399 18736250
L41753274 15164375
" />
<path d="M38181399 22308125
L38181399 18736250
" />
<path d="M35800149 24689375
L38181399 22308125
" />
<path d="M10797024 24689375
L35800149 24689375
" />
<path d="M9606399 25880000
L10797024 24689375
" />
<path d="M9606399 99698750
L9606399 25880000
" />
<path d="M10797024 100889375
L9606399 99698750
" />
<path d="M47706399 100889375
L10797024 100889375
" />
<path d="M50087649 98508125
L47706399 100889375
" />
<path d="M53659524 98508125
L50087649 98508125
" />
<path d="M57231399 94936250
L53659524 98508125
" />
<path d="M57231399 92555000
L57231399 94936250
" />
<path d="M60803274 88983125
L57231399 92555000
" />
<path d="M66756399 88983125
L60803274 88983125
" />
<path d="M67947024 87792500
L66756399 88983125
" />
<path d="M71518899 87792500
L67947024 87792500
" />
<path d="M85806399 90173750
L83425149 87792500
" />
<path d="M102475149 90173750
L85806399 90173750
" />
<path d="M104856399 92555000
L102475149 90173750
" />
<path d="M123906399 92555000
L104856399 92555000
" />
<path d="M128668899 87792500
L123906399 92555000
" />
<path d="M141765774 87792500
L139384524 87792500
" />
<path d="M142956399 86601875
L141765774 87792500
" />
<path d="M142956399 68742500
L142956399 86601875
" />
<path d="M144147024 67551875
L142956399 68742500
" />
<path d="M152481399 67551875
L144147024 67551875
" />
<path d="M159625149 60408125
L152481399 67551875
" />
<path d="M165578274 60408125
L159625149 60408125
" />
<path d="M167959524 58026875
L165578274 60408125
" />
<path d="M167959524 44930000
L167959524 58026875
" />
<path d="M166768899 43739375
L167959524 44930000
" />
<path d="M166768899 11592500
L166768899 43739375
" />
<path d="M163197024 8020625
L166768899 11592500
" />
<path d="M134622024 8020625
L163197024 8020625
" />
<path d="M131050149 11592500
L134622024 8020625
" />
<path d="M127478274 11592500
L131050149 11592500
" />
<path d="M126287649 12783125
L127478274 11592500
" />
<path d="M113190774 12783125
L126287649 12783125
" />
<path d="M112000149 13973750
L113190774 12783125
" />
<path d="M92950149 13973750
L112000149 13973750
" />
<path d="M79853274.000000 87792500.000000 A1190625.000000 1190625.000000 0.0 0 0 79853274.000000 90173750.000000" />
<path d="M71518899.000000 90173750.000000 A1190625.000000 1190625.000000 0.0 0 0 71518899.000000 87792500.000000" />
<g >
</g>
<g >
</g>
<g >
</g>
<g >
</g>
<g >
</g>
<g >
</g>
<g >
</g>
<g >
</g>
<g >
</g>
<g >
</g>
<g >
</g>
<g >
</g>
<g >
</g>
<g >
</g>
<g >
</g>
<g >
</g>
<g >
</g>
<g >
</g>
<g >
</g>
<g >
</g>
<g >
</g>
<g >
</g>
<g >
</g>
<g >
</g>
<g >
</g>
<g >
</g>
<g >
</g>
<g >
</g>
<g >
</g>
<g >
</g>
<g >
</g>
<g >
</g>
<g >
</g>
<g >
</g>
<g >
</g>
<g >
</g>
<g >
</g>
<g >
</g>
<g >
</g>
<g >
</g>
<g >
</g>
<g >
</g>
<g >
</g>
<g >
</g>
<g >
</g>
<g >
</g>
<g >
</g>
<g >
</g>
<g >
</g>
<g >
</g>
<g >
</g>
<g >
</g>
<g >
</g>
<g >
</g>
<g >
</g>
<g >
</g>
<g >
</g>
<g >
</g>
<g >
</g>
<g >
</g>
<g >
</g>
<g >
</g>
<g >
</g>
<g >
</g>
<g >
</g>
<g >
</g>
<g >
</g>
<g >
</g>
<g >
</g>
<g >
</g>
<g >
</g>
<g >
</g>
<g >
</g>
<g >
</g>
<g >
</g>
<g >
</g>
<g >
</g>
<g >
</g>
<g >
</g>
<g >
</g>
<g >
</g>
</g> 
</svg>
