<?xml version="1.0" standalone="no"?>
 <!DOCTYPE svg PUBLIC "-//W3C//DTD SVG 1.1//EN" 
 "http://www.w3.org/Graphics/SVG/1.1/DTD/svg11.dtd"> 
<svg
  xmlns:svg="http://www.w3.org/2000/svg"
  xmlns="http://www.w3.org/2000/svg"
  xmlns:xlink="http://www.w3.org/1999/xlink"
  version="1.1"
  width="17.038320cm" height="13.784580cm" viewBox="0 0 170383200 137845800">
<title>SVG Picture created as mykeeb-Nutzer_9.svg date 2022/04/25 08:41:00 </title>
  <desc>Picture generated by PCBNEW </desc>
<g style="fill:#000000; fill-opacity:1.000000;stroke:#000000; stroke-opacity:1.000000;
stroke-linecap:round; stroke-linejoin:round;"
 transform="translate(0 0) scale(1 1)">
</g>
<g style="fill:#000000; fill-opacity:0.0; 
stroke:#000000; stroke-width:0.000000; stroke-opacity:1; 
stroke-linecap:round; stroke-linejoin:round;">
</g>
<g style="fill:#000000; fill-opacity:0.0; 
stroke:#000000; stroke-width:100000.000000; stroke-opacity:1; 
stroke-linecap:round; stroke-linejoin:round;">
<path style="fill:#000000; fill-opacity:0.0; 
stroke:#000000; stroke-width:100000.000000; stroke-opacity:1; 
stroke-linecap:round; stroke-linejoin:round;fill:none"
d="M 92950149.000000,13973750.000000
112000149.000000,13973750.000000
113190774.000000,12783125.000000
126287649.000000,12783125.000000
127478274.000000,11592500.000000
131050149.000000,11592500.000000
134622024.000000,8020625.000000
163197024.000000,8020625.000000
166768899.000000,11592500.000000
166768899.000000,43739375.000000
167959524.000000,44930000.000000
167959524.000000,58026875.000000
165578274.000000,60408125.000000
159625149.000000,60408125.000000
152481399.000000,67551875.000000
144147024.000000,67551875.000000
142956399.000000,68742500.000000
142956399.000000,86601875.000000
141765774.000000,87792500.000000
128668899.000000,87792500.000000
123906399.000000,92555000.000000
104856399.000000,92555000.000000
102475149.000000,90173750.000000
85806399.000000,90173750.000000
83425149.000000,87792500.000000
67947024.000000,87792500.000000
66756399.000000,88983125.000000
60803274.000000,88983125.000000
57231399.000000,92555000.000000
57231399.000000,94936250.000000
53659524.000000,98508125.000000
50087649.000000,98508125.000000
47706399.000000,100889375.000000
10797024.000000,100889375.000000
9606399.000000,99698750.000000
9606399.000000,25880000.000000
10797024.000000,24689375.000000
35800149.000000,24689375.000000
38181399.000000,22308125.000000
38181399.000000,18736250.000000
41753274.000000,15164375.000000
45325149.000000,15164375.000000
47706399.000000,12783125.000000
60803274.000000,12783125.000000
66756399.000000,6830000.000000
85806399.000000,6830000.000000
Z" /> 
<g >
</g>
<g >
</g>
<g >
</g>
<g >
</g>
<g >
</g>
<g >
</g>
<g >
</g>
<g >
</g>
<g >
</g>
<g >
</g>
<g >
</g>
<g >
</g>
<g >
</g>
<g >
</g>
<g >
</g>
<g >
</g>
<g >
</g>
<g >
</g>
<g >
</g>
<g >
</g>
<g >
</g>
<g >
</g>
<g >
</g>
<g >
</g>
<g >
</g>
<g >
</g>
<g >
</g>
<g >
</g>
<g >
</g>
<g >
</g>
<g >
</g>
<g >
</g>
<g >
</g>
<g >
</g>
<g >
</g>
<g >
</g>
<g >
</g>
<g >
</g>
<g >
</g>
<g >
</g>
<g >
</g>
<g >
</g>
<g >
</g>
<g >
</g>
<g >
</g>
<g >
</g>
<g >
</g>
<g >
</g>
<g >
</g>
<g >
</g>
<g >
</g>
<g >
</g>
<g >
</g>
<g >
</g>
<g >
</g>
<g >
</g>
<g >
</g>
<g >
</g>
<g >
</g>
<g >
</g>
<g >
</g>
<g >
</g>
<g >
</g>
<g >
</g>
<g >
</g>
<g >
</g>
<g >
</g>
<g >
</g>
<g >
</g>
<g >
</g>
<g >
</g>
<g >
</g>
<g >
</g>
<g >
</g>
<g >
</g>
<g >
</g>
<g >
</g>
<g >
</g>
<g >
</g>
<g >
</g>
<g >
</g>
</g> 
</svg>
