<?xml version="1.0" standalone="no"?>
 <!DOCTYPE svg PUBLIC "-//W3C//DTD SVG 1.1//EN" 
 "http://www.w3.org/Graphics/SVG/1.1/DTD/svg11.dtd"> 
<svg
  xmlns:svg="http://www.w3.org/2000/svg"
  xmlns="http://www.w3.org/2000/svg"
  xmlns:xlink="http://www.w3.org/1999/xlink"
  version="1.1"
  width="17.038320cm" height="13.784580cm" viewBox="0 0 170383200 137845800">
<title>SVG Picture created as mykeeb-Nutzer_4.svg date 2022/04/25 08:41:00 </title>
  <desc>Picture generated by PCBNEW </desc>
<g style="fill:#000000; fill-opacity:1.000000;stroke:#000000; stroke-opacity:1.000000;
stroke-linecap:round; stroke-linejoin:round;"
 transform="translate(0 0) scale(1 1)">
</g>
<g style="fill:#000000; fill-opacity:0.0; 
stroke:#000000; stroke-width:0.000000; stroke-opacity:1; 
stroke-linecap:round; stroke-linejoin:round;">
</g>
<g style="fill:#000000; fill-opacity:0.0; 
stroke:#000000; stroke-width:150000.000000; stroke-opacity:1; 
stroke-linecap:round; stroke-linejoin:round;">
</g>
<g style="fill:#000000; fill-opacity:1.0; 
stroke:#000000; stroke-width:150000.000000; stroke-opacity:1; 
stroke-linecap:round; stroke-linejoin:round;">
<path style="fill:#000000; fill-opacity:1.0; 
stroke:#000000; stroke-width:150000.000000; stroke-opacity:1; 
stroke-linecap:round; stroke-linejoin:round;fill-rule:evenodd;"
d="M 39372024.000000,22308125.000000
35800149.000000,25880000.000000
10797024.000000,25880000.000000
10797024.000000,99698750.000000
47706399.000000,99698750.000000
50087649.000000,97317500.000000
50087649.000000,98508125.000000
47706399.000000,100889375.000000
10797024.000000,100889375.000000
9606399.000000,99698750.000000
9606399.000000,25880000.000000
10797024.000000,24689375.000000
34609524.000000,24689375.000000
38181399.000000,21117500.000000
Z" /> 
<path style="fill:#000000; fill-opacity:1.0; 
stroke:#000000; stroke-width:150000.000000; stroke-opacity:1; 
stroke-linecap:round; stroke-linejoin:round;fill-rule:evenodd;"
d="M 91759524.000000,12783125.000000
90568899.000000,13973750.000000
88187649.000000,13973750.000000
85806399.000000,11592500.000000
85806399.000000,9211250.000000
86997024.000000,8020625.000000
Z" /> 
<path style="fill:#000000; fill-opacity:1.0; 
stroke:#000000; stroke-width:150000.000000; stroke-opacity:1; 
stroke-linecap:round; stroke-linejoin:round;fill-rule:evenodd;"
d="M 166768899.000000,11592500.000000
166768899.000000,43739375.000000
165578274.000000,42548750.000000
165578274.000000,10401875.000000
Z" /> 
<path style="fill:#000000; fill-opacity:1.0; 
stroke:#000000; stroke-width:150000.000000; stroke-opacity:1; 
stroke-linecap:round; stroke-linejoin:round;fill-rule:evenodd;"
d="M 140575149.000000,67551875.000000
125097024.000000,67551875.000000
125097024.000000,65170625.000000
140575149.000000,65170625.000000
Z" /> 
<path style="fill:#000000; fill-opacity:1.0; 
stroke:#000000; stroke-width:150000.000000; stroke-opacity:1; 
stroke-linecap:round; stroke-linejoin:round;fill-rule:evenodd;"
d="M 104856399.000000,52073750.000000
107237649.000000,54455000.000000
104856399.000000,56836250.000000
104856399.000000,54455000.000000
102475149.000000,52073750.000000
104856399.000000,49692500.000000
Z" /> 
<path style="fill:#000000; fill-opacity:1.0; 
stroke:#000000; stroke-width:150000.000000; stroke-opacity:1; 
stroke-linecap:round; stroke-linejoin:round;fill-rule:evenodd;"
d="M 104856399.000000,71123750.000000
107237649.000000,73505000.000000
104856399.000000,75886250.000000
104856399.000000,73505000.000000
102475149.000000,71123750.000000
104856399.000000,68742500.000000
Z" /> 
<path style="fill:#000000; fill-opacity:1.0; 
stroke:#000000; stroke-width:150000.000000; stroke-opacity:1; 
stroke-linecap:round; stroke-linejoin:round;fill-rule:evenodd;"
d="M 85806399.000000,85411250.000000
85806399.000000,90173750.000000
84615774.000000,88983125.000000
66756399.000000,88983125.000000
66756399.000000,85411250.000000
69137649.000000,83030000.000000
83425149.000000,83030000.000000
Z" /> 
<path style="fill:#000000; fill-opacity:1.0; 
stroke:#000000; stroke-width:150000.000000; stroke-opacity:1; 
stroke-linecap:round; stroke-linejoin:round;fill-rule:evenodd;"
d="M 48897024.000000,81839375.000000
47706399.000000,84220625.000000
45325149.000000,81839375.000000
47706399.000000,79458125.000000
Z" /> 
<path style="fill:#000000; fill-opacity:1.0; 
stroke:#000000; stroke-width:150000.000000; stroke-opacity:1; 
stroke-linecap:round; stroke-linejoin:round;fill-rule:evenodd;"
d="M 48897024.000000,62789375.000000
47706399.000000,65170625.000000
45325149.000000,62789375.000000
47706399.000000,60408125.000000
Z" /> 
<path style="fill:#000000; fill-opacity:1.0; 
stroke:#000000; stroke-width:150000.000000; stroke-opacity:1; 
stroke-linecap:round; stroke-linejoin:round;fill-rule:evenodd;"
d="M 48897024.000000,43739375.000000
47706399.000000,46120625.000000
45325149.000000,43739375.000000
47706399.000000,41358125.000000
Z" /> 
<path style="fill:#000000; fill-opacity:1.0; 
stroke:#000000; stroke-width:150000.000000; stroke-opacity:1; 
stroke-linecap:round; stroke-linejoin:round;fill-rule:evenodd;"
d="M 31037649.000000,43739375.000000
28656399.000000,46120625.000000
26275149.000000,43739375.000000
28656399.000000,41358125.000000
Z" /> 
<path style="fill:#000000; fill-opacity:1.0; 
stroke:#000000; stroke-width:150000.000000; stroke-opacity:1; 
stroke-linecap:round; stroke-linejoin:round;fill-rule:evenodd;"
d="M 31037649.000000,62789375.000000
28656399.000000,65170625.000000
26275149.000000,62789375.000000
28656399.000000,60408125.000000
Z" /> 
<path style="fill:#000000; fill-opacity:1.0; 
stroke:#000000; stroke-width:150000.000000; stroke-opacity:1; 
stroke-linecap:round; stroke-linejoin:round;fill-rule:evenodd;"
d="M 31037649.000000,81839375.000000
28656399.000000,84220625.000000
26275149.000000,81839375.000000
28656399.000000,79458125.000000
Z" /> 
<path style="fill:#000000; fill-opacity:1.0; 
stroke:#000000; stroke-width:150000.000000; stroke-opacity:1; 
stroke-linecap:round; stroke-linejoin:round;fill-rule:evenodd;"
d="M 104856399.000000,33023750.000000
107237649.000000,35405000.000000
104856399.000000,37786250.000000
104856399.000000,35405000.000000
102475149.000000,33023750.000000
104856399.000000,30642500.000000
Z" /> 
<path style="fill:#000000; fill-opacity:1.0; 
stroke:#000000; stroke-width:150000.000000; stroke-opacity:1; 
stroke-linecap:round; stroke-linejoin:round;fill-rule:evenodd;"
d="M 133431399.000000,13973750.000000
133431399.000000,18736250.000000
131050149.000000,21117500.000000
127478274.000000,21117500.000000
123906399.000000,17545625.000000
123906399.000000,12783125.000000
126287649.000000,12783125.000000
127478274.000000,11592500.000000
131050149.000000,11592500.000000
Z" /> 
<path style="fill:#000000; fill-opacity:1.0; 
stroke:#000000; stroke-width:150000.000000; stroke-opacity:1; 
stroke-linecap:round; stroke-linejoin:round;fill-rule:evenodd;"
d="M 47706399.000000,17545625.000000
47706399.000000,21117500.000000
44134524.000000,24689375.000000
40562649.000000,24689375.000000
38181399.000000,22308125.000000
38181399.000000,18736250.000000
41753274.000000,15164375.000000
45325149.000000,15164375.000000
Z" /> 
<path style="fill:#000000; fill-opacity:1.0; 
stroke:#000000; stroke-width:150000.000000; stroke-opacity:1; 
stroke-linecap:round; stroke-linejoin:round;fill-rule:evenodd;"
d="M 57231399.000000,92555000.000000
57231399.000000,94936250.000000
53659524.000000,98508125.000000
50087649.000000,98508125.000000
47706399.000000,96126875.000000
47706399.000000,92555000.000000
51278274.000000,88983125.000000
53659524.000000,88983125.000000
Z" /> 
<path style="fill:#000000; fill-opacity:1.0; 
stroke:#000000; stroke-width:150000.000000; stroke-opacity:1; 
stroke-linecap:round; stroke-linejoin:round;fill-rule:evenodd;"
d="M 157243899.000000,62789375.000000
152481399.000000,67551875.000000
146528274.000000,67551875.000000
146528274.000000,61598750.000000
150100149.000000,58026875.000000
152481399.000000,58026875.000000
Z" /> 
<g >
</g>
<g >
</g>
<g >
</g>
<g >
</g>
<g >
</g>
<g >
</g>
<g >
</g>
<g >
</g>
<g >
</g>
<g >
</g>
<g >
</g>
<g >
</g>
<g >
</g>
<g >
</g>
<g >
</g>
<g >
</g>
<g >
</g>
<g >
</g>
<g >
</g>
<g >
</g>
<g >
</g>
<g >
</g>
<g >
</g>
<g >
</g>
<g >
</g>
<g >
</g>
<g >
</g>
<g >
</g>
<g >
</g>
<g >
</g>
<g >
</g>
<g >
</g>
<g >
</g>
<g >
</g>
<g >
</g>
<g >
</g>
<g >
</g>
<g >
</g>
<g >
</g>
<g >
</g>
<g >
</g>
<g >
</g>
<g >
</g>
<g >
</g>
<g >
</g>
<g >
</g>
<g >
</g>
<g >
</g>
<g >
</g>
<g >
</g>
<g >
</g>
<g >
</g>
<g >
</g>
<g >
</g>
<g >
</g>
<g >
</g>
<g >
</g>
<g >
</g>
<g >
</g>
<g >
</g>
<g >
</g>
<g >
</g>
<g >
</g>
<g >
</g>
<g >
</g>
<g >
</g>
<g >
</g>
<g >
</g>
<g >
</g>
<g >
</g>
<g >
</g>
<g >
</g>
<g >
</g>
<g >
</g>
<g >
</g>
<g >
</g>
<g >
</g>
<g >
</g>
<g >
</g>
<g >
</g>
<g >
</g>
</g> 
</svg>
