<?xml version="1.0" standalone="no"?>
 <!DOCTYPE svg PUBLIC "-//W3C//DTD SVG 1.1//EN" 
 "http://www.w3.org/Graphics/SVG/1.1/DTD/svg11.dtd"> 
<svg
  xmlns:svg="http://www.w3.org/2000/svg"
  xmlns="http://www.w3.org/2000/svg"
  xmlns:xlink="http://www.w3.org/1999/xlink"
  version="1.1"
  width="16.060420cm" height="13.756640cm" viewBox="0 0 160604200 137566400">
<title>SVG Picture created as mykeeb-adapter-Nutzer_9.svg date 2022/04/30 21:11:01 </title>
  <desc>Picture generated by PCBNEW </desc>
<g style="fill:#000000; fill-opacity:1.000000;stroke:#000000; stroke-opacity:1.000000;
stroke-linecap:round; stroke-linejoin:round;"
 transform="translate(0 0) scale(1 1)">
</g>
<g style="fill:#000000; fill-opacity:0.0; 
stroke:#000000; stroke-width:0.000000; stroke-opacity:1; 
stroke-linecap:round; stroke-linejoin:round;">
</g>
<g style="fill:#000000; fill-opacity:0.0; 
stroke:#000000; stroke-width:150000.000000; stroke-opacity:1; 
stroke-linecap:round; stroke-linejoin:round;">
<path d="M56034422 20315642
L58415674 20315642
" />
<path d="M58415674 20315642
L58415674 22696894
" />
<path d="M58415674 22696894
L56034422 22696894
" />
<path d="M56034422 22696894
L56034422 20315642
" />
<path d="M94134454 40556284
L96515706 40556284
" />
<path d="M96515706 40556284
L96515706 42937536
" />
<path d="M96515706 42937536
L94134454 42937536
" />
<path d="M94134454 42937536
L94134454 40556284
" />
<path d="M56034422 39365658
L58415674 39365658
" />
<path d="M58415674 39365658
L58415674 41746910
" />
<path d="M58415674 41746910
L56034422 41746910
" />
<path d="M56034422 41746910
L56034422 39365658
" />
<path d="M94134454 21506268
L96515706 21506268
" />
<path d="M96515706 21506268
L96515706 23887520
" />
<path d="M96515706 23887520
L94134454 23887520
" />
<path d="M94134454 23887520
L94134454 21506268
" />
<path style="fill:#000000; fill-opacity:0.0; 
stroke:#000000; stroke-width:150000.000000; stroke-opacity:1; 
stroke-linecap:round; stroke-linejoin:round;fill:none"
d="M 83418820.000000,7218756.000000
97706332.000000,7218756.000000
100087584.000000,4837504.000000
109612592.000000,4837504.000000
110207905.000000,5432817.000000
120923539.000000,5432817.000000
123900104.000000,8409382.000000
123900104.000000,11385947.000000
126876669.000000,14362512.000000
133425112.000000,14362512.000000
135211051.000000,16148451.000000
135211051.000000,25078146.000000
141759494.000000,31626589.000000
141759494.000000,46509414.000000
138782929.000000,49485979.000000
136401677.000000,49485979.000000
134615738.000000,51271918.000000
134615738.000000,78656316.000000
132234486.000000,81037568.000000
119137600.000000,81037568.000000
114375096.000000,85800072.000000
95325080.000000,85800072.000000
92943828.000000,83418820.000000
77465690.000000,83418820.000000
73893812.000000,79846942.000000
58415674.000000,79846942.000000
56034422.000000,82228194.000000
50081292.000000,82228194.000000
47700040.000000,84609446.000000
47700040.000000,88181324.000000
44128162.000000,91753202.000000
40556284.000000,91753202.000000
38175032.000000,94134454.000000
1265626.000000,94134454.000000
75000.000000,92943828.000000
75000.000000,19125016.000000
1265626.000000,17934390.000000
25078146.000000,17934390.000000
28650024.000000,14362512.000000
28650024.000000,11981260.000000
32221902.000000,8409382.000000
35793780.000000,8409382.000000
38175032.000000,6028130.000000
51271918.000000,6028130.000000
57225048.000000,75000.000000
76275064.000000,75000.000000
Z" /> 
<g >
</g>
<g >
</g>
<g >
</g>
<g >
</g>
<g >
</g>
<g >
</g>
<g >
</g>
<g >
</g>
<g >
</g>
<g >
</g>
<g >
</g>
<g >
</g>
<g >
</g>
<g >
</g>
<g >
</g>
<g >
</g>
<g >
</g>
<g >
</g>
<g >
</g>
<g >
</g>
<g >
</g>
<g >
</g>
<g >
</g>
<g >
</g>
<g >
</g>
<g >
</g>
<g >
</g>
<g >
</g>
<g >
</g>
<g >
</g>
<g >
</g>
<g >
</g>
<g >
</g>
<g >
</g>
<g >
</g>
<g >
</g>
</g> 
</svg>
