<?xml version="1.0" standalone="no"?>
 <!DOCTYPE svg PUBLIC "-//W3C//DTD SVG 1.1//EN" 
 "http://www.w3.org/Graphics/SVG/1.1/DTD/svg11.dtd"> 
<svg
  xmlns:svg="http://www.w3.org/2000/svg"
  xmlns="http://www.w3.org/2000/svg"
  xmlns:xlink="http://www.w3.org/1999/xlink"
  version="1.1"
  width="16.060420cm" height="13.756640cm" viewBox="0 0 160604200 137566400">
<title>SVG Picture created as mykeeb-adapter-Edge_Cuts.svg date 2022/05/02 08:09:37 </title>
  <desc>Picture generated by PCBNEW </desc>
<g style="fill:#000000; fill-opacity:1.000000;stroke:#000000; stroke-opacity:1.000000;
stroke-linecap:round; stroke-linejoin:round;"
 transform="translate(0 0) scale(1 1)">
</g>
<g style="fill:#000000; fill-opacity:0.0; 
stroke:#000000; stroke-width:0.000000; stroke-opacity:1; 
stroke-linecap:round; stroke-linejoin:round;">
</g>
<g style="fill:#000000; fill-opacity:0.0; 
stroke:#000000; stroke-width:100000.000000; stroke-opacity:1; 
stroke-linecap:round; stroke-linejoin:round;">
<path d="M70917247 63773491
L75084438 63773491
" />
<path d="M75084438 63773491
L75084438 65559430
" />
<path d="M75084438 65559430
L70917247 65559430
" />
<path d="M70917247 65559430
L70917247 63773491
" />
<path d="M77465690 63773491
L81632881 63773491
" />
<path d="M81632881 63773491
L81632881 65559430
" />
<path d="M81632881 65559430
L77465690 65559430
" />
<path d="M77465690 65559430
L77465690 63773491
" />
<path style="fill:#000000; fill-opacity:0.0; 
stroke:#000000; stroke-width:100000.000000; stroke-opacity:1; 
stroke-linecap:round; stroke-linejoin:round;fill:none"
d="M 89371950.000000,19125016.000000
97111019.000000,19125016.000000
98301645.000000,20315642.000000
98326542.000000,51271918.000000
97135916.000000,52462544.000000
89967263.000000,52462544.000000
88776637.000000,53653170.000000
88776637.000000,62582865.000000
87586011.000000,63773491.000000
84014133.000000,63773491.000000
84014133.000000,65559430.000000
85204759.000000,65559430.000000
85204759.000000,84609446.000000
87586011.000000,86990698.000000
92348515.000000,86990698.000000
94729767.000000,88776637.000000
99492271.000000,88776637.000000
121518852.000000,95325080.000000
132829799.000000,84014133.000000
137592303.000000,84014133.000000
148903250.000000,95325080.000000
148903250.000000,98301645.000000
159618884.000000,116756348.000000
159618884.000000,119137600.000000
129257921.000000,136401677.000000
126876669.000000,136401677.000000
116756348.000000,118542287.000000
101278210.000000,109612592.000000
75679751.000000,102468836.000000
57820361.000000,102468836.000000
47104727.000000,120328226.000000
45914101.000000,120328226.000000
31626589.000000,112057955.000000
31626589.000000,109612592.000000
37579719.000000,99492271.000000
42342223.000000,94729767.000000
47700040.000000,94729767.000000
51271918.000000,91157889.000000
54843796.000000,91157889.000000
56034422.000000,89967263.000000
56034422.000000,85204759.000000
57820361.000000,83418820.000000
64964117.000000,83418820.000000
67345369.000000,81037568.000000
67345369.000000,65559430.000000
68535995.000000,65559430.000000
68535995.000000,63773491.000000
64964117.000000,63773491.000000
63773491.000000,62354702.000000
63773491.000000,53653170.000000
61987552.000000,51867231.000000
55439109.000000,51867231.000000
53653170.000000,50081292.000000
53653170.000000,19125016.000000
55439109.000000,17339077.000000
64964117.000000,17339077.000000
67940682.000000,14362512.000000
84634343.000000,14362512.000000
Z" /> 
<g >
</g>
<g >
</g>
<g >
</g>
<g >
</g>
<g >
</g>
<g >
</g>
<g >
</g>
<g >
</g>
<g >
</g>
<g >
</g>
<g >
</g>
<g >
</g>
<g >
</g>
<g >
</g>
<g >
</g>
<g >
</g>
<g >
</g>
<g >
</g>
<g >
</g>
<g >
</g>
<g >
</g>
<g >
</g>
<g >
</g>
<g >
</g>
<g >
</g>
<g >
</g>
<g >
</g>
<g >
</g>
<g >
</g>
<g >
</g>
<g >
</g>
<g >
</g>
<g >
</g>
<g >
</g>
<g >
</g>
<g >
</g>
</g> 
</svg>
