G04 #@! TF.GenerationSoftware,KiCad,Pcbnew,7.0.2*
G04 #@! TF.CreationDate,2023-05-25T14:20:14+02:00*
G04 #@! TF.ProjectId,mykeeb_v7a3-base,6d796b65-6562-45f7-9637-61332d626173,rev?*
G04 #@! TF.SameCoordinates,Original*
G04 #@! TF.FileFunction,Legend,Bot*
G04 #@! TF.FilePolarity,Positive*
%FSLAX46Y46*%
G04 Gerber Fmt 4.6, Leading zero omitted, Abs format (unit mm)*
G04 Created by KiCad (PCBNEW 7.0.2) date 2023-05-25 14:20:14*
%MOMM*%
%LPD*%
G01*
G04 APERTURE LIST*
%ADD10C,0.300000*%
%ADD11C,2.200000*%
G04 APERTURE END LIST*
D10*
X124015730Y-101210264D02*
X124015730Y-102424550D01*
X124015730Y-102424550D02*
X124087158Y-102567407D01*
X124087158Y-102567407D02*
X124158587Y-102638836D01*
X124158587Y-102638836D02*
X124301444Y-102710264D01*
X124301444Y-102710264D02*
X124515730Y-102710264D01*
X124515730Y-102710264D02*
X124658587Y-102638836D01*
X124015730Y-102138836D02*
X124158587Y-102210264D01*
X124158587Y-102210264D02*
X124444301Y-102210264D01*
X124444301Y-102210264D02*
X124587158Y-102138836D01*
X124587158Y-102138836D02*
X124658587Y-102067407D01*
X124658587Y-102067407D02*
X124730015Y-101924550D01*
X124730015Y-101924550D02*
X124730015Y-101495978D01*
X124730015Y-101495978D02*
X124658587Y-101353121D01*
X124658587Y-101353121D02*
X124587158Y-101281693D01*
X124587158Y-101281693D02*
X124444301Y-101210264D01*
X124444301Y-101210264D02*
X124158587Y-101210264D01*
X124158587Y-101210264D02*
X124015730Y-101281693D01*
X123301444Y-102210264D02*
X123301444Y-101210264D01*
X123301444Y-100710264D02*
X123372872Y-100781693D01*
X123372872Y-100781693D02*
X123301444Y-100853121D01*
X123301444Y-100853121D02*
X123230015Y-100781693D01*
X123230015Y-100781693D02*
X123301444Y-100710264D01*
X123301444Y-100710264D02*
X123301444Y-100853121D01*
X122801443Y-101210264D02*
X122230015Y-101210264D01*
X122587158Y-100710264D02*
X122587158Y-101995978D01*
X122587158Y-101995978D02*
X122515729Y-102138836D01*
X122515729Y-102138836D02*
X122372872Y-102210264D01*
X122372872Y-102210264D02*
X122230015Y-102210264D01*
X121730015Y-102210264D02*
X121730015Y-100710264D01*
X121087158Y-102210264D02*
X121087158Y-101424550D01*
X121087158Y-101424550D02*
X121158586Y-101281693D01*
X121158586Y-101281693D02*
X121301443Y-101210264D01*
X121301443Y-101210264D02*
X121515729Y-101210264D01*
X121515729Y-101210264D02*
X121658586Y-101281693D01*
X121658586Y-101281693D02*
X121730015Y-101353121D01*
X119730015Y-101210264D02*
X119730015Y-102210264D01*
X120372872Y-101210264D02*
X120372872Y-101995978D01*
X120372872Y-101995978D02*
X120301443Y-102138836D01*
X120301443Y-102138836D02*
X120158586Y-102210264D01*
X120158586Y-102210264D02*
X119944300Y-102210264D01*
X119944300Y-102210264D02*
X119801443Y-102138836D01*
X119801443Y-102138836D02*
X119730015Y-102067407D01*
X119015729Y-102210264D02*
X119015729Y-100710264D01*
X119015729Y-101281693D02*
X118872872Y-101210264D01*
X118872872Y-101210264D02*
X118587157Y-101210264D01*
X118587157Y-101210264D02*
X118444300Y-101281693D01*
X118444300Y-101281693D02*
X118372872Y-101353121D01*
X118372872Y-101353121D02*
X118301443Y-101495978D01*
X118301443Y-101495978D02*
X118301443Y-101924550D01*
X118301443Y-101924550D02*
X118372872Y-102067407D01*
X118372872Y-102067407D02*
X118444300Y-102138836D01*
X118444300Y-102138836D02*
X118587157Y-102210264D01*
X118587157Y-102210264D02*
X118872872Y-102210264D01*
X118872872Y-102210264D02*
X119015729Y-102138836D01*
X117658586Y-102067407D02*
X117587157Y-102138836D01*
X117587157Y-102138836D02*
X117658586Y-102210264D01*
X117658586Y-102210264D02*
X117730014Y-102138836D01*
X117730014Y-102138836D02*
X117658586Y-102067407D01*
X117658586Y-102067407D02*
X117658586Y-102210264D01*
X116301443Y-102138836D02*
X116444300Y-102210264D01*
X116444300Y-102210264D02*
X116730014Y-102210264D01*
X116730014Y-102210264D02*
X116872871Y-102138836D01*
X116872871Y-102138836D02*
X116944300Y-102067407D01*
X116944300Y-102067407D02*
X117015728Y-101924550D01*
X117015728Y-101924550D02*
X117015728Y-101495978D01*
X117015728Y-101495978D02*
X116944300Y-101353121D01*
X116944300Y-101353121D02*
X116872871Y-101281693D01*
X116872871Y-101281693D02*
X116730014Y-101210264D01*
X116730014Y-101210264D02*
X116444300Y-101210264D01*
X116444300Y-101210264D02*
X116301443Y-101281693D01*
X115444300Y-102210264D02*
X115587157Y-102138836D01*
X115587157Y-102138836D02*
X115658586Y-102067407D01*
X115658586Y-102067407D02*
X115730014Y-101924550D01*
X115730014Y-101924550D02*
X115730014Y-101495978D01*
X115730014Y-101495978D02*
X115658586Y-101353121D01*
X115658586Y-101353121D02*
X115587157Y-101281693D01*
X115587157Y-101281693D02*
X115444300Y-101210264D01*
X115444300Y-101210264D02*
X115230014Y-101210264D01*
X115230014Y-101210264D02*
X115087157Y-101281693D01*
X115087157Y-101281693D02*
X115015729Y-101353121D01*
X115015729Y-101353121D02*
X114944300Y-101495978D01*
X114944300Y-101495978D02*
X114944300Y-101924550D01*
X114944300Y-101924550D02*
X115015729Y-102067407D01*
X115015729Y-102067407D02*
X115087157Y-102138836D01*
X115087157Y-102138836D02*
X115230014Y-102210264D01*
X115230014Y-102210264D02*
X115444300Y-102210264D01*
X114301443Y-102210264D02*
X114301443Y-101210264D01*
X114301443Y-101353121D02*
X114230014Y-101281693D01*
X114230014Y-101281693D02*
X114087157Y-101210264D01*
X114087157Y-101210264D02*
X113872871Y-101210264D01*
X113872871Y-101210264D02*
X113730014Y-101281693D01*
X113730014Y-101281693D02*
X113658586Y-101424550D01*
X113658586Y-101424550D02*
X113658586Y-102210264D01*
X113658586Y-101424550D02*
X113587157Y-101281693D01*
X113587157Y-101281693D02*
X113444300Y-101210264D01*
X113444300Y-101210264D02*
X113230014Y-101210264D01*
X113230014Y-101210264D02*
X113087157Y-101281693D01*
X113087157Y-101281693D02*
X113015728Y-101424550D01*
X113015728Y-101424550D02*
X113015728Y-102210264D01*
X111230014Y-100638836D02*
X112515728Y-102567407D01*
X110730014Y-102210264D02*
X110730014Y-101210264D01*
X110730014Y-101353121D02*
X110658585Y-101281693D01*
X110658585Y-101281693D02*
X110515728Y-101210264D01*
X110515728Y-101210264D02*
X110301442Y-101210264D01*
X110301442Y-101210264D02*
X110158585Y-101281693D01*
X110158585Y-101281693D02*
X110087157Y-101424550D01*
X110087157Y-101424550D02*
X110087157Y-102210264D01*
X110087157Y-101424550D02*
X110015728Y-101281693D01*
X110015728Y-101281693D02*
X109872871Y-101210264D01*
X109872871Y-101210264D02*
X109658585Y-101210264D01*
X109658585Y-101210264D02*
X109515728Y-101281693D01*
X109515728Y-101281693D02*
X109444299Y-101424550D01*
X109444299Y-101424550D02*
X109444299Y-102210264D01*
X108087157Y-102210264D02*
X108087157Y-101424550D01*
X108087157Y-101424550D02*
X108158585Y-101281693D01*
X108158585Y-101281693D02*
X108301442Y-101210264D01*
X108301442Y-101210264D02*
X108587157Y-101210264D01*
X108587157Y-101210264D02*
X108730014Y-101281693D01*
X108087157Y-102138836D02*
X108230014Y-102210264D01*
X108230014Y-102210264D02*
X108587157Y-102210264D01*
X108587157Y-102210264D02*
X108730014Y-102138836D01*
X108730014Y-102138836D02*
X108801442Y-101995978D01*
X108801442Y-101995978D02*
X108801442Y-101853121D01*
X108801442Y-101853121D02*
X108730014Y-101710264D01*
X108730014Y-101710264D02*
X108587157Y-101638836D01*
X108587157Y-101638836D02*
X108230014Y-101638836D01*
X108230014Y-101638836D02*
X108087157Y-101567407D01*
X107515728Y-102210264D02*
X106730014Y-101210264D01*
X107515728Y-101210264D02*
X106730014Y-102210264D01*
X106158585Y-102210264D02*
X106158585Y-100710264D01*
X105515728Y-102210264D02*
X105515728Y-101424550D01*
X105515728Y-101424550D02*
X105587156Y-101281693D01*
X105587156Y-101281693D02*
X105730013Y-101210264D01*
X105730013Y-101210264D02*
X105944299Y-101210264D01*
X105944299Y-101210264D02*
X106087156Y-101281693D01*
X106087156Y-101281693D02*
X106158585Y-101353121D01*
X104801442Y-102210264D02*
X104801442Y-100710264D01*
X104801442Y-101281693D02*
X104658585Y-101210264D01*
X104658585Y-101210264D02*
X104372870Y-101210264D01*
X104372870Y-101210264D02*
X104230013Y-101281693D01*
X104230013Y-101281693D02*
X104158585Y-101353121D01*
X104158585Y-101353121D02*
X104087156Y-101495978D01*
X104087156Y-101495978D02*
X104087156Y-101924550D01*
X104087156Y-101924550D02*
X104158585Y-102067407D01*
X104158585Y-102067407D02*
X104230013Y-102138836D01*
X104230013Y-102138836D02*
X104372870Y-102210264D01*
X104372870Y-102210264D02*
X104658585Y-102210264D01*
X104658585Y-102210264D02*
X104801442Y-102138836D01*
X103444299Y-102210264D02*
X103444299Y-101210264D01*
X103444299Y-101495978D02*
X103372870Y-101353121D01*
X103372870Y-101353121D02*
X103301442Y-101281693D01*
X103301442Y-101281693D02*
X103158584Y-101210264D01*
X103158584Y-101210264D02*
X103015727Y-101210264D01*
%LPC*%
D11*
X176212648Y-38100032D03*
X214907993Y-134540738D03*
X99417271Y-50006292D03*
X91082889Y-76200064D03*
X91082889Y-100012584D03*
X64889117Y-148232937D03*
X145851685Y-116681348D03*
X183951717Y-130968860D03*
X214312680Y-50006292D03*
X89892263Y-126206356D03*
X137517303Y-39290658D03*
%LPD*%
M02*
