G04 #@! TF.GenerationSoftware,KiCad,Pcbnew,7.0.2*
G04 #@! TF.CreationDate,2023-05-25T14:20:13+02:00*
G04 #@! TF.ProjectId,mykeeb_v7a3-base,6d796b65-6562-45f7-9637-61332d626173,rev?*
G04 #@! TF.SameCoordinates,Original*
G04 #@! TF.FileFunction,Legend,Top*
G04 #@! TF.FilePolarity,Positive*
%FSLAX46Y46*%
G04 Gerber Fmt 4.6, Leading zero omitted, Abs format (unit mm)*
G04 Created by KiCad (PCBNEW 7.0.2) date 2023-05-25 14:20:13*
%MOMM*%
%LPD*%
G01*
G04 APERTURE LIST*
%ADD10C,0.300000*%
%ADD11C,2.200000*%
G04 APERTURE END LIST*
D10*
X103989149Y-101210264D02*
X103989149Y-102424550D01*
X103989149Y-102424550D02*
X103917720Y-102567407D01*
X103917720Y-102567407D02*
X103846291Y-102638836D01*
X103846291Y-102638836D02*
X103703434Y-102710264D01*
X103703434Y-102710264D02*
X103489149Y-102710264D01*
X103489149Y-102710264D02*
X103346291Y-102638836D01*
X103989149Y-102138836D02*
X103846291Y-102210264D01*
X103846291Y-102210264D02*
X103560577Y-102210264D01*
X103560577Y-102210264D02*
X103417720Y-102138836D01*
X103417720Y-102138836D02*
X103346291Y-102067407D01*
X103346291Y-102067407D02*
X103274863Y-101924550D01*
X103274863Y-101924550D02*
X103274863Y-101495978D01*
X103274863Y-101495978D02*
X103346291Y-101353121D01*
X103346291Y-101353121D02*
X103417720Y-101281693D01*
X103417720Y-101281693D02*
X103560577Y-101210264D01*
X103560577Y-101210264D02*
X103846291Y-101210264D01*
X103846291Y-101210264D02*
X103989149Y-101281693D01*
X104703434Y-102210264D02*
X104703434Y-101210264D01*
X104703434Y-100710264D02*
X104632006Y-100781693D01*
X104632006Y-100781693D02*
X104703434Y-100853121D01*
X104703434Y-100853121D02*
X104774863Y-100781693D01*
X104774863Y-100781693D02*
X104703434Y-100710264D01*
X104703434Y-100710264D02*
X104703434Y-100853121D01*
X105203435Y-101210264D02*
X105774863Y-101210264D01*
X105417720Y-100710264D02*
X105417720Y-101995978D01*
X105417720Y-101995978D02*
X105489149Y-102138836D01*
X105489149Y-102138836D02*
X105632006Y-102210264D01*
X105632006Y-102210264D02*
X105774863Y-102210264D01*
X106274863Y-102210264D02*
X106274863Y-100710264D01*
X106917721Y-102210264D02*
X106917721Y-101424550D01*
X106917721Y-101424550D02*
X106846292Y-101281693D01*
X106846292Y-101281693D02*
X106703435Y-101210264D01*
X106703435Y-101210264D02*
X106489149Y-101210264D01*
X106489149Y-101210264D02*
X106346292Y-101281693D01*
X106346292Y-101281693D02*
X106274863Y-101353121D01*
X108274864Y-101210264D02*
X108274864Y-102210264D01*
X107632006Y-101210264D02*
X107632006Y-101995978D01*
X107632006Y-101995978D02*
X107703435Y-102138836D01*
X107703435Y-102138836D02*
X107846292Y-102210264D01*
X107846292Y-102210264D02*
X108060578Y-102210264D01*
X108060578Y-102210264D02*
X108203435Y-102138836D01*
X108203435Y-102138836D02*
X108274864Y-102067407D01*
X108989149Y-102210264D02*
X108989149Y-100710264D01*
X108989149Y-101281693D02*
X109132007Y-101210264D01*
X109132007Y-101210264D02*
X109417721Y-101210264D01*
X109417721Y-101210264D02*
X109560578Y-101281693D01*
X109560578Y-101281693D02*
X109632007Y-101353121D01*
X109632007Y-101353121D02*
X109703435Y-101495978D01*
X109703435Y-101495978D02*
X109703435Y-101924550D01*
X109703435Y-101924550D02*
X109632007Y-102067407D01*
X109632007Y-102067407D02*
X109560578Y-102138836D01*
X109560578Y-102138836D02*
X109417721Y-102210264D01*
X109417721Y-102210264D02*
X109132007Y-102210264D01*
X109132007Y-102210264D02*
X108989149Y-102138836D01*
X110346292Y-102067407D02*
X110417721Y-102138836D01*
X110417721Y-102138836D02*
X110346292Y-102210264D01*
X110346292Y-102210264D02*
X110274864Y-102138836D01*
X110274864Y-102138836D02*
X110346292Y-102067407D01*
X110346292Y-102067407D02*
X110346292Y-102210264D01*
X111703436Y-102138836D02*
X111560578Y-102210264D01*
X111560578Y-102210264D02*
X111274864Y-102210264D01*
X111274864Y-102210264D02*
X111132007Y-102138836D01*
X111132007Y-102138836D02*
X111060578Y-102067407D01*
X111060578Y-102067407D02*
X110989150Y-101924550D01*
X110989150Y-101924550D02*
X110989150Y-101495978D01*
X110989150Y-101495978D02*
X111060578Y-101353121D01*
X111060578Y-101353121D02*
X111132007Y-101281693D01*
X111132007Y-101281693D02*
X111274864Y-101210264D01*
X111274864Y-101210264D02*
X111560578Y-101210264D01*
X111560578Y-101210264D02*
X111703436Y-101281693D01*
X112560578Y-102210264D02*
X112417721Y-102138836D01*
X112417721Y-102138836D02*
X112346292Y-102067407D01*
X112346292Y-102067407D02*
X112274864Y-101924550D01*
X112274864Y-101924550D02*
X112274864Y-101495978D01*
X112274864Y-101495978D02*
X112346292Y-101353121D01*
X112346292Y-101353121D02*
X112417721Y-101281693D01*
X112417721Y-101281693D02*
X112560578Y-101210264D01*
X112560578Y-101210264D02*
X112774864Y-101210264D01*
X112774864Y-101210264D02*
X112917721Y-101281693D01*
X112917721Y-101281693D02*
X112989150Y-101353121D01*
X112989150Y-101353121D02*
X113060578Y-101495978D01*
X113060578Y-101495978D02*
X113060578Y-101924550D01*
X113060578Y-101924550D02*
X112989150Y-102067407D01*
X112989150Y-102067407D02*
X112917721Y-102138836D01*
X112917721Y-102138836D02*
X112774864Y-102210264D01*
X112774864Y-102210264D02*
X112560578Y-102210264D01*
X113703435Y-102210264D02*
X113703435Y-101210264D01*
X113703435Y-101353121D02*
X113774864Y-101281693D01*
X113774864Y-101281693D02*
X113917721Y-101210264D01*
X113917721Y-101210264D02*
X114132007Y-101210264D01*
X114132007Y-101210264D02*
X114274864Y-101281693D01*
X114274864Y-101281693D02*
X114346293Y-101424550D01*
X114346293Y-101424550D02*
X114346293Y-102210264D01*
X114346293Y-101424550D02*
X114417721Y-101281693D01*
X114417721Y-101281693D02*
X114560578Y-101210264D01*
X114560578Y-101210264D02*
X114774864Y-101210264D01*
X114774864Y-101210264D02*
X114917721Y-101281693D01*
X114917721Y-101281693D02*
X114989150Y-101424550D01*
X114989150Y-101424550D02*
X114989150Y-102210264D01*
X116774864Y-100638836D02*
X115489150Y-102567407D01*
X117274864Y-102210264D02*
X117274864Y-101210264D01*
X117274864Y-101353121D02*
X117346293Y-101281693D01*
X117346293Y-101281693D02*
X117489150Y-101210264D01*
X117489150Y-101210264D02*
X117703436Y-101210264D01*
X117703436Y-101210264D02*
X117846293Y-101281693D01*
X117846293Y-101281693D02*
X117917722Y-101424550D01*
X117917722Y-101424550D02*
X117917722Y-102210264D01*
X117917722Y-101424550D02*
X117989150Y-101281693D01*
X117989150Y-101281693D02*
X118132007Y-101210264D01*
X118132007Y-101210264D02*
X118346293Y-101210264D01*
X118346293Y-101210264D02*
X118489150Y-101281693D01*
X118489150Y-101281693D02*
X118560579Y-101424550D01*
X118560579Y-101424550D02*
X118560579Y-102210264D01*
X119917722Y-102210264D02*
X119917722Y-101424550D01*
X119917722Y-101424550D02*
X119846293Y-101281693D01*
X119846293Y-101281693D02*
X119703436Y-101210264D01*
X119703436Y-101210264D02*
X119417722Y-101210264D01*
X119417722Y-101210264D02*
X119274864Y-101281693D01*
X119917722Y-102138836D02*
X119774864Y-102210264D01*
X119774864Y-102210264D02*
X119417722Y-102210264D01*
X119417722Y-102210264D02*
X119274864Y-102138836D01*
X119274864Y-102138836D02*
X119203436Y-101995978D01*
X119203436Y-101995978D02*
X119203436Y-101853121D01*
X119203436Y-101853121D02*
X119274864Y-101710264D01*
X119274864Y-101710264D02*
X119417722Y-101638836D01*
X119417722Y-101638836D02*
X119774864Y-101638836D01*
X119774864Y-101638836D02*
X119917722Y-101567407D01*
X120489150Y-102210264D02*
X121274865Y-101210264D01*
X120489150Y-101210264D02*
X121274865Y-102210264D01*
X121846293Y-102210264D02*
X121846293Y-100710264D01*
X122489151Y-102210264D02*
X122489151Y-101424550D01*
X122489151Y-101424550D02*
X122417722Y-101281693D01*
X122417722Y-101281693D02*
X122274865Y-101210264D01*
X122274865Y-101210264D02*
X122060579Y-101210264D01*
X122060579Y-101210264D02*
X121917722Y-101281693D01*
X121917722Y-101281693D02*
X121846293Y-101353121D01*
X123203436Y-102210264D02*
X123203436Y-100710264D01*
X123203436Y-101281693D02*
X123346294Y-101210264D01*
X123346294Y-101210264D02*
X123632008Y-101210264D01*
X123632008Y-101210264D02*
X123774865Y-101281693D01*
X123774865Y-101281693D02*
X123846294Y-101353121D01*
X123846294Y-101353121D02*
X123917722Y-101495978D01*
X123917722Y-101495978D02*
X123917722Y-101924550D01*
X123917722Y-101924550D02*
X123846294Y-102067407D01*
X123846294Y-102067407D02*
X123774865Y-102138836D01*
X123774865Y-102138836D02*
X123632008Y-102210264D01*
X123632008Y-102210264D02*
X123346294Y-102210264D01*
X123346294Y-102210264D02*
X123203436Y-102138836D01*
X124560579Y-102210264D02*
X124560579Y-101210264D01*
X124560579Y-101495978D02*
X124632008Y-101353121D01*
X124632008Y-101353121D02*
X124703437Y-101281693D01*
X124703437Y-101281693D02*
X124846294Y-101210264D01*
X124846294Y-101210264D02*
X124989151Y-101210264D01*
%LPC*%
D11*
X176212648Y-38100032D03*
X214907993Y-134540738D03*
X99417271Y-50006292D03*
X91082889Y-76200064D03*
X91082889Y-100012584D03*
X64889117Y-148232937D03*
X145851685Y-116681348D03*
X183951717Y-130968860D03*
X214312680Y-50006292D03*
X89892263Y-126206356D03*
X137517303Y-39290658D03*
%LPD*%
M02*
