<?xml version="1.0" standalone="no"?>
 <!DOCTYPE svg PUBLIC "-//W3C//DTD SVG 1.1//EN" 
 "http://www.w3.org/Graphics/SVG/1.1/DTD/svg11.dtd"> 
<svg
  xmlns:svg="http://www.w3.org/2000/svg"
  xmlns="http://www.w3.org/2000/svg"
  xmlns:xlink="http://www.w3.org/1999/xlink"
  version="1.1"
  width="14.267180cm" height="9.420860cm" viewBox="0 0 142671800 94208600">
<title>SVG Picture created as mykeeb-Nutzer_3.svg date 2022/05/08 18:47:05 </title>
  <desc>Picture generated by PCBNEW </desc>
<g style="fill:#000000; fill-opacity:1.000000;stroke:#000000; stroke-opacity:1.000000;
stroke-linecap:round; stroke-linejoin:round;"
 transform="translate(0 0) scale(1 1)">
</g>
<g style="fill:#000000; fill-opacity:0.0; 
stroke:#000000; stroke-width:0.000000; stroke-opacity:1; 
stroke-linecap:round; stroke-linejoin:round;">
</g>
<g style="fill:#000000; fill-opacity:1.0; 
stroke:#000000; stroke-width:1.000000; stroke-opacity:1; 
stroke-linecap:round; stroke-linejoin:round;">
<path style="fill:#000000; fill-opacity:1.0; 
stroke:#000000; stroke-width:1.000000; stroke-opacity:1; 
stroke-linecap:round; stroke-linejoin:round;fill-rule:evenodd;"
d="M 127471875.000000,64361746.000000
127471875.000000,78656250.000000
126281250.000000,79846875.000000
121518750.000000,79846875.000000
120328125.000000,78656250.000000
120328125.000000,64368750.000000
121518750.000000,63178125.000000
126281250.000000,63178125.000000
Z" /> 
<path style="fill:#000000; fill-opacity:1.0; 
stroke:#000000; stroke-width:1.000000; stroke-opacity:1; 
stroke-linecap:round; stroke-linejoin:round;fill-rule:evenodd;"
d="M 89371875.000000,28642996.000000
89371875.000000,42937500.000000
88181250.000000,44128125.000000
83418750.000000,44128125.000000
82228125.000000,42937500.000000
82228125.000000,28650000.000000
83418750.000000,27459375.000000
88181250.000000,27459375.000000
Z" /> 
<path style="fill:#000000; fill-opacity:1.0; 
stroke:#000000; stroke-width:1.000000; stroke-opacity:1; 
stroke-linecap:round; stroke-linejoin:round;fill-rule:evenodd;"
d="M 51271875.000000,27452371.000000
51271875.000000,41746875.000000
50081250.000000,42937500.000000
45318750.000000,42937500.000000
44128125.000000,41746875.000000
44128125.000000,27459375.000000
45318750.000000,26268750.000000
50081250.000000,26268750.000000
Z" /> 
<path style="fill:#000000; fill-opacity:1.0; 
stroke:#000000; stroke-width:1.000000; stroke-opacity:1; 
stroke-linecap:round; stroke-linejoin:round;fill-rule:evenodd;"
d="M 51271875.000000,46502371.000000
51271875.000000,60796875.000000
50081250.000000,61987500.000000
45318750.000000,61987500.000000
44128125.000000,60796875.000000
44128125.000000,46509375.000000
45318750.000000,45318750.000000
50081250.000000,45318750.000000
Z" /> 
<path style="fill:#000000; fill-opacity:1.0; 
stroke:#000000; stroke-width:1.000000; stroke-opacity:1; 
stroke-linecap:round; stroke-linejoin:round;fill-rule:evenodd;"
d="M 13171875.000000,77458621.000000
13171875.000000,91753125.000000
11981250.000000,92943750.000000
7218750.000000,92943750.000000
6028125.000000,91753125.000000
6028125.000000,77465625.000000
7218750.000000,76275000.000000
11981250.000000,76275000.000000
Z" /> 
<path style="fill:#000000; fill-opacity:1.0; 
stroke:#000000; stroke-width:1.000000; stroke-opacity:1; 
stroke-linecap:round; stroke-linejoin:round;fill-rule:evenodd;"
d="M 32221875.000000,77458621.000000
32221875.000000,91753125.000000
31031250.000000,92943750.000000
26268750.000000,92943750.000000
25078125.000000,91753125.000000
25078125.000000,77465625.000000
26268750.000000,76275000.000000
31031250.000000,76275000.000000
Z" /> 
<path style="fill:#000000; fill-opacity:1.0; 
stroke:#000000; stroke-width:1.000000; stroke-opacity:1; 
stroke-linecap:round; stroke-linejoin:round;fill-rule:evenodd;"
d="M 13171875.000000,58408621.000000
13171875.000000,72703125.000000
11981250.000000,73893750.000000
7218750.000000,73893750.000000
6028125.000000,72703125.000000
6028125.000000,58415625.000000
7218750.000000,57225000.000000
11981250.000000,57225000.000000
Z" /> 
<path style="fill:#000000; fill-opacity:1.0; 
stroke:#000000; stroke-width:1.000000; stroke-opacity:1; 
stroke-linecap:round; stroke-linejoin:round;fill-rule:evenodd;"
d="M 32221875.000000,39358621.000000
32221875.000000,53653125.000000
31031250.000000,54843750.000000
26268750.000000,54843750.000000
25078125.000000,53653125.000000
25078125.000000,39365625.000000
26268750.000000,38175000.000000
31031250.000000,38175000.000000
Z" /> 
<path style="fill:#000000; fill-opacity:1.0; 
stroke:#000000; stroke-width:1.000000; stroke-opacity:1; 
stroke-linecap:round; stroke-linejoin:round;fill-rule:evenodd;"
d="M 89371875.000000,9592996.000000
89371875.000000,23887500.000000
88181250.000000,25078125.000000
83418750.000000,25078125.000000
82228125.000000,23887500.000000
82228125.000000,9600000.000000
83418750.000000,8409375.000000
88181250.000000,8409375.000000
Z" /> 
<path style="fill:#000000; fill-opacity:1.0; 
stroke:#000000; stroke-width:1.000000; stroke-opacity:1; 
stroke-linecap:round; stroke-linejoin:round;fill-rule:evenodd;"
d="M 13171875.000000,39358621.000000
13171875.000000,53653125.000000
11981250.000000,54843750.000000
7218750.000000,54843750.000000
6028125.000000,53653125.000000
6028125.000000,39365625.000000
7218750.000000,38175000.000000
11981250.000000,38175000.000000
Z" /> 
<path style="fill:#000000; fill-opacity:1.0; 
stroke:#000000; stroke-width:1.000000; stroke-opacity:1; 
stroke-linecap:round; stroke-linejoin:round;fill-rule:evenodd;"
d="M 70321875.000000,2449246.000000
70321875.000000,16743750.000000
69131250.000000,17934375.000000
64368750.000000,17934375.000000
63178125.000000,16743750.000000
63178125.000000,2456250.000000
64368750.000000,1265625.000000
69131250.000000,1265625.000000
Z" /> 
<path style="fill:#000000; fill-opacity:1.0; 
stroke:#000000; stroke-width:1.000000; stroke-opacity:1; 
stroke-linecap:round; stroke-linejoin:round;fill-rule:evenodd;"
d="M 132234375.000000,45318750.000000
132234375.000000,50081250.000000
131043750.000000,51271875.000000
116756250.000000,51271875.000000
115565625.000000,50081250.000000
115565625.000000,45318750.000000
116756250.000000,44128125.000000
131050754.000000,44128125.000000
Z" /> 
<path style="fill:#000000; fill-opacity:1.0; 
stroke:#000000; stroke-width:1.000000; stroke-opacity:1; 
stroke-linecap:round; stroke-linejoin:round;fill-rule:evenodd;"
d="M 108421875.000000,69124246.000000
108421875.000000,83418750.000000
107231250.000000,84609375.000000
102468750.000000,84609375.000000
101278125.000000,83418750.000000
101278125.000000,69131250.000000
102468750.000000,67940625.000000
107231250.000000,67940625.000000
Z" /> 
<path style="fill:#000000; fill-opacity:1.0; 
stroke:#000000; stroke-width:1.000000; stroke-opacity:1; 
stroke-linecap:round; stroke-linejoin:round;fill-rule:evenodd;"
d="M 51271875.000000,8402371.000000
51271875.000000,22696875.000000
50081250.000000,23887500.000000
45318750.000000,23887500.000000
44128125.000000,22696875.000000
44128125.000000,8409375.000000
45318750.000000,7218750.000000
50081250.000000,7218750.000000
Z" /> 
<path style="fill:#000000; fill-opacity:1.0; 
stroke:#000000; stroke-width:1.000000; stroke-opacity:1; 
stroke-linecap:round; stroke-linejoin:round;fill-rule:evenodd;"
d="M 51271875.000000,65552371.000000
51271875.000000,79846875.000000
50081250.000000,81037500.000000
45318750.000000,81037500.000000
44128125.000000,79846875.000000
44128125.000000,65559375.000000
45318750.000000,64368750.000000
50081250.000000,64368750.000000
Z" /> 
<path style="fill:#000000; fill-opacity:1.0; 
stroke:#000000; stroke-width:1.000000; stroke-opacity:1; 
stroke-linecap:round; stroke-linejoin:round;fill-rule:evenodd;"
d="M 108421875.000000,11974246.000000
108421875.000000,26268750.000000
107231250.000000,27459375.000000
102468750.000000,27459375.000000
101278125.000000,26268750.000000
101278125.000000,11981250.000000
102468750.000000,10790625.000000
107231250.000000,10790625.000000
Z" /> 
<path style="fill:#000000; fill-opacity:1.0; 
stroke:#000000; stroke-width:1.000000; stroke-opacity:1; 
stroke-linecap:round; stroke-linejoin:round;fill-rule:evenodd;"
d="M 127471875.000000,16736746.000000
127471875.000000,31031250.000000
126281250.000000,32221875.000000
121518750.000000,32221875.000000
120328125.000000,31031250.000000
120328125.000000,16743750.000000
121518750.000000,15553125.000000
126281250.000000,15553125.000000
Z" /> 
<path style="fill:#000000; fill-opacity:1.0; 
stroke:#000000; stroke-width:1.000000; stroke-opacity:1; 
stroke-linecap:round; stroke-linejoin:round;fill-rule:evenodd;"
d="M 70321875.000000,21499246.000000
70321875.000000,35793750.000000
69131250.000000,36984375.000000
64368750.000000,36984375.000000
63178125.000000,35793750.000000
63178125.000000,21506250.000000
64368750.000000,20315625.000000
69131250.000000,20315625.000000
Z" /> 
<path style="fill:#000000; fill-opacity:1.0; 
stroke:#000000; stroke-width:1.000000; stroke-opacity:1; 
stroke-linecap:round; stroke-linejoin:round;fill-rule:evenodd;"
d="M 32221875.000000,20308621.000000
32221875.000000,34603125.000000
31031250.000000,35793750.000000
26268750.000000,35793750.000000
25078125.000000,34603125.000000
25078125.000000,20315625.000000
26268750.000000,19125000.000000
31031250.000000,19125000.000000
Z" /> 
<path style="fill:#000000; fill-opacity:1.0; 
stroke:#000000; stroke-width:1.000000; stroke-opacity:1; 
stroke-linecap:round; stroke-linejoin:round;fill-rule:evenodd;"
d="M 108421875.000000,50074246.000000
108421875.000000,64368750.000000
107231250.000000,65559375.000000
102468750.000000,65559375.000000
101278125.000000,64368750.000000
101278125.000000,50081250.000000
102468750.000000,48890625.000000
107231250.000000,48890625.000000
Z" /> 
<path style="fill:#000000; fill-opacity:1.0; 
stroke:#000000; stroke-width:1.000000; stroke-opacity:1; 
stroke-linecap:round; stroke-linejoin:round;fill-rule:evenodd;"
d="M 70321875.000000,59599246.000000
70321875.000000,73893750.000000
69131250.000000,75084375.000000
64368750.000000,75084375.000000
63178125.000000,73893750.000000
63178125.000000,59606250.000000
64368750.000000,58415625.000000
69131250.000000,58415625.000000
Z" /> 
<path style="fill:#000000; fill-opacity:1.0; 
stroke:#000000; stroke-width:1.000000; stroke-opacity:1; 
stroke-linecap:round; stroke-linejoin:round;fill-rule:evenodd;"
d="M 32221875.000000,58408621.000000
32221875.000000,72703125.000000
31031250.000000,73893750.000000
26268750.000000,73893750.000000
25078125.000000,72703125.000000
25078125.000000,58415625.000000
26268750.000000,57225000.000000
31031250.000000,57225000.000000
Z" /> 
<path style="fill:#000000; fill-opacity:1.0; 
stroke:#000000; stroke-width:1.000000; stroke-opacity:1; 
stroke-linecap:round; stroke-linejoin:round;fill-rule:evenodd;"
d="M 13171875.000000,20308621.000000
13171875.000000,34603125.000000
11981250.000000,35793750.000000
7218750.000000,35793750.000000
6028125.000000,34603125.000000
6028125.000000,20315625.000000
7218750.000000,19125000.000000
11981250.000000,19125000.000000
Z" /> 
<path style="fill:#000000; fill-opacity:1.0; 
stroke:#000000; stroke-width:1.000000; stroke-opacity:1; 
stroke-linecap:round; stroke-linejoin:round;fill-rule:evenodd;"
d="M 89371875.000000,66742996.000000
89371875.000000,81037500.000000
88181250.000000,82228125.000000
83418750.000000,82228125.000000
82228125.000000,81037500.000000
82228125.000000,66750000.000000
83418750.000000,65559375.000000
88181250.000000,65559375.000000
Z" /> 
<path style="fill:#000000; fill-opacity:1.0; 
stroke:#000000; stroke-width:1.000000; stroke-opacity:1; 
stroke-linecap:round; stroke-linejoin:round;fill-rule:evenodd;"
d="M 89371875.000000,47692996.000000
89371875.000000,61987500.000000
88181250.000000,63178125.000000
83418750.000000,63178125.000000
82228125.000000,61987500.000000
82228125.000000,47700000.000000
83418750.000000,46509375.000000
88181250.000000,46509375.000000
Z" /> 
<path style="fill:#000000; fill-opacity:1.0; 
stroke:#000000; stroke-width:1.000000; stroke-opacity:1; 
stroke-linecap:round; stroke-linejoin:round;fill-rule:evenodd;"
d="M 70321875.000000,40549246.000000
70321875.000000,54843750.000000
69131250.000000,56034375.000000
64368750.000000,56034375.000000
63178125.000000,54843750.000000
63178125.000000,40556250.000000
64368750.000000,39365625.000000
69131250.000000,39365625.000000
Z" /> 
<path style="fill:#000000; fill-opacity:1.0; 
stroke:#000000; stroke-width:1.000000; stroke-opacity:1; 
stroke-linecap:round; stroke-linejoin:round;fill-rule:evenodd;"
d="M 108421875.000000,31024246.000000
108421875.000000,45318750.000000
107231250.000000,46509375.000000
102468750.000000,46509375.000000
101278125.000000,45318750.000000
101278125.000000,31031250.000000
102468750.000000,29840625.000000
107231250.000000,29840625.000000
Z" /> 
<g >
</g>
<g >
</g>
<g >
</g>
<g >
</g>
<g >
</g>
<g >
</g>
<g >
</g>
<g >
</g>
<g >
</g>
<g >
</g>
<g >
</g>
<g >
</g>
<g >
</g>
<g >
</g>
<g >
</g>
<g >
</g>
<g >
</g>
<g >
</g>
<g >
</g>
<g >
</g>
<g >
</g>
<g >
</g>
<g >
</g>
<g >
</g>
<g >
</g>
<g >
</g>
<g >
</g>
<g >
</g>
<g >
</g>
<g >
</g>
<g >
</g>
<g >
</g>
<g >
</g>
<g >
</g>
<g >
</g>
<g >
</g>
<g >
</g>
<g >
</g>
<g >
</g>
<g >
</g>
<g >
</g>
<g >
</g>
<g >
</g>
<g >
</g>
<g >
</g>
<g >
</g>
<g >
</g>
<g >
</g>
<g >
</g>
<g >
</g>
<g >
</g>
<g >
</g>
<g >
</g>
<g >
</g>
<g >
</g>
<g >
</g>
<g >
</g>
<g >
</g>
<g >
</g>
<g >
</g>
<g >
</g>
<g >
</g>
<g >
</g>
<g >
</g>
<g >
</g>
<g >
</g>
</g> 
</svg>
