<?xml version="1.0" standalone="no"?>
 <!DOCTYPE svg PUBLIC "-//W3C//DTD SVG 1.1//EN" 
 "http://www.w3.org/Graphics/SVG/1.1/DTD/svg11.dtd"> 
<svg
  xmlns:svg="http://www.w3.org/2000/svg"
  xmlns="http://www.w3.org/2000/svg"
  xmlns:xlink="http://www.w3.org/1999/xlink"
  version="1.1"
  width="173.9900mm" height="154.9146mm" viewBox="0.0000 0.0000 173.9900 154.9146">
<title>SVG Image created as mykeeb_v7a3-plate-Edge_Cuts.svg date 2023/05/24 11:39:16 </title>
  <desc>Image generated by PCBNEW </desc>
<g style="fill:#000000; fill-opacity:1.0000;stroke:#000000; stroke-opacity:1.0000;
stroke-linecap:round; stroke-linejoin:round;"
 transform="translate(0 0) scale(1 1)">
</g>
<g style="fill:#000000; fill-opacity:0.0; 
stroke:#000000; stroke-width:0.0000; stroke-opacity:1; 
stroke-linecap:round; stroke-linejoin:round;">
</g>
<g style="fill:#000000; fill-opacity:0.0; 
stroke:#000000; stroke-width:0.1000; stroke-opacity:1; 
stroke-linecap:round; stroke-linejoin:round;">
<path d="M91.2576 104.9062 A1.1906 1.1906 0.0 0 0 93.4389 105.5667" />
<path d="M104.7499 91.7583 A5.3578 5.3578 0.0 0 0 104.7499 81.0426" />
<path d="M69.2814 100.1437 A2.3813 2.3813 0.0 1 0 64.8582 101.3689" />
<path d="M69.2814 100.1437
L69.2814 104.9062
" />
<path d="M95.6807 101.3688 A2.3812 2.3812 0.0 1 0 91.2576 100.1437" />
<path d="M99.3920 91.7582
L104.7499 91.7582
" />
<path d="M91.2576 104.9062
L91.2576 100.1437
" />
</g>
<g style="fill:#000000; fill-opacity:0.0; 
stroke:#000000; stroke-width:0.1600; stroke-opacity:1; 
stroke-linecap:round; stroke-linejoin:round;">
<circle cx="43.4326" cy="95.9255" r="5.3578" /> 
</g>
<g style="fill:#000000; fill-opacity:0.0; 
stroke:#000000; stroke-width:0.1000; stroke-opacity:1; 
stroke-linecap:round; stroke-linejoin:round;">
<path d="M99.3920 81.0426 A5.3578 5.3578 0.0 0 0 99.3920 91.7582" />
<path d="M67.1001 105.5666 A1.1906 1.1906 0.0 0 0 69.2814 104.9062" />
<path d="M64.8582 101.3689
L67.1001 105.5667
" />
<path d="M99.3920 81.0426
L104.7499 81.0426
" />
<path d="M93.4389 105.5667
L95.6808 101.3689
" />
</g>
<g style="fill:#000000; fill-opacity:0.0; 
stroke:#000000; stroke-width:0.1600; stroke-opacity:1; 
stroke-linecap:round; stroke-linejoin:round;">
<path d="M168.4483 100.6879 A3.5718 3.5718 0.0 0 0 172.0201 97.1161" />
<path d="M136.8968 0.0800 A3.5717 3.5717 0.0 0 0 133.3249 3.6519" />
<path d="M141.0639 114.9755 A3.5718 3.5718 0.0 0 0 144.6358 118.5474" />
<path d="M38.0918,129.4268 C35.3632,132.3041 33.2792,134.6851 25.9843,146.5057" />
<path d="M114.8702 8.4144 A2.9767 2.9767 0.0 0 0 111.8935 5.4377" />
</g>
<g style="fill:#000000; fill-opacity:0.0; 
stroke:#000000; stroke-width:0.1000; stroke-opacity:1; 
stroke-linecap:round; stroke-linejoin:round;">
<path d="M167.8530 13.7722
L168.4484 13.7722
" />
</g>
<g style="fill:#000000; fill-opacity:0.0; 
stroke:#000000; stroke-width:0.1600; stroke-opacity:1; 
stroke-linecap:round; stroke-linejoin:round;">
<path d="M44.6232 49.4910 A3.5718 3.5718 0.0 0 0 41.0514 53.0629" />
<path d="M16.6992 100.2572
L40.0051 82.3777
" />
</g>
<g style="fill:#000000; fill-opacity:0.0; 
stroke:#000000; stroke-width:0.1000; stroke-opacity:1; 
stroke-linecap:round; stroke-linejoin:round;">
<path d="M172.0203 10.2003
L172.0202 2.4613
" />
</g>
<g style="fill:#000000; fill-opacity:0.0; 
stroke:#000000; stroke-width:0.1600; stroke-opacity:1; 
stroke-linecap:round; stroke-linejoin:round;">
<path d="M40.0051 82.3777 A3.5721 3.5721 0.0 0 0 41.0513 79.8520" />
<path d="M44.6233 73.3036 A3.5719 3.5719 0.0 0 0 41.0514 76.8755" />
<path d="M172.0202 2.4613 A2.3812 2.3812 0.0 0 0 169.6389 0.0800" />
<path d="M53.5200,115.6349 C50.7418,117.4208 49.1545,118.6114 46.6742,120.8936" />
<path d="M168.4483 100.6879 A3.5720 3.5720 0.0 0 0 164.8764 104.2599" />
<path d="M19.9094 123.9925
L12.1702 138.3490
" />
<path d="M48.1952 69.7317 A3.5718 3.5718 0.0 0 0 44.6233 66.1599" />
<path d="M112.5730 114.9230
L123.8789 98.7889
" />
</g>
<g style="fill:#000000; fill-opacity:0.0; 
stroke:#000000; stroke-width:0.1000; stroke-opacity:1; 
stroke-linecap:round; stroke-linejoin:round;">
<path d="M41.0513 62.5880
L41.0514 53.0629
" />
</g>
<g style="fill:#000000; fill-opacity:0.0; 
stroke:#000000; stroke-width:0.1600; stroke-opacity:1; 
stroke-linecap:round; stroke-linejoin:round;">
<path d="M13.8359 143.7132
L22.5144 147.7488
" />
</g>
<g style="fill:#000000; fill-opacity:0.0; 
stroke:#000000; stroke-width:0.1000; stroke-opacity:1; 
stroke-linecap:round; stroke-linejoin:round;">
<path d="M169.6389 0.0800
L136.8968 0.0800
" />
</g>
<g style="fill:#000000; fill-opacity:0.0; 
stroke:#000000; stroke-width:0.1600; stroke-opacity:1; 
stroke-linecap:round; stroke-linejoin:round;">
<path d="M141.0638 100.6880 A3.5718 3.5718 0.0 0 0 137.4920 97.1161" />
<path d="M144.6358 118.5474
L161.3046 118.5474
" />
<path d="M18.1598 108.8911
L15.5923 105.9529
" />
<path d="M172.0202 26.8691
L172.0201 97.1161
" />
<path d="M19.9094 123.9925 A11.5589 11.5589 0.0 0 0 18.1598 108.8911" />
<path d="M48.1952 45.9191 A3.5718 3.5718 0.0 0 0 44.6232 42.3473" />
<path d="M141.0639 114.9755
L141.0639 100.6880
" />
<path d="M164.8764 114.9755
L164.8764 104.2599
" />
<path d="M167.8530 13.7722 A3.5719 3.5719 0.0 0 0 164.2812 17.3441" />
<path d="M41.0514 62.5880 A3.5718 3.5718 0.0 0 0 44.6233 66.1599" />
<path d="M168.4484 13.7722 A3.5718 3.5718 0.0 0 0 172.0203 10.2003" />
</g>
<g style="fill:#000000; fill-opacity:0.0; 
stroke:#000000; stroke-width:0.1000; stroke-opacity:1; 
stroke-linecap:round; stroke-linejoin:round;">
<path d="M41.0513 38.7754
L41.0514 26.8691
" />
</g>
<g style="fill:#000000; fill-opacity:0.0; 
stroke:#000000; stroke-width:0.1600; stroke-opacity:1; 
stroke-linecap:round; stroke-linejoin:round;">
<path d="M44.6232 49.4910 A3.5718 3.5718 0.0 0 0 48.1951 45.9191" />
<path d="M44.6233 73.3036 A3.5719 3.5719 0.0 0 0 48.1952 69.7316" />
<path d="M63.7398,110.0791 C60.2672,111.4681 56.2982,113.8491 53.5200,115.6349" />
<path d="M107.6937 116.2300 A3.5720 3.5720 0.0 0 0 112.5730 114.9230" />
</g>
<g style="fill:#000000; fill-opacity:0.0; 
stroke:#000000; stroke-width:0.1000; stroke-opacity:1; 
stroke-linecap:round; stroke-linejoin:round;">
<path d="M52.9576 23.2973
L44.6232 23.2972
" />
<path d="M44.6232 23.2972 A3.5719 3.5719 0.0 0 0 41.0514 26.8691" />
</g>
<g style="fill:#000000; fill-opacity:0.0; 
stroke:#000000; stroke-width:0.1600; stroke-opacity:1; 
stroke-linecap:round; stroke-linejoin:round;">
<path d="M16.6992 100.2572 A4.1252 4.1252 0.0 0 0 15.5923 105.9529" />
</g>
<g style="fill:#000000; fill-opacity:0.0; 
stroke:#000000; stroke-width:0.1000; stroke-opacity:1; 
stroke-linecap:round; stroke-linejoin:round;">
<path d="M133.3248 7.8189
L133.3249 3.6519
" />
</g>
<g style="fill:#000000; fill-opacity:0.0; 
stroke:#000000; stroke-width:0.1600; stroke-opacity:1; 
stroke-linecap:round; stroke-linejoin:round;">
<path d="M114.8702 8.4144 A2.9766 2.9766 0.0 0 0 117.8469 11.3910" />
<path d="M107.6937,116.2301 C95.7872,109.0871 91.6202,108.4916 87.1553,108.1939" />
</g>
<g style="fill:#000000; fill-opacity:0.0; 
stroke:#000000; stroke-width:0.1000; stroke-opacity:1; 
stroke-linecap:round; stroke-linejoin:round;">
<path d="M137.4920 97.1161
L126.7764 97.1161
" />
</g>
<g style="fill:#000000; fill-opacity:0.0; 
stroke:#000000; stroke-width:0.1600; stroke-opacity:1; 
stroke-linecap:round; stroke-linejoin:round;">
<path d="M74.0583,108.0946 C70.1888,108.2931 67.2125,108.6901 63.7398,110.0791" />
</g>
<g style="fill:#000000; fill-opacity:0.0; 
stroke:#000000; stroke-width:0.1000; stroke-opacity:1; 
stroke-linecap:round; stroke-linejoin:round;">
<path d="M60.1014 12.5816
L91.0577 12.5817
" />
</g>
<g style="fill:#000000; fill-opacity:0.0; 
stroke:#000000; stroke-width:0.1600; stroke-opacity:1; 
stroke-linecap:round; stroke-linejoin:round;">
<path d="M164.2811 19.7254 A3.5719 3.5719 0.0 0 0 167.8530 23.2972" />
<path d="M126.7764 97.1161 A3.3457 3.3457 0.0 0 0 123.8789 98.7889" />
<path d="M60.1014 12.5816 A3.5718 3.5718 0.0 0 0 56.5295 16.1535" />
<path d="M12.1702 138.3490 A3.7904 3.7904 0.0 0 0 13.8359 143.7132" />
<path d="M46.6742,120.8936 C44.1938,123.1758 40.8205,126.5494 38.0918,129.4268" />
</g>
<g style="fill:#000000; fill-opacity:0.0; 
stroke:#000000; stroke-width:0.1000; stroke-opacity:1; 
stroke-linecap:round; stroke-linejoin:round;">
<path d="M164.2812 17.3441
L164.2811 19.7254
" />
</g>
<g style="fill:#000000; fill-opacity:0.0; 
stroke:#000000; stroke-width:0.1600; stroke-opacity:1; 
stroke-linecap:round; stroke-linejoin:round;">
<path d="M87.1553,108.1939 C82.6905,107.8961 77.9278,107.8961 74.0583,108.0946" />
<path d="M41.0513 38.7754 A3.5719 3.5719 0.0 0 0 44.6232 42.3473" />
<path d="M129.7530 11.3910 A3.5718 3.5718 0.0 0 0 133.3249 7.8191" />
</g>
<g style="fill:#000000; fill-opacity:0.0; 
stroke:#000000; stroke-width:0.1000; stroke-opacity:1; 
stroke-linecap:round; stroke-linejoin:round;">
<path d="M167.8530 23.2972
L168.4483 23.2972
" />
<path d="M56.5295 19.7254
L56.5295 16.1535
" />
</g>
<g style="fill:#000000; fill-opacity:0.0; 
stroke:#000000; stroke-width:0.1600; stroke-opacity:1; 
stroke-linecap:round; stroke-linejoin:round;">
<path d="M22.5144 147.7488 A2.6223 2.6223 0.0 0 0 25.9843 146.5057" />
<path d="M172.0202 26.8691 A3.5718 3.5718 0.0 0 0 168.4483 23.2972" />
<path d="M98.2014 5.4379 A3.5717 3.5717 0.0 0 0 94.6295 9.0097" />
<path d="M52.9576 23.2972 A3.5717 3.5717 0.0 0 0 56.5295 19.7254" />
<path d="M91.0577 12.5817 A3.5718 3.5718 0.0 0 0 94.6295 9.0097" />
</g>
<g style="fill:#000000; fill-opacity:0.0; 
stroke:#000000; stroke-width:0.1000; stroke-opacity:1; 
stroke-linecap:round; stroke-linejoin:round;">
<path d="M117.8469 11.3910
L129.7530 11.3910
" />
<path d="M98.2014 5.4378
L111.8935 5.4377
" />
</g>
<g style="fill:#000000; fill-opacity:0.0; 
stroke:#000000; stroke-width:0.1600; stroke-opacity:1; 
stroke-linecap:round; stroke-linejoin:round;">
<path d="M161.3046 118.5474 A3.5718 3.5718 0.0 0 0 164.8764 114.9755" />
</g>
<g style="fill:#000000; fill-opacity:0.0; 
stroke:#000000; stroke-width:0.1000; stroke-opacity:1; 
stroke-linecap:round; stroke-linejoin:round;">
<path d="M41.0514 76.8755
L41.0513 79.8520
" />
</g>
<g style="fill:#000000; fill-opacity:0.0; 
stroke:#000000; stroke-width:0.1200; stroke-opacity:1; 
stroke-linecap:round; stroke-linejoin:round;">
<path d="M45.2769 104.1078
L52.2769 116.2322
" />
<path d="M52.2769 116.2322
L64.4012 109.2322
" />
<path d="M64.4012 109.2322
L57.4012 97.1078
" />
<path d="M57.4012 97.1078
L45.2769 104.1078
" />
<path d="M156.0378 59.3553
L169.9845 60.5755
" />
<path d="M169.9845 60.5755
L171.2047 46.6287
" />
<path d="M171.2047 46.6287
L157.2580 45.4086
" />
<path d="M157.2580 45.4086
L156.0378 59.3553
" />
<path d="M117.3952 32.9660
L117.3952 46.9660
" />
<path d="M117.3952 46.9660
L131.3952 46.9660
" />
<path d="M131.3952 46.9660
L131.3952 32.9660
" />
<path d="M131.3952 32.9660
L117.3952 32.9660
" />
<path d="M136.4452 63.9223
L136.4452 77.9223
" />
<path d="M136.4452 77.9223
L150.4452 77.9223
" />
<path d="M150.4452 77.9223
L150.4452 63.9223
" />
<path d="M150.4452 63.9223
L136.4452 63.9223
" />
<path d="M79.2952 34.1567
L79.2952 48.1567
" />
<path d="M79.2952 48.1567
L93.2952 48.1567
" />
<path d="M93.2952 48.1567
L93.2952 34.1567
" />
<path d="M93.2952 34.1567
L79.2952 34.1567
" />
<path d="M136.4452 82.9723
L136.4452 96.9723
" />
<path d="M136.4452 96.9723
L150.4452 96.9723
" />
<path d="M150.4452 96.9723
L150.4452 82.9723
" />
<path d="M150.4452 82.9723
L136.4452 82.9723
" />
<path d="M98.3451 7.9629
L98.3451 21.9629
" />
<path d="M98.3451 21.9629
L112.3451 21.9629
" />
<path d="M112.3451 21.9629
L112.3451 7.9629
" />
<path d="M112.3451 7.9629
L98.3451 7.9629
" />
<path d="M155.4952 99.3535
L169.4952 99.3535
" />
<path d="M169.4952 99.3535
L169.4952 85.3535
" />
<path d="M169.4952 85.3535
L155.4952 85.3535
" />
<path d="M155.4952 85.3535
L155.4952 99.3535
" />
<path d="M155.4952 39.8223
L169.4952 39.8223
" />
<path d="M169.4952 39.8223
L169.4952 25.8223
" />
<path d="M169.4952 25.8223
L155.4952 25.8223
" />
<path d="M155.4952 25.8223
L155.4952 39.8223
" />
<path d="M73.3420 93.6880
L73.3420 107.6880
" />
<path d="M73.3420 107.6880
L87.3420 107.6880
" />
<path d="M87.3420 107.6880
L87.3420 93.6880
" />
<path d="M87.3420 93.6880
L73.3420 93.6880
" />
<path d="M55.1951 74.6380
L41.1951 74.6380
" />
<path d="M41.1951 74.6380
L41.1951 88.6380
" />
<path d="M41.1951 88.6380
L55.1951 88.6380
" />
<path d="M55.1951 88.6380
L55.1951 74.6380
" />
<path d="M27.5800 119.7379
L37.4795 129.6374
" />
<path d="M37.4795 129.6374
L47.3790 119.7379
" />
<path d="M47.3790 119.7379
L37.4795 109.8384
" />
<path d="M37.4795 109.8384
L27.5800 119.7379
" />
<path d="M136.4451 25.8223
L136.4451 39.8223
" />
<path d="M136.4451 39.8223
L150.4451 39.8223
" />
<path d="M150.4451 39.8223
L150.4451 25.8223
" />
<path d="M150.4451 25.8223
L136.4451 25.8223
" />
<path d="M14.2250 139.5643
L26.3493 146.5643
" />
<path d="M26.3493 146.5643
L33.3494 134.4399
" />
<path d="M33.3494 134.4399
L21.2250 127.4399
" />
<path d="M21.2250 127.4399
L14.2250 139.5643
" />
<path d="M36.2610 102.7483
L27.8356 91.5674
" />
<path d="M27.8356 91.5674
L16.6547 99.9929
" />
<path d="M16.6547 99.9929
L25.0801 111.1738
" />
<path d="M25.0801 111.1738
L36.2610 102.7483
" />
<path d="M60.2452 74.6379
L60.2452 88.6379
" />
<path d="M60.2452 88.6379
L74.2452 88.6379
" />
<path d="M74.2452 88.6379
L74.2452 74.6379
" />
<path d="M74.2452 74.6379
L60.2452 74.6379
" />
<path d="M98.3452 65.1129
L98.3452 79.1129
" />
<path d="M98.3452 79.1129
L112.3452 79.1129
" />
<path d="M112.3452 79.1129
L112.3452 65.1129
" />
<path d="M112.3452 65.1129
L98.3452 65.1129
" />
<path d="M79.2952 53.2067
L79.2952 67.2067
" />
<path d="M79.2952 67.2067
L93.2952 67.2067
" />
<path d="M93.2952 67.2067
L93.2952 53.2067
" />
<path d="M93.2952 53.2067
L79.2952 53.2067
" />
<path d="M60.2452 55.5879
L60.2452 69.5879
" />
<path d="M60.2452 69.5879
L74.2452 69.5879
" />
<path d="M74.2452 69.5879
L74.2452 55.5879
" />
<path d="M74.2452 55.5879
L60.2452 55.5879
" />
<path d="M98.3452 46.0629
L98.3452 60.0629
" />
<path d="M98.3452 60.0629
L112.3452 60.0629
" />
<path d="M112.3452 60.0629
L112.3452 46.0629
" />
<path d="M112.3452 46.0629
L98.3452 46.0629
" />
<path d="M117.3952 52.0160
L117.3952 66.0160
" />
<path d="M117.3952 66.0160
L131.3952 66.0160
" />
<path d="M131.3952 66.0160
L131.3952 52.0160
" />
<path d="M131.3952 52.0160
L117.3952 52.0160
" />
<path d="M60.2451 17.4879
L60.2451 31.4879
" />
<path d="M60.2451 31.4879
L74.2451 31.4879
" />
<path d="M74.2451 31.4879
L74.2451 17.4879
" />
<path d="M74.2451 17.4879
L60.2451 17.4879
" />
<path d="M55.1952 27.0129
L41.1952 27.0129
" />
<path d="M41.1952 27.0129
L41.1952 41.0129
" />
<path d="M41.1952 41.0129
L55.1952 41.0129
" />
<path d="M55.1952 41.0129
L55.1952 27.0129
" />
<path d="M79.2952 72.2567
L79.2952 86.2567
" />
<path d="M79.2952 86.2567
L93.2952 86.2567
" />
<path d="M93.2952 86.2567
L93.2952 72.2567
" />
<path d="M93.2952 72.2567
L79.2952 72.2567
" />
<path d="M117.3952 71.0660
L117.3952 85.0660
" />
<path d="M117.3952 85.0660
L131.3952 85.0660
" />
<path d="M131.3952 85.0660
L131.3952 71.0660
" />
<path d="M131.3952 71.0660
L117.3952 71.0660
" />
<path d="M117.3951 13.9160
L117.3951 27.9160
" />
<path d="M117.3951 27.9160
L131.3951 27.9160
" />
<path d="M131.3951 27.9160
L131.3951 13.9160
" />
<path d="M131.3951 13.9160
L117.3951 13.9160
" />
<path d="M156.0378 78.5381
L169.9845 79.7583
" />
<path d="M169.9845 79.7583
L171.2047 65.8115
" />
<path d="M171.2047 65.8115
L157.2580 64.5914
" />
<path d="M157.2580 64.5914
L156.0378 78.5381
" />
<path d="M55.1952 50.8254
L41.1952 50.8254
" />
<path d="M41.1952 50.8254
L41.1952 64.8254
" />
<path d="M41.1952 64.8254
L55.1952 64.8254
" />
<path d="M55.1952 64.8254
L55.1952 50.8254
" />
<path d="M102.7829 97.1500
L95.7829 109.2744
" />
<path d="M95.7829 109.2744
L107.9072 116.2744
" />
<path d="M107.9072 116.2744
L114.9072 104.1500
" />
<path d="M114.9072 104.1500
L102.7829 97.1500
" />
<path d="M145.9702 104.4036
L145.9702 118.4036
" />
<path d="M145.9702 118.4036
L159.9702 118.4036
" />
<path d="M159.9702 118.4036
L159.9702 104.4036
" />
<path d="M159.9702 104.4036
L145.9702 104.4036
" />
<path d="M136.4452 44.8723
L136.4452 58.8723
" />
<path d="M136.4452 58.8723
L150.4452 58.8723
" />
<path d="M150.4452 58.8723
L150.4452 44.8723
" />
<path d="M150.4452 44.8723
L136.4452 44.8723
" />
<path d="M98.3452 27.0129
L98.3452 41.0129
" />
<path d="M98.3452 41.0129
L112.3452 41.0129
" />
<path d="M112.3452 41.0129
L112.3452 27.0129
" />
<path d="M112.3452 27.0129
L98.3452 27.0129
" />
<path d="M79.2951 15.1067
L79.2951 29.1067
" />
<path d="M79.2951 29.1067
L93.2951 29.1067
" />
<path d="M93.2951 29.1067
L93.2951 15.1067
" />
<path d="M93.2951 15.1067
L79.2951 15.1067
" />
<path d="M74.2452 36.5379
L74.2452 50.5379
" />
<path d="M74.2452 50.5379
L60.2452 50.5379
" />
<path d="M60.2452 50.5379
L60.2452 36.5379
" />
<path d="M60.2452 36.5379
L74.2452 36.5379
" />
<g >
</g>
<g >
</g>
<g >
</g>
<g >
</g>
<g >
</g>
<g >
</g>
<g >
</g>
<g >
</g>
<g >
</g>
<g >
</g>
<g >
</g>
<g >
</g>
<g >
</g>
<g >
</g>
<g >
</g>
<g >
</g>
<g >
</g>
<g >
</g>
<g >
</g>
<g >
</g>
<g >
</g>
<g >
</g>
<g >
</g>
<g >
</g>
<g >
</g>
<g >
</g>
<g >
</g>
<g >
</g>
<g >
</g>
<g >
</g>
<g >
</g>
<g >
</g>
<g >
</g>
<g >
</g>
<g >
</g>
<g >
</g>
<g >
</g>
</g> 
</svg>
