<?xml version="1.0" standalone="no"?>
 <!DOCTYPE svg PUBLIC "-//W3C//DTD SVG 1.1//EN" 
 "http://www.w3.org/Graphics/SVG/1.1/DTD/svg11.dtd"> 
<svg
  xmlns:svg="http://www.w3.org/2000/svg"
  xmlns="http://www.w3.org/2000/svg"
  xmlns:xlink="http://www.w3.org/1999/xlink"
  version="1.1"
  width="173.5582mm" height="154.9146mm" viewBox="0.0000 0.0000 173.5582 154.9146">
<title>SVG Image created as mykeeb_v7a3-base-Edge_Cuts.svg date 2023/05/24 14:07:52 </title>
  <desc>Image generated by PCBNEW </desc>
<g style="fill:#000000; fill-opacity:1.0000;stroke:#000000; stroke-opacity:1.0000;
stroke-linecap:round; stroke-linejoin:round;"
 transform="translate(0 0) scale(1 1)">
</g>
<g style="fill:#000000; fill-opacity:0.0; 
stroke:#000000; stroke-width:0.0000; stroke-opacity:1; 
stroke-linecap:round; stroke-linejoin:round;">
</g>
<g style="fill:#000000; fill-opacity:0.0; 
stroke:#000000; stroke-width:0.1600; stroke-opacity:1; 
stroke-linecap:round; stroke-linejoin:round;">
<path d="M168.4483 107.8317 A3.5719 3.5719 0.0 0 0 172.0201 104.2598" />
</g>
<g style="fill:#000000; fill-opacity:0.0; 
stroke:#000000; stroke-width:0.1600; stroke-opacity:1; 
stroke-linecap:round; stroke-linejoin:round;">
<path d="M23.8962 147.9792
L24.0206 147.9629
" />
<path d="M45.7052 121.7975
L44.6705 122.7851
" />
</g>
<g style="fill:#000000; fill-opacity:0.0; 
stroke:#000000; stroke-width:0.1000; stroke-opacity:1; 
stroke-linecap:round; stroke-linejoin:round;">
<path d="M91.2576 104.9062 A1.1906 1.1906 0.0 0 0 93.4389 105.5667" />
</g>
<g style="fill:#000000; fill-opacity:0.0; 
stroke:#000000; stroke-width:0.1600; stroke-opacity:1; 
stroke-linecap:round; stroke-linejoin:round;">
<path d="M141.0639 114.9755 A3.5717 3.5717 0.0 0 0 144.6358 118.5473" />
</g>
<g style="fill:#000000; fill-opacity:0.0; 
stroke:#000000; stroke-width:0.1600; stroke-opacity:1; 
stroke-linecap:round; stroke-linejoin:round;">
<path d="M108.3533 116.5271
L108.5229 116.5790
" />
<path d="M12.5802 142.7708
L12.7132 142.9152
" />
<path d="M110.8897 116.4188
L111.0460 116.3473
" />
<path d="M75.5489 108.0297
L74.0583 108.0946
" />
<path d="M24.1438 147.9407
L24.2657 147.9128
" />
<path d="M100.0894 112.0029
L98.5535 111.2611
" />
<path d="M13.4835 143.5263
L13.6568 143.6242
" />
<path d="M23.2648 147.9699
L23.3916 147.9841
" />
<path d="M109.0380 116.6822
L109.2108 116.6993
" />
<path d="M50.7870 117.4819
L49.9853 118.0782
" />
<path d="M31.4753 137.8862
L30.5699 139.2550
" />
<path d="M77.1092 107.9845
L75.5489 108.0297
" />
<path d="M46.6742 120.8937
L45.7052 121.7975
" />
<path d="M59.7126 111.9766
L58.3695 112.7083
" />
<path d="M108.8656 116.6564
L109.0380 116.6822
" />
<path d="M70.0086 108.4436
L68.7502 108.6405
" />
<path d="M85.4693 108.0960
L83.7694 108.0249
" />
</g>
<g style="fill:#000000; fill-opacity:0.0; 
stroke:#000000; stroke-width:0.1000; stroke-opacity:1; 
stroke-linecap:round; stroke-linejoin:round;">
<circle cx="148.2077" cy="9.6051" r="4.1672" /> 
</g>
<g style="fill:#000000; fill-opacity:0.0; 
stroke:#000000; stroke-width:0.1600; stroke-opacity:1; 
stroke-linecap:round; stroke-linejoin:round;">
<path d="M111.3482 116.1818
L111.4935 116.0879
" />
<path d="M107.8552 116.3179
L108.0191 116.3967
" />
<path d="M13.6568 143.6242
L13.8359 143.7132
" />
<path d="M22.7610 147.8489
L22.8860 147.8889
" />
<path d="M62.4176 110.6434
L61.0686 111.2821
" />
<path d="M11.6970 139.6427
L11.6692 139.8370
" />
</g>
<g style="fill:#000000; fill-opacity:0.0; 
stroke:#000000; stroke-width:0.1000; stroke-opacity:1; 
stroke-linecap:round; stroke-linejoin:round;">
<path d="M136.8968 0.0801
L169.6389 0.0800
" />
</g>
<g style="fill:#000000; fill-opacity:0.0; 
stroke:#000000; stroke-width:0.1600; stroke-opacity:1; 
stroke-linecap:round; stroke-linejoin:round;">
<path d="M24.0206 147.9629
L24.1438 147.9407
" />
<path d="M12.3375 142.4622
L12.4549 142.6197
" />
</g>
<g style="fill:#000000; fill-opacity:0.0; 
stroke:#000000; stroke-width:0.1600; stroke-opacity:1; 
stroke-linecap:round; stroke-linejoin:round;">
<path d="M16.6435 100.0926
L40.0052 82.3777
" />
</g>
<g style="fill:#000000; fill-opacity:0.0; 
stroke:#000000; stroke-width:0.1600; stroke-opacity:1; 
stroke-linecap:round; stroke-linejoin:round;">
<path d="M25.0630 147.5612
L25.1664 147.4896
" />
<path d="M12.8535 143.0526
L13.0010 143.1827
" />
<path d="M93.5174 109.2790
L92.4764 108.9841
" />
<path d="M110.0690 116.6598
L110.2374 116.6274
" />
<path d="M25.2665 147.4129
L25.3631 147.3312
" />
<path d="M12.2282 142.2986
L12.3375 142.4622
" />
</g>
<g style="fill:#000000; fill-opacity:0.0; 
stroke:#000000; stroke-width:0.1600; stroke-opacity:1; 
stroke-linecap:round; stroke-linejoin:round;">
<path d="M40.0052 82.3777 A3.5723 3.5723 0.0 0 0 41.0514 79.8520" />
</g>
<g style="fill:#000000; fill-opacity:0.0; 
stroke:#000000; stroke-width:0.1600; stroke-opacity:1; 
stroke-linecap:round; stroke-linejoin:round;">
<path d="M108.6938 116.6221
L108.8656 116.6564
" />
<path d="M29.5767 140.7868
L28.4870 142.4961
" />
<path d="M53.5200 115.6350
L52.5299 116.2801
" />
<path d="M64.3854 109.8301
L63.7398 110.0792
" />
<path d="M28.4870 142.4961
L27.2924 144.3976
" />
<path d="M34.3903 133.7504
L33.7504 134.6126
" />
<path d="M25.4559 147.2446
L25.5449 147.1530
" />
<path d="M11.6466 140.4254
L11.6594 140.6221
" />
<path d="M24.8473 147.6887
L24.9566 147.6276
" />
<path d="M107.6937 116.2301
L107.8552 116.3179
" />
</g>
<g style="fill:#000000; fill-opacity:0.0; 
stroke:#000000; stroke-width:0.1600; stroke-opacity:1; 
stroke-linecap:round; stroke-linejoin:round;">
<path d="M131.5389 5.4379 A1.7860 1.7860 0.0 0 0 133.3249 3.6519" />
</g>
<g style="fill:#000000; fill-opacity:0.0; 
stroke:#000000; stroke-width:0.1600; stroke-opacity:1; 
stroke-linecap:round; stroke-linejoin:round;">
<path d="M11.6692 139.8370
L11.6515 140.0325
" />
<path d="M95.8375 110.0913
L94.6339 109.6451
" />
<path d="M22.6371 147.8022
L22.7610 147.8489
" />
<path d="M13.0010 143.1827
L13.1553 143.3052
" />
<path d="M80.3835 107.9582
L78.7255 107.9603
" />
<path d="M13.1553 143.3052
L13.3162 143.4198
" />
<path d="M82.0695 107.9793
L80.3835 107.9582
" />
</g>
<g style="fill:#000000; fill-opacity:0.0; 
stroke:#000000; stroke-width:0.1600; stroke-opacity:1; 
stroke-linecap:round; stroke-linejoin:round;">
<path d="M168.4483 107.8316 A3.5720 3.5720 0.0 0 0 164.8764 111.4036" />
<path d="M14.8624 103.0763
L11.6970 139.6427
" />
</g>
<g style="fill:#000000; fill-opacity:0.0; 
stroke:#000000; stroke-width:0.1600; stroke-opacity:1; 
stroke-linecap:round; stroke-linejoin:round;">
<path d="M12.7132 142.9152
L12.8535 143.0526
" />
<path d="M24.2657 147.9128
L24.3860 147.8791
" />
<path d="M11.6439 140.2288
L11.6466 140.4254
" />
<path d="M25.7861 146.8500
L25.8572 146.7397
" />
<path d="M12.4549 142.6197
L12.5802 142.7708
" />
</g>
<g style="fill:#000000; fill-opacity:0.0; 
stroke:#000000; stroke-width:0.1600; stroke-opacity:1; 
stroke-linecap:round; stroke-linejoin:round;">
<path d="M112.5729 114.9230
L119.1164 105.9327
" />
</g>
<g style="fill:#000000; fill-opacity:0.0; 
stroke:#000000; stroke-width:0.1600; stroke-opacity:1; 
stroke-linecap:round; stroke-linejoin:round;">
<path d="M48.3995 119.3603
L47.5665 120.0857
" />
<path d="M23.1381 147.9493
L23.2648 147.9699
" />
<path d="M111.7711 115.8781
L111.9027 115.7625
" />
<path d="M27.2924 144.3976
L25.9843 146.5058
" />
<path d="M103.5758 113.8462
L101.7595 112.8616
" />
<path d="M109.5561 116.7084
L109.7281 116.7004
" />
<path d="M34.9852 132.9784
L34.3903 133.7504
" />
<path d="M57.0588 113.4585
L55.8005 114.2088
" />
<path d="M111.9027 115.7625
L112.0292 115.6398
" />
<path d="M25.7102 146.9556
L25.7861 146.8500
" />
<path d="M109.8992 116.6842
L110.0690 116.6598
" />
<path d="M36.0747 131.6470
L35.5438 132.2821
" />
</g>
<g style="fill:#000000; fill-opacity:0.0; 
stroke:#000000; stroke-width:0.1600; stroke-opacity:1; 
stroke-linecap:round; stroke-linejoin:round;">
<path d="M141.0640 107.8317 A3.5720 3.5720 0.0 0 0 137.4921 104.2598" />
</g>
<g style="fill:#000000; fill-opacity:0.0; 
stroke:#000000; stroke-width:0.1600; stroke-opacity:1; 
stroke-linecap:round; stroke-linejoin:round;">
<path d="M110.4040 116.5870
L110.5684 116.5387
" />
<path d="M11.8785 141.5897
L11.9523 141.7745
" />
</g>
<g style="fill:#000000; fill-opacity:0.0; 
stroke:#000000; stroke-width:0.1600; stroke-opacity:1; 
stroke-linecap:round; stroke-linejoin:round;">
<path d="M144.6358 118.5473
L161.3046 118.5474
" />
</g>
<g style="fill:#000000; fill-opacity:0.0; 
stroke:#000000; stroke-width:0.1600; stroke-opacity:1; 
stroke-linecap:round; stroke-linejoin:round;">
<path d="M112.2653 115.3735
L112.3743 115.2301
" />
<path d="M24.7354 147.7445
L24.8473 147.6887
" />
<path d="M25.5449 147.1530
L25.6297 147.0567
" />
<path d="M108.0191 116.3967
L108.1853 116.4664
" />
<path d="M83.7694 108.0249
L82.0695 107.9793
" />
<path d="M11.9523 141.7745
L12.0354 141.9545
" />
<path d="M61.0686 111.2821
L59.7126 111.9766
" />
</g>
<g style="fill:#000000; fill-opacity:0.0; 
stroke:#000000; stroke-width:0.1000; stroke-opacity:1; 
stroke-linecap:round; stroke-linejoin:round;">
<path d="M69.2814 100.1437 A2.3813 2.3813 0.0 1 0 64.8582 101.3689" />
</g>
<g style="fill:#000000; fill-opacity:0.0; 
stroke:#000000; stroke-width:0.1600; stroke-opacity:1; 
stroke-linecap:round; stroke-linejoin:round;">
<path d="M25.8572 146.7397
L25.9233 146.6249
" />
</g>
<g style="fill:#000000; fill-opacity:0.0; 
stroke:#000000; stroke-width:0.1000; stroke-opacity:1; 
stroke-linecap:round; stroke-linejoin:round;">
<path d="M69.2814 100.1437
L69.2814 104.9062
" />
</g>
<g style="fill:#000000; fill-opacity:0.0; 
stroke:#000000; stroke-width:0.1600; stroke-opacity:1; 
stroke-linecap:round; stroke-linejoin:round;">
<path d="M23.3916 147.9841
L23.5184 147.9921
" />
</g>
<g style="fill:#000000; fill-opacity:0.0; 
stroke:#000000; stroke-width:0.1600; stroke-opacity:1; 
stroke-linecap:round; stroke-linejoin:round;">
<path d="M141.0639 114.9755
L141.0640 107.8317
" />
</g>
<g style="fill:#000000; fill-opacity:0.0; 
stroke:#000000; stroke-width:0.1600; stroke-opacity:1; 
stroke-linecap:round; stroke-linejoin:round;">
<path d="M24.3860 147.8791
L24.5045 147.8398
" />
</g>
<g style="fill:#000000; fill-opacity:0.0; 
stroke:#000000; stroke-width:0.1600; stroke-opacity:1; 
stroke-linecap:round; stroke-linejoin:round;">
<path d="M164.8764 114.9755
L164.8764 111.4036
" />
</g>
<g style="fill:#000000; fill-opacity:0.0; 
stroke:#000000; stroke-width:0.1600; stroke-opacity:1; 
stroke-linecap:round; stroke-linejoin:round;">
<path d="M112.0292 115.6398
L112.1501 115.5101
" />
<path d="M33.0570 135.5796
L32.3015 136.6659
" />
<path d="M49.9853 118.0782
L49.1977 118.6977
" />
<path d="M78.7255 107.9603
L77.1092 107.9845
" />
</g>
<g style="fill:#000000; fill-opacity:0.0; 
stroke:#000000; stroke-width:0.1600; stroke-opacity:1; 
stroke-linecap:round; stroke-linejoin:round;">
<path d="M136.8968 0.0801 A3.5718 3.5718 0.0 0 0 133.3249 3.6520" />
</g>
<g style="fill:#000000; fill-opacity:0.0; 
stroke:#000000; stroke-width:0.1600; stroke-opacity:1; 
stroke-linecap:round; stroke-linejoin:round;">
<path d="M92.4764 108.9841
L91.4991 108.7510
" />
<path d="M44.6705 122.7851
L43.5881 123.8378
" />
<path d="M22.5144 147.7488
L22.6371 147.8022
" />
<path d="M54.6143 114.9405
L53.5200 115.6350
" />
<path d="M25.9233 146.6249
L25.9843 146.5058
" />
<path d="M94.6339 109.6451
L93.5174 109.2790
" />
<path d="M25.3631 147.3312
L25.4559 147.2446
" />
<path d="M111.0460 116.3473
L111.1989 116.2683
" />
<path d="M105.5499 114.9660
L103.5758 113.8462
" />
<path d="M23.6449 147.9939
L23.7709 147.9895
" />
<path d="M24.6211 147.7949
L24.7354 147.7445
" />
<path d="M11.7599 141.2078
L11.8142 141.4003
" />
<path d="M109.2108 116.6993
L109.3836 116.7080
" />
<path d="M101.7595 112.8616
L100.0894 112.0029
" />
<path d="M43.5881 123.8378
L42.4761 124.9371
" />
<path d="M42.4761 124.9371
L40.2351 127.2006
" />
</g>
<g style="fill:#000000; fill-opacity:0.0; 
stroke:#000000; stroke-width:0.1000; stroke-opacity:1; 
stroke-linecap:round; stroke-linejoin:round;">
<path d="M45.8139 23.2973
L44.6232 23.2972
" />
</g>
<g style="fill:#000000; fill-opacity:0.0; 
stroke:#000000; stroke-width:0.1600; stroke-opacity:1; 
stroke-linecap:round; stroke-linejoin:round;">
<path d="M52.5299 116.2801
L51.6270 116.8891
" />
<path d="M68.7502 108.6405
L68.1290 108.7593
" />
<path d="M111.1989 116.2683
L111.3482 116.1818
" />
<path d="M71.3019 108.2931
L70.0086 108.4436
" />
</g>
<g style="fill:#000000; fill-opacity:0.0; 
stroke:#000000; stroke-width:0.1000; stroke-opacity:1; 
stroke-linecap:round; stroke-linejoin:round;">
<path d="M95.6807 101.3688 A2.3812 2.3812 0.0 1 0 91.2576 100.1437" />
</g>
<g style="fill:#000000; fill-opacity:0.0; 
stroke:#000000; stroke-width:0.1600; stroke-opacity:1; 
stroke-linecap:round; stroke-linejoin:round;">
<path d="M68.1290 108.7593
L67.5104 108.8932
" />
<path d="M11.6594 140.6221
L11.6826 140.8183
" />
<path d="M87.1553 108.1940
L85.4693 108.0960
" />
</g>
<g style="fill:#000000; fill-opacity:0.0; 
stroke:#000000; stroke-width:0.1000; stroke-opacity:1; 
stroke-linecap:round; stroke-linejoin:round;">
<path d="M91.2576 104.9062
L91.2576 100.1437
" />
</g>
<g style="fill:#000000; fill-opacity:0.0; 
stroke:#000000; stroke-width:0.1600; stroke-opacity:1; 
stroke-linecap:round; stroke-linejoin:round;">
<path d="M67.5104 108.8932
L66.8924 109.0434
" />
<path d="M112.1501 115.5101
L112.2653 115.3735
" />
<path d="M33.7504 134.6126
L33.0570 135.5796
" />
</g>
<g style="fill:#000000; fill-opacity:0.0; 
stroke:#000000; stroke-width:0.1000; stroke-opacity:1; 
stroke-linecap:round; stroke-linejoin:round;">
<path d="M44.6232 23.2972 A3.5719 3.5719 0.0 0 0 41.0514 26.8691" />
</g>
<g style="fill:#000000; fill-opacity:0.0; 
stroke:#000000; stroke-width:0.1600; stroke-opacity:1; 
stroke-linecap:round; stroke-linejoin:round;">
<path d="M110.2374 116.6274
L110.4040 116.5870
" />
<path d="M40.2351 127.2006
L38.0918 129.4269
" />
<path d="M107.6937 116.2302
L105.5499 114.9660
" />
</g>
<g style="fill:#000000; fill-opacity:0.0; 
stroke:#000000; stroke-width:0.1600; stroke-opacity:1; 
stroke-linecap:round; stroke-linejoin:round;">
<path d="M16.6435 100.0926 A4.1337 4.1337 0.0 0 0 14.8624 103.0763" />
</g>
<g style="fill:#000000; fill-opacity:0.0; 
stroke:#000000; stroke-width:0.1600; stroke-opacity:1; 
stroke-linecap:round; stroke-linejoin:round;">
<path d="M23.7709 147.9895
L23.8962 147.9792
" />
<path d="M36.5863 131.0585
L36.0747 131.6470
" />
<path d="M37.0873 130.5020
L36.5863 131.0585
" />
<path d="M38.0918 129.4269
L37.0873 130.5020
" />
<path d="M109.3836 116.7080
L109.5561 116.7084
" />
<path d="M108.5229 116.5790
L108.6938 116.6221
" />
<path d="M110.7304 116.4826
L110.8897 116.4188
" />
<path d="M65.6500 109.3972
L65.0215 109.6032
" />
<path d="M111.4935 116.0879
L111.6346 115.9866
" />
<path d="M65.0215 109.6032
L64.3854 109.8301
" />
</g>
<g style="fill:#000000; fill-opacity:0.0; 
stroke:#000000; stroke-width:0.1000; stroke-opacity:1; 
stroke-linecap:round; stroke-linejoin:round;">
<path d="M137.4921 104.2598
L122.0139 104.2598
" />
</g>
<g style="fill:#000000; fill-opacity:0.0; 
stroke:#000000; stroke-width:0.1600; stroke-opacity:1; 
stroke-linecap:round; stroke-linejoin:round;">
<path d="M108.1853 116.4664
L108.3533 116.5271
" />
<path d="M47.5665 120.0857
L46.6742 120.8937
" />
<path d="M13.3162 143.4198
L13.4835 143.5263
" />
<path d="M25.6297 147.0567
L25.7102 146.9556
" />
<path d="M55.8005 114.2088
L54.6143 114.9405
" />
<path d="M98.5535 111.2611
L97.1401 110.6269
" />
<path d="M63.0832 110.3508
L62.4176 110.6434
" />
<path d="M90.5737 108.5707
L88.8313 108.3318
" />
<path d="M13.8359 143.7132
L22.5144 147.7488
" />
</g>
<g style="fill:#000000; fill-opacity:0.0; 
stroke:#000000; stroke-width:0.1000; stroke-opacity:1; 
stroke-linecap:round; stroke-linejoin:round;">
<path d="M52.9576 12.5816
L83.9139 12.5817
" />
</g>
<g style="fill:#000000; fill-opacity:0.0; 
stroke:#000000; stroke-width:0.1600; stroke-opacity:1; 
stroke-linecap:round; stroke-linejoin:round;">
<path d="M74.0583 108.0946
L72.6463 108.1799
" />
</g>
<g style="fill:#000000; fill-opacity:0.0; 
stroke:#000000; stroke-width:0.1600; stroke-opacity:1; 
stroke-linecap:round; stroke-linejoin:round;">
<path d="M122.0139 104.2598 A3.3458 3.3458 0.0 0 0 119.1164 105.9327" />
</g>
<g style="fill:#000000; fill-opacity:0.0; 
stroke:#000000; stroke-width:0.1000; stroke-opacity:1; 
stroke-linecap:round; stroke-linejoin:round;">
<path d="M67.1001 105.5666 A1.1906 1.1906 0.0 0 0 69.2814 104.9062" />
</g>
<g style="fill:#000000; fill-opacity:0.0; 
stroke:#000000; stroke-width:0.1600; stroke-opacity:1; 
stroke-linecap:round; stroke-linejoin:round;">
<path d="M12.0354 141.9545
L12.1275 142.1293
" />
<path d="M35.5438 132.2821
L34.9852 132.9784
" />
</g>
<g style="fill:#000000; fill-opacity:0.0; 
stroke:#000000; stroke-width:0.1600; stroke-opacity:1; 
stroke-linecap:round; stroke-linejoin:round;">
<path d="M52.9576 12.5816 A3.5718 3.5718 0.0 0 0 49.3858 16.1535" />
</g>
<g style="fill:#000000; fill-opacity:0.0; 
stroke:#000000; stroke-width:0.1600; stroke-opacity:1; 
stroke-linecap:round; stroke-linejoin:round;">
<path d="M23.0118 147.9224
L23.1381 147.9493
" />
</g>
<g style="fill:#000000; fill-opacity:0.0; 
stroke:#000000; stroke-width:0.1000; stroke-opacity:1; 
stroke-linecap:round; stroke-linejoin:round;">
<path d="M64.8582 101.3689
L67.1001 105.5667
" />
</g>
<g style="fill:#000000; fill-opacity:0.0; 
stroke:#000000; stroke-width:0.1600; stroke-opacity:1; 
stroke-linecap:round; stroke-linejoin:round;">
<path d="M91.4991 108.7510
L90.5737 108.5707
" />
<path d="M32.3015 136.6659
L31.4753 137.8862
" />
</g>
<g style="fill:#000000; fill-opacity:0.0; 
stroke:#000000; stroke-width:0.1000; stroke-opacity:1; 
stroke-linecap:round; stroke-linejoin:round;">
<path d="M172.0202 2.4613
L172.0201 104.2598
" />
</g>
<g style="fill:#000000; fill-opacity:0.0; 
stroke:#000000; stroke-width:0.1600; stroke-opacity:1; 
stroke-linecap:round; stroke-linejoin:round;">
<path d="M111.6346 115.9866
L111.7711 115.8781
" />
<path d="M24.5045 147.8398
L24.6211 147.7949
" />
<path d="M63.7398 110.0792
L63.0832 110.3508
" />
<path d="M66.2729 109.2110
L65.6500 109.3972
" />
<path d="M110.5684 116.5387
L110.7304 116.4826
" />
<path d="M112.3743 115.2301
L112.4770 115.0799
" />
<path d="M23.5184 147.9921
L23.6449 147.9939
" />
<path d="M72.6463 108.1799
L71.3019 108.2931
" />
<path d="M97.1401 110.6269
L95.8375 110.0913
" />
</g>
<g style="fill:#000000; fill-opacity:0.0; 
stroke:#000000; stroke-width:0.1000; stroke-opacity:1; 
stroke-linecap:round; stroke-linejoin:round;">
<path d="M49.3857 19.7253
L49.3857 16.1535
" />
</g>
<g style="fill:#000000; fill-opacity:0.0; 
stroke:#000000; stroke-width:0.1600; stroke-opacity:1; 
stroke-linecap:round; stroke-linejoin:round;">
<path d="M58.3695 112.7083
L57.0588 113.4585
" />
<path d="M24.9566 147.6276
L25.0630 147.5612
" />
</g>
<g style="fill:#000000; fill-opacity:0.0; 
stroke:#000000; stroke-width:0.1600; stroke-opacity:1; 
stroke-linecap:round; stroke-linejoin:round;">
<path d="M172.0202 2.4613 A2.3813 2.3813 0.0 0 0 169.6389 0.0800" />
</g>
<g style="fill:#000000; fill-opacity:0.0; 
stroke:#000000; stroke-width:0.1600; stroke-opacity:1; 
stroke-linecap:round; stroke-linejoin:round;">
<path d="M22.8860 147.8889
L23.0118 147.9224
" />
<path d="M11.8142 141.4003
L11.8785 141.5897
" />
<path d="M109.7281 116.7004
L109.8992 116.6842
" />
</g>
<g style="fill:#000000; fill-opacity:0.0; 
stroke:#000000; stroke-width:0.1600; stroke-opacity:1; 
stroke-linecap:round; stroke-linejoin:round;">
<path d="M91.0577 5.4378 A3.5719 3.5719 0.0 0 0 87.4858 9.0098" />
<path d="M45.8139 23.2972 A3.5718 3.5718 0.0 0 0 49.3857 19.7253" />
</g>
<g style="fill:#000000; fill-opacity:0.0; 
stroke:#000000; stroke-width:0.1600; stroke-opacity:1; 
stroke-linecap:round; stroke-linejoin:round;">
<path d="M112.4770 115.0799
L112.5729 114.9230
" />
<path d="M66.8924 109.0434
L66.2729 109.2110
" />
</g>
<g style="fill:#000000; fill-opacity:0.0; 
stroke:#000000; stroke-width:0.1600; stroke-opacity:1; 
stroke-linecap:round; stroke-linejoin:round;">
<path d="M83.9139 12.5817 A3.5717 3.5717 0.0 0 0 87.4858 9.0098" />
</g>
<g style="fill:#000000; fill-opacity:0.0; 
stroke:#000000; stroke-width:0.1600; stroke-opacity:1; 
stroke-linecap:round; stroke-linejoin:round;">
<path d="M88.8313 108.3318
L87.1553 108.1940
" />
<path d="M30.5699 139.2550
L29.5767 140.7868
" />
<path d="M11.7161 141.0136
L11.7599 141.2078
" />
<path d="M11.6826 140.8183
L11.7161 141.0136
" />
</g>
<g style="fill:#000000; fill-opacity:0.0; 
stroke:#000000; stroke-width:0.1000; stroke-opacity:1; 
stroke-linecap:round; stroke-linejoin:round;">
<path d="M91.0577 5.4379
L131.5389 5.4379
" />
</g>
<g style="fill:#000000; fill-opacity:0.0; 
stroke:#000000; stroke-width:0.1600; stroke-opacity:1; 
stroke-linecap:round; stroke-linejoin:round;">
<path d="M161.3046 118.5474 A3.5718 3.5718 0.0 0 0 164.8764 114.9755" />
</g>
<g style="fill:#000000; fill-opacity:0.0; 
stroke:#000000; stroke-width:0.1600; stroke-opacity:1; 
stroke-linecap:round; stroke-linejoin:round;">
<path d="M11.6515 140.0325
L11.6439 140.2288
" />
<path d="M12.1275 142.1293
L12.2282 142.2986
" />
<path d="M49.1977 118.6977
L48.3995 119.3603
" />
</g>
<g style="fill:#000000; fill-opacity:0.0; 
stroke:#000000; stroke-width:0.1000; stroke-opacity:1; 
stroke-linecap:round; stroke-linejoin:round;">
<path d="M41.0514 26.8691
L41.0514 79.8520
" />
<path d="M93.4389 105.5667
L95.6808 101.3689
" />
</g>
<g style="fill:#000000; fill-opacity:0.0; 
stroke:#000000; stroke-width:0.1600; stroke-opacity:1; 
stroke-linecap:round; stroke-linejoin:round;">
<path d="M25.1664 147.4896
L25.2665 147.4129
" />
<path d="M51.6270 116.8891
L50.7870 117.4819
" />
<g >
</g>
<g >
</g>
<g >
</g>
<g >
</g>
<g >
</g>
<g >
</g>
<g >
</g>
<g >
</g>
<g >
</g>
<g >
</g>
<g >
</g>
<g >
</g>
<g >
</g>
<g >
</g>
</g> 
</svg>
