M48
; DRILL file {KiCad 7.0.2} date Mi 17 Mai 2023 12:25:51 CEST
; FORMAT={-:-/ absolute / metric / decimal}
; #@! TF.CreationDate,2023-05-17T12:25:51+02:00
; #@! TF.GenerationSoftware,Kicad,Pcbnew,7.0.2
; #@! TF.FileFunction,NonPlated,1,2,NPTH
FMAT,2
METRIC
; #@! TA.AperFunction,NonPlated,NPTH,ComponentDrill
T1C0.700
; #@! TA.AperFunction,NonPlated,NPTH,ComponentDrill
T2C1.750
; #@! TA.AperFunction,NonPlated,NPTH,ComponentDrill
T3C3.988
%
G90
G05
T1
X135.5Y-151.257
X138.4Y-151.257
T2
X30.202Y-271.695
X31.356Y-234.721
X35.282Y-262.896
X39.47Y-228.607
X42.842Y-253.624
X50.026Y-246.439
X57.15Y-206.852
X57.15Y-217.012
X57.15Y-159.226
X57.15Y-169.386
X57.15Y-183.039
X57.15Y-193.199
X59.395Y-239.504
X68.193Y-234.424
X71.12Y-173.831
X71.12Y-192.881
X71.12Y-211.931
X81.28Y-173.831
X81.28Y-192.881
X81.28Y-211.931
X84.217Y-230.982
X90.17Y-171.45
X90.17Y-190.5
X90.17Y-209.55
X94.377Y-230.982
X100.33Y-171.45
X100.33Y-190.5
X100.33Y-209.55
X109.22Y-164.306
X109.22Y-183.356
X109.22Y-202.406
X109.901Y-234.466
X118.699Y-239.546
X119.38Y-164.306
X119.38Y-183.356
X119.38Y-202.406
X128.27Y-170.26
X128.27Y-189.31
X128.27Y-208.36
X138.43Y-170.26
X138.43Y-189.31
X138.43Y-208.36
X147.32Y-182.166
X147.32Y-201.216
X147.32Y-220.266
X156.845Y-241.697
X157.48Y-182.166
X157.48Y-201.216
X157.48Y-220.266
X167.005Y-241.697
X171.45Y-158.036
X171.45Y-168.196
X171.45Y-217.567
X171.45Y-227.727
X172.133Y-188.346
X172.133Y-207.529
X173.019Y-178.225
X173.019Y-197.408
T3
X32.742Y-267.296
X35.413Y-231.664
X46.434Y-250.031
X57.15Y-211.932
X57.15Y-164.306
X57.15Y-188.119
X63.794Y-236.964
X76.2Y-173.831
X76.2Y-192.881
X76.2Y-211.931
X89.297Y-230.982
X95.25Y-171.45
X95.25Y-190.5
X95.25Y-209.55
X114.3Y-237.006
X114.3Y-164.306
X114.3Y-183.356
X114.3Y-202.406
X133.35Y-170.26
X133.35Y-189.31
X133.35Y-208.36
X152.4Y-182.166
X152.4Y-201.216
X152.4Y-220.266
X161.925Y-241.697
X171.45Y-163.116
X171.45Y-222.647
X172.576Y-183.286
X172.576Y-202.468
T0
M30
