G04 #@! TF.GenerationSoftware,KiCad,Pcbnew,7.0.2*
G04 #@! TF.CreationDate,2023-05-17T12:25:55+02:00*
G04 #@! TF.ProjectId,mykeeb_v7a2_right,6d796b65-6562-45f7-9637-61325f726967,rev?*
G04 #@! TF.SameCoordinates,Original*
G04 #@! TF.FileFunction,Soldermask,Top*
G04 #@! TF.FilePolarity,Negative*
%FSLAX46Y46*%
G04 Gerber Fmt 4.6, Leading zero omitted, Abs format (unit mm)*
G04 Created by KiCad (PCBNEW 7.0.2) date 2023-05-17 12:25:55*
%MOMM*%
%LPD*%
G01*
G04 APERTURE LIST*
G04 Aperture macros list*
%AMRoundRect*
0 Rectangle with rounded corners*
0 $1 Rounding radius*
0 $2 $3 $4 $5 $6 $7 $8 $9 X,Y pos of 4 corners*
0 Add a 4 corners polygon primitive as box body*
4,1,4,$2,$3,$4,$5,$6,$7,$8,$9,$2,$3,0*
0 Add four circle primitives for the rounded corners*
1,1,$1+$1,$2,$3*
1,1,$1+$1,$4,$5*
1,1,$1+$1,$6,$7*
1,1,$1+$1,$8,$9*
0 Add four rect primitives between the rounded corners*
20,1,$1+$1,$2,$3,$4,$5,0*
20,1,$1+$1,$4,$5,$6,$7,0*
20,1,$1+$1,$6,$7,$8,$9,0*
20,1,$1+$1,$8,$9,$2,$3,0*%
G04 Aperture macros list end*
%ADD10C,2.000000*%
%ADD11C,1.750000*%
%ADD12C,3.987800*%
%ADD13O,2.750000X1.800000*%
%ADD14C,1.397000*%
%ADD15RoundRect,0.250000X0.350000X0.625000X-0.350000X0.625000X-0.350000X-0.625000X0.350000X-0.625000X0*%
%ADD16O,1.200000X1.750000*%
%ADD17C,0.700000*%
G04 APERTURE END LIST*
D10*
X32146902Y-274439293D03*
X157757945Y-229790818D03*
X156567319Y-152400128D03*
D11*
X59394587Y-239503520D03*
D12*
X63793996Y-236963520D03*
D11*
X68193405Y-234423520D03*
D13*
X144305128Y-152400120D03*
X144305128Y-154940120D03*
X144305128Y-157480120D03*
X144305128Y-160020120D03*
X144305128Y-162560120D03*
X144305128Y-165100120D03*
X144305128Y-167640120D03*
X160495128Y-167640120D03*
X160495128Y-165100120D03*
X160495128Y-162560120D03*
X160495128Y-160020120D03*
X160495128Y-157480120D03*
X160495128Y-154940120D03*
X160495128Y-152400120D03*
D14*
X151130128Y-151448120D03*
X153670128Y-151448120D03*
X151130128Y-153988120D03*
X153670128Y-153988120D03*
X147955128Y-159703120D03*
X147955128Y-157798120D03*
D11*
X172133445Y-188346189D03*
D12*
X172576196Y-183285520D03*
D11*
X173018947Y-178224851D03*
X138430096Y-170259520D03*
D12*
X133350096Y-170259520D03*
D11*
X128270096Y-170259520D03*
X147320096Y-201215820D03*
D12*
X152400096Y-201215820D03*
D11*
X157480096Y-201215820D03*
X100330096Y-171450220D03*
D12*
X95250096Y-171450220D03*
D11*
X90170096Y-171450220D03*
X147320096Y-220265820D03*
D12*
X152400096Y-220265820D03*
D11*
X157480096Y-220265820D03*
X171450096Y-227727020D03*
D12*
X171450096Y-222647020D03*
D11*
X171450096Y-217567020D03*
X171450096Y-168195820D03*
D12*
X171450096Y-163115820D03*
D11*
X171450096Y-158035820D03*
X84216896Y-230981520D03*
D12*
X89296896Y-230981520D03*
D11*
X94376896Y-230981520D03*
X57149996Y-206851520D03*
D12*
X57149996Y-211931520D03*
D11*
X57149996Y-217011520D03*
X42842294Y-253623522D03*
D12*
X46434396Y-250031420D03*
D11*
X50026498Y-246439318D03*
X30202096Y-271695029D03*
D12*
X32742096Y-267295620D03*
D11*
X35282096Y-262896211D03*
X39469864Y-228606900D03*
D12*
X35412796Y-231664120D03*
D11*
X31355728Y-234721340D03*
X71120096Y-211931420D03*
D12*
X76200096Y-211931420D03*
D11*
X81280096Y-211931420D03*
X109220096Y-202406420D03*
D12*
X114300096Y-202406420D03*
D11*
X119380096Y-202406420D03*
X90170096Y-190500220D03*
D12*
X95250096Y-190500220D03*
D11*
X100330096Y-190500220D03*
X71120096Y-192881420D03*
D12*
X76200096Y-192881420D03*
D11*
X81280096Y-192881420D03*
X109220096Y-183356420D03*
D12*
X114300096Y-183356420D03*
D11*
X119380096Y-183356420D03*
X128270096Y-189309520D03*
D12*
X133350096Y-189309520D03*
D11*
X138430096Y-189309520D03*
X57150096Y-159226420D03*
D12*
X57150096Y-164306420D03*
D11*
X57150096Y-169386420D03*
X81280096Y-173831420D03*
D12*
X76200096Y-173831420D03*
D11*
X71120096Y-173831420D03*
X90170096Y-209550220D03*
D12*
X95250096Y-209550220D03*
D11*
X100330096Y-209550220D03*
X128270096Y-208359520D03*
D12*
X133350096Y-208359520D03*
D11*
X138430096Y-208359520D03*
X172133445Y-207528989D03*
D12*
X172576196Y-202468320D03*
D11*
X173018947Y-197407651D03*
X57150096Y-183038920D03*
D12*
X57150096Y-188118920D03*
D11*
X57150096Y-193198920D03*
X109900587Y-234465720D03*
D12*
X114299996Y-237005720D03*
D11*
X118699405Y-239545720D03*
X156845096Y-241697120D03*
D12*
X161925096Y-241697120D03*
D11*
X167005096Y-241697120D03*
X157480096Y-182165820D03*
D12*
X152400096Y-182165820D03*
D11*
X147320096Y-182165820D03*
X119380096Y-164306420D03*
D12*
X114300096Y-164306420D03*
D11*
X109220096Y-164306420D03*
D15*
X138112616Y-157093884D03*
D16*
X136112616Y-157093884D03*
D17*
X138400096Y-151257120D03*
X135500096Y-151257120D03*
M02*
