M48
; DRILL file {KiCad 7.0.2} date Mi 17 Mai 2023 12:25:51 CEST
; FORMAT={-:-/ absolute / metric / decimal}
; #@! TF.CreationDate,2023-05-17T12:25:51+02:00
; #@! TF.GenerationSoftware,Kicad,Pcbnew,7.0.2
; #@! TF.FileFunction,Plated,1,2,PTH
FMAT,2
METRIC
; #@! TA.AperFunction,Plated,PTH,ViaDrill
T1C0.400
; #@! TA.AperFunction,Plated,PTH,ComponentDrill
T2C0.400
; #@! TA.AperFunction,Plated,PTH,ComponentDrill
T3C0.750
; #@! TA.AperFunction,Plated,PTH,ComponentDrill
T4C1.000
; #@! TA.AperFunction,Plated,PTH,ComponentDrill
T5C1.016
; #@! TA.AperFunction,Plated,PTH,ComponentDrill
T6C1.300
; #@! TA.AperFunction,Plated,PTH,ComponentDrill
T7C3.000
%
G90
G05
T1
X38.1Y-247.055
X45.244Y-253.008
X52.388Y-219.075
X59.531Y-198.835
X60.722Y-211.336
X69.056Y-198.835
X76.795Y-219.67
X78.581Y-198.835
X82.749Y-219.67
X84.534Y-214.908
X86.916Y-213.122
X91.083Y-179.785
X93.464Y-218.48
X94.655Y-219.67
X104.775Y-192.881
X105.966Y-172.641
X105.966Y-175.617
X105.966Y-183.952
X105.966Y-196.453
X105.966Y-202.406
X123.825Y-197.049
X133.945Y-156.567
X133.945Y-157.758
X134.541Y-158.949
X135.136Y-155.377
X135.731Y-159.544
X136.922Y-158.949
X142.875Y-177.403
X142.875Y-192.286
X142.875Y-210.741
X146.447Y-167.283
X147.042Y-164.306
X148.233Y-165.497
X148.828Y-169.664
X148.828Y-171.45
X149.424Y-177.999
X152.4Y-173.831
X154.781Y-164.902
X155.972Y-180.975
X156.567Y-164.306
X156.567Y-172.641
X157.163Y-167.283
X157.163Y-169.664
X157.758Y-213.122
X158.353Y-166.092
X160.139Y-171.45
X160.735Y-188.119
X162.52Y-158.949
X163.711Y-164.306
X163.711Y-189.905
X163.711Y-209.55
X163.711Y-228.6
X165.497Y-164.902
X166.688Y-213.122
T2
X25.437Y-273.344
X26.757Y-274.106
X31.493Y-257.776
X31.926Y-239.698
X32.813Y-258.538
X32.843Y-240.916
X37.813Y-253.983
X38.891Y-255.06
X43.583Y-227.734
X44.5Y-228.951
X47.692Y-240.512
X48.769Y-241.59
X54.444Y-238.549
X55.206Y-239.869
X58.928Y-203.042
X58.928Y-155.416
X58.928Y-179.229
X60.452Y-203.042
X60.452Y-155.416
X60.452Y-179.229
X61.468Y-219.552
X61.468Y-171.926
X61.468Y-195.739
X62.992Y-219.552
X62.992Y-171.926
X62.992Y-195.739
X67.31Y-189.579
X67.31Y-191.103
X67.31Y-208.629
X67.31Y-210.153
X67.472Y-228.094
X68.234Y-229.414
X68.58Y-178.149
X68.58Y-179.673
X80.407Y-227.68
X80.407Y-229.204
X83.82Y-187.039
X83.82Y-188.563
X83.82Y-206.089
X83.82Y-207.613
X85.09Y-175.609
X85.09Y-177.133
X86.36Y-187.198
X86.36Y-188.722
X86.36Y-206.248
X86.36Y-207.772
X87.63Y-175.768
X87.63Y-177.292
X96.917Y-225.14
X96.917Y-226.664
X102.87Y-184.658
X102.87Y-186.182
X102.87Y-203.708
X102.87Y-205.232
X104.14Y-173.228
X104.14Y-174.752
X105.41Y-180.054
X105.41Y-181.578
X105.41Y-199.104
X105.41Y-200.628
X106.68Y-168.624
X106.68Y-170.148
X107.49Y-231.021
X108.252Y-229.701
X121.92Y-177.514
X121.92Y-179.038
X121.92Y-196.564
X121.92Y-198.088
X123.058Y-237.076
X123.19Y-166.084
X123.19Y-167.608
X123.82Y-235.756
X124.46Y-186.008
X124.46Y-187.532
X124.46Y-205.058
X124.46Y-206.582
X125.73Y-174.578
X125.73Y-176.102
X140.97Y-183.468
X140.97Y-184.992
X140.97Y-202.518
X140.97Y-204.042
X142.24Y-172.038
X142.24Y-173.562
X143.51Y-197.914
X143.51Y-199.438
X143.51Y-216.964
X143.51Y-218.488
X144.78Y-186.484
X144.78Y-188.008
X153.035Y-238.395
X153.035Y-239.919
X160.02Y-195.374
X160.02Y-196.898
X160.02Y-214.424
X160.02Y-215.948
X161.29Y-183.944
X161.29Y-185.468
X165.608Y-155.496
X165.608Y-215.027
X167.132Y-155.496
X167.132Y-215.027
X167.421Y-175.185
X167.421Y-194.368
X168.148Y-172.006
X168.148Y-231.537
X168.512Y-191.854
X168.512Y-211.037
X168.939Y-175.318
X168.939Y-194.501
X169.545Y-235.855
X169.545Y-237.379
X169.672Y-172.006
X169.672Y-231.537
X170.03Y-191.987
X170.03Y-211.17
T3
X136.113Y-157.094
X138.113Y-157.094
T4
X144.78Y-152.4
X144.78Y-154.94
X144.78Y-157.48
X144.78Y-160.02
X144.78Y-162.56
X144.78Y-165.1
X144.78Y-167.64
X160.02Y-152.4
X160.02Y-154.94
X160.02Y-157.48
X160.02Y-160.02
X160.02Y-162.56
X160.02Y-165.1
X160.02Y-167.64
T5
X147.955Y-157.798
X147.955Y-159.703
X151.13Y-151.448
X151.13Y-153.988
X153.67Y-151.448
X153.67Y-153.988
T6
X163.76Y-151.805
X170.26Y-151.805
T7
X28.637Y-269.325
X29.613Y-262.556
X36.441Y-237.25
X39.984Y-231.4
X41.944Y-250.929
X44.638Y-244.643
X59.224Y-236.669
X59.69Y-208.122
X59.69Y-160.496
X59.69Y-184.309
X62.23Y-214.472
X62.23Y-166.846
X62.23Y-190.659
X63.454Y-231.294
X72.39Y-190.341
X72.39Y-209.391
X73.66Y-178.911
X78.74Y-187.801
X78.74Y-206.851
X80.01Y-176.371
X85.487Y-228.442
X91.44Y-187.96
X91.44Y-207.01
X91.837Y-225.902
X92.71Y-176.53
X97.79Y-185.42
X97.79Y-204.47
X99.06Y-173.99
X110.49Y-180.816
X110.49Y-199.866
X111.76Y-169.386
X112.27Y-232.901
X116.84Y-178.276
X116.84Y-197.326
X118.11Y-166.846
X119.04Y-233.876
X129.54Y-186.77
X129.54Y-205.82
X130.81Y-175.34
X135.89Y-184.23
X135.89Y-203.28
X137.16Y-172.8
X148.59Y-198.676
X148.59Y-217.726
X149.86Y-187.246
X154.94Y-196.136
X154.94Y-215.186
X156.21Y-184.706
X158.115Y-239.157
X164.465Y-236.617
X166.37Y-160.576
X166.37Y-220.107
X167.737Y-180.312
X167.737Y-199.495
X168.91Y-166.926
X168.91Y-226.457
X169.714Y-186.86
X169.714Y-206.042
T0
M30
