G04 #@! TF.GenerationSoftware,KiCad,Pcbnew,7.0.2*
G04 #@! TF.CreationDate,2023-05-25T14:28:43+02:00*
G04 #@! TF.ProjectId,mykeeb_v7a3,6d796b65-6562-45f7-9637-61332e6b6963,rev?*
G04 #@! TF.SameCoordinates,Original*
G04 #@! TF.FileFunction,Paste,Top*
G04 #@! TF.FilePolarity,Positive*
%FSLAX46Y46*%
G04 Gerber Fmt 4.6, Leading zero omitted, Abs format (unit mm)*
G04 Created by KiCad (PCBNEW 7.0.2) date 2023-05-25 14:28:43*
%MOMM*%
%LPD*%
G01*
G04 APERTURE LIST*
G04 Aperture macros list*
%AMRoundRect*
0 Rectangle with rounded corners*
0 $1 Rounding radius*
0 $2 $3 $4 $5 $6 $7 $8 $9 X,Y pos of 4 corners*
0 Add a 4 corners polygon primitive as box body*
4,1,4,$2,$3,$4,$5,$6,$7,$8,$9,$2,$3,0*
0 Add four circle primitives for the rounded corners*
1,1,$1+$1,$2,$3*
1,1,$1+$1,$4,$5*
1,1,$1+$1,$6,$7*
1,1,$1+$1,$8,$9*
0 Add four rect primitives between the rounded corners*
20,1,$1+$1,$2,$3,$4,$5,0*
20,1,$1+$1,$4,$5,$6,$7,0*
20,1,$1+$1,$6,$7,$8,$9,0*
20,1,$1+$1,$8,$9,$2,$3,0*%
%AMRotRect*
0 Rectangle, with rotation*
0 The origin of the aperture is its center*
0 $1 length*
0 $2 width*
0 $3 Rotation angle, in degrees counterclockwise*
0 Add horizontal line*
21,1,$1,$2,0,0,$3*%
G04 Aperture macros list end*
%ADD10RotRect,2.600000X2.600000X210.000000*%
%ADD11RotRect,2.600000X2.600000X265.000000*%
%ADD12RoundRect,0.150000X-0.789471X0.282596X0.639471X-0.542404X0.789471X-0.282596X-0.639471X0.542404X0*%
%ADD13R,2.600000X2.600000*%
%ADD14RotRect,2.600000X2.600000X225.000000*%
%ADD15RotRect,2.600000X2.600000X240.000000*%
%ADD16RotRect,2.600000X2.600000X37.000000*%
%ADD17R,1.000000X0.600000*%
%ADD18R,1.100000X0.600000*%
%ADD19R,0.600000X1.000000*%
%ADD20R,1.000000X1.700000*%
%ADD21RotRect,2.600000X2.600000X150.000000*%
%ADD22R,0.800000X1.900000*%
G04 APERTURE END LIST*
D10*
X101159948Y-130160569D03*
X92257355Y-137840825D03*
D11*
X204438992Y-79491806D03*
X205623971Y-91189597D03*
D12*
X164342659Y-121338688D03*
X163707659Y-122438540D03*
X163072659Y-123538393D03*
X162437659Y-124638245D03*
X161802659Y-125738097D03*
X161167659Y-126837949D03*
X160532659Y-127937802D03*
X159897659Y-129037654D03*
X164184485Y-131512654D03*
X164819485Y-130412802D03*
X165454485Y-129312949D03*
X166089485Y-128213097D03*
X166724485Y-127113245D03*
X167359485Y-126013393D03*
X167994485Y-124913540D03*
X168629485Y-123813688D03*
D13*
X174129815Y-64296920D03*
X162579815Y-66496920D03*
X193179815Y-95253220D03*
X181629815Y-97453220D03*
X136029815Y-65487620D03*
X124479815Y-67687620D03*
X193179815Y-114303220D03*
X181629815Y-116503220D03*
X155079783Y-39293780D03*
X143529783Y-41493780D03*
X203004815Y-119359420D03*
X205204815Y-130909420D03*
X203004815Y-59828220D03*
X205204815Y-71378220D03*
X130076615Y-125018920D03*
X118526615Y-127218920D03*
X100604715Y-115193920D03*
X98404715Y-103643920D03*
D14*
X82047604Y-143495760D03*
X75436156Y-153218478D03*
D13*
X193179783Y-57153180D03*
X181629783Y-59353180D03*
D15*
X66731464Y-161471787D03*
X62861720Y-172574380D03*
D16*
X73882783Y-138374345D03*
X81783030Y-129666384D03*
D13*
X116979815Y-105968820D03*
X105429815Y-108168820D03*
X155079815Y-96443820D03*
X143529815Y-98643820D03*
X136029815Y-84537620D03*
X124479815Y-86737620D03*
X116979815Y-86918820D03*
X105429815Y-89118820D03*
X155079815Y-77393820D03*
X143529815Y-79593820D03*
D17*
X216348619Y-31282215D03*
D18*
X209148619Y-31282215D03*
X216348619Y-33568215D03*
D17*
X209148619Y-33568215D03*
D19*
X214948619Y-34275215D03*
X212048619Y-34275215D03*
X210548619Y-34275215D03*
D13*
X174129815Y-83346920D03*
X162579815Y-85546920D03*
D20*
X192767351Y-36735972D03*
X196567351Y-36735972D03*
X196567351Y-43035972D03*
X192767351Y-43035972D03*
D13*
X116979783Y-48818780D03*
X105429783Y-51018780D03*
X100604815Y-67568820D03*
X98404815Y-56018820D03*
X136029815Y-103587620D03*
X124479815Y-105787620D03*
X174129815Y-102396920D03*
X162579815Y-104596920D03*
X174129783Y-45246880D03*
X162579783Y-47446880D03*
D11*
X204438992Y-98674606D03*
X205623971Y-110372397D03*
D13*
X100604815Y-91381320D03*
X98404815Y-79831320D03*
D21*
X157615948Y-133477769D03*
X146513355Y-129608025D03*
D13*
X202704815Y-135734520D03*
X191154815Y-137934520D03*
X193179815Y-76203220D03*
X181629815Y-78403220D03*
X155079815Y-58343820D03*
X143529815Y-60543820D03*
X136029783Y-46437580D03*
X124479783Y-48637580D03*
D22*
X114654783Y-99131332D03*
X112754783Y-99131332D03*
X113704783Y-96131332D03*
X133704799Y-115800080D03*
X131804799Y-115800080D03*
X132754799Y-112800080D03*
X190854847Y-107465698D03*
X188954847Y-107465698D03*
X189904847Y-104465698D03*
X133704799Y-58650032D03*
X131804799Y-58650032D03*
X132754799Y-55650032D03*
X190854847Y-88415682D03*
X188954847Y-88415682D03*
X189904847Y-85415682D03*
X171804831Y-95559438D03*
X169904831Y-95559438D03*
X170854831Y-92559438D03*
X171804831Y-76509422D03*
X169904831Y-76509422D03*
X170854831Y-73509422D03*
X114654783Y-124729775D03*
X112754783Y-124729775D03*
X113704783Y-121729775D03*
X133704799Y-96750064D03*
X131804799Y-96750064D03*
X132754799Y-93750064D03*
X190854847Y-69365666D03*
X188954847Y-69365666D03*
X189904847Y-66365666D03*
X124179791Y-121753210D03*
X122279791Y-121753210D03*
X123229791Y-118753210D03*
D13*
X116979815Y-67868820D03*
X105429815Y-70068820D03*
D22*
X171804831Y-114609454D03*
X169904831Y-114609454D03*
X170854831Y-111609454D03*
X133704799Y-77700048D03*
X131804799Y-77700048D03*
X132754799Y-74700048D03*
X114654783Y-61031300D03*
X112754783Y-61031300D03*
X113704783Y-58031300D03*
X114654783Y-80081316D03*
X112754783Y-80081316D03*
X113704783Y-77081316D03*
X190854847Y-126515714D03*
X188954847Y-126515714D03*
X189904847Y-123515714D03*
X171804831Y-57459406D03*
X169904831Y-57459406D03*
X170854831Y-54459406D03*
X139898555Y-124729775D03*
X137998555Y-124729775D03*
X138948555Y-121729775D03*
X109296966Y-124729791D03*
X107396966Y-124729791D03*
X108346966Y-121729791D03*
M02*
