G04 #@! TF.GenerationSoftware,KiCad,Pcbnew,7.0.2*
G04 #@! TF.CreationDate,2023-05-23T01:19:14+02:00*
G04 #@! TF.ProjectId,mykeeb_v7a3,6d796b65-6562-45f7-9637-61332e6b6963,rev?*
G04 #@! TF.SameCoordinates,Original*
G04 #@! TF.FileFunction,Legend,Top*
G04 #@! TF.FilePolarity,Positive*
%FSLAX46Y46*%
G04 Gerber Fmt 4.6, Leading zero omitted, Abs format (unit mm)*
G04 Created by KiCad (PCBNEW 7.0.2) date 2023-05-23 01:19:14*
%MOMM*%
%LPD*%
G01*
G04 APERTURE LIST*
G04 Aperture macros list*
%AMRoundRect*
0 Rectangle with rounded corners*
0 $1 Rounding radius*
0 $2 $3 $4 $5 $6 $7 $8 $9 X,Y pos of 4 corners*
0 Add a 4 corners polygon primitive as box body*
4,1,4,$2,$3,$4,$5,$6,$7,$8,$9,$2,$3,0*
0 Add four circle primitives for the rounded corners*
1,1,$1+$1,$2,$3*
1,1,$1+$1,$4,$5*
1,1,$1+$1,$6,$7*
1,1,$1+$1,$8,$9*
0 Add four rect primitives between the rounded corners*
20,1,$1+$1,$2,$3,$4,$5,0*
20,1,$1+$1,$4,$5,$6,$7,0*
20,1,$1+$1,$6,$7,$8,$9,0*
20,1,$1+$1,$8,$9,$2,$3,0*%
%AMRotRect*
0 Rectangle, with rotation*
0 The origin of the aperture is its center*
0 $1 length*
0 $2 width*
0 $3 Rotation angle, in degrees counterclockwise*
0 Add horizontal line*
21,1,$1,$2,0,0,$3*%
%AMFreePoly0*
4,1,6,1.000000,0.000000,0.500000,-0.750000,-0.500000,-0.750000,-0.500000,0.750000,0.500000,0.750000,1.000000,0.000000,1.000000,0.000000,$1*%
%AMFreePoly1*
4,1,6,0.500000,-0.750000,-0.650000,-0.750000,-0.150000,0.000000,-0.650000,0.750000,0.500000,0.750000,0.500000,-0.750000,0.500000,-0.750000,$1*%
G04 Aperture macros list end*
%ADD10C,0.150000*%
%ADD11C,0.120000*%
%ADD12C,1.800000*%
%ADD13C,0.990600*%
%ADD14C,3.000000*%
%ADD15C,3.400000*%
%ADD16RotRect,2.600000X2.600000X210.000000*%
%ADD17RotRect,2.600000X2.600000X265.000000*%
%ADD18RoundRect,0.150000X-0.789471X0.282596X0.639471X-0.542404X0.789471X-0.282596X-0.639471X0.542404X0*%
%ADD19R,2.600000X2.600000*%
%ADD20RotRect,2.600000X2.600000X225.000000*%
%ADD21RotRect,2.600000X2.600000X240.000000*%
%ADD22RoundRect,0.250000X-0.625000X0.350000X-0.625000X-0.350000X0.625000X-0.350000X0.625000X0.350000X0*%
%ADD23O,1.750000X1.200000*%
%ADD24RotRect,2.600000X2.600000X37.000000*%
%ADD25R,1.000000X0.600000*%
%ADD26R,1.100000X0.600000*%
%ADD27C,0.700000*%
%ADD28R,0.600000X1.000000*%
%ADD29FreePoly0,180.000000*%
%ADD30O,2.750000X1.800000*%
%ADD31FreePoly0,90.000000*%
%ADD32FreePoly0,270.000000*%
%ADD33R,1.000000X1.700000*%
%ADD34C,1.397000*%
%ADD35FreePoly0,0.000000*%
%ADD36FreePoly1,0.000000*%
%ADD37FreePoly1,270.000000*%
%ADD38FreePoly1,180.000000*%
%ADD39FreePoly1,90.000000*%
%ADD40RotRect,2.600000X2.600000X150.000000*%
%ADD41R,0.800000X1.900000*%
G04 APERTURE END LIST*
D10*
X105784739Y-137149514D02*
X105932267Y-137119325D01*
X105932267Y-137119325D02*
X106138463Y-137000277D01*
X106138463Y-137000277D02*
X106197132Y-136911419D01*
X106197132Y-136911419D02*
X106214562Y-136846370D01*
X106214562Y-136846370D02*
X106208182Y-136740082D01*
X106208182Y-136740082D02*
X106160563Y-136657603D01*
X106160563Y-136657603D02*
X106071705Y-136598934D01*
X106071705Y-136598934D02*
X106006656Y-136581504D01*
X106006656Y-136581504D02*
X105900368Y-136587884D01*
X105900368Y-136587884D02*
X105711601Y-136641883D01*
X105711601Y-136641883D02*
X105605313Y-136648263D01*
X105605313Y-136648263D02*
X105540264Y-136630833D01*
X105540264Y-136630833D02*
X105451406Y-136572164D01*
X105451406Y-136572164D02*
X105403787Y-136489685D01*
X105403787Y-136489685D02*
X105397407Y-136383397D01*
X105397407Y-136383397D02*
X105414837Y-136318348D01*
X105414837Y-136318348D02*
X105473506Y-136229490D01*
X105473506Y-136229490D02*
X105679702Y-136110442D01*
X105679702Y-136110442D02*
X105827230Y-136080253D01*
X106412669Y-136237121D02*
X106701344Y-136070454D01*
X107086967Y-136452658D02*
X106674574Y-136690753D01*
X106674574Y-136690753D02*
X106174574Y-135824728D01*
X106174574Y-135824728D02*
X106586967Y-135586633D01*
X106875642Y-135419966D02*
X107411753Y-135110442D01*
X107411753Y-135110442D02*
X107313554Y-135607023D01*
X107313554Y-135607023D02*
X107437272Y-135535595D01*
X107437272Y-135535595D02*
X107543560Y-135529215D01*
X107543560Y-135529215D02*
X107608609Y-135546645D01*
X107608609Y-135546645D02*
X107697468Y-135605314D01*
X107697468Y-135605314D02*
X107816515Y-135811510D01*
X107816515Y-135811510D02*
X107822895Y-135917798D01*
X107822895Y-135917798D02*
X107805465Y-135982847D01*
X107805465Y-135982847D02*
X107746796Y-136071706D01*
X107746796Y-136071706D02*
X107499360Y-136214563D01*
X107499360Y-136214563D02*
X107393072Y-136220942D01*
X107393072Y-136220942D02*
X107328023Y-136203513D01*
X212812521Y-79759530D02*
X212872410Y-79621367D01*
X212872410Y-79621367D02*
X212893161Y-79384178D01*
X212893161Y-79384178D02*
X212854024Y-79285152D01*
X212854024Y-79285152D02*
X212810736Y-79233563D01*
X212810736Y-79233563D02*
X212720011Y-79177825D01*
X212720011Y-79177825D02*
X212625135Y-79169525D01*
X212625135Y-79169525D02*
X212526109Y-79208662D01*
X212526109Y-79208662D02*
X212474521Y-79251949D01*
X212474521Y-79251949D02*
X212418783Y-79342675D01*
X212418783Y-79342675D02*
X212354744Y-79528276D01*
X212354744Y-79528276D02*
X212299005Y-79619001D01*
X212299005Y-79619001D02*
X212247417Y-79662289D01*
X212247417Y-79662289D02*
X212148391Y-79701426D01*
X212148391Y-79701426D02*
X212053516Y-79693126D01*
X212053516Y-79693126D02*
X211962790Y-79637387D01*
X211962790Y-79637387D02*
X211919503Y-79585799D01*
X211919503Y-79585799D02*
X211880365Y-79486773D01*
X211880365Y-79486773D02*
X211901117Y-79249584D01*
X211901117Y-79249584D02*
X211961005Y-79111421D01*
X212454350Y-78389768D02*
X212514239Y-78251604D01*
X212514239Y-78251604D02*
X212565827Y-78208317D01*
X212565827Y-78208317D02*
X212664853Y-78169180D01*
X212664853Y-78169180D02*
X212807167Y-78181630D01*
X212807167Y-78181630D02*
X212897892Y-78237369D01*
X212897892Y-78237369D02*
X212941180Y-78288957D01*
X212941180Y-78288957D02*
X212980317Y-78387983D01*
X212980317Y-78387983D02*
X212947115Y-78767486D01*
X212947115Y-78767486D02*
X211950920Y-78680330D01*
X211950920Y-78680330D02*
X211979972Y-78348265D01*
X211979972Y-78348265D02*
X212035710Y-78257539D01*
X212035710Y-78257539D02*
X212087298Y-78214252D01*
X212087298Y-78214252D02*
X212186324Y-78175115D01*
X212186324Y-78175115D02*
X212281200Y-78183415D01*
X212281200Y-78183415D02*
X212371925Y-78239154D01*
X212371925Y-78239154D02*
X212415213Y-78290742D01*
X212415213Y-78290742D02*
X212454350Y-78389768D01*
X212454350Y-78389768D02*
X212425298Y-78721833D01*
X212054677Y-77494384D02*
X212062977Y-77399508D01*
X212062977Y-77399508D02*
X212118716Y-77308783D01*
X212118716Y-77308783D02*
X212170304Y-77265495D01*
X212170304Y-77265495D02*
X212269330Y-77226358D01*
X212269330Y-77226358D02*
X212463231Y-77195521D01*
X212463231Y-77195521D02*
X212700421Y-77216272D01*
X212700421Y-77216272D02*
X212886022Y-77280311D01*
X212886022Y-77280311D02*
X212976747Y-77336050D01*
X212976747Y-77336050D02*
X213020035Y-77387638D01*
X213020035Y-77387638D02*
X213059172Y-77486664D01*
X213059172Y-77486664D02*
X213050871Y-77581539D01*
X213050871Y-77581539D02*
X212995133Y-77672265D01*
X212995133Y-77672265D02*
X212943545Y-77715552D01*
X212943545Y-77715552D02*
X212844519Y-77754690D01*
X212844519Y-77754690D02*
X212650617Y-77785526D01*
X212650617Y-77785526D02*
X212413428Y-77764775D01*
X212413428Y-77764775D02*
X212227827Y-77700736D01*
X212227827Y-77700736D02*
X212137102Y-77644998D01*
X212137102Y-77644998D02*
X212093814Y-77593410D01*
X212093814Y-77593410D02*
X212054677Y-77494384D01*
X166822433Y-120469783D02*
X166417671Y-121170851D01*
X166417671Y-121170851D02*
X166411291Y-121277139D01*
X166411291Y-121277139D02*
X166428721Y-121342188D01*
X166428721Y-121342188D02*
X166487390Y-121431046D01*
X166487390Y-121431046D02*
X166652348Y-121526284D01*
X166652348Y-121526284D02*
X166758636Y-121532664D01*
X166758636Y-121532664D02*
X166823684Y-121515234D01*
X166823684Y-121515234D02*
X166912543Y-121456565D01*
X166912543Y-121456565D02*
X167317305Y-120755497D01*
X167647219Y-120945973D02*
X168183330Y-121255497D01*
X168183330Y-121255497D02*
X167704179Y-121418745D01*
X167704179Y-121418745D02*
X167827897Y-121490173D01*
X167827897Y-121490173D02*
X167886566Y-121579032D01*
X167886566Y-121579032D02*
X167903996Y-121644080D01*
X167903996Y-121644080D02*
X167897616Y-121750368D01*
X167897616Y-121750368D02*
X167778568Y-121956565D01*
X167778568Y-121956565D02*
X167689710Y-122015234D01*
X167689710Y-122015234D02*
X167624661Y-122032664D01*
X167624661Y-122032664D02*
X167518373Y-122026284D01*
X167518373Y-122026284D02*
X167270937Y-121883427D01*
X167270937Y-121883427D02*
X167212268Y-121794569D01*
X167212268Y-121794569D02*
X167194838Y-121729520D01*
X174592910Y-72661920D02*
X174735767Y-72709539D01*
X174735767Y-72709539D02*
X174973862Y-72709539D01*
X174973862Y-72709539D02*
X175069100Y-72661920D01*
X175069100Y-72661920D02*
X175116719Y-72614300D01*
X175116719Y-72614300D02*
X175164338Y-72519062D01*
X175164338Y-72519062D02*
X175164338Y-72423824D01*
X175164338Y-72423824D02*
X175116719Y-72328586D01*
X175116719Y-72328586D02*
X175069100Y-72280967D01*
X175069100Y-72280967D02*
X174973862Y-72233348D01*
X174973862Y-72233348D02*
X174783386Y-72185729D01*
X174783386Y-72185729D02*
X174688148Y-72138110D01*
X174688148Y-72138110D02*
X174640529Y-72090491D01*
X174640529Y-72090491D02*
X174592910Y-71995253D01*
X174592910Y-71995253D02*
X174592910Y-71900015D01*
X174592910Y-71900015D02*
X174640529Y-71804777D01*
X174640529Y-71804777D02*
X174688148Y-71757158D01*
X174688148Y-71757158D02*
X174783386Y-71709539D01*
X174783386Y-71709539D02*
X175021481Y-71709539D01*
X175021481Y-71709539D02*
X175164338Y-71757158D01*
X175926243Y-72185729D02*
X176069100Y-72233348D01*
X176069100Y-72233348D02*
X176116719Y-72280967D01*
X176116719Y-72280967D02*
X176164338Y-72376205D01*
X176164338Y-72376205D02*
X176164338Y-72519062D01*
X176164338Y-72519062D02*
X176116719Y-72614300D01*
X176116719Y-72614300D02*
X176069100Y-72661920D01*
X176069100Y-72661920D02*
X175973862Y-72709539D01*
X175973862Y-72709539D02*
X175592910Y-72709539D01*
X175592910Y-72709539D02*
X175592910Y-71709539D01*
X175592910Y-71709539D02*
X175926243Y-71709539D01*
X175926243Y-71709539D02*
X176021481Y-71757158D01*
X176021481Y-71757158D02*
X176069100Y-71804777D01*
X176069100Y-71804777D02*
X176116719Y-71900015D01*
X176116719Y-71900015D02*
X176116719Y-71995253D01*
X176116719Y-71995253D02*
X176069100Y-72090491D01*
X176069100Y-72090491D02*
X176021481Y-72138110D01*
X176021481Y-72138110D02*
X175926243Y-72185729D01*
X175926243Y-72185729D02*
X175592910Y-72185729D01*
X176545291Y-71804777D02*
X176592910Y-71757158D01*
X176592910Y-71757158D02*
X176688148Y-71709539D01*
X176688148Y-71709539D02*
X176926243Y-71709539D01*
X176926243Y-71709539D02*
X177021481Y-71757158D01*
X177021481Y-71757158D02*
X177069100Y-71804777D01*
X177069100Y-71804777D02*
X177116719Y-71900015D01*
X177116719Y-71900015D02*
X177116719Y-71995253D01*
X177116719Y-71995253D02*
X177069100Y-72138110D01*
X177069100Y-72138110D02*
X176497672Y-72709539D01*
X176497672Y-72709539D02*
X177116719Y-72709539D01*
X193642910Y-103618220D02*
X193785767Y-103665839D01*
X193785767Y-103665839D02*
X194023862Y-103665839D01*
X194023862Y-103665839D02*
X194119100Y-103618220D01*
X194119100Y-103618220D02*
X194166719Y-103570600D01*
X194166719Y-103570600D02*
X194214338Y-103475362D01*
X194214338Y-103475362D02*
X194214338Y-103380124D01*
X194214338Y-103380124D02*
X194166719Y-103284886D01*
X194166719Y-103284886D02*
X194119100Y-103237267D01*
X194119100Y-103237267D02*
X194023862Y-103189648D01*
X194023862Y-103189648D02*
X193833386Y-103142029D01*
X193833386Y-103142029D02*
X193738148Y-103094410D01*
X193738148Y-103094410D02*
X193690529Y-103046791D01*
X193690529Y-103046791D02*
X193642910Y-102951553D01*
X193642910Y-102951553D02*
X193642910Y-102856315D01*
X193642910Y-102856315D02*
X193690529Y-102761077D01*
X193690529Y-102761077D02*
X193738148Y-102713458D01*
X193738148Y-102713458D02*
X193833386Y-102665839D01*
X193833386Y-102665839D02*
X194071481Y-102665839D01*
X194071481Y-102665839D02*
X194214338Y-102713458D01*
X195214338Y-103570600D02*
X195166719Y-103618220D01*
X195166719Y-103618220D02*
X195023862Y-103665839D01*
X195023862Y-103665839D02*
X194928624Y-103665839D01*
X194928624Y-103665839D02*
X194785767Y-103618220D01*
X194785767Y-103618220D02*
X194690529Y-103522981D01*
X194690529Y-103522981D02*
X194642910Y-103427743D01*
X194642910Y-103427743D02*
X194595291Y-103237267D01*
X194595291Y-103237267D02*
X194595291Y-103094410D01*
X194595291Y-103094410D02*
X194642910Y-102903934D01*
X194642910Y-102903934D02*
X194690529Y-102808696D01*
X194690529Y-102808696D02*
X194785767Y-102713458D01*
X194785767Y-102713458D02*
X194928624Y-102665839D01*
X194928624Y-102665839D02*
X195023862Y-102665839D01*
X195023862Y-102665839D02*
X195166719Y-102713458D01*
X195166719Y-102713458D02*
X195214338Y-102761077D01*
X196166719Y-103665839D02*
X195595291Y-103665839D01*
X195881005Y-103665839D02*
X195881005Y-102665839D01*
X195881005Y-102665839D02*
X195785767Y-102808696D01*
X195785767Y-102808696D02*
X195690529Y-102903934D01*
X195690529Y-102903934D02*
X195595291Y-102951553D01*
X136492910Y-73852620D02*
X136635767Y-73900239D01*
X136635767Y-73900239D02*
X136873862Y-73900239D01*
X136873862Y-73900239D02*
X136969100Y-73852620D01*
X136969100Y-73852620D02*
X137016719Y-73805000D01*
X137016719Y-73805000D02*
X137064338Y-73709762D01*
X137064338Y-73709762D02*
X137064338Y-73614524D01*
X137064338Y-73614524D02*
X137016719Y-73519286D01*
X137016719Y-73519286D02*
X136969100Y-73471667D01*
X136969100Y-73471667D02*
X136873862Y-73424048D01*
X136873862Y-73424048D02*
X136683386Y-73376429D01*
X136683386Y-73376429D02*
X136588148Y-73328810D01*
X136588148Y-73328810D02*
X136540529Y-73281191D01*
X136540529Y-73281191D02*
X136492910Y-73185953D01*
X136492910Y-73185953D02*
X136492910Y-73090715D01*
X136492910Y-73090715D02*
X136540529Y-72995477D01*
X136540529Y-72995477D02*
X136588148Y-72947858D01*
X136588148Y-72947858D02*
X136683386Y-72900239D01*
X136683386Y-72900239D02*
X136921481Y-72900239D01*
X136921481Y-72900239D02*
X137064338Y-72947858D01*
X137826243Y-73376429D02*
X137969100Y-73424048D01*
X137969100Y-73424048D02*
X138016719Y-73471667D01*
X138016719Y-73471667D02*
X138064338Y-73566905D01*
X138064338Y-73566905D02*
X138064338Y-73709762D01*
X138064338Y-73709762D02*
X138016719Y-73805000D01*
X138016719Y-73805000D02*
X137969100Y-73852620D01*
X137969100Y-73852620D02*
X137873862Y-73900239D01*
X137873862Y-73900239D02*
X137492910Y-73900239D01*
X137492910Y-73900239D02*
X137492910Y-72900239D01*
X137492910Y-72900239D02*
X137826243Y-72900239D01*
X137826243Y-72900239D02*
X137921481Y-72947858D01*
X137921481Y-72947858D02*
X137969100Y-72995477D01*
X137969100Y-72995477D02*
X138016719Y-73090715D01*
X138016719Y-73090715D02*
X138016719Y-73185953D01*
X138016719Y-73185953D02*
X137969100Y-73281191D01*
X137969100Y-73281191D02*
X137921481Y-73328810D01*
X137921481Y-73328810D02*
X137826243Y-73376429D01*
X137826243Y-73376429D02*
X137492910Y-73376429D01*
X138921481Y-73233572D02*
X138921481Y-73900239D01*
X138683386Y-72852620D02*
X138445291Y-73566905D01*
X138445291Y-73566905D02*
X139064338Y-73566905D01*
X193642910Y-122668220D02*
X193785767Y-122715839D01*
X193785767Y-122715839D02*
X194023862Y-122715839D01*
X194023862Y-122715839D02*
X194119100Y-122668220D01*
X194119100Y-122668220D02*
X194166719Y-122620600D01*
X194166719Y-122620600D02*
X194214338Y-122525362D01*
X194214338Y-122525362D02*
X194214338Y-122430124D01*
X194214338Y-122430124D02*
X194166719Y-122334886D01*
X194166719Y-122334886D02*
X194119100Y-122287267D01*
X194119100Y-122287267D02*
X194023862Y-122239648D01*
X194023862Y-122239648D02*
X193833386Y-122192029D01*
X193833386Y-122192029D02*
X193738148Y-122144410D01*
X193738148Y-122144410D02*
X193690529Y-122096791D01*
X193690529Y-122096791D02*
X193642910Y-122001553D01*
X193642910Y-122001553D02*
X193642910Y-121906315D01*
X193642910Y-121906315D02*
X193690529Y-121811077D01*
X193690529Y-121811077D02*
X193738148Y-121763458D01*
X193738148Y-121763458D02*
X193833386Y-121715839D01*
X193833386Y-121715839D02*
X194071481Y-121715839D01*
X194071481Y-121715839D02*
X194214338Y-121763458D01*
X194642910Y-122715839D02*
X194642910Y-121715839D01*
X194642910Y-121715839D02*
X194881005Y-121715839D01*
X194881005Y-121715839D02*
X195023862Y-121763458D01*
X195023862Y-121763458D02*
X195119100Y-121858696D01*
X195119100Y-121858696D02*
X195166719Y-121953934D01*
X195166719Y-121953934D02*
X195214338Y-122144410D01*
X195214338Y-122144410D02*
X195214338Y-122287267D01*
X195214338Y-122287267D02*
X195166719Y-122477743D01*
X195166719Y-122477743D02*
X195119100Y-122572981D01*
X195119100Y-122572981D02*
X195023862Y-122668220D01*
X195023862Y-122668220D02*
X194881005Y-122715839D01*
X194881005Y-122715839D02*
X194642910Y-122715839D01*
X196166719Y-122715839D02*
X195595291Y-122715839D01*
X195881005Y-122715839D02*
X195881005Y-121715839D01*
X195881005Y-121715839D02*
X195785767Y-121858696D01*
X195785767Y-121858696D02*
X195690529Y-121953934D01*
X195690529Y-121953934D02*
X195595291Y-122001553D01*
X155614307Y-47658780D02*
X155757164Y-47706399D01*
X155757164Y-47706399D02*
X155995259Y-47706399D01*
X155995259Y-47706399D02*
X156090497Y-47658780D01*
X156090497Y-47658780D02*
X156138116Y-47611160D01*
X156138116Y-47611160D02*
X156185735Y-47515922D01*
X156185735Y-47515922D02*
X156185735Y-47420684D01*
X156185735Y-47420684D02*
X156138116Y-47325446D01*
X156138116Y-47325446D02*
X156090497Y-47277827D01*
X156090497Y-47277827D02*
X155995259Y-47230208D01*
X155995259Y-47230208D02*
X155804783Y-47182589D01*
X155804783Y-47182589D02*
X155709545Y-47134970D01*
X155709545Y-47134970D02*
X155661926Y-47087351D01*
X155661926Y-47087351D02*
X155614307Y-46992113D01*
X155614307Y-46992113D02*
X155614307Y-46896875D01*
X155614307Y-46896875D02*
X155661926Y-46801637D01*
X155661926Y-46801637D02*
X155709545Y-46754018D01*
X155709545Y-46754018D02*
X155804783Y-46706399D01*
X155804783Y-46706399D02*
X156042878Y-46706399D01*
X156042878Y-46706399D02*
X156185735Y-46754018D01*
X156566688Y-47420684D02*
X157042878Y-47420684D01*
X156471450Y-47706399D02*
X156804783Y-46706399D01*
X156804783Y-46706399D02*
X157138116Y-47706399D01*
X157376212Y-46706399D02*
X157995259Y-46706399D01*
X157995259Y-46706399D02*
X157661926Y-47087351D01*
X157661926Y-47087351D02*
X157804783Y-47087351D01*
X157804783Y-47087351D02*
X157900021Y-47134970D01*
X157900021Y-47134970D02*
X157947640Y-47182589D01*
X157947640Y-47182589D02*
X157995259Y-47277827D01*
X157995259Y-47277827D02*
X157995259Y-47515922D01*
X157995259Y-47515922D02*
X157947640Y-47611160D01*
X157947640Y-47611160D02*
X157900021Y-47658780D01*
X157900021Y-47658780D02*
X157804783Y-47706399D01*
X157804783Y-47706399D02*
X157519069Y-47706399D01*
X157519069Y-47706399D02*
X157423831Y-47658780D01*
X157423831Y-47658780D02*
X157376212Y-47611160D01*
X211369815Y-118896324D02*
X211417434Y-118753467D01*
X211417434Y-118753467D02*
X211417434Y-118515372D01*
X211417434Y-118515372D02*
X211369815Y-118420134D01*
X211369815Y-118420134D02*
X211322195Y-118372515D01*
X211322195Y-118372515D02*
X211226957Y-118324896D01*
X211226957Y-118324896D02*
X211131719Y-118324896D01*
X211131719Y-118324896D02*
X211036481Y-118372515D01*
X211036481Y-118372515D02*
X210988862Y-118420134D01*
X210988862Y-118420134D02*
X210941243Y-118515372D01*
X210941243Y-118515372D02*
X210893624Y-118705848D01*
X210893624Y-118705848D02*
X210846005Y-118801086D01*
X210846005Y-118801086D02*
X210798386Y-118848705D01*
X210798386Y-118848705D02*
X210703148Y-118896324D01*
X210703148Y-118896324D02*
X210607910Y-118896324D01*
X210607910Y-118896324D02*
X210512672Y-118848705D01*
X210512672Y-118848705D02*
X210465053Y-118801086D01*
X210465053Y-118801086D02*
X210417434Y-118705848D01*
X210417434Y-118705848D02*
X210417434Y-118467753D01*
X210417434Y-118467753D02*
X210465053Y-118324896D01*
X211417434Y-117896324D02*
X210417434Y-117896324D01*
X210417434Y-117896324D02*
X210417434Y-117658229D01*
X210417434Y-117658229D02*
X210465053Y-117515372D01*
X210465053Y-117515372D02*
X210560291Y-117420134D01*
X210560291Y-117420134D02*
X210655529Y-117372515D01*
X210655529Y-117372515D02*
X210846005Y-117324896D01*
X210846005Y-117324896D02*
X210988862Y-117324896D01*
X210988862Y-117324896D02*
X211179338Y-117372515D01*
X211179338Y-117372515D02*
X211274576Y-117420134D01*
X211274576Y-117420134D02*
X211369815Y-117515372D01*
X211369815Y-117515372D02*
X211417434Y-117658229D01*
X211417434Y-117658229D02*
X211417434Y-117896324D01*
X210417434Y-116705848D02*
X210417434Y-116610610D01*
X210417434Y-116610610D02*
X210465053Y-116515372D01*
X210465053Y-116515372D02*
X210512672Y-116467753D01*
X210512672Y-116467753D02*
X210607910Y-116420134D01*
X210607910Y-116420134D02*
X210798386Y-116372515D01*
X210798386Y-116372515D02*
X211036481Y-116372515D01*
X211036481Y-116372515D02*
X211226957Y-116420134D01*
X211226957Y-116420134D02*
X211322195Y-116467753D01*
X211322195Y-116467753D02*
X211369815Y-116515372D01*
X211369815Y-116515372D02*
X211417434Y-116610610D01*
X211417434Y-116610610D02*
X211417434Y-116705848D01*
X211417434Y-116705848D02*
X211369815Y-116801086D01*
X211369815Y-116801086D02*
X211322195Y-116848705D01*
X211322195Y-116848705D02*
X211226957Y-116896324D01*
X211226957Y-116896324D02*
X211036481Y-116943943D01*
X211036481Y-116943943D02*
X210798386Y-116943943D01*
X210798386Y-116943943D02*
X210607910Y-116896324D01*
X210607910Y-116896324D02*
X210512672Y-116848705D01*
X210512672Y-116848705D02*
X210465053Y-116801086D01*
X210465053Y-116801086D02*
X210417434Y-116705848D01*
X211369815Y-59293695D02*
X211417434Y-59150838D01*
X211417434Y-59150838D02*
X211417434Y-58912743D01*
X211417434Y-58912743D02*
X211369815Y-58817505D01*
X211369815Y-58817505D02*
X211322195Y-58769886D01*
X211322195Y-58769886D02*
X211226957Y-58722267D01*
X211226957Y-58722267D02*
X211131719Y-58722267D01*
X211131719Y-58722267D02*
X211036481Y-58769886D01*
X211036481Y-58769886D02*
X210988862Y-58817505D01*
X210988862Y-58817505D02*
X210941243Y-58912743D01*
X210941243Y-58912743D02*
X210893624Y-59103219D01*
X210893624Y-59103219D02*
X210846005Y-59198457D01*
X210846005Y-59198457D02*
X210798386Y-59246076D01*
X210798386Y-59246076D02*
X210703148Y-59293695D01*
X210703148Y-59293695D02*
X210607910Y-59293695D01*
X210607910Y-59293695D02*
X210512672Y-59246076D01*
X210512672Y-59246076D02*
X210465053Y-59198457D01*
X210465053Y-59198457D02*
X210417434Y-59103219D01*
X210417434Y-59103219D02*
X210417434Y-58865124D01*
X210417434Y-58865124D02*
X210465053Y-58722267D01*
X211131719Y-58341314D02*
X211131719Y-57865124D01*
X211417434Y-58436552D02*
X210417434Y-58103219D01*
X210417434Y-58103219D02*
X211417434Y-57769886D01*
X210417434Y-57246076D02*
X210417434Y-57150838D01*
X210417434Y-57150838D02*
X210465053Y-57055600D01*
X210465053Y-57055600D02*
X210512672Y-57007981D01*
X210512672Y-57007981D02*
X210607910Y-56960362D01*
X210607910Y-56960362D02*
X210798386Y-56912743D01*
X210798386Y-56912743D02*
X211036481Y-56912743D01*
X211036481Y-56912743D02*
X211226957Y-56960362D01*
X211226957Y-56960362D02*
X211322195Y-57007981D01*
X211322195Y-57007981D02*
X211369815Y-57055600D01*
X211369815Y-57055600D02*
X211417434Y-57150838D01*
X211417434Y-57150838D02*
X211417434Y-57246076D01*
X211417434Y-57246076D02*
X211369815Y-57341314D01*
X211369815Y-57341314D02*
X211322195Y-57388933D01*
X211322195Y-57388933D02*
X211226957Y-57436552D01*
X211226957Y-57436552D02*
X211036481Y-57484171D01*
X211036481Y-57484171D02*
X210798386Y-57484171D01*
X210798386Y-57484171D02*
X210607910Y-57436552D01*
X210607910Y-57436552D02*
X210512672Y-57388933D01*
X210512672Y-57388933D02*
X210465053Y-57341314D01*
X210465053Y-57341314D02*
X210417434Y-57246076D01*
X130587329Y-133383920D02*
X130730186Y-133431539D01*
X130730186Y-133431539D02*
X130968281Y-133431539D01*
X130968281Y-133431539D02*
X131063519Y-133383920D01*
X131063519Y-133383920D02*
X131111138Y-133336300D01*
X131111138Y-133336300D02*
X131158757Y-133241062D01*
X131158757Y-133241062D02*
X131158757Y-133145824D01*
X131158757Y-133145824D02*
X131111138Y-133050586D01*
X131111138Y-133050586D02*
X131063519Y-133002967D01*
X131063519Y-133002967D02*
X130968281Y-132955348D01*
X130968281Y-132955348D02*
X130777805Y-132907729D01*
X130777805Y-132907729D02*
X130682567Y-132860110D01*
X130682567Y-132860110D02*
X130634948Y-132812491D01*
X130634948Y-132812491D02*
X130587329Y-132717253D01*
X130587329Y-132717253D02*
X130587329Y-132622015D01*
X130587329Y-132622015D02*
X130634948Y-132526777D01*
X130634948Y-132526777D02*
X130682567Y-132479158D01*
X130682567Y-132479158D02*
X130777805Y-132431539D01*
X130777805Y-132431539D02*
X131015900Y-132431539D01*
X131015900Y-132431539D02*
X131158757Y-132479158D01*
X131587329Y-132907729D02*
X131920662Y-132907729D01*
X132063519Y-133431539D02*
X131587329Y-133431539D01*
X131587329Y-133431539D02*
X131587329Y-132431539D01*
X131587329Y-132431539D02*
X132063519Y-132431539D01*
X132444472Y-132526777D02*
X132492091Y-132479158D01*
X132492091Y-132479158D02*
X132587329Y-132431539D01*
X132587329Y-132431539D02*
X132825424Y-132431539D01*
X132825424Y-132431539D02*
X132920662Y-132479158D01*
X132920662Y-132479158D02*
X132968281Y-132526777D01*
X132968281Y-132526777D02*
X133015900Y-132622015D01*
X133015900Y-132622015D02*
X133015900Y-132717253D01*
X133015900Y-132717253D02*
X132968281Y-132860110D01*
X132968281Y-132860110D02*
X132396853Y-133431539D01*
X132396853Y-133431539D02*
X133015900Y-133431539D01*
X93069715Y-118180824D02*
X93117334Y-118037967D01*
X93117334Y-118037967D02*
X93117334Y-117799872D01*
X93117334Y-117799872D02*
X93069715Y-117704634D01*
X93069715Y-117704634D02*
X93022095Y-117657015D01*
X93022095Y-117657015D02*
X92926857Y-117609396D01*
X92926857Y-117609396D02*
X92831619Y-117609396D01*
X92831619Y-117609396D02*
X92736381Y-117657015D01*
X92736381Y-117657015D02*
X92688762Y-117704634D01*
X92688762Y-117704634D02*
X92641143Y-117799872D01*
X92641143Y-117799872D02*
X92593524Y-117990348D01*
X92593524Y-117990348D02*
X92545905Y-118085586D01*
X92545905Y-118085586D02*
X92498286Y-118133205D01*
X92498286Y-118133205D02*
X92403048Y-118180824D01*
X92403048Y-118180824D02*
X92307810Y-118180824D01*
X92307810Y-118180824D02*
X92212572Y-118133205D01*
X92212572Y-118133205D02*
X92164953Y-118085586D01*
X92164953Y-118085586D02*
X92117334Y-117990348D01*
X92117334Y-117990348D02*
X92117334Y-117752253D01*
X92117334Y-117752253D02*
X92164953Y-117609396D01*
X93022095Y-116609396D02*
X93069715Y-116657015D01*
X93069715Y-116657015D02*
X93117334Y-116799872D01*
X93117334Y-116799872D02*
X93117334Y-116895110D01*
X93117334Y-116895110D02*
X93069715Y-117037967D01*
X93069715Y-117037967D02*
X92974476Y-117133205D01*
X92974476Y-117133205D02*
X92879238Y-117180824D01*
X92879238Y-117180824D02*
X92688762Y-117228443D01*
X92688762Y-117228443D02*
X92545905Y-117228443D01*
X92545905Y-117228443D02*
X92355429Y-117180824D01*
X92355429Y-117180824D02*
X92260191Y-117133205D01*
X92260191Y-117133205D02*
X92164953Y-117037967D01*
X92164953Y-117037967D02*
X92117334Y-116895110D01*
X92117334Y-116895110D02*
X92117334Y-116799872D01*
X92117334Y-116799872D02*
X92164953Y-116657015D01*
X92164953Y-116657015D02*
X92212572Y-116609396D01*
X92117334Y-115752253D02*
X92117334Y-115942729D01*
X92117334Y-115942729D02*
X92164953Y-116037967D01*
X92164953Y-116037967D02*
X92212572Y-116085586D01*
X92212572Y-116085586D02*
X92355429Y-116180824D01*
X92355429Y-116180824D02*
X92545905Y-116228443D01*
X92545905Y-116228443D02*
X92926857Y-116228443D01*
X92926857Y-116228443D02*
X93022095Y-116180824D01*
X93022095Y-116180824D02*
X93069715Y-116133205D01*
X93069715Y-116133205D02*
X93117334Y-116037967D01*
X93117334Y-116037967D02*
X93117334Y-115847491D01*
X93117334Y-115847491D02*
X93069715Y-115752253D01*
X93069715Y-115752253D02*
X93022095Y-115704634D01*
X93022095Y-115704634D02*
X92926857Y-115657015D01*
X92926857Y-115657015D02*
X92688762Y-115657015D01*
X92688762Y-115657015D02*
X92593524Y-115704634D01*
X92593524Y-115704634D02*
X92545905Y-115752253D01*
X92545905Y-115752253D02*
X92498286Y-115847491D01*
X92498286Y-115847491D02*
X92498286Y-116037967D01*
X92498286Y-116037967D02*
X92545905Y-116133205D01*
X92545905Y-116133205D02*
X92593524Y-116180824D01*
X92593524Y-116180824D02*
X92688762Y-116228443D01*
X88323681Y-149049579D02*
X88458368Y-148982235D01*
X88458368Y-148982235D02*
X88626727Y-148813876D01*
X88626727Y-148813876D02*
X88660399Y-148712861D01*
X88660399Y-148712861D02*
X88660399Y-148645518D01*
X88660399Y-148645518D02*
X88626727Y-148544502D01*
X88626727Y-148544502D02*
X88559383Y-148477159D01*
X88559383Y-148477159D02*
X88458368Y-148443487D01*
X88458368Y-148443487D02*
X88391025Y-148443487D01*
X88391025Y-148443487D02*
X88290009Y-148477159D01*
X88290009Y-148477159D02*
X88121651Y-148578174D01*
X88121651Y-148578174D02*
X88020635Y-148611846D01*
X88020635Y-148611846D02*
X87953292Y-148611846D01*
X87953292Y-148611846D02*
X87852277Y-148578174D01*
X87852277Y-148578174D02*
X87784933Y-148510831D01*
X87784933Y-148510831D02*
X87751261Y-148409815D01*
X87751261Y-148409815D02*
X87751261Y-148342472D01*
X87751261Y-148342472D02*
X87784933Y-148241457D01*
X87784933Y-148241457D02*
X87953292Y-148073098D01*
X87953292Y-148073098D02*
X88087979Y-148005754D01*
X88694070Y-148005754D02*
X88929773Y-147770052D01*
X89401177Y-148039426D02*
X89064460Y-148376143D01*
X89064460Y-148376143D02*
X88357353Y-147669037D01*
X88357353Y-147669037D02*
X88694070Y-147332319D01*
X89535864Y-146961930D02*
X90007269Y-147433334D01*
X89098131Y-146860915D02*
X89434849Y-147534350D01*
X89434849Y-147534350D02*
X89872582Y-147096617D01*
X193714307Y-65518180D02*
X193857164Y-65565799D01*
X193857164Y-65565799D02*
X194095259Y-65565799D01*
X194095259Y-65565799D02*
X194190497Y-65518180D01*
X194190497Y-65518180D02*
X194238116Y-65470560D01*
X194238116Y-65470560D02*
X194285735Y-65375322D01*
X194285735Y-65375322D02*
X194285735Y-65280084D01*
X194285735Y-65280084D02*
X194238116Y-65184846D01*
X194238116Y-65184846D02*
X194190497Y-65137227D01*
X194190497Y-65137227D02*
X194095259Y-65089608D01*
X194095259Y-65089608D02*
X193904783Y-65041989D01*
X193904783Y-65041989D02*
X193809545Y-64994370D01*
X193809545Y-64994370D02*
X193761926Y-64946751D01*
X193761926Y-64946751D02*
X193714307Y-64851513D01*
X193714307Y-64851513D02*
X193714307Y-64756275D01*
X193714307Y-64756275D02*
X193761926Y-64661037D01*
X193761926Y-64661037D02*
X193809545Y-64613418D01*
X193809545Y-64613418D02*
X193904783Y-64565799D01*
X193904783Y-64565799D02*
X194142878Y-64565799D01*
X194142878Y-64565799D02*
X194285735Y-64613418D01*
X194666688Y-65280084D02*
X195142878Y-65280084D01*
X194571450Y-65565799D02*
X194904783Y-64565799D01*
X194904783Y-64565799D02*
X195238116Y-65565799D01*
X196095259Y-65565799D02*
X195523831Y-65565799D01*
X195809545Y-65565799D02*
X195809545Y-64565799D01*
X195809545Y-64565799D02*
X195714307Y-64708656D01*
X195714307Y-64708656D02*
X195619069Y-64803894D01*
X195619069Y-64803894D02*
X195523831Y-64851513D01*
X74231123Y-165211995D02*
X74343791Y-165112086D01*
X74343791Y-165112086D02*
X74462839Y-164905890D01*
X74462839Y-164905890D02*
X74469218Y-164799602D01*
X74469218Y-164799602D02*
X74451789Y-164734553D01*
X74451789Y-164734553D02*
X74393120Y-164645695D01*
X74393120Y-164645695D02*
X74310641Y-164598076D01*
X74310641Y-164598076D02*
X74204353Y-164591696D01*
X74204353Y-164591696D02*
X74139304Y-164609126D01*
X74139304Y-164609126D02*
X74050446Y-164667795D01*
X74050446Y-164667795D02*
X73913968Y-164808942D01*
X73913968Y-164808942D02*
X73825110Y-164867611D01*
X73825110Y-164867611D02*
X73760061Y-164885041D01*
X73760061Y-164885041D02*
X73653773Y-164878662D01*
X73653773Y-164878662D02*
X73571294Y-164831042D01*
X73571294Y-164831042D02*
X73512625Y-164742184D01*
X73512625Y-164742184D02*
X73495195Y-164677135D01*
X73495195Y-164677135D02*
X73501575Y-164570847D01*
X73501575Y-164570847D02*
X73620623Y-164364651D01*
X73620623Y-164364651D02*
X73733291Y-164264742D01*
X74318730Y-164107874D02*
X74485397Y-163819199D01*
X75010458Y-163957386D02*
X74772362Y-164369779D01*
X74772362Y-164369779D02*
X73906337Y-163869779D01*
X73906337Y-163869779D02*
X74144432Y-163457386D01*
X74596813Y-162673839D02*
X74358718Y-163086232D01*
X74358718Y-163086232D02*
X74747302Y-163365567D01*
X74747302Y-163365567D02*
X74729872Y-163300518D01*
X74729872Y-163300518D02*
X74736252Y-163194230D01*
X74736252Y-163194230D02*
X74855299Y-162988033D01*
X74855299Y-162988033D02*
X74944158Y-162929364D01*
X74944158Y-162929364D02*
X75009206Y-162911934D01*
X75009206Y-162911934D02*
X75115494Y-162918314D01*
X75115494Y-162918314D02*
X75321691Y-163037362D01*
X75321691Y-163037362D02*
X75380360Y-163126220D01*
X75380360Y-163126220D02*
X75397790Y-163191269D01*
X75397790Y-163191269D02*
X75391410Y-163297557D01*
X75391410Y-163297557D02*
X75272363Y-163503753D01*
X75272363Y-163503753D02*
X75183504Y-163562423D01*
X75183504Y-163562423D02*
X75118455Y-163579852D01*
X66962658Y-134154191D02*
X67105406Y-134106247D01*
X67105406Y-134106247D02*
X67295558Y-133962958D01*
X67295558Y-133962958D02*
X67342960Y-133867612D01*
X67342960Y-133867612D02*
X67352333Y-133800924D01*
X67352333Y-133800924D02*
X67333047Y-133696205D01*
X67333047Y-133696205D02*
X67275732Y-133620145D01*
X67275732Y-133620145D02*
X67180386Y-133572742D01*
X67180386Y-133572742D02*
X67113698Y-133563370D01*
X67113698Y-133563370D02*
X67008979Y-133582655D01*
X67008979Y-133582655D02*
X66828200Y-133659256D01*
X66828200Y-133659256D02*
X66723482Y-133678542D01*
X66723482Y-133678542D02*
X66656794Y-133669170D01*
X66656794Y-133669170D02*
X66561448Y-133621767D01*
X66561448Y-133621767D02*
X66504132Y-133545706D01*
X66504132Y-133545706D02*
X66484847Y-133440988D01*
X66484847Y-133440988D02*
X66494219Y-133374300D01*
X66494219Y-133374300D02*
X66541622Y-133278954D01*
X66541622Y-133278954D02*
X66731773Y-133135665D01*
X66731773Y-133135665D02*
X66874522Y-133087721D01*
X67789951Y-133590406D02*
X67188136Y-132791770D01*
X67188136Y-132791770D02*
X67378287Y-132648481D01*
X67378287Y-132648481D02*
X67521036Y-132600538D01*
X67521036Y-132600538D02*
X67654412Y-132619282D01*
X67654412Y-132619282D02*
X67749758Y-132666685D01*
X67749758Y-132666685D02*
X67902420Y-132790148D01*
X67902420Y-132790148D02*
X67988394Y-132904239D01*
X67988394Y-132904239D02*
X68064995Y-133085018D01*
X68064995Y-133085018D02*
X68084280Y-133189736D01*
X68084280Y-133189736D02*
X68065535Y-133323113D01*
X68065535Y-133323113D02*
X67980102Y-133447116D01*
X67980102Y-133447116D02*
X67789951Y-133590406D01*
X68329044Y-131932034D02*
X68176923Y-132046666D01*
X68176923Y-132046666D02*
X68129520Y-132142012D01*
X68129520Y-132142012D02*
X68120148Y-132208700D01*
X68120148Y-132208700D02*
X68130061Y-132380106D01*
X68130061Y-132380106D02*
X68206662Y-132560885D01*
X68206662Y-132560885D02*
X68435925Y-132865128D01*
X68435925Y-132865128D02*
X68531271Y-132912530D01*
X68531271Y-132912530D02*
X68597959Y-132921903D01*
X68597959Y-132921903D02*
X68702677Y-132902617D01*
X68702677Y-132902617D02*
X68854798Y-132787986D01*
X68854798Y-132787986D02*
X68902201Y-132692640D01*
X68902201Y-132692640D02*
X68911574Y-132625952D01*
X68911574Y-132625952D02*
X68892288Y-132521233D01*
X68892288Y-132521233D02*
X68748999Y-132331082D01*
X68748999Y-132331082D02*
X68653653Y-132283679D01*
X68653653Y-132283679D02*
X68586965Y-132274307D01*
X68586965Y-132274307D02*
X68482246Y-132293592D01*
X68482246Y-132293592D02*
X68330125Y-132408224D01*
X68330125Y-132408224D02*
X68282723Y-132503570D01*
X68282723Y-132503570D02*
X68273350Y-132570258D01*
X68273350Y-132570258D02*
X68292636Y-132674976D01*
X117442910Y-114333820D02*
X117585767Y-114381439D01*
X117585767Y-114381439D02*
X117823862Y-114381439D01*
X117823862Y-114381439D02*
X117919100Y-114333820D01*
X117919100Y-114333820D02*
X117966719Y-114286200D01*
X117966719Y-114286200D02*
X118014338Y-114190962D01*
X118014338Y-114190962D02*
X118014338Y-114095724D01*
X118014338Y-114095724D02*
X117966719Y-114000486D01*
X117966719Y-114000486D02*
X117919100Y-113952867D01*
X117919100Y-113952867D02*
X117823862Y-113905248D01*
X117823862Y-113905248D02*
X117633386Y-113857629D01*
X117633386Y-113857629D02*
X117538148Y-113810010D01*
X117538148Y-113810010D02*
X117490529Y-113762391D01*
X117490529Y-113762391D02*
X117442910Y-113667153D01*
X117442910Y-113667153D02*
X117442910Y-113571915D01*
X117442910Y-113571915D02*
X117490529Y-113476677D01*
X117490529Y-113476677D02*
X117538148Y-113429058D01*
X117538148Y-113429058D02*
X117633386Y-113381439D01*
X117633386Y-113381439D02*
X117871481Y-113381439D01*
X117871481Y-113381439D02*
X118014338Y-113429058D01*
X118442910Y-114381439D02*
X118442910Y-113381439D01*
X118442910Y-113381439D02*
X118681005Y-113381439D01*
X118681005Y-113381439D02*
X118823862Y-113429058D01*
X118823862Y-113429058D02*
X118919100Y-113524296D01*
X118919100Y-113524296D02*
X118966719Y-113619534D01*
X118966719Y-113619534D02*
X119014338Y-113810010D01*
X119014338Y-113810010D02*
X119014338Y-113952867D01*
X119014338Y-113952867D02*
X118966719Y-114143343D01*
X118966719Y-114143343D02*
X118919100Y-114238581D01*
X118919100Y-114238581D02*
X118823862Y-114333820D01*
X118823862Y-114333820D02*
X118681005Y-114381439D01*
X118681005Y-114381439D02*
X118442910Y-114381439D01*
X119919100Y-113381439D02*
X119442910Y-113381439D01*
X119442910Y-113381439D02*
X119395291Y-113857629D01*
X119395291Y-113857629D02*
X119442910Y-113810010D01*
X119442910Y-113810010D02*
X119538148Y-113762391D01*
X119538148Y-113762391D02*
X119776243Y-113762391D01*
X119776243Y-113762391D02*
X119871481Y-113810010D01*
X119871481Y-113810010D02*
X119919100Y-113857629D01*
X119919100Y-113857629D02*
X119966719Y-113952867D01*
X119966719Y-113952867D02*
X119966719Y-114190962D01*
X119966719Y-114190962D02*
X119919100Y-114286200D01*
X119919100Y-114286200D02*
X119871481Y-114333820D01*
X119871481Y-114333820D02*
X119776243Y-114381439D01*
X119776243Y-114381439D02*
X119538148Y-114381439D01*
X119538148Y-114381439D02*
X119442910Y-114333820D01*
X119442910Y-114333820D02*
X119395291Y-114286200D01*
X155542910Y-104808820D02*
X155685767Y-104856439D01*
X155685767Y-104856439D02*
X155923862Y-104856439D01*
X155923862Y-104856439D02*
X156019100Y-104808820D01*
X156019100Y-104808820D02*
X156066719Y-104761200D01*
X156066719Y-104761200D02*
X156114338Y-104665962D01*
X156114338Y-104665962D02*
X156114338Y-104570724D01*
X156114338Y-104570724D02*
X156066719Y-104475486D01*
X156066719Y-104475486D02*
X156019100Y-104427867D01*
X156019100Y-104427867D02*
X155923862Y-104380248D01*
X155923862Y-104380248D02*
X155733386Y-104332629D01*
X155733386Y-104332629D02*
X155638148Y-104285010D01*
X155638148Y-104285010D02*
X155590529Y-104237391D01*
X155590529Y-104237391D02*
X155542910Y-104142153D01*
X155542910Y-104142153D02*
X155542910Y-104046915D01*
X155542910Y-104046915D02*
X155590529Y-103951677D01*
X155590529Y-103951677D02*
X155638148Y-103904058D01*
X155638148Y-103904058D02*
X155733386Y-103856439D01*
X155733386Y-103856439D02*
X155971481Y-103856439D01*
X155971481Y-103856439D02*
X156114338Y-103904058D01*
X156542910Y-104856439D02*
X156542910Y-103856439D01*
X156542910Y-103856439D02*
X156781005Y-103856439D01*
X156781005Y-103856439D02*
X156923862Y-103904058D01*
X156923862Y-103904058D02*
X157019100Y-103999296D01*
X157019100Y-103999296D02*
X157066719Y-104094534D01*
X157066719Y-104094534D02*
X157114338Y-104285010D01*
X157114338Y-104285010D02*
X157114338Y-104427867D01*
X157114338Y-104427867D02*
X157066719Y-104618343D01*
X157066719Y-104618343D02*
X157019100Y-104713581D01*
X157019100Y-104713581D02*
X156923862Y-104808820D01*
X156923862Y-104808820D02*
X156781005Y-104856439D01*
X156781005Y-104856439D02*
X156542910Y-104856439D01*
X157447672Y-103856439D02*
X158066719Y-103856439D01*
X158066719Y-103856439D02*
X157733386Y-104237391D01*
X157733386Y-104237391D02*
X157876243Y-104237391D01*
X157876243Y-104237391D02*
X157971481Y-104285010D01*
X157971481Y-104285010D02*
X158019100Y-104332629D01*
X158019100Y-104332629D02*
X158066719Y-104427867D01*
X158066719Y-104427867D02*
X158066719Y-104665962D01*
X158066719Y-104665962D02*
X158019100Y-104761200D01*
X158019100Y-104761200D02*
X157971481Y-104808820D01*
X157971481Y-104808820D02*
X157876243Y-104856439D01*
X157876243Y-104856439D02*
X157590529Y-104856439D01*
X157590529Y-104856439D02*
X157495291Y-104808820D01*
X157495291Y-104808820D02*
X157447672Y-104761200D01*
X136492910Y-92902620D02*
X136635767Y-92950239D01*
X136635767Y-92950239D02*
X136873862Y-92950239D01*
X136873862Y-92950239D02*
X136969100Y-92902620D01*
X136969100Y-92902620D02*
X137016719Y-92855000D01*
X137016719Y-92855000D02*
X137064338Y-92759762D01*
X137064338Y-92759762D02*
X137064338Y-92664524D01*
X137064338Y-92664524D02*
X137016719Y-92569286D01*
X137016719Y-92569286D02*
X136969100Y-92521667D01*
X136969100Y-92521667D02*
X136873862Y-92474048D01*
X136873862Y-92474048D02*
X136683386Y-92426429D01*
X136683386Y-92426429D02*
X136588148Y-92378810D01*
X136588148Y-92378810D02*
X136540529Y-92331191D01*
X136540529Y-92331191D02*
X136492910Y-92235953D01*
X136492910Y-92235953D02*
X136492910Y-92140715D01*
X136492910Y-92140715D02*
X136540529Y-92045477D01*
X136540529Y-92045477D02*
X136588148Y-91997858D01*
X136588148Y-91997858D02*
X136683386Y-91950239D01*
X136683386Y-91950239D02*
X136921481Y-91950239D01*
X136921481Y-91950239D02*
X137064338Y-91997858D01*
X138064338Y-92855000D02*
X138016719Y-92902620D01*
X138016719Y-92902620D02*
X137873862Y-92950239D01*
X137873862Y-92950239D02*
X137778624Y-92950239D01*
X137778624Y-92950239D02*
X137635767Y-92902620D01*
X137635767Y-92902620D02*
X137540529Y-92807381D01*
X137540529Y-92807381D02*
X137492910Y-92712143D01*
X137492910Y-92712143D02*
X137445291Y-92521667D01*
X137445291Y-92521667D02*
X137445291Y-92378810D01*
X137445291Y-92378810D02*
X137492910Y-92188334D01*
X137492910Y-92188334D02*
X137540529Y-92093096D01*
X137540529Y-92093096D02*
X137635767Y-91997858D01*
X137635767Y-91997858D02*
X137778624Y-91950239D01*
X137778624Y-91950239D02*
X137873862Y-91950239D01*
X137873862Y-91950239D02*
X138016719Y-91997858D01*
X138016719Y-91997858D02*
X138064338Y-92045477D01*
X138921481Y-92283572D02*
X138921481Y-92950239D01*
X138683386Y-91902620D02*
X138445291Y-92616905D01*
X138445291Y-92616905D02*
X139064338Y-92616905D01*
X117442910Y-95283820D02*
X117585767Y-95331439D01*
X117585767Y-95331439D02*
X117823862Y-95331439D01*
X117823862Y-95331439D02*
X117919100Y-95283820D01*
X117919100Y-95283820D02*
X117966719Y-95236200D01*
X117966719Y-95236200D02*
X118014338Y-95140962D01*
X118014338Y-95140962D02*
X118014338Y-95045724D01*
X118014338Y-95045724D02*
X117966719Y-94950486D01*
X117966719Y-94950486D02*
X117919100Y-94902867D01*
X117919100Y-94902867D02*
X117823862Y-94855248D01*
X117823862Y-94855248D02*
X117633386Y-94807629D01*
X117633386Y-94807629D02*
X117538148Y-94760010D01*
X117538148Y-94760010D02*
X117490529Y-94712391D01*
X117490529Y-94712391D02*
X117442910Y-94617153D01*
X117442910Y-94617153D02*
X117442910Y-94521915D01*
X117442910Y-94521915D02*
X117490529Y-94426677D01*
X117490529Y-94426677D02*
X117538148Y-94379058D01*
X117538148Y-94379058D02*
X117633386Y-94331439D01*
X117633386Y-94331439D02*
X117871481Y-94331439D01*
X117871481Y-94331439D02*
X118014338Y-94379058D01*
X119014338Y-95236200D02*
X118966719Y-95283820D01*
X118966719Y-95283820D02*
X118823862Y-95331439D01*
X118823862Y-95331439D02*
X118728624Y-95331439D01*
X118728624Y-95331439D02*
X118585767Y-95283820D01*
X118585767Y-95283820D02*
X118490529Y-95188581D01*
X118490529Y-95188581D02*
X118442910Y-95093343D01*
X118442910Y-95093343D02*
X118395291Y-94902867D01*
X118395291Y-94902867D02*
X118395291Y-94760010D01*
X118395291Y-94760010D02*
X118442910Y-94569534D01*
X118442910Y-94569534D02*
X118490529Y-94474296D01*
X118490529Y-94474296D02*
X118585767Y-94379058D01*
X118585767Y-94379058D02*
X118728624Y-94331439D01*
X118728624Y-94331439D02*
X118823862Y-94331439D01*
X118823862Y-94331439D02*
X118966719Y-94379058D01*
X118966719Y-94379058D02*
X119014338Y-94426677D01*
X119919100Y-94331439D02*
X119442910Y-94331439D01*
X119442910Y-94331439D02*
X119395291Y-94807629D01*
X119395291Y-94807629D02*
X119442910Y-94760010D01*
X119442910Y-94760010D02*
X119538148Y-94712391D01*
X119538148Y-94712391D02*
X119776243Y-94712391D01*
X119776243Y-94712391D02*
X119871481Y-94760010D01*
X119871481Y-94760010D02*
X119919100Y-94807629D01*
X119919100Y-94807629D02*
X119966719Y-94902867D01*
X119966719Y-94902867D02*
X119966719Y-95140962D01*
X119966719Y-95140962D02*
X119919100Y-95236200D01*
X119919100Y-95236200D02*
X119871481Y-95283820D01*
X119871481Y-95283820D02*
X119776243Y-95331439D01*
X119776243Y-95331439D02*
X119538148Y-95331439D01*
X119538148Y-95331439D02*
X119442910Y-95283820D01*
X119442910Y-95283820D02*
X119395291Y-95236200D01*
X155542910Y-85758820D02*
X155685767Y-85806439D01*
X155685767Y-85806439D02*
X155923862Y-85806439D01*
X155923862Y-85806439D02*
X156019100Y-85758820D01*
X156019100Y-85758820D02*
X156066719Y-85711200D01*
X156066719Y-85711200D02*
X156114338Y-85615962D01*
X156114338Y-85615962D02*
X156114338Y-85520724D01*
X156114338Y-85520724D02*
X156066719Y-85425486D01*
X156066719Y-85425486D02*
X156019100Y-85377867D01*
X156019100Y-85377867D02*
X155923862Y-85330248D01*
X155923862Y-85330248D02*
X155733386Y-85282629D01*
X155733386Y-85282629D02*
X155638148Y-85235010D01*
X155638148Y-85235010D02*
X155590529Y-85187391D01*
X155590529Y-85187391D02*
X155542910Y-85092153D01*
X155542910Y-85092153D02*
X155542910Y-84996915D01*
X155542910Y-84996915D02*
X155590529Y-84901677D01*
X155590529Y-84901677D02*
X155638148Y-84854058D01*
X155638148Y-84854058D02*
X155733386Y-84806439D01*
X155733386Y-84806439D02*
X155971481Y-84806439D01*
X155971481Y-84806439D02*
X156114338Y-84854058D01*
X157114338Y-85711200D02*
X157066719Y-85758820D01*
X157066719Y-85758820D02*
X156923862Y-85806439D01*
X156923862Y-85806439D02*
X156828624Y-85806439D01*
X156828624Y-85806439D02*
X156685767Y-85758820D01*
X156685767Y-85758820D02*
X156590529Y-85663581D01*
X156590529Y-85663581D02*
X156542910Y-85568343D01*
X156542910Y-85568343D02*
X156495291Y-85377867D01*
X156495291Y-85377867D02*
X156495291Y-85235010D01*
X156495291Y-85235010D02*
X156542910Y-85044534D01*
X156542910Y-85044534D02*
X156590529Y-84949296D01*
X156590529Y-84949296D02*
X156685767Y-84854058D01*
X156685767Y-84854058D02*
X156828624Y-84806439D01*
X156828624Y-84806439D02*
X156923862Y-84806439D01*
X156923862Y-84806439D02*
X157066719Y-84854058D01*
X157066719Y-84854058D02*
X157114338Y-84901677D01*
X157447672Y-84806439D02*
X158066719Y-84806439D01*
X158066719Y-84806439D02*
X157733386Y-85187391D01*
X157733386Y-85187391D02*
X157876243Y-85187391D01*
X157876243Y-85187391D02*
X157971481Y-85235010D01*
X157971481Y-85235010D02*
X158019100Y-85282629D01*
X158019100Y-85282629D02*
X158066719Y-85377867D01*
X158066719Y-85377867D02*
X158066719Y-85615962D01*
X158066719Y-85615962D02*
X158019100Y-85711200D01*
X158019100Y-85711200D02*
X157971481Y-85758820D01*
X157971481Y-85758820D02*
X157876243Y-85806439D01*
X157876243Y-85806439D02*
X157590529Y-85806439D01*
X157590529Y-85806439D02*
X157495291Y-85758820D01*
X157495291Y-85758820D02*
X157447672Y-85711200D01*
X174592910Y-91711920D02*
X174735767Y-91759539D01*
X174735767Y-91759539D02*
X174973862Y-91759539D01*
X174973862Y-91759539D02*
X175069100Y-91711920D01*
X175069100Y-91711920D02*
X175116719Y-91664300D01*
X175116719Y-91664300D02*
X175164338Y-91569062D01*
X175164338Y-91569062D02*
X175164338Y-91473824D01*
X175164338Y-91473824D02*
X175116719Y-91378586D01*
X175116719Y-91378586D02*
X175069100Y-91330967D01*
X175069100Y-91330967D02*
X174973862Y-91283348D01*
X174973862Y-91283348D02*
X174783386Y-91235729D01*
X174783386Y-91235729D02*
X174688148Y-91188110D01*
X174688148Y-91188110D02*
X174640529Y-91140491D01*
X174640529Y-91140491D02*
X174592910Y-91045253D01*
X174592910Y-91045253D02*
X174592910Y-90950015D01*
X174592910Y-90950015D02*
X174640529Y-90854777D01*
X174640529Y-90854777D02*
X174688148Y-90807158D01*
X174688148Y-90807158D02*
X174783386Y-90759539D01*
X174783386Y-90759539D02*
X175021481Y-90759539D01*
X175021481Y-90759539D02*
X175164338Y-90807158D01*
X176164338Y-91664300D02*
X176116719Y-91711920D01*
X176116719Y-91711920D02*
X175973862Y-91759539D01*
X175973862Y-91759539D02*
X175878624Y-91759539D01*
X175878624Y-91759539D02*
X175735767Y-91711920D01*
X175735767Y-91711920D02*
X175640529Y-91616681D01*
X175640529Y-91616681D02*
X175592910Y-91521443D01*
X175592910Y-91521443D02*
X175545291Y-91330967D01*
X175545291Y-91330967D02*
X175545291Y-91188110D01*
X175545291Y-91188110D02*
X175592910Y-90997634D01*
X175592910Y-90997634D02*
X175640529Y-90902396D01*
X175640529Y-90902396D02*
X175735767Y-90807158D01*
X175735767Y-90807158D02*
X175878624Y-90759539D01*
X175878624Y-90759539D02*
X175973862Y-90759539D01*
X175973862Y-90759539D02*
X176116719Y-90807158D01*
X176116719Y-90807158D02*
X176164338Y-90854777D01*
X176545291Y-90854777D02*
X176592910Y-90807158D01*
X176592910Y-90807158D02*
X176688148Y-90759539D01*
X176688148Y-90759539D02*
X176926243Y-90759539D01*
X176926243Y-90759539D02*
X177021481Y-90807158D01*
X177021481Y-90807158D02*
X177069100Y-90854777D01*
X177069100Y-90854777D02*
X177116719Y-90950015D01*
X177116719Y-90950015D02*
X177116719Y-91045253D01*
X177116719Y-91045253D02*
X177069100Y-91188110D01*
X177069100Y-91188110D02*
X176497672Y-91759539D01*
X176497672Y-91759539D02*
X177116719Y-91759539D01*
X117514307Y-57183780D02*
X117657164Y-57231399D01*
X117657164Y-57231399D02*
X117895259Y-57231399D01*
X117895259Y-57231399D02*
X117990497Y-57183780D01*
X117990497Y-57183780D02*
X118038116Y-57136160D01*
X118038116Y-57136160D02*
X118085735Y-57040922D01*
X118085735Y-57040922D02*
X118085735Y-56945684D01*
X118085735Y-56945684D02*
X118038116Y-56850446D01*
X118038116Y-56850446D02*
X117990497Y-56802827D01*
X117990497Y-56802827D02*
X117895259Y-56755208D01*
X117895259Y-56755208D02*
X117704783Y-56707589D01*
X117704783Y-56707589D02*
X117609545Y-56659970D01*
X117609545Y-56659970D02*
X117561926Y-56612351D01*
X117561926Y-56612351D02*
X117514307Y-56517113D01*
X117514307Y-56517113D02*
X117514307Y-56421875D01*
X117514307Y-56421875D02*
X117561926Y-56326637D01*
X117561926Y-56326637D02*
X117609545Y-56279018D01*
X117609545Y-56279018D02*
X117704783Y-56231399D01*
X117704783Y-56231399D02*
X117942878Y-56231399D01*
X117942878Y-56231399D02*
X118085735Y-56279018D01*
X118466688Y-56945684D02*
X118942878Y-56945684D01*
X118371450Y-57231399D02*
X118704783Y-56231399D01*
X118704783Y-56231399D02*
X119038116Y-57231399D01*
X119847640Y-56231399D02*
X119371450Y-56231399D01*
X119371450Y-56231399D02*
X119323831Y-56707589D01*
X119323831Y-56707589D02*
X119371450Y-56659970D01*
X119371450Y-56659970D02*
X119466688Y-56612351D01*
X119466688Y-56612351D02*
X119704783Y-56612351D01*
X119704783Y-56612351D02*
X119800021Y-56659970D01*
X119800021Y-56659970D02*
X119847640Y-56707589D01*
X119847640Y-56707589D02*
X119895259Y-56802827D01*
X119895259Y-56802827D02*
X119895259Y-57040922D01*
X119895259Y-57040922D02*
X119847640Y-57136160D01*
X119847640Y-57136160D02*
X119800021Y-57183780D01*
X119800021Y-57183780D02*
X119704783Y-57231399D01*
X119704783Y-57231399D02*
X119466688Y-57231399D01*
X119466688Y-57231399D02*
X119371450Y-57183780D01*
X119371450Y-57183780D02*
X119323831Y-57136160D01*
X93069815Y-70484295D02*
X93117434Y-70341438D01*
X93117434Y-70341438D02*
X93117434Y-70103343D01*
X93117434Y-70103343D02*
X93069815Y-70008105D01*
X93069815Y-70008105D02*
X93022195Y-69960486D01*
X93022195Y-69960486D02*
X92926957Y-69912867D01*
X92926957Y-69912867D02*
X92831719Y-69912867D01*
X92831719Y-69912867D02*
X92736481Y-69960486D01*
X92736481Y-69960486D02*
X92688862Y-70008105D01*
X92688862Y-70008105D02*
X92641243Y-70103343D01*
X92641243Y-70103343D02*
X92593624Y-70293819D01*
X92593624Y-70293819D02*
X92546005Y-70389057D01*
X92546005Y-70389057D02*
X92498386Y-70436676D01*
X92498386Y-70436676D02*
X92403148Y-70484295D01*
X92403148Y-70484295D02*
X92307910Y-70484295D01*
X92307910Y-70484295D02*
X92212672Y-70436676D01*
X92212672Y-70436676D02*
X92165053Y-70389057D01*
X92165053Y-70389057D02*
X92117434Y-70293819D01*
X92117434Y-70293819D02*
X92117434Y-70055724D01*
X92117434Y-70055724D02*
X92165053Y-69912867D01*
X92831719Y-69531914D02*
X92831719Y-69055724D01*
X93117434Y-69627152D02*
X92117434Y-69293819D01*
X92117434Y-69293819D02*
X93117434Y-68960486D01*
X92117434Y-68198581D02*
X92117434Y-68389057D01*
X92117434Y-68389057D02*
X92165053Y-68484295D01*
X92165053Y-68484295D02*
X92212672Y-68531914D01*
X92212672Y-68531914D02*
X92355529Y-68627152D01*
X92355529Y-68627152D02*
X92546005Y-68674771D01*
X92546005Y-68674771D02*
X92926957Y-68674771D01*
X92926957Y-68674771D02*
X93022195Y-68627152D01*
X93022195Y-68627152D02*
X93069815Y-68579533D01*
X93069815Y-68579533D02*
X93117434Y-68484295D01*
X93117434Y-68484295D02*
X93117434Y-68293819D01*
X93117434Y-68293819D02*
X93069815Y-68198581D01*
X93069815Y-68198581D02*
X93022195Y-68150962D01*
X93022195Y-68150962D02*
X92926957Y-68103343D01*
X92926957Y-68103343D02*
X92688862Y-68103343D01*
X92688862Y-68103343D02*
X92593624Y-68150962D01*
X92593624Y-68150962D02*
X92546005Y-68198581D01*
X92546005Y-68198581D02*
X92498386Y-68293819D01*
X92498386Y-68293819D02*
X92498386Y-68484295D01*
X92498386Y-68484295D02*
X92546005Y-68579533D01*
X92546005Y-68579533D02*
X92593624Y-68627152D01*
X92593624Y-68627152D02*
X92688862Y-68674771D01*
X136492910Y-111952620D02*
X136635767Y-112000239D01*
X136635767Y-112000239D02*
X136873862Y-112000239D01*
X136873862Y-112000239D02*
X136969100Y-111952620D01*
X136969100Y-111952620D02*
X137016719Y-111905000D01*
X137016719Y-111905000D02*
X137064338Y-111809762D01*
X137064338Y-111809762D02*
X137064338Y-111714524D01*
X137064338Y-111714524D02*
X137016719Y-111619286D01*
X137016719Y-111619286D02*
X136969100Y-111571667D01*
X136969100Y-111571667D02*
X136873862Y-111524048D01*
X136873862Y-111524048D02*
X136683386Y-111476429D01*
X136683386Y-111476429D02*
X136588148Y-111428810D01*
X136588148Y-111428810D02*
X136540529Y-111381191D01*
X136540529Y-111381191D02*
X136492910Y-111285953D01*
X136492910Y-111285953D02*
X136492910Y-111190715D01*
X136492910Y-111190715D02*
X136540529Y-111095477D01*
X136540529Y-111095477D02*
X136588148Y-111047858D01*
X136588148Y-111047858D02*
X136683386Y-111000239D01*
X136683386Y-111000239D02*
X136921481Y-111000239D01*
X136921481Y-111000239D02*
X137064338Y-111047858D01*
X137492910Y-112000239D02*
X137492910Y-111000239D01*
X137492910Y-111000239D02*
X137731005Y-111000239D01*
X137731005Y-111000239D02*
X137873862Y-111047858D01*
X137873862Y-111047858D02*
X137969100Y-111143096D01*
X137969100Y-111143096D02*
X138016719Y-111238334D01*
X138016719Y-111238334D02*
X138064338Y-111428810D01*
X138064338Y-111428810D02*
X138064338Y-111571667D01*
X138064338Y-111571667D02*
X138016719Y-111762143D01*
X138016719Y-111762143D02*
X137969100Y-111857381D01*
X137969100Y-111857381D02*
X137873862Y-111952620D01*
X137873862Y-111952620D02*
X137731005Y-112000239D01*
X137731005Y-112000239D02*
X137492910Y-112000239D01*
X138921481Y-111333572D02*
X138921481Y-112000239D01*
X138683386Y-110952620D02*
X138445291Y-111666905D01*
X138445291Y-111666905D02*
X139064338Y-111666905D01*
X174592910Y-110761920D02*
X174735767Y-110809539D01*
X174735767Y-110809539D02*
X174973862Y-110809539D01*
X174973862Y-110809539D02*
X175069100Y-110761920D01*
X175069100Y-110761920D02*
X175116719Y-110714300D01*
X175116719Y-110714300D02*
X175164338Y-110619062D01*
X175164338Y-110619062D02*
X175164338Y-110523824D01*
X175164338Y-110523824D02*
X175116719Y-110428586D01*
X175116719Y-110428586D02*
X175069100Y-110380967D01*
X175069100Y-110380967D02*
X174973862Y-110333348D01*
X174973862Y-110333348D02*
X174783386Y-110285729D01*
X174783386Y-110285729D02*
X174688148Y-110238110D01*
X174688148Y-110238110D02*
X174640529Y-110190491D01*
X174640529Y-110190491D02*
X174592910Y-110095253D01*
X174592910Y-110095253D02*
X174592910Y-110000015D01*
X174592910Y-110000015D02*
X174640529Y-109904777D01*
X174640529Y-109904777D02*
X174688148Y-109857158D01*
X174688148Y-109857158D02*
X174783386Y-109809539D01*
X174783386Y-109809539D02*
X175021481Y-109809539D01*
X175021481Y-109809539D02*
X175164338Y-109857158D01*
X175592910Y-110809539D02*
X175592910Y-109809539D01*
X175592910Y-109809539D02*
X175831005Y-109809539D01*
X175831005Y-109809539D02*
X175973862Y-109857158D01*
X175973862Y-109857158D02*
X176069100Y-109952396D01*
X176069100Y-109952396D02*
X176116719Y-110047634D01*
X176116719Y-110047634D02*
X176164338Y-110238110D01*
X176164338Y-110238110D02*
X176164338Y-110380967D01*
X176164338Y-110380967D02*
X176116719Y-110571443D01*
X176116719Y-110571443D02*
X176069100Y-110666681D01*
X176069100Y-110666681D02*
X175973862Y-110761920D01*
X175973862Y-110761920D02*
X175831005Y-110809539D01*
X175831005Y-110809539D02*
X175592910Y-110809539D01*
X176545291Y-109904777D02*
X176592910Y-109857158D01*
X176592910Y-109857158D02*
X176688148Y-109809539D01*
X176688148Y-109809539D02*
X176926243Y-109809539D01*
X176926243Y-109809539D02*
X177021481Y-109857158D01*
X177021481Y-109857158D02*
X177069100Y-109904777D01*
X177069100Y-109904777D02*
X177116719Y-110000015D01*
X177116719Y-110000015D02*
X177116719Y-110095253D01*
X177116719Y-110095253D02*
X177069100Y-110238110D01*
X177069100Y-110238110D02*
X176497672Y-110809539D01*
X176497672Y-110809539D02*
X177116719Y-110809539D01*
X174664307Y-53611880D02*
X174807164Y-53659499D01*
X174807164Y-53659499D02*
X175045259Y-53659499D01*
X175045259Y-53659499D02*
X175140497Y-53611880D01*
X175140497Y-53611880D02*
X175188116Y-53564260D01*
X175188116Y-53564260D02*
X175235735Y-53469022D01*
X175235735Y-53469022D02*
X175235735Y-53373784D01*
X175235735Y-53373784D02*
X175188116Y-53278546D01*
X175188116Y-53278546D02*
X175140497Y-53230927D01*
X175140497Y-53230927D02*
X175045259Y-53183308D01*
X175045259Y-53183308D02*
X174854783Y-53135689D01*
X174854783Y-53135689D02*
X174759545Y-53088070D01*
X174759545Y-53088070D02*
X174711926Y-53040451D01*
X174711926Y-53040451D02*
X174664307Y-52945213D01*
X174664307Y-52945213D02*
X174664307Y-52849975D01*
X174664307Y-52849975D02*
X174711926Y-52754737D01*
X174711926Y-52754737D02*
X174759545Y-52707118D01*
X174759545Y-52707118D02*
X174854783Y-52659499D01*
X174854783Y-52659499D02*
X175092878Y-52659499D01*
X175092878Y-52659499D02*
X175235735Y-52707118D01*
X175616688Y-53373784D02*
X176092878Y-53373784D01*
X175521450Y-53659499D02*
X175854783Y-52659499D01*
X175854783Y-52659499D02*
X176188116Y-53659499D01*
X176473831Y-52754737D02*
X176521450Y-52707118D01*
X176521450Y-52707118D02*
X176616688Y-52659499D01*
X176616688Y-52659499D02*
X176854783Y-52659499D01*
X176854783Y-52659499D02*
X176950021Y-52707118D01*
X176950021Y-52707118D02*
X176997640Y-52754737D01*
X176997640Y-52754737D02*
X177045259Y-52849975D01*
X177045259Y-52849975D02*
X177045259Y-52945213D01*
X177045259Y-52945213D02*
X176997640Y-53088070D01*
X176997640Y-53088070D02*
X176426212Y-53659499D01*
X176426212Y-53659499D02*
X177045259Y-53659499D01*
X212812521Y-98942330D02*
X212872410Y-98804167D01*
X212872410Y-98804167D02*
X212893161Y-98566978D01*
X212893161Y-98566978D02*
X212854024Y-98467952D01*
X212854024Y-98467952D02*
X212810736Y-98416363D01*
X212810736Y-98416363D02*
X212720011Y-98360625D01*
X212720011Y-98360625D02*
X212625135Y-98352325D01*
X212625135Y-98352325D02*
X212526109Y-98391462D01*
X212526109Y-98391462D02*
X212474521Y-98434749D01*
X212474521Y-98434749D02*
X212418783Y-98525475D01*
X212418783Y-98525475D02*
X212354744Y-98711076D01*
X212354744Y-98711076D02*
X212299005Y-98801801D01*
X212299005Y-98801801D02*
X212247417Y-98845089D01*
X212247417Y-98845089D02*
X212148391Y-98884226D01*
X212148391Y-98884226D02*
X212053516Y-98875926D01*
X212053516Y-98875926D02*
X211962790Y-98820187D01*
X211962790Y-98820187D02*
X211919503Y-98768599D01*
X211919503Y-98768599D02*
X211880365Y-98669573D01*
X211880365Y-98669573D02*
X211901117Y-98432384D01*
X211901117Y-98432384D02*
X211961005Y-98294221D01*
X212902042Y-97372731D02*
X212945330Y-97424319D01*
X212945330Y-97424319D02*
X212980317Y-97570783D01*
X212980317Y-97570783D02*
X212972016Y-97665658D01*
X212972016Y-97665658D02*
X212912128Y-97803822D01*
X212912128Y-97803822D02*
X212808951Y-97890397D01*
X212808951Y-97890397D02*
X212709925Y-97929534D01*
X212709925Y-97929534D02*
X212516024Y-97960371D01*
X212516024Y-97960371D02*
X212373710Y-97947920D01*
X212373710Y-97947920D02*
X212188109Y-97883881D01*
X212188109Y-97883881D02*
X212097384Y-97828143D01*
X212097384Y-97828143D02*
X212010809Y-97724967D01*
X212010809Y-97724967D02*
X211975822Y-97578503D01*
X211975822Y-97578503D02*
X211984122Y-97483627D01*
X211984122Y-97483627D02*
X212044011Y-97345464D01*
X212044011Y-97345464D02*
X212095599Y-97302176D01*
X212054677Y-96677184D02*
X212062977Y-96582308D01*
X212062977Y-96582308D02*
X212118716Y-96491583D01*
X212118716Y-96491583D02*
X212170304Y-96448295D01*
X212170304Y-96448295D02*
X212269330Y-96409158D01*
X212269330Y-96409158D02*
X212463231Y-96378321D01*
X212463231Y-96378321D02*
X212700421Y-96399072D01*
X212700421Y-96399072D02*
X212886022Y-96463111D01*
X212886022Y-96463111D02*
X212976747Y-96518850D01*
X212976747Y-96518850D02*
X213020035Y-96570438D01*
X213020035Y-96570438D02*
X213059172Y-96669464D01*
X213059172Y-96669464D02*
X213050871Y-96764339D01*
X213050871Y-96764339D02*
X212995133Y-96855065D01*
X212995133Y-96855065D02*
X212943545Y-96898352D01*
X212943545Y-96898352D02*
X212844519Y-96937490D01*
X212844519Y-96937490D02*
X212650617Y-96968326D01*
X212650617Y-96968326D02*
X212413428Y-96947575D01*
X212413428Y-96947575D02*
X212227827Y-96883536D01*
X212227827Y-96883536D02*
X212137102Y-96827798D01*
X212137102Y-96827798D02*
X212093814Y-96776210D01*
X212093814Y-96776210D02*
X212054677Y-96677184D01*
X93069815Y-94368224D02*
X93117434Y-94225367D01*
X93117434Y-94225367D02*
X93117434Y-93987272D01*
X93117434Y-93987272D02*
X93069815Y-93892034D01*
X93069815Y-93892034D02*
X93022195Y-93844415D01*
X93022195Y-93844415D02*
X92926957Y-93796796D01*
X92926957Y-93796796D02*
X92831719Y-93796796D01*
X92831719Y-93796796D02*
X92736481Y-93844415D01*
X92736481Y-93844415D02*
X92688862Y-93892034D01*
X92688862Y-93892034D02*
X92641243Y-93987272D01*
X92641243Y-93987272D02*
X92593624Y-94177748D01*
X92593624Y-94177748D02*
X92546005Y-94272986D01*
X92546005Y-94272986D02*
X92498386Y-94320605D01*
X92498386Y-94320605D02*
X92403148Y-94368224D01*
X92403148Y-94368224D02*
X92307910Y-94368224D01*
X92307910Y-94368224D02*
X92212672Y-94320605D01*
X92212672Y-94320605D02*
X92165053Y-94272986D01*
X92165053Y-94272986D02*
X92117434Y-94177748D01*
X92117434Y-94177748D02*
X92117434Y-93939653D01*
X92117434Y-93939653D02*
X92165053Y-93796796D01*
X92593624Y-93034891D02*
X92641243Y-92892034D01*
X92641243Y-92892034D02*
X92688862Y-92844415D01*
X92688862Y-92844415D02*
X92784100Y-92796796D01*
X92784100Y-92796796D02*
X92926957Y-92796796D01*
X92926957Y-92796796D02*
X93022195Y-92844415D01*
X93022195Y-92844415D02*
X93069815Y-92892034D01*
X93069815Y-92892034D02*
X93117434Y-92987272D01*
X93117434Y-92987272D02*
X93117434Y-93368224D01*
X93117434Y-93368224D02*
X92117434Y-93368224D01*
X92117434Y-93368224D02*
X92117434Y-93034891D01*
X92117434Y-93034891D02*
X92165053Y-92939653D01*
X92165053Y-92939653D02*
X92212672Y-92892034D01*
X92212672Y-92892034D02*
X92307910Y-92844415D01*
X92307910Y-92844415D02*
X92403148Y-92844415D01*
X92403148Y-92844415D02*
X92498386Y-92892034D01*
X92498386Y-92892034D02*
X92546005Y-92939653D01*
X92546005Y-92939653D02*
X92593624Y-93034891D01*
X92593624Y-93034891D02*
X92593624Y-93368224D01*
X92117434Y-91939653D02*
X92117434Y-92130129D01*
X92117434Y-92130129D02*
X92165053Y-92225367D01*
X92165053Y-92225367D02*
X92212672Y-92272986D01*
X92212672Y-92272986D02*
X92355529Y-92368224D01*
X92355529Y-92368224D02*
X92546005Y-92415843D01*
X92546005Y-92415843D02*
X92926957Y-92415843D01*
X92926957Y-92415843D02*
X93022195Y-92368224D01*
X93022195Y-92368224D02*
X93069815Y-92320605D01*
X93069815Y-92320605D02*
X93117434Y-92225367D01*
X93117434Y-92225367D02*
X93117434Y-92034891D01*
X93117434Y-92034891D02*
X93069815Y-91939653D01*
X93069815Y-91939653D02*
X93022195Y-91892034D01*
X93022195Y-91892034D02*
X92926957Y-91844415D01*
X92926957Y-91844415D02*
X92688862Y-91844415D01*
X92688862Y-91844415D02*
X92593624Y-91892034D01*
X92593624Y-91892034D02*
X92546005Y-91939653D01*
X92546005Y-91939653D02*
X92498386Y-92034891D01*
X92498386Y-92034891D02*
X92498386Y-92225367D01*
X92498386Y-92225367D02*
X92546005Y-92320605D01*
X92546005Y-92320605D02*
X92593624Y-92368224D01*
X92593624Y-92368224D02*
X92688862Y-92415843D01*
X153875739Y-140977428D02*
X153975648Y-141090096D01*
X153975648Y-141090096D02*
X154181844Y-141209144D01*
X154181844Y-141209144D02*
X154288132Y-141215523D01*
X154288132Y-141215523D02*
X154353181Y-141198094D01*
X154353181Y-141198094D02*
X154442039Y-141139425D01*
X154442039Y-141139425D02*
X154489658Y-141056946D01*
X154489658Y-141056946D02*
X154496038Y-140950658D01*
X154496038Y-140950658D02*
X154478608Y-140885609D01*
X154478608Y-140885609D02*
X154419939Y-140796751D01*
X154419939Y-140796751D02*
X154278792Y-140660273D01*
X154278792Y-140660273D02*
X154220123Y-140571415D01*
X154220123Y-140571415D02*
X154202693Y-140506366D01*
X154202693Y-140506366D02*
X154209072Y-140400078D01*
X154209072Y-140400078D02*
X154256692Y-140317599D01*
X154256692Y-140317599D02*
X154345550Y-140258930D01*
X154345550Y-140258930D02*
X154410599Y-140241500D01*
X154410599Y-140241500D02*
X154516887Y-140247880D01*
X154516887Y-140247880D02*
X154723083Y-140366928D01*
X154723083Y-140366928D02*
X154822992Y-140479596D01*
X154979860Y-141065035D02*
X155268535Y-141231702D01*
X155130348Y-141756763D02*
X154717955Y-141518667D01*
X154717955Y-141518667D02*
X155217955Y-140652642D01*
X155217955Y-140652642D02*
X155630348Y-140890737D01*
X155955134Y-142232953D02*
X155460263Y-141947239D01*
X155707698Y-142090096D02*
X156207698Y-141224071D01*
X156207698Y-141224071D02*
X156053791Y-141300170D01*
X156053791Y-141300170D02*
X155923694Y-141335029D01*
X155923694Y-141335029D02*
X155817405Y-141328649D01*
X203215529Y-144099520D02*
X203358386Y-144147139D01*
X203358386Y-144147139D02*
X203596481Y-144147139D01*
X203596481Y-144147139D02*
X203691719Y-144099520D01*
X203691719Y-144099520D02*
X203739338Y-144051900D01*
X203739338Y-144051900D02*
X203786957Y-143956662D01*
X203786957Y-143956662D02*
X203786957Y-143861424D01*
X203786957Y-143861424D02*
X203739338Y-143766186D01*
X203739338Y-143766186D02*
X203691719Y-143718567D01*
X203691719Y-143718567D02*
X203596481Y-143670948D01*
X203596481Y-143670948D02*
X203406005Y-143623329D01*
X203406005Y-143623329D02*
X203310767Y-143575710D01*
X203310767Y-143575710D02*
X203263148Y-143528091D01*
X203263148Y-143528091D02*
X203215529Y-143432853D01*
X203215529Y-143432853D02*
X203215529Y-143337615D01*
X203215529Y-143337615D02*
X203263148Y-143242377D01*
X203263148Y-143242377D02*
X203310767Y-143194758D01*
X203310767Y-143194758D02*
X203406005Y-143147139D01*
X203406005Y-143147139D02*
X203644100Y-143147139D01*
X203644100Y-143147139D02*
X203786957Y-143194758D01*
X204215529Y-143623329D02*
X204548862Y-143623329D01*
X204691719Y-144147139D02*
X204215529Y-144147139D01*
X204215529Y-144147139D02*
X204215529Y-143147139D01*
X204215529Y-143147139D02*
X204691719Y-143147139D01*
X205310767Y-143147139D02*
X205406005Y-143147139D01*
X205406005Y-143147139D02*
X205501243Y-143194758D01*
X205501243Y-143194758D02*
X205548862Y-143242377D01*
X205548862Y-143242377D02*
X205596481Y-143337615D01*
X205596481Y-143337615D02*
X205644100Y-143528091D01*
X205644100Y-143528091D02*
X205644100Y-143766186D01*
X205644100Y-143766186D02*
X205596481Y-143956662D01*
X205596481Y-143956662D02*
X205548862Y-144051900D01*
X205548862Y-144051900D02*
X205501243Y-144099520D01*
X205501243Y-144099520D02*
X205406005Y-144147139D01*
X205406005Y-144147139D02*
X205310767Y-144147139D01*
X205310767Y-144147139D02*
X205215529Y-144099520D01*
X205215529Y-144099520D02*
X205167910Y-144051900D01*
X205167910Y-144051900D02*
X205120291Y-143956662D01*
X205120291Y-143956662D02*
X205072672Y-143766186D01*
X205072672Y-143766186D02*
X205072672Y-143528091D01*
X205072672Y-143528091D02*
X205120291Y-143337615D01*
X205120291Y-143337615D02*
X205167910Y-143242377D01*
X205167910Y-143242377D02*
X205215529Y-143194758D01*
X205215529Y-143194758D02*
X205310767Y-143147139D01*
X193642910Y-84568220D02*
X193785767Y-84615839D01*
X193785767Y-84615839D02*
X194023862Y-84615839D01*
X194023862Y-84615839D02*
X194119100Y-84568220D01*
X194119100Y-84568220D02*
X194166719Y-84520600D01*
X194166719Y-84520600D02*
X194214338Y-84425362D01*
X194214338Y-84425362D02*
X194214338Y-84330124D01*
X194214338Y-84330124D02*
X194166719Y-84234886D01*
X194166719Y-84234886D02*
X194119100Y-84187267D01*
X194119100Y-84187267D02*
X194023862Y-84139648D01*
X194023862Y-84139648D02*
X193833386Y-84092029D01*
X193833386Y-84092029D02*
X193738148Y-84044410D01*
X193738148Y-84044410D02*
X193690529Y-83996791D01*
X193690529Y-83996791D02*
X193642910Y-83901553D01*
X193642910Y-83901553D02*
X193642910Y-83806315D01*
X193642910Y-83806315D02*
X193690529Y-83711077D01*
X193690529Y-83711077D02*
X193738148Y-83663458D01*
X193738148Y-83663458D02*
X193833386Y-83615839D01*
X193833386Y-83615839D02*
X194071481Y-83615839D01*
X194071481Y-83615839D02*
X194214338Y-83663458D01*
X194976243Y-84092029D02*
X195119100Y-84139648D01*
X195119100Y-84139648D02*
X195166719Y-84187267D01*
X195166719Y-84187267D02*
X195214338Y-84282505D01*
X195214338Y-84282505D02*
X195214338Y-84425362D01*
X195214338Y-84425362D02*
X195166719Y-84520600D01*
X195166719Y-84520600D02*
X195119100Y-84568220D01*
X195119100Y-84568220D02*
X195023862Y-84615839D01*
X195023862Y-84615839D02*
X194642910Y-84615839D01*
X194642910Y-84615839D02*
X194642910Y-83615839D01*
X194642910Y-83615839D02*
X194976243Y-83615839D01*
X194976243Y-83615839D02*
X195071481Y-83663458D01*
X195071481Y-83663458D02*
X195119100Y-83711077D01*
X195119100Y-83711077D02*
X195166719Y-83806315D01*
X195166719Y-83806315D02*
X195166719Y-83901553D01*
X195166719Y-83901553D02*
X195119100Y-83996791D01*
X195119100Y-83996791D02*
X195071481Y-84044410D01*
X195071481Y-84044410D02*
X194976243Y-84092029D01*
X194976243Y-84092029D02*
X194642910Y-84092029D01*
X196166719Y-84615839D02*
X195595291Y-84615839D01*
X195881005Y-84615839D02*
X195881005Y-83615839D01*
X195881005Y-83615839D02*
X195785767Y-83758696D01*
X195785767Y-83758696D02*
X195690529Y-83853934D01*
X195690529Y-83853934D02*
X195595291Y-83901553D01*
X155542910Y-66708820D02*
X155685767Y-66756439D01*
X155685767Y-66756439D02*
X155923862Y-66756439D01*
X155923862Y-66756439D02*
X156019100Y-66708820D01*
X156019100Y-66708820D02*
X156066719Y-66661200D01*
X156066719Y-66661200D02*
X156114338Y-66565962D01*
X156114338Y-66565962D02*
X156114338Y-66470724D01*
X156114338Y-66470724D02*
X156066719Y-66375486D01*
X156066719Y-66375486D02*
X156019100Y-66327867D01*
X156019100Y-66327867D02*
X155923862Y-66280248D01*
X155923862Y-66280248D02*
X155733386Y-66232629D01*
X155733386Y-66232629D02*
X155638148Y-66185010D01*
X155638148Y-66185010D02*
X155590529Y-66137391D01*
X155590529Y-66137391D02*
X155542910Y-66042153D01*
X155542910Y-66042153D02*
X155542910Y-65946915D01*
X155542910Y-65946915D02*
X155590529Y-65851677D01*
X155590529Y-65851677D02*
X155638148Y-65804058D01*
X155638148Y-65804058D02*
X155733386Y-65756439D01*
X155733386Y-65756439D02*
X155971481Y-65756439D01*
X155971481Y-65756439D02*
X156114338Y-65804058D01*
X156876243Y-66232629D02*
X157019100Y-66280248D01*
X157019100Y-66280248D02*
X157066719Y-66327867D01*
X157066719Y-66327867D02*
X157114338Y-66423105D01*
X157114338Y-66423105D02*
X157114338Y-66565962D01*
X157114338Y-66565962D02*
X157066719Y-66661200D01*
X157066719Y-66661200D02*
X157019100Y-66708820D01*
X157019100Y-66708820D02*
X156923862Y-66756439D01*
X156923862Y-66756439D02*
X156542910Y-66756439D01*
X156542910Y-66756439D02*
X156542910Y-65756439D01*
X156542910Y-65756439D02*
X156876243Y-65756439D01*
X156876243Y-65756439D02*
X156971481Y-65804058D01*
X156971481Y-65804058D02*
X157019100Y-65851677D01*
X157019100Y-65851677D02*
X157066719Y-65946915D01*
X157066719Y-65946915D02*
X157066719Y-66042153D01*
X157066719Y-66042153D02*
X157019100Y-66137391D01*
X157019100Y-66137391D02*
X156971481Y-66185010D01*
X156971481Y-66185010D02*
X156876243Y-66232629D01*
X156876243Y-66232629D02*
X156542910Y-66232629D01*
X157447672Y-65756439D02*
X158066719Y-65756439D01*
X158066719Y-65756439D02*
X157733386Y-66137391D01*
X157733386Y-66137391D02*
X157876243Y-66137391D01*
X157876243Y-66137391D02*
X157971481Y-66185010D01*
X157971481Y-66185010D02*
X158019100Y-66232629D01*
X158019100Y-66232629D02*
X158066719Y-66327867D01*
X158066719Y-66327867D02*
X158066719Y-66565962D01*
X158066719Y-66565962D02*
X158019100Y-66661200D01*
X158019100Y-66661200D02*
X157971481Y-66708820D01*
X157971481Y-66708820D02*
X157876243Y-66756439D01*
X157876243Y-66756439D02*
X157590529Y-66756439D01*
X157590529Y-66756439D02*
X157495291Y-66708820D01*
X157495291Y-66708820D02*
X157447672Y-66661200D01*
X136564307Y-54802580D02*
X136707164Y-54850199D01*
X136707164Y-54850199D02*
X136945259Y-54850199D01*
X136945259Y-54850199D02*
X137040497Y-54802580D01*
X137040497Y-54802580D02*
X137088116Y-54754960D01*
X137088116Y-54754960D02*
X137135735Y-54659722D01*
X137135735Y-54659722D02*
X137135735Y-54564484D01*
X137135735Y-54564484D02*
X137088116Y-54469246D01*
X137088116Y-54469246D02*
X137040497Y-54421627D01*
X137040497Y-54421627D02*
X136945259Y-54374008D01*
X136945259Y-54374008D02*
X136754783Y-54326389D01*
X136754783Y-54326389D02*
X136659545Y-54278770D01*
X136659545Y-54278770D02*
X136611926Y-54231151D01*
X136611926Y-54231151D02*
X136564307Y-54135913D01*
X136564307Y-54135913D02*
X136564307Y-54040675D01*
X136564307Y-54040675D02*
X136611926Y-53945437D01*
X136611926Y-53945437D02*
X136659545Y-53897818D01*
X136659545Y-53897818D02*
X136754783Y-53850199D01*
X136754783Y-53850199D02*
X136992878Y-53850199D01*
X136992878Y-53850199D02*
X137135735Y-53897818D01*
X137516688Y-54564484D02*
X137992878Y-54564484D01*
X137421450Y-54850199D02*
X137754783Y-53850199D01*
X137754783Y-53850199D02*
X138088116Y-54850199D01*
X138850021Y-54183532D02*
X138850021Y-54850199D01*
X138611926Y-53802580D02*
X138373831Y-54516865D01*
X138373831Y-54516865D02*
X138992878Y-54516865D01*
X117442910Y-76233820D02*
X117585767Y-76281439D01*
X117585767Y-76281439D02*
X117823862Y-76281439D01*
X117823862Y-76281439D02*
X117919100Y-76233820D01*
X117919100Y-76233820D02*
X117966719Y-76186200D01*
X117966719Y-76186200D02*
X118014338Y-76090962D01*
X118014338Y-76090962D02*
X118014338Y-75995724D01*
X118014338Y-75995724D02*
X117966719Y-75900486D01*
X117966719Y-75900486D02*
X117919100Y-75852867D01*
X117919100Y-75852867D02*
X117823862Y-75805248D01*
X117823862Y-75805248D02*
X117633386Y-75757629D01*
X117633386Y-75757629D02*
X117538148Y-75710010D01*
X117538148Y-75710010D02*
X117490529Y-75662391D01*
X117490529Y-75662391D02*
X117442910Y-75567153D01*
X117442910Y-75567153D02*
X117442910Y-75471915D01*
X117442910Y-75471915D02*
X117490529Y-75376677D01*
X117490529Y-75376677D02*
X117538148Y-75329058D01*
X117538148Y-75329058D02*
X117633386Y-75281439D01*
X117633386Y-75281439D02*
X117871481Y-75281439D01*
X117871481Y-75281439D02*
X118014338Y-75329058D01*
X118776243Y-75757629D02*
X118919100Y-75805248D01*
X118919100Y-75805248D02*
X118966719Y-75852867D01*
X118966719Y-75852867D02*
X119014338Y-75948105D01*
X119014338Y-75948105D02*
X119014338Y-76090962D01*
X119014338Y-76090962D02*
X118966719Y-76186200D01*
X118966719Y-76186200D02*
X118919100Y-76233820D01*
X118919100Y-76233820D02*
X118823862Y-76281439D01*
X118823862Y-76281439D02*
X118442910Y-76281439D01*
X118442910Y-76281439D02*
X118442910Y-75281439D01*
X118442910Y-75281439D02*
X118776243Y-75281439D01*
X118776243Y-75281439D02*
X118871481Y-75329058D01*
X118871481Y-75329058D02*
X118919100Y-75376677D01*
X118919100Y-75376677D02*
X118966719Y-75471915D01*
X118966719Y-75471915D02*
X118966719Y-75567153D01*
X118966719Y-75567153D02*
X118919100Y-75662391D01*
X118919100Y-75662391D02*
X118871481Y-75710010D01*
X118871481Y-75710010D02*
X118776243Y-75757629D01*
X118776243Y-75757629D02*
X118442910Y-75757629D01*
X119919100Y-75281439D02*
X119442910Y-75281439D01*
X119442910Y-75281439D02*
X119395291Y-75757629D01*
X119395291Y-75757629D02*
X119442910Y-75710010D01*
X119442910Y-75710010D02*
X119538148Y-75662391D01*
X119538148Y-75662391D02*
X119776243Y-75662391D01*
X119776243Y-75662391D02*
X119871481Y-75710010D01*
X119871481Y-75710010D02*
X119919100Y-75757629D01*
X119919100Y-75757629D02*
X119966719Y-75852867D01*
X119966719Y-75852867D02*
X119966719Y-76090962D01*
X119966719Y-76090962D02*
X119919100Y-76186200D01*
X119919100Y-76186200D02*
X119871481Y-76233820D01*
X119871481Y-76233820D02*
X119776243Y-76281439D01*
X119776243Y-76281439D02*
X119538148Y-76281439D01*
X119538148Y-76281439D02*
X119442910Y-76233820D01*
X119442910Y-76233820D02*
X119395291Y-76186200D01*
X92136537Y-135081562D02*
X96033651Y-132831562D01*
X92436537Y-135601178D02*
X92136537Y-135081562D01*
X94486537Y-139151882D02*
X94236537Y-138718869D01*
X98033651Y-136295664D02*
X98383651Y-136901882D01*
X98383651Y-136901882D02*
X94486537Y-139151882D01*
X96216664Y-132148550D02*
X95716664Y-131282524D01*
X95899677Y-130599512D02*
X95716664Y-131282524D01*
X98497753Y-129099512D02*
X95899677Y-130599512D01*
X100747753Y-132996626D02*
X98582690Y-134246626D01*
X99180766Y-129282524D02*
X98497753Y-129099512D01*
X100930766Y-132313613D02*
X100747753Y-132996626D01*
X98582690Y-134246625D02*
G75*
G03*
X98033652Y-136295664I750001J-1299039D01*
G01*
X96033651Y-132831561D02*
G75*
G03*
X96216663Y-132148550I-250001J433012D01*
G01*
X203294418Y-89705917D02*
X203686619Y-85223041D01*
X203892134Y-89758211D02*
X203294418Y-89705917D01*
X207976533Y-90115549D02*
X207478435Y-90071971D01*
X207671397Y-85571664D02*
X208368734Y-85632673D01*
X208368734Y-85632673D02*
X207976533Y-90115549D01*
X203232099Y-84681366D02*
X202235904Y-84594210D01*
X201781385Y-84052535D02*
X202235904Y-84594210D01*
X202042852Y-81063951D02*
X201781385Y-84052535D01*
X206525728Y-81456152D02*
X206307839Y-83946638D01*
X202584527Y-80609431D02*
X202042852Y-81063951D01*
X206071209Y-80914476D02*
X206525728Y-81456152D01*
X206307839Y-83946638D02*
G75*
G03*
X207671397Y-85571664I1494293J-130733D01*
G01*
X203686617Y-85223041D02*
G75*
G03*
X203232099Y-84681367I-498097J43577D01*
G01*
D11*
X166793572Y-122043582D02*
X163805784Y-120318582D01*
X166793572Y-122043582D02*
X168482322Y-123018582D01*
X161733572Y-130807760D02*
X160044822Y-129832760D01*
X161733572Y-130807760D02*
X163422322Y-131782760D01*
D10*
X163854815Y-64046920D02*
X168354815Y-64046920D01*
X163854815Y-64646920D02*
X163854815Y-64046920D01*
X163854815Y-68746920D02*
X163854815Y-68246920D01*
X168354815Y-68046920D02*
X168354815Y-68746920D01*
X168354815Y-68746920D02*
X163854815Y-68746920D01*
X168854815Y-63546920D02*
X168854815Y-62546920D01*
X169354815Y-62046920D02*
X168854815Y-62546920D01*
X172354815Y-62046920D02*
X169354815Y-62046920D01*
X172354815Y-66546920D02*
X169854815Y-66546920D01*
X172854815Y-62546920D02*
X172354815Y-62046920D01*
X172854815Y-66046920D02*
X172354815Y-66546920D01*
X169854815Y-66546920D02*
G75*
G03*
X168354815Y-68046920I1J-1500001D01*
G01*
X168354815Y-64046920D02*
G75*
G03*
X168854815Y-63546920I-1J500001D01*
G01*
X182904815Y-95003220D02*
X187404815Y-95003220D01*
X182904815Y-95603220D02*
X182904815Y-95003220D01*
X182904815Y-99703220D02*
X182904815Y-99203220D01*
X187404815Y-99003220D02*
X187404815Y-99703220D01*
X187404815Y-99703220D02*
X182904815Y-99703220D01*
X187904815Y-94503220D02*
X187904815Y-93503220D01*
X188404815Y-93003220D02*
X187904815Y-93503220D01*
X191404815Y-93003220D02*
X188404815Y-93003220D01*
X191404815Y-97503220D02*
X188904815Y-97503220D01*
X191904815Y-93503220D02*
X191404815Y-93003220D01*
X191904815Y-97003220D02*
X191404815Y-97503220D01*
X188904815Y-97503220D02*
G75*
G03*
X187404815Y-99003220I1J-1500001D01*
G01*
X187404815Y-95003220D02*
G75*
G03*
X187904815Y-94503220I-1J500001D01*
G01*
X125754815Y-65237620D02*
X130254815Y-65237620D01*
X125754815Y-65837620D02*
X125754815Y-65237620D01*
X125754815Y-69937620D02*
X125754815Y-69437620D01*
X130254815Y-69237620D02*
X130254815Y-69937620D01*
X130254815Y-69937620D02*
X125754815Y-69937620D01*
X130754815Y-64737620D02*
X130754815Y-63737620D01*
X131254815Y-63237620D02*
X130754815Y-63737620D01*
X134254815Y-63237620D02*
X131254815Y-63237620D01*
X134254815Y-67737620D02*
X131754815Y-67737620D01*
X134754815Y-63737620D02*
X134254815Y-63237620D01*
X134754815Y-67237620D02*
X134254815Y-67737620D01*
X131754815Y-67737620D02*
G75*
G03*
X130254815Y-69237620I1J-1500001D01*
G01*
X130254815Y-65237620D02*
G75*
G03*
X130754815Y-64737620I-1J500001D01*
G01*
X182904815Y-114053220D02*
X187404815Y-114053220D01*
X182904815Y-114653220D02*
X182904815Y-114053220D01*
X182904815Y-118753220D02*
X182904815Y-118253220D01*
X187404815Y-118053220D02*
X187404815Y-118753220D01*
X187404815Y-118753220D02*
X182904815Y-118753220D01*
X187904815Y-113553220D02*
X187904815Y-112553220D01*
X188404815Y-112053220D02*
X187904815Y-112553220D01*
X191404815Y-112053220D02*
X188404815Y-112053220D01*
X191404815Y-116553220D02*
X188904815Y-116553220D01*
X191904815Y-112553220D02*
X191404815Y-112053220D01*
X191904815Y-116053220D02*
X191404815Y-116553220D01*
X188904815Y-116553220D02*
G75*
G03*
X187404815Y-118053220I1J-1500001D01*
G01*
X187404815Y-114053220D02*
G75*
G03*
X187904815Y-113553220I-1J500001D01*
G01*
X144804783Y-39043780D02*
X149304783Y-39043780D01*
X144804783Y-39643780D02*
X144804783Y-39043780D01*
X144804783Y-43743780D02*
X144804783Y-43243780D01*
X149304783Y-43043780D02*
X149304783Y-43743780D01*
X149304783Y-43743780D02*
X144804783Y-43743780D01*
X149804783Y-38543780D02*
X149804783Y-37543780D01*
X150304783Y-37043780D02*
X149804783Y-37543780D01*
X153304783Y-37043780D02*
X150304783Y-37043780D01*
X153304783Y-41543780D02*
X150804783Y-41543780D01*
X153804783Y-37543780D02*
X153304783Y-37043780D01*
X153804783Y-41043780D02*
X153304783Y-41543780D01*
X150804783Y-41543780D02*
G75*
G03*
X149304783Y-43043780I1J-1500001D01*
G01*
X149304783Y-39043780D02*
G75*
G03*
X149804783Y-38543780I-1J500001D01*
G01*
X202754815Y-129634420D02*
X202754815Y-125134420D01*
X203354815Y-129634420D02*
X202754815Y-129634420D01*
X207454815Y-129634420D02*
X206954815Y-129634420D01*
X206754815Y-125134420D02*
X207454815Y-125134420D01*
X207454815Y-125134420D02*
X207454815Y-129634420D01*
X202254815Y-124634420D02*
X201254815Y-124634420D01*
X200754815Y-124134420D02*
X201254815Y-124634420D01*
X200754815Y-121134420D02*
X200754815Y-124134420D01*
X205254815Y-121134420D02*
X205254815Y-123634420D01*
X201254815Y-120634420D02*
X200754815Y-121134420D01*
X204754815Y-120634420D02*
X205254815Y-121134420D01*
X205254815Y-123634420D02*
G75*
G03*
X206754815Y-125134420I1500001J1D01*
G01*
X202754815Y-125134420D02*
G75*
G03*
X202254815Y-124634420I-500001J-1D01*
G01*
X202754815Y-70103220D02*
X202754815Y-65603220D01*
X203354815Y-70103220D02*
X202754815Y-70103220D01*
X207454815Y-70103220D02*
X206954815Y-70103220D01*
X206754815Y-65603220D02*
X207454815Y-65603220D01*
X207454815Y-65603220D02*
X207454815Y-70103220D01*
X202254815Y-65103220D02*
X201254815Y-65103220D01*
X200754815Y-64603220D02*
X201254815Y-65103220D01*
X200754815Y-61603220D02*
X200754815Y-64603220D01*
X205254815Y-61603220D02*
X205254815Y-64103220D01*
X201254815Y-61103220D02*
X200754815Y-61603220D01*
X204754815Y-61103220D02*
X205254815Y-61603220D01*
X205254815Y-64103220D02*
G75*
G03*
X206754815Y-65603220I1500001J1D01*
G01*
X202754815Y-65603220D02*
G75*
G03*
X202254815Y-65103220I-500001J-1D01*
G01*
X119801615Y-124768920D02*
X124301615Y-124768920D01*
X119801615Y-125368920D02*
X119801615Y-124768920D01*
X119801615Y-129468920D02*
X119801615Y-128968920D01*
X124301615Y-128768920D02*
X124301615Y-129468920D01*
X124301615Y-129468920D02*
X119801615Y-129468920D01*
X124801615Y-124268920D02*
X124801615Y-123268920D01*
X125301615Y-122768920D02*
X124801615Y-123268920D01*
X128301615Y-122768920D02*
X125301615Y-122768920D01*
X128301615Y-127268920D02*
X125801615Y-127268920D01*
X128801615Y-123268920D02*
X128301615Y-122768920D01*
X128801615Y-126768920D02*
X128301615Y-127268920D01*
X125801615Y-127268920D02*
G75*
G03*
X124301615Y-128768920I1J-1500001D01*
G01*
X124301615Y-124768920D02*
G75*
G03*
X124801615Y-124268920I-1J500001D01*
G01*
X100854715Y-104918920D02*
X100854715Y-109418920D01*
X100254715Y-104918920D02*
X100854715Y-104918920D01*
X96154715Y-104918920D02*
X96654715Y-104918920D01*
X96854715Y-109418920D02*
X96154715Y-109418920D01*
X96154715Y-109418920D02*
X96154715Y-104918920D01*
X101354715Y-109918920D02*
X102354715Y-109918920D01*
X102854715Y-110418920D02*
X102354715Y-109918920D01*
X102854715Y-113418920D02*
X102854715Y-110418920D01*
X98354715Y-113418920D02*
X98354715Y-110918920D01*
X102354715Y-113918920D02*
X102854715Y-113418920D01*
X98854715Y-113918920D02*
X98354715Y-113418920D01*
X98354715Y-110918920D02*
G75*
G03*
X96854715Y-109418920I-1500001J-1D01*
G01*
X100854715Y-109418920D02*
G75*
G03*
X101354715Y-109918920I500001J1D01*
G01*
X74605305Y-150584505D02*
X77787286Y-147402525D01*
X75029570Y-151008769D02*
X74605305Y-150584505D01*
X77928707Y-153907907D02*
X77575154Y-153554354D01*
X80615713Y-150230952D02*
X81110688Y-150725927D01*
X81110688Y-150725927D02*
X77928707Y-153907907D01*
X77787286Y-146695418D02*
X77080179Y-145988311D01*
X77080179Y-145281205D02*
X77080179Y-145988311D01*
X79201500Y-143159884D02*
X77080179Y-145281205D01*
X82383480Y-146341865D02*
X80615713Y-148109632D01*
X79908606Y-143159884D02*
X79201500Y-143159884D01*
X82383480Y-145634758D02*
X82383480Y-146341865D01*
X80615713Y-148109632D02*
G75*
G03*
X80615713Y-150230952I1060662J-1060660D01*
G01*
X77787286Y-147402525D02*
G75*
G03*
X77787286Y-146695418I-353555J353553D01*
G01*
X182904783Y-56903180D02*
X187404783Y-56903180D01*
X182904783Y-57503180D02*
X182904783Y-56903180D01*
X182904783Y-61603180D02*
X182904783Y-61103180D01*
X187404783Y-60903180D02*
X187404783Y-61603180D01*
X187404783Y-61603180D02*
X182904783Y-61603180D01*
X187904783Y-56403180D02*
X187904783Y-55403180D01*
X188404783Y-54903180D02*
X187904783Y-55403180D01*
X191404783Y-54903180D02*
X188404783Y-54903180D01*
X191404783Y-59403180D02*
X188904783Y-59403180D01*
X191904783Y-55403180D02*
X191404783Y-54903180D01*
X191904783Y-58903180D02*
X191404783Y-59403180D01*
X188904783Y-59403180D02*
G75*
G03*
X187404783Y-60903180I1J-1500001D01*
G01*
X187404783Y-56903180D02*
G75*
G03*
X187904783Y-56403180I-1J500001D01*
G01*
X61377457Y-170245198D02*
X63627457Y-166348084D01*
X61897073Y-170545198D02*
X61377457Y-170245198D01*
X65447777Y-172595198D02*
X65014764Y-172345198D01*
X67091559Y-168348084D02*
X67697777Y-168698084D01*
X67697777Y-168698084D02*
X65447777Y-172595198D01*
X63444445Y-165665071D02*
X62578419Y-165165071D01*
X62395407Y-164482058D02*
X62578419Y-165165071D01*
X63895407Y-161883982D02*
X62395407Y-164482058D01*
X67792521Y-164133982D02*
X66542521Y-166299045D01*
X64578419Y-161700969D02*
X63895407Y-161883982D01*
X67609508Y-163450969D02*
X67792521Y-164133982D01*
X66542521Y-166299045D02*
G75*
G03*
X67091559Y-168348084I1299041J-750000D01*
G01*
X63627457Y-166348084D02*
G75*
G03*
X63444445Y-165665071I-433014J250000D01*
G01*
D11*
X215841428Y-39016581D02*
X208021428Y-39016581D01*
X214241428Y-39016581D02*
X214241428Y-39936581D01*
X208021428Y-39016581D02*
X208021428Y-45136581D01*
X211881428Y-39776581D02*
X210281428Y-39776581D01*
X210281428Y-39776581D02*
X210281428Y-40776581D01*
X215841428Y-39936581D02*
X215841428Y-39016581D01*
X214241428Y-39936581D02*
X215841428Y-39936581D01*
X214241428Y-40216581D02*
X214241428Y-39936581D01*
X214241428Y-40216581D02*
X215456428Y-40216581D01*
X210281428Y-40276581D02*
X208021428Y-40276581D01*
X211881428Y-40776581D02*
X211881428Y-39776581D01*
X210281428Y-40776581D02*
X211881428Y-40776581D01*
X210281428Y-40776581D02*
X208021428Y-40776581D01*
X212381428Y-41576581D02*
X212381428Y-42576581D01*
X208021428Y-41576581D02*
X212381428Y-41576581D01*
X212381428Y-42576581D02*
X208021428Y-42576581D01*
X211881428Y-43376581D02*
X211881428Y-44376581D01*
X210281428Y-43376581D02*
X211881428Y-43376581D01*
X215841428Y-44216581D02*
X214241428Y-44216581D01*
X214241428Y-44216581D02*
X214241428Y-43936581D01*
X211881428Y-44376581D02*
X210281428Y-44376581D01*
X210281428Y-44376581D02*
X210281428Y-43376581D01*
X215841428Y-45136581D02*
X215841428Y-44216581D01*
X214241428Y-45136581D02*
X214241428Y-44216581D01*
X208021428Y-45136581D02*
X215841428Y-45136581D01*
D10*
X82239217Y-132390355D02*
X78645357Y-135098523D01*
X81878128Y-131911174D02*
X82239217Y-132390355D01*
X79410686Y-128636768D02*
X79711594Y-129036086D01*
X76238097Y-131903981D02*
X75816826Y-131344936D01*
X75816826Y-131344936D02*
X79410686Y-128636768D01*
X78546947Y-135798748D02*
X79148762Y-136597383D01*
X79050351Y-137297609D02*
X79148762Y-136597383D01*
X76654445Y-139103054D02*
X79050351Y-137297609D01*
X73946277Y-135509194D02*
X75942866Y-134004656D01*
X75954220Y-139004643D02*
X76654445Y-139103054D01*
X73847867Y-136209419D02*
X73946277Y-135509194D01*
X75942866Y-134004656D02*
G75*
G03*
X76238097Y-131903981I-902724J1197953D01*
G01*
X78645358Y-135098524D02*
G75*
G03*
X78546948Y-135798748I300908J-399317D01*
G01*
X106704815Y-105718820D02*
X111204815Y-105718820D01*
X106704815Y-106318820D02*
X106704815Y-105718820D01*
X106704815Y-110418820D02*
X106704815Y-109918820D01*
X111204815Y-109718820D02*
X111204815Y-110418820D01*
X111204815Y-110418820D02*
X106704815Y-110418820D01*
X111704815Y-105218820D02*
X111704815Y-104218820D01*
X112204815Y-103718820D02*
X111704815Y-104218820D01*
X115204815Y-103718820D02*
X112204815Y-103718820D01*
X115204815Y-108218820D02*
X112704815Y-108218820D01*
X115704815Y-104218820D02*
X115204815Y-103718820D01*
X115704815Y-107718820D02*
X115204815Y-108218820D01*
X112704815Y-108218820D02*
G75*
G03*
X111204815Y-109718820I1J-1500001D01*
G01*
X111204815Y-105718820D02*
G75*
G03*
X111704815Y-105218820I-1J500001D01*
G01*
X144804815Y-96193820D02*
X149304815Y-96193820D01*
X144804815Y-96793820D02*
X144804815Y-96193820D01*
X144804815Y-100893820D02*
X144804815Y-100393820D01*
X149304815Y-100193820D02*
X149304815Y-100893820D01*
X149304815Y-100893820D02*
X144804815Y-100893820D01*
X149804815Y-95693820D02*
X149804815Y-94693820D01*
X150304815Y-94193820D02*
X149804815Y-94693820D01*
X153304815Y-94193820D02*
X150304815Y-94193820D01*
X153304815Y-98693820D02*
X150804815Y-98693820D01*
X153804815Y-94693820D02*
X153304815Y-94193820D01*
X153804815Y-98193820D02*
X153304815Y-98693820D01*
X150804815Y-98693820D02*
G75*
G03*
X149304815Y-100193820I1J-1500001D01*
G01*
X149304815Y-96193820D02*
G75*
G03*
X149804815Y-95693820I-1J500001D01*
G01*
X125754815Y-84287620D02*
X130254815Y-84287620D01*
X125754815Y-84887620D02*
X125754815Y-84287620D01*
X125754815Y-88987620D02*
X125754815Y-88487620D01*
X130254815Y-88287620D02*
X130254815Y-88987620D01*
X130254815Y-88987620D02*
X125754815Y-88987620D01*
X130754815Y-83787620D02*
X130754815Y-82787620D01*
X131254815Y-82287620D02*
X130754815Y-82787620D01*
X134254815Y-82287620D02*
X131254815Y-82287620D01*
X134254815Y-86787620D02*
X131754815Y-86787620D01*
X134754815Y-82787620D02*
X134254815Y-82287620D01*
X134754815Y-86287620D02*
X134254815Y-86787620D01*
X131754815Y-86787620D02*
G75*
G03*
X130254815Y-88287620I1J-1500001D01*
G01*
X130254815Y-84287620D02*
G75*
G03*
X130754815Y-83787620I-1J500001D01*
G01*
X106704815Y-86668820D02*
X111204815Y-86668820D01*
X106704815Y-87268820D02*
X106704815Y-86668820D01*
X106704815Y-91368820D02*
X106704815Y-90868820D01*
X111204815Y-90668820D02*
X111204815Y-91368820D01*
X111204815Y-91368820D02*
X106704815Y-91368820D01*
X111704815Y-86168820D02*
X111704815Y-85168820D01*
X112204815Y-84668820D02*
X111704815Y-85168820D01*
X115204815Y-84668820D02*
X112204815Y-84668820D01*
X115204815Y-89168820D02*
X112704815Y-89168820D01*
X115704815Y-85168820D02*
X115204815Y-84668820D01*
X115704815Y-88668820D02*
X115204815Y-89168820D01*
X112704815Y-89168820D02*
G75*
G03*
X111204815Y-90668820I1J-1500001D01*
G01*
X111204815Y-86668820D02*
G75*
G03*
X111704815Y-86168820I-1J500001D01*
G01*
X144804815Y-77143820D02*
X149304815Y-77143820D01*
X144804815Y-77743820D02*
X144804815Y-77143820D01*
X144804815Y-81843820D02*
X144804815Y-81343820D01*
X149304815Y-81143820D02*
X149304815Y-81843820D01*
X149304815Y-81843820D02*
X144804815Y-81843820D01*
X149804815Y-76643820D02*
X149804815Y-75643820D01*
X150304815Y-75143820D02*
X149804815Y-75643820D01*
X153304815Y-75143820D02*
X150304815Y-75143820D01*
X153304815Y-79643820D02*
X150804815Y-79643820D01*
X153804815Y-75643820D02*
X153304815Y-75143820D01*
X153804815Y-79143820D02*
X153304815Y-79643820D01*
X150804815Y-79643820D02*
G75*
G03*
X149304815Y-81143820I1J-1500001D01*
G01*
X149304815Y-77143820D02*
G75*
G03*
X149804815Y-76643820I-1J500001D01*
G01*
X163854815Y-83096920D02*
X168354815Y-83096920D01*
X163854815Y-83696920D02*
X163854815Y-83096920D01*
X163854815Y-87796920D02*
X163854815Y-87296920D01*
X168354815Y-87096920D02*
X168354815Y-87796920D01*
X168354815Y-87796920D02*
X163854815Y-87796920D01*
X168854815Y-82596920D02*
X168854815Y-81596920D01*
X169354815Y-81096920D02*
X168854815Y-81596920D01*
X172354815Y-81096920D02*
X169354815Y-81096920D01*
X172354815Y-85596920D02*
X169854815Y-85596920D01*
X172854815Y-81596920D02*
X172354815Y-81096920D01*
X172854815Y-85096920D02*
X172354815Y-85596920D01*
X169854815Y-85596920D02*
G75*
G03*
X168354815Y-87096920I1J-1500001D01*
G01*
X168354815Y-83096920D02*
G75*
G03*
X168854815Y-82596920I-1J500001D01*
G01*
D11*
X181647099Y-35750146D02*
X184447099Y-35750146D01*
X181647099Y-37750146D02*
X181647099Y-35750146D01*
X184447099Y-35750146D02*
X184447099Y-37750146D01*
X184447099Y-37750146D02*
X181647099Y-37750146D01*
X187852099Y-37165146D02*
X189852099Y-37165146D01*
X187852099Y-39965146D02*
X187852099Y-37165146D01*
X188186099Y-48570146D02*
X190186099Y-48570146D01*
X188186099Y-51370146D02*
X188186099Y-48570146D01*
X189852099Y-37165146D02*
X189852099Y-39965146D01*
X189852099Y-39965146D02*
X187852099Y-39965146D01*
X190186099Y-48570146D02*
X190186099Y-51370146D01*
X190186099Y-51370146D02*
X188186099Y-51370146D01*
X190686099Y-48570146D02*
X192686099Y-48570146D01*
X190686099Y-51370146D02*
X190686099Y-48570146D01*
X191436099Y-44429521D02*
X191436099Y-41929521D01*
X191886099Y-41479521D02*
X191436099Y-41929521D01*
X191886099Y-44879521D02*
X191436099Y-44429521D01*
X192686099Y-48570146D02*
X192686099Y-51370146D01*
X192686099Y-51370146D02*
X190686099Y-51370146D01*
X193186099Y-40429521D02*
X195186099Y-40429521D01*
X193186099Y-45929521D02*
X195186099Y-45929521D01*
X193186099Y-48570146D02*
X195186099Y-48570146D01*
X193186099Y-51370146D02*
X193186099Y-48570146D01*
X195186099Y-48570146D02*
X195186099Y-51370146D01*
X195186099Y-51370146D02*
X193186099Y-51370146D01*
X195686099Y-48570146D02*
X197686099Y-48570146D01*
X195686099Y-51370146D02*
X195686099Y-48570146D01*
X196486099Y-41479521D02*
X196936099Y-41929521D01*
X196486099Y-44879521D02*
X196936099Y-44429521D01*
X196936099Y-44429521D02*
X196936099Y-41929521D01*
X197686099Y-48570146D02*
X197686099Y-51370146D01*
X197686099Y-51370146D02*
X195686099Y-51370146D01*
X198186099Y-48570146D02*
X200186099Y-48570146D01*
X198186099Y-51370146D02*
X198186099Y-48570146D01*
X200186099Y-48570146D02*
X200186099Y-51370146D01*
X200186099Y-51370146D02*
X198186099Y-51370146D01*
X203925099Y-35786146D02*
X206725099Y-35786146D01*
X203925099Y-37786146D02*
X203925099Y-35786146D01*
X203925099Y-38310146D02*
X206725099Y-38310146D01*
X203925099Y-40310146D02*
X203925099Y-38310146D01*
X203925099Y-40850146D02*
X206725099Y-40850146D01*
X203925099Y-42850146D02*
X203925099Y-40850146D01*
X203925099Y-43390146D02*
X206725099Y-43390146D01*
X203925099Y-45390146D02*
X203925099Y-43390146D01*
X203925099Y-45930146D02*
X206725099Y-45930146D01*
X203925099Y-47930146D02*
X203925099Y-45930146D01*
X203925099Y-48470146D02*
X206725099Y-48470146D01*
X203925099Y-50470146D02*
X203925099Y-48470146D01*
X203925099Y-51010146D02*
X206725099Y-51010146D01*
X203925099Y-53010146D02*
X203925099Y-51010146D01*
X206725099Y-35786146D02*
X206725099Y-37786146D01*
X206725099Y-37786146D02*
X203925099Y-37786146D01*
X206725099Y-38310146D02*
X206725099Y-40310146D01*
X206725099Y-40310146D02*
X203925099Y-40310146D01*
X206725099Y-40850146D02*
X206725099Y-42850146D01*
X206725099Y-42850146D02*
X203925099Y-42850146D01*
X206725099Y-43390146D02*
X206725099Y-45390146D01*
X206725099Y-45390146D02*
X203925099Y-45390146D01*
X206725099Y-45930146D02*
X206725099Y-47930146D01*
X206725099Y-47930146D02*
X203925099Y-47930146D01*
X206725099Y-48470146D02*
X206725099Y-50470146D01*
X206725099Y-50470146D02*
X203925099Y-50470146D01*
X206725099Y-51010146D02*
X206725099Y-53010146D01*
X206725099Y-53010146D02*
X203925099Y-53010146D01*
D10*
X106704783Y-48568780D02*
X111204783Y-48568780D01*
X106704783Y-49168780D02*
X106704783Y-48568780D01*
X106704783Y-53268780D02*
X106704783Y-52768780D01*
X111204783Y-52568780D02*
X111204783Y-53268780D01*
X111204783Y-53268780D02*
X106704783Y-53268780D01*
X111704783Y-48068780D02*
X111704783Y-47068780D01*
X112204783Y-46568780D02*
X111704783Y-47068780D01*
X115204783Y-46568780D02*
X112204783Y-46568780D01*
X115204783Y-51068780D02*
X112704783Y-51068780D01*
X115704783Y-47068780D02*
X115204783Y-46568780D01*
X115704783Y-50568780D02*
X115204783Y-51068780D01*
X112704783Y-51068780D02*
G75*
G03*
X111204783Y-52568780I1J-1500001D01*
G01*
X111204783Y-48568780D02*
G75*
G03*
X111704783Y-48068780I-1J500001D01*
G01*
X100854815Y-57293820D02*
X100854815Y-61793820D01*
X100254815Y-57293820D02*
X100854815Y-57293820D01*
X96154815Y-57293820D02*
X96654815Y-57293820D01*
X96854815Y-61793820D02*
X96154815Y-61793820D01*
X96154815Y-61793820D02*
X96154815Y-57293820D01*
X101354815Y-62293820D02*
X102354815Y-62293820D01*
X102854815Y-62793820D02*
X102354815Y-62293820D01*
X102854815Y-65793820D02*
X102854815Y-62793820D01*
X98354815Y-65793820D02*
X98354815Y-63293820D01*
X102354815Y-66293820D02*
X102854815Y-65793820D01*
X98854815Y-66293820D02*
X98354815Y-65793820D01*
X98354815Y-63293820D02*
G75*
G03*
X96854815Y-61793820I-1500001J-1D01*
G01*
X100854815Y-61793820D02*
G75*
G03*
X101354815Y-62293820I500001J1D01*
G01*
X125754815Y-103337620D02*
X130254815Y-103337620D01*
X125754815Y-103937620D02*
X125754815Y-103337620D01*
X125754815Y-108037620D02*
X125754815Y-107537620D01*
X130254815Y-107337620D02*
X130254815Y-108037620D01*
X130254815Y-108037620D02*
X125754815Y-108037620D01*
X130754815Y-102837620D02*
X130754815Y-101837620D01*
X131254815Y-101337620D02*
X130754815Y-101837620D01*
X134254815Y-101337620D02*
X131254815Y-101337620D01*
X134254815Y-105837620D02*
X131754815Y-105837620D01*
X134754815Y-101837620D02*
X134254815Y-101337620D01*
X134754815Y-105337620D02*
X134254815Y-105837620D01*
X131754815Y-105837620D02*
G75*
G03*
X130254815Y-107337620I1J-1500001D01*
G01*
X130254815Y-103337620D02*
G75*
G03*
X130754815Y-102837620I-1J500001D01*
G01*
X163854815Y-102146920D02*
X168354815Y-102146920D01*
X163854815Y-102746920D02*
X163854815Y-102146920D01*
X163854815Y-106846920D02*
X163854815Y-106346920D01*
X168354815Y-106146920D02*
X168354815Y-106846920D01*
X168354815Y-106846920D02*
X163854815Y-106846920D01*
X168854815Y-101646920D02*
X168854815Y-100646920D01*
X169354815Y-100146920D02*
X168854815Y-100646920D01*
X172354815Y-100146920D02*
X169354815Y-100146920D01*
X172354815Y-104646920D02*
X169854815Y-104646920D01*
X172854815Y-100646920D02*
X172354815Y-100146920D01*
X172854815Y-104146920D02*
X172354815Y-104646920D01*
X169854815Y-104646920D02*
G75*
G03*
X168354815Y-106146920I1J-1500001D01*
G01*
X168354815Y-102146920D02*
G75*
G03*
X168854815Y-101646920I-1J500001D01*
G01*
X163854783Y-44996880D02*
X168354783Y-44996880D01*
X163854783Y-45596880D02*
X163854783Y-44996880D01*
X163854783Y-49696880D02*
X163854783Y-49196880D01*
X168354783Y-48996880D02*
X168354783Y-49696880D01*
X168354783Y-49696880D02*
X163854783Y-49696880D01*
X168854783Y-44496880D02*
X168854783Y-43496880D01*
X169354783Y-42996880D02*
X168854783Y-43496880D01*
X172354783Y-42996880D02*
X169354783Y-42996880D01*
X172354783Y-47496880D02*
X169854783Y-47496880D01*
X172854783Y-43496880D02*
X172354783Y-42996880D01*
X172854783Y-46996880D02*
X172354783Y-47496880D01*
X169854783Y-47496880D02*
G75*
G03*
X168354783Y-48996880I1J-1500001D01*
G01*
X168354783Y-44996880D02*
G75*
G03*
X168854783Y-44496880I-1J500001D01*
G01*
X203294418Y-108888717D02*
X203686619Y-104405841D01*
X203892134Y-108941011D02*
X203294418Y-108888717D01*
X207976533Y-109298349D02*
X207478435Y-109254771D01*
X207671397Y-104754464D02*
X208368734Y-104815473D01*
X208368734Y-104815473D02*
X207976533Y-109298349D01*
X203232099Y-103864166D02*
X202235904Y-103777010D01*
X201781385Y-103235335D02*
X202235904Y-103777010D01*
X202042852Y-100246751D02*
X201781385Y-103235335D01*
X206525728Y-100638952D02*
X206307839Y-103129438D01*
X202584527Y-99792231D02*
X202042852Y-100246751D01*
X206071209Y-100097276D02*
X206525728Y-100638952D01*
X206307839Y-103129438D02*
G75*
G03*
X207671397Y-104754464I1494293J-130733D01*
G01*
X203686617Y-104405841D02*
G75*
G03*
X203232099Y-103864167I-498097J43577D01*
G01*
X100854815Y-81106320D02*
X100854815Y-85606320D01*
X100254815Y-81106320D02*
X100854815Y-81106320D01*
X96154815Y-81106320D02*
X96654815Y-81106320D01*
X96854815Y-85606320D02*
X96154815Y-85606320D01*
X96154815Y-85606320D02*
X96154815Y-81106320D01*
X101354815Y-86106320D02*
X102354815Y-86106320D01*
X102854815Y-86606320D02*
X102354815Y-86106320D01*
X102854815Y-89606320D02*
X102854815Y-86606320D01*
X98354815Y-89606320D02*
X98354815Y-87106320D01*
X102354815Y-90106320D02*
X102854815Y-89606320D01*
X98854815Y-90106320D02*
X98354815Y-89606320D01*
X98354815Y-87106320D02*
G75*
G03*
X96854815Y-85606320I-1500001J-1D01*
G01*
X100854815Y-85606320D02*
G75*
G03*
X101354815Y-86106320I500001J1D01*
G01*
X148842537Y-128123762D02*
X152739651Y-130373762D01*
X148542537Y-128643378D02*
X148842537Y-128123762D01*
X146492537Y-132194082D02*
X146742537Y-131761069D01*
X150739651Y-133837864D02*
X150389651Y-134444082D01*
X150389651Y-134444082D02*
X146492537Y-132194082D01*
X153422664Y-130190750D02*
X153922664Y-129324724D01*
X154605677Y-129141712D02*
X153922664Y-129324724D01*
X157203753Y-130641712D02*
X154605677Y-129141712D01*
X154953753Y-134538826D02*
X152788690Y-133288826D01*
X157386766Y-131324724D02*
X157203753Y-130641712D01*
X155636766Y-134355813D02*
X154953753Y-134538826D01*
X152788690Y-133288826D02*
G75*
G03*
X150739651Y-133837864I-750000J-1299041D01*
G01*
X152739651Y-130373762D02*
G75*
G03*
X153422664Y-130190750I250000J433014D01*
G01*
X192429815Y-135484520D02*
X196929815Y-135484520D01*
X192429815Y-136084520D02*
X192429815Y-135484520D01*
X192429815Y-140184520D02*
X192429815Y-139684520D01*
X196929815Y-139484520D02*
X196929815Y-140184520D01*
X196929815Y-140184520D02*
X192429815Y-140184520D01*
X197429815Y-134984520D02*
X197429815Y-133984520D01*
X197929815Y-133484520D02*
X197429815Y-133984520D01*
X200929815Y-133484520D02*
X197929815Y-133484520D01*
X200929815Y-137984520D02*
X198429815Y-137984520D01*
X201429815Y-133984520D02*
X200929815Y-133484520D01*
X201429815Y-137484520D02*
X200929815Y-137984520D01*
X198429815Y-137984520D02*
G75*
G03*
X196929815Y-139484520I1J-1500001D01*
G01*
X196929815Y-135484520D02*
G75*
G03*
X197429815Y-134984520I-1J500001D01*
G01*
X182904815Y-75953220D02*
X187404815Y-75953220D01*
X182904815Y-76553220D02*
X182904815Y-75953220D01*
X182904815Y-80653220D02*
X182904815Y-80153220D01*
X187404815Y-79953220D02*
X187404815Y-80653220D01*
X187404815Y-80653220D02*
X182904815Y-80653220D01*
X187904815Y-75453220D02*
X187904815Y-74453220D01*
X188404815Y-73953220D02*
X187904815Y-74453220D01*
X191404815Y-73953220D02*
X188404815Y-73953220D01*
X191404815Y-78453220D02*
X188904815Y-78453220D01*
X191904815Y-74453220D02*
X191404815Y-73953220D01*
X191904815Y-77953220D02*
X191404815Y-78453220D01*
X188904815Y-78453220D02*
G75*
G03*
X187404815Y-79953220I1J-1500001D01*
G01*
X187404815Y-75953220D02*
G75*
G03*
X187904815Y-75453220I-1J500001D01*
G01*
X144804815Y-58093820D02*
X149304815Y-58093820D01*
X144804815Y-58693820D02*
X144804815Y-58093820D01*
X144804815Y-62793820D02*
X144804815Y-62293820D01*
X149304815Y-62093820D02*
X149304815Y-62793820D01*
X149304815Y-62793820D02*
X144804815Y-62793820D01*
X149804815Y-57593820D02*
X149804815Y-56593820D01*
X150304815Y-56093820D02*
X149804815Y-56593820D01*
X153304815Y-56093820D02*
X150304815Y-56093820D01*
X153304815Y-60593820D02*
X150804815Y-60593820D01*
X153804815Y-56593820D02*
X153304815Y-56093820D01*
X153804815Y-60093820D02*
X153304815Y-60593820D01*
X150804815Y-60593820D02*
G75*
G03*
X149304815Y-62093820I1J-1500001D01*
G01*
X149304815Y-58093820D02*
G75*
G03*
X149804815Y-57593820I-1J500001D01*
G01*
X125754783Y-46187580D02*
X130254783Y-46187580D01*
X125754783Y-46787580D02*
X125754783Y-46187580D01*
X125754783Y-50887580D02*
X125754783Y-50387580D01*
X130254783Y-50187580D02*
X130254783Y-50887580D01*
X130254783Y-50887580D02*
X125754783Y-50887580D01*
X130754783Y-45687580D02*
X130754783Y-44687580D01*
X131254783Y-44187580D02*
X130754783Y-44687580D01*
X134254783Y-44187580D02*
X131254783Y-44187580D01*
X134254783Y-48687580D02*
X131754783Y-48687580D01*
X134754783Y-44687580D02*
X134254783Y-44187580D01*
X134754783Y-48187580D02*
X134254783Y-48687580D01*
X131754783Y-48687580D02*
G75*
G03*
X130254783Y-50187580I1J-1500001D01*
G01*
X130254783Y-46187580D02*
G75*
G03*
X130754783Y-45687580I-1J500001D01*
G01*
D11*
X88312263Y-111158828D02*
X88312263Y-114318828D01*
X88312263Y-111158828D02*
X88312263Y-113318828D01*
X88312263Y-111158828D02*
X89242263Y-111158828D01*
X88312263Y-111158828D02*
X89242263Y-111158828D01*
X91472263Y-111158828D02*
X91472263Y-112618828D01*
X91472263Y-111158828D02*
X91472263Y-112618828D01*
X91472263Y-111158828D02*
X90542263Y-111158828D01*
X91472263Y-111158828D02*
X90542263Y-111158828D01*
X131174799Y-113540080D02*
X131174799Y-116700080D01*
X131174799Y-113540080D02*
X131174799Y-115700080D01*
X131174799Y-113540080D02*
X132104799Y-113540080D01*
X131174799Y-113540080D02*
X132104799Y-113540080D01*
X134334799Y-113540080D02*
X134334799Y-115000080D01*
X134334799Y-113540080D02*
X134334799Y-115000080D01*
X134334799Y-113540080D02*
X133404799Y-113540080D01*
X134334799Y-113540080D02*
X133404799Y-113540080D01*
X188324847Y-105205698D02*
X188324847Y-108365698D01*
X188324847Y-105205698D02*
X188324847Y-107365698D01*
X188324847Y-105205698D02*
X189254847Y-105205698D01*
X188324847Y-105205698D02*
X189254847Y-105205698D01*
X191484847Y-105205698D02*
X191484847Y-106665698D01*
X191484847Y-105205698D02*
X191484847Y-106665698D01*
X191484847Y-105205698D02*
X190554847Y-105205698D01*
X191484847Y-105205698D02*
X190554847Y-105205698D01*
X131174799Y-56390032D02*
X131174799Y-59550032D01*
X131174799Y-56390032D02*
X131174799Y-58550032D01*
X131174799Y-56390032D02*
X132104799Y-56390032D01*
X131174799Y-56390032D02*
X132104799Y-56390032D01*
X134334799Y-56390032D02*
X134334799Y-57850032D01*
X134334799Y-56390032D02*
X134334799Y-57850032D01*
X134334799Y-56390032D02*
X133404799Y-56390032D01*
X134334799Y-56390032D02*
X133404799Y-56390032D01*
X188324847Y-86155682D02*
X188324847Y-89315682D01*
X188324847Y-86155682D02*
X188324847Y-88315682D01*
X188324847Y-86155682D02*
X189254847Y-86155682D01*
X188324847Y-86155682D02*
X189254847Y-86155682D01*
X191484847Y-86155682D02*
X191484847Y-87615682D01*
X191484847Y-86155682D02*
X191484847Y-87615682D01*
X191484847Y-86155682D02*
X190554847Y-86155682D01*
X191484847Y-86155682D02*
X190554847Y-86155682D01*
X169274831Y-93299438D02*
X169274831Y-96459438D01*
X169274831Y-93299438D02*
X169274831Y-95459438D01*
X169274831Y-93299438D02*
X170204831Y-93299438D01*
X169274831Y-93299438D02*
X170204831Y-93299438D01*
X172434831Y-93299438D02*
X172434831Y-94759438D01*
X172434831Y-93299438D02*
X172434831Y-94759438D01*
X172434831Y-93299438D02*
X171504831Y-93299438D01*
X172434831Y-93299438D02*
X171504831Y-93299438D01*
X169274831Y-74249422D02*
X169274831Y-77409422D01*
X169274831Y-74249422D02*
X169274831Y-76409422D01*
X169274831Y-74249422D02*
X170204831Y-74249422D01*
X169274831Y-74249422D02*
X170204831Y-74249422D01*
X172434831Y-74249422D02*
X172434831Y-75709422D01*
X172434831Y-74249422D02*
X172434831Y-75709422D01*
X172434831Y-74249422D02*
X171504831Y-74249422D01*
X172434831Y-74249422D02*
X171504831Y-74249422D01*
X112124783Y-122469775D02*
X112124783Y-125629775D01*
X112124783Y-122469775D02*
X112124783Y-124629775D01*
X112124783Y-122469775D02*
X113054783Y-122469775D01*
X112124783Y-122469775D02*
X113054783Y-122469775D01*
X115284783Y-122469775D02*
X115284783Y-123929775D01*
X115284783Y-122469775D02*
X115284783Y-123929775D01*
X115284783Y-122469775D02*
X114354783Y-122469775D01*
X115284783Y-122469775D02*
X114354783Y-122469775D01*
X131174799Y-94490064D02*
X131174799Y-97650064D01*
X131174799Y-94490064D02*
X131174799Y-96650064D01*
X131174799Y-94490064D02*
X132104799Y-94490064D01*
X131174799Y-94490064D02*
X132104799Y-94490064D01*
X134334799Y-94490064D02*
X134334799Y-95950064D01*
X134334799Y-94490064D02*
X134334799Y-95950064D01*
X134334799Y-94490064D02*
X133404799Y-94490064D01*
X134334799Y-94490064D02*
X133404799Y-94490064D01*
X188324847Y-67105666D02*
X188324847Y-70265666D01*
X188324847Y-67105666D02*
X188324847Y-69265666D01*
X188324847Y-67105666D02*
X189254847Y-67105666D01*
X188324847Y-67105666D02*
X189254847Y-67105666D01*
X191484847Y-67105666D02*
X191484847Y-68565666D01*
X191484847Y-67105666D02*
X191484847Y-68565666D01*
X191484847Y-67105666D02*
X190554847Y-67105666D01*
X191484847Y-67105666D02*
X190554847Y-67105666D01*
X125221669Y-119493210D02*
X125221669Y-122653210D01*
X125221669Y-119493210D02*
X125221669Y-121653210D01*
X125221669Y-119493210D02*
X126151669Y-119493210D01*
X125221669Y-119493210D02*
X126151669Y-119493210D01*
X128381669Y-119493210D02*
X128381669Y-120953210D01*
X128381669Y-119493210D02*
X128381669Y-120953210D01*
X128381669Y-119493210D02*
X127451669Y-119493210D01*
X128381669Y-119493210D02*
X127451669Y-119493210D01*
D10*
X115704815Y-69618820D02*
X115204815Y-70118820D01*
X115704815Y-66118820D02*
X115204815Y-65618820D01*
X115204815Y-70118820D02*
X112704815Y-70118820D01*
X115204815Y-65618820D02*
X112204815Y-65618820D01*
X112204815Y-65618820D02*
X111704815Y-66118820D01*
X111704815Y-67118820D02*
X111704815Y-66118820D01*
X111204815Y-72318820D02*
X106704815Y-72318820D01*
X111204815Y-71618820D02*
X111204815Y-72318820D01*
X106704815Y-72318820D02*
X106704815Y-71818820D01*
X106704815Y-68218820D02*
X106704815Y-67618820D01*
X106704815Y-67618820D02*
X111204815Y-67618820D01*
X111204815Y-67618820D02*
G75*
G03*
X111704815Y-67118820I0J500000D01*
G01*
X112704815Y-70118820D02*
G75*
G03*
X111204815Y-71618820I0J-1500000D01*
G01*
D11*
X169274831Y-112349454D02*
X169274831Y-115509454D01*
X169274831Y-112349454D02*
X169274831Y-114509454D01*
X169274831Y-112349454D02*
X170204831Y-112349454D01*
X169274831Y-112349454D02*
X170204831Y-112349454D01*
X172434831Y-112349454D02*
X172434831Y-113809454D01*
X172434831Y-112349454D02*
X172434831Y-113809454D01*
X172434831Y-112349454D02*
X171504831Y-112349454D01*
X172434831Y-112349454D02*
X171504831Y-112349454D01*
X131174799Y-75440048D02*
X131174799Y-78600048D01*
X131174799Y-75440048D02*
X131174799Y-77600048D01*
X131174799Y-75440048D02*
X132104799Y-75440048D01*
X131174799Y-75440048D02*
X132104799Y-75440048D01*
X134334799Y-75440048D02*
X134334799Y-76900048D01*
X134334799Y-75440048D02*
X134334799Y-76900048D01*
X134334799Y-75440048D02*
X133404799Y-75440048D01*
X134334799Y-75440048D02*
X133404799Y-75440048D01*
X88312263Y-63191601D02*
X88312263Y-66351601D01*
X88312263Y-63191601D02*
X88312263Y-65351601D01*
X88312263Y-63191601D02*
X89242263Y-63191601D01*
X88312263Y-63191601D02*
X89242263Y-63191601D01*
X91472263Y-63191601D02*
X91472263Y-64651601D01*
X91472263Y-63191601D02*
X91472263Y-64651601D01*
X91472263Y-63191601D02*
X90542263Y-63191601D01*
X91472263Y-63191601D02*
X90542263Y-63191601D01*
X88312263Y-87346308D02*
X88312263Y-90506308D01*
X88312263Y-87346308D02*
X88312263Y-89506308D01*
X88312263Y-87346308D02*
X89242263Y-87346308D01*
X88312263Y-87346308D02*
X89242263Y-87346308D01*
X91472263Y-87346308D02*
X91472263Y-88806308D01*
X91472263Y-87346308D02*
X91472263Y-88806308D01*
X91472263Y-87346308D02*
X90542263Y-87346308D01*
X91472263Y-87346308D02*
X90542263Y-87346308D01*
X188324847Y-124255714D02*
X188324847Y-127415714D01*
X188324847Y-124255714D02*
X188324847Y-126415714D01*
X188324847Y-124255714D02*
X189254847Y-124255714D01*
X188324847Y-124255714D02*
X189254847Y-124255714D01*
X191484847Y-124255714D02*
X191484847Y-125715714D01*
X191484847Y-124255714D02*
X191484847Y-125715714D01*
X191484847Y-124255714D02*
X190554847Y-124255714D01*
X191484847Y-124255714D02*
X190554847Y-124255714D01*
X169274831Y-55199406D02*
X169274831Y-58359406D01*
X169274831Y-55199406D02*
X169274831Y-57359406D01*
X169274831Y-55199406D02*
X170204831Y-55199406D01*
X169274831Y-55199406D02*
X170204831Y-55199406D01*
X172434831Y-55199406D02*
X172434831Y-56659406D01*
X172434831Y-55199406D02*
X172434831Y-56659406D01*
X172434831Y-55199406D02*
X171504831Y-55199406D01*
X172434831Y-55199406D02*
X171504831Y-55199406D01*
X137368555Y-122469775D02*
X137368555Y-125629775D01*
X137368555Y-122469775D02*
X137368555Y-124629775D01*
X137368555Y-122469775D02*
X138298555Y-122469775D01*
X137368555Y-122469775D02*
X138298555Y-122469775D01*
X140528555Y-122469775D02*
X140528555Y-123929775D01*
X140528555Y-122469775D02*
X140528555Y-123929775D01*
X140528555Y-122469775D02*
X139598555Y-122469775D01*
X140528555Y-122469775D02*
X139598555Y-122469775D01*
X107007592Y-122469775D02*
X107007592Y-125629775D01*
X107007592Y-122469775D02*
X107007592Y-124629775D01*
X107007592Y-122469775D02*
X107937592Y-122469775D01*
X107007592Y-122469775D02*
X107937592Y-122469775D01*
X110167592Y-122469775D02*
X110167592Y-123929775D01*
X110167592Y-122469775D02*
X110167592Y-123929775D01*
X110167592Y-122469775D02*
X109237592Y-122469775D01*
X110167592Y-122469775D02*
X109237592Y-122469775D01*
%LPC*%
D12*
X96535575Y-139700920D03*
D13*
X98878062Y-143198227D03*
D14*
X95093588Y-136203325D03*
X98323715Y-131798069D03*
D15*
X101298715Y-136950920D03*
D14*
X103753842Y-131203325D03*
D13*
X107919368Y-137978227D03*
D12*
X106061855Y-134200920D03*
D16*
X101159948Y-130160569D03*
X92257355Y-137840825D03*
D12*
X209601558Y-88751991D03*
D13*
X213809980Y-88839110D03*
D14*
X205909406Y-87927059D03*
X204153557Y-82754343D03*
D15*
X210080915Y-83272920D03*
D14*
X206780964Y-77965112D03*
D13*
X214719886Y-78438838D03*
D12*
X210560272Y-77793849D03*
D17*
X204438992Y-79491806D03*
X205623971Y-91189597D03*
D18*
X164342659Y-121338688D03*
X163707659Y-122438540D03*
X163072659Y-123538393D03*
X162437659Y-124638245D03*
X161802659Y-125738097D03*
X161167659Y-126837949D03*
X160532659Y-127937802D03*
X159897659Y-129037654D03*
X164184485Y-131512654D03*
X164819485Y-130412802D03*
X165454485Y-129312949D03*
X166089485Y-128213097D03*
X166724485Y-127113245D03*
X167359485Y-126013393D03*
X167994485Y-124913540D03*
X168629485Y-123813688D03*
D12*
X165354815Y-70246920D03*
D13*
X165634815Y-74446920D03*
D14*
X165854815Y-66496920D03*
X170854815Y-64296920D03*
D15*
X170854815Y-70246920D03*
D14*
X175854815Y-66496920D03*
D13*
X176074815Y-74446920D03*
D12*
X176354815Y-70246920D03*
D19*
X174129815Y-64296920D03*
X162579815Y-66496920D03*
D12*
X184404815Y-101203220D03*
D13*
X184684815Y-105403220D03*
D14*
X184904815Y-97453220D03*
X189904815Y-95253220D03*
D15*
X189904815Y-101203220D03*
D14*
X194904815Y-97453220D03*
D13*
X195124815Y-105403220D03*
D12*
X195404815Y-101203220D03*
D19*
X193179815Y-95253220D03*
X181629815Y-97453220D03*
D12*
X127254815Y-71437620D03*
D13*
X127534815Y-75637620D03*
D14*
X127754815Y-67687620D03*
X132754815Y-65487620D03*
D15*
X132754815Y-71437620D03*
D14*
X137754815Y-67687620D03*
D13*
X137974815Y-75637620D03*
D12*
X138254815Y-71437620D03*
D19*
X136029815Y-65487620D03*
X124479815Y-67687620D03*
D12*
X184404815Y-120253220D03*
D13*
X184684815Y-124453220D03*
D14*
X184904815Y-116503220D03*
X189904815Y-114303220D03*
D15*
X189904815Y-120253220D03*
D14*
X194904815Y-116503220D03*
D13*
X195124815Y-124453220D03*
D12*
X195404815Y-120253220D03*
D19*
X193179815Y-114303220D03*
X181629815Y-116503220D03*
D12*
X146304783Y-45243780D03*
D13*
X146584783Y-49443780D03*
D14*
X146804783Y-41493780D03*
X151804783Y-39293780D03*
D15*
X151804783Y-45243780D03*
D14*
X156804783Y-41493780D03*
D13*
X157024783Y-49443780D03*
D12*
X157304783Y-45243780D03*
D19*
X155079783Y-39293780D03*
X143529783Y-41493780D03*
D12*
X208954815Y-128134420D03*
D13*
X213154815Y-127854420D03*
D14*
X205204815Y-127634420D03*
X203004815Y-122634420D03*
D15*
X208954815Y-122634420D03*
D14*
X205204815Y-117634420D03*
D13*
X213154815Y-117414420D03*
D12*
X208954815Y-117134420D03*
D19*
X203004815Y-119359420D03*
X205204815Y-130909420D03*
D12*
X208954815Y-68603220D03*
D13*
X213154815Y-68323220D03*
D14*
X205204815Y-68103220D03*
X203004815Y-63103220D03*
D15*
X208954815Y-63103220D03*
D14*
X205204815Y-58103220D03*
D13*
X213154815Y-57883220D03*
D12*
X208954815Y-57603220D03*
D19*
X203004815Y-59828220D03*
X205204815Y-71378220D03*
D12*
X121301615Y-130968920D03*
D13*
X121581615Y-135168920D03*
D14*
X121801615Y-127218920D03*
X126801615Y-125018920D03*
D15*
X126801615Y-130968920D03*
D14*
X131801615Y-127218920D03*
D13*
X132021615Y-135168920D03*
D12*
X132301615Y-130968920D03*
D19*
X130076615Y-125018920D03*
X118526615Y-127218920D03*
D12*
X94654715Y-106418920D03*
D13*
X90454715Y-106698920D03*
D14*
X98404715Y-106918920D03*
X100604715Y-111918920D03*
D15*
X94654715Y-111918920D03*
D14*
X98404715Y-116918920D03*
D13*
X90454715Y-117138920D03*
D12*
X94654715Y-117418920D03*
D19*
X100604715Y-115193920D03*
X98404715Y-103643920D03*
D12*
X80050028Y-153907907D03*
D13*
X83217866Y-156679766D03*
D14*
X77751931Y-150902703D03*
X79731830Y-145811535D03*
D15*
X83939115Y-150018820D03*
D14*
X84822998Y-143831636D03*
D13*
X90600061Y-149297571D03*
D12*
X87828202Y-146129733D03*
D20*
X82047604Y-143495760D03*
X75436156Y-153218478D03*
D12*
X184404783Y-63103180D03*
D13*
X184684783Y-67303180D03*
D14*
X184904783Y-59353180D03*
X189904783Y-57153180D03*
D15*
X189904783Y-63103180D03*
D14*
X194904783Y-59353180D03*
D13*
X195124783Y-67303180D03*
D12*
X195404783Y-63103180D03*
D19*
X193179783Y-57153180D03*
X181629783Y-59353180D03*
D12*
X67496815Y-172046160D03*
D13*
X71274122Y-173903673D03*
D14*
X64499220Y-169738147D03*
X65093964Y-164308020D03*
D15*
X70246815Y-167283020D03*
D14*
X69499220Y-161077893D03*
D13*
X76494122Y-164862367D03*
D12*
X72996815Y-162519880D03*
D21*
X66731464Y-161471787D03*
X62861720Y-172574380D03*
D22*
X214381428Y-41076581D03*
D23*
X214381428Y-43076581D03*
D12*
X77310010Y-128341537D03*
D13*
X74558769Y-125155776D03*
D14*
X79167499Y-131637328D03*
X76498314Y-136403401D03*
D15*
X72917515Y-131651520D03*
D14*
X71181144Y-137655478D03*
D13*
X66221015Y-131438725D03*
D12*
X68525020Y-134961503D03*
D24*
X73882783Y-138374345D03*
X81783030Y-129666384D03*
D12*
X108204815Y-111918820D03*
D13*
X108484815Y-116118820D03*
D14*
X108704815Y-108168820D03*
X113704815Y-105968820D03*
D15*
X113704815Y-111918820D03*
D14*
X118704815Y-108168820D03*
D13*
X118924815Y-116118820D03*
D12*
X119204815Y-111918820D03*
D19*
X116979815Y-105968820D03*
X105429815Y-108168820D03*
D12*
X146304815Y-102393820D03*
D13*
X146584815Y-106593820D03*
D14*
X146804815Y-98643820D03*
X151804815Y-96443820D03*
D15*
X151804815Y-102393820D03*
D14*
X156804815Y-98643820D03*
D13*
X157024815Y-106593820D03*
D12*
X157304815Y-102393820D03*
D19*
X155079815Y-96443820D03*
X143529815Y-98643820D03*
D12*
X127254815Y-90487620D03*
D13*
X127534815Y-94687620D03*
D14*
X127754815Y-86737620D03*
X132754815Y-84537620D03*
D15*
X132754815Y-90487620D03*
D14*
X137754815Y-86737620D03*
D13*
X137974815Y-94687620D03*
D12*
X138254815Y-90487620D03*
D19*
X136029815Y-84537620D03*
X124479815Y-86737620D03*
D12*
X108204815Y-92868820D03*
D13*
X108484815Y-97068820D03*
D14*
X108704815Y-89118820D03*
X113704815Y-86918820D03*
D15*
X113704815Y-92868820D03*
D14*
X118704815Y-89118820D03*
D13*
X118924815Y-97068820D03*
D12*
X119204815Y-92868820D03*
D19*
X116979815Y-86918820D03*
X105429815Y-89118820D03*
D12*
X146304815Y-83343820D03*
D13*
X146584815Y-87543820D03*
D14*
X146804815Y-79593820D03*
X151804815Y-77393820D03*
D15*
X151804815Y-83343820D03*
D14*
X156804815Y-79593820D03*
D13*
X157024815Y-87543820D03*
D12*
X157304815Y-83343820D03*
D19*
X155079815Y-77393820D03*
X143529815Y-79593820D03*
D25*
X215867367Y-34575764D03*
D26*
X208667367Y-34575764D03*
D27*
X213717367Y-35718764D03*
X210817367Y-35718764D03*
D26*
X215867367Y-36861764D03*
D25*
X208667367Y-36861764D03*
D28*
X214467367Y-37568764D03*
X211567367Y-37568764D03*
X210067367Y-37568764D03*
D12*
X165354815Y-89296920D03*
D13*
X165634815Y-93496920D03*
D14*
X165854815Y-85546920D03*
X170854815Y-83346920D03*
D15*
X170854815Y-89296920D03*
D14*
X175854815Y-85546920D03*
D13*
X176074815Y-93496920D03*
D12*
X176354815Y-89296920D03*
D19*
X174129815Y-83346920D03*
X162579815Y-85546920D03*
D29*
X183772099Y-36750146D03*
D30*
X186091099Y-36750146D03*
X186091099Y-39290146D03*
X186091099Y-41830146D03*
X186091099Y-44370146D03*
X186091099Y-46910146D03*
X186091099Y-49450146D03*
X186091099Y-51990146D03*
D31*
X188852099Y-39290146D03*
D32*
X189186099Y-49245146D03*
X191686099Y-49245146D03*
D33*
X192286099Y-40029521D03*
D34*
X192916099Y-38338146D03*
D32*
X194186099Y-49245146D03*
D34*
X195456099Y-38338146D03*
D33*
X196086099Y-40029521D03*
D32*
X196686099Y-49245146D03*
X199186099Y-49245146D03*
D30*
X202281099Y-36750146D03*
X202281099Y-39290146D03*
X202281099Y-41830146D03*
X202281099Y-44370146D03*
X202281099Y-46910146D03*
X202281099Y-49450146D03*
X202281099Y-51990146D03*
D35*
X204600099Y-36786146D03*
X204600099Y-39310146D03*
X204600099Y-41850146D03*
X204600099Y-44390146D03*
X204600099Y-46930146D03*
X204600099Y-49470146D03*
X204600099Y-52010146D03*
D36*
X206050099Y-36786146D03*
X206050099Y-39310146D03*
X206050099Y-41850146D03*
X206050099Y-44390146D03*
X206050099Y-46930146D03*
X206050099Y-49470146D03*
X206050099Y-52010146D03*
D37*
X189186099Y-50695146D03*
X191686099Y-50695146D03*
X194186099Y-50695146D03*
X196686099Y-50695146D03*
X199186099Y-50695146D03*
D38*
X182322099Y-36750146D03*
D39*
X188852099Y-37840146D03*
D34*
X192916099Y-35798146D03*
X195456099Y-35798146D03*
D33*
X196086099Y-46329521D03*
X192286099Y-46329521D03*
D34*
X189741099Y-44053146D03*
X198631099Y-44053146D03*
X189741099Y-42148146D03*
X198631099Y-42148146D03*
D12*
X108204783Y-54768780D03*
D13*
X108484783Y-58968780D03*
D14*
X108704783Y-51018780D03*
X113704783Y-48818780D03*
D15*
X113704783Y-54768780D03*
D14*
X118704783Y-51018780D03*
D13*
X118924783Y-58968780D03*
D12*
X119204783Y-54768780D03*
D19*
X116979783Y-48818780D03*
X105429783Y-51018780D03*
D12*
X94654815Y-58793820D03*
D13*
X90454815Y-59073820D03*
D14*
X98404815Y-59293820D03*
X100604815Y-64293820D03*
D15*
X94654815Y-64293820D03*
D14*
X98404815Y-69293820D03*
D13*
X90454815Y-69513820D03*
D12*
X94654815Y-69793820D03*
D19*
X100604815Y-67568820D03*
X98404815Y-56018820D03*
D12*
X127254815Y-109537620D03*
D13*
X127534815Y-113737620D03*
D14*
X127754815Y-105787620D03*
X132754815Y-103587620D03*
D15*
X132754815Y-109537620D03*
D14*
X137754815Y-105787620D03*
D13*
X137974815Y-113737620D03*
D12*
X138254815Y-109537620D03*
D19*
X136029815Y-103587620D03*
X124479815Y-105787620D03*
D12*
X165354815Y-108346920D03*
D13*
X165634815Y-112546920D03*
D14*
X165854815Y-104596920D03*
X170854815Y-102396920D03*
D15*
X170854815Y-108346920D03*
D14*
X175854815Y-104596920D03*
D13*
X176074815Y-112546920D03*
D12*
X176354815Y-108346920D03*
D19*
X174129815Y-102396920D03*
X162579815Y-104596920D03*
D12*
X165354783Y-51196880D03*
D13*
X165634783Y-55396880D03*
D14*
X165854783Y-47446880D03*
X170854783Y-45246880D03*
D15*
X170854783Y-51196880D03*
D14*
X175854783Y-47446880D03*
D13*
X176074783Y-55396880D03*
D12*
X176354783Y-51196880D03*
D19*
X174129783Y-45246880D03*
X162579783Y-47446880D03*
D12*
X209601558Y-107934791D03*
D13*
X213809980Y-108021910D03*
D14*
X205909406Y-107109859D03*
X204153557Y-101937143D03*
D15*
X210080915Y-102455720D03*
D14*
X206780964Y-97147912D03*
D13*
X214719886Y-97621638D03*
D12*
X210560272Y-96976649D03*
D17*
X204438992Y-98674606D03*
X205623971Y-110372397D03*
D12*
X94654815Y-82606320D03*
D13*
X90454815Y-82886320D03*
D14*
X98404815Y-83106320D03*
X100604815Y-88106320D03*
D15*
X94654815Y-88106320D03*
D14*
X98404815Y-93106320D03*
D13*
X90454815Y-93326320D03*
D12*
X94654815Y-93606320D03*
D19*
X100604815Y-91381320D03*
X98404815Y-79831320D03*
D12*
X147041575Y-134243120D03*
D13*
X145184062Y-138020427D03*
D14*
X149349588Y-131245525D03*
X154779715Y-131840269D03*
D15*
X151804715Y-136993120D03*
D14*
X158009842Y-136245525D03*
D13*
X154225368Y-143240427D03*
D12*
X156567855Y-139743120D03*
D40*
X157615948Y-133477769D03*
X146513355Y-129608025D03*
D12*
X193929815Y-141684520D03*
D13*
X194209815Y-145884520D03*
D14*
X194429815Y-137934520D03*
X199429815Y-135734520D03*
D15*
X199429815Y-141684520D03*
D14*
X204429815Y-137934520D03*
D13*
X204649815Y-145884520D03*
D12*
X204929815Y-141684520D03*
D19*
X202704815Y-135734520D03*
X191154815Y-137934520D03*
D12*
X184404815Y-82153220D03*
D13*
X184684815Y-86353220D03*
D14*
X184904815Y-78403220D03*
X189904815Y-76203220D03*
D15*
X189904815Y-82153220D03*
D14*
X194904815Y-78403220D03*
D13*
X195124815Y-86353220D03*
D12*
X195404815Y-82153220D03*
D19*
X193179815Y-76203220D03*
X181629815Y-78403220D03*
D12*
X146304815Y-64293820D03*
D13*
X146584815Y-68493820D03*
D14*
X146804815Y-60543820D03*
X151804815Y-58343820D03*
D15*
X151804815Y-64293820D03*
D14*
X156804815Y-60543820D03*
D13*
X157024815Y-68493820D03*
D12*
X157304815Y-64293820D03*
D19*
X155079815Y-58343820D03*
X143529815Y-60543820D03*
D12*
X127254783Y-52387580D03*
D13*
X127534783Y-56587580D03*
D14*
X127754783Y-48637580D03*
X132754783Y-46437580D03*
D15*
X132754783Y-52387580D03*
D14*
X137754783Y-48637580D03*
D13*
X137974783Y-56587580D03*
D12*
X138254783Y-52387580D03*
D19*
X136029783Y-46437580D03*
X124479783Y-48637580D03*
D41*
X90842263Y-113418828D03*
X88942263Y-113418828D03*
X89892263Y-110418828D03*
D27*
X213717367Y-35718764D03*
X210817367Y-35718764D03*
D41*
X133704799Y-115800080D03*
X131804799Y-115800080D03*
X132754799Y-112800080D03*
X190854847Y-107465698D03*
X188954847Y-107465698D03*
X189904847Y-104465698D03*
X133704799Y-58650032D03*
X131804799Y-58650032D03*
X132754799Y-55650032D03*
X190854847Y-88415682D03*
X188954847Y-88415682D03*
X189904847Y-85415682D03*
X171804831Y-95559438D03*
X169904831Y-95559438D03*
X170854831Y-92559438D03*
X171804831Y-76509422D03*
X169904831Y-76509422D03*
X170854831Y-73509422D03*
X114654783Y-124729775D03*
X112754783Y-124729775D03*
X113704783Y-121729775D03*
X133704799Y-96750064D03*
X131804799Y-96750064D03*
X132754799Y-93750064D03*
X190854847Y-69365666D03*
X188954847Y-69365666D03*
X189904847Y-66365666D03*
X127751669Y-121753210D03*
X125851669Y-121753210D03*
X126801669Y-118753210D03*
D12*
X119204815Y-73818820D03*
D13*
X118924815Y-78018820D03*
D14*
X118704815Y-70068820D03*
D15*
X113704815Y-73818820D03*
D14*
X113704815Y-67868820D03*
X108704815Y-70068820D03*
D13*
X108484815Y-78018820D03*
D12*
X108204815Y-73818820D03*
D19*
X116979815Y-67868820D03*
X105429815Y-70068820D03*
D41*
X171804831Y-114609454D03*
X169904831Y-114609454D03*
X170854831Y-111609454D03*
X133704799Y-77700048D03*
X131804799Y-77700048D03*
X132754799Y-74700048D03*
X90842263Y-65451601D03*
X88942263Y-65451601D03*
X89892263Y-62451601D03*
X90842263Y-89606308D03*
X88942263Y-89606308D03*
X89892263Y-86606308D03*
X190854847Y-126515714D03*
X188954847Y-126515714D03*
X189904847Y-123515714D03*
X171804831Y-57459406D03*
X169904831Y-57459406D03*
X170854831Y-54459406D03*
X139898555Y-124729775D03*
X137998555Y-124729775D03*
X138948555Y-121729775D03*
X109537592Y-124729775D03*
X107637592Y-124729775D03*
X108587592Y-121729775D03*
%LPD*%
M02*
