M48
; DRILL file {KiCad 7.0.2} date Di 23 Mai 2023 01:19:11 CEST
; FORMAT={-:-/ absolute / metric / decimal}
; #@! TF.CreationDate,2023-05-23T01:19:11+02:00
; #@! TF.GenerationSoftware,Kicad,Pcbnew,7.0.2
; #@! TF.FileFunction,Plated,1,2,PTH
FMAT,2
METRIC
; #@! TA.AperFunction,Plated,PTH,ViaDrill
T1C0.400
; #@! TA.AperFunction,Plated,PTH,ComponentDrill
T2C0.400
; #@! TA.AperFunction,Plated,PTH,ComponentDrill
T3C0.750
; #@! TA.AperFunction,Plated,PTH,ComponentDrill
T4C1.000
; #@! TA.AperFunction,Plated,PTH,ComponentDrill
T5C1.016
%
G90
G05
T1
X67.27Y-165.497
X67.977Y-166.204
X75.009Y-134.541
X79.177Y-123.825
X80.963Y-147.638
X82.749Y-126.802
X82.749Y-147.638
X85.13Y-130.969
X96.441Y-123.825
X97.036Y-88.106
X97.036Y-111.919
X97.227Y-64.294
X98.227Y-64.294
X98.227Y-88.106
X98.227Y-111.919
X99.417Y-133.945
X100.608Y-76.2
X100.608Y-99.417
X100.608Y-134.541
X104.775Y-122.634
X105.37Y-115.491
X106.561Y-63.698
X106.561Y-117.277
X111.324Y-121.444
X113.705Y-51.197
X113.705Y-70.247
X113.705Y-82.153
X113.705Y-89.297
X113.705Y-101.203
X113.705Y-108.347
X113.705Y-109.538
X116.681Y-112.514
X118.467Y-123.825
X126.802Y-127.397
X126.802Y-128.588
X128.588Y-53.578
X128.588Y-79.772
X128.588Y-114.3
X129.778Y-110.133
X132.755Y-50.006
X132.755Y-69.056
X132.755Y-88.106
X132.755Y-105.966
X133.945Y-121.444
X134.541Y-55.364
X134.541Y-73.819
X134.541Y-79.772
X134.541Y-92.869
X136.922Y-115.491
X138.113Y-99.417
X139.303Y-107.752
X139.303Y-113.239
X139.303Y-117.872
X139.899Y-70.842
X140.494Y-108.347
X143.47Y-109.538
X144.254Y-55.364
X151.805Y-41.672
X151.805Y-42.863
X151.805Y-60.722
X151.805Y-73.819
X151.805Y-79.772
X151.805Y-98.822
X152.995Y-133.35
X153.591Y-135.136
X155.377Y-125.016
X157.163Y-51.792
X157.758Y-127.992
X158.353Y-73.223
X158.708Y-126.113
X158.949Y-125.016
X160.08Y-109.538
X160.139Y-123.825
X160.735Y-120.253
X161.237Y-122.727
X161.33Y-115.491
X161.33Y-117.872
X161.925Y-120.253
X161.925Y-130.374
X162.855Y-127.675
X163.116Y-69.056
X163.116Y-117.872
X163.7Y-128.85
X164.481Y-127.239
X164.902Y-80.367
X165.077Y-126.208
X165.497Y-120.253
X165.784Y-125.241
X166.563Y-123.349
X166.688Y-52.388
X166.688Y-72.033
X167.283Y-121.444
X167.878Y-117.872
X169.069Y-54.173
X169.069Y-72.628
X169.069Y-91.678
X169.664Y-119.063
X170.855Y-47.625
X170.855Y-66.675
X170.855Y-67.866
X170.855Y-86.916
X170.855Y-105.966
X170.855Y-125.016
X172.641Y-72.628
X172.641Y-91.678
X173.236Y-66.675
X173.831Y-108.942
X174.704Y-50.006
X176.213Y-80.367
X176.808Y-99.328
X177.999Y-120.849
X180.365Y-41.672
X180.367Y-42.863
X180.38Y-44.053
X180.38Y-49.411
X180.38Y-50.602
X180.38Y-51.792
X180.38Y-52.941
X181.57Y-108.347
X181.57Y-113.705
X182.761Y-122.634
X184.547Y-107.752
X186.333Y-119.103
X186.333Y-123.23
X187.524Y-78.581
X187.524Y-97.631
X187.524Y-121.444
X189.905Y-59.531
X189.905Y-60.722
X189.905Y-78.581
X189.905Y-79.772
X189.905Y-97.631
X189.905Y-98.822
X189.905Y-116.681
X189.905Y-117.872
X191.095Y-36.909
X191.095Y-45.839
X192.286Y-135.136
X192.881Y-42.267
X192.881Y-43.458
X193.477Y-64.889
X194.072Y-42.267
X194.072Y-43.458
X194.072Y-46.434
X195.263Y-42.267
X195.263Y-43.458
X195.858Y-52.983
X197.049Y-36.909
X197.644Y-45.839
X197.644Y-52.983
X198.835Y-54.173
X199.43Y-138.113
X199.43Y-139.303
X200.025Y-52.983
X200.75Y-58.341
X201.162Y-55.888
X201.216Y-54.769
X201.216Y-79.177
X201.216Y-98.227
X201.28Y-53.643
X201.359Y-56.868
X202.648Y-56.834
X205.383Y-63.103
X205.383Y-122.634
X206.382Y-122.634
X206.574Y-63.103
X206.574Y-82.748
X206.574Y-101.799
X206.574Y-104.775
X207.573Y-82.748
X207.764Y-101.799
X207.862Y-38.598
X211.931Y-41.672
X211.931Y-42.863
X212.527Y-39.291
X212.527Y-44.648
X213.717Y-45.244
X214.908Y-45.244
X216.099Y-44.648
X216.694Y-41.672
X216.694Y-42.863
T2
X88.192Y-63.952
X88.192Y-88.106
X88.192Y-111.919
X89.892Y-63.952
X89.892Y-88.106
X89.892Y-111.919
X91.592Y-63.952
X91.592Y-88.106
X91.592Y-111.919
X106.888Y-123.23
X108.588Y-123.23
X110.288Y-123.23
X112.005Y-123.23
X113.705Y-123.23
X115.405Y-123.23
X125.102Y-120.253
X126.802Y-120.253
X128.502Y-120.253
X131.055Y-57.15
X131.055Y-76.2
X131.055Y-95.25
X131.055Y-114.3
X132.755Y-57.15
X132.755Y-76.2
X132.755Y-95.25
X132.755Y-114.3
X134.455Y-57.15
X134.455Y-76.2
X134.455Y-95.25
X134.455Y-114.3
X137.249Y-123.23
X138.949Y-123.23
X140.649Y-123.23
X169.155Y-55.959
X169.155Y-75.009
X169.155Y-94.059
X169.155Y-113.109
X170.855Y-55.959
X170.855Y-75.009
X170.855Y-94.059
X170.855Y-113.109
X172.555Y-55.959
X172.555Y-75.009
X172.555Y-94.059
X172.555Y-113.109
X188.205Y-67.866
X188.205Y-86.916
X188.205Y-105.966
X188.205Y-125.016
X189.905Y-67.866
X189.905Y-86.916
X189.905Y-105.966
X189.905Y-125.016
X191.605Y-67.866
X191.605Y-86.916
X191.605Y-105.966
X191.605Y-125.016
T3
X214.381Y-41.077
X214.381Y-43.077
T4
X186.566Y-36.75
X186.566Y-39.29
X186.566Y-41.83
X186.566Y-44.37
X186.566Y-46.91
X186.566Y-49.45
X186.566Y-51.99
X201.806Y-36.75
X201.806Y-39.29
X201.806Y-41.83
X201.806Y-44.37
X201.806Y-46.91
X201.806Y-49.45
X201.806Y-51.99
T5
X189.741Y-42.148
X189.741Y-44.053
X192.916Y-35.798
X192.916Y-38.338
X195.456Y-35.798
X195.456Y-38.338
X198.631Y-42.148
X198.631Y-44.053
T0
M30
