G04 #@! TF.GenerationSoftware,KiCad,Pcbnew,7.0.2*
G04 #@! TF.CreationDate,2023-05-23T01:19:14+02:00*
G04 #@! TF.ProjectId,mykeeb_v7a3,6d796b65-6562-45f7-9637-61332e6b6963,rev?*
G04 #@! TF.SameCoordinates,Original*
G04 #@! TF.FileFunction,Soldermask,Bot*
G04 #@! TF.FilePolarity,Negative*
%FSLAX46Y46*%
G04 Gerber Fmt 4.6, Leading zero omitted, Abs format (unit mm)*
G04 Created by KiCad (PCBNEW 7.0.2) date 2023-05-23 01:19:14*
%MOMM*%
%LPD*%
G01*
G04 APERTURE LIST*
G04 Aperture macros list*
%AMRoundRect*
0 Rectangle with rounded corners*
0 $1 Rounding radius*
0 $2 $3 $4 $5 $6 $7 $8 $9 X,Y pos of 4 corners*
0 Add a 4 corners polygon primitive as box body*
4,1,4,$2,$3,$4,$5,$6,$7,$8,$9,$2,$3,0*
0 Add four circle primitives for the rounded corners*
1,1,$1+$1,$2,$3*
1,1,$1+$1,$4,$5*
1,1,$1+$1,$6,$7*
1,1,$1+$1,$8,$9*
0 Add four rect primitives between the rounded corners*
20,1,$1+$1,$2,$3,$4,$5,0*
20,1,$1+$1,$4,$5,$6,$7,0*
20,1,$1+$1,$6,$7,$8,$9,0*
20,1,$1+$1,$8,$9,$2,$3,0*%
%AMRotRect*
0 Rectangle, with rotation*
0 The origin of the aperture is its center*
0 $1 length*
0 $2 width*
0 $3 Rotation angle, in degrees counterclockwise*
0 Add horizontal line*
21,1,$1,$2,0,0,$3*%
%AMFreePoly0*
4,1,6,0.500000,-0.750000,-0.500000,-0.750000,-1.000000,0.000000,-0.500000,0.750000,0.500000,0.750000,0.500000,-0.750000,0.500000,-0.750000,$1*%
%AMFreePoly1*
4,1,6,0.150000,0.000000,0.650000,-0.750000,-0.500000,-0.750000,-0.500000,0.750000,0.650000,0.750000,0.150000,0.000000,0.150000,0.000000,$1*%
G04 Aperture macros list end*
%ADD10C,1.800000*%
%ADD11C,0.990600*%
%ADD12C,3.000000*%
%ADD13C,3.400000*%
%ADD14RotRect,2.600000X2.600000X210.000000*%
%ADD15RotRect,2.600000X2.600000X265.000000*%
%ADD16R,2.600000X2.600000*%
%ADD17RotRect,2.600000X2.600000X225.000000*%
%ADD18RotRect,2.600000X2.600000X240.000000*%
%ADD19RoundRect,0.250000X-0.625000X0.350000X-0.625000X-0.350000X0.625000X-0.350000X0.625000X0.350000X0*%
%ADD20O,1.750000X1.200000*%
%ADD21RotRect,2.600000X2.600000X37.000000*%
%ADD22C,0.700000*%
%ADD23FreePoly0,0.000000*%
%ADD24O,2.750000X1.800000*%
%ADD25FreePoly0,90.000000*%
%ADD26R,1.000000X1.700000*%
%ADD27C,1.397000*%
%ADD28FreePoly0,270.000000*%
%ADD29FreePoly0,180.000000*%
%ADD30FreePoly1,0.000000*%
%ADD31FreePoly1,90.000000*%
%ADD32FreePoly1,270.000000*%
%ADD33FreePoly1,180.000000*%
%ADD34RotRect,2.600000X2.600000X150.000000*%
%ADD35R,0.800000X1.900000*%
%ADD36R,1.100000X0.600000*%
%ADD37R,1.000000X0.600000*%
%ADD38R,0.600000X1.000000*%
%ADD39RoundRect,0.150000X-0.789471X0.282596X0.639471X-0.542404X0.789471X-0.282596X-0.639471X0.542404X0*%
%ADD40C,2.000000*%
G04 APERTURE END LIST*
D10*
X96535575Y-139700920D03*
D11*
X98878062Y-143198227D03*
D12*
X95093588Y-136203325D03*
X98323715Y-131798069D03*
D13*
X101298715Y-136950920D03*
D12*
X103753842Y-131203325D03*
D11*
X107919368Y-137978227D03*
D10*
X106061855Y-134200920D03*
D14*
X95487482Y-133435569D03*
X106590075Y-129565825D03*
D10*
X209601558Y-88751991D03*
D11*
X213809980Y-88839110D03*
D12*
X205909406Y-87927059D03*
X204153557Y-82754343D03*
D13*
X210080915Y-83272920D03*
D12*
X206780964Y-77965112D03*
D11*
X214719886Y-78438838D03*
D10*
X210560272Y-77793849D03*
D15*
X203868121Y-86016881D03*
X207066399Y-74702575D03*
D10*
X165354815Y-70246920D03*
D11*
X165634815Y-74446920D03*
D12*
X165854815Y-66496920D03*
X170854815Y-64296920D03*
D13*
X170854815Y-70246920D03*
D12*
X175854815Y-66496920D03*
D11*
X176074815Y-74446920D03*
D10*
X176354815Y-70246920D03*
D16*
X167579815Y-64296920D03*
X179129815Y-66496920D03*
D10*
X184404815Y-101203220D03*
D11*
X184684815Y-105403220D03*
D12*
X184904815Y-97453220D03*
X189904815Y-95253220D03*
D13*
X189904815Y-101203220D03*
D12*
X194904815Y-97453220D03*
D11*
X195124815Y-105403220D03*
D10*
X195404815Y-101203220D03*
D16*
X186629815Y-95253220D03*
X198179815Y-97453220D03*
D10*
X127254815Y-71437620D03*
D11*
X127534815Y-75637620D03*
D12*
X127754815Y-67687620D03*
X132754815Y-65487620D03*
D13*
X132754815Y-71437620D03*
D12*
X137754815Y-67687620D03*
D11*
X137974815Y-75637620D03*
D10*
X138254815Y-71437620D03*
D16*
X129479815Y-65487620D03*
X141029815Y-67687620D03*
D10*
X184404815Y-120253220D03*
D11*
X184684815Y-124453220D03*
D12*
X184904815Y-116503220D03*
X189904815Y-114303220D03*
D13*
X189904815Y-120253220D03*
D12*
X194904815Y-116503220D03*
D11*
X195124815Y-124453220D03*
D10*
X195404815Y-120253220D03*
D16*
X186629815Y-114303220D03*
X198179815Y-116503220D03*
D10*
X146304783Y-45243780D03*
D11*
X146584783Y-49443780D03*
D12*
X146804783Y-41493780D03*
X151804783Y-39293780D03*
D13*
X151804783Y-45243780D03*
D12*
X156804783Y-41493780D03*
D11*
X157024783Y-49443780D03*
D10*
X157304783Y-45243780D03*
D16*
X148529783Y-39293780D03*
X160079783Y-41493780D03*
D10*
X208954815Y-128134420D03*
D11*
X213154815Y-127854420D03*
D12*
X205204815Y-127634420D03*
X203004815Y-122634420D03*
D13*
X208954815Y-122634420D03*
D12*
X205204815Y-117634420D03*
D11*
X213154815Y-117414420D03*
D10*
X208954815Y-117134420D03*
D16*
X203004815Y-125909420D03*
X205204815Y-114359420D03*
D10*
X208954815Y-68603220D03*
D11*
X213154815Y-68323220D03*
D12*
X205204815Y-68103220D03*
X203004815Y-63103220D03*
D13*
X208954815Y-63103220D03*
D12*
X205204815Y-58103220D03*
D11*
X213154815Y-57883220D03*
D10*
X208954815Y-57603220D03*
D16*
X203004815Y-66378220D03*
X205204815Y-54828220D03*
D10*
X121301615Y-130968920D03*
D11*
X121581615Y-135168920D03*
D12*
X121801615Y-127218920D03*
X126801615Y-125018920D03*
D13*
X126801615Y-130968920D03*
D12*
X131801615Y-127218920D03*
D11*
X132021615Y-135168920D03*
D10*
X132301615Y-130968920D03*
D16*
X123526615Y-125018920D03*
X135076615Y-127218920D03*
D10*
X94654715Y-106418920D03*
D11*
X90454715Y-106698920D03*
D12*
X98404715Y-106918920D03*
X100604715Y-111918920D03*
D13*
X94654715Y-111918920D03*
D12*
X98404715Y-116918920D03*
D11*
X90454715Y-117138920D03*
D10*
X94654715Y-117418920D03*
D16*
X100604715Y-108643920D03*
X98404715Y-120193920D03*
D10*
X80050028Y-153907907D03*
D11*
X83217866Y-156679766D03*
D12*
X77751931Y-150902703D03*
X79731830Y-145811535D03*
D13*
X83939115Y-150018820D03*
D12*
X84822998Y-143831636D03*
D11*
X90600061Y-149297571D03*
D10*
X87828202Y-146129733D03*
D17*
X77416055Y-148127309D03*
X87138773Y-141515861D03*
D10*
X184404783Y-63103180D03*
D11*
X184684783Y-67303180D03*
D12*
X184904783Y-59353180D03*
X189904783Y-57153180D03*
D13*
X189904783Y-63103180D03*
D12*
X194904783Y-59353180D03*
D11*
X195124783Y-67303180D03*
D10*
X195404783Y-63103180D03*
D16*
X186629783Y-57153180D03*
X198179783Y-59353180D03*
D10*
X67496815Y-172046160D03*
D11*
X71274122Y-173903673D03*
D12*
X64499220Y-169738147D03*
X65093964Y-164308020D03*
D13*
X70246815Y-167283020D03*
D12*
X69499220Y-161077893D03*
D11*
X76494122Y-164862367D03*
D10*
X72996815Y-162519880D03*
D18*
X63456464Y-167144253D03*
X71136720Y-158241660D03*
D19*
X214381428Y-41076581D03*
D20*
X214381428Y-43076581D03*
D10*
X77310010Y-128341537D03*
D11*
X74558769Y-125155776D03*
D12*
X79167499Y-131637328D03*
X76498314Y-136403401D03*
D13*
X72917515Y-131651520D03*
D12*
X71181144Y-137655478D03*
D11*
X66221015Y-131438725D03*
D10*
X68525020Y-134961503D03*
D21*
X79113846Y-134432457D03*
X68565612Y-139626422D03*
D10*
X108204815Y-111918820D03*
D11*
X108484815Y-116118820D03*
D12*
X108704815Y-108168820D03*
X113704815Y-105968820D03*
D13*
X113704815Y-111918820D03*
D12*
X118704815Y-108168820D03*
D11*
X118924815Y-116118820D03*
D10*
X119204815Y-111918820D03*
D16*
X110429815Y-105968820D03*
X121979815Y-108168820D03*
D10*
X146304815Y-102393820D03*
D11*
X146584815Y-106593820D03*
D12*
X146804815Y-98643820D03*
X151804815Y-96443820D03*
D13*
X151804815Y-102393820D03*
D12*
X156804815Y-98643820D03*
D11*
X157024815Y-106593820D03*
D10*
X157304815Y-102393820D03*
D16*
X148529815Y-96443820D03*
X160079815Y-98643820D03*
D10*
X127254815Y-90487620D03*
D11*
X127534815Y-94687620D03*
D12*
X127754815Y-86737620D03*
X132754815Y-84537620D03*
D13*
X132754815Y-90487620D03*
D12*
X137754815Y-86737620D03*
D11*
X137974815Y-94687620D03*
D10*
X138254815Y-90487620D03*
D16*
X129479815Y-84537620D03*
X141029815Y-86737620D03*
D10*
X108204815Y-92868820D03*
D11*
X108484815Y-97068820D03*
D12*
X108704815Y-89118820D03*
X113704815Y-86918820D03*
D13*
X113704815Y-92868820D03*
D12*
X118704815Y-89118820D03*
D11*
X118924815Y-97068820D03*
D10*
X119204815Y-92868820D03*
D16*
X110429815Y-86918820D03*
X121979815Y-89118820D03*
D10*
X146304815Y-83343820D03*
D11*
X146584815Y-87543820D03*
D12*
X146804815Y-79593820D03*
X151804815Y-77393820D03*
D13*
X151804815Y-83343820D03*
D12*
X156804815Y-79593820D03*
D11*
X157024815Y-87543820D03*
D10*
X157304815Y-83343820D03*
D16*
X148529815Y-77393820D03*
X160079815Y-79593820D03*
D22*
X213717367Y-35718764D03*
X210817367Y-35718764D03*
D10*
X165354815Y-89296920D03*
D11*
X165634815Y-93496920D03*
D12*
X165854815Y-85546920D03*
X170854815Y-83346920D03*
D13*
X170854815Y-89296920D03*
D12*
X175854815Y-85546920D03*
D11*
X176074815Y-93496920D03*
D10*
X176354815Y-89296920D03*
D16*
X167579815Y-83346920D03*
X179129815Y-85546920D03*
D23*
X183772099Y-36766146D03*
X183772099Y-39290146D03*
X183772099Y-41830146D03*
X183772099Y-44370146D03*
X183772099Y-46910146D03*
X183772099Y-49450146D03*
X183772099Y-51990146D03*
D24*
X186091099Y-36750146D03*
X186091099Y-39290146D03*
X186091099Y-41830146D03*
X186091099Y-44370146D03*
X186091099Y-46910146D03*
X186091099Y-49450146D03*
X186091099Y-51990146D03*
D25*
X189186099Y-49245146D03*
X191686099Y-49245146D03*
D26*
X192286099Y-40029521D03*
D27*
X192916099Y-38338146D03*
D25*
X194186099Y-49245146D03*
D27*
X195456099Y-38338146D03*
D26*
X196086099Y-40029521D03*
D25*
X196686099Y-49245146D03*
X199186099Y-49245146D03*
D28*
X199520099Y-39290146D03*
D24*
X202281099Y-36750146D03*
X202281099Y-39290146D03*
X202281099Y-41830146D03*
X202281099Y-44370146D03*
X202281099Y-46910146D03*
X202281099Y-49450146D03*
X202281099Y-51990146D03*
D29*
X204600099Y-36750146D03*
D30*
X182322099Y-36766146D03*
X182322099Y-39290146D03*
X182322099Y-41830146D03*
X182322099Y-44370146D03*
X182322099Y-46910146D03*
X182322099Y-49450146D03*
X182322099Y-51990146D03*
D31*
X199186099Y-50695146D03*
X196686099Y-50695146D03*
X194186099Y-50695146D03*
X191686099Y-50695146D03*
X189186099Y-50695146D03*
D32*
X199520099Y-37840146D03*
D33*
X206050099Y-36750146D03*
D27*
X192916099Y-35798146D03*
X195456099Y-35798146D03*
D26*
X192286099Y-46329521D03*
X196086099Y-46329521D03*
D27*
X189741099Y-44053146D03*
X198631099Y-44053146D03*
X189741099Y-42148146D03*
X198631099Y-42148146D03*
D10*
X108204783Y-54768780D03*
D11*
X108484783Y-58968780D03*
D12*
X108704783Y-51018780D03*
X113704783Y-48818780D03*
D13*
X113704783Y-54768780D03*
D12*
X118704783Y-51018780D03*
D11*
X118924783Y-58968780D03*
D10*
X119204783Y-54768780D03*
D16*
X110429783Y-48818780D03*
X121979783Y-51018780D03*
D10*
X94654815Y-58793820D03*
D11*
X90454815Y-59073820D03*
D12*
X98404815Y-59293820D03*
X100604815Y-64293820D03*
D13*
X94654815Y-64293820D03*
D12*
X98404815Y-69293820D03*
D11*
X90454815Y-69513820D03*
D10*
X94654815Y-69793820D03*
D16*
X100604815Y-61018820D03*
X98404815Y-72568820D03*
D10*
X127254815Y-109537620D03*
D11*
X127534815Y-113737620D03*
D12*
X127754815Y-105787620D03*
X132754815Y-103587620D03*
D13*
X132754815Y-109537620D03*
D12*
X137754815Y-105787620D03*
D11*
X137974815Y-113737620D03*
D10*
X138254815Y-109537620D03*
D16*
X129479815Y-103587620D03*
X141029815Y-105787620D03*
D10*
X165354815Y-108346920D03*
D11*
X165634815Y-112546920D03*
D12*
X165854815Y-104596920D03*
X170854815Y-102396920D03*
D13*
X170854815Y-108346920D03*
D12*
X175854815Y-104596920D03*
D11*
X176074815Y-112546920D03*
D10*
X176354815Y-108346920D03*
D16*
X167579815Y-102396920D03*
X179129815Y-104596920D03*
D10*
X165354783Y-51196880D03*
D11*
X165634783Y-55396880D03*
D12*
X165854783Y-47446880D03*
X170854783Y-45246880D03*
D13*
X170854783Y-51196880D03*
D12*
X175854783Y-47446880D03*
D11*
X176074783Y-55396880D03*
D10*
X176354783Y-51196880D03*
D16*
X167579783Y-45246880D03*
X179129783Y-47446880D03*
D10*
X209601558Y-107934791D03*
D11*
X213809980Y-108021910D03*
D12*
X205909406Y-107109859D03*
X204153557Y-101937143D03*
D13*
X210080915Y-102455720D03*
D12*
X206780964Y-97147912D03*
D11*
X214719886Y-97621638D03*
D10*
X210560272Y-96976649D03*
D15*
X203868121Y-105199681D03*
X207066399Y-93885375D03*
D10*
X94654815Y-82606320D03*
D11*
X90454815Y-82886320D03*
D12*
X98404815Y-83106320D03*
X100604815Y-88106320D03*
D13*
X94654815Y-88106320D03*
D12*
X98404815Y-93106320D03*
D11*
X90454815Y-93326320D03*
D10*
X94654815Y-93606320D03*
D16*
X100604815Y-84831320D03*
X98404815Y-96381320D03*
D10*
X147041575Y-134243120D03*
D11*
X145184062Y-138020427D03*
D12*
X149349588Y-131245525D03*
X154779715Y-131840269D03*
D13*
X151804715Y-136993120D03*
D12*
X158009842Y-136245525D03*
D11*
X154225368Y-143240427D03*
D10*
X156567855Y-139743120D03*
D34*
X151943482Y-130202769D03*
X160846075Y-137883025D03*
D10*
X193929815Y-141684520D03*
D11*
X194209815Y-145884520D03*
D12*
X194429815Y-137934520D03*
X199429815Y-135734520D03*
D13*
X199429815Y-141684520D03*
D12*
X204429815Y-137934520D03*
D11*
X204649815Y-145884520D03*
D10*
X204929815Y-141684520D03*
D16*
X196154815Y-135734520D03*
X207704815Y-137934520D03*
D10*
X184404815Y-82153220D03*
D11*
X184684815Y-86353220D03*
D12*
X184904815Y-78403220D03*
X189904815Y-76203220D03*
D13*
X189904815Y-82153220D03*
D12*
X194904815Y-78403220D03*
D11*
X195124815Y-86353220D03*
D10*
X195404815Y-82153220D03*
D16*
X186629815Y-76203220D03*
X198179815Y-78403220D03*
D10*
X146304815Y-64293820D03*
D11*
X146584815Y-68493820D03*
D12*
X146804815Y-60543820D03*
X151804815Y-58343820D03*
D13*
X151804815Y-64293820D03*
D12*
X156804815Y-60543820D03*
D11*
X157024815Y-68493820D03*
D10*
X157304815Y-64293820D03*
D16*
X148529815Y-58343820D03*
X160079815Y-60543820D03*
D10*
X127254783Y-52387580D03*
D11*
X127534783Y-56587580D03*
D12*
X127754783Y-48637580D03*
X132754783Y-46437580D03*
D13*
X132754783Y-52387580D03*
D12*
X137754783Y-48637580D03*
D11*
X137974783Y-56587580D03*
D10*
X138254783Y-52387580D03*
D16*
X129479783Y-46437580D03*
X141029783Y-48637580D03*
D35*
X90842263Y-113418828D03*
X88942263Y-113418828D03*
X89892263Y-110418828D03*
D36*
X215867367Y-34575764D03*
D37*
X208667367Y-34575764D03*
D22*
X213717367Y-35718764D03*
X210817367Y-35718764D03*
D37*
X215867367Y-36861764D03*
D36*
X208667367Y-36861764D03*
D38*
X210067367Y-37568764D03*
X212967367Y-37568764D03*
X214467367Y-37568764D03*
D35*
X133704799Y-115800080D03*
X131804799Y-115800080D03*
X132754799Y-112800080D03*
X190854847Y-107465698D03*
X188954847Y-107465698D03*
X189904847Y-104465698D03*
X133704799Y-58650032D03*
X131804799Y-58650032D03*
X132754799Y-55650032D03*
X190854847Y-88415682D03*
X188954847Y-88415682D03*
X189904847Y-85415682D03*
D39*
X159897659Y-129037654D03*
X160532659Y-127937802D03*
X161167659Y-126837949D03*
X161802659Y-125738097D03*
X162437659Y-124638245D03*
X163072659Y-123538393D03*
X163707659Y-122438540D03*
X164342659Y-121338688D03*
X168629485Y-123813688D03*
X167994485Y-124913540D03*
X167359485Y-126013393D03*
X166724485Y-127113245D03*
X166089485Y-128213097D03*
X165454485Y-129312949D03*
X164819485Y-130412802D03*
X164184485Y-131512654D03*
D35*
X171804831Y-95559438D03*
X169904831Y-95559438D03*
X170854831Y-92559438D03*
X171804831Y-76509422D03*
X169904831Y-76509422D03*
X170854831Y-73509422D03*
D40*
X70842247Y-147042295D03*
X151804815Y-50006276D03*
D35*
X114654783Y-124729775D03*
X112754783Y-124729775D03*
X113704783Y-121729775D03*
X133704799Y-96750064D03*
X131804799Y-96750064D03*
X132754799Y-93750064D03*
X190854847Y-69365666D03*
X188954847Y-69365666D03*
X189904847Y-66365666D03*
X127751669Y-121753210D03*
X125851669Y-121753210D03*
X126801669Y-118753210D03*
D10*
X119204815Y-73818820D03*
D11*
X118924815Y-78018820D03*
D12*
X118704815Y-70068820D03*
D13*
X113704815Y-73818820D03*
D12*
X113704815Y-67868820D03*
X108704815Y-70068820D03*
D11*
X108484815Y-78018820D03*
D10*
X108204815Y-73818820D03*
D16*
X110429815Y-67868820D03*
X121979815Y-70068820D03*
D35*
X171804831Y-114609454D03*
X169904831Y-114609454D03*
X170854831Y-111609454D03*
X133704799Y-77700048D03*
X131804799Y-77700048D03*
X132754799Y-74700048D03*
X90842263Y-65451601D03*
X88942263Y-65451601D03*
X89892263Y-62451601D03*
X90842263Y-89606308D03*
X88942263Y-89606308D03*
X89892263Y-86606308D03*
X190854847Y-126515714D03*
X188954847Y-126515714D03*
X189904847Y-123515714D03*
X171804831Y-57459406D03*
X169904831Y-57459406D03*
X170854831Y-54459406D03*
X139898555Y-124729775D03*
X137998555Y-124729775D03*
X138948555Y-121729775D03*
X109537592Y-124729775D03*
X107637592Y-124729775D03*
X108587592Y-121729775D03*
D40*
X190500160Y-145256356D03*
M02*
