M48
; DRILL file {KiCad 7.0.2} date Do 25 Mai 2023 14:28:40 CEST
; FORMAT={-:-/ absolute / metric / decimal}
; #@! TF.CreationDate,2023-05-25T14:28:40+02:00
; #@! TF.GenerationSoftware,Kicad,Pcbnew,7.0.2
; #@! TF.FileFunction,Plated,1,2,PTH
FMAT,2
METRIC
; #@! TA.AperFunction,Plated,PTH,ViaDrill
T1C0.400
; #@! TA.AperFunction,Plated,PTH,ComponentDrill
T2C0.400
; #@! TA.AperFunction,Plated,PTH,ComponentDrill
T3C0.750
; #@! TA.AperFunction,Plated,PTH,ComponentDrill
T4C1.000
; #@! TA.AperFunction,Plated,PTH,ComponentDrill
T5C1.016
%
G90
G05
T1
X67.27Y-165.497
X67.977Y-166.204
X75.009Y-134.541
X79.177Y-123.825
X80.963Y-147.638
X82.749Y-126.802
X82.749Y-147.638
X85.13Y-130.969
X96.441Y-123.825
X97.036Y-88.106
X97.036Y-111.919
X97.227Y-64.294
X97.631Y-135.136
X98.227Y-64.294
X98.227Y-88.106
X98.227Y-111.919
X99.417Y-133.945
X100.608Y-76.2
X100.608Y-99.417
X100.608Y-134.541
X104.775Y-122.634
X105.37Y-111.324
X105.37Y-115.491
X106.561Y-117.277
X110.133Y-111.324
X110.728Y-125.016
X113.705Y-51.197
X113.705Y-70.247
X113.705Y-89.297
X113.705Y-108.347
X113.705Y-109.538
X116.086Y-108.347
X116.681Y-112.514
X118.467Y-123.825
X126.802Y-127.397
X126.802Y-128.588
X128.588Y-53.578
X128.588Y-79.772
X128.588Y-114.3
X129.183Y-127.992
X129.778Y-110.133
X132.755Y-50.006
X132.755Y-69.056
X132.755Y-88.106
X132.755Y-105.966
X133.945Y-121.444
X134.541Y-79.772
X136.922Y-115.491
X138.113Y-99.417
X139.303Y-107.752
X139.303Y-113.239
X139.303Y-117.872
X139.899Y-70.842
X140.494Y-108.347
X144.254Y-55.364
X151.805Y-41.672
X151.805Y-42.863
X151.805Y-60.722
X151.805Y-73.819
X151.805Y-79.772
X151.805Y-98.822
X152.995Y-133.35
X153.591Y-135.136
X155.377Y-125.016
X155.972Y-109.538
X157.163Y-51.792
X157.758Y-73.223
X157.758Y-127.992
X158.708Y-126.113
X158.949Y-125.016
X160.08Y-109.538
X160.139Y-123.825
X160.735Y-120.253
X161.237Y-122.727
X161.33Y-115.491
X161.33Y-117.872
X161.925Y-120.253
X161.925Y-130.374
X162.855Y-127.675
X163.116Y-117.872
X163.7Y-128.85
X163.711Y-69.056
X164.481Y-127.239
X164.902Y-80.367
X165.077Y-126.208
X165.497Y-120.253
X165.784Y-125.241
X166.563Y-123.349
X166.688Y-52.388
X166.688Y-72.033
X167.283Y-121.444
X167.878Y-117.872
X169.069Y-54.173
X169.069Y-72.628
X169.069Y-91.678
X169.664Y-119.063
X170.855Y-47.625
X170.855Y-66.675
X170.855Y-67.866
X170.855Y-86.916
X170.855Y-105.966
X170.855Y-125.016
X172.045Y-121.444
X173.236Y-66.675
X174.704Y-50.006
X176.213Y-80.367
X176.808Y-99.417
X180.975Y-35.123
X180.975Y-51.792
X181.57Y-38.695
X181.57Y-41.077
X181.57Y-43.458
X181.57Y-108.347
X181.57Y-113.705
X181.704Y-45.839
X182.761Y-122.634
X183.838Y-55.364
X184.547Y-103.584
X186.333Y-119.103
X186.333Y-123.825
X187.524Y-59.531
X187.524Y-78.581
X187.524Y-97.631
X187.524Y-121.444
X189.905Y-59.531
X189.905Y-60.722
X189.905Y-78.581
X189.905Y-79.772
X189.905Y-97.631
X189.905Y-98.822
X189.905Y-116.681
X189.905Y-117.872
X189.905Y-128.588
X190.5Y-50.006
X191.577Y-33.616
X191.577Y-42.546
X192.286Y-60.127
X192.286Y-135.136
X193.477Y-38.974
X193.477Y-40.164
X193.477Y-64.889
X194.553Y-43.141
X194.667Y-38.1
X195.858Y-38.974
X195.858Y-40.164
X196.19Y-49.56
X197.15Y-48.714
X197.53Y-33.616
X197.644Y-38.1
X198.125Y-42.546
X198.239Y-36.909
X198.835Y-49.411
X199.43Y-138.113
X199.43Y-139.303
X200.506Y-49.411
X201.216Y-79.177
X201.216Y-98.227
X201.811Y-50.602
X201.811Y-51.792
X201.811Y-52.983
X201.811Y-54.173
X201.811Y-55.364
X201.811Y-56.555
X201.811Y-57.745
X205.383Y-63.103
X205.383Y-122.634
X206.382Y-122.634
X206.574Y-63.103
X206.574Y-82.748
X206.574Y-85.13
X206.574Y-101.799
X206.574Y-104.775
X207.573Y-82.748
X207.764Y-101.799
X212.413Y-38.378
X212.413Y-39.569
X212.527Y-35.997
X213.008Y-41.355
X214.199Y-41.95
X215.389Y-41.95
X216.58Y-41.355
X217.175Y-38.378
X217.175Y-39.569
T2
X106.647Y-123.23
X108.347Y-123.23
X110.047Y-123.23
X112.005Y-59.531
X112.005Y-78.581
X112.005Y-97.631
X112.005Y-123.23
X113.705Y-59.531
X113.705Y-78.581
X113.705Y-97.631
X113.705Y-123.23
X115.405Y-59.531
X115.405Y-78.581
X115.405Y-97.631
X115.405Y-123.23
X121.53Y-120.253
X123.23Y-120.253
X124.93Y-120.253
X131.055Y-57.15
X131.055Y-76.2
X131.055Y-95.25
X131.055Y-114.3
X132.755Y-57.15
X132.755Y-76.2
X132.755Y-95.25
X132.755Y-114.3
X134.455Y-57.15
X134.455Y-76.2
X134.455Y-95.25
X134.455Y-114.3
X137.249Y-123.23
X138.949Y-123.23
X140.649Y-123.23
X169.155Y-55.959
X169.155Y-75.009
X169.155Y-94.059
X169.155Y-113.109
X170.855Y-55.959
X170.855Y-75.009
X170.855Y-94.059
X170.855Y-113.109
X172.555Y-55.959
X172.555Y-75.009
X172.555Y-94.059
X172.555Y-113.109
X188.205Y-67.866
X188.205Y-86.916
X188.205Y-105.966
X188.205Y-125.016
X189.905Y-67.866
X189.905Y-86.916
X189.905Y-105.966
X189.905Y-125.016
X191.605Y-67.866
X191.605Y-86.916
X191.605Y-105.966
X191.605Y-125.016
T3
X214.863Y-37.783
X214.863Y-39.783
T4
X187.047Y-33.457
X187.047Y-35.997
X187.047Y-38.537
X187.047Y-41.077
X187.047Y-43.617
X187.047Y-46.157
X187.047Y-48.697
X202.287Y-33.457
X202.287Y-35.997
X202.287Y-38.537
X202.287Y-41.077
X202.287Y-43.617
X202.287Y-46.157
X202.287Y-48.697
T5
X190.222Y-38.855
X190.222Y-40.76
X193.397Y-32.505
X193.397Y-35.045
X195.937Y-32.505
X195.937Y-35.045
X199.112Y-38.855
X199.112Y-40.76
T0
M30
