G04 #@! TF.GenerationSoftware,KiCad,Pcbnew,7.0.2*
G04 #@! TF.CreationDate,2023-05-25T14:19:07+02:00*
G04 #@! TF.ProjectId,mykeeb_v7a3,6d796b65-6562-45f7-9637-61332e6b6963,rev?*
G04 #@! TF.SameCoordinates,Original*
G04 #@! TF.FileFunction,Profile,NP*
%FSLAX46Y46*%
G04 Gerber Fmt 4.6, Leading zero omitted, Abs format (unit mm)*
G04 Created by KiCad (PCBNEW 7.0.2) date 2023-05-25 14:19:07*
%MOMM*%
%LPD*%
G01*
G04 APERTURE LIST*
G04 #@! TA.AperFunction,Profile*
%ADD10C,0.160000*%
G04 #@! TD*
G04 #@! TA.AperFunction,Profile*
%ADD11C,0.100000*%
G04 #@! TD*
%ADD12C,0.160000*%
G04 #@! TA.AperFunction,Profile*
%ADD13C,0.120000*%
G04 #@! TD*
G04 APERTURE END LIST*
D10*
X214907913Y-130968791D02*
G75*
G03*
X218479791Y-127397016I87J3571791D01*
G01*
X183356404Y-30360926D02*
G75*
G03*
X179784526Y-33932841I-204J-3571674D01*
G01*
D11*
X137717258Y-135187138D02*
G75*
G03*
X139898554Y-135847579I1190642J38D01*
G01*
D10*
X187523517Y-145256405D02*
G75*
G03*
X191095441Y-148828283I3571783J-95D01*
G01*
D12*
X84551482Y-159707687D02*
X84297379Y-159976286D01*
X84045982Y-160243796D01*
X83796217Y-160512036D01*
X83547013Y-160782827D01*
X83297298Y-161057986D01*
X83046000Y-161339334D01*
X82792045Y-161628690D01*
X82534363Y-161927872D01*
X82271881Y-162238701D01*
X82003526Y-162562996D01*
X81728226Y-162902576D01*
X81444910Y-163259259D01*
X81152505Y-163634867D01*
X80849939Y-164031218D01*
X80536140Y-164450130D01*
X80210035Y-164893425D01*
X79870553Y-165362920D01*
X79516620Y-165860435D01*
X79147166Y-166387790D01*
X78761118Y-166946804D01*
X78357403Y-167539296D01*
X77934949Y-168167086D01*
X77492685Y-168831992D01*
X77029538Y-169535835D01*
X76544436Y-170280433D01*
X76036306Y-171067605D01*
X75504077Y-171899172D01*
X74946676Y-172776952D01*
X74363032Y-173702765D01*
X73752071Y-174678430D01*
X73112722Y-175705766D01*
X72443913Y-176786594D01*
D11*
X151209502Y-122039169D02*
G75*
G03*
X151209502Y-111323531I-2J5357819D01*
G01*
D10*
X161329858Y-38695268D02*
G75*
G03*
X158353138Y-35718642I-2976658J-32D01*
G01*
D11*
X214312680Y-44053115D02*
X214908040Y-44053162D01*
D10*
X91082889Y-79771901D02*
G75*
G03*
X87511011Y-83343820I-29J-3571849D01*
G01*
X63158868Y-130538090D02*
X86464785Y-112658618D01*
D11*
X218479918Y-40481237D02*
X218479871Y-32742215D01*
D10*
X86464775Y-112658608D02*
G75*
G03*
X87510979Y-110132922I-2525875J2525808D01*
G01*
X91082918Y-103584480D02*
G75*
G03*
X87511040Y-107156410I-18J-3571860D01*
G01*
X218479837Y-32742215D02*
G75*
G03*
X216098570Y-30360963I-2381237J15D01*
G01*
D12*
X99979648Y-145915853D02*
X99722620Y-146081582D01*
X99472188Y-146244134D01*
X99227970Y-146403815D01*
X98989586Y-146560936D01*
X98756652Y-146715805D01*
X98528788Y-146868731D01*
X98305613Y-147020022D01*
X98086744Y-147169988D01*
X97871800Y-147318938D01*
X97660400Y-147467179D01*
X97452162Y-147615022D01*
X97246703Y-147762775D01*
X97043644Y-147910746D01*
X96842602Y-148059245D01*
X96643196Y-148208580D01*
X96445044Y-148359061D01*
X96247764Y-148510996D01*
X96050975Y-148664694D01*
X95854296Y-148820463D01*
X95657345Y-148978613D01*
X95459740Y-149139453D01*
X95261099Y-149303291D01*
X95061042Y-149470436D01*
X94859187Y-149641196D01*
X94655151Y-149815882D01*
X94448555Y-149994802D01*
X94239015Y-150178264D01*
X94026150Y-150366577D01*
X93809579Y-150560050D01*
X93588921Y-150758992D01*
X93363793Y-150963713D01*
X93133815Y-151174520D01*
D10*
X214907913Y-130968835D02*
G75*
G03*
X211336035Y-134540771I87J-3571965D01*
G01*
X66369067Y-154273389D02*
X58629864Y-168629916D01*
X94654824Y-100012654D02*
G75*
G03*
X91082918Y-96440776I-3571824J54D01*
G01*
X159032599Y-145203929D02*
X170338518Y-129069865D01*
D11*
X87510993Y-92868898D02*
X87511011Y-83343820D01*
D10*
X60295583Y-173994112D02*
X68974010Y-178029731D01*
D11*
X216098570Y-30360963D02*
X183356404Y-30360916D01*
D10*
X187523485Y-130968893D02*
G75*
G03*
X183951638Y-127397015I-3571785J93D01*
G01*
X191095441Y-148828283D02*
X207764205Y-148828330D01*
X64619410Y-139172063D02*
X62051926Y-136233772D01*
X218479871Y-57150032D02*
X218479791Y-127397016D01*
D11*
X115741014Y-130424634D02*
G75*
G03*
X111317854Y-131649780I-2381254J4D01*
G01*
D10*
X66369063Y-154273386D02*
G75*
G03*
X64619410Y-139172063I-9524983J6548446D01*
G01*
D11*
X115741010Y-130424634D02*
X115741010Y-135187138D01*
D10*
X94654814Y-76200064D02*
G75*
G03*
X91082889Y-72628186I-3571814J64D01*
G01*
X187523516Y-145256405D02*
X187523563Y-130968893D01*
X211336083Y-145256405D02*
X211336035Y-134540771D01*
X214312680Y-44053102D02*
G75*
G03*
X210740802Y-47625040I20J-3571898D01*
G01*
X87511024Y-92868898D02*
G75*
G03*
X91082918Y-96440776I3571776J-102D01*
G01*
X214908040Y-44053118D02*
G75*
G03*
X218479918Y-40481237I60J3571818D01*
G01*
D11*
X87510964Y-69056308D02*
X87511011Y-57150032D01*
D10*
X91082889Y-79771887D02*
G75*
G03*
X94654767Y-76199970I31J3571847D01*
G01*
X91082918Y-103584496D02*
G75*
G03*
X94654796Y-100012560I-18J3571896D01*
G01*
D12*
X110199482Y-140360020D02*
X109872516Y-140493096D01*
X109542952Y-140631695D01*
X109211097Y-140775524D01*
X108877261Y-140924295D01*
X108541752Y-141077715D01*
X108204880Y-141235495D01*
X107866953Y-141397343D01*
X107528281Y-141562970D01*
X107189171Y-141732084D01*
X106849934Y-141904396D01*
X106510878Y-142079613D01*
X106172312Y-142257446D01*
X105834545Y-142437605D01*
X105497886Y-142619797D01*
X105162644Y-142803734D01*
X104829127Y-142989124D01*
X104497645Y-143175676D01*
X104168507Y-143363100D01*
X103842021Y-143551106D01*
X103518496Y-143739403D01*
X103198242Y-143927699D01*
X102881568Y-144115705D01*
X102568781Y-144303130D01*
X102260192Y-144489683D01*
X101956109Y-144675074D01*
X101656841Y-144859012D01*
X101362696Y-145041207D01*
X101073985Y-145221367D01*
X100791016Y-145399202D01*
X100514097Y-145574422D01*
X100243538Y-145746735D01*
X99979648Y-145915853D01*
D10*
X154153350Y-146510960D02*
G75*
G03*
X159032599Y-145203929I1786050J3093360D01*
G01*
D11*
X99417271Y-53578201D02*
X91082889Y-53578154D01*
X142140378Y-131649753D02*
G75*
G03*
X137717268Y-130424634I-2041878J1225153D01*
G01*
X145851685Y-122039149D02*
X151209502Y-122039165D01*
X137717268Y-135187138D02*
X137717268Y-130424634D01*
X91082889Y-53578111D02*
G75*
G03*
X87511011Y-57150032I11J-3571889D01*
G01*
D10*
X95250048Y-126206373D02*
G75*
G03*
X95250048Y-126206373I-5357817J0D01*
G01*
X63158867Y-130538089D02*
G75*
G03*
X62051926Y-136233772I2325343J-3407331D01*
G01*
D11*
X179784454Y-38099858D02*
X179784526Y-33932841D01*
D10*
X161329806Y-38695268D02*
G75*
G03*
X164306508Y-41671894I2976594J-32D01*
G01*
D12*
X154153315Y-146511020D02*
X153059509Y-145860355D01*
X152009581Y-145246910D01*
X151002058Y-144669540D01*
X150035468Y-144127102D01*
X149108341Y-143618451D01*
X148219203Y-143142442D01*
X147366584Y-142697931D01*
X146549012Y-142283773D01*
X145765016Y-141898826D01*
X145013122Y-141541943D01*
X144291861Y-141211980D01*
X143599760Y-140907794D01*
X142935347Y-140628240D01*
X142297151Y-140372174D01*
X141683700Y-140138450D01*
X141093523Y-139925926D01*
X140525147Y-139733456D01*
X139977102Y-139559896D01*
X139447915Y-139404101D01*
X138936114Y-139264928D01*
X138440229Y-139141232D01*
X137958787Y-139031869D01*
X137490316Y-138935694D01*
X137033346Y-138851562D01*
X136586404Y-138778331D01*
X136148018Y-138714854D01*
X135716718Y-138659989D01*
X135291031Y-138612589D01*
X134869485Y-138571512D01*
X134450610Y-138535613D01*
X134032932Y-138503747D01*
X133614982Y-138474770D01*
D11*
X145851685Y-111323511D02*
G75*
G03*
X145851685Y-122039149I5J-5357819D01*
G01*
X183951638Y-127397015D02*
X173236083Y-127396966D01*
D12*
X120517982Y-138375520D02*
X120157790Y-138394735D01*
X119802578Y-138415258D01*
X119452090Y-138437235D01*
X119106072Y-138460811D01*
X118764270Y-138486132D01*
X118426430Y-138513342D01*
X118092296Y-138542587D01*
X117761614Y-138574012D01*
X117434131Y-138607762D01*
X117109591Y-138643983D01*
X116787740Y-138682820D01*
X116468324Y-138724419D01*
X116151088Y-138768924D01*
X115835779Y-138816481D01*
X115522140Y-138867235D01*
X115209919Y-138921332D01*
X114898860Y-138978917D01*
X114588709Y-139040134D01*
X114279213Y-139105130D01*
X113970115Y-139174050D01*
X113661162Y-139247038D01*
X113352100Y-139324241D01*
X113042674Y-139405804D01*
X112732630Y-139491871D01*
X112421712Y-139582589D01*
X112109668Y-139678101D01*
X111796242Y-139778555D01*
X111481180Y-139884095D01*
X111164227Y-139994866D01*
X110845129Y-140111013D01*
X110523632Y-140232683D01*
X110199482Y-140360020D01*
D11*
X106561027Y-42862520D02*
X137517303Y-42862567D01*
D10*
X210740746Y-50006276D02*
G75*
G03*
X214312680Y-53578154I3571854J-24D01*
G01*
X173236083Y-127396990D02*
G75*
G03*
X170338518Y-129069865I-83J-3345710D01*
G01*
D11*
X113559765Y-135847551D02*
G75*
G03*
X115741010Y-135187138I990635J660451D01*
G01*
D10*
X106561027Y-42862549D02*
G75*
G03*
X102989149Y-46434445I-127J-3571751D01*
G01*
D11*
X111317854Y-131649780D02*
X113559723Y-135847579D01*
D10*
X58629861Y-168629914D02*
G75*
G03*
X60295583Y-173994111I3263939J-1927186D01*
G01*
D12*
X93133815Y-151174520D02*
X92898714Y-151391622D01*
X92658663Y-151614829D01*
X92413942Y-151843850D01*
X92164833Y-152078395D01*
X91911619Y-152318172D01*
X91654579Y-152562891D01*
X91393997Y-152812261D01*
X91130153Y-153065991D01*
X90863329Y-153323791D01*
X90593807Y-153585369D01*
X90321868Y-153850436D01*
X90047793Y-154118700D01*
X89771865Y-154389871D01*
X89494364Y-154663658D01*
X89215573Y-154939769D01*
X88935773Y-155217915D01*
X88655245Y-155497805D01*
X88374271Y-155779148D01*
X88093133Y-156061653D01*
X87812112Y-156345029D01*
X87531490Y-156628986D01*
X87251548Y-156913233D01*
X86972567Y-157197479D01*
X86694830Y-157481434D01*
X86418618Y-157764806D01*
X86144212Y-158047305D01*
X85871895Y-158328641D01*
X85601947Y-158608522D01*
X85334650Y-158886658D01*
X85070286Y-159162758D01*
X84809136Y-159436531D01*
X84551482Y-159707687D01*
D11*
X210740802Y-47625040D02*
X210740755Y-50006276D01*
D12*
X133614982Y-138474770D02*
X133195567Y-138447725D01*
X132774626Y-138422406D01*
X132352375Y-138398796D01*
X131929034Y-138376876D01*
X131504820Y-138356628D01*
X131079951Y-138338034D01*
X130654646Y-138321076D01*
X130229122Y-138305734D01*
X129803597Y-138291992D01*
X129378291Y-138279831D01*
X128953419Y-138269233D01*
X128529202Y-138260180D01*
X128105856Y-138252653D01*
X127683601Y-138246635D01*
X127262653Y-138242107D01*
X126843231Y-138239051D01*
X126425554Y-138237448D01*
X126009838Y-138237282D01*
X125596303Y-138238533D01*
X125185167Y-138241183D01*
X124776647Y-138245214D01*
X124370961Y-138250609D01*
X123968328Y-138257348D01*
X123568966Y-138265414D01*
X123173092Y-138274788D01*
X122780926Y-138285453D01*
X122392684Y-138297390D01*
X122008585Y-138310581D01*
X121628847Y-138325007D01*
X121253689Y-138340651D01*
X120883327Y-138357495D01*
X120517982Y-138375520D01*
D10*
X87510914Y-69056308D02*
G75*
G03*
X91082889Y-72628186I3571886J8D01*
G01*
X176212648Y-41671926D02*
G75*
G03*
X179784526Y-38100016I52J3571826D01*
G01*
D11*
X214312680Y-53578154D02*
X214907946Y-53578154D01*
X102989149Y-50006276D02*
X102989149Y-46434445D01*
D10*
X68974014Y-178029723D02*
G75*
G03*
X72443913Y-176786594I1105786J2377723D01*
G01*
X218479846Y-57150032D02*
G75*
G03*
X214907946Y-53578154I-3571846J32D01*
G01*
X144661059Y-35718781D02*
G75*
G03*
X141089181Y-39290642I-159J-3571719D01*
G01*
X99417271Y-53578149D02*
G75*
G03*
X102989149Y-50006276I129J3571749D01*
G01*
X137517303Y-42862581D02*
G75*
G03*
X141089181Y-39290642I97J3571781D01*
G01*
D11*
X164306508Y-41671894D02*
X176212648Y-41671941D01*
X145851685Y-111323515D02*
X151209502Y-111323531D01*
X144661059Y-35718717D02*
X158353138Y-35718642D01*
D10*
X207764205Y-148828283D02*
G75*
G03*
X211336083Y-145256405I95J3571783D01*
G01*
D11*
X87511040Y-107156410D02*
X87510979Y-110132922D01*
X139898555Y-135847579D02*
X142140424Y-131649780D01*
D13*
X189968351Y-40327797D02*
X189968351Y-39286397D01*
X190654151Y-38600597D02*
X192254351Y-38600597D01*
X192254351Y-41013597D02*
X190654151Y-41013597D01*
X192635351Y-38981597D02*
X192635351Y-40632597D01*
X193143351Y-34612797D02*
X193143351Y-32936397D01*
X193829151Y-32250597D02*
X195505551Y-32250597D01*
X193829151Y-35298597D02*
X195505551Y-35298597D01*
X196191351Y-34612797D02*
X196191351Y-32936397D01*
X196699351Y-38981597D02*
X196699351Y-40632597D01*
X197080351Y-41013597D02*
X198680551Y-41013597D01*
X198680551Y-38600597D02*
X197080351Y-38600597D01*
X199366351Y-40327797D02*
X199366351Y-39286397D01*
X190654151Y-41013597D02*
G75*
G03*
X189968351Y-40327797I-438047J247753D01*
G01*
X189968351Y-39286397D02*
G75*
G03*
X190654151Y-38600597I247753J438047D01*
G01*
X192635351Y-38981597D02*
G75*
G03*
X192254351Y-38600597I-380999J1D01*
G01*
X192254351Y-41013597D02*
G75*
G03*
X192635351Y-40632597I1J380999D01*
G01*
X193829151Y-35298597D02*
G75*
G03*
X193143351Y-34612797I-438047J247753D01*
G01*
X193143351Y-32936397D02*
G75*
G03*
X193829151Y-32250597I247753J438047D01*
G01*
X196191351Y-34612797D02*
G75*
G03*
X195505551Y-35298597I-247753J-438047D01*
G01*
X195505551Y-32250597D02*
G75*
G03*
X196191351Y-32936397I438050J-247750D01*
G01*
X197080351Y-38600597D02*
G75*
G03*
X196699351Y-38981597I0J-381000D01*
G01*
X196699351Y-40632597D02*
G75*
G03*
X197080351Y-41013597I381000J0D01*
G01*
X199366351Y-40327797D02*
G75*
G03*
X198680551Y-41013597I-247750J-438050D01*
G01*
X198680551Y-38600597D02*
G75*
G03*
X199366351Y-39286397I438050J-247750D01*
G01*
M02*
