M48
; DRILL file {KiCad 7.0.2} date Do 25 Mai 2023 14:28:40 CEST
; FORMAT={-:-/ absolute / metric / decimal}
; #@! TF.CreationDate,2023-05-25T14:28:40+02:00
; #@! TF.GenerationSoftware,Kicad,Pcbnew,7.0.2
; #@! TF.FileFunction,NonPlated,1,2,NPTH
FMAT,2
METRIC
; #@! TA.AperFunction,NonPlated,NPTH,ComponentDrill
T1C0.700
; #@! TA.AperFunction,NonPlated,NPTH,ComponentDrill
T2C0.991
; #@! TA.AperFunction,NonPlated,NPTH,ComponentDrill
T3C1.800
; #@! TA.AperFunction,NonPlated,NPTH,ComponentDrill
T4C3.000
; #@! TA.AperFunction,NonPlated,NPTH,ComponentDrill
T5C3.400
%
G90
G05
T1
X211.299Y-32.425
X211.299Y-32.425
X214.199Y-32.425
X214.199Y-32.425
T2
X66.221Y-131.439
X71.274Y-173.904
X74.559Y-125.156
X76.494Y-164.862
X83.218Y-156.68
X90.455Y-106.699
X90.455Y-117.139
X90.455Y-59.074
X90.455Y-69.514
X90.455Y-82.886
X90.455Y-93.326
X90.6Y-149.298
X98.878Y-143.198
X107.919Y-137.978
X108.485Y-58.969
X108.485Y-78.019
X108.485Y-97.069
X108.485Y-116.119
X118.925Y-58.969
X118.925Y-78.019
X118.925Y-97.069
X118.925Y-116.119
X121.582Y-135.169
X127.535Y-56.588
X127.535Y-75.638
X127.535Y-94.688
X127.535Y-113.738
X132.022Y-135.169
X137.975Y-56.588
X137.975Y-75.638
X137.975Y-94.688
X137.975Y-113.738
X145.184Y-138.02
X146.585Y-49.444
X146.585Y-68.494
X146.585Y-87.544
X146.585Y-106.594
X154.225Y-143.24
X157.025Y-49.444
X157.025Y-68.494
X157.025Y-87.544
X157.025Y-106.594
X165.635Y-55.397
X165.635Y-74.447
X165.635Y-93.497
X165.635Y-112.547
X176.075Y-55.397
X176.075Y-74.447
X176.075Y-93.497
X176.075Y-112.547
X184.685Y-67.303
X184.685Y-86.353
X184.685Y-105.403
X184.685Y-124.453
X194.21Y-145.885
X195.125Y-67.303
X195.125Y-86.353
X195.125Y-105.403
X195.125Y-124.453
X204.65Y-145.885
X213.155Y-57.883
X213.155Y-68.323
X213.155Y-117.414
X213.155Y-127.854
X213.81Y-88.839
X213.81Y-108.022
X214.72Y-78.439
X214.72Y-97.622
T3
X67.497Y-172.046
X68.525Y-134.962
X72.997Y-162.52
X77.31Y-128.342
X80.05Y-153.908
X87.828Y-146.13
X94.655Y-106.419
X94.655Y-117.419
X94.655Y-58.794
X94.655Y-69.794
X94.655Y-82.606
X94.655Y-93.606
X96.536Y-139.701
X106.062Y-134.201
X108.205Y-54.769
X108.205Y-73.819
X108.205Y-92.869
X108.205Y-111.919
X119.205Y-54.769
X119.205Y-73.819
X119.205Y-92.869
X119.205Y-111.919
X121.302Y-130.969
X127.255Y-52.388
X127.255Y-71.438
X127.255Y-90.488
X127.255Y-109.538
X132.302Y-130.969
X138.255Y-52.388
X138.255Y-71.438
X138.255Y-90.488
X138.255Y-109.538
X146.305Y-45.244
X146.305Y-64.294
X146.305Y-83.344
X146.305Y-102.394
X147.042Y-134.243
X156.568Y-139.743
X157.305Y-45.244
X157.305Y-64.294
X157.305Y-83.344
X157.305Y-102.394
X165.355Y-51.197
X165.355Y-70.247
X165.355Y-89.297
X165.355Y-108.347
X176.355Y-51.197
X176.355Y-70.247
X176.355Y-89.297
X176.355Y-108.347
X184.405Y-63.103
X184.405Y-82.153
X184.405Y-101.203
X184.405Y-120.253
X193.93Y-141.685
X195.405Y-63.103
X195.405Y-82.153
X195.405Y-101.203
X195.405Y-120.253
X204.93Y-141.685
X208.955Y-57.603
X208.955Y-68.603
X208.955Y-117.134
X208.955Y-128.134
X209.602Y-88.752
X209.602Y-107.935
X210.56Y-77.794
X210.56Y-96.977
T4
X64.499Y-169.738
X65.094Y-164.308
X69.499Y-161.078
X71.181Y-137.655
X76.498Y-136.403
X77.752Y-150.903
X79.167Y-131.637
X79.732Y-145.812
X84.823Y-143.832
X95.094Y-136.203
X98.324Y-131.798
X98.405Y-106.919
X98.405Y-116.919
X98.405Y-59.294
X98.405Y-69.294
X98.405Y-83.106
X98.405Y-93.106
X100.605Y-111.919
X100.605Y-64.294
X100.605Y-88.106
X103.754Y-131.203
X108.705Y-51.019
X108.705Y-70.069
X108.705Y-89.119
X108.705Y-108.169
X113.705Y-48.819
X113.705Y-67.869
X113.705Y-86.919
X113.705Y-105.969
X118.705Y-51.019
X118.705Y-70.069
X118.705Y-89.119
X118.705Y-108.169
X121.802Y-127.219
X126.802Y-125.019
X127.755Y-48.638
X127.755Y-67.688
X127.755Y-86.738
X127.755Y-105.788
X131.802Y-127.219
X132.755Y-46.438
X132.755Y-65.488
X132.755Y-84.538
X132.755Y-103.588
X137.755Y-48.638
X137.755Y-67.688
X137.755Y-86.738
X137.755Y-105.788
X146.805Y-41.494
X146.805Y-60.544
X146.805Y-79.594
X146.805Y-98.644
X149.35Y-131.246
X151.805Y-39.294
X151.805Y-58.344
X151.805Y-77.394
X151.805Y-96.444
X154.78Y-131.84
X156.805Y-41.494
X156.805Y-60.544
X156.805Y-79.594
X156.805Y-98.644
X158.01Y-136.246
X165.855Y-47.447
X165.855Y-66.497
X165.855Y-85.547
X165.855Y-104.597
X170.855Y-45.247
X170.855Y-64.297
X170.855Y-83.347
X170.855Y-102.397
X175.855Y-47.447
X175.855Y-66.497
X175.855Y-85.547
X175.855Y-104.597
X184.905Y-59.353
X184.905Y-78.403
X184.905Y-97.453
X184.905Y-116.503
X189.905Y-57.153
X189.905Y-76.203
X189.905Y-95.253
X189.905Y-114.303
X194.43Y-137.935
X194.905Y-59.353
X194.905Y-78.403
X194.905Y-97.453
X194.905Y-116.503
X199.43Y-135.735
X203.005Y-63.103
X203.005Y-122.634
X204.154Y-82.754
X204.154Y-101.937
X204.43Y-137.935
X205.205Y-58.103
X205.205Y-68.103
X205.205Y-117.634
X205.205Y-127.634
X205.909Y-87.927
X205.909Y-107.11
X206.781Y-77.965
X206.781Y-97.148
T5
X70.247Y-167.283
X72.918Y-131.652
X83.939Y-150.019
X94.655Y-111.919
X94.655Y-64.294
X94.655Y-88.106
X101.299Y-136.951
X113.705Y-54.769
X113.705Y-73.819
X113.705Y-92.869
X113.705Y-111.919
X126.802Y-130.969
X132.755Y-52.388
X132.755Y-71.438
X132.755Y-90.488
X132.755Y-109.538
X151.805Y-136.993
X151.805Y-45.244
X151.805Y-64.294
X151.805Y-83.344
X151.805Y-102.394
X170.855Y-51.197
X170.855Y-70.247
X170.855Y-89.297
X170.855Y-108.347
X189.905Y-63.103
X189.905Y-82.153
X189.905Y-101.203
X189.905Y-120.253
X199.43Y-141.685
X208.955Y-63.103
X208.955Y-122.634
X210.081Y-83.273
X210.081Y-102.456
T0
M30
