G04 #@! TF.GenerationSoftware,KiCad,Pcbnew,7.0.2*
G04 #@! TF.CreationDate,2023-05-25T14:28:43+02:00*
G04 #@! TF.ProjectId,mykeeb_v7a3,6d796b65-6562-45f7-9637-61332e6b6963,rev?*
G04 #@! TF.SameCoordinates,Original*
G04 #@! TF.FileFunction,Legend,Bot*
G04 #@! TF.FilePolarity,Positive*
%FSLAX46Y46*%
G04 Gerber Fmt 4.6, Leading zero omitted, Abs format (unit mm)*
G04 Created by KiCad (PCBNEW 7.0.2) date 2023-05-25 14:28:43*
%MOMM*%
%LPD*%
G01*
G04 APERTURE LIST*
G04 Aperture macros list*
%AMRoundRect*
0 Rectangle with rounded corners*
0 $1 Rounding radius*
0 $2 $3 $4 $5 $6 $7 $8 $9 X,Y pos of 4 corners*
0 Add a 4 corners polygon primitive as box body*
4,1,4,$2,$3,$4,$5,$6,$7,$8,$9,$2,$3,0*
0 Add four circle primitives for the rounded corners*
1,1,$1+$1,$2,$3*
1,1,$1+$1,$4,$5*
1,1,$1+$1,$6,$7*
1,1,$1+$1,$8,$9*
0 Add four rect primitives between the rounded corners*
20,1,$1+$1,$2,$3,$4,$5,0*
20,1,$1+$1,$4,$5,$6,$7,0*
20,1,$1+$1,$6,$7,$8,$9,0*
20,1,$1+$1,$8,$9,$2,$3,0*%
%AMRotRect*
0 Rectangle, with rotation*
0 The origin of the aperture is its center*
0 $1 length*
0 $2 width*
0 $3 Rotation angle, in degrees counterclockwise*
0 Add horizontal line*
21,1,$1,$2,0,0,$3*%
%AMFreePoly0*
4,1,6,0.500000,-0.750000,-0.500000,-0.750000,-1.000000,0.000000,-0.500000,0.750000,0.500000,0.750000,0.500000,-0.750000,0.500000,-0.750000,$1*%
%AMFreePoly1*
4,1,6,0.150000,0.000000,0.650000,-0.750000,-0.500000,-0.750000,-0.500000,0.750000,0.650000,0.750000,0.150000,0.000000,0.150000,0.000000,$1*%
G04 Aperture macros list end*
%ADD10C,0.150000*%
%ADD11C,0.300000*%
%ADD12C,0.120000*%
%ADD13C,1.800000*%
%ADD14C,0.990600*%
%ADD15C,3.000000*%
%ADD16C,3.400000*%
%ADD17RotRect,2.600000X2.600000X210.000000*%
%ADD18RotRect,2.600000X2.600000X265.000000*%
%ADD19R,2.600000X2.600000*%
%ADD20RotRect,2.600000X2.600000X225.000000*%
%ADD21RotRect,2.600000X2.600000X240.000000*%
%ADD22RoundRect,0.250000X-0.625000X0.350000X-0.625000X-0.350000X0.625000X-0.350000X0.625000X0.350000X0*%
%ADD23O,1.750000X1.200000*%
%ADD24RotRect,2.600000X2.600000X37.000000*%
%ADD25C,0.700000*%
%ADD26FreePoly0,0.000000*%
%ADD27O,2.750000X1.800000*%
%ADD28FreePoly0,90.000000*%
%ADD29R,1.000000X1.700000*%
%ADD30C,1.397000*%
%ADD31FreePoly0,270.000000*%
%ADD32FreePoly0,180.000000*%
%ADD33FreePoly1,0.000000*%
%ADD34FreePoly1,90.000000*%
%ADD35FreePoly1,270.000000*%
%ADD36FreePoly1,180.000000*%
%ADD37RotRect,2.600000X2.600000X150.000000*%
%ADD38R,0.800000X1.900000*%
%ADD39R,1.100000X0.600000*%
%ADD40R,1.000000X0.600000*%
%ADD41R,0.600000X1.000000*%
%ADD42RoundRect,0.150000X-0.789471X0.282596X0.639471X-0.542404X0.789471X-0.282596X-0.639471X0.542404X0*%
%ADD43C,2.000000*%
G04 APERTURE END LIST*
D10*
X158221974Y-128484188D02*
X158221974Y-128674664D01*
X158174355Y-128674664D02*
X158174355Y-128484188D01*
X158126736Y-128436569D02*
X158126736Y-128722283D01*
X158079117Y-128674664D02*
X158079117Y-128484188D01*
X158031498Y-128484188D02*
X158031498Y-128674664D01*
X158221974Y-128627045D02*
X158126736Y-128722283D01*
X158126736Y-128722283D02*
X158031498Y-128627045D01*
X158221974Y-128531807D02*
X158126736Y-128436569D01*
X158126736Y-128436569D02*
X158031498Y-128531807D01*
X158221974Y-128484188D02*
X158126736Y-128436569D01*
X158126736Y-128436569D02*
X158031498Y-128484188D01*
X158031498Y-128484188D02*
X157983879Y-128579426D01*
X157983879Y-128579426D02*
X158031498Y-128674664D01*
X158031498Y-128674664D02*
X158126736Y-128722283D01*
X158126736Y-128722283D02*
X158221974Y-128674664D01*
X158221974Y-128674664D02*
X158269593Y-128579426D01*
X158269593Y-128579426D02*
X158221974Y-128484188D01*
D11*
X218008667Y-37028048D02*
X216865810Y-37028048D01*
X217437238Y-37599476D02*
X217437238Y-36456619D01*
X124015730Y-101210264D02*
X124015730Y-102424550D01*
X124015730Y-102424550D02*
X124087158Y-102567407D01*
X124087158Y-102567407D02*
X124158587Y-102638836D01*
X124158587Y-102638836D02*
X124301444Y-102710264D01*
X124301444Y-102710264D02*
X124515730Y-102710264D01*
X124515730Y-102710264D02*
X124658587Y-102638836D01*
X124015730Y-102138836D02*
X124158587Y-102210264D01*
X124158587Y-102210264D02*
X124444301Y-102210264D01*
X124444301Y-102210264D02*
X124587158Y-102138836D01*
X124587158Y-102138836D02*
X124658587Y-102067407D01*
X124658587Y-102067407D02*
X124730015Y-101924550D01*
X124730015Y-101924550D02*
X124730015Y-101495978D01*
X124730015Y-101495978D02*
X124658587Y-101353121D01*
X124658587Y-101353121D02*
X124587158Y-101281693D01*
X124587158Y-101281693D02*
X124444301Y-101210264D01*
X124444301Y-101210264D02*
X124158587Y-101210264D01*
X124158587Y-101210264D02*
X124015730Y-101281693D01*
X123301444Y-102210264D02*
X123301444Y-101210264D01*
X123301444Y-100710264D02*
X123372872Y-100781693D01*
X123372872Y-100781693D02*
X123301444Y-100853121D01*
X123301444Y-100853121D02*
X123230015Y-100781693D01*
X123230015Y-100781693D02*
X123301444Y-100710264D01*
X123301444Y-100710264D02*
X123301444Y-100853121D01*
X122801443Y-101210264D02*
X122230015Y-101210264D01*
X122587158Y-100710264D02*
X122587158Y-101995978D01*
X122587158Y-101995978D02*
X122515729Y-102138836D01*
X122515729Y-102138836D02*
X122372872Y-102210264D01*
X122372872Y-102210264D02*
X122230015Y-102210264D01*
X121730015Y-102210264D02*
X121730015Y-100710264D01*
X121087158Y-102210264D02*
X121087158Y-101424550D01*
X121087158Y-101424550D02*
X121158586Y-101281693D01*
X121158586Y-101281693D02*
X121301443Y-101210264D01*
X121301443Y-101210264D02*
X121515729Y-101210264D01*
X121515729Y-101210264D02*
X121658586Y-101281693D01*
X121658586Y-101281693D02*
X121730015Y-101353121D01*
X119730015Y-101210264D02*
X119730015Y-102210264D01*
X120372872Y-101210264D02*
X120372872Y-101995978D01*
X120372872Y-101995978D02*
X120301443Y-102138836D01*
X120301443Y-102138836D02*
X120158586Y-102210264D01*
X120158586Y-102210264D02*
X119944300Y-102210264D01*
X119944300Y-102210264D02*
X119801443Y-102138836D01*
X119801443Y-102138836D02*
X119730015Y-102067407D01*
X119015729Y-102210264D02*
X119015729Y-100710264D01*
X119015729Y-101281693D02*
X118872872Y-101210264D01*
X118872872Y-101210264D02*
X118587157Y-101210264D01*
X118587157Y-101210264D02*
X118444300Y-101281693D01*
X118444300Y-101281693D02*
X118372872Y-101353121D01*
X118372872Y-101353121D02*
X118301443Y-101495978D01*
X118301443Y-101495978D02*
X118301443Y-101924550D01*
X118301443Y-101924550D02*
X118372872Y-102067407D01*
X118372872Y-102067407D02*
X118444300Y-102138836D01*
X118444300Y-102138836D02*
X118587157Y-102210264D01*
X118587157Y-102210264D02*
X118872872Y-102210264D01*
X118872872Y-102210264D02*
X119015729Y-102138836D01*
X117658586Y-102067407D02*
X117587157Y-102138836D01*
X117587157Y-102138836D02*
X117658586Y-102210264D01*
X117658586Y-102210264D02*
X117730014Y-102138836D01*
X117730014Y-102138836D02*
X117658586Y-102067407D01*
X117658586Y-102067407D02*
X117658586Y-102210264D01*
X116301443Y-102138836D02*
X116444300Y-102210264D01*
X116444300Y-102210264D02*
X116730014Y-102210264D01*
X116730014Y-102210264D02*
X116872871Y-102138836D01*
X116872871Y-102138836D02*
X116944300Y-102067407D01*
X116944300Y-102067407D02*
X117015728Y-101924550D01*
X117015728Y-101924550D02*
X117015728Y-101495978D01*
X117015728Y-101495978D02*
X116944300Y-101353121D01*
X116944300Y-101353121D02*
X116872871Y-101281693D01*
X116872871Y-101281693D02*
X116730014Y-101210264D01*
X116730014Y-101210264D02*
X116444300Y-101210264D01*
X116444300Y-101210264D02*
X116301443Y-101281693D01*
X115444300Y-102210264D02*
X115587157Y-102138836D01*
X115587157Y-102138836D02*
X115658586Y-102067407D01*
X115658586Y-102067407D02*
X115730014Y-101924550D01*
X115730014Y-101924550D02*
X115730014Y-101495978D01*
X115730014Y-101495978D02*
X115658586Y-101353121D01*
X115658586Y-101353121D02*
X115587157Y-101281693D01*
X115587157Y-101281693D02*
X115444300Y-101210264D01*
X115444300Y-101210264D02*
X115230014Y-101210264D01*
X115230014Y-101210264D02*
X115087157Y-101281693D01*
X115087157Y-101281693D02*
X115015729Y-101353121D01*
X115015729Y-101353121D02*
X114944300Y-101495978D01*
X114944300Y-101495978D02*
X114944300Y-101924550D01*
X114944300Y-101924550D02*
X115015729Y-102067407D01*
X115015729Y-102067407D02*
X115087157Y-102138836D01*
X115087157Y-102138836D02*
X115230014Y-102210264D01*
X115230014Y-102210264D02*
X115444300Y-102210264D01*
X114301443Y-102210264D02*
X114301443Y-101210264D01*
X114301443Y-101353121D02*
X114230014Y-101281693D01*
X114230014Y-101281693D02*
X114087157Y-101210264D01*
X114087157Y-101210264D02*
X113872871Y-101210264D01*
X113872871Y-101210264D02*
X113730014Y-101281693D01*
X113730014Y-101281693D02*
X113658586Y-101424550D01*
X113658586Y-101424550D02*
X113658586Y-102210264D01*
X113658586Y-101424550D02*
X113587157Y-101281693D01*
X113587157Y-101281693D02*
X113444300Y-101210264D01*
X113444300Y-101210264D02*
X113230014Y-101210264D01*
X113230014Y-101210264D02*
X113087157Y-101281693D01*
X113087157Y-101281693D02*
X113015728Y-101424550D01*
X113015728Y-101424550D02*
X113015728Y-102210264D01*
X111230014Y-100638836D02*
X112515728Y-102567407D01*
X110730014Y-102210264D02*
X110730014Y-101210264D01*
X110730014Y-101353121D02*
X110658585Y-101281693D01*
X110658585Y-101281693D02*
X110515728Y-101210264D01*
X110515728Y-101210264D02*
X110301442Y-101210264D01*
X110301442Y-101210264D02*
X110158585Y-101281693D01*
X110158585Y-101281693D02*
X110087157Y-101424550D01*
X110087157Y-101424550D02*
X110087157Y-102210264D01*
X110087157Y-101424550D02*
X110015728Y-101281693D01*
X110015728Y-101281693D02*
X109872871Y-101210264D01*
X109872871Y-101210264D02*
X109658585Y-101210264D01*
X109658585Y-101210264D02*
X109515728Y-101281693D01*
X109515728Y-101281693D02*
X109444299Y-101424550D01*
X109444299Y-101424550D02*
X109444299Y-102210264D01*
X108087157Y-102210264D02*
X108087157Y-101424550D01*
X108087157Y-101424550D02*
X108158585Y-101281693D01*
X108158585Y-101281693D02*
X108301442Y-101210264D01*
X108301442Y-101210264D02*
X108587157Y-101210264D01*
X108587157Y-101210264D02*
X108730014Y-101281693D01*
X108087157Y-102138836D02*
X108230014Y-102210264D01*
X108230014Y-102210264D02*
X108587157Y-102210264D01*
X108587157Y-102210264D02*
X108730014Y-102138836D01*
X108730014Y-102138836D02*
X108801442Y-101995978D01*
X108801442Y-101995978D02*
X108801442Y-101853121D01*
X108801442Y-101853121D02*
X108730014Y-101710264D01*
X108730014Y-101710264D02*
X108587157Y-101638836D01*
X108587157Y-101638836D02*
X108230014Y-101638836D01*
X108230014Y-101638836D02*
X108087157Y-101567407D01*
X107515728Y-102210264D02*
X106730014Y-101210264D01*
X107515728Y-101210264D02*
X106730014Y-102210264D01*
X106158585Y-102210264D02*
X106158585Y-100710264D01*
X105515728Y-102210264D02*
X105515728Y-101424550D01*
X105515728Y-101424550D02*
X105587156Y-101281693D01*
X105587156Y-101281693D02*
X105730013Y-101210264D01*
X105730013Y-101210264D02*
X105944299Y-101210264D01*
X105944299Y-101210264D02*
X106087156Y-101281693D01*
X106087156Y-101281693D02*
X106158585Y-101353121D01*
X104801442Y-102210264D02*
X104801442Y-100710264D01*
X104801442Y-101281693D02*
X104658585Y-101210264D01*
X104658585Y-101210264D02*
X104372870Y-101210264D01*
X104372870Y-101210264D02*
X104230013Y-101281693D01*
X104230013Y-101281693D02*
X104158585Y-101353121D01*
X104158585Y-101353121D02*
X104087156Y-101495978D01*
X104087156Y-101495978D02*
X104087156Y-101924550D01*
X104087156Y-101924550D02*
X104158585Y-102067407D01*
X104158585Y-102067407D02*
X104230013Y-102138836D01*
X104230013Y-102138836D02*
X104372870Y-102210264D01*
X104372870Y-102210264D02*
X104658585Y-102210264D01*
X104658585Y-102210264D02*
X104801442Y-102138836D01*
X103444299Y-102210264D02*
X103444299Y-101210264D01*
X103444299Y-101495978D02*
X103372870Y-101353121D01*
X103372870Y-101353121D02*
X103301442Y-101281693D01*
X103301442Y-101281693D02*
X103158584Y-101210264D01*
X103158584Y-101210264D02*
X103015727Y-101210264D01*
D10*
X99227690Y-140935228D02*
X99127781Y-141047896D01*
X99127781Y-141047896D02*
X98921585Y-141166944D01*
X98921585Y-141166944D02*
X98815297Y-141173323D01*
X98815297Y-141173323D02*
X98750248Y-141155894D01*
X98750248Y-141155894D02*
X98661390Y-141097225D01*
X98661390Y-141097225D02*
X98613771Y-141014746D01*
X98613771Y-141014746D02*
X98607391Y-140908458D01*
X98607391Y-140908458D02*
X98624821Y-140843409D01*
X98624821Y-140843409D02*
X98683490Y-140754551D01*
X98683490Y-140754551D02*
X98824637Y-140618073D01*
X98824637Y-140618073D02*
X98883306Y-140529215D01*
X98883306Y-140529215D02*
X98900736Y-140464166D01*
X98900736Y-140464166D02*
X98894357Y-140357878D01*
X98894357Y-140357878D02*
X98846737Y-140275399D01*
X98846737Y-140275399D02*
X98757879Y-140216730D01*
X98757879Y-140216730D02*
X98692830Y-140199300D01*
X98692830Y-140199300D02*
X98586542Y-140205680D01*
X98586542Y-140205680D02*
X98380346Y-140324728D01*
X98380346Y-140324728D02*
X98280437Y-140437396D01*
X98123569Y-141022835D02*
X97834894Y-141189502D01*
X97973081Y-141714563D02*
X98385474Y-141476467D01*
X98385474Y-141476467D02*
X97885474Y-140610442D01*
X97885474Y-140610442D02*
X97473081Y-140848537D01*
X97184406Y-141015204D02*
X96648295Y-141324728D01*
X96648295Y-141324728D02*
X97127446Y-141487976D01*
X97127446Y-141487976D02*
X97003728Y-141559404D01*
X97003728Y-141559404D02*
X96945059Y-141648263D01*
X96945059Y-141648263D02*
X96927629Y-141713311D01*
X96927629Y-141713311D02*
X96934009Y-141819599D01*
X96934009Y-141819599D02*
X97053057Y-142025796D01*
X97053057Y-142025796D02*
X97141915Y-142084465D01*
X97141915Y-142084465D02*
X97206964Y-142101895D01*
X97206964Y-142101895D02*
X97313252Y-142095515D01*
X97313252Y-142095515D02*
X97560688Y-141952658D01*
X97560688Y-141952658D02*
X97619357Y-141863800D01*
X97619357Y-141863800D02*
X97636787Y-141798751D01*
X212160929Y-87207271D02*
X212195916Y-87353735D01*
X212195916Y-87353735D02*
X212175164Y-87590924D01*
X212175164Y-87590924D02*
X212119426Y-87681650D01*
X212119426Y-87681650D02*
X212067838Y-87724937D01*
X212067838Y-87724937D02*
X211968812Y-87764075D01*
X211968812Y-87764075D02*
X211873936Y-87755774D01*
X211873936Y-87755774D02*
X211783211Y-87700036D01*
X211783211Y-87700036D02*
X211739923Y-87648447D01*
X211739923Y-87648447D02*
X211700786Y-87549422D01*
X211700786Y-87549422D02*
X211669949Y-87355520D01*
X211669949Y-87355520D02*
X211630812Y-87256494D01*
X211630812Y-87256494D02*
X211587524Y-87204906D01*
X211587524Y-87204906D02*
X211496799Y-87149167D01*
X211496799Y-87149167D02*
X211401923Y-87140867D01*
X211401923Y-87140867D02*
X211302897Y-87180004D01*
X211302897Y-87180004D02*
X211251309Y-87223292D01*
X211251309Y-87223292D02*
X211195571Y-87314017D01*
X211195571Y-87314017D02*
X211174819Y-87551206D01*
X211174819Y-87551206D02*
X211209806Y-87697670D01*
X211570342Y-88494028D02*
X211605329Y-88640492D01*
X211605329Y-88640492D02*
X211648617Y-88692080D01*
X211648617Y-88692080D02*
X211739342Y-88747818D01*
X211739342Y-88747818D02*
X211881656Y-88760269D01*
X211881656Y-88760269D02*
X211980682Y-88721132D01*
X211980682Y-88721132D02*
X212032270Y-88677844D01*
X212032270Y-88677844D02*
X212088008Y-88587119D01*
X212088008Y-88587119D02*
X212121211Y-88207616D01*
X212121211Y-88207616D02*
X211125016Y-88120461D01*
X211125016Y-88120461D02*
X211095964Y-88452525D01*
X211095964Y-88452525D02*
X211135101Y-88551551D01*
X211135101Y-88551551D02*
X211178389Y-88603140D01*
X211178389Y-88603140D02*
X211269114Y-88658878D01*
X211269114Y-88658878D02*
X211363990Y-88667178D01*
X211363990Y-88667178D02*
X211463016Y-88628041D01*
X211463016Y-88628041D02*
X211514604Y-88584754D01*
X211514604Y-88584754D02*
X211570342Y-88494028D01*
X211570342Y-88494028D02*
X211599394Y-88161963D01*
X211021259Y-89306407D02*
X211012959Y-89401282D01*
X211012959Y-89401282D02*
X211052096Y-89500308D01*
X211052096Y-89500308D02*
X211095383Y-89551896D01*
X211095383Y-89551896D02*
X211186109Y-89607635D01*
X211186109Y-89607635D02*
X211371710Y-89671674D01*
X211371710Y-89671674D02*
X211608899Y-89692425D01*
X211608899Y-89692425D02*
X211802801Y-89661588D01*
X211802801Y-89661588D02*
X211901827Y-89622451D01*
X211901827Y-89622451D02*
X211953415Y-89579163D01*
X211953415Y-89579163D02*
X212009153Y-89488438D01*
X212009153Y-89488438D02*
X212017454Y-89393562D01*
X212017454Y-89393562D02*
X211978317Y-89294536D01*
X211978317Y-89294536D02*
X211935029Y-89242948D01*
X211935029Y-89242948D02*
X211844304Y-89187210D01*
X211844304Y-89187210D02*
X211658702Y-89123171D01*
X211658702Y-89123171D02*
X211421513Y-89102420D01*
X211421513Y-89102420D02*
X211227612Y-89133256D01*
X211227612Y-89133256D02*
X211128586Y-89172394D01*
X211128586Y-89172394D02*
X211076998Y-89215681D01*
X211076998Y-89215681D02*
X211021259Y-89306407D01*
X167116719Y-72661920D02*
X166973862Y-72709539D01*
X166973862Y-72709539D02*
X166735767Y-72709539D01*
X166735767Y-72709539D02*
X166640529Y-72661920D01*
X166640529Y-72661920D02*
X166592910Y-72614300D01*
X166592910Y-72614300D02*
X166545291Y-72519062D01*
X166545291Y-72519062D02*
X166545291Y-72423824D01*
X166545291Y-72423824D02*
X166592910Y-72328586D01*
X166592910Y-72328586D02*
X166640529Y-72280967D01*
X166640529Y-72280967D02*
X166735767Y-72233348D01*
X166735767Y-72233348D02*
X166926243Y-72185729D01*
X166926243Y-72185729D02*
X167021481Y-72138110D01*
X167021481Y-72138110D02*
X167069100Y-72090491D01*
X167069100Y-72090491D02*
X167116719Y-71995253D01*
X167116719Y-71995253D02*
X167116719Y-71900015D01*
X167116719Y-71900015D02*
X167069100Y-71804777D01*
X167069100Y-71804777D02*
X167021481Y-71757158D01*
X167021481Y-71757158D02*
X166926243Y-71709539D01*
X166926243Y-71709539D02*
X166688148Y-71709539D01*
X166688148Y-71709539D02*
X166545291Y-71757158D01*
X165783386Y-72185729D02*
X165640529Y-72233348D01*
X165640529Y-72233348D02*
X165592910Y-72280967D01*
X165592910Y-72280967D02*
X165545291Y-72376205D01*
X165545291Y-72376205D02*
X165545291Y-72519062D01*
X165545291Y-72519062D02*
X165592910Y-72614300D01*
X165592910Y-72614300D02*
X165640529Y-72661920D01*
X165640529Y-72661920D02*
X165735767Y-72709539D01*
X165735767Y-72709539D02*
X166116719Y-72709539D01*
X166116719Y-72709539D02*
X166116719Y-71709539D01*
X166116719Y-71709539D02*
X165783386Y-71709539D01*
X165783386Y-71709539D02*
X165688148Y-71757158D01*
X165688148Y-71757158D02*
X165640529Y-71804777D01*
X165640529Y-71804777D02*
X165592910Y-71900015D01*
X165592910Y-71900015D02*
X165592910Y-71995253D01*
X165592910Y-71995253D02*
X165640529Y-72090491D01*
X165640529Y-72090491D02*
X165688148Y-72138110D01*
X165688148Y-72138110D02*
X165783386Y-72185729D01*
X165783386Y-72185729D02*
X166116719Y-72185729D01*
X165164338Y-71804777D02*
X165116719Y-71757158D01*
X165116719Y-71757158D02*
X165021481Y-71709539D01*
X165021481Y-71709539D02*
X164783386Y-71709539D01*
X164783386Y-71709539D02*
X164688148Y-71757158D01*
X164688148Y-71757158D02*
X164640529Y-71804777D01*
X164640529Y-71804777D02*
X164592910Y-71900015D01*
X164592910Y-71900015D02*
X164592910Y-71995253D01*
X164592910Y-71995253D02*
X164640529Y-72138110D01*
X164640529Y-72138110D02*
X165211957Y-72709539D01*
X165211957Y-72709539D02*
X164592910Y-72709539D01*
X186166719Y-103618220D02*
X186023862Y-103665839D01*
X186023862Y-103665839D02*
X185785767Y-103665839D01*
X185785767Y-103665839D02*
X185690529Y-103618220D01*
X185690529Y-103618220D02*
X185642910Y-103570600D01*
X185642910Y-103570600D02*
X185595291Y-103475362D01*
X185595291Y-103475362D02*
X185595291Y-103380124D01*
X185595291Y-103380124D02*
X185642910Y-103284886D01*
X185642910Y-103284886D02*
X185690529Y-103237267D01*
X185690529Y-103237267D02*
X185785767Y-103189648D01*
X185785767Y-103189648D02*
X185976243Y-103142029D01*
X185976243Y-103142029D02*
X186071481Y-103094410D01*
X186071481Y-103094410D02*
X186119100Y-103046791D01*
X186119100Y-103046791D02*
X186166719Y-102951553D01*
X186166719Y-102951553D02*
X186166719Y-102856315D01*
X186166719Y-102856315D02*
X186119100Y-102761077D01*
X186119100Y-102761077D02*
X186071481Y-102713458D01*
X186071481Y-102713458D02*
X185976243Y-102665839D01*
X185976243Y-102665839D02*
X185738148Y-102665839D01*
X185738148Y-102665839D02*
X185595291Y-102713458D01*
X184595291Y-103570600D02*
X184642910Y-103618220D01*
X184642910Y-103618220D02*
X184785767Y-103665839D01*
X184785767Y-103665839D02*
X184881005Y-103665839D01*
X184881005Y-103665839D02*
X185023862Y-103618220D01*
X185023862Y-103618220D02*
X185119100Y-103522981D01*
X185119100Y-103522981D02*
X185166719Y-103427743D01*
X185166719Y-103427743D02*
X185214338Y-103237267D01*
X185214338Y-103237267D02*
X185214338Y-103094410D01*
X185214338Y-103094410D02*
X185166719Y-102903934D01*
X185166719Y-102903934D02*
X185119100Y-102808696D01*
X185119100Y-102808696D02*
X185023862Y-102713458D01*
X185023862Y-102713458D02*
X184881005Y-102665839D01*
X184881005Y-102665839D02*
X184785767Y-102665839D01*
X184785767Y-102665839D02*
X184642910Y-102713458D01*
X184642910Y-102713458D02*
X184595291Y-102761077D01*
X183642910Y-103665839D02*
X184214338Y-103665839D01*
X183928624Y-103665839D02*
X183928624Y-102665839D01*
X183928624Y-102665839D02*
X184023862Y-102808696D01*
X184023862Y-102808696D02*
X184119100Y-102903934D01*
X184119100Y-102903934D02*
X184214338Y-102951553D01*
X129016719Y-73852620D02*
X128873862Y-73900239D01*
X128873862Y-73900239D02*
X128635767Y-73900239D01*
X128635767Y-73900239D02*
X128540529Y-73852620D01*
X128540529Y-73852620D02*
X128492910Y-73805000D01*
X128492910Y-73805000D02*
X128445291Y-73709762D01*
X128445291Y-73709762D02*
X128445291Y-73614524D01*
X128445291Y-73614524D02*
X128492910Y-73519286D01*
X128492910Y-73519286D02*
X128540529Y-73471667D01*
X128540529Y-73471667D02*
X128635767Y-73424048D01*
X128635767Y-73424048D02*
X128826243Y-73376429D01*
X128826243Y-73376429D02*
X128921481Y-73328810D01*
X128921481Y-73328810D02*
X128969100Y-73281191D01*
X128969100Y-73281191D02*
X129016719Y-73185953D01*
X129016719Y-73185953D02*
X129016719Y-73090715D01*
X129016719Y-73090715D02*
X128969100Y-72995477D01*
X128969100Y-72995477D02*
X128921481Y-72947858D01*
X128921481Y-72947858D02*
X128826243Y-72900239D01*
X128826243Y-72900239D02*
X128588148Y-72900239D01*
X128588148Y-72900239D02*
X128445291Y-72947858D01*
X127683386Y-73376429D02*
X127540529Y-73424048D01*
X127540529Y-73424048D02*
X127492910Y-73471667D01*
X127492910Y-73471667D02*
X127445291Y-73566905D01*
X127445291Y-73566905D02*
X127445291Y-73709762D01*
X127445291Y-73709762D02*
X127492910Y-73805000D01*
X127492910Y-73805000D02*
X127540529Y-73852620D01*
X127540529Y-73852620D02*
X127635767Y-73900239D01*
X127635767Y-73900239D02*
X128016719Y-73900239D01*
X128016719Y-73900239D02*
X128016719Y-72900239D01*
X128016719Y-72900239D02*
X127683386Y-72900239D01*
X127683386Y-72900239D02*
X127588148Y-72947858D01*
X127588148Y-72947858D02*
X127540529Y-72995477D01*
X127540529Y-72995477D02*
X127492910Y-73090715D01*
X127492910Y-73090715D02*
X127492910Y-73185953D01*
X127492910Y-73185953D02*
X127540529Y-73281191D01*
X127540529Y-73281191D02*
X127588148Y-73328810D01*
X127588148Y-73328810D02*
X127683386Y-73376429D01*
X127683386Y-73376429D02*
X128016719Y-73376429D01*
X126588148Y-73233572D02*
X126588148Y-73900239D01*
X126826243Y-72852620D02*
X127064338Y-73566905D01*
X127064338Y-73566905D02*
X126445291Y-73566905D01*
X186166719Y-122668220D02*
X186023862Y-122715839D01*
X186023862Y-122715839D02*
X185785767Y-122715839D01*
X185785767Y-122715839D02*
X185690529Y-122668220D01*
X185690529Y-122668220D02*
X185642910Y-122620600D01*
X185642910Y-122620600D02*
X185595291Y-122525362D01*
X185595291Y-122525362D02*
X185595291Y-122430124D01*
X185595291Y-122430124D02*
X185642910Y-122334886D01*
X185642910Y-122334886D02*
X185690529Y-122287267D01*
X185690529Y-122287267D02*
X185785767Y-122239648D01*
X185785767Y-122239648D02*
X185976243Y-122192029D01*
X185976243Y-122192029D02*
X186071481Y-122144410D01*
X186071481Y-122144410D02*
X186119100Y-122096791D01*
X186119100Y-122096791D02*
X186166719Y-122001553D01*
X186166719Y-122001553D02*
X186166719Y-121906315D01*
X186166719Y-121906315D02*
X186119100Y-121811077D01*
X186119100Y-121811077D02*
X186071481Y-121763458D01*
X186071481Y-121763458D02*
X185976243Y-121715839D01*
X185976243Y-121715839D02*
X185738148Y-121715839D01*
X185738148Y-121715839D02*
X185595291Y-121763458D01*
X185166719Y-122715839D02*
X185166719Y-121715839D01*
X185166719Y-121715839D02*
X184928624Y-121715839D01*
X184928624Y-121715839D02*
X184785767Y-121763458D01*
X184785767Y-121763458D02*
X184690529Y-121858696D01*
X184690529Y-121858696D02*
X184642910Y-121953934D01*
X184642910Y-121953934D02*
X184595291Y-122144410D01*
X184595291Y-122144410D02*
X184595291Y-122287267D01*
X184595291Y-122287267D02*
X184642910Y-122477743D01*
X184642910Y-122477743D02*
X184690529Y-122572981D01*
X184690529Y-122572981D02*
X184785767Y-122668220D01*
X184785767Y-122668220D02*
X184928624Y-122715839D01*
X184928624Y-122715839D02*
X185166719Y-122715839D01*
X183642910Y-122715839D02*
X184214338Y-122715839D01*
X183928624Y-122715839D02*
X183928624Y-121715839D01*
X183928624Y-121715839D02*
X184023862Y-121858696D01*
X184023862Y-121858696D02*
X184119100Y-121953934D01*
X184119100Y-121953934D02*
X184214338Y-122001553D01*
X147995258Y-47658780D02*
X147852401Y-47706399D01*
X147852401Y-47706399D02*
X147614306Y-47706399D01*
X147614306Y-47706399D02*
X147519068Y-47658780D01*
X147519068Y-47658780D02*
X147471449Y-47611160D01*
X147471449Y-47611160D02*
X147423830Y-47515922D01*
X147423830Y-47515922D02*
X147423830Y-47420684D01*
X147423830Y-47420684D02*
X147471449Y-47325446D01*
X147471449Y-47325446D02*
X147519068Y-47277827D01*
X147519068Y-47277827D02*
X147614306Y-47230208D01*
X147614306Y-47230208D02*
X147804782Y-47182589D01*
X147804782Y-47182589D02*
X147900020Y-47134970D01*
X147900020Y-47134970D02*
X147947639Y-47087351D01*
X147947639Y-47087351D02*
X147995258Y-46992113D01*
X147995258Y-46992113D02*
X147995258Y-46896875D01*
X147995258Y-46896875D02*
X147947639Y-46801637D01*
X147947639Y-46801637D02*
X147900020Y-46754018D01*
X147900020Y-46754018D02*
X147804782Y-46706399D01*
X147804782Y-46706399D02*
X147566687Y-46706399D01*
X147566687Y-46706399D02*
X147423830Y-46754018D01*
X147042877Y-47420684D02*
X146566687Y-47420684D01*
X147138115Y-47706399D02*
X146804782Y-46706399D01*
X146804782Y-46706399D02*
X146471449Y-47706399D01*
X146233353Y-46706399D02*
X145614306Y-46706399D01*
X145614306Y-46706399D02*
X145947639Y-47087351D01*
X145947639Y-47087351D02*
X145804782Y-47087351D01*
X145804782Y-47087351D02*
X145709544Y-47134970D01*
X145709544Y-47134970D02*
X145661925Y-47182589D01*
X145661925Y-47182589D02*
X145614306Y-47277827D01*
X145614306Y-47277827D02*
X145614306Y-47515922D01*
X145614306Y-47515922D02*
X145661925Y-47611160D01*
X145661925Y-47611160D02*
X145709544Y-47658780D01*
X145709544Y-47658780D02*
X145804782Y-47706399D01*
X145804782Y-47706399D02*
X146090496Y-47706399D01*
X146090496Y-47706399D02*
X146185734Y-47658780D01*
X146185734Y-47658780D02*
X146233353Y-47611160D01*
X211369815Y-126372515D02*
X211417434Y-126515372D01*
X211417434Y-126515372D02*
X211417434Y-126753467D01*
X211417434Y-126753467D02*
X211369815Y-126848705D01*
X211369815Y-126848705D02*
X211322195Y-126896324D01*
X211322195Y-126896324D02*
X211226957Y-126943943D01*
X211226957Y-126943943D02*
X211131719Y-126943943D01*
X211131719Y-126943943D02*
X211036481Y-126896324D01*
X211036481Y-126896324D02*
X210988862Y-126848705D01*
X210988862Y-126848705D02*
X210941243Y-126753467D01*
X210941243Y-126753467D02*
X210893624Y-126562991D01*
X210893624Y-126562991D02*
X210846005Y-126467753D01*
X210846005Y-126467753D02*
X210798386Y-126420134D01*
X210798386Y-126420134D02*
X210703148Y-126372515D01*
X210703148Y-126372515D02*
X210607910Y-126372515D01*
X210607910Y-126372515D02*
X210512672Y-126420134D01*
X210512672Y-126420134D02*
X210465053Y-126467753D01*
X210465053Y-126467753D02*
X210417434Y-126562991D01*
X210417434Y-126562991D02*
X210417434Y-126801086D01*
X210417434Y-126801086D02*
X210465053Y-126943943D01*
X211417434Y-127372515D02*
X210417434Y-127372515D01*
X210417434Y-127372515D02*
X210417434Y-127610610D01*
X210417434Y-127610610D02*
X210465053Y-127753467D01*
X210465053Y-127753467D02*
X210560291Y-127848705D01*
X210560291Y-127848705D02*
X210655529Y-127896324D01*
X210655529Y-127896324D02*
X210846005Y-127943943D01*
X210846005Y-127943943D02*
X210988862Y-127943943D01*
X210988862Y-127943943D02*
X211179338Y-127896324D01*
X211179338Y-127896324D02*
X211274576Y-127848705D01*
X211274576Y-127848705D02*
X211369815Y-127753467D01*
X211369815Y-127753467D02*
X211417434Y-127610610D01*
X211417434Y-127610610D02*
X211417434Y-127372515D01*
X210417434Y-128562991D02*
X210417434Y-128658229D01*
X210417434Y-128658229D02*
X210465053Y-128753467D01*
X210465053Y-128753467D02*
X210512672Y-128801086D01*
X210512672Y-128801086D02*
X210607910Y-128848705D01*
X210607910Y-128848705D02*
X210798386Y-128896324D01*
X210798386Y-128896324D02*
X211036481Y-128896324D01*
X211036481Y-128896324D02*
X211226957Y-128848705D01*
X211226957Y-128848705D02*
X211322195Y-128801086D01*
X211322195Y-128801086D02*
X211369815Y-128753467D01*
X211369815Y-128753467D02*
X211417434Y-128658229D01*
X211417434Y-128658229D02*
X211417434Y-128562991D01*
X211417434Y-128562991D02*
X211369815Y-128467753D01*
X211369815Y-128467753D02*
X211322195Y-128420134D01*
X211322195Y-128420134D02*
X211226957Y-128372515D01*
X211226957Y-128372515D02*
X211036481Y-128324896D01*
X211036481Y-128324896D02*
X210798386Y-128324896D01*
X210798386Y-128324896D02*
X210607910Y-128372515D01*
X210607910Y-128372515D02*
X210512672Y-128420134D01*
X210512672Y-128420134D02*
X210465053Y-128467753D01*
X210465053Y-128467753D02*
X210417434Y-128562991D01*
X211369815Y-66912744D02*
X211417434Y-67055601D01*
X211417434Y-67055601D02*
X211417434Y-67293696D01*
X211417434Y-67293696D02*
X211369815Y-67388934D01*
X211369815Y-67388934D02*
X211322195Y-67436553D01*
X211322195Y-67436553D02*
X211226957Y-67484172D01*
X211226957Y-67484172D02*
X211131719Y-67484172D01*
X211131719Y-67484172D02*
X211036481Y-67436553D01*
X211036481Y-67436553D02*
X210988862Y-67388934D01*
X210988862Y-67388934D02*
X210941243Y-67293696D01*
X210941243Y-67293696D02*
X210893624Y-67103220D01*
X210893624Y-67103220D02*
X210846005Y-67007982D01*
X210846005Y-67007982D02*
X210798386Y-66960363D01*
X210798386Y-66960363D02*
X210703148Y-66912744D01*
X210703148Y-66912744D02*
X210607910Y-66912744D01*
X210607910Y-66912744D02*
X210512672Y-66960363D01*
X210512672Y-66960363D02*
X210465053Y-67007982D01*
X210465053Y-67007982D02*
X210417434Y-67103220D01*
X210417434Y-67103220D02*
X210417434Y-67341315D01*
X210417434Y-67341315D02*
X210465053Y-67484172D01*
X211131719Y-67865125D02*
X211131719Y-68341315D01*
X211417434Y-67769887D02*
X210417434Y-68103220D01*
X210417434Y-68103220D02*
X211417434Y-68436553D01*
X210417434Y-68960363D02*
X210417434Y-69055601D01*
X210417434Y-69055601D02*
X210465053Y-69150839D01*
X210465053Y-69150839D02*
X210512672Y-69198458D01*
X210512672Y-69198458D02*
X210607910Y-69246077D01*
X210607910Y-69246077D02*
X210798386Y-69293696D01*
X210798386Y-69293696D02*
X211036481Y-69293696D01*
X211036481Y-69293696D02*
X211226957Y-69246077D01*
X211226957Y-69246077D02*
X211322195Y-69198458D01*
X211322195Y-69198458D02*
X211369815Y-69150839D01*
X211369815Y-69150839D02*
X211417434Y-69055601D01*
X211417434Y-69055601D02*
X211417434Y-68960363D01*
X211417434Y-68960363D02*
X211369815Y-68865125D01*
X211369815Y-68865125D02*
X211322195Y-68817506D01*
X211322195Y-68817506D02*
X211226957Y-68769887D01*
X211226957Y-68769887D02*
X211036481Y-68722268D01*
X211036481Y-68722268D02*
X210798386Y-68722268D01*
X210798386Y-68722268D02*
X210607910Y-68769887D01*
X210607910Y-68769887D02*
X210512672Y-68817506D01*
X210512672Y-68817506D02*
X210465053Y-68865125D01*
X210465053Y-68865125D02*
X210417434Y-68960363D01*
X123015900Y-133383920D02*
X122873043Y-133431539D01*
X122873043Y-133431539D02*
X122634948Y-133431539D01*
X122634948Y-133431539D02*
X122539710Y-133383920D01*
X122539710Y-133383920D02*
X122492091Y-133336300D01*
X122492091Y-133336300D02*
X122444472Y-133241062D01*
X122444472Y-133241062D02*
X122444472Y-133145824D01*
X122444472Y-133145824D02*
X122492091Y-133050586D01*
X122492091Y-133050586D02*
X122539710Y-133002967D01*
X122539710Y-133002967D02*
X122634948Y-132955348D01*
X122634948Y-132955348D02*
X122825424Y-132907729D01*
X122825424Y-132907729D02*
X122920662Y-132860110D01*
X122920662Y-132860110D02*
X122968281Y-132812491D01*
X122968281Y-132812491D02*
X123015900Y-132717253D01*
X123015900Y-132717253D02*
X123015900Y-132622015D01*
X123015900Y-132622015D02*
X122968281Y-132526777D01*
X122968281Y-132526777D02*
X122920662Y-132479158D01*
X122920662Y-132479158D02*
X122825424Y-132431539D01*
X122825424Y-132431539D02*
X122587329Y-132431539D01*
X122587329Y-132431539D02*
X122444472Y-132479158D01*
X122015900Y-132907729D02*
X121682567Y-132907729D01*
X121539710Y-133431539D02*
X122015900Y-133431539D01*
X122015900Y-133431539D02*
X122015900Y-132431539D01*
X122015900Y-132431539D02*
X121539710Y-132431539D01*
X121158757Y-132526777D02*
X121111138Y-132479158D01*
X121111138Y-132479158D02*
X121015900Y-132431539D01*
X121015900Y-132431539D02*
X120777805Y-132431539D01*
X120777805Y-132431539D02*
X120682567Y-132479158D01*
X120682567Y-132479158D02*
X120634948Y-132526777D01*
X120634948Y-132526777D02*
X120587329Y-132622015D01*
X120587329Y-132622015D02*
X120587329Y-132717253D01*
X120587329Y-132717253D02*
X120634948Y-132860110D01*
X120634948Y-132860110D02*
X121206376Y-133431539D01*
X121206376Y-133431539D02*
X120587329Y-133431539D01*
X93069715Y-105657015D02*
X93117334Y-105799872D01*
X93117334Y-105799872D02*
X93117334Y-106037967D01*
X93117334Y-106037967D02*
X93069715Y-106133205D01*
X93069715Y-106133205D02*
X93022095Y-106180824D01*
X93022095Y-106180824D02*
X92926857Y-106228443D01*
X92926857Y-106228443D02*
X92831619Y-106228443D01*
X92831619Y-106228443D02*
X92736381Y-106180824D01*
X92736381Y-106180824D02*
X92688762Y-106133205D01*
X92688762Y-106133205D02*
X92641143Y-106037967D01*
X92641143Y-106037967D02*
X92593524Y-105847491D01*
X92593524Y-105847491D02*
X92545905Y-105752253D01*
X92545905Y-105752253D02*
X92498286Y-105704634D01*
X92498286Y-105704634D02*
X92403048Y-105657015D01*
X92403048Y-105657015D02*
X92307810Y-105657015D01*
X92307810Y-105657015D02*
X92212572Y-105704634D01*
X92212572Y-105704634D02*
X92164953Y-105752253D01*
X92164953Y-105752253D02*
X92117334Y-105847491D01*
X92117334Y-105847491D02*
X92117334Y-106085586D01*
X92117334Y-106085586D02*
X92164953Y-106228443D01*
X93022095Y-107228443D02*
X93069715Y-107180824D01*
X93069715Y-107180824D02*
X93117334Y-107037967D01*
X93117334Y-107037967D02*
X93117334Y-106942729D01*
X93117334Y-106942729D02*
X93069715Y-106799872D01*
X93069715Y-106799872D02*
X92974476Y-106704634D01*
X92974476Y-106704634D02*
X92879238Y-106657015D01*
X92879238Y-106657015D02*
X92688762Y-106609396D01*
X92688762Y-106609396D02*
X92545905Y-106609396D01*
X92545905Y-106609396D02*
X92355429Y-106657015D01*
X92355429Y-106657015D02*
X92260191Y-106704634D01*
X92260191Y-106704634D02*
X92164953Y-106799872D01*
X92164953Y-106799872D02*
X92117334Y-106942729D01*
X92117334Y-106942729D02*
X92117334Y-107037967D01*
X92117334Y-107037967D02*
X92164953Y-107180824D01*
X92164953Y-107180824D02*
X92212572Y-107228443D01*
X92117334Y-108085586D02*
X92117334Y-107895110D01*
X92117334Y-107895110D02*
X92164953Y-107799872D01*
X92164953Y-107799872D02*
X92212572Y-107752253D01*
X92212572Y-107752253D02*
X92355429Y-107657015D01*
X92355429Y-107657015D02*
X92545905Y-107609396D01*
X92545905Y-107609396D02*
X92926857Y-107609396D01*
X92926857Y-107609396D02*
X93022095Y-107657015D01*
X93022095Y-107657015D02*
X93069715Y-107704634D01*
X93069715Y-107704634D02*
X93117334Y-107799872D01*
X93117334Y-107799872D02*
X93117334Y-107990348D01*
X93117334Y-107990348D02*
X93069715Y-108085586D01*
X93069715Y-108085586D02*
X93022095Y-108133205D01*
X93022095Y-108133205D02*
X92926857Y-108180824D01*
X92926857Y-108180824D02*
X92688762Y-108180824D01*
X92688762Y-108180824D02*
X92593524Y-108133205D01*
X92593524Y-108133205D02*
X92545905Y-108085586D01*
X92545905Y-108085586D02*
X92498286Y-107990348D01*
X92498286Y-107990348D02*
X92498286Y-107799872D01*
X92498286Y-107799872D02*
X92545905Y-107704634D01*
X92545905Y-107704634D02*
X92593524Y-107657015D01*
X92593524Y-107657015D02*
X92688762Y-107609396D01*
X82969874Y-154403386D02*
X82902530Y-154538073D01*
X82902530Y-154538073D02*
X82734171Y-154706432D01*
X82734171Y-154706432D02*
X82633156Y-154740104D01*
X82633156Y-154740104D02*
X82565813Y-154740104D01*
X82565813Y-154740104D02*
X82464797Y-154706432D01*
X82464797Y-154706432D02*
X82397454Y-154639088D01*
X82397454Y-154639088D02*
X82363782Y-154538073D01*
X82363782Y-154538073D02*
X82363782Y-154470730D01*
X82363782Y-154470730D02*
X82397454Y-154369714D01*
X82397454Y-154369714D02*
X82498469Y-154201356D01*
X82498469Y-154201356D02*
X82532141Y-154100340D01*
X82532141Y-154100340D02*
X82532141Y-154032997D01*
X82532141Y-154032997D02*
X82498469Y-153931982D01*
X82498469Y-153931982D02*
X82431126Y-153864638D01*
X82431126Y-153864638D02*
X82330110Y-153830966D01*
X82330110Y-153830966D02*
X82262767Y-153830966D01*
X82262767Y-153830966D02*
X82161752Y-153864638D01*
X82161752Y-153864638D02*
X81993393Y-154032997D01*
X81993393Y-154032997D02*
X81926049Y-154167684D01*
X81926049Y-154773775D02*
X81690347Y-155009478D01*
X81959721Y-155480882D02*
X82296438Y-155144165D01*
X82296438Y-155144165D02*
X81589332Y-154437058D01*
X81589332Y-154437058D02*
X81252614Y-154773775D01*
X80882225Y-155615569D02*
X81353629Y-156086974D01*
X80781210Y-155177836D02*
X81454645Y-155514554D01*
X81454645Y-155514554D02*
X81016912Y-155952287D01*
X186095258Y-65518180D02*
X185952401Y-65565799D01*
X185952401Y-65565799D02*
X185714306Y-65565799D01*
X185714306Y-65565799D02*
X185619068Y-65518180D01*
X185619068Y-65518180D02*
X185571449Y-65470560D01*
X185571449Y-65470560D02*
X185523830Y-65375322D01*
X185523830Y-65375322D02*
X185523830Y-65280084D01*
X185523830Y-65280084D02*
X185571449Y-65184846D01*
X185571449Y-65184846D02*
X185619068Y-65137227D01*
X185619068Y-65137227D02*
X185714306Y-65089608D01*
X185714306Y-65089608D02*
X185904782Y-65041989D01*
X185904782Y-65041989D02*
X186000020Y-64994370D01*
X186000020Y-64994370D02*
X186047639Y-64946751D01*
X186047639Y-64946751D02*
X186095258Y-64851513D01*
X186095258Y-64851513D02*
X186095258Y-64756275D01*
X186095258Y-64756275D02*
X186047639Y-64661037D01*
X186047639Y-64661037D02*
X186000020Y-64613418D01*
X186000020Y-64613418D02*
X185904782Y-64565799D01*
X185904782Y-64565799D02*
X185666687Y-64565799D01*
X185666687Y-64565799D02*
X185523830Y-64613418D01*
X185142877Y-65280084D02*
X184666687Y-65280084D01*
X185238115Y-65565799D02*
X184904782Y-64565799D01*
X184904782Y-64565799D02*
X184571449Y-65565799D01*
X183714306Y-65565799D02*
X184285734Y-65565799D01*
X184000020Y-65565799D02*
X184000020Y-64565799D01*
X184000020Y-64565799D02*
X184095258Y-64708656D01*
X184095258Y-64708656D02*
X184190496Y-64803894D01*
X184190496Y-64803894D02*
X184285734Y-64851513D01*
X70445409Y-171769044D02*
X70415220Y-171916572D01*
X70415220Y-171916572D02*
X70296172Y-172122768D01*
X70296172Y-172122768D02*
X70207314Y-172181437D01*
X70207314Y-172181437D02*
X70142265Y-172198867D01*
X70142265Y-172198867D02*
X70035977Y-172192487D01*
X70035977Y-172192487D02*
X69953498Y-172144868D01*
X69953498Y-172144868D02*
X69894829Y-172056010D01*
X69894829Y-172056010D02*
X69877399Y-171990961D01*
X69877399Y-171990961D02*
X69883779Y-171884673D01*
X69883779Y-171884673D02*
X69937778Y-171695906D01*
X69937778Y-171695906D02*
X69944158Y-171589618D01*
X69944158Y-171589618D02*
X69926728Y-171524569D01*
X69926728Y-171524569D02*
X69868059Y-171435711D01*
X69868059Y-171435711D02*
X69785580Y-171388092D01*
X69785580Y-171388092D02*
X69679292Y-171381712D01*
X69679292Y-171381712D02*
X69614243Y-171399142D01*
X69614243Y-171399142D02*
X69525385Y-171457811D01*
X69525385Y-171457811D02*
X69406337Y-171664007D01*
X69406337Y-171664007D02*
X69376148Y-171811535D01*
X69533016Y-172396974D02*
X69366349Y-172685649D01*
X69748553Y-173071272D02*
X69986648Y-172658879D01*
X69986648Y-172658879D02*
X69120623Y-172158879D01*
X69120623Y-172158879D02*
X68882528Y-172571272D01*
X68430147Y-173354819D02*
X68668242Y-172942426D01*
X68668242Y-172942426D02*
X69104444Y-173139282D01*
X69104444Y-173139282D02*
X69039396Y-173156712D01*
X69039396Y-173156712D02*
X68950537Y-173215381D01*
X68950537Y-173215381D02*
X68831490Y-173421577D01*
X68831490Y-173421577D02*
X68825110Y-173527865D01*
X68825110Y-173527865D02*
X68842540Y-173592914D01*
X68842540Y-173592914D02*
X68901209Y-173681773D01*
X68901209Y-173681773D02*
X69107405Y-173800820D01*
X69107405Y-173800820D02*
X69213693Y-173807200D01*
X69213693Y-173807200D02*
X69278742Y-173789770D01*
X69278742Y-173789770D02*
X69367601Y-173731101D01*
X69367601Y-173731101D02*
X69486648Y-173524905D01*
X69486648Y-173524905D02*
X69493028Y-173418616D01*
X69493028Y-173418616D02*
X69475598Y-173353568D01*
X76964618Y-126617174D02*
X76879185Y-126741178D01*
X76879185Y-126741178D02*
X76689033Y-126884467D01*
X76689033Y-126884467D02*
X76584315Y-126903753D01*
X76584315Y-126903753D02*
X76517627Y-126894380D01*
X76517627Y-126894380D02*
X76422281Y-126846977D01*
X76422281Y-126846977D02*
X76364965Y-126770917D01*
X76364965Y-126770917D02*
X76345680Y-126666199D01*
X76345680Y-126666199D02*
X76355052Y-126599510D01*
X76355052Y-126599510D02*
X76402455Y-126504164D01*
X76402455Y-126504164D02*
X76525918Y-126351503D01*
X76525918Y-126351503D02*
X76573321Y-126256157D01*
X76573321Y-126256157D02*
X76582693Y-126189469D01*
X76582693Y-126189469D02*
X76563408Y-126084750D01*
X76563408Y-126084750D02*
X76506092Y-126008690D01*
X76506092Y-126008690D02*
X76410746Y-125961287D01*
X76410746Y-125961287D02*
X76344058Y-125951915D01*
X76344058Y-125951915D02*
X76239340Y-125971200D01*
X76239340Y-125971200D02*
X76049188Y-126114489D01*
X76049188Y-126114489D02*
X75963755Y-126238493D01*
X76194640Y-127257019D02*
X75592825Y-126458384D01*
X75592825Y-126458384D02*
X75402674Y-126601673D01*
X75402674Y-126601673D02*
X75317241Y-126725677D01*
X75317241Y-126725677D02*
X75298496Y-126859053D01*
X75298496Y-126859053D02*
X75317781Y-126963772D01*
X75317781Y-126963772D02*
X75394383Y-127144550D01*
X75394383Y-127144550D02*
X75480356Y-127258641D01*
X75480356Y-127258641D02*
X75633018Y-127382104D01*
X75633018Y-127382104D02*
X75728364Y-127429507D01*
X75728364Y-127429507D02*
X75861740Y-127448252D01*
X75861740Y-127448252D02*
X76004489Y-127400309D01*
X76004489Y-127400309D02*
X76194640Y-127257019D01*
X74451917Y-127318120D02*
X74604038Y-127203488D01*
X74604038Y-127203488D02*
X74708757Y-127184203D01*
X74708757Y-127184203D02*
X74775445Y-127193575D01*
X74775445Y-127193575D02*
X74937479Y-127250350D01*
X74937479Y-127250350D02*
X75090140Y-127373813D01*
X75090140Y-127373813D02*
X75319403Y-127678055D01*
X75319403Y-127678055D02*
X75338689Y-127782774D01*
X75338689Y-127782774D02*
X75329316Y-127849462D01*
X75329316Y-127849462D02*
X75281914Y-127944808D01*
X75281914Y-127944808D02*
X75129793Y-128059439D01*
X75129793Y-128059439D02*
X75025074Y-128078725D01*
X75025074Y-128078725D02*
X74958386Y-128069352D01*
X74958386Y-128069352D02*
X74863040Y-128021950D01*
X74863040Y-128021950D02*
X74719751Y-127831798D01*
X74719751Y-127831798D02*
X74700465Y-127727080D01*
X74700465Y-127727080D02*
X74709838Y-127660392D01*
X74709838Y-127660392D02*
X74757241Y-127565046D01*
X74757241Y-127565046D02*
X74909362Y-127450414D01*
X74909362Y-127450414D02*
X75014080Y-127431129D01*
X75014080Y-127431129D02*
X75080768Y-127440501D01*
X75080768Y-127440501D02*
X75176114Y-127487904D01*
X109966719Y-114333820D02*
X109823862Y-114381439D01*
X109823862Y-114381439D02*
X109585767Y-114381439D01*
X109585767Y-114381439D02*
X109490529Y-114333820D01*
X109490529Y-114333820D02*
X109442910Y-114286200D01*
X109442910Y-114286200D02*
X109395291Y-114190962D01*
X109395291Y-114190962D02*
X109395291Y-114095724D01*
X109395291Y-114095724D02*
X109442910Y-114000486D01*
X109442910Y-114000486D02*
X109490529Y-113952867D01*
X109490529Y-113952867D02*
X109585767Y-113905248D01*
X109585767Y-113905248D02*
X109776243Y-113857629D01*
X109776243Y-113857629D02*
X109871481Y-113810010D01*
X109871481Y-113810010D02*
X109919100Y-113762391D01*
X109919100Y-113762391D02*
X109966719Y-113667153D01*
X109966719Y-113667153D02*
X109966719Y-113571915D01*
X109966719Y-113571915D02*
X109919100Y-113476677D01*
X109919100Y-113476677D02*
X109871481Y-113429058D01*
X109871481Y-113429058D02*
X109776243Y-113381439D01*
X109776243Y-113381439D02*
X109538148Y-113381439D01*
X109538148Y-113381439D02*
X109395291Y-113429058D01*
X108966719Y-114381439D02*
X108966719Y-113381439D01*
X108966719Y-113381439D02*
X108728624Y-113381439D01*
X108728624Y-113381439D02*
X108585767Y-113429058D01*
X108585767Y-113429058D02*
X108490529Y-113524296D01*
X108490529Y-113524296D02*
X108442910Y-113619534D01*
X108442910Y-113619534D02*
X108395291Y-113810010D01*
X108395291Y-113810010D02*
X108395291Y-113952867D01*
X108395291Y-113952867D02*
X108442910Y-114143343D01*
X108442910Y-114143343D02*
X108490529Y-114238581D01*
X108490529Y-114238581D02*
X108585767Y-114333820D01*
X108585767Y-114333820D02*
X108728624Y-114381439D01*
X108728624Y-114381439D02*
X108966719Y-114381439D01*
X107490529Y-113381439D02*
X107966719Y-113381439D01*
X107966719Y-113381439D02*
X108014338Y-113857629D01*
X108014338Y-113857629D02*
X107966719Y-113810010D01*
X107966719Y-113810010D02*
X107871481Y-113762391D01*
X107871481Y-113762391D02*
X107633386Y-113762391D01*
X107633386Y-113762391D02*
X107538148Y-113810010D01*
X107538148Y-113810010D02*
X107490529Y-113857629D01*
X107490529Y-113857629D02*
X107442910Y-113952867D01*
X107442910Y-113952867D02*
X107442910Y-114190962D01*
X107442910Y-114190962D02*
X107490529Y-114286200D01*
X107490529Y-114286200D02*
X107538148Y-114333820D01*
X107538148Y-114333820D02*
X107633386Y-114381439D01*
X107633386Y-114381439D02*
X107871481Y-114381439D01*
X107871481Y-114381439D02*
X107966719Y-114333820D01*
X107966719Y-114333820D02*
X108014338Y-114286200D01*
X148066719Y-104808820D02*
X147923862Y-104856439D01*
X147923862Y-104856439D02*
X147685767Y-104856439D01*
X147685767Y-104856439D02*
X147590529Y-104808820D01*
X147590529Y-104808820D02*
X147542910Y-104761200D01*
X147542910Y-104761200D02*
X147495291Y-104665962D01*
X147495291Y-104665962D02*
X147495291Y-104570724D01*
X147495291Y-104570724D02*
X147542910Y-104475486D01*
X147542910Y-104475486D02*
X147590529Y-104427867D01*
X147590529Y-104427867D02*
X147685767Y-104380248D01*
X147685767Y-104380248D02*
X147876243Y-104332629D01*
X147876243Y-104332629D02*
X147971481Y-104285010D01*
X147971481Y-104285010D02*
X148019100Y-104237391D01*
X148019100Y-104237391D02*
X148066719Y-104142153D01*
X148066719Y-104142153D02*
X148066719Y-104046915D01*
X148066719Y-104046915D02*
X148019100Y-103951677D01*
X148019100Y-103951677D02*
X147971481Y-103904058D01*
X147971481Y-103904058D02*
X147876243Y-103856439D01*
X147876243Y-103856439D02*
X147638148Y-103856439D01*
X147638148Y-103856439D02*
X147495291Y-103904058D01*
X147066719Y-104856439D02*
X147066719Y-103856439D01*
X147066719Y-103856439D02*
X146828624Y-103856439D01*
X146828624Y-103856439D02*
X146685767Y-103904058D01*
X146685767Y-103904058D02*
X146590529Y-103999296D01*
X146590529Y-103999296D02*
X146542910Y-104094534D01*
X146542910Y-104094534D02*
X146495291Y-104285010D01*
X146495291Y-104285010D02*
X146495291Y-104427867D01*
X146495291Y-104427867D02*
X146542910Y-104618343D01*
X146542910Y-104618343D02*
X146590529Y-104713581D01*
X146590529Y-104713581D02*
X146685767Y-104808820D01*
X146685767Y-104808820D02*
X146828624Y-104856439D01*
X146828624Y-104856439D02*
X147066719Y-104856439D01*
X146161957Y-103856439D02*
X145542910Y-103856439D01*
X145542910Y-103856439D02*
X145876243Y-104237391D01*
X145876243Y-104237391D02*
X145733386Y-104237391D01*
X145733386Y-104237391D02*
X145638148Y-104285010D01*
X145638148Y-104285010D02*
X145590529Y-104332629D01*
X145590529Y-104332629D02*
X145542910Y-104427867D01*
X145542910Y-104427867D02*
X145542910Y-104665962D01*
X145542910Y-104665962D02*
X145590529Y-104761200D01*
X145590529Y-104761200D02*
X145638148Y-104808820D01*
X145638148Y-104808820D02*
X145733386Y-104856439D01*
X145733386Y-104856439D02*
X146019100Y-104856439D01*
X146019100Y-104856439D02*
X146114338Y-104808820D01*
X146114338Y-104808820D02*
X146161957Y-104761200D01*
X129016719Y-92902620D02*
X128873862Y-92950239D01*
X128873862Y-92950239D02*
X128635767Y-92950239D01*
X128635767Y-92950239D02*
X128540529Y-92902620D01*
X128540529Y-92902620D02*
X128492910Y-92855000D01*
X128492910Y-92855000D02*
X128445291Y-92759762D01*
X128445291Y-92759762D02*
X128445291Y-92664524D01*
X128445291Y-92664524D02*
X128492910Y-92569286D01*
X128492910Y-92569286D02*
X128540529Y-92521667D01*
X128540529Y-92521667D02*
X128635767Y-92474048D01*
X128635767Y-92474048D02*
X128826243Y-92426429D01*
X128826243Y-92426429D02*
X128921481Y-92378810D01*
X128921481Y-92378810D02*
X128969100Y-92331191D01*
X128969100Y-92331191D02*
X129016719Y-92235953D01*
X129016719Y-92235953D02*
X129016719Y-92140715D01*
X129016719Y-92140715D02*
X128969100Y-92045477D01*
X128969100Y-92045477D02*
X128921481Y-91997858D01*
X128921481Y-91997858D02*
X128826243Y-91950239D01*
X128826243Y-91950239D02*
X128588148Y-91950239D01*
X128588148Y-91950239D02*
X128445291Y-91997858D01*
X127445291Y-92855000D02*
X127492910Y-92902620D01*
X127492910Y-92902620D02*
X127635767Y-92950239D01*
X127635767Y-92950239D02*
X127731005Y-92950239D01*
X127731005Y-92950239D02*
X127873862Y-92902620D01*
X127873862Y-92902620D02*
X127969100Y-92807381D01*
X127969100Y-92807381D02*
X128016719Y-92712143D01*
X128016719Y-92712143D02*
X128064338Y-92521667D01*
X128064338Y-92521667D02*
X128064338Y-92378810D01*
X128064338Y-92378810D02*
X128016719Y-92188334D01*
X128016719Y-92188334D02*
X127969100Y-92093096D01*
X127969100Y-92093096D02*
X127873862Y-91997858D01*
X127873862Y-91997858D02*
X127731005Y-91950239D01*
X127731005Y-91950239D02*
X127635767Y-91950239D01*
X127635767Y-91950239D02*
X127492910Y-91997858D01*
X127492910Y-91997858D02*
X127445291Y-92045477D01*
X126588148Y-92283572D02*
X126588148Y-92950239D01*
X126826243Y-91902620D02*
X127064338Y-92616905D01*
X127064338Y-92616905D02*
X126445291Y-92616905D01*
X109966719Y-95283820D02*
X109823862Y-95331439D01*
X109823862Y-95331439D02*
X109585767Y-95331439D01*
X109585767Y-95331439D02*
X109490529Y-95283820D01*
X109490529Y-95283820D02*
X109442910Y-95236200D01*
X109442910Y-95236200D02*
X109395291Y-95140962D01*
X109395291Y-95140962D02*
X109395291Y-95045724D01*
X109395291Y-95045724D02*
X109442910Y-94950486D01*
X109442910Y-94950486D02*
X109490529Y-94902867D01*
X109490529Y-94902867D02*
X109585767Y-94855248D01*
X109585767Y-94855248D02*
X109776243Y-94807629D01*
X109776243Y-94807629D02*
X109871481Y-94760010D01*
X109871481Y-94760010D02*
X109919100Y-94712391D01*
X109919100Y-94712391D02*
X109966719Y-94617153D01*
X109966719Y-94617153D02*
X109966719Y-94521915D01*
X109966719Y-94521915D02*
X109919100Y-94426677D01*
X109919100Y-94426677D02*
X109871481Y-94379058D01*
X109871481Y-94379058D02*
X109776243Y-94331439D01*
X109776243Y-94331439D02*
X109538148Y-94331439D01*
X109538148Y-94331439D02*
X109395291Y-94379058D01*
X108395291Y-95236200D02*
X108442910Y-95283820D01*
X108442910Y-95283820D02*
X108585767Y-95331439D01*
X108585767Y-95331439D02*
X108681005Y-95331439D01*
X108681005Y-95331439D02*
X108823862Y-95283820D01*
X108823862Y-95283820D02*
X108919100Y-95188581D01*
X108919100Y-95188581D02*
X108966719Y-95093343D01*
X108966719Y-95093343D02*
X109014338Y-94902867D01*
X109014338Y-94902867D02*
X109014338Y-94760010D01*
X109014338Y-94760010D02*
X108966719Y-94569534D01*
X108966719Y-94569534D02*
X108919100Y-94474296D01*
X108919100Y-94474296D02*
X108823862Y-94379058D01*
X108823862Y-94379058D02*
X108681005Y-94331439D01*
X108681005Y-94331439D02*
X108585767Y-94331439D01*
X108585767Y-94331439D02*
X108442910Y-94379058D01*
X108442910Y-94379058D02*
X108395291Y-94426677D01*
X107490529Y-94331439D02*
X107966719Y-94331439D01*
X107966719Y-94331439D02*
X108014338Y-94807629D01*
X108014338Y-94807629D02*
X107966719Y-94760010D01*
X107966719Y-94760010D02*
X107871481Y-94712391D01*
X107871481Y-94712391D02*
X107633386Y-94712391D01*
X107633386Y-94712391D02*
X107538148Y-94760010D01*
X107538148Y-94760010D02*
X107490529Y-94807629D01*
X107490529Y-94807629D02*
X107442910Y-94902867D01*
X107442910Y-94902867D02*
X107442910Y-95140962D01*
X107442910Y-95140962D02*
X107490529Y-95236200D01*
X107490529Y-95236200D02*
X107538148Y-95283820D01*
X107538148Y-95283820D02*
X107633386Y-95331439D01*
X107633386Y-95331439D02*
X107871481Y-95331439D01*
X107871481Y-95331439D02*
X107966719Y-95283820D01*
X107966719Y-95283820D02*
X108014338Y-95236200D01*
X148066719Y-85758820D02*
X147923862Y-85806439D01*
X147923862Y-85806439D02*
X147685767Y-85806439D01*
X147685767Y-85806439D02*
X147590529Y-85758820D01*
X147590529Y-85758820D02*
X147542910Y-85711200D01*
X147542910Y-85711200D02*
X147495291Y-85615962D01*
X147495291Y-85615962D02*
X147495291Y-85520724D01*
X147495291Y-85520724D02*
X147542910Y-85425486D01*
X147542910Y-85425486D02*
X147590529Y-85377867D01*
X147590529Y-85377867D02*
X147685767Y-85330248D01*
X147685767Y-85330248D02*
X147876243Y-85282629D01*
X147876243Y-85282629D02*
X147971481Y-85235010D01*
X147971481Y-85235010D02*
X148019100Y-85187391D01*
X148019100Y-85187391D02*
X148066719Y-85092153D01*
X148066719Y-85092153D02*
X148066719Y-84996915D01*
X148066719Y-84996915D02*
X148019100Y-84901677D01*
X148019100Y-84901677D02*
X147971481Y-84854058D01*
X147971481Y-84854058D02*
X147876243Y-84806439D01*
X147876243Y-84806439D02*
X147638148Y-84806439D01*
X147638148Y-84806439D02*
X147495291Y-84854058D01*
X146495291Y-85711200D02*
X146542910Y-85758820D01*
X146542910Y-85758820D02*
X146685767Y-85806439D01*
X146685767Y-85806439D02*
X146781005Y-85806439D01*
X146781005Y-85806439D02*
X146923862Y-85758820D01*
X146923862Y-85758820D02*
X147019100Y-85663581D01*
X147019100Y-85663581D02*
X147066719Y-85568343D01*
X147066719Y-85568343D02*
X147114338Y-85377867D01*
X147114338Y-85377867D02*
X147114338Y-85235010D01*
X147114338Y-85235010D02*
X147066719Y-85044534D01*
X147066719Y-85044534D02*
X147019100Y-84949296D01*
X147019100Y-84949296D02*
X146923862Y-84854058D01*
X146923862Y-84854058D02*
X146781005Y-84806439D01*
X146781005Y-84806439D02*
X146685767Y-84806439D01*
X146685767Y-84806439D02*
X146542910Y-84854058D01*
X146542910Y-84854058D02*
X146495291Y-84901677D01*
X146161957Y-84806439D02*
X145542910Y-84806439D01*
X145542910Y-84806439D02*
X145876243Y-85187391D01*
X145876243Y-85187391D02*
X145733386Y-85187391D01*
X145733386Y-85187391D02*
X145638148Y-85235010D01*
X145638148Y-85235010D02*
X145590529Y-85282629D01*
X145590529Y-85282629D02*
X145542910Y-85377867D01*
X145542910Y-85377867D02*
X145542910Y-85615962D01*
X145542910Y-85615962D02*
X145590529Y-85711200D01*
X145590529Y-85711200D02*
X145638148Y-85758820D01*
X145638148Y-85758820D02*
X145733386Y-85806439D01*
X145733386Y-85806439D02*
X146019100Y-85806439D01*
X146019100Y-85806439D02*
X146114338Y-85758820D01*
X146114338Y-85758820D02*
X146161957Y-85711200D01*
X167116719Y-91711920D02*
X166973862Y-91759539D01*
X166973862Y-91759539D02*
X166735767Y-91759539D01*
X166735767Y-91759539D02*
X166640529Y-91711920D01*
X166640529Y-91711920D02*
X166592910Y-91664300D01*
X166592910Y-91664300D02*
X166545291Y-91569062D01*
X166545291Y-91569062D02*
X166545291Y-91473824D01*
X166545291Y-91473824D02*
X166592910Y-91378586D01*
X166592910Y-91378586D02*
X166640529Y-91330967D01*
X166640529Y-91330967D02*
X166735767Y-91283348D01*
X166735767Y-91283348D02*
X166926243Y-91235729D01*
X166926243Y-91235729D02*
X167021481Y-91188110D01*
X167021481Y-91188110D02*
X167069100Y-91140491D01*
X167069100Y-91140491D02*
X167116719Y-91045253D01*
X167116719Y-91045253D02*
X167116719Y-90950015D01*
X167116719Y-90950015D02*
X167069100Y-90854777D01*
X167069100Y-90854777D02*
X167021481Y-90807158D01*
X167021481Y-90807158D02*
X166926243Y-90759539D01*
X166926243Y-90759539D02*
X166688148Y-90759539D01*
X166688148Y-90759539D02*
X166545291Y-90807158D01*
X165545291Y-91664300D02*
X165592910Y-91711920D01*
X165592910Y-91711920D02*
X165735767Y-91759539D01*
X165735767Y-91759539D02*
X165831005Y-91759539D01*
X165831005Y-91759539D02*
X165973862Y-91711920D01*
X165973862Y-91711920D02*
X166069100Y-91616681D01*
X166069100Y-91616681D02*
X166116719Y-91521443D01*
X166116719Y-91521443D02*
X166164338Y-91330967D01*
X166164338Y-91330967D02*
X166164338Y-91188110D01*
X166164338Y-91188110D02*
X166116719Y-90997634D01*
X166116719Y-90997634D02*
X166069100Y-90902396D01*
X166069100Y-90902396D02*
X165973862Y-90807158D01*
X165973862Y-90807158D02*
X165831005Y-90759539D01*
X165831005Y-90759539D02*
X165735767Y-90759539D01*
X165735767Y-90759539D02*
X165592910Y-90807158D01*
X165592910Y-90807158D02*
X165545291Y-90854777D01*
X165164338Y-90854777D02*
X165116719Y-90807158D01*
X165116719Y-90807158D02*
X165021481Y-90759539D01*
X165021481Y-90759539D02*
X164783386Y-90759539D01*
X164783386Y-90759539D02*
X164688148Y-90807158D01*
X164688148Y-90807158D02*
X164640529Y-90854777D01*
X164640529Y-90854777D02*
X164592910Y-90950015D01*
X164592910Y-90950015D02*
X164592910Y-91045253D01*
X164592910Y-91045253D02*
X164640529Y-91188110D01*
X164640529Y-91188110D02*
X165211957Y-91759539D01*
X165211957Y-91759539D02*
X164592910Y-91759539D01*
X109895258Y-57183780D02*
X109752401Y-57231399D01*
X109752401Y-57231399D02*
X109514306Y-57231399D01*
X109514306Y-57231399D02*
X109419068Y-57183780D01*
X109419068Y-57183780D02*
X109371449Y-57136160D01*
X109371449Y-57136160D02*
X109323830Y-57040922D01*
X109323830Y-57040922D02*
X109323830Y-56945684D01*
X109323830Y-56945684D02*
X109371449Y-56850446D01*
X109371449Y-56850446D02*
X109419068Y-56802827D01*
X109419068Y-56802827D02*
X109514306Y-56755208D01*
X109514306Y-56755208D02*
X109704782Y-56707589D01*
X109704782Y-56707589D02*
X109800020Y-56659970D01*
X109800020Y-56659970D02*
X109847639Y-56612351D01*
X109847639Y-56612351D02*
X109895258Y-56517113D01*
X109895258Y-56517113D02*
X109895258Y-56421875D01*
X109895258Y-56421875D02*
X109847639Y-56326637D01*
X109847639Y-56326637D02*
X109800020Y-56279018D01*
X109800020Y-56279018D02*
X109704782Y-56231399D01*
X109704782Y-56231399D02*
X109466687Y-56231399D01*
X109466687Y-56231399D02*
X109323830Y-56279018D01*
X108942877Y-56945684D02*
X108466687Y-56945684D01*
X109038115Y-57231399D02*
X108704782Y-56231399D01*
X108704782Y-56231399D02*
X108371449Y-57231399D01*
X107561925Y-56231399D02*
X108038115Y-56231399D01*
X108038115Y-56231399D02*
X108085734Y-56707589D01*
X108085734Y-56707589D02*
X108038115Y-56659970D01*
X108038115Y-56659970D02*
X107942877Y-56612351D01*
X107942877Y-56612351D02*
X107704782Y-56612351D01*
X107704782Y-56612351D02*
X107609544Y-56659970D01*
X107609544Y-56659970D02*
X107561925Y-56707589D01*
X107561925Y-56707589D02*
X107514306Y-56802827D01*
X107514306Y-56802827D02*
X107514306Y-57040922D01*
X107514306Y-57040922D02*
X107561925Y-57136160D01*
X107561925Y-57136160D02*
X107609544Y-57183780D01*
X107609544Y-57183780D02*
X107704782Y-57231399D01*
X107704782Y-57231399D02*
X107942877Y-57231399D01*
X107942877Y-57231399D02*
X108038115Y-57183780D01*
X108038115Y-57183780D02*
X108085734Y-57136160D01*
X93069815Y-58103344D02*
X93117434Y-58246201D01*
X93117434Y-58246201D02*
X93117434Y-58484296D01*
X93117434Y-58484296D02*
X93069815Y-58579534D01*
X93069815Y-58579534D02*
X93022195Y-58627153D01*
X93022195Y-58627153D02*
X92926957Y-58674772D01*
X92926957Y-58674772D02*
X92831719Y-58674772D01*
X92831719Y-58674772D02*
X92736481Y-58627153D01*
X92736481Y-58627153D02*
X92688862Y-58579534D01*
X92688862Y-58579534D02*
X92641243Y-58484296D01*
X92641243Y-58484296D02*
X92593624Y-58293820D01*
X92593624Y-58293820D02*
X92546005Y-58198582D01*
X92546005Y-58198582D02*
X92498386Y-58150963D01*
X92498386Y-58150963D02*
X92403148Y-58103344D01*
X92403148Y-58103344D02*
X92307910Y-58103344D01*
X92307910Y-58103344D02*
X92212672Y-58150963D01*
X92212672Y-58150963D02*
X92165053Y-58198582D01*
X92165053Y-58198582D02*
X92117434Y-58293820D01*
X92117434Y-58293820D02*
X92117434Y-58531915D01*
X92117434Y-58531915D02*
X92165053Y-58674772D01*
X92831719Y-59055725D02*
X92831719Y-59531915D01*
X93117434Y-58960487D02*
X92117434Y-59293820D01*
X92117434Y-59293820D02*
X93117434Y-59627153D01*
X92117434Y-60389058D02*
X92117434Y-60198582D01*
X92117434Y-60198582D02*
X92165053Y-60103344D01*
X92165053Y-60103344D02*
X92212672Y-60055725D01*
X92212672Y-60055725D02*
X92355529Y-59960487D01*
X92355529Y-59960487D02*
X92546005Y-59912868D01*
X92546005Y-59912868D02*
X92926957Y-59912868D01*
X92926957Y-59912868D02*
X93022195Y-59960487D01*
X93022195Y-59960487D02*
X93069815Y-60008106D01*
X93069815Y-60008106D02*
X93117434Y-60103344D01*
X93117434Y-60103344D02*
X93117434Y-60293820D01*
X93117434Y-60293820D02*
X93069815Y-60389058D01*
X93069815Y-60389058D02*
X93022195Y-60436677D01*
X93022195Y-60436677D02*
X92926957Y-60484296D01*
X92926957Y-60484296D02*
X92688862Y-60484296D01*
X92688862Y-60484296D02*
X92593624Y-60436677D01*
X92593624Y-60436677D02*
X92546005Y-60389058D01*
X92546005Y-60389058D02*
X92498386Y-60293820D01*
X92498386Y-60293820D02*
X92498386Y-60103344D01*
X92498386Y-60103344D02*
X92546005Y-60008106D01*
X92546005Y-60008106D02*
X92593624Y-59960487D01*
X92593624Y-59960487D02*
X92688862Y-59912868D01*
X129016719Y-111952620D02*
X128873862Y-112000239D01*
X128873862Y-112000239D02*
X128635767Y-112000239D01*
X128635767Y-112000239D02*
X128540529Y-111952620D01*
X128540529Y-111952620D02*
X128492910Y-111905000D01*
X128492910Y-111905000D02*
X128445291Y-111809762D01*
X128445291Y-111809762D02*
X128445291Y-111714524D01*
X128445291Y-111714524D02*
X128492910Y-111619286D01*
X128492910Y-111619286D02*
X128540529Y-111571667D01*
X128540529Y-111571667D02*
X128635767Y-111524048D01*
X128635767Y-111524048D02*
X128826243Y-111476429D01*
X128826243Y-111476429D02*
X128921481Y-111428810D01*
X128921481Y-111428810D02*
X128969100Y-111381191D01*
X128969100Y-111381191D02*
X129016719Y-111285953D01*
X129016719Y-111285953D02*
X129016719Y-111190715D01*
X129016719Y-111190715D02*
X128969100Y-111095477D01*
X128969100Y-111095477D02*
X128921481Y-111047858D01*
X128921481Y-111047858D02*
X128826243Y-111000239D01*
X128826243Y-111000239D02*
X128588148Y-111000239D01*
X128588148Y-111000239D02*
X128445291Y-111047858D01*
X128016719Y-112000239D02*
X128016719Y-111000239D01*
X128016719Y-111000239D02*
X127778624Y-111000239D01*
X127778624Y-111000239D02*
X127635767Y-111047858D01*
X127635767Y-111047858D02*
X127540529Y-111143096D01*
X127540529Y-111143096D02*
X127492910Y-111238334D01*
X127492910Y-111238334D02*
X127445291Y-111428810D01*
X127445291Y-111428810D02*
X127445291Y-111571667D01*
X127445291Y-111571667D02*
X127492910Y-111762143D01*
X127492910Y-111762143D02*
X127540529Y-111857381D01*
X127540529Y-111857381D02*
X127635767Y-111952620D01*
X127635767Y-111952620D02*
X127778624Y-112000239D01*
X127778624Y-112000239D02*
X128016719Y-112000239D01*
X126588148Y-111333572D02*
X126588148Y-112000239D01*
X126826243Y-110952620D02*
X127064338Y-111666905D01*
X127064338Y-111666905D02*
X126445291Y-111666905D01*
X167116719Y-110761920D02*
X166973862Y-110809539D01*
X166973862Y-110809539D02*
X166735767Y-110809539D01*
X166735767Y-110809539D02*
X166640529Y-110761920D01*
X166640529Y-110761920D02*
X166592910Y-110714300D01*
X166592910Y-110714300D02*
X166545291Y-110619062D01*
X166545291Y-110619062D02*
X166545291Y-110523824D01*
X166545291Y-110523824D02*
X166592910Y-110428586D01*
X166592910Y-110428586D02*
X166640529Y-110380967D01*
X166640529Y-110380967D02*
X166735767Y-110333348D01*
X166735767Y-110333348D02*
X166926243Y-110285729D01*
X166926243Y-110285729D02*
X167021481Y-110238110D01*
X167021481Y-110238110D02*
X167069100Y-110190491D01*
X167069100Y-110190491D02*
X167116719Y-110095253D01*
X167116719Y-110095253D02*
X167116719Y-110000015D01*
X167116719Y-110000015D02*
X167069100Y-109904777D01*
X167069100Y-109904777D02*
X167021481Y-109857158D01*
X167021481Y-109857158D02*
X166926243Y-109809539D01*
X166926243Y-109809539D02*
X166688148Y-109809539D01*
X166688148Y-109809539D02*
X166545291Y-109857158D01*
X166116719Y-110809539D02*
X166116719Y-109809539D01*
X166116719Y-109809539D02*
X165878624Y-109809539D01*
X165878624Y-109809539D02*
X165735767Y-109857158D01*
X165735767Y-109857158D02*
X165640529Y-109952396D01*
X165640529Y-109952396D02*
X165592910Y-110047634D01*
X165592910Y-110047634D02*
X165545291Y-110238110D01*
X165545291Y-110238110D02*
X165545291Y-110380967D01*
X165545291Y-110380967D02*
X165592910Y-110571443D01*
X165592910Y-110571443D02*
X165640529Y-110666681D01*
X165640529Y-110666681D02*
X165735767Y-110761920D01*
X165735767Y-110761920D02*
X165878624Y-110809539D01*
X165878624Y-110809539D02*
X166116719Y-110809539D01*
X165164338Y-109904777D02*
X165116719Y-109857158D01*
X165116719Y-109857158D02*
X165021481Y-109809539D01*
X165021481Y-109809539D02*
X164783386Y-109809539D01*
X164783386Y-109809539D02*
X164688148Y-109857158D01*
X164688148Y-109857158D02*
X164640529Y-109904777D01*
X164640529Y-109904777D02*
X164592910Y-110000015D01*
X164592910Y-110000015D02*
X164592910Y-110095253D01*
X164592910Y-110095253D02*
X164640529Y-110238110D01*
X164640529Y-110238110D02*
X165211957Y-110809539D01*
X165211957Y-110809539D02*
X164592910Y-110809539D01*
X167045258Y-53611880D02*
X166902401Y-53659499D01*
X166902401Y-53659499D02*
X166664306Y-53659499D01*
X166664306Y-53659499D02*
X166569068Y-53611880D01*
X166569068Y-53611880D02*
X166521449Y-53564260D01*
X166521449Y-53564260D02*
X166473830Y-53469022D01*
X166473830Y-53469022D02*
X166473830Y-53373784D01*
X166473830Y-53373784D02*
X166521449Y-53278546D01*
X166521449Y-53278546D02*
X166569068Y-53230927D01*
X166569068Y-53230927D02*
X166664306Y-53183308D01*
X166664306Y-53183308D02*
X166854782Y-53135689D01*
X166854782Y-53135689D02*
X166950020Y-53088070D01*
X166950020Y-53088070D02*
X166997639Y-53040451D01*
X166997639Y-53040451D02*
X167045258Y-52945213D01*
X167045258Y-52945213D02*
X167045258Y-52849975D01*
X167045258Y-52849975D02*
X166997639Y-52754737D01*
X166997639Y-52754737D02*
X166950020Y-52707118D01*
X166950020Y-52707118D02*
X166854782Y-52659499D01*
X166854782Y-52659499D02*
X166616687Y-52659499D01*
X166616687Y-52659499D02*
X166473830Y-52707118D01*
X166092877Y-53373784D02*
X165616687Y-53373784D01*
X166188115Y-53659499D02*
X165854782Y-52659499D01*
X165854782Y-52659499D02*
X165521449Y-53659499D01*
X165235734Y-52754737D02*
X165188115Y-52707118D01*
X165188115Y-52707118D02*
X165092877Y-52659499D01*
X165092877Y-52659499D02*
X164854782Y-52659499D01*
X164854782Y-52659499D02*
X164759544Y-52707118D01*
X164759544Y-52707118D02*
X164711925Y-52754737D01*
X164711925Y-52754737D02*
X164664306Y-52849975D01*
X164664306Y-52849975D02*
X164664306Y-52945213D01*
X164664306Y-52945213D02*
X164711925Y-53088070D01*
X164711925Y-53088070D02*
X165283353Y-53659499D01*
X165283353Y-53659499D02*
X164664306Y-53659499D01*
X212160929Y-106390071D02*
X212195916Y-106536535D01*
X212195916Y-106536535D02*
X212175164Y-106773724D01*
X212175164Y-106773724D02*
X212119426Y-106864450D01*
X212119426Y-106864450D02*
X212067838Y-106907737D01*
X212067838Y-106907737D02*
X211968812Y-106946875D01*
X211968812Y-106946875D02*
X211873936Y-106938574D01*
X211873936Y-106938574D02*
X211783211Y-106882836D01*
X211783211Y-106882836D02*
X211739923Y-106831247D01*
X211739923Y-106831247D02*
X211700786Y-106732222D01*
X211700786Y-106732222D02*
X211669949Y-106538320D01*
X211669949Y-106538320D02*
X211630812Y-106439294D01*
X211630812Y-106439294D02*
X211587524Y-106387706D01*
X211587524Y-106387706D02*
X211496799Y-106331967D01*
X211496799Y-106331967D02*
X211401923Y-106323667D01*
X211401923Y-106323667D02*
X211302897Y-106362804D01*
X211302897Y-106362804D02*
X211251309Y-106406092D01*
X211251309Y-106406092D02*
X211195571Y-106496817D01*
X211195571Y-106496817D02*
X211174819Y-106734006D01*
X211174819Y-106734006D02*
X211209806Y-106880470D01*
X211976532Y-107951370D02*
X212028120Y-107908082D01*
X212028120Y-107908082D02*
X212088008Y-107769919D01*
X212088008Y-107769919D02*
X212096309Y-107675043D01*
X212096309Y-107675043D02*
X212061322Y-107528580D01*
X212061322Y-107528580D02*
X211974747Y-107425403D01*
X211974747Y-107425403D02*
X211884021Y-107369665D01*
X211884021Y-107369665D02*
X211698420Y-107305626D01*
X211698420Y-107305626D02*
X211556107Y-107293175D01*
X211556107Y-107293175D02*
X211362205Y-107324012D01*
X211362205Y-107324012D02*
X211263179Y-107363149D01*
X211263179Y-107363149D02*
X211160003Y-107449724D01*
X211160003Y-107449724D02*
X211100114Y-107587888D01*
X211100114Y-107587888D02*
X211091814Y-107682763D01*
X211091814Y-107682763D02*
X211126801Y-107829227D01*
X211126801Y-107829227D02*
X211170088Y-107880815D01*
X211021259Y-108489207D02*
X211012959Y-108584082D01*
X211012959Y-108584082D02*
X211052096Y-108683108D01*
X211052096Y-108683108D02*
X211095383Y-108734696D01*
X211095383Y-108734696D02*
X211186109Y-108790435D01*
X211186109Y-108790435D02*
X211371710Y-108854474D01*
X211371710Y-108854474D02*
X211608899Y-108875225D01*
X211608899Y-108875225D02*
X211802801Y-108844388D01*
X211802801Y-108844388D02*
X211901827Y-108805251D01*
X211901827Y-108805251D02*
X211953415Y-108761963D01*
X211953415Y-108761963D02*
X212009153Y-108671238D01*
X212009153Y-108671238D02*
X212017454Y-108576362D01*
X212017454Y-108576362D02*
X211978317Y-108477336D01*
X211978317Y-108477336D02*
X211935029Y-108425748D01*
X211935029Y-108425748D02*
X211844304Y-108370010D01*
X211844304Y-108370010D02*
X211658702Y-108305971D01*
X211658702Y-108305971D02*
X211421513Y-108285220D01*
X211421513Y-108285220D02*
X211227612Y-108316056D01*
X211227612Y-108316056D02*
X211128586Y-108355194D01*
X211128586Y-108355194D02*
X211076998Y-108398481D01*
X211076998Y-108398481D02*
X211021259Y-108489207D01*
X93069815Y-81844415D02*
X93117434Y-81987272D01*
X93117434Y-81987272D02*
X93117434Y-82225367D01*
X93117434Y-82225367D02*
X93069815Y-82320605D01*
X93069815Y-82320605D02*
X93022195Y-82368224D01*
X93022195Y-82368224D02*
X92926957Y-82415843D01*
X92926957Y-82415843D02*
X92831719Y-82415843D01*
X92831719Y-82415843D02*
X92736481Y-82368224D01*
X92736481Y-82368224D02*
X92688862Y-82320605D01*
X92688862Y-82320605D02*
X92641243Y-82225367D01*
X92641243Y-82225367D02*
X92593624Y-82034891D01*
X92593624Y-82034891D02*
X92546005Y-81939653D01*
X92546005Y-81939653D02*
X92498386Y-81892034D01*
X92498386Y-81892034D02*
X92403148Y-81844415D01*
X92403148Y-81844415D02*
X92307910Y-81844415D01*
X92307910Y-81844415D02*
X92212672Y-81892034D01*
X92212672Y-81892034D02*
X92165053Y-81939653D01*
X92165053Y-81939653D02*
X92117434Y-82034891D01*
X92117434Y-82034891D02*
X92117434Y-82272986D01*
X92117434Y-82272986D02*
X92165053Y-82415843D01*
X92593624Y-83177748D02*
X92641243Y-83320605D01*
X92641243Y-83320605D02*
X92688862Y-83368224D01*
X92688862Y-83368224D02*
X92784100Y-83415843D01*
X92784100Y-83415843D02*
X92926957Y-83415843D01*
X92926957Y-83415843D02*
X93022195Y-83368224D01*
X93022195Y-83368224D02*
X93069815Y-83320605D01*
X93069815Y-83320605D02*
X93117434Y-83225367D01*
X93117434Y-83225367D02*
X93117434Y-82844415D01*
X93117434Y-82844415D02*
X92117434Y-82844415D01*
X92117434Y-82844415D02*
X92117434Y-83177748D01*
X92117434Y-83177748D02*
X92165053Y-83272986D01*
X92165053Y-83272986D02*
X92212672Y-83320605D01*
X92212672Y-83320605D02*
X92307910Y-83368224D01*
X92307910Y-83368224D02*
X92403148Y-83368224D01*
X92403148Y-83368224D02*
X92498386Y-83320605D01*
X92498386Y-83320605D02*
X92546005Y-83272986D01*
X92546005Y-83272986D02*
X92593624Y-83177748D01*
X92593624Y-83177748D02*
X92593624Y-82844415D01*
X92117434Y-84272986D02*
X92117434Y-84082510D01*
X92117434Y-84082510D02*
X92165053Y-83987272D01*
X92165053Y-83987272D02*
X92212672Y-83939653D01*
X92212672Y-83939653D02*
X92355529Y-83844415D01*
X92355529Y-83844415D02*
X92546005Y-83796796D01*
X92546005Y-83796796D02*
X92926957Y-83796796D01*
X92926957Y-83796796D02*
X93022195Y-83844415D01*
X93022195Y-83844415D02*
X93069815Y-83892034D01*
X93069815Y-83892034D02*
X93117434Y-83987272D01*
X93117434Y-83987272D02*
X93117434Y-84177748D01*
X93117434Y-84177748D02*
X93069815Y-84272986D01*
X93069815Y-84272986D02*
X93022195Y-84320605D01*
X93022195Y-84320605D02*
X92926957Y-84368224D01*
X92926957Y-84368224D02*
X92688862Y-84368224D01*
X92688862Y-84368224D02*
X92593624Y-84320605D01*
X92593624Y-84320605D02*
X92546005Y-84272986D01*
X92546005Y-84272986D02*
X92498386Y-84177748D01*
X92498386Y-84177748D02*
X92498386Y-83987272D01*
X92498386Y-83987272D02*
X92546005Y-83892034D01*
X92546005Y-83892034D02*
X92593624Y-83844415D01*
X92593624Y-83844415D02*
X92688862Y-83796796D01*
X147318690Y-137191714D02*
X147171162Y-137161525D01*
X147171162Y-137161525D02*
X146964966Y-137042477D01*
X146964966Y-137042477D02*
X146906297Y-136953619D01*
X146906297Y-136953619D02*
X146888867Y-136888570D01*
X146888867Y-136888570D02*
X146895247Y-136782282D01*
X146895247Y-136782282D02*
X146942866Y-136699803D01*
X146942866Y-136699803D02*
X147031724Y-136641134D01*
X147031724Y-136641134D02*
X147096773Y-136623704D01*
X147096773Y-136623704D02*
X147203061Y-136630084D01*
X147203061Y-136630084D02*
X147391828Y-136684083D01*
X147391828Y-136684083D02*
X147498116Y-136690463D01*
X147498116Y-136690463D02*
X147563165Y-136673033D01*
X147563165Y-136673033D02*
X147652023Y-136614364D01*
X147652023Y-136614364D02*
X147699642Y-136531885D01*
X147699642Y-136531885D02*
X147706022Y-136425597D01*
X147706022Y-136425597D02*
X147688592Y-136360548D01*
X147688592Y-136360548D02*
X147629923Y-136271690D01*
X147629923Y-136271690D02*
X147423727Y-136152642D01*
X147423727Y-136152642D02*
X147276199Y-136122453D01*
X146690760Y-136279321D02*
X146402085Y-136112654D01*
X146016462Y-136494858D02*
X146428855Y-136732953D01*
X146428855Y-136732953D02*
X146928855Y-135866928D01*
X146928855Y-135866928D02*
X146516462Y-135628833D01*
X145191676Y-136018667D02*
X145686547Y-136304382D01*
X145439111Y-136161525D02*
X145939111Y-135295499D01*
X145939111Y-135295499D02*
X145950162Y-135466836D01*
X145950162Y-135466836D02*
X145985021Y-135596934D01*
X145985021Y-135596934D02*
X146043690Y-135685792D01*
X195644100Y-144099520D02*
X195501243Y-144147139D01*
X195501243Y-144147139D02*
X195263148Y-144147139D01*
X195263148Y-144147139D02*
X195167910Y-144099520D01*
X195167910Y-144099520D02*
X195120291Y-144051900D01*
X195120291Y-144051900D02*
X195072672Y-143956662D01*
X195072672Y-143956662D02*
X195072672Y-143861424D01*
X195072672Y-143861424D02*
X195120291Y-143766186D01*
X195120291Y-143766186D02*
X195167910Y-143718567D01*
X195167910Y-143718567D02*
X195263148Y-143670948D01*
X195263148Y-143670948D02*
X195453624Y-143623329D01*
X195453624Y-143623329D02*
X195548862Y-143575710D01*
X195548862Y-143575710D02*
X195596481Y-143528091D01*
X195596481Y-143528091D02*
X195644100Y-143432853D01*
X195644100Y-143432853D02*
X195644100Y-143337615D01*
X195644100Y-143337615D02*
X195596481Y-143242377D01*
X195596481Y-143242377D02*
X195548862Y-143194758D01*
X195548862Y-143194758D02*
X195453624Y-143147139D01*
X195453624Y-143147139D02*
X195215529Y-143147139D01*
X195215529Y-143147139D02*
X195072672Y-143194758D01*
X194644100Y-143623329D02*
X194310767Y-143623329D01*
X194167910Y-144147139D02*
X194644100Y-144147139D01*
X194644100Y-144147139D02*
X194644100Y-143147139D01*
X194644100Y-143147139D02*
X194167910Y-143147139D01*
X193548862Y-143147139D02*
X193453624Y-143147139D01*
X193453624Y-143147139D02*
X193358386Y-143194758D01*
X193358386Y-143194758D02*
X193310767Y-143242377D01*
X193310767Y-143242377D02*
X193263148Y-143337615D01*
X193263148Y-143337615D02*
X193215529Y-143528091D01*
X193215529Y-143528091D02*
X193215529Y-143766186D01*
X193215529Y-143766186D02*
X193263148Y-143956662D01*
X193263148Y-143956662D02*
X193310767Y-144051900D01*
X193310767Y-144051900D02*
X193358386Y-144099520D01*
X193358386Y-144099520D02*
X193453624Y-144147139D01*
X193453624Y-144147139D02*
X193548862Y-144147139D01*
X193548862Y-144147139D02*
X193644100Y-144099520D01*
X193644100Y-144099520D02*
X193691719Y-144051900D01*
X193691719Y-144051900D02*
X193739338Y-143956662D01*
X193739338Y-143956662D02*
X193786957Y-143766186D01*
X193786957Y-143766186D02*
X193786957Y-143528091D01*
X193786957Y-143528091D02*
X193739338Y-143337615D01*
X193739338Y-143337615D02*
X193691719Y-143242377D01*
X193691719Y-143242377D02*
X193644100Y-143194758D01*
X193644100Y-143194758D02*
X193548862Y-143147139D01*
X186166719Y-84568220D02*
X186023862Y-84615839D01*
X186023862Y-84615839D02*
X185785767Y-84615839D01*
X185785767Y-84615839D02*
X185690529Y-84568220D01*
X185690529Y-84568220D02*
X185642910Y-84520600D01*
X185642910Y-84520600D02*
X185595291Y-84425362D01*
X185595291Y-84425362D02*
X185595291Y-84330124D01*
X185595291Y-84330124D02*
X185642910Y-84234886D01*
X185642910Y-84234886D02*
X185690529Y-84187267D01*
X185690529Y-84187267D02*
X185785767Y-84139648D01*
X185785767Y-84139648D02*
X185976243Y-84092029D01*
X185976243Y-84092029D02*
X186071481Y-84044410D01*
X186071481Y-84044410D02*
X186119100Y-83996791D01*
X186119100Y-83996791D02*
X186166719Y-83901553D01*
X186166719Y-83901553D02*
X186166719Y-83806315D01*
X186166719Y-83806315D02*
X186119100Y-83711077D01*
X186119100Y-83711077D02*
X186071481Y-83663458D01*
X186071481Y-83663458D02*
X185976243Y-83615839D01*
X185976243Y-83615839D02*
X185738148Y-83615839D01*
X185738148Y-83615839D02*
X185595291Y-83663458D01*
X184833386Y-84092029D02*
X184690529Y-84139648D01*
X184690529Y-84139648D02*
X184642910Y-84187267D01*
X184642910Y-84187267D02*
X184595291Y-84282505D01*
X184595291Y-84282505D02*
X184595291Y-84425362D01*
X184595291Y-84425362D02*
X184642910Y-84520600D01*
X184642910Y-84520600D02*
X184690529Y-84568220D01*
X184690529Y-84568220D02*
X184785767Y-84615839D01*
X184785767Y-84615839D02*
X185166719Y-84615839D01*
X185166719Y-84615839D02*
X185166719Y-83615839D01*
X185166719Y-83615839D02*
X184833386Y-83615839D01*
X184833386Y-83615839D02*
X184738148Y-83663458D01*
X184738148Y-83663458D02*
X184690529Y-83711077D01*
X184690529Y-83711077D02*
X184642910Y-83806315D01*
X184642910Y-83806315D02*
X184642910Y-83901553D01*
X184642910Y-83901553D02*
X184690529Y-83996791D01*
X184690529Y-83996791D02*
X184738148Y-84044410D01*
X184738148Y-84044410D02*
X184833386Y-84092029D01*
X184833386Y-84092029D02*
X185166719Y-84092029D01*
X183642910Y-84615839D02*
X184214338Y-84615839D01*
X183928624Y-84615839D02*
X183928624Y-83615839D01*
X183928624Y-83615839D02*
X184023862Y-83758696D01*
X184023862Y-83758696D02*
X184119100Y-83853934D01*
X184119100Y-83853934D02*
X184214338Y-83901553D01*
X148066719Y-66708820D02*
X147923862Y-66756439D01*
X147923862Y-66756439D02*
X147685767Y-66756439D01*
X147685767Y-66756439D02*
X147590529Y-66708820D01*
X147590529Y-66708820D02*
X147542910Y-66661200D01*
X147542910Y-66661200D02*
X147495291Y-66565962D01*
X147495291Y-66565962D02*
X147495291Y-66470724D01*
X147495291Y-66470724D02*
X147542910Y-66375486D01*
X147542910Y-66375486D02*
X147590529Y-66327867D01*
X147590529Y-66327867D02*
X147685767Y-66280248D01*
X147685767Y-66280248D02*
X147876243Y-66232629D01*
X147876243Y-66232629D02*
X147971481Y-66185010D01*
X147971481Y-66185010D02*
X148019100Y-66137391D01*
X148019100Y-66137391D02*
X148066719Y-66042153D01*
X148066719Y-66042153D02*
X148066719Y-65946915D01*
X148066719Y-65946915D02*
X148019100Y-65851677D01*
X148019100Y-65851677D02*
X147971481Y-65804058D01*
X147971481Y-65804058D02*
X147876243Y-65756439D01*
X147876243Y-65756439D02*
X147638148Y-65756439D01*
X147638148Y-65756439D02*
X147495291Y-65804058D01*
X146733386Y-66232629D02*
X146590529Y-66280248D01*
X146590529Y-66280248D02*
X146542910Y-66327867D01*
X146542910Y-66327867D02*
X146495291Y-66423105D01*
X146495291Y-66423105D02*
X146495291Y-66565962D01*
X146495291Y-66565962D02*
X146542910Y-66661200D01*
X146542910Y-66661200D02*
X146590529Y-66708820D01*
X146590529Y-66708820D02*
X146685767Y-66756439D01*
X146685767Y-66756439D02*
X147066719Y-66756439D01*
X147066719Y-66756439D02*
X147066719Y-65756439D01*
X147066719Y-65756439D02*
X146733386Y-65756439D01*
X146733386Y-65756439D02*
X146638148Y-65804058D01*
X146638148Y-65804058D02*
X146590529Y-65851677D01*
X146590529Y-65851677D02*
X146542910Y-65946915D01*
X146542910Y-65946915D02*
X146542910Y-66042153D01*
X146542910Y-66042153D02*
X146590529Y-66137391D01*
X146590529Y-66137391D02*
X146638148Y-66185010D01*
X146638148Y-66185010D02*
X146733386Y-66232629D01*
X146733386Y-66232629D02*
X147066719Y-66232629D01*
X146161957Y-65756439D02*
X145542910Y-65756439D01*
X145542910Y-65756439D02*
X145876243Y-66137391D01*
X145876243Y-66137391D02*
X145733386Y-66137391D01*
X145733386Y-66137391D02*
X145638148Y-66185010D01*
X145638148Y-66185010D02*
X145590529Y-66232629D01*
X145590529Y-66232629D02*
X145542910Y-66327867D01*
X145542910Y-66327867D02*
X145542910Y-66565962D01*
X145542910Y-66565962D02*
X145590529Y-66661200D01*
X145590529Y-66661200D02*
X145638148Y-66708820D01*
X145638148Y-66708820D02*
X145733386Y-66756439D01*
X145733386Y-66756439D02*
X146019100Y-66756439D01*
X146019100Y-66756439D02*
X146114338Y-66708820D01*
X146114338Y-66708820D02*
X146161957Y-66661200D01*
X128945258Y-54802580D02*
X128802401Y-54850199D01*
X128802401Y-54850199D02*
X128564306Y-54850199D01*
X128564306Y-54850199D02*
X128469068Y-54802580D01*
X128469068Y-54802580D02*
X128421449Y-54754960D01*
X128421449Y-54754960D02*
X128373830Y-54659722D01*
X128373830Y-54659722D02*
X128373830Y-54564484D01*
X128373830Y-54564484D02*
X128421449Y-54469246D01*
X128421449Y-54469246D02*
X128469068Y-54421627D01*
X128469068Y-54421627D02*
X128564306Y-54374008D01*
X128564306Y-54374008D02*
X128754782Y-54326389D01*
X128754782Y-54326389D02*
X128850020Y-54278770D01*
X128850020Y-54278770D02*
X128897639Y-54231151D01*
X128897639Y-54231151D02*
X128945258Y-54135913D01*
X128945258Y-54135913D02*
X128945258Y-54040675D01*
X128945258Y-54040675D02*
X128897639Y-53945437D01*
X128897639Y-53945437D02*
X128850020Y-53897818D01*
X128850020Y-53897818D02*
X128754782Y-53850199D01*
X128754782Y-53850199D02*
X128516687Y-53850199D01*
X128516687Y-53850199D02*
X128373830Y-53897818D01*
X127992877Y-54564484D02*
X127516687Y-54564484D01*
X128088115Y-54850199D02*
X127754782Y-53850199D01*
X127754782Y-53850199D02*
X127421449Y-54850199D01*
X126659544Y-54183532D02*
X126659544Y-54850199D01*
X126897639Y-53802580D02*
X127135734Y-54516865D01*
X127135734Y-54516865D02*
X126516687Y-54516865D01*
X109966719Y-76233820D02*
X109823862Y-76281439D01*
X109823862Y-76281439D02*
X109585767Y-76281439D01*
X109585767Y-76281439D02*
X109490529Y-76233820D01*
X109490529Y-76233820D02*
X109442910Y-76186200D01*
X109442910Y-76186200D02*
X109395291Y-76090962D01*
X109395291Y-76090962D02*
X109395291Y-75995724D01*
X109395291Y-75995724D02*
X109442910Y-75900486D01*
X109442910Y-75900486D02*
X109490529Y-75852867D01*
X109490529Y-75852867D02*
X109585767Y-75805248D01*
X109585767Y-75805248D02*
X109776243Y-75757629D01*
X109776243Y-75757629D02*
X109871481Y-75710010D01*
X109871481Y-75710010D02*
X109919100Y-75662391D01*
X109919100Y-75662391D02*
X109966719Y-75567153D01*
X109966719Y-75567153D02*
X109966719Y-75471915D01*
X109966719Y-75471915D02*
X109919100Y-75376677D01*
X109919100Y-75376677D02*
X109871481Y-75329058D01*
X109871481Y-75329058D02*
X109776243Y-75281439D01*
X109776243Y-75281439D02*
X109538148Y-75281439D01*
X109538148Y-75281439D02*
X109395291Y-75329058D01*
X108633386Y-75757629D02*
X108490529Y-75805248D01*
X108490529Y-75805248D02*
X108442910Y-75852867D01*
X108442910Y-75852867D02*
X108395291Y-75948105D01*
X108395291Y-75948105D02*
X108395291Y-76090962D01*
X108395291Y-76090962D02*
X108442910Y-76186200D01*
X108442910Y-76186200D02*
X108490529Y-76233820D01*
X108490529Y-76233820D02*
X108585767Y-76281439D01*
X108585767Y-76281439D02*
X108966719Y-76281439D01*
X108966719Y-76281439D02*
X108966719Y-75281439D01*
X108966719Y-75281439D02*
X108633386Y-75281439D01*
X108633386Y-75281439D02*
X108538148Y-75329058D01*
X108538148Y-75329058D02*
X108490529Y-75376677D01*
X108490529Y-75376677D02*
X108442910Y-75471915D01*
X108442910Y-75471915D02*
X108442910Y-75567153D01*
X108442910Y-75567153D02*
X108490529Y-75662391D01*
X108490529Y-75662391D02*
X108538148Y-75710010D01*
X108538148Y-75710010D02*
X108633386Y-75757629D01*
X108633386Y-75757629D02*
X108966719Y-75757629D01*
X107490529Y-75281439D02*
X107966719Y-75281439D01*
X107966719Y-75281439D02*
X108014338Y-75757629D01*
X108014338Y-75757629D02*
X107966719Y-75710010D01*
X107966719Y-75710010D02*
X107871481Y-75662391D01*
X107871481Y-75662391D02*
X107633386Y-75662391D01*
X107633386Y-75662391D02*
X107538148Y-75710010D01*
X107538148Y-75710010D02*
X107490529Y-75757629D01*
X107490529Y-75757629D02*
X107442910Y-75852867D01*
X107442910Y-75852867D02*
X107442910Y-76090962D01*
X107442910Y-76090962D02*
X107490529Y-76186200D01*
X107490529Y-76186200D02*
X107538148Y-76233820D01*
X107538148Y-76233820D02*
X107633386Y-76281439D01*
X107633386Y-76281439D02*
X107871481Y-76281439D01*
X107871481Y-76281439D02*
X107966719Y-76233820D01*
X107966719Y-76233820D02*
X108014338Y-76186200D01*
X95716664Y-131282524D02*
X95899677Y-130599512D01*
X97466664Y-134313613D02*
X98149677Y-134496626D01*
X95899677Y-130599512D02*
X98497753Y-129099512D01*
X98149677Y-134496626D02*
X100314740Y-133246626D01*
X98497753Y-129099512D02*
X99180766Y-129282524D01*
X99680766Y-130148550D02*
X99180766Y-129282524D01*
X102363779Y-133795664D02*
X102713779Y-134401882D01*
X102713779Y-134401882D02*
X106610893Y-132151882D01*
X104260893Y-128081562D02*
X100363779Y-130331562D01*
X104560893Y-128601178D02*
X104260893Y-128081562D01*
X106610893Y-132151882D02*
X106360893Y-131718869D01*
X102363777Y-133795665D02*
G75*
G03*
X100314740Y-133246627I-1299037J-749999D01*
G01*
X99680767Y-130148549D02*
G75*
G03*
X100363779Y-130331562I433012J249999D01*
G01*
X202235904Y-84594210D02*
X201781385Y-84052535D01*
X205722586Y-84899255D02*
X206264261Y-84444736D01*
X201781385Y-84052535D02*
X202042852Y-81063951D01*
X206264261Y-84444736D02*
X206482150Y-81954249D01*
X202042852Y-81063951D02*
X202584527Y-80609431D01*
X203580722Y-80696587D02*
X202584527Y-80609431D01*
X208107176Y-80590691D02*
X208804512Y-80651700D01*
X208804512Y-80651700D02*
X209196713Y-76168823D01*
X204514598Y-75759192D02*
X204122397Y-80242068D01*
X205112315Y-75811485D02*
X204514598Y-75759192D01*
X209196713Y-76168823D02*
X208698616Y-76125246D01*
X208107176Y-80590692D02*
G75*
G03*
X206482151Y-81954249I-130734J-1494291D01*
G01*
X203580722Y-80696586D02*
G75*
G03*
X204122396Y-80242068I43578J498096D01*
G01*
X168854815Y-62546920D02*
X169354815Y-62046920D01*
X168854815Y-66046920D02*
X169354815Y-66546920D01*
X169354815Y-62046920D02*
X172354815Y-62046920D01*
X169354815Y-66546920D02*
X171854815Y-66546920D01*
X172354815Y-62046920D02*
X172854815Y-62546920D01*
X172854815Y-63546920D02*
X172854815Y-62546920D01*
X173354815Y-68046920D02*
X173354815Y-68746920D01*
X173354815Y-68746920D02*
X177854815Y-68746920D01*
X177854815Y-64046920D02*
X173354815Y-64046920D01*
X177854815Y-64646920D02*
X177854815Y-64046920D01*
X177854815Y-68746920D02*
X177854815Y-68246920D01*
X173354815Y-68046920D02*
G75*
G03*
X171854815Y-66546920I-1500000J0D01*
G01*
X172854815Y-63546920D02*
G75*
G03*
X173354815Y-64046920I500000J0D01*
G01*
X187904815Y-93503220D02*
X188404815Y-93003220D01*
X187904815Y-97003220D02*
X188404815Y-97503220D01*
X188404815Y-93003220D02*
X191404815Y-93003220D01*
X188404815Y-97503220D02*
X190904815Y-97503220D01*
X191404815Y-93003220D02*
X191904815Y-93503220D01*
X191904815Y-94503220D02*
X191904815Y-93503220D01*
X192404815Y-99003220D02*
X192404815Y-99703220D01*
X192404815Y-99703220D02*
X196904815Y-99703220D01*
X196904815Y-95003220D02*
X192404815Y-95003220D01*
X196904815Y-95603220D02*
X196904815Y-95003220D01*
X196904815Y-99703220D02*
X196904815Y-99203220D01*
X192404815Y-99003220D02*
G75*
G03*
X190904815Y-97503220I-1500000J0D01*
G01*
X191904815Y-94503220D02*
G75*
G03*
X192404815Y-95003220I500000J0D01*
G01*
X130754815Y-63737620D02*
X131254815Y-63237620D01*
X130754815Y-67237620D02*
X131254815Y-67737620D01*
X131254815Y-63237620D02*
X134254815Y-63237620D01*
X131254815Y-67737620D02*
X133754815Y-67737620D01*
X134254815Y-63237620D02*
X134754815Y-63737620D01*
X134754815Y-64737620D02*
X134754815Y-63737620D01*
X135254815Y-69237620D02*
X135254815Y-69937620D01*
X135254815Y-69937620D02*
X139754815Y-69937620D01*
X139754815Y-65237620D02*
X135254815Y-65237620D01*
X139754815Y-65837620D02*
X139754815Y-65237620D01*
X139754815Y-69937620D02*
X139754815Y-69437620D01*
X135254815Y-69237620D02*
G75*
G03*
X133754815Y-67737620I-1500000J0D01*
G01*
X134754815Y-64737620D02*
G75*
G03*
X135254815Y-65237620I500000J0D01*
G01*
X187904815Y-112553220D02*
X188404815Y-112053220D01*
X187904815Y-116053220D02*
X188404815Y-116553220D01*
X188404815Y-112053220D02*
X191404815Y-112053220D01*
X188404815Y-116553220D02*
X190904815Y-116553220D01*
X191404815Y-112053220D02*
X191904815Y-112553220D01*
X191904815Y-113553220D02*
X191904815Y-112553220D01*
X192404815Y-118053220D02*
X192404815Y-118753220D01*
X192404815Y-118753220D02*
X196904815Y-118753220D01*
X196904815Y-114053220D02*
X192404815Y-114053220D01*
X196904815Y-114653220D02*
X196904815Y-114053220D01*
X196904815Y-118753220D02*
X196904815Y-118253220D01*
X192404815Y-118053220D02*
G75*
G03*
X190904815Y-116553220I-1500000J0D01*
G01*
X191904815Y-113553220D02*
G75*
G03*
X192404815Y-114053220I500000J0D01*
G01*
X149804783Y-37543780D02*
X150304783Y-37043780D01*
X149804783Y-41043780D02*
X150304783Y-41543780D01*
X150304783Y-37043780D02*
X153304783Y-37043780D01*
X150304783Y-41543780D02*
X152804783Y-41543780D01*
X153304783Y-37043780D02*
X153804783Y-37543780D01*
X153804783Y-38543780D02*
X153804783Y-37543780D01*
X154304783Y-43043780D02*
X154304783Y-43743780D01*
X154304783Y-43743780D02*
X158804783Y-43743780D01*
X158804783Y-39043780D02*
X154304783Y-39043780D01*
X158804783Y-39643780D02*
X158804783Y-39043780D01*
X158804783Y-43743780D02*
X158804783Y-43243780D01*
X154304783Y-43043780D02*
G75*
G03*
X152804783Y-41543780I-1500000J0D01*
G01*
X153804783Y-38543780D02*
G75*
G03*
X154304783Y-39043780I500000J0D01*
G01*
X201254815Y-124634420D02*
X200754815Y-124134420D01*
X204754815Y-124634420D02*
X205254815Y-124134420D01*
X200754815Y-124134420D02*
X200754815Y-121134420D01*
X205254815Y-124134420D02*
X205254815Y-121634420D01*
X200754815Y-121134420D02*
X201254815Y-120634420D01*
X202254815Y-120634420D02*
X201254815Y-120634420D01*
X206754815Y-120134420D02*
X207454815Y-120134420D01*
X207454815Y-120134420D02*
X207454815Y-115634420D01*
X202754815Y-115634420D02*
X202754815Y-120134420D01*
X203354815Y-115634420D02*
X202754815Y-115634420D01*
X207454815Y-115634420D02*
X206954815Y-115634420D01*
X206754815Y-120134420D02*
G75*
G03*
X205254815Y-121634420I0J-1500000D01*
G01*
X202254815Y-120634420D02*
G75*
G03*
X202754815Y-120134420I0J500000D01*
G01*
X201254815Y-65103220D02*
X200754815Y-64603220D01*
X204754815Y-65103220D02*
X205254815Y-64603220D01*
X200754815Y-64603220D02*
X200754815Y-61603220D01*
X205254815Y-64603220D02*
X205254815Y-62103220D01*
X200754815Y-61603220D02*
X201254815Y-61103220D01*
X202254815Y-61103220D02*
X201254815Y-61103220D01*
X206754815Y-60603220D02*
X207454815Y-60603220D01*
X207454815Y-60603220D02*
X207454815Y-56103220D01*
X202754815Y-56103220D02*
X202754815Y-60603220D01*
X203354815Y-56103220D02*
X202754815Y-56103220D01*
X207454815Y-56103220D02*
X206954815Y-56103220D01*
X206754815Y-60603220D02*
G75*
G03*
X205254815Y-62103220I0J-1500000D01*
G01*
X202254815Y-61103220D02*
G75*
G03*
X202754815Y-60603220I0J500000D01*
G01*
X124801615Y-123268920D02*
X125301615Y-122768920D01*
X124801615Y-126768920D02*
X125301615Y-127268920D01*
X125301615Y-122768920D02*
X128301615Y-122768920D01*
X125301615Y-127268920D02*
X127801615Y-127268920D01*
X128301615Y-122768920D02*
X128801615Y-123268920D01*
X128801615Y-124268920D02*
X128801615Y-123268920D01*
X129301615Y-128768920D02*
X129301615Y-129468920D01*
X129301615Y-129468920D02*
X133801615Y-129468920D01*
X133801615Y-124768920D02*
X129301615Y-124768920D01*
X133801615Y-125368920D02*
X133801615Y-124768920D01*
X133801615Y-129468920D02*
X133801615Y-128968920D01*
X129301615Y-128768920D02*
G75*
G03*
X127801615Y-127268920I-1500000J0D01*
G01*
X128801615Y-124268920D02*
G75*
G03*
X129301615Y-124768920I500000J0D01*
G01*
X102354715Y-109918920D02*
X102854715Y-110418920D01*
X98854715Y-109918920D02*
X98354715Y-110418920D01*
X102854715Y-110418920D02*
X102854715Y-113418920D01*
X98354715Y-110418920D02*
X98354715Y-112918920D01*
X102854715Y-113418920D02*
X102354715Y-113918920D01*
X101354715Y-113918920D02*
X102354715Y-113918920D01*
X96854715Y-114418920D02*
X96154715Y-114418920D01*
X96154715Y-114418920D02*
X96154715Y-118918920D01*
X100854715Y-118918920D02*
X100854715Y-114418920D01*
X100254715Y-118918920D02*
X100854715Y-118918920D01*
X96154715Y-118918920D02*
X96654715Y-118918920D01*
X96854715Y-114418920D02*
G75*
G03*
X98354715Y-112918920I0J1500000D01*
G01*
X101354715Y-113918920D02*
G75*
G03*
X100854715Y-114418920I0J-500000D01*
G01*
X77080179Y-145988311D02*
X77080179Y-145281205D01*
X79555053Y-148463185D02*
X80262160Y-148463185D01*
X77080179Y-145281205D02*
X79201500Y-143159884D01*
X80262160Y-148463185D02*
X82029927Y-146695418D01*
X79201500Y-143159884D02*
X79908606Y-143159884D01*
X80615713Y-143866991D02*
X79908606Y-143159884D01*
X84151247Y-146695418D02*
X84646222Y-147190393D01*
X84646222Y-147190393D02*
X87828202Y-144008412D01*
X84504800Y-140685010D02*
X81322820Y-143866991D01*
X84929064Y-141109275D02*
X84504800Y-140685010D01*
X87828202Y-144008412D02*
X87474649Y-143654859D01*
X84151246Y-146695419D02*
G75*
G03*
X82029928Y-146695419I-1060659J-1060659D01*
G01*
X80615714Y-143866990D02*
G75*
G03*
X81322820Y-143866991I353553J353552D01*
G01*
X187904783Y-55403180D02*
X188404783Y-54903180D01*
X187904783Y-58903180D02*
X188404783Y-59403180D01*
X188404783Y-54903180D02*
X191404783Y-54903180D01*
X188404783Y-59403180D02*
X190904783Y-59403180D01*
X191404783Y-54903180D02*
X191904783Y-55403180D01*
X191904783Y-56403180D02*
X191904783Y-55403180D01*
X192404783Y-60903180D02*
X192404783Y-61603180D01*
X192404783Y-61603180D02*
X196904783Y-61603180D01*
X196904783Y-56903180D02*
X192404783Y-56903180D01*
X196904783Y-57503180D02*
X196904783Y-56903180D01*
X196904783Y-61603180D02*
X196904783Y-61103180D01*
X192404783Y-60903180D02*
G75*
G03*
X190904783Y-59403180I-1500000J0D01*
G01*
X191904783Y-56403180D02*
G75*
G03*
X192404783Y-56903180I500000J0D01*
G01*
X62578419Y-165165071D02*
X62395407Y-164482058D01*
X65609508Y-166915071D02*
X66292521Y-166732058D01*
X62395407Y-164482058D02*
X63895407Y-161883982D01*
X66292521Y-166732058D02*
X67542521Y-164566995D01*
X63895407Y-161883982D02*
X64578419Y-161700969D01*
X65444445Y-162200969D02*
X64578419Y-161700969D01*
X69591559Y-164017956D02*
X70197777Y-164367956D01*
X70197777Y-164367956D02*
X72447777Y-160470842D01*
X68377457Y-158120842D02*
X66127457Y-162017956D01*
X68897073Y-158420842D02*
X68377457Y-158120842D01*
X72447777Y-160470842D02*
X72014764Y-160220842D01*
X69591558Y-164017958D02*
G75*
G03*
X67542522Y-164566995I-749999J-1299037D01*
G01*
X65444446Y-162200968D02*
G75*
G03*
X66127457Y-162017956I249999J433012D01*
G01*
X79148762Y-136597383D02*
X79050351Y-137297609D01*
X77042409Y-133802159D02*
X76342184Y-133703749D01*
X79050351Y-137297609D02*
X76654445Y-139103054D01*
X76342184Y-133703749D02*
X74345595Y-135208286D01*
X76654445Y-139103054D02*
X75954220Y-139004643D01*
X75352405Y-138206008D02*
X75954220Y-139004643D01*
X72244919Y-134913056D02*
X71823649Y-134354011D01*
X71823649Y-134354011D02*
X68229789Y-137062178D01*
X71058320Y-140815765D02*
X74652179Y-138107598D01*
X70697231Y-140336584D02*
X71058320Y-140815765D01*
X68229789Y-137062178D02*
X68530696Y-137461496D01*
X72244920Y-134913055D02*
G75*
G03*
X74345595Y-135208286I1197953J902722D01*
G01*
X75352404Y-138206009D02*
G75*
G03*
X74652179Y-138107599I-399317J-300906D01*
G01*
X111704815Y-104218820D02*
X112204815Y-103718820D01*
X111704815Y-107718820D02*
X112204815Y-108218820D01*
X112204815Y-103718820D02*
X115204815Y-103718820D01*
X112204815Y-108218820D02*
X114704815Y-108218820D01*
X115204815Y-103718820D02*
X115704815Y-104218820D01*
X115704815Y-105218820D02*
X115704815Y-104218820D01*
X116204815Y-109718820D02*
X116204815Y-110418820D01*
X116204815Y-110418820D02*
X120704815Y-110418820D01*
X120704815Y-105718820D02*
X116204815Y-105718820D01*
X120704815Y-106318820D02*
X120704815Y-105718820D01*
X120704815Y-110418820D02*
X120704815Y-109918820D01*
X116204815Y-109718820D02*
G75*
G03*
X114704815Y-108218820I-1500000J0D01*
G01*
X115704815Y-105218820D02*
G75*
G03*
X116204815Y-105718820I500000J0D01*
G01*
X149804815Y-94693820D02*
X150304815Y-94193820D01*
X149804815Y-98193820D02*
X150304815Y-98693820D01*
X150304815Y-94193820D02*
X153304815Y-94193820D01*
X150304815Y-98693820D02*
X152804815Y-98693820D01*
X153304815Y-94193820D02*
X153804815Y-94693820D01*
X153804815Y-95693820D02*
X153804815Y-94693820D01*
X154304815Y-100193820D02*
X154304815Y-100893820D01*
X154304815Y-100893820D02*
X158804815Y-100893820D01*
X158804815Y-96193820D02*
X154304815Y-96193820D01*
X158804815Y-96793820D02*
X158804815Y-96193820D01*
X158804815Y-100893820D02*
X158804815Y-100393820D01*
X154304815Y-100193820D02*
G75*
G03*
X152804815Y-98693820I-1500000J0D01*
G01*
X153804815Y-95693820D02*
G75*
G03*
X154304815Y-96193820I500000J0D01*
G01*
X130754815Y-82787620D02*
X131254815Y-82287620D01*
X130754815Y-86287620D02*
X131254815Y-86787620D01*
X131254815Y-82287620D02*
X134254815Y-82287620D01*
X131254815Y-86787620D02*
X133754815Y-86787620D01*
X134254815Y-82287620D02*
X134754815Y-82787620D01*
X134754815Y-83787620D02*
X134754815Y-82787620D01*
X135254815Y-88287620D02*
X135254815Y-88987620D01*
X135254815Y-88987620D02*
X139754815Y-88987620D01*
X139754815Y-84287620D02*
X135254815Y-84287620D01*
X139754815Y-84887620D02*
X139754815Y-84287620D01*
X139754815Y-88987620D02*
X139754815Y-88487620D01*
X135254815Y-88287620D02*
G75*
G03*
X133754815Y-86787620I-1500000J0D01*
G01*
X134754815Y-83787620D02*
G75*
G03*
X135254815Y-84287620I500000J0D01*
G01*
X111704815Y-85168820D02*
X112204815Y-84668820D01*
X111704815Y-88668820D02*
X112204815Y-89168820D01*
X112204815Y-84668820D02*
X115204815Y-84668820D01*
X112204815Y-89168820D02*
X114704815Y-89168820D01*
X115204815Y-84668820D02*
X115704815Y-85168820D01*
X115704815Y-86168820D02*
X115704815Y-85168820D01*
X116204815Y-90668820D02*
X116204815Y-91368820D01*
X116204815Y-91368820D02*
X120704815Y-91368820D01*
X120704815Y-86668820D02*
X116204815Y-86668820D01*
X120704815Y-87268820D02*
X120704815Y-86668820D01*
X120704815Y-91368820D02*
X120704815Y-90868820D01*
X116204815Y-90668820D02*
G75*
G03*
X114704815Y-89168820I-1500000J0D01*
G01*
X115704815Y-86168820D02*
G75*
G03*
X116204815Y-86668820I500000J0D01*
G01*
X149804815Y-75643820D02*
X150304815Y-75143820D01*
X149804815Y-79143820D02*
X150304815Y-79643820D01*
X150304815Y-75143820D02*
X153304815Y-75143820D01*
X150304815Y-79643820D02*
X152804815Y-79643820D01*
X153304815Y-75143820D02*
X153804815Y-75643820D01*
X153804815Y-76643820D02*
X153804815Y-75643820D01*
X154304815Y-81143820D02*
X154304815Y-81843820D01*
X154304815Y-81843820D02*
X158804815Y-81843820D01*
X158804815Y-77143820D02*
X154304815Y-77143820D01*
X158804815Y-77743820D02*
X158804815Y-77143820D01*
X158804815Y-81843820D02*
X158804815Y-81343820D01*
X154304815Y-81143820D02*
G75*
G03*
X152804815Y-79643820I-1500000J0D01*
G01*
X153804815Y-76643820D02*
G75*
G03*
X154304815Y-77143820I500000J0D01*
G01*
X168854815Y-81596920D02*
X169354815Y-81096920D01*
X168854815Y-85096920D02*
X169354815Y-85596920D01*
X169354815Y-81096920D02*
X172354815Y-81096920D01*
X169354815Y-85596920D02*
X171854815Y-85596920D01*
X172354815Y-81096920D02*
X172854815Y-81596920D01*
X172854815Y-82596920D02*
X172854815Y-81596920D01*
X173354815Y-87096920D02*
X173354815Y-87796920D01*
X173354815Y-87796920D02*
X177854815Y-87796920D01*
X177854815Y-83096920D02*
X173354815Y-83096920D01*
X177854815Y-83696920D02*
X177854815Y-83096920D01*
X177854815Y-87796920D02*
X177854815Y-87296920D01*
X173354815Y-87096920D02*
G75*
G03*
X171854815Y-85596920I-1500000J0D01*
G01*
X172854815Y-82596920D02*
G75*
G03*
X173354815Y-83096920I500000J0D01*
G01*
D12*
X182128351Y-32472597D02*
X182128351Y-34472597D01*
X182128351Y-34472597D02*
X184928351Y-34472597D01*
X182128351Y-34996597D02*
X182128351Y-36996597D01*
X182128351Y-36996597D02*
X184928351Y-36996597D01*
X182128351Y-37536597D02*
X182128351Y-39536597D01*
X182128351Y-39536597D02*
X184928351Y-39536597D01*
X182128351Y-40076597D02*
X182128351Y-42076597D01*
X182128351Y-42076597D02*
X184928351Y-42076597D01*
X182128351Y-42616597D02*
X182128351Y-44616597D01*
X182128351Y-44616597D02*
X184928351Y-44616597D01*
X182128351Y-45156597D02*
X182128351Y-47156597D01*
X182128351Y-47156597D02*
X184928351Y-47156597D01*
X182128351Y-47696597D02*
X182128351Y-49696597D01*
X182128351Y-49696597D02*
X184928351Y-49696597D01*
X184928351Y-32472597D02*
X182128351Y-32472597D01*
X184928351Y-34472597D02*
X184928351Y-32472597D01*
X184928351Y-34996597D02*
X182128351Y-34996597D01*
X184928351Y-36996597D02*
X184928351Y-34996597D01*
X184928351Y-37536597D02*
X182128351Y-37536597D01*
X184928351Y-39536597D02*
X184928351Y-37536597D01*
X184928351Y-40076597D02*
X182128351Y-40076597D01*
X184928351Y-42076597D02*
X184928351Y-40076597D01*
X184928351Y-42616597D02*
X182128351Y-42616597D01*
X184928351Y-44616597D02*
X184928351Y-42616597D01*
X184928351Y-45156597D02*
X182128351Y-45156597D01*
X184928351Y-47156597D02*
X184928351Y-45156597D01*
X184928351Y-47696597D02*
X182128351Y-47696597D01*
X184928351Y-49696597D02*
X184928351Y-47696597D01*
X188667351Y-45276597D02*
X188667351Y-48076597D01*
X188667351Y-48076597D02*
X190667351Y-48076597D01*
X190667351Y-45276597D02*
X188667351Y-45276597D01*
X190667351Y-48076597D02*
X190667351Y-45276597D01*
X191167351Y-45276597D02*
X191167351Y-48076597D01*
X191167351Y-48076597D02*
X193167351Y-48076597D01*
X191917351Y-41135972D02*
X191917351Y-38635972D01*
X192367351Y-38185972D02*
X191917351Y-38635972D01*
X192367351Y-41585972D02*
X191917351Y-41135972D01*
X193167351Y-45276597D02*
X191167351Y-45276597D01*
X193167351Y-48076597D02*
X193167351Y-45276597D01*
X193667351Y-45276597D02*
X193667351Y-48076597D01*
X193667351Y-48076597D02*
X195667351Y-48076597D01*
X195667351Y-37135972D02*
X193667351Y-37135972D01*
X195667351Y-42635972D02*
X193667351Y-42635972D01*
X195667351Y-45276597D02*
X193667351Y-45276597D01*
X195667351Y-48076597D02*
X195667351Y-45276597D01*
X196167351Y-45276597D02*
X196167351Y-48076597D01*
X196167351Y-48076597D02*
X198167351Y-48076597D01*
X196967351Y-38185972D02*
X197417351Y-38635972D01*
X196967351Y-41585972D02*
X197417351Y-41135972D01*
X197417351Y-41135972D02*
X197417351Y-38635972D01*
X198167351Y-45276597D02*
X196167351Y-45276597D01*
X198167351Y-48076597D02*
X198167351Y-45276597D01*
X198667351Y-45276597D02*
X198667351Y-48076597D01*
X198667351Y-48076597D02*
X200667351Y-48076597D01*
X199001351Y-33871597D02*
X199001351Y-36671597D01*
X199001351Y-36671597D02*
X201001351Y-36671597D01*
X200667351Y-45276597D02*
X198667351Y-45276597D01*
X200667351Y-48076597D02*
X200667351Y-45276597D01*
X201001351Y-33871597D02*
X199001351Y-33871597D01*
X201001351Y-36671597D02*
X201001351Y-33871597D01*
X204406351Y-32456597D02*
X204406351Y-34456597D01*
X204406351Y-34456597D02*
X207206351Y-34456597D01*
X207206351Y-32456597D02*
X204406351Y-32456597D01*
X207206351Y-34456597D02*
X207206351Y-32456597D01*
D10*
X111704783Y-47068780D02*
X112204783Y-46568780D01*
X111704783Y-50568780D02*
X112204783Y-51068780D01*
X112204783Y-46568780D02*
X115204783Y-46568780D01*
X112204783Y-51068780D02*
X114704783Y-51068780D01*
X115204783Y-46568780D02*
X115704783Y-47068780D01*
X115704783Y-48068780D02*
X115704783Y-47068780D01*
X116204783Y-52568780D02*
X116204783Y-53268780D01*
X116204783Y-53268780D02*
X120704783Y-53268780D01*
X120704783Y-48568780D02*
X116204783Y-48568780D01*
X120704783Y-49168780D02*
X120704783Y-48568780D01*
X120704783Y-53268780D02*
X120704783Y-52768780D01*
X116204783Y-52568780D02*
G75*
G03*
X114704783Y-51068780I-1500000J0D01*
G01*
X115704783Y-48068780D02*
G75*
G03*
X116204783Y-48568780I500000J0D01*
G01*
X102354815Y-62293820D02*
X102854815Y-62793820D01*
X98854815Y-62293820D02*
X98354815Y-62793820D01*
X102854815Y-62793820D02*
X102854815Y-65793820D01*
X98354815Y-62793820D02*
X98354815Y-65293820D01*
X102854815Y-65793820D02*
X102354815Y-66293820D01*
X101354815Y-66293820D02*
X102354815Y-66293820D01*
X96854815Y-66793820D02*
X96154815Y-66793820D01*
X96154815Y-66793820D02*
X96154815Y-71293820D01*
X100854815Y-71293820D02*
X100854815Y-66793820D01*
X100254815Y-71293820D02*
X100854815Y-71293820D01*
X96154815Y-71293820D02*
X96654815Y-71293820D01*
X96854815Y-66793820D02*
G75*
G03*
X98354815Y-65293820I0J1500000D01*
G01*
X101354815Y-66293820D02*
G75*
G03*
X100854815Y-66793820I0J-500000D01*
G01*
X130754815Y-101837620D02*
X131254815Y-101337620D01*
X130754815Y-105337620D02*
X131254815Y-105837620D01*
X131254815Y-101337620D02*
X134254815Y-101337620D01*
X131254815Y-105837620D02*
X133754815Y-105837620D01*
X134254815Y-101337620D02*
X134754815Y-101837620D01*
X134754815Y-102837620D02*
X134754815Y-101837620D01*
X135254815Y-107337620D02*
X135254815Y-108037620D01*
X135254815Y-108037620D02*
X139754815Y-108037620D01*
X139754815Y-103337620D02*
X135254815Y-103337620D01*
X139754815Y-103937620D02*
X139754815Y-103337620D01*
X139754815Y-108037620D02*
X139754815Y-107537620D01*
X135254815Y-107337620D02*
G75*
G03*
X133754815Y-105837620I-1500000J0D01*
G01*
X134754815Y-102837620D02*
G75*
G03*
X135254815Y-103337620I500000J0D01*
G01*
X168854815Y-100646920D02*
X169354815Y-100146920D01*
X168854815Y-104146920D02*
X169354815Y-104646920D01*
X169354815Y-100146920D02*
X172354815Y-100146920D01*
X169354815Y-104646920D02*
X171854815Y-104646920D01*
X172354815Y-100146920D02*
X172854815Y-100646920D01*
X172854815Y-101646920D02*
X172854815Y-100646920D01*
X173354815Y-106146920D02*
X173354815Y-106846920D01*
X173354815Y-106846920D02*
X177854815Y-106846920D01*
X177854815Y-102146920D02*
X173354815Y-102146920D01*
X177854815Y-102746920D02*
X177854815Y-102146920D01*
X177854815Y-106846920D02*
X177854815Y-106346920D01*
X173354815Y-106146920D02*
G75*
G03*
X171854815Y-104646920I-1500000J0D01*
G01*
X172854815Y-101646920D02*
G75*
G03*
X173354815Y-102146920I500000J0D01*
G01*
X168854783Y-43496880D02*
X169354783Y-42996880D01*
X168854783Y-46996880D02*
X169354783Y-47496880D01*
X169354783Y-42996880D02*
X172354783Y-42996880D01*
X169354783Y-47496880D02*
X171854783Y-47496880D01*
X172354783Y-42996880D02*
X172854783Y-43496880D01*
X172854783Y-44496880D02*
X172854783Y-43496880D01*
X173354783Y-48996880D02*
X173354783Y-49696880D01*
X173354783Y-49696880D02*
X177854783Y-49696880D01*
X177854783Y-44996880D02*
X173354783Y-44996880D01*
X177854783Y-45596880D02*
X177854783Y-44996880D01*
X177854783Y-49696880D02*
X177854783Y-49196880D01*
X173354783Y-48996880D02*
G75*
G03*
X171854783Y-47496880I-1500000J0D01*
G01*
X172854783Y-44496880D02*
G75*
G03*
X173354783Y-44996880I500000J0D01*
G01*
X202235904Y-103777010D02*
X201781385Y-103235335D01*
X205722586Y-104082055D02*
X206264261Y-103627536D01*
X201781385Y-103235335D02*
X202042852Y-100246751D01*
X206264261Y-103627536D02*
X206482150Y-101137049D01*
X202042852Y-100246751D02*
X202584527Y-99792231D01*
X203580722Y-99879387D02*
X202584527Y-99792231D01*
X208107176Y-99773491D02*
X208804512Y-99834500D01*
X208804512Y-99834500D02*
X209196713Y-95351623D01*
X204514598Y-94941992D02*
X204122397Y-99424868D01*
X205112315Y-94994285D02*
X204514598Y-94941992D01*
X209196713Y-95351623D02*
X208698616Y-95308046D01*
X208107176Y-99773492D02*
G75*
G03*
X206482151Y-101137049I-130734J-1494291D01*
G01*
X203580722Y-99879386D02*
G75*
G03*
X204122396Y-99424868I43578J498096D01*
G01*
X102354815Y-86106320D02*
X102854815Y-86606320D01*
X98854815Y-86106320D02*
X98354815Y-86606320D01*
X102854815Y-86606320D02*
X102854815Y-89606320D01*
X98354815Y-86606320D02*
X98354815Y-89106320D01*
X102854815Y-89606320D02*
X102354815Y-90106320D01*
X101354815Y-90106320D02*
X102354815Y-90106320D01*
X96854815Y-90606320D02*
X96154815Y-90606320D01*
X96154815Y-90606320D02*
X96154815Y-95106320D01*
X100854815Y-95106320D02*
X100854815Y-90606320D01*
X100254815Y-95106320D02*
X100854815Y-95106320D01*
X96154815Y-95106320D02*
X96654815Y-95106320D01*
X96854815Y-90606320D02*
G75*
G03*
X98354815Y-89106320I0J1500000D01*
G01*
X101354815Y-90106320D02*
G75*
G03*
X100854815Y-90606320I0J-500000D01*
G01*
X153922664Y-129324724D02*
X154605677Y-129141712D01*
X152172664Y-132355813D02*
X152355677Y-133038826D01*
X154605677Y-129141712D02*
X157203753Y-130641712D01*
X152355677Y-133038826D02*
X154520740Y-134288826D01*
X157203753Y-130641712D02*
X157386766Y-131324724D01*
X156886766Y-132190750D02*
X157386766Y-131324724D01*
X155069779Y-136337864D02*
X154719779Y-136944082D01*
X154719779Y-136944082D02*
X158616893Y-139194082D01*
X160966893Y-135123762D02*
X157069779Y-132873762D01*
X160666893Y-135643378D02*
X160966893Y-135123762D01*
X158616893Y-139194082D02*
X158866893Y-138761069D01*
X155069777Y-136337863D02*
G75*
G03*
X154520740Y-134288827I-1299037J749999D01*
G01*
X156886767Y-132190751D02*
G75*
G03*
X157069779Y-132873762I433012J-249999D01*
G01*
X197429815Y-133984520D02*
X197929815Y-133484520D01*
X197429815Y-137484520D02*
X197929815Y-137984520D01*
X197929815Y-133484520D02*
X200929815Y-133484520D01*
X197929815Y-137984520D02*
X200429815Y-137984520D01*
X200929815Y-133484520D02*
X201429815Y-133984520D01*
X201429815Y-134984520D02*
X201429815Y-133984520D01*
X201929815Y-139484520D02*
X201929815Y-140184520D01*
X201929815Y-140184520D02*
X206429815Y-140184520D01*
X206429815Y-135484520D02*
X201929815Y-135484520D01*
X206429815Y-136084520D02*
X206429815Y-135484520D01*
X206429815Y-140184520D02*
X206429815Y-139684520D01*
X201929815Y-139484520D02*
G75*
G03*
X200429815Y-137984520I-1500000J0D01*
G01*
X201429815Y-134984520D02*
G75*
G03*
X201929815Y-135484520I500000J0D01*
G01*
X187904815Y-74453220D02*
X188404815Y-73953220D01*
X187904815Y-77953220D02*
X188404815Y-78453220D01*
X188404815Y-73953220D02*
X191404815Y-73953220D01*
X188404815Y-78453220D02*
X190904815Y-78453220D01*
X191404815Y-73953220D02*
X191904815Y-74453220D01*
X191904815Y-75453220D02*
X191904815Y-74453220D01*
X192404815Y-79953220D02*
X192404815Y-80653220D01*
X192404815Y-80653220D02*
X196904815Y-80653220D01*
X196904815Y-75953220D02*
X192404815Y-75953220D01*
X196904815Y-76553220D02*
X196904815Y-75953220D01*
X196904815Y-80653220D02*
X196904815Y-80153220D01*
X192404815Y-79953220D02*
G75*
G03*
X190904815Y-78453220I-1500000J0D01*
G01*
X191904815Y-75453220D02*
G75*
G03*
X192404815Y-75953220I500000J0D01*
G01*
X149804815Y-56593820D02*
X150304815Y-56093820D01*
X149804815Y-60093820D02*
X150304815Y-60593820D01*
X150304815Y-56093820D02*
X153304815Y-56093820D01*
X150304815Y-60593820D02*
X152804815Y-60593820D01*
X153304815Y-56093820D02*
X153804815Y-56593820D01*
X153804815Y-57593820D02*
X153804815Y-56593820D01*
X154304815Y-62093820D02*
X154304815Y-62793820D01*
X154304815Y-62793820D02*
X158804815Y-62793820D01*
X158804815Y-58093820D02*
X154304815Y-58093820D01*
X158804815Y-58693820D02*
X158804815Y-58093820D01*
X158804815Y-62793820D02*
X158804815Y-62293820D01*
X154304815Y-62093820D02*
G75*
G03*
X152804815Y-60593820I-1500000J0D01*
G01*
X153804815Y-57593820D02*
G75*
G03*
X154304815Y-58093820I500000J0D01*
G01*
X130754783Y-44687580D02*
X131254783Y-44187580D01*
X130754783Y-48187580D02*
X131254783Y-48687580D01*
X131254783Y-44187580D02*
X134254783Y-44187580D01*
X131254783Y-48687580D02*
X133754783Y-48687580D01*
X134254783Y-44187580D02*
X134754783Y-44687580D01*
X134754783Y-45687580D02*
X134754783Y-44687580D01*
X135254783Y-50187580D02*
X135254783Y-50887580D01*
X135254783Y-50887580D02*
X139754783Y-50887580D01*
X139754783Y-46187580D02*
X135254783Y-46187580D01*
X139754783Y-46787580D02*
X139754783Y-46187580D01*
X139754783Y-50887580D02*
X139754783Y-50387580D01*
X135254783Y-50187580D02*
G75*
G03*
X133754783Y-48687580I-1500000J0D01*
G01*
X134754783Y-45687580D02*
G75*
G03*
X135254783Y-46187580I500000J0D01*
G01*
D12*
X112124783Y-96871332D02*
X112124783Y-98331332D01*
X112124783Y-96871332D02*
X112124783Y-98331332D01*
X112124783Y-96871332D02*
X113054783Y-96871332D01*
X112124783Y-96871332D02*
X113054783Y-96871332D01*
X115284783Y-96871332D02*
X115284783Y-100031332D01*
X115284783Y-96871332D02*
X115284783Y-99031332D01*
X115284783Y-96871332D02*
X114354783Y-96871332D01*
X115284783Y-96871332D02*
X114354783Y-96871332D01*
X131174799Y-113540080D02*
X131174799Y-115000080D01*
X131174799Y-113540080D02*
X131174799Y-115000080D01*
X131174799Y-113540080D02*
X132104799Y-113540080D01*
X131174799Y-113540080D02*
X132104799Y-113540080D01*
X134334799Y-113540080D02*
X134334799Y-116700080D01*
X134334799Y-113540080D02*
X134334799Y-115700080D01*
X134334799Y-113540080D02*
X133404799Y-113540080D01*
X134334799Y-113540080D02*
X133404799Y-113540080D01*
X188324847Y-105205698D02*
X188324847Y-106665698D01*
X188324847Y-105205698D02*
X188324847Y-106665698D01*
X188324847Y-105205698D02*
X189254847Y-105205698D01*
X188324847Y-105205698D02*
X189254847Y-105205698D01*
X191484847Y-105205698D02*
X191484847Y-108365698D01*
X191484847Y-105205698D02*
X191484847Y-107365698D01*
X191484847Y-105205698D02*
X190554847Y-105205698D01*
X191484847Y-105205698D02*
X190554847Y-105205698D01*
X131174799Y-56390032D02*
X131174799Y-57850032D01*
X131174799Y-56390032D02*
X131174799Y-57850032D01*
X131174799Y-56390032D02*
X132104799Y-56390032D01*
X131174799Y-56390032D02*
X132104799Y-56390032D01*
X134334799Y-56390032D02*
X134334799Y-59550032D01*
X134334799Y-56390032D02*
X134334799Y-58550032D01*
X134334799Y-56390032D02*
X133404799Y-56390032D01*
X134334799Y-56390032D02*
X133404799Y-56390032D01*
X188324847Y-86155682D02*
X188324847Y-87615682D01*
X188324847Y-86155682D02*
X188324847Y-87615682D01*
X188324847Y-86155682D02*
X189254847Y-86155682D01*
X188324847Y-86155682D02*
X189254847Y-86155682D01*
X191484847Y-86155682D02*
X191484847Y-89315682D01*
X191484847Y-86155682D02*
X191484847Y-88315682D01*
X191484847Y-86155682D02*
X190554847Y-86155682D01*
X191484847Y-86155682D02*
X190554847Y-86155682D01*
X166793572Y-122043582D02*
X165104822Y-121068582D01*
X166793572Y-122043582D02*
X168482322Y-123018582D01*
X161733572Y-130807760D02*
X158745784Y-129082760D01*
X161733572Y-130807760D02*
X163422322Y-131782760D01*
X169274831Y-93299438D02*
X169274831Y-94759438D01*
X169274831Y-93299438D02*
X169274831Y-94759438D01*
X169274831Y-93299438D02*
X170204831Y-93299438D01*
X169274831Y-93299438D02*
X170204831Y-93299438D01*
X172434831Y-93299438D02*
X172434831Y-96459438D01*
X172434831Y-93299438D02*
X172434831Y-95459438D01*
X172434831Y-93299438D02*
X171504831Y-93299438D01*
X172434831Y-93299438D02*
X171504831Y-93299438D01*
X169274831Y-74249422D02*
X169274831Y-75709422D01*
X169274831Y-74249422D02*
X169274831Y-75709422D01*
X169274831Y-74249422D02*
X170204831Y-74249422D01*
X169274831Y-74249422D02*
X170204831Y-74249422D01*
X172434831Y-74249422D02*
X172434831Y-77409422D01*
X172434831Y-74249422D02*
X172434831Y-76409422D01*
X172434831Y-74249422D02*
X171504831Y-74249422D01*
X172434831Y-74249422D02*
X171504831Y-74249422D01*
X112124783Y-122469775D02*
X112124783Y-123929775D01*
X112124783Y-122469775D02*
X112124783Y-123929775D01*
X112124783Y-122469775D02*
X113054783Y-122469775D01*
X112124783Y-122469775D02*
X113054783Y-122469775D01*
X115284783Y-122469775D02*
X115284783Y-125629775D01*
X115284783Y-122469775D02*
X115284783Y-124629775D01*
X115284783Y-122469775D02*
X114354783Y-122469775D01*
X115284783Y-122469775D02*
X114354783Y-122469775D01*
X131174799Y-94490064D02*
X131174799Y-95950064D01*
X131174799Y-94490064D02*
X131174799Y-95950064D01*
X131174799Y-94490064D02*
X132104799Y-94490064D01*
X131174799Y-94490064D02*
X132104799Y-94490064D01*
X134334799Y-94490064D02*
X134334799Y-97650064D01*
X134334799Y-94490064D02*
X134334799Y-96650064D01*
X134334799Y-94490064D02*
X133404799Y-94490064D01*
X134334799Y-94490064D02*
X133404799Y-94490064D01*
X188324847Y-67105666D02*
X188324847Y-68565666D01*
X188324847Y-67105666D02*
X188324847Y-68565666D01*
X188324847Y-67105666D02*
X189254847Y-67105666D01*
X188324847Y-67105666D02*
X189254847Y-67105666D01*
X191484847Y-67105666D02*
X191484847Y-70265666D01*
X191484847Y-67105666D02*
X191484847Y-69265666D01*
X191484847Y-67105666D02*
X190554847Y-67105666D01*
X191484847Y-67105666D02*
X190554847Y-67105666D01*
X121649791Y-119493210D02*
X121649791Y-120953210D01*
X121649791Y-119493210D02*
X121649791Y-120953210D01*
X121649791Y-119493210D02*
X122579791Y-119493210D01*
X121649791Y-119493210D02*
X122579791Y-119493210D01*
X124809791Y-119493210D02*
X124809791Y-122653210D01*
X124809791Y-119493210D02*
X124809791Y-121653210D01*
X124809791Y-119493210D02*
X123879791Y-119493210D01*
X124809791Y-119493210D02*
X123879791Y-119493210D01*
D10*
X120704815Y-72318820D02*
X120704815Y-71818820D01*
X120704815Y-68218820D02*
X120704815Y-67618820D01*
X120704815Y-67618820D02*
X116204815Y-67618820D01*
X116204815Y-72318820D02*
X120704815Y-72318820D01*
X116204815Y-71618820D02*
X116204815Y-72318820D01*
X115704815Y-67118820D02*
X115704815Y-66118820D01*
X115204815Y-65618820D02*
X115704815Y-66118820D01*
X112204815Y-70118820D02*
X114704815Y-70118820D01*
X112204815Y-65618820D02*
X115204815Y-65618820D01*
X111704815Y-69618820D02*
X112204815Y-70118820D01*
X111704815Y-66118820D02*
X112204815Y-65618820D01*
X115704815Y-67118820D02*
G75*
G03*
X116204815Y-67618820I500001J1D01*
G01*
X116204815Y-71618820D02*
G75*
G03*
X114704815Y-70118820I-1500001J-1D01*
G01*
D12*
X169274831Y-112349454D02*
X169274831Y-113809454D01*
X169274831Y-112349454D02*
X169274831Y-113809454D01*
X169274831Y-112349454D02*
X170204831Y-112349454D01*
X169274831Y-112349454D02*
X170204831Y-112349454D01*
X172434831Y-112349454D02*
X172434831Y-115509454D01*
X172434831Y-112349454D02*
X172434831Y-114509454D01*
X172434831Y-112349454D02*
X171504831Y-112349454D01*
X172434831Y-112349454D02*
X171504831Y-112349454D01*
X131174799Y-75440048D02*
X131174799Y-76900048D01*
X131174799Y-75440048D02*
X131174799Y-76900048D01*
X131174799Y-75440048D02*
X132104799Y-75440048D01*
X131174799Y-75440048D02*
X132104799Y-75440048D01*
X134334799Y-75440048D02*
X134334799Y-78600048D01*
X134334799Y-75440048D02*
X134334799Y-77600048D01*
X134334799Y-75440048D02*
X133404799Y-75440048D01*
X134334799Y-75440048D02*
X133404799Y-75440048D01*
X112124783Y-58771300D02*
X112124783Y-60231300D01*
X112124783Y-58771300D02*
X112124783Y-60231300D01*
X112124783Y-58771300D02*
X113054783Y-58771300D01*
X112124783Y-58771300D02*
X113054783Y-58771300D01*
X115284783Y-58771300D02*
X115284783Y-61931300D01*
X115284783Y-58771300D02*
X115284783Y-60931300D01*
X115284783Y-58771300D02*
X114354783Y-58771300D01*
X115284783Y-58771300D02*
X114354783Y-58771300D01*
X112124783Y-77821316D02*
X112124783Y-79281316D01*
X112124783Y-77821316D02*
X112124783Y-79281316D01*
X112124783Y-77821316D02*
X113054783Y-77821316D01*
X112124783Y-77821316D02*
X113054783Y-77821316D01*
X115284783Y-77821316D02*
X115284783Y-80981316D01*
X115284783Y-77821316D02*
X115284783Y-79981316D01*
X115284783Y-77821316D02*
X114354783Y-77821316D01*
X115284783Y-77821316D02*
X114354783Y-77821316D01*
X188324847Y-124255714D02*
X188324847Y-125715714D01*
X188324847Y-124255714D02*
X188324847Y-125715714D01*
X188324847Y-124255714D02*
X189254847Y-124255714D01*
X188324847Y-124255714D02*
X189254847Y-124255714D01*
X191484847Y-124255714D02*
X191484847Y-127415714D01*
X191484847Y-124255714D02*
X191484847Y-126415714D01*
X191484847Y-124255714D02*
X190554847Y-124255714D01*
X191484847Y-124255714D02*
X190554847Y-124255714D01*
X169274831Y-55199406D02*
X169274831Y-56659406D01*
X169274831Y-55199406D02*
X169274831Y-56659406D01*
X169274831Y-55199406D02*
X170204831Y-55199406D01*
X169274831Y-55199406D02*
X170204831Y-55199406D01*
X172434831Y-55199406D02*
X172434831Y-58359406D01*
X172434831Y-55199406D02*
X172434831Y-57359406D01*
X172434831Y-55199406D02*
X171504831Y-55199406D01*
X172434831Y-55199406D02*
X171504831Y-55199406D01*
X137368555Y-122469775D02*
X137368555Y-123929775D01*
X137368555Y-122469775D02*
X137368555Y-123929775D01*
X137368555Y-122469775D02*
X138298555Y-122469775D01*
X137368555Y-122469775D02*
X138298555Y-122469775D01*
X140528555Y-122469775D02*
X140528555Y-125629775D01*
X140528555Y-122469775D02*
X140528555Y-124629775D01*
X140528555Y-122469775D02*
X139598555Y-122469775D01*
X140528555Y-122469775D02*
X139598555Y-122469775D01*
X106766966Y-122469791D02*
X106766966Y-123929791D01*
X106766966Y-122469791D02*
X106766966Y-123929791D01*
X106766966Y-122469791D02*
X107696966Y-122469791D01*
X106766966Y-122469791D02*
X107696966Y-122469791D01*
X109926966Y-122469791D02*
X109926966Y-125629791D01*
X109926966Y-122469791D02*
X109926966Y-124629791D01*
X109926966Y-122469791D02*
X108996966Y-122469791D01*
X109926966Y-122469791D02*
X108996966Y-122469791D01*
%LPC*%
D13*
X96535575Y-139700920D03*
D14*
X98878062Y-143198227D03*
D15*
X95093588Y-136203325D03*
X98323715Y-131798069D03*
D16*
X101298715Y-136950920D03*
D15*
X103753842Y-131203325D03*
D14*
X107919368Y-137978227D03*
D13*
X106061855Y-134200920D03*
D17*
X95487482Y-133435569D03*
X106590075Y-129565825D03*
D13*
X209601558Y-88751991D03*
D14*
X213809980Y-88839110D03*
D15*
X205909406Y-87927059D03*
X204153557Y-82754343D03*
D16*
X210080915Y-83272920D03*
D15*
X206780964Y-77965112D03*
D14*
X214719886Y-78438838D03*
D13*
X210560272Y-77793849D03*
D18*
X203868121Y-86016881D03*
X207066399Y-74702575D03*
D13*
X165354815Y-70246920D03*
D14*
X165634815Y-74446920D03*
D15*
X165854815Y-66496920D03*
X170854815Y-64296920D03*
D16*
X170854815Y-70246920D03*
D15*
X175854815Y-66496920D03*
D14*
X176074815Y-74446920D03*
D13*
X176354815Y-70246920D03*
D19*
X167579815Y-64296920D03*
X179129815Y-66496920D03*
D13*
X184404815Y-101203220D03*
D14*
X184684815Y-105403220D03*
D15*
X184904815Y-97453220D03*
X189904815Y-95253220D03*
D16*
X189904815Y-101203220D03*
D15*
X194904815Y-97453220D03*
D14*
X195124815Y-105403220D03*
D13*
X195404815Y-101203220D03*
D19*
X186629815Y-95253220D03*
X198179815Y-97453220D03*
D13*
X127254815Y-71437620D03*
D14*
X127534815Y-75637620D03*
D15*
X127754815Y-67687620D03*
X132754815Y-65487620D03*
D16*
X132754815Y-71437620D03*
D15*
X137754815Y-67687620D03*
D14*
X137974815Y-75637620D03*
D13*
X138254815Y-71437620D03*
D19*
X129479815Y-65487620D03*
X141029815Y-67687620D03*
D13*
X184404815Y-120253220D03*
D14*
X184684815Y-124453220D03*
D15*
X184904815Y-116503220D03*
X189904815Y-114303220D03*
D16*
X189904815Y-120253220D03*
D15*
X194904815Y-116503220D03*
D14*
X195124815Y-124453220D03*
D13*
X195404815Y-120253220D03*
D19*
X186629815Y-114303220D03*
X198179815Y-116503220D03*
D13*
X146304783Y-45243780D03*
D14*
X146584783Y-49443780D03*
D15*
X146804783Y-41493780D03*
X151804783Y-39293780D03*
D16*
X151804783Y-45243780D03*
D15*
X156804783Y-41493780D03*
D14*
X157024783Y-49443780D03*
D13*
X157304783Y-45243780D03*
D19*
X148529783Y-39293780D03*
X160079783Y-41493780D03*
D13*
X208954815Y-128134420D03*
D14*
X213154815Y-127854420D03*
D15*
X205204815Y-127634420D03*
X203004815Y-122634420D03*
D16*
X208954815Y-122634420D03*
D15*
X205204815Y-117634420D03*
D14*
X213154815Y-117414420D03*
D13*
X208954815Y-117134420D03*
D19*
X203004815Y-125909420D03*
X205204815Y-114359420D03*
D13*
X208954815Y-68603220D03*
D14*
X213154815Y-68323220D03*
D15*
X205204815Y-68103220D03*
X203004815Y-63103220D03*
D16*
X208954815Y-63103220D03*
D15*
X205204815Y-58103220D03*
D14*
X213154815Y-57883220D03*
D13*
X208954815Y-57603220D03*
D19*
X203004815Y-66378220D03*
X205204815Y-54828220D03*
D13*
X121301615Y-130968920D03*
D14*
X121581615Y-135168920D03*
D15*
X121801615Y-127218920D03*
X126801615Y-125018920D03*
D16*
X126801615Y-130968920D03*
D15*
X131801615Y-127218920D03*
D14*
X132021615Y-135168920D03*
D13*
X132301615Y-130968920D03*
D19*
X123526615Y-125018920D03*
X135076615Y-127218920D03*
D13*
X94654715Y-106418920D03*
D14*
X90454715Y-106698920D03*
D15*
X98404715Y-106918920D03*
X100604715Y-111918920D03*
D16*
X94654715Y-111918920D03*
D15*
X98404715Y-116918920D03*
D14*
X90454715Y-117138920D03*
D13*
X94654715Y-117418920D03*
D19*
X100604715Y-108643920D03*
X98404715Y-120193920D03*
D13*
X80050028Y-153907907D03*
D14*
X83217866Y-156679766D03*
D15*
X77751931Y-150902703D03*
X79731830Y-145811535D03*
D16*
X83939115Y-150018820D03*
D15*
X84822998Y-143831636D03*
D14*
X90600061Y-149297571D03*
D13*
X87828202Y-146129733D03*
D20*
X77416055Y-148127309D03*
X87138773Y-141515861D03*
D13*
X184404783Y-63103180D03*
D14*
X184684783Y-67303180D03*
D15*
X184904783Y-59353180D03*
X189904783Y-57153180D03*
D16*
X189904783Y-63103180D03*
D15*
X194904783Y-59353180D03*
D14*
X195124783Y-67303180D03*
D13*
X195404783Y-63103180D03*
D19*
X186629783Y-57153180D03*
X198179783Y-59353180D03*
D13*
X67496815Y-172046160D03*
D14*
X71274122Y-173903673D03*
D15*
X64499220Y-169738147D03*
X65093964Y-164308020D03*
D16*
X70246815Y-167283020D03*
D15*
X69499220Y-161077893D03*
D14*
X76494122Y-164862367D03*
D13*
X72996815Y-162519880D03*
D21*
X63456464Y-167144253D03*
X71136720Y-158241660D03*
D22*
X214862680Y-37783032D03*
D23*
X214862680Y-39783032D03*
D13*
X77310010Y-128341537D03*
D14*
X74558769Y-125155776D03*
D15*
X79167499Y-131637328D03*
X76498314Y-136403401D03*
D16*
X72917515Y-131651520D03*
D15*
X71181144Y-137655478D03*
D14*
X66221015Y-131438725D03*
D13*
X68525020Y-134961503D03*
D24*
X79113846Y-134432457D03*
X68565612Y-139626422D03*
D13*
X108204815Y-111918820D03*
D14*
X108484815Y-116118820D03*
D15*
X108704815Y-108168820D03*
X113704815Y-105968820D03*
D16*
X113704815Y-111918820D03*
D15*
X118704815Y-108168820D03*
D14*
X118924815Y-116118820D03*
D13*
X119204815Y-111918820D03*
D19*
X110429815Y-105968820D03*
X121979815Y-108168820D03*
D13*
X146304815Y-102393820D03*
D14*
X146584815Y-106593820D03*
D15*
X146804815Y-98643820D03*
X151804815Y-96443820D03*
D16*
X151804815Y-102393820D03*
D15*
X156804815Y-98643820D03*
D14*
X157024815Y-106593820D03*
D13*
X157304815Y-102393820D03*
D19*
X148529815Y-96443820D03*
X160079815Y-98643820D03*
D13*
X127254815Y-90487620D03*
D14*
X127534815Y-94687620D03*
D15*
X127754815Y-86737620D03*
X132754815Y-84537620D03*
D16*
X132754815Y-90487620D03*
D15*
X137754815Y-86737620D03*
D14*
X137974815Y-94687620D03*
D13*
X138254815Y-90487620D03*
D19*
X129479815Y-84537620D03*
X141029815Y-86737620D03*
D13*
X108204815Y-92868820D03*
D14*
X108484815Y-97068820D03*
D15*
X108704815Y-89118820D03*
X113704815Y-86918820D03*
D16*
X113704815Y-92868820D03*
D15*
X118704815Y-89118820D03*
D14*
X118924815Y-97068820D03*
D13*
X119204815Y-92868820D03*
D19*
X110429815Y-86918820D03*
X121979815Y-89118820D03*
D13*
X146304815Y-83343820D03*
D14*
X146584815Y-87543820D03*
D15*
X146804815Y-79593820D03*
X151804815Y-77393820D03*
D16*
X151804815Y-83343820D03*
D15*
X156804815Y-79593820D03*
D14*
X157024815Y-87543820D03*
D13*
X157304815Y-83343820D03*
D19*
X148529815Y-77393820D03*
X160079815Y-79593820D03*
D25*
X214198619Y-32425215D03*
X211298619Y-32425215D03*
D13*
X165354815Y-89296920D03*
D14*
X165634815Y-93496920D03*
D15*
X165854815Y-85546920D03*
X170854815Y-83346920D03*
D16*
X170854815Y-89296920D03*
D15*
X175854815Y-85546920D03*
D14*
X176074815Y-93496920D03*
D13*
X176354815Y-89296920D03*
D19*
X167579815Y-83346920D03*
X179129815Y-85546920D03*
D26*
X184253351Y-33472597D03*
X184253351Y-35996597D03*
X184253351Y-38536597D03*
X184253351Y-41076597D03*
X184253351Y-43616597D03*
X184253351Y-46156597D03*
X184253351Y-48696597D03*
D27*
X186572351Y-33456597D03*
X186572351Y-35996597D03*
X186572351Y-38536597D03*
X186572351Y-41076597D03*
X186572351Y-43616597D03*
X186572351Y-46156597D03*
X186572351Y-48696597D03*
D28*
X189667351Y-45951597D03*
X192167351Y-45951597D03*
D29*
X192767351Y-36735972D03*
D30*
X193397351Y-35044597D03*
D28*
X194667351Y-45951597D03*
D30*
X195937351Y-35044597D03*
D29*
X196567351Y-36735972D03*
D28*
X197167351Y-45951597D03*
X199667351Y-45951597D03*
D31*
X200001351Y-35996597D03*
D27*
X202762351Y-33456597D03*
X202762351Y-35996597D03*
X202762351Y-38536597D03*
X202762351Y-41076597D03*
X202762351Y-43616597D03*
X202762351Y-46156597D03*
X202762351Y-48696597D03*
D32*
X205081351Y-33456597D03*
D33*
X182803351Y-33472597D03*
X182803351Y-35996597D03*
X182803351Y-38536597D03*
X182803351Y-41076597D03*
X182803351Y-43616597D03*
X182803351Y-46156597D03*
X182803351Y-48696597D03*
D34*
X199667351Y-47401597D03*
X197167351Y-47401597D03*
X194667351Y-47401597D03*
X192167351Y-47401597D03*
X189667351Y-47401597D03*
D35*
X200001351Y-34546597D03*
D36*
X206531351Y-33456597D03*
D30*
X193397351Y-32504597D03*
X195937351Y-32504597D03*
D29*
X192767351Y-43035972D03*
X196567351Y-43035972D03*
D30*
X190222351Y-40759597D03*
X199112351Y-40759597D03*
X190222351Y-38854597D03*
X199112351Y-38854597D03*
D13*
X108204783Y-54768780D03*
D14*
X108484783Y-58968780D03*
D15*
X108704783Y-51018780D03*
X113704783Y-48818780D03*
D16*
X113704783Y-54768780D03*
D15*
X118704783Y-51018780D03*
D14*
X118924783Y-58968780D03*
D13*
X119204783Y-54768780D03*
D19*
X110429783Y-48818780D03*
X121979783Y-51018780D03*
D13*
X94654815Y-58793820D03*
D14*
X90454815Y-59073820D03*
D15*
X98404815Y-59293820D03*
X100604815Y-64293820D03*
D16*
X94654815Y-64293820D03*
D15*
X98404815Y-69293820D03*
D14*
X90454815Y-69513820D03*
D13*
X94654815Y-69793820D03*
D19*
X100604815Y-61018820D03*
X98404815Y-72568820D03*
D13*
X127254815Y-109537620D03*
D14*
X127534815Y-113737620D03*
D15*
X127754815Y-105787620D03*
X132754815Y-103587620D03*
D16*
X132754815Y-109537620D03*
D15*
X137754815Y-105787620D03*
D14*
X137974815Y-113737620D03*
D13*
X138254815Y-109537620D03*
D19*
X129479815Y-103587620D03*
X141029815Y-105787620D03*
D13*
X165354815Y-108346920D03*
D14*
X165634815Y-112546920D03*
D15*
X165854815Y-104596920D03*
X170854815Y-102396920D03*
D16*
X170854815Y-108346920D03*
D15*
X175854815Y-104596920D03*
D14*
X176074815Y-112546920D03*
D13*
X176354815Y-108346920D03*
D19*
X167579815Y-102396920D03*
X179129815Y-104596920D03*
D13*
X165354783Y-51196880D03*
D14*
X165634783Y-55396880D03*
D15*
X165854783Y-47446880D03*
X170854783Y-45246880D03*
D16*
X170854783Y-51196880D03*
D15*
X175854783Y-47446880D03*
D14*
X176074783Y-55396880D03*
D13*
X176354783Y-51196880D03*
D19*
X167579783Y-45246880D03*
X179129783Y-47446880D03*
D13*
X209601558Y-107934791D03*
D14*
X213809980Y-108021910D03*
D15*
X205909406Y-107109859D03*
X204153557Y-101937143D03*
D16*
X210080915Y-102455720D03*
D15*
X206780964Y-97147912D03*
D14*
X214719886Y-97621638D03*
D13*
X210560272Y-96976649D03*
D18*
X203868121Y-105199681D03*
X207066399Y-93885375D03*
D13*
X94654815Y-82606320D03*
D14*
X90454815Y-82886320D03*
D15*
X98404815Y-83106320D03*
X100604815Y-88106320D03*
D16*
X94654815Y-88106320D03*
D15*
X98404815Y-93106320D03*
D14*
X90454815Y-93326320D03*
D13*
X94654815Y-93606320D03*
D19*
X100604815Y-84831320D03*
X98404815Y-96381320D03*
D13*
X147041575Y-134243120D03*
D14*
X145184062Y-138020427D03*
D15*
X149349588Y-131245525D03*
X154779715Y-131840269D03*
D16*
X151804715Y-136993120D03*
D15*
X158009842Y-136245525D03*
D14*
X154225368Y-143240427D03*
D13*
X156567855Y-139743120D03*
D37*
X151943482Y-130202769D03*
X160846075Y-137883025D03*
D13*
X193929815Y-141684520D03*
D14*
X194209815Y-145884520D03*
D15*
X194429815Y-137934520D03*
X199429815Y-135734520D03*
D16*
X199429815Y-141684520D03*
D15*
X204429815Y-137934520D03*
D14*
X204649815Y-145884520D03*
D13*
X204929815Y-141684520D03*
D19*
X196154815Y-135734520D03*
X207704815Y-137934520D03*
D13*
X184404815Y-82153220D03*
D14*
X184684815Y-86353220D03*
D15*
X184904815Y-78403220D03*
X189904815Y-76203220D03*
D16*
X189904815Y-82153220D03*
D15*
X194904815Y-78403220D03*
D14*
X195124815Y-86353220D03*
D13*
X195404815Y-82153220D03*
D19*
X186629815Y-76203220D03*
X198179815Y-78403220D03*
D13*
X146304815Y-64293820D03*
D14*
X146584815Y-68493820D03*
D15*
X146804815Y-60543820D03*
X151804815Y-58343820D03*
D16*
X151804815Y-64293820D03*
D15*
X156804815Y-60543820D03*
D14*
X157024815Y-68493820D03*
D13*
X157304815Y-64293820D03*
D19*
X148529815Y-58343820D03*
X160079815Y-60543820D03*
D13*
X127254783Y-52387580D03*
D14*
X127534783Y-56587580D03*
D15*
X127754783Y-48637580D03*
X132754783Y-46437580D03*
D16*
X132754783Y-52387580D03*
D15*
X137754783Y-48637580D03*
D14*
X137974783Y-56587580D03*
D13*
X138254783Y-52387580D03*
D19*
X129479783Y-46437580D03*
X141029783Y-48637580D03*
D38*
X114654783Y-99131332D03*
X112754783Y-99131332D03*
X113704783Y-96131332D03*
D39*
X216348619Y-31282215D03*
D40*
X209148619Y-31282215D03*
D25*
X214198619Y-32425215D03*
X211298619Y-32425215D03*
D40*
X216348619Y-33568215D03*
D39*
X209148619Y-33568215D03*
D41*
X210548619Y-34275215D03*
X213448619Y-34275215D03*
X214948619Y-34275215D03*
D38*
X133704799Y-115800080D03*
X131804799Y-115800080D03*
X132754799Y-112800080D03*
X190854847Y-107465698D03*
X188954847Y-107465698D03*
X189904847Y-104465698D03*
X133704799Y-58650032D03*
X131804799Y-58650032D03*
X132754799Y-55650032D03*
X190854847Y-88415682D03*
X188954847Y-88415682D03*
X189904847Y-85415682D03*
D42*
X159897659Y-129037654D03*
X160532659Y-127937802D03*
X161167659Y-126837949D03*
X161802659Y-125738097D03*
X162437659Y-124638245D03*
X163072659Y-123538393D03*
X163707659Y-122438540D03*
X164342659Y-121338688D03*
X168629485Y-123813688D03*
X167994485Y-124913540D03*
X167359485Y-126013393D03*
X166724485Y-127113245D03*
X166089485Y-128213097D03*
X165454485Y-129312949D03*
X164819485Y-130412802D03*
X164184485Y-131512654D03*
D38*
X171804831Y-95559438D03*
X169904831Y-95559438D03*
X170854831Y-92559438D03*
X171804831Y-76509422D03*
X169904831Y-76509422D03*
X170854831Y-73509422D03*
D43*
X75604751Y-158353258D03*
X151804815Y-50006276D03*
D38*
X114654783Y-124729775D03*
X112754783Y-124729775D03*
X113704783Y-121729775D03*
X133704799Y-96750064D03*
X131804799Y-96750064D03*
X132754799Y-93750064D03*
X190854847Y-69365666D03*
X188954847Y-69365666D03*
X189904847Y-66365666D03*
X124179791Y-121753210D03*
X122279791Y-121753210D03*
X123229791Y-118753210D03*
D13*
X119204815Y-73818820D03*
D14*
X118924815Y-78018820D03*
D15*
X118704815Y-70068820D03*
D16*
X113704815Y-73818820D03*
D15*
X113704815Y-67868820D03*
X108704815Y-70068820D03*
D14*
X108484815Y-78018820D03*
D13*
X108204815Y-73818820D03*
D19*
X110429815Y-67868820D03*
X121979815Y-70068820D03*
D38*
X171804831Y-114609454D03*
X169904831Y-114609454D03*
X170854831Y-111609454D03*
X133704799Y-77700048D03*
X131804799Y-77700048D03*
X132754799Y-74700048D03*
X114654783Y-61031300D03*
X112754783Y-61031300D03*
X113704783Y-58031300D03*
X114654783Y-80081316D03*
X112754783Y-80081316D03*
X113704783Y-77081316D03*
X190854847Y-126515714D03*
X188954847Y-126515714D03*
X189904847Y-123515714D03*
X171804831Y-57459406D03*
X169904831Y-57459406D03*
X170854831Y-54459406D03*
X139898555Y-124729775D03*
X137998555Y-124729775D03*
X138948555Y-121729775D03*
X109296966Y-124729791D03*
X107396966Y-124729791D03*
X108346966Y-121729791D03*
D43*
X190500160Y-145256356D03*
%LPD*%
M02*
