%TF.GenerationSoftware,KiCad,Pcbnew,6.0.4*%
%TF.CreationDate,2022-04-20T09:09:29+02:00*%
%TF.ProjectId,mykeeb,6d796b65-6562-42e6-9b69-6361645f7063,rev?*%
%TF.SameCoordinates,Original*%
%TF.FileFunction,Legend,Top*%
%TF.FilePolarity,Positive*%
%FSLAX46Y46*%
G04 Gerber Fmt 4.6, Leading zero omitted, Abs format (unit mm)*
G04 Created by KiCad (PCBNEW 6.0.4) date 2022-04-20 09:09:29*
%MOMM*%
%LPD*%
G01*
G04 APERTURE LIST*
%ADD10C,0.500000*%
%ADD11C,0.150000*%
%ADD12C,0.120000*%
%ADD13C,0.200000*%
%ADD14C,0.381000*%
%ADD15C,1.752600*%
%ADD16R,1.752600X1.752600*%
G04 APERTURE END LIST*
D10*
X170307142Y-86380285D02*
X172592857Y-86380285D01*
X171450000Y-87523142D02*
X171450000Y-85237428D01*
X152109142Y-114768285D02*
X154394857Y-114768285D01*
X153252000Y-115911142D02*
X153252000Y-113625428D01*
D11*
%TO.C,BT2*%
X172188285Y-79894571D02*
X172331142Y-79942190D01*
X172378761Y-79989809D01*
X172426380Y-80085047D01*
X172426380Y-80227904D01*
X172378761Y-80323142D01*
X172331142Y-80370761D01*
X172235904Y-80418380D01*
X171854952Y-80418380D01*
X171854952Y-79418380D01*
X172188285Y-79418380D01*
X172283523Y-79466000D01*
X172331142Y-79513619D01*
X172378761Y-79608857D01*
X172378761Y-79704095D01*
X172331142Y-79799333D01*
X172283523Y-79846952D01*
X172188285Y-79894571D01*
X171854952Y-79894571D01*
X172712095Y-79418380D02*
X173283523Y-79418380D01*
X172997809Y-80418380D02*
X172997809Y-79418380D01*
X173569238Y-79513619D02*
X173616857Y-79466000D01*
X173712095Y-79418380D01*
X173950190Y-79418380D01*
X174045428Y-79466000D01*
X174093047Y-79513619D01*
X174140666Y-79608857D01*
X174140666Y-79704095D01*
X174093047Y-79846952D01*
X173521619Y-80418380D01*
X174140666Y-80418380D01*
D12*
X171644000Y-82296000D02*
X171644000Y-80966000D01*
X171644000Y-86166000D02*
X174304000Y-86166000D01*
X171644000Y-83566000D02*
X171644000Y-86166000D01*
X171644000Y-83566000D02*
X174304000Y-83566000D01*
X171644000Y-80966000D02*
X172974000Y-80966000D01*
X174304000Y-83566000D02*
X174304000Y-86166000D01*
D13*
%TO.C,D32*%
X94409375Y-102093750D02*
X93659375Y-102093750D01*
X93659375Y-102693750D02*
X94059375Y-102093750D01*
X94759375Y-104493750D02*
X93359375Y-104493750D01*
X94759375Y-99893750D02*
X93359375Y-99893750D01*
X94759375Y-100293750D02*
X93359375Y-100293750D01*
X94059375Y-102093750D02*
X94409375Y-102693750D01*
X94059375Y-102093750D02*
X94059375Y-101793750D01*
X94059375Y-102693750D02*
X94059375Y-102993750D01*
X94759375Y-100093750D02*
X93359375Y-100093750D01*
X94759375Y-99693750D02*
X93359375Y-99693750D01*
X94759375Y-99693750D02*
X94759375Y-104493750D01*
X94409375Y-102693750D02*
X93659375Y-102693750D01*
X93359375Y-99693750D02*
X93359375Y-104493750D01*
D11*
%TO.C,K11*%
X69214999Y-73183751D02*
G75*
G03*
X66675001Y-71200579I-2539999J-634999D01*
G01*
X73025000Y-69373750D02*
G75*
G03*
X70485000Y-66833750I-2540000J0D01*
G01*
X59675000Y-80818750D02*
X59675000Y-79818750D01*
X70485000Y-66833750D02*
X61595000Y-66833750D01*
X73025000Y-69373750D02*
X73025000Y-69754750D01*
X59675000Y-66818750D02*
X60675000Y-66818750D01*
X72644000Y-73183750D02*
X73025000Y-73183750D01*
X64389000Y-71278750D02*
X66675000Y-71278750D01*
X72675000Y-66818750D02*
X73675000Y-66818750D01*
X61595000Y-70262750D02*
X61595000Y-70643750D01*
X59675000Y-67214750D02*
X59675000Y-66818750D01*
X73675000Y-66818750D02*
X73675000Y-67818750D01*
X61595000Y-66833750D02*
X61595000Y-67214750D01*
X73025000Y-73183750D02*
X73025000Y-72802750D01*
X73675000Y-80818750D02*
X72675000Y-80818750D01*
X73675000Y-79818750D02*
X73675000Y-80818750D01*
X69215000Y-73183750D02*
X70866000Y-73183750D01*
X60675000Y-80818750D02*
X59675000Y-80818750D01*
%TO.C,K10*%
X50164999Y-75565001D02*
G75*
G03*
X47625001Y-73581829I-2539999J-634999D01*
G01*
X53975000Y-71755000D02*
G75*
G03*
X51435000Y-69215000I-2540000J0D01*
G01*
X40625000Y-83200000D02*
X40625000Y-82200000D01*
X51435000Y-69215000D02*
X42545000Y-69215000D01*
X53975000Y-71755000D02*
X53975000Y-72136000D01*
X40625000Y-69200000D02*
X41625000Y-69200000D01*
X53594000Y-75565000D02*
X53975000Y-75565000D01*
X45339000Y-73660000D02*
X47625000Y-73660000D01*
X53625000Y-69200000D02*
X54625000Y-69200000D01*
X42545000Y-72644000D02*
X42545000Y-73025000D01*
X40625000Y-69596000D02*
X40625000Y-69200000D01*
X54625000Y-69200000D02*
X54625000Y-70200000D01*
X42545000Y-69215000D02*
X42545000Y-69596000D01*
X53975000Y-75565000D02*
X53975000Y-75184000D01*
X54625000Y-83200000D02*
X53625000Y-83200000D01*
X54625000Y-82200000D02*
X54625000Y-83200000D01*
X50165000Y-75565000D02*
X51816000Y-75565000D01*
X41625000Y-83200000D02*
X40625000Y-83200000D01*
%TO.C,K31*%
X69214999Y-111283751D02*
G75*
G03*
X66675001Y-109300579I-2539999J-634999D01*
G01*
X73025000Y-107473750D02*
G75*
G03*
X70485000Y-104933750I-2540000J0D01*
G01*
X59675000Y-118918750D02*
X59675000Y-117918750D01*
X70485000Y-104933750D02*
X61595000Y-104933750D01*
X73025000Y-107473750D02*
X73025000Y-107854750D01*
X59675000Y-104918750D02*
X60675000Y-104918750D01*
X72644000Y-111283750D02*
X73025000Y-111283750D01*
X64389000Y-109378750D02*
X66675000Y-109378750D01*
X72675000Y-104918750D02*
X73675000Y-104918750D01*
X61595000Y-108362750D02*
X61595000Y-108743750D01*
X59675000Y-105314750D02*
X59675000Y-104918750D01*
X73675000Y-104918750D02*
X73675000Y-105918750D01*
X61595000Y-104933750D02*
X61595000Y-105314750D01*
X73025000Y-111283750D02*
X73025000Y-110902750D01*
X73675000Y-118918750D02*
X72675000Y-118918750D01*
X73675000Y-117918750D02*
X73675000Y-118918750D01*
X69215000Y-111283750D02*
X70866000Y-111283750D01*
X60675000Y-118918750D02*
X59675000Y-118918750D01*
D12*
%TO.C,BT1*%
X161644000Y-112514000D02*
X157284000Y-112514000D01*
X159384000Y-113314000D02*
X161644000Y-113314000D01*
X159384000Y-113314000D02*
X157784000Y-113314000D01*
X155424000Y-113874000D02*
X154209000Y-113874000D01*
X161644000Y-108954000D02*
X153824000Y-108954000D01*
X153824000Y-115074000D02*
X161644000Y-115074000D01*
X159384000Y-110714000D02*
X157784000Y-110714000D01*
X155424000Y-108954000D02*
X155424000Y-109874000D01*
X157284000Y-111514000D02*
X161644000Y-111514000D01*
X155424000Y-109874000D02*
X155424000Y-110154000D01*
X161644000Y-115074000D02*
X161644000Y-108954000D01*
X159384000Y-114314000D02*
X159384000Y-113314000D01*
X159384000Y-113814000D02*
X161644000Y-113814000D01*
X153824000Y-114154000D02*
X153824000Y-115074000D01*
X157784000Y-113314000D02*
X157784000Y-114314000D01*
X155424000Y-114154000D02*
X153824000Y-114154000D01*
X155424000Y-113874000D02*
X155424000Y-114154000D01*
X159384000Y-109714000D02*
X159384000Y-110714000D01*
X157784000Y-114314000D02*
X159384000Y-114314000D01*
X157284000Y-112514000D02*
X157284000Y-111514000D01*
X155424000Y-115074000D02*
X155424000Y-114154000D01*
X157784000Y-109714000D02*
X159384000Y-109714000D01*
X157784000Y-110714000D02*
X157784000Y-109714000D01*
X153824000Y-108954000D02*
X153824000Y-109874000D01*
X153824000Y-109874000D02*
X155424000Y-109874000D01*
D13*
%TO.C,D30*%
X56309375Y-116381250D02*
X55559375Y-116381250D01*
X55559375Y-116981250D02*
X55959375Y-116381250D01*
X56659375Y-118781250D02*
X55259375Y-118781250D01*
X56659375Y-114181250D02*
X55259375Y-114181250D01*
X56659375Y-114581250D02*
X55259375Y-114581250D01*
X55959375Y-116381250D02*
X56309375Y-116981250D01*
X55959375Y-116381250D02*
X55959375Y-116081250D01*
X55959375Y-116981250D02*
X55959375Y-117281250D01*
X56659375Y-114381250D02*
X55259375Y-114381250D01*
X56659375Y-113981250D02*
X55259375Y-113981250D01*
X56659375Y-113981250D02*
X56659375Y-118781250D01*
X56309375Y-116981250D02*
X55559375Y-116981250D01*
X55259375Y-113981250D02*
X55259375Y-118781250D01*
D12*
%TO.C,JPr2a1*%
X192521750Y-65913125D02*
X192521750Y-67913125D01*
X189721750Y-65913125D02*
X192521750Y-65913125D01*
X189721750Y-67913125D02*
X189721750Y-65913125D01*
X192521750Y-67913125D02*
X189721750Y-67913125D01*
D11*
%TO.C,K24*%
X126364999Y-80327501D02*
G75*
G03*
X123825001Y-78344329I-2539999J-634999D01*
G01*
X130175000Y-76517500D02*
G75*
G03*
X127635000Y-73977500I-2540000J0D01*
G01*
X116825000Y-87962500D02*
X116825000Y-86962500D01*
X127635000Y-73977500D02*
X118745000Y-73977500D01*
X130175000Y-76517500D02*
X130175000Y-76898500D01*
X116825000Y-73962500D02*
X117825000Y-73962500D01*
X129794000Y-80327500D02*
X130175000Y-80327500D01*
X121539000Y-78422500D02*
X123825000Y-78422500D01*
X129825000Y-73962500D02*
X130825000Y-73962500D01*
X118745000Y-77406500D02*
X118745000Y-77787500D01*
X116825000Y-74358500D02*
X116825000Y-73962500D01*
X130825000Y-73962500D02*
X130825000Y-74962500D01*
X118745000Y-73977500D02*
X118745000Y-74358500D01*
X130175000Y-80327500D02*
X130175000Y-79946500D01*
X130825000Y-87962500D02*
X129825000Y-87962500D01*
X130825000Y-86962500D02*
X130825000Y-87962500D01*
X126365000Y-80327500D02*
X128016000Y-80327500D01*
X117825000Y-87962500D02*
X116825000Y-87962500D01*
%TO.C,K45*%
X150578369Y-127160968D02*
G75*
G03*
X148638201Y-124587971I-2617801J44038D01*
G01*
X155244647Y-124466891D02*
G75*
G03*
X153448596Y-121356039I-2453451J657401D01*
G01*
X153169135Y-134724218D02*
X152910315Y-135690144D01*
X139387354Y-132066677D02*
X139646173Y-131100752D01*
X155244648Y-124466891D02*
X155146038Y-124834908D01*
X140353280Y-132325497D02*
X139387354Y-132066677D01*
X153890529Y-128048458D02*
X154258547Y-128147068D01*
X156533782Y-122167183D02*
X156274963Y-123133108D01*
X153448596Y-121356039D02*
X144861516Y-119055137D01*
X146409862Y-124071818D02*
X148617968Y-124663478D01*
X142908328Y-118926223D02*
X143010821Y-118543716D01*
X143974025Y-122367297D02*
X143875415Y-122735315D01*
X155567856Y-121908363D02*
X156533782Y-122167183D01*
X154258547Y-128147068D02*
X154357157Y-127779050D01*
X152910315Y-135690144D02*
X151944390Y-135431325D01*
X144861516Y-119055137D02*
X144762906Y-119423155D01*
X143010821Y-118543716D02*
X143976746Y-118802535D01*
X150578370Y-127160967D02*
X152173113Y-127588278D01*
D13*
%TO.C,D33*%
X113459375Y-97331250D02*
X112709375Y-97331250D01*
X112709375Y-97931250D02*
X113109375Y-97331250D01*
X113809375Y-99731250D02*
X112409375Y-99731250D01*
X113809375Y-95131250D02*
X112409375Y-95131250D01*
X113809375Y-95531250D02*
X112409375Y-95531250D01*
X113109375Y-97331250D02*
X113459375Y-97931250D01*
X113109375Y-97331250D02*
X113109375Y-97031250D01*
X113109375Y-97931250D02*
X113109375Y-98231250D01*
X113809375Y-95331250D02*
X112409375Y-95331250D01*
X113809375Y-94931250D02*
X112409375Y-94931250D01*
X113809375Y-94931250D02*
X113809375Y-99731250D01*
X113459375Y-97931250D02*
X112709375Y-97931250D01*
X112409375Y-94931250D02*
X112409375Y-99731250D01*
%TO.C,D21*%
X75359375Y-94950000D02*
X74609375Y-94950000D01*
X74609375Y-95550000D02*
X75009375Y-94950000D01*
X75709375Y-97350000D02*
X74309375Y-97350000D01*
X75709375Y-92750000D02*
X74309375Y-92750000D01*
X75709375Y-93150000D02*
X74309375Y-93150000D01*
X75009375Y-94950000D02*
X75359375Y-95550000D01*
X75009375Y-94950000D02*
X75009375Y-94650000D01*
X75009375Y-95550000D02*
X75009375Y-95850000D01*
X75709375Y-92950000D02*
X74309375Y-92950000D01*
X75709375Y-92550000D02*
X74309375Y-92550000D01*
X75709375Y-92550000D02*
X75709375Y-97350000D01*
X75359375Y-95550000D02*
X74609375Y-95550000D01*
X74309375Y-92550000D02*
X74309375Y-97350000D01*
%TO.C,D42*%
X94409375Y-121143750D02*
X93659375Y-121143750D01*
X93659375Y-121743750D02*
X94059375Y-121143750D01*
X94759375Y-123543750D02*
X93359375Y-123543750D01*
X94759375Y-118943750D02*
X93359375Y-118943750D01*
X94759375Y-119343750D02*
X93359375Y-119343750D01*
X94059375Y-121143750D02*
X94409375Y-121743750D01*
X94059375Y-121143750D02*
X94059375Y-120843750D01*
X94059375Y-121743750D02*
X94059375Y-122043750D01*
X94759375Y-119143750D02*
X93359375Y-119143750D01*
X94759375Y-118743750D02*
X93359375Y-118743750D01*
X94759375Y-118743750D02*
X94759375Y-123543750D01*
X94409375Y-121743750D02*
X93659375Y-121743750D01*
X93359375Y-118743750D02*
X93359375Y-123543750D01*
%TO.C,D6*%
X170609375Y-49706250D02*
X169859375Y-49706250D01*
X169859375Y-50306250D02*
X170259375Y-49706250D01*
X170959375Y-52106250D02*
X169559375Y-52106250D01*
X170959375Y-47506250D02*
X169559375Y-47506250D01*
X170959375Y-47906250D02*
X169559375Y-47906250D01*
X170259375Y-49706250D02*
X170609375Y-50306250D01*
X170259375Y-49706250D02*
X170259375Y-49406250D01*
X170259375Y-50306250D02*
X170259375Y-50606250D01*
X170959375Y-47706250D02*
X169559375Y-47706250D01*
X170959375Y-47306250D02*
X169559375Y-47306250D01*
X170959375Y-47306250D02*
X170959375Y-52106250D01*
X170609375Y-50306250D02*
X169859375Y-50306250D01*
X169559375Y-47306250D02*
X169559375Y-52106250D01*
D11*
%TO.C,K41*%
X69214999Y-130333751D02*
G75*
G03*
X66675001Y-128350579I-2539999J-634999D01*
G01*
X73025000Y-126523750D02*
G75*
G03*
X70485000Y-123983750I-2540000J0D01*
G01*
X59675000Y-137968750D02*
X59675000Y-136968750D01*
X70485000Y-123983750D02*
X61595000Y-123983750D01*
X73025000Y-126523750D02*
X73025000Y-126904750D01*
X59675000Y-123968750D02*
X60675000Y-123968750D01*
X72644000Y-130333750D02*
X73025000Y-130333750D01*
X64389000Y-128428750D02*
X66675000Y-128428750D01*
X72675000Y-123968750D02*
X73675000Y-123968750D01*
X61595000Y-127412750D02*
X61595000Y-127793750D01*
X59675000Y-124364750D02*
X59675000Y-123968750D01*
X73675000Y-123968750D02*
X73675000Y-124968750D01*
X61595000Y-123983750D02*
X61595000Y-124364750D01*
X73025000Y-130333750D02*
X73025000Y-129952750D01*
X73675000Y-137968750D02*
X72675000Y-137968750D01*
X73675000Y-136968750D02*
X73675000Y-137968750D01*
X69215000Y-130333750D02*
X70866000Y-130333750D01*
X60675000Y-137968750D02*
X59675000Y-137968750D01*
D13*
%TO.C,D12*%
X94409375Y-63993750D02*
X93659375Y-63993750D01*
X93659375Y-64593750D02*
X94059375Y-63993750D01*
X94759375Y-66393750D02*
X93359375Y-66393750D01*
X94759375Y-61793750D02*
X93359375Y-61793750D01*
X94759375Y-62193750D02*
X93359375Y-62193750D01*
X94059375Y-63993750D02*
X94409375Y-64593750D01*
X94059375Y-63993750D02*
X94059375Y-63693750D01*
X94059375Y-64593750D02*
X94059375Y-64893750D01*
X94759375Y-61993750D02*
X93359375Y-61993750D01*
X94759375Y-61593750D02*
X93359375Y-61593750D01*
X94759375Y-61593750D02*
X94759375Y-66393750D01*
X94409375Y-64593750D02*
X93659375Y-64593750D01*
X93359375Y-61593750D02*
X93359375Y-66393750D01*
D11*
%TO.C,K20*%
X50164999Y-94615001D02*
G75*
G03*
X47625001Y-92631829I-2539999J-634999D01*
G01*
X53975000Y-90805000D02*
G75*
G03*
X51435000Y-88265000I-2540000J0D01*
G01*
X40625000Y-102250000D02*
X40625000Y-101250000D01*
X51435000Y-88265000D02*
X42545000Y-88265000D01*
X53975000Y-90805000D02*
X53975000Y-91186000D01*
X40625000Y-88250000D02*
X41625000Y-88250000D01*
X53594000Y-94615000D02*
X53975000Y-94615000D01*
X45339000Y-92710000D02*
X47625000Y-92710000D01*
X53625000Y-88250000D02*
X54625000Y-88250000D01*
X42545000Y-91694000D02*
X42545000Y-92075000D01*
X40625000Y-88646000D02*
X40625000Y-88250000D01*
X54625000Y-88250000D02*
X54625000Y-89250000D01*
X42545000Y-88265000D02*
X42545000Y-88646000D01*
X53975000Y-94615000D02*
X53975000Y-94234000D01*
X54625000Y-102250000D02*
X53625000Y-102250000D01*
X54625000Y-101250000D02*
X54625000Y-102250000D01*
X50165000Y-94615000D02*
X51816000Y-94615000D01*
X41625000Y-102250000D02*
X40625000Y-102250000D01*
%TO.C,K21*%
X69214999Y-92233751D02*
G75*
G03*
X66675001Y-90250579I-2539999J-634999D01*
G01*
X73025000Y-88423750D02*
G75*
G03*
X70485000Y-85883750I-2540000J0D01*
G01*
X59675000Y-99868750D02*
X59675000Y-98868750D01*
X70485000Y-85883750D02*
X61595000Y-85883750D01*
X73025000Y-88423750D02*
X73025000Y-88804750D01*
X59675000Y-85868750D02*
X60675000Y-85868750D01*
X72644000Y-92233750D02*
X73025000Y-92233750D01*
X64389000Y-90328750D02*
X66675000Y-90328750D01*
X72675000Y-85868750D02*
X73675000Y-85868750D01*
X61595000Y-89312750D02*
X61595000Y-89693750D01*
X59675000Y-86264750D02*
X59675000Y-85868750D01*
X73675000Y-85868750D02*
X73675000Y-86868750D01*
X61595000Y-85883750D02*
X61595000Y-86264750D01*
X73025000Y-92233750D02*
X73025000Y-91852750D01*
X73675000Y-99868750D02*
X72675000Y-99868750D01*
X73675000Y-98868750D02*
X73675000Y-99868750D01*
X69215000Y-92233750D02*
X70866000Y-92233750D01*
X60675000Y-99868750D02*
X59675000Y-99868750D01*
%TO.C,K13*%
X107314999Y-56515001D02*
G75*
G03*
X104775001Y-54531829I-2539999J-634999D01*
G01*
X111125000Y-52705000D02*
G75*
G03*
X108585000Y-50165000I-2540000J0D01*
G01*
X97775000Y-64150000D02*
X97775000Y-63150000D01*
X108585000Y-50165000D02*
X99695000Y-50165000D01*
X111125000Y-52705000D02*
X111125000Y-53086000D01*
X97775000Y-50150000D02*
X98775000Y-50150000D01*
X110744000Y-56515000D02*
X111125000Y-56515000D01*
X102489000Y-54610000D02*
X104775000Y-54610000D01*
X110775000Y-50150000D02*
X111775000Y-50150000D01*
X99695000Y-53594000D02*
X99695000Y-53975000D01*
X97775000Y-50546000D02*
X97775000Y-50150000D01*
X111775000Y-50150000D02*
X111775000Y-51150000D01*
X99695000Y-50165000D02*
X99695000Y-50546000D01*
X111125000Y-56515000D02*
X111125000Y-56134000D01*
X111775000Y-64150000D02*
X110775000Y-64150000D01*
X111775000Y-63150000D02*
X111775000Y-64150000D01*
X107315000Y-56515000D02*
X108966000Y-56515000D01*
X98775000Y-64150000D02*
X97775000Y-64150000D01*
D13*
%TO.C,D23*%
X113459375Y-78281250D02*
X112709375Y-78281250D01*
X112709375Y-78881250D02*
X113109375Y-78281250D01*
X113809375Y-80681250D02*
X112409375Y-80681250D01*
X113809375Y-76081250D02*
X112409375Y-76081250D01*
X113809375Y-76481250D02*
X112409375Y-76481250D01*
X113109375Y-78281250D02*
X113459375Y-78881250D01*
X113109375Y-78281250D02*
X113109375Y-77981250D01*
X113109375Y-78881250D02*
X113109375Y-79181250D01*
X113809375Y-76281250D02*
X112409375Y-76281250D01*
X113809375Y-75881250D02*
X112409375Y-75881250D01*
X113809375Y-75881250D02*
X113809375Y-80681250D01*
X113459375Y-78881250D02*
X112709375Y-78881250D01*
X112409375Y-75881250D02*
X112409375Y-80681250D01*
D11*
%TO.C,K36*%
X185200051Y-115821028D02*
G75*
G03*
X183991934Y-112833552I-2517203J720074D01*
G01*
X190404609Y-114426471D02*
G75*
G03*
X189474905Y-110956767I-2199704J1270000D01*
G01*
X173120670Y-117663132D02*
X173620670Y-116797106D01*
X189474905Y-110956767D02*
X181775939Y-106511767D01*
X190404609Y-114426471D02*
X190214109Y-114756427D01*
X180120670Y-105538776D02*
X180986696Y-106038776D01*
X188169654Y-117535528D02*
X188499609Y-117726028D01*
X181973114Y-111758249D02*
X183952848Y-112901249D01*
X191379000Y-112038776D02*
X192245026Y-112538776D01*
X180061439Y-109481368D02*
X179870939Y-109811323D01*
X179922670Y-105881722D02*
X180120670Y-105538776D01*
X192245026Y-112538776D02*
X191745026Y-113404802D01*
X181775939Y-106511767D02*
X181585439Y-106841722D01*
X188499609Y-117726028D02*
X188690109Y-117396072D01*
X185245026Y-124663132D02*
X184379000Y-124163132D01*
X185745026Y-123797106D02*
X185245026Y-124663132D01*
X185200053Y-115821028D02*
X186629860Y-116646528D01*
X173986696Y-118163132D02*
X173120670Y-117663132D01*
D13*
%TO.C,D2*%
X94409375Y-44943750D02*
X93659375Y-44943750D01*
X93659375Y-45543750D02*
X94059375Y-44943750D01*
X94759375Y-47343750D02*
X93359375Y-47343750D01*
X94759375Y-42743750D02*
X93359375Y-42743750D01*
X94759375Y-43143750D02*
X93359375Y-43143750D01*
X94059375Y-44943750D02*
X94409375Y-45543750D01*
X94059375Y-44943750D02*
X94059375Y-44643750D01*
X94059375Y-45543750D02*
X94059375Y-45843750D01*
X94759375Y-42943750D02*
X93359375Y-42943750D01*
X94759375Y-42543750D02*
X93359375Y-42543750D01*
X94759375Y-42543750D02*
X94759375Y-47343750D01*
X94409375Y-45543750D02*
X93659375Y-45543750D01*
X93359375Y-42543750D02*
X93359375Y-47343750D01*
D11*
%TO.C,K40*%
X50164999Y-132715001D02*
G75*
G03*
X47625001Y-130731829I-2539999J-634999D01*
G01*
X53975000Y-128905000D02*
G75*
G03*
X51435000Y-126365000I-2540000J0D01*
G01*
X40625000Y-140350000D02*
X40625000Y-139350000D01*
X51435000Y-126365000D02*
X42545000Y-126365000D01*
X53975000Y-128905000D02*
X53975000Y-129286000D01*
X40625000Y-126350000D02*
X41625000Y-126350000D01*
X53594000Y-132715000D02*
X53975000Y-132715000D01*
X45339000Y-130810000D02*
X47625000Y-130810000D01*
X53625000Y-126350000D02*
X54625000Y-126350000D01*
X42545000Y-129794000D02*
X42545000Y-130175000D01*
X40625000Y-126746000D02*
X40625000Y-126350000D01*
X54625000Y-126350000D02*
X54625000Y-127350000D01*
X42545000Y-126365000D02*
X42545000Y-126746000D01*
X53975000Y-132715000D02*
X53975000Y-132334000D01*
X54625000Y-140350000D02*
X53625000Y-140350000D01*
X54625000Y-139350000D02*
X54625000Y-140350000D01*
X50165000Y-132715000D02*
X51816000Y-132715000D01*
X41625000Y-140350000D02*
X40625000Y-140350000D01*
%TO.C,K25*%
X145414999Y-85090001D02*
G75*
G03*
X142875001Y-83106829I-2539999J-634999D01*
G01*
X149225000Y-81280000D02*
G75*
G03*
X146685000Y-78740000I-2540000J0D01*
G01*
X135875000Y-92725000D02*
X135875000Y-91725000D01*
X146685000Y-78740000D02*
X137795000Y-78740000D01*
X149225000Y-81280000D02*
X149225000Y-81661000D01*
X135875000Y-78725000D02*
X136875000Y-78725000D01*
X148844000Y-85090000D02*
X149225000Y-85090000D01*
X140589000Y-83185000D02*
X142875000Y-83185000D01*
X148875000Y-78725000D02*
X149875000Y-78725000D01*
X137795000Y-82169000D02*
X137795000Y-82550000D01*
X135875000Y-79121000D02*
X135875000Y-78725000D01*
X149875000Y-78725000D02*
X149875000Y-79725000D01*
X137795000Y-78740000D02*
X137795000Y-79121000D01*
X149225000Y-85090000D02*
X149225000Y-84709000D01*
X149875000Y-92725000D02*
X148875000Y-92725000D01*
X149875000Y-91725000D02*
X149875000Y-92725000D01*
X145415000Y-85090000D02*
X147066000Y-85090000D01*
X136875000Y-92725000D02*
X135875000Y-92725000D01*
D13*
%TO.C,D24*%
X132509375Y-83043750D02*
X131759375Y-83043750D01*
X131759375Y-83643750D02*
X132159375Y-83043750D01*
X132859375Y-85443750D02*
X131459375Y-85443750D01*
X132859375Y-80843750D02*
X131459375Y-80843750D01*
X132859375Y-81243750D02*
X131459375Y-81243750D01*
X132159375Y-83043750D02*
X132509375Y-83643750D01*
X132159375Y-83043750D02*
X132159375Y-82743750D01*
X132159375Y-83643750D02*
X132159375Y-83943750D01*
X132859375Y-81043750D02*
X131459375Y-81043750D01*
X132859375Y-80643750D02*
X131459375Y-80643750D01*
X132859375Y-80643750D02*
X132859375Y-85443750D01*
X132509375Y-83643750D02*
X131759375Y-83643750D01*
X131459375Y-80643750D02*
X131459375Y-85443750D01*
D11*
%TO.C,K7*%
X88264999Y-137477501D02*
G75*
G03*
X85725001Y-135494329I-2539999J-634999D01*
G01*
X92075000Y-133667500D02*
G75*
G03*
X89535000Y-131127500I-2540000J0D01*
G01*
X78725000Y-145112500D02*
X78725000Y-144112500D01*
X89535000Y-131127500D02*
X80645000Y-131127500D01*
X92075000Y-133667500D02*
X92075000Y-134048500D01*
X78725000Y-131112500D02*
X79725000Y-131112500D01*
X91694000Y-137477500D02*
X92075000Y-137477500D01*
X83439000Y-135572500D02*
X85725000Y-135572500D01*
X91725000Y-131112500D02*
X92725000Y-131112500D01*
X80645000Y-134556500D02*
X80645000Y-134937500D01*
X78725000Y-131508500D02*
X78725000Y-131112500D01*
X92725000Y-131112500D02*
X92725000Y-132112500D01*
X80645000Y-131127500D02*
X80645000Y-131508500D01*
X92075000Y-137477500D02*
X92075000Y-137096500D01*
X92725000Y-145112500D02*
X91725000Y-145112500D01*
X92725000Y-144112500D02*
X92725000Y-145112500D01*
X88265000Y-137477500D02*
X89916000Y-137477500D01*
X79725000Y-145112500D02*
X78725000Y-145112500D01*
D13*
%TO.C,D16*%
X170609375Y-73518750D02*
X169859375Y-73518750D01*
X169859375Y-74118750D02*
X170259375Y-73518750D01*
X170959375Y-75918750D02*
X169559375Y-75918750D01*
X170959375Y-71318750D02*
X169559375Y-71318750D01*
X170959375Y-71718750D02*
X169559375Y-71718750D01*
X170259375Y-73518750D02*
X170609375Y-74118750D01*
X170259375Y-73518750D02*
X170259375Y-73218750D01*
X170259375Y-74118750D02*
X170259375Y-74418750D01*
X170959375Y-71518750D02*
X169559375Y-71518750D01*
X170959375Y-71118750D02*
X169559375Y-71118750D01*
X170959375Y-71118750D02*
X170959375Y-75918750D01*
X170609375Y-74118750D02*
X169859375Y-74118750D01*
X169559375Y-71118750D02*
X169559375Y-75918750D01*
D12*
%TO.C,JPr4a1*%
X192558750Y-70993125D02*
X192558750Y-72993125D01*
X189758750Y-70993125D02*
X192558750Y-70993125D01*
X189758750Y-72993125D02*
X189758750Y-70993125D01*
X192558750Y-72993125D02*
X189758750Y-72993125D01*
D11*
%TO.C,K15*%
X145414999Y-66040001D02*
G75*
G03*
X142875001Y-64056829I-2539999J-634999D01*
G01*
X149225000Y-62230000D02*
G75*
G03*
X146685000Y-59690000I-2540000J0D01*
G01*
X135875000Y-73675000D02*
X135875000Y-72675000D01*
X146685000Y-59690000D02*
X137795000Y-59690000D01*
X149225000Y-62230000D02*
X149225000Y-62611000D01*
X135875000Y-59675000D02*
X136875000Y-59675000D01*
X148844000Y-66040000D02*
X149225000Y-66040000D01*
X140589000Y-64135000D02*
X142875000Y-64135000D01*
X148875000Y-59675000D02*
X149875000Y-59675000D01*
X137795000Y-63119000D02*
X137795000Y-63500000D01*
X135875000Y-60071000D02*
X135875000Y-59675000D01*
X149875000Y-59675000D02*
X149875000Y-60675000D01*
X137795000Y-59690000D02*
X137795000Y-60071000D01*
X149225000Y-66040000D02*
X149225000Y-65659000D01*
X149875000Y-73675000D02*
X148875000Y-73675000D01*
X149875000Y-72675000D02*
X149875000Y-73675000D01*
X145415000Y-66040000D02*
X147066000Y-66040000D01*
X136875000Y-73675000D02*
X135875000Y-73675000D01*
D13*
%TO.C,D17*%
X175862500Y-78881250D02*
X176612500Y-78881250D01*
X176612500Y-78281250D02*
X176212500Y-78881250D01*
X175512500Y-76481250D02*
X176912500Y-76481250D01*
X175512500Y-81081250D02*
X176912500Y-81081250D01*
X175512500Y-80681250D02*
X176912500Y-80681250D01*
X176212500Y-78881250D02*
X175862500Y-78281250D01*
X176212500Y-78881250D02*
X176212500Y-79181250D01*
X176212500Y-78281250D02*
X176212500Y-77981250D01*
X175512500Y-80881250D02*
X176912500Y-80881250D01*
X175512500Y-81281250D02*
X176912500Y-81281250D01*
X175512500Y-81281250D02*
X175512500Y-76481250D01*
X175862500Y-78281250D02*
X176612500Y-78281250D01*
X176912500Y-81281250D02*
X176912500Y-76481250D01*
D11*
%TO.C,K5*%
X145414999Y-46990001D02*
G75*
G03*
X142875001Y-45006829I-2539999J-634999D01*
G01*
X149225000Y-43180000D02*
G75*
G03*
X146685000Y-40640000I-2540000J0D01*
G01*
X135875000Y-54625000D02*
X135875000Y-53625000D01*
X146685000Y-40640000D02*
X137795000Y-40640000D01*
X149225000Y-43180000D02*
X149225000Y-43561000D01*
X135875000Y-40625000D02*
X136875000Y-40625000D01*
X148844000Y-46990000D02*
X149225000Y-46990000D01*
X140589000Y-45085000D02*
X142875000Y-45085000D01*
X148875000Y-40625000D02*
X149875000Y-40625000D01*
X137795000Y-44069000D02*
X137795000Y-44450000D01*
X135875000Y-41021000D02*
X135875000Y-40625000D01*
X149875000Y-40625000D02*
X149875000Y-41625000D01*
X137795000Y-40640000D02*
X137795000Y-41021000D01*
X149225000Y-46990000D02*
X149225000Y-46609000D01*
X149875000Y-54625000D02*
X148875000Y-54625000D01*
X149875000Y-53625000D02*
X149875000Y-54625000D01*
X145415000Y-46990000D02*
X147066000Y-46990000D01*
X136875000Y-54625000D02*
X135875000Y-54625000D01*
%TO.C,K1*%
X69214999Y-54133751D02*
G75*
G03*
X66675001Y-52150579I-2539999J-634999D01*
G01*
X73025000Y-50323750D02*
G75*
G03*
X70485000Y-47783750I-2540000J0D01*
G01*
X59675000Y-61768750D02*
X59675000Y-60768750D01*
X70485000Y-47783750D02*
X61595000Y-47783750D01*
X73025000Y-50323750D02*
X73025000Y-50704750D01*
X59675000Y-47768750D02*
X60675000Y-47768750D01*
X72644000Y-54133750D02*
X73025000Y-54133750D01*
X64389000Y-52228750D02*
X66675000Y-52228750D01*
X72675000Y-47768750D02*
X73675000Y-47768750D01*
X61595000Y-51212750D02*
X61595000Y-51593750D01*
X59675000Y-48164750D02*
X59675000Y-47768750D01*
X73675000Y-47768750D02*
X73675000Y-48768750D01*
X61595000Y-47783750D02*
X61595000Y-48164750D01*
X73025000Y-54133750D02*
X73025000Y-53752750D01*
X73675000Y-61768750D02*
X72675000Y-61768750D01*
X73675000Y-60768750D02*
X73675000Y-61768750D01*
X69215000Y-54133750D02*
X70866000Y-54133750D01*
X60675000Y-61768750D02*
X59675000Y-61768750D01*
D12*
%TO.C,JPbat+a0*%
X179956000Y-45053125D02*
X179956000Y-43053125D01*
X182756000Y-45053125D02*
X179956000Y-45053125D01*
X182756000Y-43053125D02*
X182756000Y-45053125D01*
X179956000Y-43053125D02*
X182756000Y-43053125D01*
D11*
%TO.C,K0*%
X50164999Y-56515001D02*
G75*
G03*
X47625001Y-54531829I-2539999J-634999D01*
G01*
X53975000Y-52705000D02*
G75*
G03*
X51435000Y-50165000I-2540000J0D01*
G01*
X40625000Y-64150000D02*
X40625000Y-63150000D01*
X51435000Y-50165000D02*
X42545000Y-50165000D01*
X53975000Y-52705000D02*
X53975000Y-53086000D01*
X40625000Y-50150000D02*
X41625000Y-50150000D01*
X53594000Y-56515000D02*
X53975000Y-56515000D01*
X45339000Y-54610000D02*
X47625000Y-54610000D01*
X53625000Y-50150000D02*
X54625000Y-50150000D01*
X42545000Y-53594000D02*
X42545000Y-53975000D01*
X40625000Y-50546000D02*
X40625000Y-50150000D01*
X54625000Y-50150000D02*
X54625000Y-51150000D01*
X42545000Y-50165000D02*
X42545000Y-50546000D01*
X53975000Y-56515000D02*
X53975000Y-56134000D01*
X54625000Y-64150000D02*
X53625000Y-64150000D01*
X54625000Y-63150000D02*
X54625000Y-64150000D01*
X50165000Y-56515000D02*
X51816000Y-56515000D01*
X41625000Y-64150000D02*
X40625000Y-64150000D01*
D12*
%TO.C,JPr0a1*%
X192595750Y-60833125D02*
X192595750Y-62833125D01*
X189795750Y-60833125D02*
X192595750Y-60833125D01*
X189795750Y-62833125D02*
X189795750Y-60833125D01*
X192595750Y-62833125D02*
X189795750Y-62833125D01*
%TO.C,JPc2a1*%
X180069750Y-62833125D02*
X180069750Y-60833125D01*
X182869750Y-62833125D02*
X180069750Y-62833125D01*
X182869750Y-60833125D02*
X182869750Y-62833125D01*
X180069750Y-60833125D02*
X182869750Y-60833125D01*
D13*
%TO.C,D34*%
X132509375Y-102093750D02*
X131759375Y-102093750D01*
X131759375Y-102693750D02*
X132159375Y-102093750D01*
X132859375Y-104493750D02*
X131459375Y-104493750D01*
X132859375Y-99893750D02*
X131459375Y-99893750D01*
X132859375Y-100293750D02*
X131459375Y-100293750D01*
X132159375Y-102093750D02*
X132509375Y-102693750D01*
X132159375Y-102093750D02*
X132159375Y-101793750D01*
X132159375Y-102693750D02*
X132159375Y-102993750D01*
X132859375Y-100093750D02*
X131459375Y-100093750D01*
X132859375Y-99693750D02*
X131459375Y-99693750D01*
X132859375Y-99693750D02*
X132859375Y-104493750D01*
X132509375Y-102693750D02*
X131759375Y-102693750D01*
X131459375Y-99693750D02*
X131459375Y-104493750D01*
D11*
%TO.C,K42*%
X88264999Y-118427501D02*
G75*
G03*
X85725001Y-116444329I-2539999J-634999D01*
G01*
X92075000Y-114617500D02*
G75*
G03*
X89535000Y-112077500I-2540000J0D01*
G01*
X78725000Y-126062500D02*
X78725000Y-125062500D01*
X89535000Y-112077500D02*
X80645000Y-112077500D01*
X92075000Y-114617500D02*
X92075000Y-114998500D01*
X78725000Y-112062500D02*
X79725000Y-112062500D01*
X91694000Y-118427500D02*
X92075000Y-118427500D01*
X83439000Y-116522500D02*
X85725000Y-116522500D01*
X91725000Y-112062500D02*
X92725000Y-112062500D01*
X80645000Y-115506500D02*
X80645000Y-115887500D01*
X78725000Y-112458500D02*
X78725000Y-112062500D01*
X92725000Y-112062500D02*
X92725000Y-113062500D01*
X80645000Y-112077500D02*
X80645000Y-112458500D01*
X92075000Y-118427500D02*
X92075000Y-118046500D01*
X92725000Y-126062500D02*
X91725000Y-126062500D01*
X92725000Y-125062500D02*
X92725000Y-126062500D01*
X88265000Y-118427500D02*
X89916000Y-118427500D01*
X79725000Y-126062500D02*
X78725000Y-126062500D01*
%TO.C,K35*%
X145414999Y-104140001D02*
G75*
G03*
X142875001Y-102156829I-2539999J-634999D01*
G01*
X149225000Y-100330000D02*
G75*
G03*
X146685000Y-97790000I-2540000J0D01*
G01*
X135875000Y-111775000D02*
X135875000Y-110775000D01*
X146685000Y-97790000D02*
X137795000Y-97790000D01*
X149225000Y-100330000D02*
X149225000Y-100711000D01*
X135875000Y-97775000D02*
X136875000Y-97775000D01*
X148844000Y-104140000D02*
X149225000Y-104140000D01*
X140589000Y-102235000D02*
X142875000Y-102235000D01*
X148875000Y-97775000D02*
X149875000Y-97775000D01*
X137795000Y-101219000D02*
X137795000Y-101600000D01*
X135875000Y-98171000D02*
X135875000Y-97775000D01*
X149875000Y-97775000D02*
X149875000Y-98775000D01*
X137795000Y-97790000D02*
X137795000Y-98171000D01*
X149225000Y-104140000D02*
X149225000Y-103759000D01*
X149875000Y-111775000D02*
X148875000Y-111775000D01*
X149875000Y-110775000D02*
X149875000Y-111775000D01*
X145415000Y-104140000D02*
X147066000Y-104140000D01*
X136875000Y-111775000D02*
X135875000Y-111775000D01*
D13*
%TO.C,D7*%
X94409375Y-140193750D02*
X93659375Y-140193750D01*
X93659375Y-140793750D02*
X94059375Y-140193750D01*
X94759375Y-142593750D02*
X93359375Y-142593750D01*
X94759375Y-137993750D02*
X93359375Y-137993750D01*
X94759375Y-138393750D02*
X93359375Y-138393750D01*
X94059375Y-140193750D02*
X94409375Y-140793750D01*
X94059375Y-140193750D02*
X94059375Y-139893750D01*
X94059375Y-140793750D02*
X94059375Y-141093750D01*
X94759375Y-138193750D02*
X93359375Y-138193750D01*
X94759375Y-137793750D02*
X93359375Y-137793750D01*
X94759375Y-137793750D02*
X94759375Y-142593750D01*
X94409375Y-140793750D02*
X93659375Y-140793750D01*
X93359375Y-137793750D02*
X93359375Y-142593750D01*
D12*
%TO.C,JPc6a1*%
X180069750Y-72993125D02*
X180069750Y-70993125D01*
X182869750Y-72993125D02*
X180069750Y-72993125D01*
X182869750Y-70993125D02*
X182869750Y-72993125D01*
X180069750Y-70993125D02*
X182869750Y-70993125D01*
D13*
%TO.C,D15*%
X151559375Y-68756250D02*
X150809375Y-68756250D01*
X150809375Y-69356250D02*
X151209375Y-68756250D01*
X151909375Y-71156250D02*
X150509375Y-71156250D01*
X151909375Y-66556250D02*
X150509375Y-66556250D01*
X151909375Y-66956250D02*
X150509375Y-66956250D01*
X151209375Y-68756250D02*
X151559375Y-69356250D01*
X151209375Y-68756250D02*
X151209375Y-68456250D01*
X151209375Y-69356250D02*
X151209375Y-69656250D01*
X151909375Y-66756250D02*
X150509375Y-66756250D01*
X151909375Y-66356250D02*
X150509375Y-66356250D01*
X151909375Y-66356250D02*
X151909375Y-71156250D01*
X151559375Y-69356250D02*
X150809375Y-69356250D01*
X150509375Y-66356250D02*
X150509375Y-71156250D01*
D12*
%TO.C,JPgbda0*%
X180069750Y-47593125D02*
X180069750Y-45593125D01*
X182869750Y-47593125D02*
X180069750Y-47593125D01*
X182869750Y-45593125D02*
X182869750Y-47593125D01*
X180069750Y-45593125D02*
X182869750Y-45593125D01*
%TO.C,JPc1a1*%
X180106750Y-60293125D02*
X180106750Y-58293125D01*
X182906750Y-60293125D02*
X180106750Y-60293125D01*
X182906750Y-58293125D02*
X182906750Y-60293125D01*
X180106750Y-58293125D02*
X182906750Y-58293125D01*
D11*
%TO.C,K14*%
X126364999Y-61277501D02*
G75*
G03*
X123825001Y-59294329I-2539999J-634999D01*
G01*
X130175000Y-57467500D02*
G75*
G03*
X127635000Y-54927500I-2540000J0D01*
G01*
X116825000Y-68912500D02*
X116825000Y-67912500D01*
X127635000Y-54927500D02*
X118745000Y-54927500D01*
X130175000Y-57467500D02*
X130175000Y-57848500D01*
X116825000Y-54912500D02*
X117825000Y-54912500D01*
X129794000Y-61277500D02*
X130175000Y-61277500D01*
X121539000Y-59372500D02*
X123825000Y-59372500D01*
X129825000Y-54912500D02*
X130825000Y-54912500D01*
X118745000Y-58356500D02*
X118745000Y-58737500D01*
X116825000Y-55308500D02*
X116825000Y-54912500D01*
X130825000Y-54912500D02*
X130825000Y-55912500D01*
X118745000Y-54927500D02*
X118745000Y-55308500D01*
X130175000Y-61277500D02*
X130175000Y-60896500D01*
X130825000Y-68912500D02*
X129825000Y-68912500D01*
X130825000Y-67912500D02*
X130825000Y-68912500D01*
X126365000Y-61277500D02*
X128016000Y-61277500D01*
X117825000Y-68912500D02*
X116825000Y-68912500D01*
D13*
%TO.C,D5*%
X151559375Y-49706250D02*
X150809375Y-49706250D01*
X150809375Y-50306250D02*
X151209375Y-49706250D01*
X151909375Y-52106250D02*
X150509375Y-52106250D01*
X151909375Y-47506250D02*
X150509375Y-47506250D01*
X151909375Y-47906250D02*
X150509375Y-47906250D01*
X151209375Y-49706250D02*
X151559375Y-50306250D01*
X151209375Y-49706250D02*
X151209375Y-49406250D01*
X151209375Y-50306250D02*
X151209375Y-50606250D01*
X151909375Y-47706250D02*
X150509375Y-47706250D01*
X151909375Y-47306250D02*
X150509375Y-47306250D01*
X151909375Y-47306250D02*
X151909375Y-52106250D01*
X151559375Y-50306250D02*
X150809375Y-50306250D01*
X150509375Y-47306250D02*
X150509375Y-52106250D01*
%TO.C,D11*%
X76550000Y-75900000D02*
X75800000Y-75900000D01*
X75800000Y-76500000D02*
X76200000Y-75900000D01*
X76900000Y-78300000D02*
X75500000Y-78300000D01*
X76900000Y-73700000D02*
X75500000Y-73700000D01*
X76900000Y-74100000D02*
X75500000Y-74100000D01*
X76200000Y-75900000D02*
X76550000Y-76500000D01*
X76200000Y-75900000D02*
X76200000Y-75600000D01*
X76200000Y-76500000D02*
X76200000Y-76800000D01*
X76900000Y-73900000D02*
X75500000Y-73900000D01*
X76900000Y-73500000D02*
X75500000Y-73500000D01*
X76900000Y-73500000D02*
X76900000Y-78300000D01*
X76550000Y-76500000D02*
X75800000Y-76500000D01*
X75500000Y-73500000D02*
X75500000Y-78300000D01*
%TO.C,D22*%
X94409375Y-83043750D02*
X93659375Y-83043750D01*
X93659375Y-83643750D02*
X94059375Y-83043750D01*
X94759375Y-85443750D02*
X93359375Y-85443750D01*
X94759375Y-80843750D02*
X93359375Y-80843750D01*
X94759375Y-81243750D02*
X93359375Y-81243750D01*
X94059375Y-83043750D02*
X94409375Y-83643750D01*
X94059375Y-83043750D02*
X94059375Y-82743750D01*
X94059375Y-83643750D02*
X94059375Y-83943750D01*
X94759375Y-81043750D02*
X93359375Y-81043750D01*
X94759375Y-80643750D02*
X93359375Y-80643750D01*
X94759375Y-80643750D02*
X94759375Y-85443750D01*
X94409375Y-83643750D02*
X93659375Y-83643750D01*
X93359375Y-80643750D02*
X93359375Y-85443750D01*
D11*
%TO.C,K22*%
X88264999Y-80327501D02*
G75*
G03*
X85725001Y-78344329I-2539999J-634999D01*
G01*
X92075000Y-76517500D02*
G75*
G03*
X89535000Y-73977500I-2540000J0D01*
G01*
X78725000Y-87962500D02*
X78725000Y-86962500D01*
X89535000Y-73977500D02*
X80645000Y-73977500D01*
X92075000Y-76517500D02*
X92075000Y-76898500D01*
X78725000Y-73962500D02*
X79725000Y-73962500D01*
X91694000Y-80327500D02*
X92075000Y-80327500D01*
X83439000Y-78422500D02*
X85725000Y-78422500D01*
X91725000Y-73962500D02*
X92725000Y-73962500D01*
X80645000Y-77406500D02*
X80645000Y-77787500D01*
X78725000Y-74358500D02*
X78725000Y-73962500D01*
X92725000Y-73962500D02*
X92725000Y-74962500D01*
X80645000Y-73977500D02*
X80645000Y-74358500D01*
X92075000Y-80327500D02*
X92075000Y-79946500D01*
X92725000Y-87962500D02*
X91725000Y-87962500D01*
X92725000Y-86962500D02*
X92725000Y-87962500D01*
X88265000Y-80327500D02*
X89916000Y-80327500D01*
X79725000Y-87962500D02*
X78725000Y-87962500D01*
D13*
%TO.C,D45*%
X137271875Y-125906250D02*
X136521875Y-125906250D01*
X136521875Y-126506250D02*
X136921875Y-125906250D01*
X137621875Y-128306250D02*
X136221875Y-128306250D01*
X137621875Y-123706250D02*
X136221875Y-123706250D01*
X137621875Y-124106250D02*
X136221875Y-124106250D01*
X136921875Y-125906250D02*
X137271875Y-126506250D01*
X136921875Y-125906250D02*
X136921875Y-125606250D01*
X136921875Y-126506250D02*
X136921875Y-126806250D01*
X137621875Y-123906250D02*
X136221875Y-123906250D01*
X137621875Y-123506250D02*
X136221875Y-123506250D01*
X137621875Y-123506250D02*
X137621875Y-128306250D01*
X137271875Y-126506250D02*
X136521875Y-126506250D01*
X136221875Y-123506250D02*
X136221875Y-128306250D01*
%TO.C,D40*%
X56309375Y-135431250D02*
X55559375Y-135431250D01*
X55559375Y-136031250D02*
X55959375Y-135431250D01*
X56659375Y-137831250D02*
X55259375Y-137831250D01*
X56659375Y-133231250D02*
X55259375Y-133231250D01*
X56659375Y-133631250D02*
X55259375Y-133631250D01*
X55959375Y-135431250D02*
X56309375Y-136031250D01*
X55959375Y-135431250D02*
X55959375Y-135131250D01*
X55959375Y-136031250D02*
X55959375Y-136331250D01*
X56659375Y-133431250D02*
X55259375Y-133431250D01*
X56659375Y-133031250D02*
X55259375Y-133031250D01*
X56659375Y-133031250D02*
X56659375Y-137831250D01*
X56309375Y-136031250D02*
X55559375Y-136031250D01*
X55259375Y-133031250D02*
X55259375Y-137831250D01*
D12*
%TO.C,JPc7a1*%
X192606375Y-58293125D02*
X192606375Y-60293125D01*
X189806375Y-58293125D02*
X192606375Y-58293125D01*
X189806375Y-60293125D02*
X189806375Y-58293125D01*
X192606375Y-60293125D02*
X189806375Y-60293125D01*
D11*
%TO.C,K12*%
X88264999Y-61277501D02*
G75*
G03*
X85725001Y-59294329I-2539999J-634999D01*
G01*
X92075000Y-57467500D02*
G75*
G03*
X89535000Y-54927500I-2540000J0D01*
G01*
X78725000Y-68912500D02*
X78725000Y-67912500D01*
X89535000Y-54927500D02*
X80645000Y-54927500D01*
X92075000Y-57467500D02*
X92075000Y-57848500D01*
X78725000Y-54912500D02*
X79725000Y-54912500D01*
X91694000Y-61277500D02*
X92075000Y-61277500D01*
X83439000Y-59372500D02*
X85725000Y-59372500D01*
X91725000Y-54912500D02*
X92725000Y-54912500D01*
X80645000Y-58356500D02*
X80645000Y-58737500D01*
X78725000Y-55308500D02*
X78725000Y-54912500D01*
X92725000Y-54912500D02*
X92725000Y-55912500D01*
X80645000Y-54927500D02*
X80645000Y-55308500D01*
X92075000Y-61277500D02*
X92075000Y-60896500D01*
X92725000Y-68912500D02*
X91725000Y-68912500D01*
X92725000Y-67912500D02*
X92725000Y-68912500D01*
X88265000Y-61277500D02*
X89916000Y-61277500D01*
X79725000Y-68912500D02*
X78725000Y-68912500D01*
%TO.C,K43*%
X107314999Y-130333751D02*
G75*
G03*
X104775001Y-128350579I-2539999J-634999D01*
G01*
X111125000Y-126523750D02*
G75*
G03*
X108585000Y-123983750I-2540000J0D01*
G01*
X97775000Y-137968750D02*
X97775000Y-136968750D01*
X108585000Y-123983750D02*
X99695000Y-123983750D01*
X111125000Y-126523750D02*
X111125000Y-126904750D01*
X97775000Y-123968750D02*
X98775000Y-123968750D01*
X110744000Y-130333750D02*
X111125000Y-130333750D01*
X102489000Y-128428750D02*
X104775000Y-128428750D01*
X110775000Y-123968750D02*
X111775000Y-123968750D01*
X99695000Y-127412750D02*
X99695000Y-127793750D01*
X97775000Y-124364750D02*
X97775000Y-123968750D01*
X111775000Y-123968750D02*
X111775000Y-124968750D01*
X99695000Y-123983750D02*
X99695000Y-124364750D01*
X111125000Y-130333750D02*
X111125000Y-129952750D01*
X111775000Y-137968750D02*
X110775000Y-137968750D01*
X111775000Y-136968750D02*
X111775000Y-137968750D01*
X107315000Y-130333750D02*
X108966000Y-130333750D01*
X98775000Y-137968750D02*
X97775000Y-137968750D01*
D13*
%TO.C,D0*%
X56309375Y-59231250D02*
X55559375Y-59231250D01*
X55559375Y-59831250D02*
X55959375Y-59231250D01*
X56659375Y-61631250D02*
X55259375Y-61631250D01*
X56659375Y-57031250D02*
X55259375Y-57031250D01*
X56659375Y-57431250D02*
X55259375Y-57431250D01*
X55959375Y-59231250D02*
X56309375Y-59831250D01*
X55959375Y-59231250D02*
X55959375Y-58931250D01*
X55959375Y-59831250D02*
X55959375Y-60131250D01*
X56659375Y-57231250D02*
X55259375Y-57231250D01*
X56659375Y-56831250D02*
X55259375Y-56831250D01*
X56659375Y-56831250D02*
X56659375Y-61631250D01*
X56309375Y-59831250D02*
X55559375Y-59831250D01*
X55259375Y-56831250D02*
X55259375Y-61631250D01*
%TO.C,D46*%
X134890625Y-125906250D02*
X134140625Y-125906250D01*
X134140625Y-126506250D02*
X134540625Y-125906250D01*
X135240625Y-128306250D02*
X133840625Y-128306250D01*
X135240625Y-123706250D02*
X133840625Y-123706250D01*
X135240625Y-124106250D02*
X133840625Y-124106250D01*
X134540625Y-125906250D02*
X134890625Y-126506250D01*
X134540625Y-125906250D02*
X134540625Y-125606250D01*
X134540625Y-126506250D02*
X134540625Y-126806250D01*
X135240625Y-123906250D02*
X133840625Y-123906250D01*
X135240625Y-123506250D02*
X133840625Y-123506250D01*
X135240625Y-123506250D02*
X135240625Y-128306250D01*
X134890625Y-126506250D02*
X134140625Y-126506250D01*
X133840625Y-123506250D02*
X133840625Y-128306250D01*
D11*
%TO.C,K33*%
X107314999Y-94615001D02*
G75*
G03*
X104775001Y-92631829I-2539999J-634999D01*
G01*
X111125000Y-90805000D02*
G75*
G03*
X108585000Y-88265000I-2540000J0D01*
G01*
X97775000Y-102250000D02*
X97775000Y-101250000D01*
X108585000Y-88265000D02*
X99695000Y-88265000D01*
X111125000Y-90805000D02*
X111125000Y-91186000D01*
X97775000Y-88250000D02*
X98775000Y-88250000D01*
X110744000Y-94615000D02*
X111125000Y-94615000D01*
X102489000Y-92710000D02*
X104775000Y-92710000D01*
X110775000Y-88250000D02*
X111775000Y-88250000D01*
X99695000Y-91694000D02*
X99695000Y-92075000D01*
X97775000Y-88646000D02*
X97775000Y-88250000D01*
X111775000Y-88250000D02*
X111775000Y-89250000D01*
X99695000Y-88265000D02*
X99695000Y-88646000D01*
X111125000Y-94615000D02*
X111125000Y-94234000D01*
X111775000Y-102250000D02*
X110775000Y-102250000D01*
X111775000Y-101250000D02*
X111775000Y-102250000D01*
X107315000Y-94615000D02*
X108966000Y-94615000D01*
X98775000Y-102250000D02*
X97775000Y-102250000D01*
%TO.C,K26*%
X157480000Y-93662500D02*
G75*
G03*
X154940000Y-96202500I0J-2540000D01*
G01*
X161290001Y-97472501D02*
G75*
G03*
X159306829Y-100012499I634999J-2539999D01*
G01*
X154925000Y-107012500D02*
X154925000Y-106012500D01*
X154940000Y-105092500D02*
X155321000Y-105092500D01*
X159385000Y-102298500D02*
X159385000Y-100012500D01*
X158369000Y-105092500D02*
X158750000Y-105092500D01*
X161290000Y-94043500D02*
X161290000Y-93662500D01*
X161290000Y-93662500D02*
X160909000Y-93662500D01*
X167925000Y-93012500D02*
X168925000Y-93012500D01*
X168925000Y-93012500D02*
X168925000Y-94012500D01*
X154940000Y-96202500D02*
X154940000Y-105092500D01*
X161290000Y-97472500D02*
X161290000Y-95821500D01*
X154925000Y-94012500D02*
X154925000Y-93012500D01*
X168925000Y-107012500D02*
X167925000Y-107012500D01*
X154925000Y-93012500D02*
X155925000Y-93012500D01*
X157480000Y-93662500D02*
X157861000Y-93662500D01*
X155321000Y-107012500D02*
X154925000Y-107012500D01*
X168925000Y-106012500D02*
X168925000Y-107012500D01*
D12*
%TO.C,JPc0a1*%
X180069750Y-57753125D02*
X180069750Y-55753125D01*
X182869750Y-57753125D02*
X180069750Y-57753125D01*
X182869750Y-55753125D02*
X182869750Y-57753125D01*
X180069750Y-55753125D02*
X182869750Y-55753125D01*
D13*
%TO.C,D43*%
X113459375Y-132840625D02*
X112709375Y-132840625D01*
X112709375Y-133440625D02*
X113109375Y-132840625D01*
X113809375Y-135240625D02*
X112409375Y-135240625D01*
X113809375Y-130640625D02*
X112409375Y-130640625D01*
X113809375Y-131040625D02*
X112409375Y-131040625D01*
X113109375Y-132840625D02*
X113459375Y-133440625D01*
X113109375Y-132840625D02*
X113109375Y-132540625D01*
X113109375Y-133440625D02*
X113109375Y-133740625D01*
X113809375Y-130840625D02*
X112409375Y-130840625D01*
X113809375Y-130440625D02*
X112409375Y-130440625D01*
X113809375Y-130440625D02*
X113809375Y-135240625D01*
X113459375Y-133440625D02*
X112709375Y-133440625D01*
X112409375Y-130440625D02*
X112409375Y-135240625D01*
D12*
%TO.C,K17*%
X184225000Y-85593750D02*
X184225000Y-81093750D01*
X177725000Y-81093750D02*
X177725000Y-85593750D01*
X181725000Y-79843750D02*
X180225000Y-79843750D01*
X180225000Y-86843750D02*
X181725000Y-86843750D01*
%TO.C,JPc4a1*%
X180069750Y-67913125D02*
X180069750Y-65913125D01*
X182869750Y-67913125D02*
X180069750Y-67913125D01*
X182869750Y-65913125D02*
X182869750Y-67913125D01*
X180069750Y-65913125D02*
X182869750Y-65913125D01*
D13*
%TO.C,D14*%
X132509375Y-63993750D02*
X131759375Y-63993750D01*
X131759375Y-64593750D02*
X132159375Y-63993750D01*
X132859375Y-66393750D02*
X131459375Y-66393750D01*
X132859375Y-61793750D02*
X131459375Y-61793750D01*
X132859375Y-62193750D02*
X131459375Y-62193750D01*
X132159375Y-63993750D02*
X132509375Y-64593750D01*
X132159375Y-63993750D02*
X132159375Y-63693750D01*
X132159375Y-64593750D02*
X132159375Y-64893750D01*
X132859375Y-61993750D02*
X131459375Y-61993750D01*
X132859375Y-61593750D02*
X131459375Y-61593750D01*
X132859375Y-61593750D02*
X132859375Y-66393750D01*
X132509375Y-64593750D02*
X131759375Y-64593750D01*
X131459375Y-61593750D02*
X131459375Y-66393750D01*
%TO.C,D1*%
X76550000Y-56850000D02*
X75800000Y-56850000D01*
X75800000Y-57450000D02*
X76200000Y-56850000D01*
X76900000Y-59250000D02*
X75500000Y-59250000D01*
X76900000Y-54650000D02*
X75500000Y-54650000D01*
X76900000Y-55050000D02*
X75500000Y-55050000D01*
X76200000Y-56850000D02*
X76550000Y-57450000D01*
X76200000Y-56850000D02*
X76200000Y-56550000D01*
X76200000Y-57450000D02*
X76200000Y-57750000D01*
X76900000Y-54850000D02*
X75500000Y-54850000D01*
X76900000Y-54450000D02*
X75500000Y-54450000D01*
X76900000Y-54450000D02*
X76900000Y-59250000D01*
X76550000Y-57450000D02*
X75800000Y-57450000D01*
X75500000Y-54450000D02*
X75500000Y-59250000D01*
D12*
%TO.C,K47*%
X193750000Y-102262500D02*
X193750000Y-97762500D01*
X187250000Y-97762500D02*
X187250000Y-102262500D01*
X191250000Y-96512500D02*
X189750000Y-96512500D01*
X189750000Y-103512500D02*
X191250000Y-103512500D01*
D11*
%TO.C,K3*%
X107314999Y-37465001D02*
G75*
G03*
X104775001Y-35481829I-2539999J-634999D01*
G01*
X111125000Y-33655000D02*
G75*
G03*
X108585000Y-31115000I-2540000J0D01*
G01*
X97775000Y-45100000D02*
X97775000Y-44100000D01*
X108585000Y-31115000D02*
X99695000Y-31115000D01*
X111125000Y-33655000D02*
X111125000Y-34036000D01*
X97775000Y-31100000D02*
X98775000Y-31100000D01*
X110744000Y-37465000D02*
X111125000Y-37465000D01*
X102489000Y-35560000D02*
X104775000Y-35560000D01*
X110775000Y-31100000D02*
X111775000Y-31100000D01*
X99695000Y-34544000D02*
X99695000Y-34925000D01*
X97775000Y-31496000D02*
X97775000Y-31100000D01*
X111775000Y-31100000D02*
X111775000Y-32100000D01*
X99695000Y-31115000D02*
X99695000Y-31496000D01*
X111125000Y-37465000D02*
X111125000Y-37084000D01*
X111775000Y-45100000D02*
X110775000Y-45100000D01*
X111775000Y-44100000D02*
X111775000Y-45100000D01*
X107315000Y-37465000D02*
X108966000Y-37465000D01*
X98775000Y-45100000D02*
X97775000Y-45100000D01*
D13*
%TO.C,D47*%
X185387500Y-95550000D02*
X186137500Y-95550000D01*
X186137500Y-94950000D02*
X185737500Y-95550000D01*
X185037500Y-93150000D02*
X186437500Y-93150000D01*
X185037500Y-97750000D02*
X186437500Y-97750000D01*
X185037500Y-97350000D02*
X186437500Y-97350000D01*
X185737500Y-95550000D02*
X185387500Y-94950000D01*
X185737500Y-95550000D02*
X185737500Y-95850000D01*
X185737500Y-94950000D02*
X185737500Y-94650000D01*
X185037500Y-97550000D02*
X186437500Y-97550000D01*
X185037500Y-97950000D02*
X186437500Y-97950000D01*
X185037500Y-97950000D02*
X185037500Y-93150000D01*
X185387500Y-94950000D02*
X186137500Y-94950000D01*
X186437500Y-97950000D02*
X186437500Y-93150000D01*
%TO.C,D37*%
X185387500Y-83643750D02*
X186137500Y-83643750D01*
X186137500Y-83043750D02*
X185737500Y-83643750D01*
X185037500Y-81243750D02*
X186437500Y-81243750D01*
X185037500Y-85843750D02*
X186437500Y-85843750D01*
X185037500Y-85443750D02*
X186437500Y-85443750D01*
X185737500Y-83643750D02*
X185387500Y-83043750D01*
X185737500Y-83643750D02*
X185737500Y-83943750D01*
X185737500Y-83043750D02*
X185737500Y-82743750D01*
X185037500Y-85643750D02*
X186437500Y-85643750D01*
X185037500Y-86043750D02*
X186437500Y-86043750D01*
X185037500Y-86043750D02*
X185037500Y-81243750D01*
X185387500Y-83043750D02*
X186137500Y-83043750D01*
X186437500Y-86043750D02*
X186437500Y-81243750D01*
D12*
%TO.C,JPc3a1*%
X180069750Y-65373125D02*
X180069750Y-63373125D01*
X182869750Y-65373125D02*
X180069750Y-65373125D01*
X182869750Y-63373125D02*
X182869750Y-65373125D01*
X180069750Y-63373125D02*
X182869750Y-63373125D01*
D11*
%TO.C,K34*%
X126364999Y-99377501D02*
G75*
G03*
X123825001Y-97394329I-2539999J-634999D01*
G01*
X130175000Y-95567500D02*
G75*
G03*
X127635000Y-93027500I-2540000J0D01*
G01*
X116825000Y-107012500D02*
X116825000Y-106012500D01*
X127635000Y-93027500D02*
X118745000Y-93027500D01*
X130175000Y-95567500D02*
X130175000Y-95948500D01*
X116825000Y-93012500D02*
X117825000Y-93012500D01*
X129794000Y-99377500D02*
X130175000Y-99377500D01*
X121539000Y-97472500D02*
X123825000Y-97472500D01*
X129825000Y-93012500D02*
X130825000Y-93012500D01*
X118745000Y-96456500D02*
X118745000Y-96837500D01*
X116825000Y-93408500D02*
X116825000Y-93012500D01*
X130825000Y-93012500D02*
X130825000Y-94012500D01*
X118745000Y-93027500D02*
X118745000Y-93408500D01*
X130175000Y-99377500D02*
X130175000Y-98996500D01*
X130825000Y-107012500D02*
X129825000Y-107012500D01*
X130825000Y-106012500D02*
X130825000Y-107012500D01*
X126365000Y-99377500D02*
X128016000Y-99377500D01*
X117825000Y-107012500D02*
X116825000Y-107012500D01*
D13*
%TO.C,D25*%
X151559375Y-87806250D02*
X150809375Y-87806250D01*
X150809375Y-88406250D02*
X151209375Y-87806250D01*
X151909375Y-90206250D02*
X150509375Y-90206250D01*
X151909375Y-85606250D02*
X150509375Y-85606250D01*
X151909375Y-86006250D02*
X150509375Y-86006250D01*
X151209375Y-87806250D02*
X151559375Y-88406250D01*
X151209375Y-87806250D02*
X151209375Y-87506250D01*
X151209375Y-88406250D02*
X151209375Y-88706250D01*
X151909375Y-85806250D02*
X150509375Y-85806250D01*
X151909375Y-85406250D02*
X150509375Y-85406250D01*
X151909375Y-85406250D02*
X151909375Y-90206250D01*
X151559375Y-88406250D02*
X150809375Y-88406250D01*
X150509375Y-85406250D02*
X150509375Y-90206250D01*
%TO.C,D36*%
X172990625Y-99712500D02*
X172240625Y-99712500D01*
X172240625Y-100312500D02*
X172640625Y-99712500D01*
X173340625Y-102112500D02*
X171940625Y-102112500D01*
X173340625Y-97512500D02*
X171940625Y-97512500D01*
X173340625Y-97912500D02*
X171940625Y-97912500D01*
X172640625Y-99712500D02*
X172990625Y-100312500D01*
X172640625Y-99712500D02*
X172640625Y-99412500D01*
X172640625Y-100312500D02*
X172640625Y-100612500D01*
X173340625Y-97712500D02*
X171940625Y-97712500D01*
X173340625Y-97312500D02*
X171940625Y-97312500D01*
X173340625Y-97312500D02*
X173340625Y-102112500D01*
X172990625Y-100312500D02*
X172240625Y-100312500D01*
X171940625Y-97312500D02*
X171940625Y-102112500D01*
%TO.C,D26*%
X170609375Y-99712500D02*
X169859375Y-99712500D01*
X169859375Y-100312500D02*
X170259375Y-99712500D01*
X170959375Y-102112500D02*
X169559375Y-102112500D01*
X170959375Y-97512500D02*
X169559375Y-97512500D01*
X170959375Y-97912500D02*
X169559375Y-97912500D01*
X170259375Y-99712500D02*
X170609375Y-100312500D01*
X170259375Y-99712500D02*
X170259375Y-99412500D01*
X170259375Y-100312500D02*
X170259375Y-100612500D01*
X170959375Y-97712500D02*
X169559375Y-97712500D01*
X170959375Y-97312500D02*
X169559375Y-97312500D01*
X170959375Y-97312500D02*
X170959375Y-102112500D01*
X170609375Y-100312500D02*
X169859375Y-100312500D01*
X169559375Y-97312500D02*
X169559375Y-102112500D01*
D12*
%TO.C,SWbat1*%
X126947735Y-134727044D02*
X128647735Y-134727044D01*
X127147735Y-138867044D02*
X127347735Y-139077044D01*
X128447735Y-138867044D02*
X128447735Y-137577044D01*
X128447735Y-138867044D02*
X128247735Y-139077044D01*
X125097735Y-135777044D02*
X125097735Y-136567044D01*
X127347735Y-139077044D02*
X128247735Y-139077044D01*
X125697735Y-137577044D02*
X131397735Y-137577044D01*
X129947735Y-134727044D02*
X130147735Y-134727044D01*
X131997735Y-136567044D02*
X131997735Y-135777044D01*
X127147735Y-137577044D02*
X127147735Y-138867044D01*
D13*
%TO.C,D20*%
X57500000Y-97331250D02*
X56750000Y-97331250D01*
X56750000Y-97931250D02*
X57150000Y-97331250D01*
X57850000Y-99731250D02*
X56450000Y-99731250D01*
X57850000Y-95131250D02*
X56450000Y-95131250D01*
X57850000Y-95531250D02*
X56450000Y-95531250D01*
X57150000Y-97331250D02*
X57500000Y-97931250D01*
X57150000Y-97331250D02*
X57150000Y-97031250D01*
X57150000Y-97931250D02*
X57150000Y-98231250D01*
X57850000Y-95331250D02*
X56450000Y-95331250D01*
X57850000Y-94931250D02*
X56450000Y-94931250D01*
X57850000Y-94931250D02*
X57850000Y-99731250D01*
X57500000Y-97931250D02*
X56750000Y-97931250D01*
X56450000Y-94931250D02*
X56450000Y-99731250D01*
D11*
%TO.C,K16*%
X161290001Y-71278751D02*
G75*
G03*
X159306829Y-73818749I634999J-2539999D01*
G01*
X157480000Y-67468750D02*
G75*
G03*
X154940000Y-70008750I0J-2540000D01*
G01*
X167925000Y-66818750D02*
X168925000Y-66818750D01*
X168925000Y-80818750D02*
X167925000Y-80818750D01*
X157480000Y-67468750D02*
X157861000Y-67468750D01*
X168925000Y-79818750D02*
X168925000Y-80818750D01*
X161290000Y-67849750D02*
X161290000Y-67468750D01*
X154925000Y-66818750D02*
X155925000Y-66818750D01*
X154940000Y-70008750D02*
X154940000Y-78898750D01*
X159385000Y-76104750D02*
X159385000Y-73818750D01*
X155321000Y-80818750D02*
X154925000Y-80818750D01*
X158369000Y-78898750D02*
X158750000Y-78898750D01*
X154925000Y-67818750D02*
X154925000Y-66818750D01*
X161290000Y-67468750D02*
X160909000Y-67468750D01*
X168925000Y-66818750D02*
X168925000Y-67818750D01*
X154940000Y-78898750D02*
X155321000Y-78898750D01*
X154925000Y-80818750D02*
X154925000Y-79818750D01*
X161290000Y-71278750D02*
X161290000Y-69627750D01*
D13*
%TO.C,D27*%
X175862500Y-90787500D02*
X176612500Y-90787500D01*
X176612500Y-90187500D02*
X176212500Y-90787500D01*
X175512500Y-88387500D02*
X176912500Y-88387500D01*
X175512500Y-92987500D02*
X176912500Y-92987500D01*
X175512500Y-92587500D02*
X176912500Y-92587500D01*
X176212500Y-90787500D02*
X175862500Y-90187500D01*
X176212500Y-90787500D02*
X176212500Y-91087500D01*
X176212500Y-90187500D02*
X176212500Y-89887500D01*
X175512500Y-92787500D02*
X176912500Y-92787500D01*
X175512500Y-93187500D02*
X176912500Y-93187500D01*
X175512500Y-93187500D02*
X175512500Y-88387500D01*
X175862500Y-90187500D02*
X176612500Y-90187500D01*
X176912500Y-93187500D02*
X176912500Y-88387500D01*
%TO.C,D44*%
X132509375Y-125906250D02*
X131759375Y-125906250D01*
X131759375Y-126506250D02*
X132159375Y-125906250D01*
X132859375Y-128306250D02*
X131459375Y-128306250D01*
X132859375Y-123706250D02*
X131459375Y-123706250D01*
X132859375Y-124106250D02*
X131459375Y-124106250D01*
X132159375Y-125906250D02*
X132509375Y-126506250D01*
X132159375Y-125906250D02*
X132159375Y-125606250D01*
X132159375Y-126506250D02*
X132159375Y-126806250D01*
X132859375Y-123906250D02*
X131459375Y-123906250D01*
X132859375Y-123506250D02*
X131459375Y-123506250D01*
X132859375Y-123506250D02*
X132859375Y-128306250D01*
X132509375Y-126506250D02*
X131759375Y-126506250D01*
X131459375Y-123506250D02*
X131459375Y-128306250D01*
D11*
%TO.C,K2*%
X88264999Y-42227501D02*
G75*
G03*
X85725001Y-40244329I-2539999J-634999D01*
G01*
X92075000Y-38417500D02*
G75*
G03*
X89535000Y-35877500I-2540000J0D01*
G01*
X78725000Y-49862500D02*
X78725000Y-48862500D01*
X89535000Y-35877500D02*
X80645000Y-35877500D01*
X92075000Y-38417500D02*
X92075000Y-38798500D01*
X78725000Y-35862500D02*
X79725000Y-35862500D01*
X91694000Y-42227500D02*
X92075000Y-42227500D01*
X83439000Y-40322500D02*
X85725000Y-40322500D01*
X91725000Y-35862500D02*
X92725000Y-35862500D01*
X80645000Y-39306500D02*
X80645000Y-39687500D01*
X78725000Y-36258500D02*
X78725000Y-35862500D01*
X92725000Y-35862500D02*
X92725000Y-36862500D01*
X80645000Y-35877500D02*
X80645000Y-36258500D01*
X92075000Y-42227500D02*
X92075000Y-41846500D01*
X92725000Y-49862500D02*
X91725000Y-49862500D01*
X92725000Y-48862500D02*
X92725000Y-49862500D01*
X88265000Y-42227500D02*
X89916000Y-42227500D01*
X79725000Y-49862500D02*
X78725000Y-49862500D01*
D12*
%TO.C,JPresa0*%
X180069750Y-50133125D02*
X180069750Y-48133125D01*
X182869750Y-50133125D02*
X180069750Y-50133125D01*
X182869750Y-48133125D02*
X182869750Y-50133125D01*
X180069750Y-48133125D02*
X182869750Y-48133125D01*
%TO.C,K37*%
X193750000Y-90356250D02*
X193750000Y-85856250D01*
X187250000Y-85856250D02*
X187250000Y-90356250D01*
X191250000Y-84606250D02*
X189750000Y-84606250D01*
X189750000Y-91606250D02*
X191250000Y-91606250D01*
%TO.C,K27*%
X184225000Y-97500000D02*
X184225000Y-93000000D01*
X177725000Y-93000000D02*
X177725000Y-97500000D01*
X181725000Y-91750000D02*
X180225000Y-91750000D01*
X180225000Y-98750000D02*
X181725000Y-98750000D01*
D13*
%TO.C,D4*%
X132509375Y-44943750D02*
X131759375Y-44943750D01*
X131759375Y-45543750D02*
X132159375Y-44943750D01*
X132859375Y-47343750D02*
X131459375Y-47343750D01*
X132859375Y-42743750D02*
X131459375Y-42743750D01*
X132859375Y-43143750D02*
X131459375Y-43143750D01*
X132159375Y-44943750D02*
X132509375Y-45543750D01*
X132159375Y-44943750D02*
X132159375Y-44643750D01*
X132159375Y-45543750D02*
X132159375Y-45843750D01*
X132859375Y-42943750D02*
X131459375Y-42943750D01*
X132859375Y-42543750D02*
X131459375Y-42543750D01*
X132859375Y-42543750D02*
X132859375Y-47343750D01*
X132509375Y-45543750D02*
X131759375Y-45543750D01*
X131459375Y-42543750D02*
X131459375Y-47343750D01*
D11*
%TO.C,K44*%
X126364999Y-123190001D02*
G75*
G03*
X123825001Y-121206829I-2539999J-634999D01*
G01*
X130175000Y-119380000D02*
G75*
G03*
X127635000Y-116840000I-2540000J0D01*
G01*
X116825000Y-130825000D02*
X116825000Y-129825000D01*
X127635000Y-116840000D02*
X118745000Y-116840000D01*
X130175000Y-119380000D02*
X130175000Y-119761000D01*
X116825000Y-116825000D02*
X117825000Y-116825000D01*
X129794000Y-123190000D02*
X130175000Y-123190000D01*
X121539000Y-121285000D02*
X123825000Y-121285000D01*
X129825000Y-116825000D02*
X130825000Y-116825000D01*
X118745000Y-120269000D02*
X118745000Y-120650000D01*
X116825000Y-117221000D02*
X116825000Y-116825000D01*
X130825000Y-116825000D02*
X130825000Y-117825000D01*
X118745000Y-116840000D02*
X118745000Y-117221000D01*
X130175000Y-123190000D02*
X130175000Y-122809000D01*
X130825000Y-130825000D02*
X129825000Y-130825000D01*
X130825000Y-129825000D02*
X130825000Y-130825000D01*
X126365000Y-123190000D02*
X128016000Y-123190000D01*
X117825000Y-130825000D02*
X116825000Y-130825000D01*
D13*
%TO.C,D41*%
X75359375Y-133050000D02*
X74609375Y-133050000D01*
X74609375Y-133650000D02*
X75009375Y-133050000D01*
X75709375Y-135450000D02*
X74309375Y-135450000D01*
X75709375Y-130850000D02*
X74309375Y-130850000D01*
X75709375Y-131250000D02*
X74309375Y-131250000D01*
X75009375Y-133050000D02*
X75359375Y-133650000D01*
X75009375Y-133050000D02*
X75009375Y-132750000D01*
X75009375Y-133650000D02*
X75009375Y-133950000D01*
X75709375Y-131050000D02*
X74309375Y-131050000D01*
X75709375Y-130650000D02*
X74309375Y-130650000D01*
X75709375Y-130650000D02*
X75709375Y-135450000D01*
X75359375Y-133650000D02*
X74609375Y-133650000D01*
X74309375Y-130650000D02*
X74309375Y-135450000D01*
D11*
%TO.C,K4*%
X126364999Y-42227501D02*
G75*
G03*
X123825001Y-40244329I-2539999J-634999D01*
G01*
X130175000Y-38417500D02*
G75*
G03*
X127635000Y-35877500I-2540000J0D01*
G01*
X116825000Y-49862500D02*
X116825000Y-48862500D01*
X127635000Y-35877500D02*
X118745000Y-35877500D01*
X130175000Y-38417500D02*
X130175000Y-38798500D01*
X116825000Y-35862500D02*
X117825000Y-35862500D01*
X129794000Y-42227500D02*
X130175000Y-42227500D01*
X121539000Y-40322500D02*
X123825000Y-40322500D01*
X129825000Y-35862500D02*
X130825000Y-35862500D01*
X118745000Y-39306500D02*
X118745000Y-39687500D01*
X116825000Y-36258500D02*
X116825000Y-35862500D01*
X130825000Y-35862500D02*
X130825000Y-36862500D01*
X118745000Y-35877500D02*
X118745000Y-36258500D01*
X130175000Y-42227500D02*
X130175000Y-41846500D01*
X130825000Y-49862500D02*
X129825000Y-49862500D01*
X130825000Y-48862500D02*
X130825000Y-49862500D01*
X126365000Y-42227500D02*
X128016000Y-42227500D01*
X117825000Y-49862500D02*
X116825000Y-49862500D01*
%TO.C,K23*%
X107314999Y-75565001D02*
G75*
G03*
X104775001Y-73581829I-2539999J-634999D01*
G01*
X111125000Y-71755000D02*
G75*
G03*
X108585000Y-69215000I-2540000J0D01*
G01*
X97775000Y-83200000D02*
X97775000Y-82200000D01*
X108585000Y-69215000D02*
X99695000Y-69215000D01*
X111125000Y-71755000D02*
X111125000Y-72136000D01*
X97775000Y-69200000D02*
X98775000Y-69200000D01*
X110744000Y-75565000D02*
X111125000Y-75565000D01*
X102489000Y-73660000D02*
X104775000Y-73660000D01*
X110775000Y-69200000D02*
X111775000Y-69200000D01*
X99695000Y-72644000D02*
X99695000Y-73025000D01*
X97775000Y-69596000D02*
X97775000Y-69200000D01*
X111775000Y-69200000D02*
X111775000Y-70200000D01*
X99695000Y-69215000D02*
X99695000Y-69596000D01*
X111125000Y-75565000D02*
X111125000Y-75184000D01*
X111775000Y-83200000D02*
X110775000Y-83200000D01*
X111775000Y-82200000D02*
X111775000Y-83200000D01*
X107315000Y-75565000D02*
X108966000Y-75565000D01*
X98775000Y-83200000D02*
X97775000Y-83200000D01*
D12*
%TO.C,JPr3a1*%
X192595750Y-68453125D02*
X192595750Y-70453125D01*
X189795750Y-68453125D02*
X192595750Y-68453125D01*
X189795750Y-70453125D02*
X189795750Y-68453125D01*
X192595750Y-70453125D02*
X189795750Y-70453125D01*
D11*
%TO.C,K30*%
X50164999Y-113665001D02*
G75*
G03*
X47625001Y-111681829I-2539999J-634999D01*
G01*
X53975000Y-109855000D02*
G75*
G03*
X51435000Y-107315000I-2540000J0D01*
G01*
X40625000Y-121300000D02*
X40625000Y-120300000D01*
X51435000Y-107315000D02*
X42545000Y-107315000D01*
X53975000Y-109855000D02*
X53975000Y-110236000D01*
X40625000Y-107300000D02*
X41625000Y-107300000D01*
X53594000Y-113665000D02*
X53975000Y-113665000D01*
X45339000Y-111760000D02*
X47625000Y-111760000D01*
X53625000Y-107300000D02*
X54625000Y-107300000D01*
X42545000Y-110744000D02*
X42545000Y-111125000D01*
X40625000Y-107696000D02*
X40625000Y-107300000D01*
X54625000Y-107300000D02*
X54625000Y-108300000D01*
X42545000Y-107315000D02*
X42545000Y-107696000D01*
X53975000Y-113665000D02*
X53975000Y-113284000D01*
X54625000Y-121300000D02*
X53625000Y-121300000D01*
X54625000Y-120300000D02*
X54625000Y-121300000D01*
X50165000Y-113665000D02*
X51816000Y-113665000D01*
X41625000Y-121300000D02*
X40625000Y-121300000D01*
%TO.C,K46*%
X170102115Y-128001423D02*
G75*
G03*
X166632411Y-128931127I-1270000J-2199704D01*
G01*
X171496672Y-133205981D02*
G75*
G03*
X168509196Y-134414098I-720074J-2517203D01*
G01*
X161214420Y-138285362D02*
X161714420Y-137419336D01*
X162187411Y-136630093D02*
X162517366Y-136820593D01*
X167433893Y-136432918D02*
X168576893Y-134453184D01*
X165157012Y-138344593D02*
X165486967Y-138535093D01*
X173211172Y-130236378D02*
X173401672Y-129906423D01*
X173401672Y-129906423D02*
X173071716Y-129715923D01*
X179472750Y-132661006D02*
X180338776Y-133161006D01*
X180338776Y-133161006D02*
X179838776Y-134027032D01*
X166632411Y-128931127D02*
X162187411Y-136630093D01*
X171496672Y-133205979D02*
X172322172Y-131776172D01*
X167714420Y-127027032D02*
X168214420Y-126161006D01*
X173338776Y-145285362D02*
X172472750Y-144785362D01*
X168214420Y-126161006D02*
X169080446Y-126661006D01*
X170102115Y-128001423D02*
X170432071Y-128191923D01*
X161557366Y-138483362D02*
X161214420Y-138285362D01*
X173838776Y-144419336D02*
X173338776Y-145285362D01*
%TO.C,K32*%
X88264999Y-99377501D02*
G75*
G03*
X85725001Y-97394329I-2539999J-634999D01*
G01*
X92075000Y-95567500D02*
G75*
G03*
X89535000Y-93027500I-2540000J0D01*
G01*
X78725000Y-107012500D02*
X78725000Y-106012500D01*
X89535000Y-93027500D02*
X80645000Y-93027500D01*
X92075000Y-95567500D02*
X92075000Y-95948500D01*
X78725000Y-93012500D02*
X79725000Y-93012500D01*
X91694000Y-99377500D02*
X92075000Y-99377500D01*
X83439000Y-97472500D02*
X85725000Y-97472500D01*
X91725000Y-93012500D02*
X92725000Y-93012500D01*
X80645000Y-96456500D02*
X80645000Y-96837500D01*
X78725000Y-93408500D02*
X78725000Y-93012500D01*
X92725000Y-93012500D02*
X92725000Y-94012500D01*
X80645000Y-93027500D02*
X80645000Y-93408500D01*
X92075000Y-99377500D02*
X92075000Y-98996500D01*
X92725000Y-107012500D02*
X91725000Y-107012500D01*
X92725000Y-106012500D02*
X92725000Y-107012500D01*
X88265000Y-99377500D02*
X89916000Y-99377500D01*
X79725000Y-107012500D02*
X78725000Y-107012500D01*
D12*
%TO.C,JPr1a1*%
X192558750Y-63373125D02*
X192558750Y-65373125D01*
X189758750Y-63373125D02*
X192558750Y-63373125D01*
X189758750Y-65373125D02*
X189758750Y-63373125D01*
X192558750Y-65373125D02*
X189758750Y-65373125D01*
D11*
%TO.C,K6*%
X161290001Y-47466251D02*
G75*
G03*
X159306829Y-50006249I634999J-2539999D01*
G01*
X157480000Y-43656250D02*
G75*
G03*
X154940000Y-46196250I0J-2540000D01*
G01*
X167925000Y-43006250D02*
X168925000Y-43006250D01*
X168925000Y-57006250D02*
X167925000Y-57006250D01*
X157480000Y-43656250D02*
X157861000Y-43656250D01*
X168925000Y-56006250D02*
X168925000Y-57006250D01*
X161290000Y-44037250D02*
X161290000Y-43656250D01*
X154925000Y-43006250D02*
X155925000Y-43006250D01*
X154940000Y-46196250D02*
X154940000Y-55086250D01*
X159385000Y-52292250D02*
X159385000Y-50006250D01*
X155321000Y-57006250D02*
X154925000Y-57006250D01*
X158369000Y-55086250D02*
X158750000Y-55086250D01*
X154925000Y-44006250D02*
X154925000Y-43006250D01*
X161290000Y-43656250D02*
X160909000Y-43656250D01*
X168925000Y-43006250D02*
X168925000Y-44006250D01*
X154940000Y-55086250D02*
X155321000Y-55086250D01*
X154925000Y-57006250D02*
X154925000Y-56006250D01*
X161290000Y-47466250D02*
X161290000Y-45815250D01*
D13*
%TO.C,D13*%
X113459375Y-59231250D02*
X112709375Y-59231250D01*
X112709375Y-59831250D02*
X113109375Y-59231250D01*
X113809375Y-61631250D02*
X112409375Y-61631250D01*
X113809375Y-57031250D02*
X112409375Y-57031250D01*
X113809375Y-57431250D02*
X112409375Y-57431250D01*
X113109375Y-59231250D02*
X113459375Y-59831250D01*
X113109375Y-59231250D02*
X113109375Y-58931250D01*
X113109375Y-59831250D02*
X113109375Y-60131250D01*
X113809375Y-57231250D02*
X112409375Y-57231250D01*
X113809375Y-56831250D02*
X112409375Y-56831250D01*
X113809375Y-56831250D02*
X113809375Y-61631250D01*
X113459375Y-59831250D02*
X112709375Y-59831250D01*
X112409375Y-56831250D02*
X112409375Y-61631250D01*
%TO.C,D31*%
X75359375Y-114000000D02*
X74609375Y-114000000D01*
X74609375Y-114600000D02*
X75009375Y-114000000D01*
X75709375Y-116400000D02*
X74309375Y-116400000D01*
X75709375Y-111800000D02*
X74309375Y-111800000D01*
X75709375Y-112200000D02*
X74309375Y-112200000D01*
X75009375Y-114000000D02*
X75359375Y-114600000D01*
X75009375Y-114000000D02*
X75009375Y-113700000D01*
X75009375Y-114600000D02*
X75009375Y-114900000D01*
X75709375Y-112000000D02*
X74309375Y-112000000D01*
X75709375Y-111600000D02*
X74309375Y-111600000D01*
X75709375Y-111600000D02*
X75709375Y-116400000D01*
X75359375Y-114600000D02*
X74609375Y-114600000D01*
X74309375Y-111600000D02*
X74309375Y-116400000D01*
%TO.C,D35*%
X151559375Y-106856250D02*
X150809375Y-106856250D01*
X150809375Y-107456250D02*
X151209375Y-106856250D01*
X151909375Y-109256250D02*
X150509375Y-109256250D01*
X151909375Y-104656250D02*
X150509375Y-104656250D01*
X151909375Y-105056250D02*
X150509375Y-105056250D01*
X151209375Y-106856250D02*
X151559375Y-107456250D01*
X151209375Y-106856250D02*
X151209375Y-106556250D01*
X151209375Y-107456250D02*
X151209375Y-107756250D01*
X151909375Y-104856250D02*
X150509375Y-104856250D01*
X151909375Y-104456250D02*
X150509375Y-104456250D01*
X151909375Y-104456250D02*
X151909375Y-109256250D01*
X151559375Y-107456250D02*
X150809375Y-107456250D01*
X150509375Y-104456250D02*
X150509375Y-109256250D01*
%TO.C,D3*%
X113459375Y-40181250D02*
X112709375Y-40181250D01*
X112709375Y-40781250D02*
X113109375Y-40181250D01*
X113809375Y-42581250D02*
X112409375Y-42581250D01*
X113809375Y-37981250D02*
X112409375Y-37981250D01*
X113809375Y-38381250D02*
X112409375Y-38381250D01*
X113109375Y-40181250D02*
X113459375Y-40781250D01*
X113109375Y-40181250D02*
X113109375Y-39881250D01*
X113109375Y-40781250D02*
X113109375Y-41081250D01*
X113809375Y-38181250D02*
X112409375Y-38181250D01*
X113809375Y-37781250D02*
X112409375Y-37781250D01*
X113809375Y-37781250D02*
X113809375Y-42581250D01*
X113459375Y-40781250D02*
X112709375Y-40781250D01*
X112409375Y-37781250D02*
X112409375Y-42581250D01*
%TO.C,D10*%
X56309375Y-78281250D02*
X55559375Y-78281250D01*
X55559375Y-78881250D02*
X55959375Y-78281250D01*
X56659375Y-80681250D02*
X55259375Y-80681250D01*
X56659375Y-76081250D02*
X55259375Y-76081250D01*
X56659375Y-76481250D02*
X55259375Y-76481250D01*
X55959375Y-78281250D02*
X56309375Y-78881250D01*
X55959375Y-78281250D02*
X55959375Y-77981250D01*
X55959375Y-78881250D02*
X55959375Y-79181250D01*
X56659375Y-76281250D02*
X55259375Y-76281250D01*
X56659375Y-75881250D02*
X55259375Y-75881250D01*
X56659375Y-75881250D02*
X56659375Y-80681250D01*
X56309375Y-78881250D02*
X55559375Y-78881250D01*
X55259375Y-75881250D02*
X55259375Y-80681250D01*
D12*
%TO.C,JPc5a1*%
X180069750Y-70453125D02*
X180069750Y-68453125D01*
X182869750Y-70453125D02*
X180069750Y-70453125D01*
X182869750Y-68453125D02*
X182869750Y-70453125D01*
X180069750Y-68453125D02*
X182869750Y-68453125D01*
D14*
%TO.C,U1*%
X192645750Y-45323125D02*
X195185750Y-45323125D01*
X192645750Y-42783125D02*
X192645750Y-45323125D01*
X177405750Y-73263125D02*
X177405750Y-42783125D01*
X195185750Y-73263125D02*
X177405750Y-73263125D01*
X195185750Y-42783125D02*
X195185750Y-73263125D01*
X177405750Y-42783125D02*
X195185750Y-42783125D01*
%TD*%
D15*
%TO.C,U1*%
X178675750Y-44053125D03*
X193915750Y-71993125D03*
X178675750Y-46593125D03*
X178675750Y-49133125D03*
X178675750Y-51673125D03*
X178675750Y-54213125D03*
X178675750Y-56753125D03*
X178675750Y-59293125D03*
X178675750Y-61833125D03*
X178675750Y-64373125D03*
X178675750Y-66913125D03*
X178675750Y-69453125D03*
X178675750Y-71993125D03*
X193915750Y-69453125D03*
X193915750Y-66913125D03*
X193915750Y-64373125D03*
X193915750Y-61833125D03*
X193915750Y-59293125D03*
X193915750Y-56753125D03*
X193915750Y-54213125D03*
X193915750Y-51673125D03*
X193915750Y-49133125D03*
X193915750Y-46593125D03*
D16*
X193915750Y-44053125D03*
%TD*%
M02*
