%TF.GenerationSoftware,KiCad,Pcbnew,6.0.4*%
%TF.CreationDate,2022-04-20T09:09:29+02:00*%
%TF.ProjectId,mykeeb,6d796b65-6562-42e6-9b69-6361645f7063,rev?*%
%TF.SameCoordinates,Original*%
%TF.FileFunction,Legend,Bot*%
%TF.FilePolarity,Positive*%
%FSLAX46Y46*%
G04 Gerber Fmt 4.6, Leading zero omitted, Abs format (unit mm)*
G04 Created by KiCad (PCBNEW 6.0.4) date 2022-04-20 09:09:29*
%MOMM*%
%LPD*%
G01*
G04 APERTURE LIST*
%ADD10C,0.500000*%
%ADD11C,0.150000*%
%ADD12C,0.120000*%
%ADD13C,1.752600*%
%ADD14R,1.752600X1.752600*%
G04 APERTURE END LIST*
D10*
X172592857Y-86380285D02*
X170307142Y-86380285D01*
X171450000Y-87523142D02*
X171450000Y-85237428D01*
X154394857Y-114768285D02*
X152109142Y-114768285D01*
X153252000Y-115911142D02*
X153252000Y-113625428D01*
D11*
%TO.C,K11*%
X70485000Y-80803750D02*
G75*
G03*
X73025000Y-78263750I0J2540000D01*
G01*
X66675000Y-76358750D02*
G75*
G03*
X69139162Y-74434790I0J2540000D01*
G01*
X73025000Y-74834750D02*
X73025000Y-74453750D01*
X73025000Y-74453750D02*
X72644000Y-74453750D01*
X59675000Y-66818750D02*
X60675000Y-66818750D01*
X72675000Y-66818750D02*
X73675000Y-66818750D01*
X61595000Y-76993750D02*
X61595000Y-77374750D01*
X66675000Y-76358750D02*
X64389000Y-76358750D01*
X59675000Y-80818750D02*
X59675000Y-80422750D01*
X61595000Y-80422750D02*
X61595000Y-80803750D01*
X73675000Y-66818750D02*
X73675000Y-67818750D01*
X73025000Y-78263750D02*
X73025000Y-77882750D01*
X61595000Y-80803750D02*
X70485000Y-80803750D01*
X59675000Y-67818750D02*
X59675000Y-66818750D01*
X60675000Y-80818750D02*
X59675000Y-80818750D01*
X70866000Y-74453750D02*
X69215000Y-74453750D01*
X73675000Y-79818750D02*
X73675000Y-80818750D01*
X73675000Y-80818750D02*
X72675000Y-80818750D01*
%TO.C,K10*%
X51435000Y-83185000D02*
G75*
G03*
X53975000Y-80645000I0J2540000D01*
G01*
X47625000Y-78740000D02*
G75*
G03*
X50089162Y-76816040I0J2540000D01*
G01*
X53975000Y-77216000D02*
X53975000Y-76835000D01*
X53975000Y-76835000D02*
X53594000Y-76835000D01*
X40625000Y-69200000D02*
X41625000Y-69200000D01*
X53625000Y-69200000D02*
X54625000Y-69200000D01*
X42545000Y-79375000D02*
X42545000Y-79756000D01*
X47625000Y-78740000D02*
X45339000Y-78740000D01*
X40625000Y-83200000D02*
X40625000Y-82804000D01*
X42545000Y-82804000D02*
X42545000Y-83185000D01*
X54625000Y-69200000D02*
X54625000Y-70200000D01*
X53975000Y-80645000D02*
X53975000Y-80264000D01*
X42545000Y-83185000D02*
X51435000Y-83185000D01*
X40625000Y-70200000D02*
X40625000Y-69200000D01*
X41625000Y-83200000D02*
X40625000Y-83200000D01*
X51816000Y-76835000D02*
X50165000Y-76835000D01*
X54625000Y-82200000D02*
X54625000Y-83200000D01*
X54625000Y-83200000D02*
X53625000Y-83200000D01*
%TO.C,K31*%
X70485000Y-118903750D02*
G75*
G03*
X73025000Y-116363750I0J2540000D01*
G01*
X66675000Y-114458750D02*
G75*
G03*
X69139162Y-112534790I0J2540000D01*
G01*
X73025000Y-112934750D02*
X73025000Y-112553750D01*
X73025000Y-112553750D02*
X72644000Y-112553750D01*
X59675000Y-104918750D02*
X60675000Y-104918750D01*
X72675000Y-104918750D02*
X73675000Y-104918750D01*
X61595000Y-115093750D02*
X61595000Y-115474750D01*
X66675000Y-114458750D02*
X64389000Y-114458750D01*
X59675000Y-118918750D02*
X59675000Y-118522750D01*
X61595000Y-118522750D02*
X61595000Y-118903750D01*
X73675000Y-104918750D02*
X73675000Y-105918750D01*
X73025000Y-116363750D02*
X73025000Y-115982750D01*
X61595000Y-118903750D02*
X70485000Y-118903750D01*
X59675000Y-105918750D02*
X59675000Y-104918750D01*
X60675000Y-118918750D02*
X59675000Y-118918750D01*
X70866000Y-112553750D02*
X69215000Y-112553750D01*
X73675000Y-117918750D02*
X73675000Y-118918750D01*
X73675000Y-118918750D02*
X72675000Y-118918750D01*
%TO.C,K24*%
X127635000Y-87947500D02*
G75*
G03*
X130175000Y-85407500I0J2540000D01*
G01*
X123825000Y-83502500D02*
G75*
G03*
X126289162Y-81578540I0J2540000D01*
G01*
X130175000Y-81978500D02*
X130175000Y-81597500D01*
X130175000Y-81597500D02*
X129794000Y-81597500D01*
X116825000Y-73962500D02*
X117825000Y-73962500D01*
X129825000Y-73962500D02*
X130825000Y-73962500D01*
X118745000Y-84137500D02*
X118745000Y-84518500D01*
X123825000Y-83502500D02*
X121539000Y-83502500D01*
X116825000Y-87962500D02*
X116825000Y-87566500D01*
X118745000Y-87566500D02*
X118745000Y-87947500D01*
X130825000Y-73962500D02*
X130825000Y-74962500D01*
X130175000Y-85407500D02*
X130175000Y-85026500D01*
X118745000Y-87947500D02*
X127635000Y-87947500D01*
X116825000Y-74962500D02*
X116825000Y-73962500D01*
X117825000Y-87962500D02*
X116825000Y-87962500D01*
X128016000Y-81597500D02*
X126365000Y-81597500D01*
X130825000Y-86962500D02*
X130825000Y-87962500D01*
X130825000Y-87962500D02*
X129825000Y-87962500D01*
%TO.C,K45*%
X149832894Y-134850021D02*
G75*
G03*
X152943746Y-133053971I657401J2453450D01*
G01*
X147303168Y-129570382D02*
G75*
G03*
X150181323Y-128349751I657400J2453452D01*
G01*
X147303168Y-129570382D02*
X145095061Y-128978721D01*
X155567856Y-121908363D02*
X156533782Y-122167183D01*
X139387354Y-132066677D02*
X139489846Y-131684171D01*
X142752001Y-119509642D02*
X143010821Y-118543716D01*
X153831237Y-129741812D02*
X153929847Y-129373794D01*
X143010821Y-118543716D02*
X143976746Y-118802535D01*
X151844413Y-128815004D02*
X150249670Y-128387693D01*
X142231914Y-128868944D02*
X142133304Y-129236961D01*
X153929847Y-129373794D02*
X153561829Y-129275184D01*
X152943746Y-133053971D02*
X153042356Y-132685953D01*
X152910315Y-135690144D02*
X151944390Y-135431325D01*
X153169135Y-134724218D02*
X152910315Y-135690144D01*
X141245814Y-132549121D02*
X149832894Y-134850022D01*
X141344424Y-132181103D02*
X141245814Y-132549121D01*
X140353280Y-132325497D02*
X139387354Y-132066677D01*
X156533782Y-122167183D02*
X156274963Y-123133108D01*
%TO.C,K41*%
X70485000Y-137953750D02*
G75*
G03*
X73025000Y-135413750I0J2540000D01*
G01*
X66675000Y-133508750D02*
G75*
G03*
X69139162Y-131584790I0J2540000D01*
G01*
X73025000Y-131984750D02*
X73025000Y-131603750D01*
X73025000Y-131603750D02*
X72644000Y-131603750D01*
X59675000Y-123968750D02*
X60675000Y-123968750D01*
X72675000Y-123968750D02*
X73675000Y-123968750D01*
X61595000Y-134143750D02*
X61595000Y-134524750D01*
X66675000Y-133508750D02*
X64389000Y-133508750D01*
X59675000Y-137968750D02*
X59675000Y-137572750D01*
X61595000Y-137572750D02*
X61595000Y-137953750D01*
X73675000Y-123968750D02*
X73675000Y-124968750D01*
X73025000Y-135413750D02*
X73025000Y-135032750D01*
X61595000Y-137953750D02*
X70485000Y-137953750D01*
X59675000Y-124968750D02*
X59675000Y-123968750D01*
X60675000Y-137968750D02*
X59675000Y-137968750D01*
X70866000Y-131603750D02*
X69215000Y-131603750D01*
X73675000Y-136968750D02*
X73675000Y-137968750D01*
X73675000Y-137968750D02*
X72675000Y-137968750D01*
%TO.C,K20*%
X51435000Y-102235000D02*
G75*
G03*
X53975000Y-99695000I0J2540000D01*
G01*
X47625000Y-97790000D02*
G75*
G03*
X50089162Y-95866040I0J2540000D01*
G01*
X53975000Y-96266000D02*
X53975000Y-95885000D01*
X53975000Y-95885000D02*
X53594000Y-95885000D01*
X40625000Y-88250000D02*
X41625000Y-88250000D01*
X53625000Y-88250000D02*
X54625000Y-88250000D01*
X42545000Y-98425000D02*
X42545000Y-98806000D01*
X47625000Y-97790000D02*
X45339000Y-97790000D01*
X40625000Y-102250000D02*
X40625000Y-101854000D01*
X42545000Y-101854000D02*
X42545000Y-102235000D01*
X54625000Y-88250000D02*
X54625000Y-89250000D01*
X53975000Y-99695000D02*
X53975000Y-99314000D01*
X42545000Y-102235000D02*
X51435000Y-102235000D01*
X40625000Y-89250000D02*
X40625000Y-88250000D01*
X41625000Y-102250000D02*
X40625000Y-102250000D01*
X51816000Y-95885000D02*
X50165000Y-95885000D01*
X54625000Y-101250000D02*
X54625000Y-102250000D01*
X54625000Y-102250000D02*
X53625000Y-102250000D01*
%TO.C,K21*%
X70485000Y-99853750D02*
G75*
G03*
X73025000Y-97313750I0J2540000D01*
G01*
X66675000Y-95408750D02*
G75*
G03*
X69139162Y-93484790I0J2540000D01*
G01*
X73025000Y-93884750D02*
X73025000Y-93503750D01*
X73025000Y-93503750D02*
X72644000Y-93503750D01*
X59675000Y-85868750D02*
X60675000Y-85868750D01*
X72675000Y-85868750D02*
X73675000Y-85868750D01*
X61595000Y-96043750D02*
X61595000Y-96424750D01*
X66675000Y-95408750D02*
X64389000Y-95408750D01*
X59675000Y-99868750D02*
X59675000Y-99472750D01*
X61595000Y-99472750D02*
X61595000Y-99853750D01*
X73675000Y-85868750D02*
X73675000Y-86868750D01*
X73025000Y-97313750D02*
X73025000Y-96932750D01*
X61595000Y-99853750D02*
X70485000Y-99853750D01*
X59675000Y-86868750D02*
X59675000Y-85868750D01*
X60675000Y-99868750D02*
X59675000Y-99868750D01*
X70866000Y-93503750D02*
X69215000Y-93503750D01*
X73675000Y-98868750D02*
X73675000Y-99868750D01*
X73675000Y-99868750D02*
X72675000Y-99868750D01*
%TO.C,K13*%
X108585000Y-64135000D02*
G75*
G03*
X111125000Y-61595000I0J2540000D01*
G01*
X104775000Y-59690000D02*
G75*
G03*
X107239162Y-57766040I0J2540000D01*
G01*
X111125000Y-58166000D02*
X111125000Y-57785000D01*
X111125000Y-57785000D02*
X110744000Y-57785000D01*
X97775000Y-50150000D02*
X98775000Y-50150000D01*
X110775000Y-50150000D02*
X111775000Y-50150000D01*
X99695000Y-60325000D02*
X99695000Y-60706000D01*
X104775000Y-59690000D02*
X102489000Y-59690000D01*
X97775000Y-64150000D02*
X97775000Y-63754000D01*
X99695000Y-63754000D02*
X99695000Y-64135000D01*
X111775000Y-50150000D02*
X111775000Y-51150000D01*
X111125000Y-61595000D02*
X111125000Y-61214000D01*
X99695000Y-64135000D02*
X108585000Y-64135000D01*
X97775000Y-51150000D02*
X97775000Y-50150000D01*
X98775000Y-64150000D02*
X97775000Y-64150000D01*
X108966000Y-57785000D02*
X107315000Y-57785000D01*
X111775000Y-63150000D02*
X111775000Y-64150000D01*
X111775000Y-64150000D02*
X110775000Y-64150000D01*
%TO.C,K36*%
X182489905Y-123055141D02*
G75*
G03*
X185959609Y-122125437I1270000J2199704D01*
G01*
X181412848Y-117300659D02*
G75*
G03*
X184508855Y-116866541I1270000J2199705D01*
G01*
X187674109Y-119155836D02*
X187864609Y-118825880D01*
X187864609Y-118825880D02*
X187534654Y-118635380D01*
X180120670Y-105538776D02*
X180986696Y-106038776D01*
X191379000Y-112038776D02*
X192245026Y-112538776D01*
X176695939Y-115310585D02*
X176505439Y-115640540D01*
X181412848Y-117300659D02*
X179433114Y-116157659D01*
X173120670Y-117663132D02*
X173318670Y-117320186D01*
X174981439Y-118280186D02*
X174790939Y-118610141D01*
X192245026Y-112538776D02*
X191745026Y-113404802D01*
X185959609Y-122125437D02*
X186150109Y-121795481D01*
X174790939Y-118610141D02*
X182489905Y-123055141D01*
X179620670Y-106404802D02*
X180120670Y-105538776D01*
X173986696Y-118163132D02*
X173120670Y-117663132D01*
X185994860Y-117746380D02*
X184565053Y-116920880D01*
X185745026Y-123797106D02*
X185245026Y-124663132D01*
X185245026Y-124663132D02*
X184379000Y-124163132D01*
%TO.C,K40*%
X51435000Y-140335000D02*
G75*
G03*
X53975000Y-137795000I0J2540000D01*
G01*
X47625000Y-135890000D02*
G75*
G03*
X50089162Y-133966040I0J2540000D01*
G01*
X53975000Y-134366000D02*
X53975000Y-133985000D01*
X53975000Y-133985000D02*
X53594000Y-133985000D01*
X40625000Y-126350000D02*
X41625000Y-126350000D01*
X53625000Y-126350000D02*
X54625000Y-126350000D01*
X42545000Y-136525000D02*
X42545000Y-136906000D01*
X47625000Y-135890000D02*
X45339000Y-135890000D01*
X40625000Y-140350000D02*
X40625000Y-139954000D01*
X42545000Y-139954000D02*
X42545000Y-140335000D01*
X54625000Y-126350000D02*
X54625000Y-127350000D01*
X53975000Y-137795000D02*
X53975000Y-137414000D01*
X42545000Y-140335000D02*
X51435000Y-140335000D01*
X40625000Y-127350000D02*
X40625000Y-126350000D01*
X41625000Y-140350000D02*
X40625000Y-140350000D01*
X51816000Y-133985000D02*
X50165000Y-133985000D01*
X54625000Y-139350000D02*
X54625000Y-140350000D01*
X54625000Y-140350000D02*
X53625000Y-140350000D01*
%TO.C,K25*%
X146685000Y-92710000D02*
G75*
G03*
X149225000Y-90170000I0J2540000D01*
G01*
X142875000Y-88265000D02*
G75*
G03*
X145339162Y-86341040I0J2540000D01*
G01*
X149225000Y-86741000D02*
X149225000Y-86360000D01*
X149225000Y-86360000D02*
X148844000Y-86360000D01*
X135875000Y-78725000D02*
X136875000Y-78725000D01*
X148875000Y-78725000D02*
X149875000Y-78725000D01*
X137795000Y-88900000D02*
X137795000Y-89281000D01*
X142875000Y-88265000D02*
X140589000Y-88265000D01*
X135875000Y-92725000D02*
X135875000Y-92329000D01*
X137795000Y-92329000D02*
X137795000Y-92710000D01*
X149875000Y-78725000D02*
X149875000Y-79725000D01*
X149225000Y-90170000D02*
X149225000Y-89789000D01*
X137795000Y-92710000D02*
X146685000Y-92710000D01*
X135875000Y-79725000D02*
X135875000Y-78725000D01*
X136875000Y-92725000D02*
X135875000Y-92725000D01*
X147066000Y-86360000D02*
X145415000Y-86360000D01*
X149875000Y-91725000D02*
X149875000Y-92725000D01*
X149875000Y-92725000D02*
X148875000Y-92725000D01*
%TO.C,K7*%
X89535000Y-145097500D02*
G75*
G03*
X92075000Y-142557500I0J2540000D01*
G01*
X85725000Y-140652500D02*
G75*
G03*
X88189162Y-138728540I0J2540000D01*
G01*
X92075000Y-139128500D02*
X92075000Y-138747500D01*
X92075000Y-138747500D02*
X91694000Y-138747500D01*
X78725000Y-131112500D02*
X79725000Y-131112500D01*
X91725000Y-131112500D02*
X92725000Y-131112500D01*
X80645000Y-141287500D02*
X80645000Y-141668500D01*
X85725000Y-140652500D02*
X83439000Y-140652500D01*
X78725000Y-145112500D02*
X78725000Y-144716500D01*
X80645000Y-144716500D02*
X80645000Y-145097500D01*
X92725000Y-131112500D02*
X92725000Y-132112500D01*
X92075000Y-142557500D02*
X92075000Y-142176500D01*
X80645000Y-145097500D02*
X89535000Y-145097500D01*
X78725000Y-132112500D02*
X78725000Y-131112500D01*
X79725000Y-145112500D02*
X78725000Y-145112500D01*
X89916000Y-138747500D02*
X88265000Y-138747500D01*
X92725000Y-144112500D02*
X92725000Y-145112500D01*
X92725000Y-145112500D02*
X91725000Y-145112500D01*
%TO.C,K15*%
X146685000Y-73660000D02*
G75*
G03*
X149225000Y-71120000I0J2540000D01*
G01*
X142875000Y-69215000D02*
G75*
G03*
X145339162Y-67291040I0J2540000D01*
G01*
X149225000Y-67691000D02*
X149225000Y-67310000D01*
X149225000Y-67310000D02*
X148844000Y-67310000D01*
X135875000Y-59675000D02*
X136875000Y-59675000D01*
X148875000Y-59675000D02*
X149875000Y-59675000D01*
X137795000Y-69850000D02*
X137795000Y-70231000D01*
X142875000Y-69215000D02*
X140589000Y-69215000D01*
X135875000Y-73675000D02*
X135875000Y-73279000D01*
X137795000Y-73279000D02*
X137795000Y-73660000D01*
X149875000Y-59675000D02*
X149875000Y-60675000D01*
X149225000Y-71120000D02*
X149225000Y-70739000D01*
X137795000Y-73660000D02*
X146685000Y-73660000D01*
X135875000Y-60675000D02*
X135875000Y-59675000D01*
X136875000Y-73675000D02*
X135875000Y-73675000D01*
X147066000Y-67310000D02*
X145415000Y-67310000D01*
X149875000Y-72675000D02*
X149875000Y-73675000D01*
X149875000Y-73675000D02*
X148875000Y-73675000D01*
%TO.C,K5*%
X146685000Y-54610000D02*
G75*
G03*
X149225000Y-52070000I0J2540000D01*
G01*
X142875000Y-50165000D02*
G75*
G03*
X145339162Y-48241040I0J2540000D01*
G01*
X149225000Y-48641000D02*
X149225000Y-48260000D01*
X149225000Y-48260000D02*
X148844000Y-48260000D01*
X135875000Y-40625000D02*
X136875000Y-40625000D01*
X148875000Y-40625000D02*
X149875000Y-40625000D01*
X137795000Y-50800000D02*
X137795000Y-51181000D01*
X142875000Y-50165000D02*
X140589000Y-50165000D01*
X135875000Y-54625000D02*
X135875000Y-54229000D01*
X137795000Y-54229000D02*
X137795000Y-54610000D01*
X149875000Y-40625000D02*
X149875000Y-41625000D01*
X149225000Y-52070000D02*
X149225000Y-51689000D01*
X137795000Y-54610000D02*
X146685000Y-54610000D01*
X135875000Y-41625000D02*
X135875000Y-40625000D01*
X136875000Y-54625000D02*
X135875000Y-54625000D01*
X147066000Y-48260000D02*
X145415000Y-48260000D01*
X149875000Y-53625000D02*
X149875000Y-54625000D01*
X149875000Y-54625000D02*
X148875000Y-54625000D01*
%TO.C,K1*%
X70485000Y-61753750D02*
G75*
G03*
X73025000Y-59213750I0J2540000D01*
G01*
X66675000Y-57308750D02*
G75*
G03*
X69139162Y-55384790I0J2540000D01*
G01*
X73025000Y-55784750D02*
X73025000Y-55403750D01*
X73025000Y-55403750D02*
X72644000Y-55403750D01*
X59675000Y-47768750D02*
X60675000Y-47768750D01*
X72675000Y-47768750D02*
X73675000Y-47768750D01*
X61595000Y-57943750D02*
X61595000Y-58324750D01*
X66675000Y-57308750D02*
X64389000Y-57308750D01*
X59675000Y-61768750D02*
X59675000Y-61372750D01*
X61595000Y-61372750D02*
X61595000Y-61753750D01*
X73675000Y-47768750D02*
X73675000Y-48768750D01*
X73025000Y-59213750D02*
X73025000Y-58832750D01*
X61595000Y-61753750D02*
X70485000Y-61753750D01*
X59675000Y-48768750D02*
X59675000Y-47768750D01*
X60675000Y-61768750D02*
X59675000Y-61768750D01*
X70866000Y-55403750D02*
X69215000Y-55403750D01*
X73675000Y-60768750D02*
X73675000Y-61768750D01*
X73675000Y-61768750D02*
X72675000Y-61768750D01*
%TO.C,K0*%
X51435000Y-64135000D02*
G75*
G03*
X53975000Y-61595000I0J2540000D01*
G01*
X47625000Y-59690000D02*
G75*
G03*
X50089162Y-57766040I0J2540000D01*
G01*
X53975000Y-58166000D02*
X53975000Y-57785000D01*
X53975000Y-57785000D02*
X53594000Y-57785000D01*
X40625000Y-50150000D02*
X41625000Y-50150000D01*
X53625000Y-50150000D02*
X54625000Y-50150000D01*
X42545000Y-60325000D02*
X42545000Y-60706000D01*
X47625000Y-59690000D02*
X45339000Y-59690000D01*
X40625000Y-64150000D02*
X40625000Y-63754000D01*
X42545000Y-63754000D02*
X42545000Y-64135000D01*
X54625000Y-50150000D02*
X54625000Y-51150000D01*
X53975000Y-61595000D02*
X53975000Y-61214000D01*
X42545000Y-64135000D02*
X51435000Y-64135000D01*
X40625000Y-51150000D02*
X40625000Y-50150000D01*
X41625000Y-64150000D02*
X40625000Y-64150000D01*
X51816000Y-57785000D02*
X50165000Y-57785000D01*
X54625000Y-63150000D02*
X54625000Y-64150000D01*
X54625000Y-64150000D02*
X53625000Y-64150000D01*
%TO.C,K42*%
X89535000Y-126047500D02*
G75*
G03*
X92075000Y-123507500I0J2540000D01*
G01*
X85725000Y-121602500D02*
G75*
G03*
X88189162Y-119678540I0J2540000D01*
G01*
X92075000Y-120078500D02*
X92075000Y-119697500D01*
X92075000Y-119697500D02*
X91694000Y-119697500D01*
X78725000Y-112062500D02*
X79725000Y-112062500D01*
X91725000Y-112062500D02*
X92725000Y-112062500D01*
X80645000Y-122237500D02*
X80645000Y-122618500D01*
X85725000Y-121602500D02*
X83439000Y-121602500D01*
X78725000Y-126062500D02*
X78725000Y-125666500D01*
X80645000Y-125666500D02*
X80645000Y-126047500D01*
X92725000Y-112062500D02*
X92725000Y-113062500D01*
X92075000Y-123507500D02*
X92075000Y-123126500D01*
X80645000Y-126047500D02*
X89535000Y-126047500D01*
X78725000Y-113062500D02*
X78725000Y-112062500D01*
X79725000Y-126062500D02*
X78725000Y-126062500D01*
X89916000Y-119697500D02*
X88265000Y-119697500D01*
X92725000Y-125062500D02*
X92725000Y-126062500D01*
X92725000Y-126062500D02*
X91725000Y-126062500D01*
%TO.C,K35*%
X146685000Y-111760000D02*
G75*
G03*
X149225000Y-109220000I0J2540000D01*
G01*
X142875000Y-107315000D02*
G75*
G03*
X145339162Y-105391040I0J2540000D01*
G01*
X149225000Y-105791000D02*
X149225000Y-105410000D01*
X149225000Y-105410000D02*
X148844000Y-105410000D01*
X135875000Y-97775000D02*
X136875000Y-97775000D01*
X148875000Y-97775000D02*
X149875000Y-97775000D01*
X137795000Y-107950000D02*
X137795000Y-108331000D01*
X142875000Y-107315000D02*
X140589000Y-107315000D01*
X135875000Y-111775000D02*
X135875000Y-111379000D01*
X137795000Y-111379000D02*
X137795000Y-111760000D01*
X149875000Y-97775000D02*
X149875000Y-98775000D01*
X149225000Y-109220000D02*
X149225000Y-108839000D01*
X137795000Y-111760000D02*
X146685000Y-111760000D01*
X135875000Y-98775000D02*
X135875000Y-97775000D01*
X136875000Y-111775000D02*
X135875000Y-111775000D01*
X147066000Y-105410000D02*
X145415000Y-105410000D01*
X149875000Y-110775000D02*
X149875000Y-111775000D01*
X149875000Y-111775000D02*
X148875000Y-111775000D01*
%TO.C,K14*%
X127635000Y-68897500D02*
G75*
G03*
X130175000Y-66357500I0J2540000D01*
G01*
X123825000Y-64452500D02*
G75*
G03*
X126289162Y-62528540I0J2540000D01*
G01*
X130175000Y-62928500D02*
X130175000Y-62547500D01*
X130175000Y-62547500D02*
X129794000Y-62547500D01*
X116825000Y-54912500D02*
X117825000Y-54912500D01*
X129825000Y-54912500D02*
X130825000Y-54912500D01*
X118745000Y-65087500D02*
X118745000Y-65468500D01*
X123825000Y-64452500D02*
X121539000Y-64452500D01*
X116825000Y-68912500D02*
X116825000Y-68516500D01*
X118745000Y-68516500D02*
X118745000Y-68897500D01*
X130825000Y-54912500D02*
X130825000Y-55912500D01*
X130175000Y-66357500D02*
X130175000Y-65976500D01*
X118745000Y-68897500D02*
X127635000Y-68897500D01*
X116825000Y-55912500D02*
X116825000Y-54912500D01*
X117825000Y-68912500D02*
X116825000Y-68912500D01*
X128016000Y-62547500D02*
X126365000Y-62547500D01*
X130825000Y-67912500D02*
X130825000Y-68912500D01*
X130825000Y-68912500D02*
X129825000Y-68912500D01*
%TO.C,K22*%
X89535000Y-87947500D02*
G75*
G03*
X92075000Y-85407500I0J2540000D01*
G01*
X85725000Y-83502500D02*
G75*
G03*
X88189162Y-81578540I0J2540000D01*
G01*
X92075000Y-81978500D02*
X92075000Y-81597500D01*
X92075000Y-81597500D02*
X91694000Y-81597500D01*
X78725000Y-73962500D02*
X79725000Y-73962500D01*
X91725000Y-73962500D02*
X92725000Y-73962500D01*
X80645000Y-84137500D02*
X80645000Y-84518500D01*
X85725000Y-83502500D02*
X83439000Y-83502500D01*
X78725000Y-87962500D02*
X78725000Y-87566500D01*
X80645000Y-87566500D02*
X80645000Y-87947500D01*
X92725000Y-73962500D02*
X92725000Y-74962500D01*
X92075000Y-85407500D02*
X92075000Y-85026500D01*
X80645000Y-87947500D02*
X89535000Y-87947500D01*
X78725000Y-74962500D02*
X78725000Y-73962500D01*
X79725000Y-87962500D02*
X78725000Y-87962500D01*
X89916000Y-81597500D02*
X88265000Y-81597500D01*
X92725000Y-86962500D02*
X92725000Y-87962500D01*
X92725000Y-87962500D02*
X91725000Y-87962500D01*
%TO.C,K12*%
X89535000Y-68897500D02*
G75*
G03*
X92075000Y-66357500I0J2540000D01*
G01*
X85725000Y-64452500D02*
G75*
G03*
X88189162Y-62528540I0J2540000D01*
G01*
X92075000Y-62928500D02*
X92075000Y-62547500D01*
X92075000Y-62547500D02*
X91694000Y-62547500D01*
X78725000Y-54912500D02*
X79725000Y-54912500D01*
X91725000Y-54912500D02*
X92725000Y-54912500D01*
X80645000Y-65087500D02*
X80645000Y-65468500D01*
X85725000Y-64452500D02*
X83439000Y-64452500D01*
X78725000Y-68912500D02*
X78725000Y-68516500D01*
X80645000Y-68516500D02*
X80645000Y-68897500D01*
X92725000Y-54912500D02*
X92725000Y-55912500D01*
X92075000Y-66357500D02*
X92075000Y-65976500D01*
X80645000Y-68897500D02*
X89535000Y-68897500D01*
X78725000Y-55912500D02*
X78725000Y-54912500D01*
X79725000Y-68912500D02*
X78725000Y-68912500D01*
X89916000Y-62547500D02*
X88265000Y-62547500D01*
X92725000Y-67912500D02*
X92725000Y-68912500D01*
X92725000Y-68912500D02*
X91725000Y-68912500D01*
%TO.C,K43*%
X108585000Y-137953750D02*
G75*
G03*
X111125000Y-135413750I0J2540000D01*
G01*
X104775000Y-133508750D02*
G75*
G03*
X107239162Y-131584790I0J2540000D01*
G01*
X111125000Y-131984750D02*
X111125000Y-131603750D01*
X111125000Y-131603750D02*
X110744000Y-131603750D01*
X97775000Y-123968750D02*
X98775000Y-123968750D01*
X110775000Y-123968750D02*
X111775000Y-123968750D01*
X99695000Y-134143750D02*
X99695000Y-134524750D01*
X104775000Y-133508750D02*
X102489000Y-133508750D01*
X97775000Y-137968750D02*
X97775000Y-137572750D01*
X99695000Y-137572750D02*
X99695000Y-137953750D01*
X111775000Y-123968750D02*
X111775000Y-124968750D01*
X111125000Y-135413750D02*
X111125000Y-135032750D01*
X99695000Y-137953750D02*
X108585000Y-137953750D01*
X97775000Y-124968750D02*
X97775000Y-123968750D01*
X98775000Y-137968750D02*
X97775000Y-137968750D01*
X108966000Y-131603750D02*
X107315000Y-131603750D01*
X111775000Y-136968750D02*
X111775000Y-137968750D01*
X111775000Y-137968750D02*
X110775000Y-137968750D01*
%TO.C,K33*%
X108585000Y-102235000D02*
G75*
G03*
X111125000Y-99695000I0J2540000D01*
G01*
X104775000Y-97790000D02*
G75*
G03*
X107239162Y-95866040I0J2540000D01*
G01*
X111125000Y-96266000D02*
X111125000Y-95885000D01*
X111125000Y-95885000D02*
X110744000Y-95885000D01*
X97775000Y-88250000D02*
X98775000Y-88250000D01*
X110775000Y-88250000D02*
X111775000Y-88250000D01*
X99695000Y-98425000D02*
X99695000Y-98806000D01*
X104775000Y-97790000D02*
X102489000Y-97790000D01*
X97775000Y-102250000D02*
X97775000Y-101854000D01*
X99695000Y-101854000D02*
X99695000Y-102235000D01*
X111775000Y-88250000D02*
X111775000Y-89250000D01*
X111125000Y-99695000D02*
X111125000Y-99314000D01*
X99695000Y-102235000D02*
X108585000Y-102235000D01*
X97775000Y-89250000D02*
X97775000Y-88250000D01*
X98775000Y-102250000D02*
X97775000Y-102250000D01*
X108966000Y-95885000D02*
X107315000Y-95885000D01*
X111775000Y-101250000D02*
X111775000Y-102250000D01*
X111775000Y-102250000D02*
X110775000Y-102250000D01*
%TO.C,K26*%
X168910000Y-96202500D02*
G75*
G03*
X166370000Y-93662500I-2540000J0D01*
G01*
X164465000Y-100012500D02*
G75*
G03*
X162541040Y-97548338I-2540000J0D01*
G01*
X155925000Y-107012500D02*
X154925000Y-107012500D01*
X167925000Y-93012500D02*
X168925000Y-93012500D01*
X168925000Y-93012500D02*
X168925000Y-94012500D01*
X162941000Y-93662500D02*
X162560000Y-93662500D01*
X165100000Y-105092500D02*
X165481000Y-105092500D01*
X162560000Y-95821500D02*
X162560000Y-97472500D01*
X164465000Y-100012500D02*
X164465000Y-102298500D01*
X168925000Y-107012500D02*
X168529000Y-107012500D01*
X168910000Y-105092500D02*
X168910000Y-96202500D01*
X154925000Y-107012500D02*
X154925000Y-106012500D01*
X154925000Y-94012500D02*
X154925000Y-93012500D01*
X154925000Y-93012500D02*
X155925000Y-93012500D01*
X168925000Y-106012500D02*
X168925000Y-107012500D01*
X162560000Y-93662500D02*
X162560000Y-94043500D01*
X166370000Y-93662500D02*
X165989000Y-93662500D01*
X168529000Y-105092500D02*
X168910000Y-105092500D01*
%TO.C,K3*%
X108585000Y-45085000D02*
G75*
G03*
X111125000Y-42545000I0J2540000D01*
G01*
X104775000Y-40640000D02*
G75*
G03*
X107239162Y-38716040I0J2540000D01*
G01*
X111125000Y-39116000D02*
X111125000Y-38735000D01*
X111125000Y-38735000D02*
X110744000Y-38735000D01*
X97775000Y-31100000D02*
X98775000Y-31100000D01*
X110775000Y-31100000D02*
X111775000Y-31100000D01*
X99695000Y-41275000D02*
X99695000Y-41656000D01*
X104775000Y-40640000D02*
X102489000Y-40640000D01*
X97775000Y-45100000D02*
X97775000Y-44704000D01*
X99695000Y-44704000D02*
X99695000Y-45085000D01*
X111775000Y-31100000D02*
X111775000Y-32100000D01*
X111125000Y-42545000D02*
X111125000Y-42164000D01*
X99695000Y-45085000D02*
X108585000Y-45085000D01*
X97775000Y-32100000D02*
X97775000Y-31100000D01*
X98775000Y-45100000D02*
X97775000Y-45100000D01*
X108966000Y-38735000D02*
X107315000Y-38735000D01*
X111775000Y-44100000D02*
X111775000Y-45100000D01*
X111775000Y-45100000D02*
X110775000Y-45100000D01*
%TO.C,K34*%
X127635000Y-106997500D02*
G75*
G03*
X130175000Y-104457500I0J2540000D01*
G01*
X123825000Y-102552500D02*
G75*
G03*
X126289162Y-100628540I0J2540000D01*
G01*
X130175000Y-101028500D02*
X130175000Y-100647500D01*
X130175000Y-100647500D02*
X129794000Y-100647500D01*
X116825000Y-93012500D02*
X117825000Y-93012500D01*
X129825000Y-93012500D02*
X130825000Y-93012500D01*
X118745000Y-103187500D02*
X118745000Y-103568500D01*
X123825000Y-102552500D02*
X121539000Y-102552500D01*
X116825000Y-107012500D02*
X116825000Y-106616500D01*
X118745000Y-106616500D02*
X118745000Y-106997500D01*
X130825000Y-93012500D02*
X130825000Y-94012500D01*
X130175000Y-104457500D02*
X130175000Y-104076500D01*
X118745000Y-106997500D02*
X127635000Y-106997500D01*
X116825000Y-94012500D02*
X116825000Y-93012500D01*
X117825000Y-107012500D02*
X116825000Y-107012500D01*
X128016000Y-100647500D02*
X126365000Y-100647500D01*
X130825000Y-106012500D02*
X130825000Y-107012500D01*
X130825000Y-107012500D02*
X129825000Y-107012500D01*
%TO.C,K16*%
X168910000Y-70008750D02*
G75*
G03*
X166370000Y-67468750I-2540000J0D01*
G01*
X164465000Y-73818750D02*
G75*
G03*
X162541040Y-71354588I-2540000J0D01*
G01*
X164465000Y-73818750D02*
X164465000Y-76104750D01*
X154925000Y-67818750D02*
X154925000Y-66818750D01*
X168925000Y-80818750D02*
X168529000Y-80818750D01*
X155925000Y-80818750D02*
X154925000Y-80818750D01*
X162941000Y-67468750D02*
X162560000Y-67468750D01*
X154925000Y-80818750D02*
X154925000Y-79818750D01*
X162560000Y-69627750D02*
X162560000Y-71278750D01*
X165100000Y-78898750D02*
X165481000Y-78898750D01*
X162560000Y-67468750D02*
X162560000Y-67849750D01*
X166370000Y-67468750D02*
X165989000Y-67468750D01*
X168925000Y-66818750D02*
X168925000Y-67818750D01*
X167925000Y-66818750D02*
X168925000Y-66818750D01*
X168910000Y-78898750D02*
X168910000Y-70008750D01*
X168529000Y-78898750D02*
X168910000Y-78898750D01*
X168925000Y-79818750D02*
X168925000Y-80818750D01*
X154925000Y-66818750D02*
X155925000Y-66818750D01*
%TO.C,K2*%
X89535000Y-49847500D02*
G75*
G03*
X92075000Y-47307500I0J2540000D01*
G01*
X85725000Y-45402500D02*
G75*
G03*
X88189162Y-43478540I0J2540000D01*
G01*
X92075000Y-43878500D02*
X92075000Y-43497500D01*
X92075000Y-43497500D02*
X91694000Y-43497500D01*
X78725000Y-35862500D02*
X79725000Y-35862500D01*
X91725000Y-35862500D02*
X92725000Y-35862500D01*
X80645000Y-46037500D02*
X80645000Y-46418500D01*
X85725000Y-45402500D02*
X83439000Y-45402500D01*
X78725000Y-49862500D02*
X78725000Y-49466500D01*
X80645000Y-49466500D02*
X80645000Y-49847500D01*
X92725000Y-35862500D02*
X92725000Y-36862500D01*
X92075000Y-47307500D02*
X92075000Y-46926500D01*
X80645000Y-49847500D02*
X89535000Y-49847500D01*
X78725000Y-36862500D02*
X78725000Y-35862500D01*
X79725000Y-49862500D02*
X78725000Y-49862500D01*
X89916000Y-43497500D02*
X88265000Y-43497500D01*
X92725000Y-48862500D02*
X92725000Y-49862500D01*
X92725000Y-49862500D02*
X91725000Y-49862500D01*
%TO.C,K44*%
X127635000Y-130810000D02*
G75*
G03*
X130175000Y-128270000I0J2540000D01*
G01*
X123825000Y-126365000D02*
G75*
G03*
X126289162Y-124441040I0J2540000D01*
G01*
X130175000Y-124841000D02*
X130175000Y-124460000D01*
X130175000Y-124460000D02*
X129794000Y-124460000D01*
X116825000Y-116825000D02*
X117825000Y-116825000D01*
X129825000Y-116825000D02*
X130825000Y-116825000D01*
X118745000Y-127000000D02*
X118745000Y-127381000D01*
X123825000Y-126365000D02*
X121539000Y-126365000D01*
X116825000Y-130825000D02*
X116825000Y-130429000D01*
X118745000Y-130429000D02*
X118745000Y-130810000D01*
X130825000Y-116825000D02*
X130825000Y-117825000D01*
X130175000Y-128270000D02*
X130175000Y-127889000D01*
X118745000Y-130810000D02*
X127635000Y-130810000D01*
X116825000Y-117825000D02*
X116825000Y-116825000D01*
X117825000Y-130825000D02*
X116825000Y-130825000D01*
X128016000Y-124460000D02*
X126365000Y-124460000D01*
X130825000Y-129825000D02*
X130825000Y-130825000D01*
X130825000Y-130825000D02*
X129825000Y-130825000D01*
%TO.C,K4*%
X127635000Y-49847500D02*
G75*
G03*
X130175000Y-47307500I0J2540000D01*
G01*
X123825000Y-45402500D02*
G75*
G03*
X126289162Y-43478540I0J2540000D01*
G01*
X130175000Y-43878500D02*
X130175000Y-43497500D01*
X130175000Y-43497500D02*
X129794000Y-43497500D01*
X116825000Y-35862500D02*
X117825000Y-35862500D01*
X129825000Y-35862500D02*
X130825000Y-35862500D01*
X118745000Y-46037500D02*
X118745000Y-46418500D01*
X123825000Y-45402500D02*
X121539000Y-45402500D01*
X116825000Y-49862500D02*
X116825000Y-49466500D01*
X118745000Y-49466500D02*
X118745000Y-49847500D01*
X130825000Y-35862500D02*
X130825000Y-36862500D01*
X130175000Y-47307500D02*
X130175000Y-46926500D01*
X118745000Y-49847500D02*
X127635000Y-49847500D01*
X116825000Y-36862500D02*
X116825000Y-35862500D01*
X117825000Y-49862500D02*
X116825000Y-49862500D01*
X128016000Y-43497500D02*
X126365000Y-43497500D01*
X130825000Y-48862500D02*
X130825000Y-49862500D01*
X130825000Y-49862500D02*
X129825000Y-49862500D01*
%TO.C,K23*%
X108585000Y-83185000D02*
G75*
G03*
X111125000Y-80645000I0J2540000D01*
G01*
X104775000Y-78740000D02*
G75*
G03*
X107239162Y-76816040I0J2540000D01*
G01*
X111125000Y-77216000D02*
X111125000Y-76835000D01*
X111125000Y-76835000D02*
X110744000Y-76835000D01*
X97775000Y-69200000D02*
X98775000Y-69200000D01*
X110775000Y-69200000D02*
X111775000Y-69200000D01*
X99695000Y-79375000D02*
X99695000Y-79756000D01*
X104775000Y-78740000D02*
X102489000Y-78740000D01*
X97775000Y-83200000D02*
X97775000Y-82804000D01*
X99695000Y-82804000D02*
X99695000Y-83185000D01*
X111775000Y-69200000D02*
X111775000Y-70200000D01*
X111125000Y-80645000D02*
X111125000Y-80264000D01*
X99695000Y-83185000D02*
X108585000Y-83185000D01*
X97775000Y-70200000D02*
X97775000Y-69200000D01*
X98775000Y-83200000D02*
X97775000Y-83200000D01*
X108966000Y-76835000D02*
X107315000Y-76835000D01*
X111775000Y-82200000D02*
X111775000Y-83200000D01*
X111775000Y-83200000D02*
X110775000Y-83200000D01*
%TO.C,K30*%
X51435000Y-121285000D02*
G75*
G03*
X53975000Y-118745000I0J2540000D01*
G01*
X47625000Y-116840000D02*
G75*
G03*
X50089162Y-114916040I0J2540000D01*
G01*
X53975000Y-115316000D02*
X53975000Y-114935000D01*
X53975000Y-114935000D02*
X53594000Y-114935000D01*
X40625000Y-107300000D02*
X41625000Y-107300000D01*
X53625000Y-107300000D02*
X54625000Y-107300000D01*
X42545000Y-117475000D02*
X42545000Y-117856000D01*
X47625000Y-116840000D02*
X45339000Y-116840000D01*
X40625000Y-121300000D02*
X40625000Y-120904000D01*
X42545000Y-120904000D02*
X42545000Y-121285000D01*
X54625000Y-107300000D02*
X54625000Y-108300000D01*
X53975000Y-118745000D02*
X53975000Y-118364000D01*
X42545000Y-121285000D02*
X51435000Y-121285000D01*
X40625000Y-108300000D02*
X40625000Y-107300000D01*
X41625000Y-121300000D02*
X40625000Y-121300000D01*
X51816000Y-114935000D02*
X50165000Y-114935000D01*
X54625000Y-120300000D02*
X54625000Y-121300000D01*
X54625000Y-121300000D02*
X53625000Y-121300000D01*
%TO.C,K46*%
X178730785Y-135916127D02*
G75*
G03*
X177801081Y-132446423I-2199704J1270000D01*
G01*
X172976303Y-136993184D02*
G75*
G03*
X172542185Y-133897177I-2199705J1270000D01*
G01*
X162080446Y-138785362D02*
X161214420Y-138285362D01*
X179472750Y-132661006D02*
X180338776Y-133161006D01*
X180338776Y-133161006D02*
X179838776Y-134027032D01*
X174831480Y-130731923D02*
X174501524Y-130541423D01*
X170986229Y-141710093D02*
X171316184Y-141900593D01*
X173422024Y-132411172D02*
X172596524Y-133840979D01*
X172976303Y-136993184D02*
X171833303Y-138972918D01*
X173338776Y-145285362D02*
X172995830Y-145087362D01*
X174285785Y-143615093D02*
X178730785Y-135916127D01*
X161214420Y-138285362D02*
X161714420Y-137419336D01*
X167714420Y-127027032D02*
X168214420Y-126161006D01*
X168214420Y-126161006D02*
X169080446Y-126661006D01*
X173838776Y-144419336D02*
X173338776Y-145285362D01*
X174501524Y-130541423D02*
X174311024Y-130871378D01*
X177801081Y-132446423D02*
X177471125Y-132255923D01*
X173955830Y-143424593D02*
X174285785Y-143615093D01*
%TO.C,K32*%
X89535000Y-106997500D02*
G75*
G03*
X92075000Y-104457500I0J2540000D01*
G01*
X85725000Y-102552500D02*
G75*
G03*
X88189162Y-100628540I0J2540000D01*
G01*
X92075000Y-101028500D02*
X92075000Y-100647500D01*
X92075000Y-100647500D02*
X91694000Y-100647500D01*
X78725000Y-93012500D02*
X79725000Y-93012500D01*
X91725000Y-93012500D02*
X92725000Y-93012500D01*
X80645000Y-103187500D02*
X80645000Y-103568500D01*
X85725000Y-102552500D02*
X83439000Y-102552500D01*
X78725000Y-107012500D02*
X78725000Y-106616500D01*
X80645000Y-106616500D02*
X80645000Y-106997500D01*
X92725000Y-93012500D02*
X92725000Y-94012500D01*
X92075000Y-104457500D02*
X92075000Y-104076500D01*
X80645000Y-106997500D02*
X89535000Y-106997500D01*
X78725000Y-94012500D02*
X78725000Y-93012500D01*
X79725000Y-107012500D02*
X78725000Y-107012500D01*
X89916000Y-100647500D02*
X88265000Y-100647500D01*
X92725000Y-106012500D02*
X92725000Y-107012500D01*
X92725000Y-107012500D02*
X91725000Y-107012500D01*
%TO.C,K6*%
X168910000Y-46196250D02*
G75*
G03*
X166370000Y-43656250I-2540000J0D01*
G01*
X164465000Y-50006250D02*
G75*
G03*
X162541040Y-47542088I-2540000J0D01*
G01*
X164465000Y-50006250D02*
X164465000Y-52292250D01*
X154925000Y-44006250D02*
X154925000Y-43006250D01*
X168925000Y-57006250D02*
X168529000Y-57006250D01*
X155925000Y-57006250D02*
X154925000Y-57006250D01*
X162941000Y-43656250D02*
X162560000Y-43656250D01*
X154925000Y-57006250D02*
X154925000Y-56006250D01*
X162560000Y-45815250D02*
X162560000Y-47466250D01*
X165100000Y-55086250D02*
X165481000Y-55086250D01*
X162560000Y-43656250D02*
X162560000Y-44037250D01*
X166370000Y-43656250D02*
X165989000Y-43656250D01*
X168925000Y-43006250D02*
X168925000Y-44006250D01*
X167925000Y-43006250D02*
X168925000Y-43006250D01*
X168910000Y-55086250D02*
X168910000Y-46196250D01*
X168529000Y-55086250D02*
X168910000Y-55086250D01*
X168925000Y-56006250D02*
X168925000Y-57006250D01*
X154925000Y-43006250D02*
X155925000Y-43006250D01*
D12*
%TO.C,JPc4b1*%
X192558750Y-67913125D02*
X192558750Y-65913125D01*
X189758750Y-67913125D02*
X192558750Y-67913125D01*
X189758750Y-65913125D02*
X189758750Y-67913125D01*
X192558750Y-65913125D02*
X189758750Y-65913125D01*
%TO.C,JPc0b1*%
X192558750Y-57753125D02*
X192558750Y-55753125D01*
X189758750Y-57753125D02*
X192558750Y-57753125D01*
X189758750Y-55753125D02*
X189758750Y-57753125D01*
X192558750Y-55753125D02*
X189758750Y-55753125D01*
%TO.C,JPbat+b0*%
X192662000Y-45053125D02*
X192662000Y-43053125D01*
X189862000Y-45053125D02*
X192662000Y-45053125D01*
X189862000Y-43053125D02*
X189862000Y-45053125D01*
X192662000Y-43053125D02*
X189862000Y-43053125D01*
%TO.C,JPr1b1*%
X180069750Y-63373125D02*
X180069750Y-65373125D01*
X182869750Y-63373125D02*
X180069750Y-63373125D01*
X182869750Y-65373125D02*
X182869750Y-63373125D01*
X180069750Y-65373125D02*
X182869750Y-65373125D01*
%TO.C,JPc6b1*%
X192558750Y-72993125D02*
X192558750Y-70993125D01*
X189758750Y-72993125D02*
X192558750Y-72993125D01*
X189758750Y-70993125D02*
X189758750Y-72993125D01*
X192558750Y-70993125D02*
X189758750Y-70993125D01*
%TO.C,SWbat2*%
X130148000Y-134727000D02*
X128448000Y-134727000D01*
X129948000Y-138867000D02*
X129748000Y-139077000D01*
X128648000Y-138867000D02*
X128648000Y-137577000D01*
X128648000Y-138867000D02*
X128848000Y-139077000D01*
X131998000Y-135777000D02*
X131998000Y-136567000D01*
X129748000Y-139077000D02*
X128848000Y-139077000D01*
X131398000Y-137577000D02*
X125698000Y-137577000D01*
X127148000Y-134727000D02*
X126948000Y-134727000D01*
X125098000Y-136567000D02*
X125098000Y-135777000D01*
X129948000Y-137577000D02*
X129948000Y-138867000D01*
%TO.C,JPr0b1*%
X180069750Y-60833125D02*
X180069750Y-62833125D01*
X182869750Y-60833125D02*
X180069750Y-60833125D01*
X182869750Y-62833125D02*
X182869750Y-60833125D01*
X180069750Y-62833125D02*
X182869750Y-62833125D01*
%TO.C,JPr3b1*%
X180106750Y-68453125D02*
X180106750Y-70453125D01*
X182906750Y-68453125D02*
X180106750Y-68453125D01*
X182906750Y-70453125D02*
X182906750Y-68453125D01*
X180106750Y-70453125D02*
X182906750Y-70453125D01*
%TO.C,JPresb0*%
X192521750Y-48133125D02*
X189721750Y-48133125D01*
X189721750Y-48133125D02*
X189721750Y-50133125D01*
X189721750Y-50133125D02*
X192521750Y-50133125D01*
X192521750Y-50133125D02*
X192521750Y-48133125D01*
%TO.C,JPc5b1*%
X192558750Y-70453125D02*
X192558750Y-68453125D01*
X189758750Y-70453125D02*
X192558750Y-70453125D01*
X189758750Y-68453125D02*
X189758750Y-70453125D01*
X192558750Y-68453125D02*
X189758750Y-68453125D01*
%TO.C,JPr2b1*%
X180106750Y-65913125D02*
X180106750Y-67913125D01*
X182906750Y-65913125D02*
X180106750Y-65913125D01*
X182906750Y-67913125D02*
X182906750Y-65913125D01*
X180106750Y-67913125D02*
X182906750Y-67913125D01*
%TO.C,JPc2b1*%
X192558750Y-62833125D02*
X192558750Y-60833125D01*
X189758750Y-62833125D02*
X192558750Y-62833125D01*
X189758750Y-60833125D02*
X189758750Y-62833125D01*
X192558750Y-60833125D02*
X189758750Y-60833125D01*
%TO.C,JPr4b1*%
X180069750Y-70993125D02*
X180069750Y-72993125D01*
X182869750Y-70993125D02*
X180069750Y-70993125D01*
X182869750Y-72993125D02*
X182869750Y-70993125D01*
X180069750Y-72993125D02*
X182869750Y-72993125D01*
%TO.C,JPgndb0*%
X192521750Y-45593125D02*
X189721750Y-45593125D01*
X189721750Y-45593125D02*
X189721750Y-47593125D01*
X189721750Y-47593125D02*
X192521750Y-47593125D01*
X192521750Y-47593125D02*
X192521750Y-45593125D01*
%TO.C,JPc3b1*%
X192521750Y-65373125D02*
X192521750Y-63373125D01*
X189721750Y-65373125D02*
X192521750Y-65373125D01*
X189721750Y-63373125D02*
X189721750Y-65373125D01*
X192521750Y-63373125D02*
X189721750Y-63373125D01*
%TO.C,SW1*%
X158425000Y-37834000D02*
X158425000Y-36334000D01*
X159675000Y-33834000D02*
X164175000Y-33834000D01*
X165425000Y-36334000D02*
X165425000Y-37834000D01*
X164175000Y-40334000D02*
X159675000Y-40334000D01*
%TO.C,JPc1b1*%
X192558750Y-60293125D02*
X192558750Y-58293125D01*
X189758750Y-60293125D02*
X192558750Y-60293125D01*
X189758750Y-58293125D02*
X189758750Y-60293125D01*
X192558750Y-58293125D02*
X189758750Y-58293125D01*
%TO.C,JPc7b1*%
X180154375Y-58293125D02*
X180154375Y-60293125D01*
X182954375Y-58293125D02*
X180154375Y-58293125D01*
X182954375Y-60293125D02*
X182954375Y-58293125D01*
X180154375Y-60293125D02*
X182954375Y-60293125D01*
%TD*%
D13*
%TO.C,U1*%
X178675750Y-44053125D03*
X193915750Y-71993125D03*
X178675750Y-46593125D03*
X178675750Y-49133125D03*
X178675750Y-51673125D03*
X178675750Y-54213125D03*
X178675750Y-56753125D03*
X178675750Y-59293125D03*
X178675750Y-61833125D03*
X178675750Y-64373125D03*
X178675750Y-66913125D03*
X178675750Y-69453125D03*
X178675750Y-71993125D03*
X193915750Y-69453125D03*
X193915750Y-66913125D03*
X193915750Y-64373125D03*
X193915750Y-61833125D03*
X193915750Y-59293125D03*
X193915750Y-56753125D03*
X193915750Y-54213125D03*
X193915750Y-51673125D03*
X193915750Y-49133125D03*
X193915750Y-46593125D03*
D14*
X193915750Y-44053125D03*
%TD*%
M02*
