<?xml version="1.0" standalone="no"?>
 <!DOCTYPE svg PUBLIC "-//W3C//DTD SVG 1.1//EN" 
 "http://www.w3.org/Graphics/SVG/1.1/DTD/svg11.dtd"> 
<svg
  xmlns:svg="http://www.w3.org/2000/svg"
  xmlns="http://www.w3.org/2000/svg"
  xmlns:xlink="http://www.w3.org/1999/xlink"
  version="1.1"
  width="16.057880cm" height="13.754100cm" viewBox="0 0 160578800 137541000">
<title>SVG Picture created as mykeeb-adapter-Nutzer_5.svg date 2022/05/08 18:26:22 </title>
  <desc>Picture generated by PCBNEW </desc>
<g style="fill:#000000; fill-opacity:1.000000;stroke:#000000; stroke-opacity:1.000000;
stroke-linecap:round; stroke-linejoin:round;"
 transform="translate(0 0) scale(1 1)">
</g>
<g style="fill:#000000; fill-opacity:0.0; 
stroke:#000000; stroke-width:0.000000; stroke-opacity:1; 
stroke-linecap:round; stroke-linejoin:round;">
</g>
<g style="fill:#000000; fill-opacity:0.0; 
stroke:#000000; stroke-width:250000.000000; stroke-opacity:1; 
stroke-linecap:round; stroke-linejoin:round;">
<path d="M73900495 74153149
L59929733 74153149
" />
<path d="M138625159.000000,-974875.000000 C138677745.000000,2682108.000000 138770270.000000,6334688.000000 138914533.000000,9981203.000000" />
<path d="M118738785.000000,131003184.000000 C118635583.000000,130889315.000000 118531781.000000,130776076.000000 118427385.000000,130663458.000000" />
<path d="M48185167.000000,107593046.000000 C43037387.000000,107280640.000000 37877160.000000,107105693.000000 32707774.000000,107037745.000000" />
<path d="M125317969 68420369
L137415735 75405877
" />
<path d="M144636116.000000,52988599.000000 C145141156.000000,54698970.000000 145699560.000000,56389741.000000 146325874.000000,58055784.000000" />
<path d="M78979733 43673403
L92950495 43673403
" />
<path d="M112000495 59548403
L98029733 59548403
" />
<path d="M78979733 57644165
L78979733 43673403
" />
<path d="M118332461 80518135
L125317969 68420369
" />
<path d="M14210774 10019165
L14210774 23988403
" />
<path d="M122776699 110999050
L129762207 98901131
" />
<path d="M92950495 24623403
L92950495 38594165
" />
<path d="M35800495 62088403
L21829987 62088403
" />
<path d="M73900495 55103149
L59929733 55103149
" />
<path d="M73900495 22083911
L73900495 36053149
" />
<path d="M131050495 17003149
L131050495 30973403
" />
<path d="M132376349.999971 132473579.999992 A4999969.000000 4999969.000000 0.0 0 0 136708554.275101 129969963.158522" />
<path d="M35800495 81138403
L21829987 81138403
" />
<path d="M130430227 87503643
L118332461 80518135
" />
<path d="M119046607.579206 131346753.114987 A5000353.000000 5000353.000000 0.0 0 0 122208674.000000 132473563.999278" />
<path d="M98029733 78598403
L98029733 64628149
" />
<path d="M148426768.000000,62972342.000000 C149203587.000000,64574333.000000 150051760.000000,66114167.000000 150978559.000000,67589177.000000" />
<path d="M240216 10019165
L14210774 10019165
" />
<path d="M73900495 41133911
L73900495 55103149
" />
<path d="M40879733 76694165
L40879733 62723403
" />
<path d="M59929733 22083911
L73900495 22083911
" />
<path d="M131050495 55103149
L117079733 55103149
" />
<path d="M117079733 41133911
L131050495 41133911
" />
<path d="M117793917.000000,129995135.000000 C117366913.000000,129554470.000000 116930590.000000,129123481.000000 116485311.000000,128701708.000000" />
<path d="M-3314017.000000,102131392.000000 C-3246692.000000,101596910.000000 -3198583.000000,101067295.000000 -3174619.000000,100544749.000000" />
<path d="M14210774 62088403
L240216 62088403
" />
<path d="M2779911 100188403
L2779911 86219165
" />
<path d="M35800495 29069165
L35800495 43038403
" />
<path d="M112000495 64628149
L112000495 78598403
" />
<path d="M-9712466 -903089
L-9712466 87916719
" />
<path d="M54850495 62723403
L54850495 76694165
" />
<path d="M150978559.000000,67589177.000000 C151905358.000000,69064187.000000 152911442.000000,70474305.000000 153998724.000000,71829655.000000" />
<path d="M-5212442.000000,93938199.000000 C-5533213.000000,93599853.000000 -5891777.000000,93280119.000000 -6290362.000000,92963143.000000" />
<path d="M92950495 76694165
L78979733 76694165
" />
<path d="M17174167.000000,107134749.000000 C14581340.000000,107197586.000000 11986667.000000,107282152.000000 9390554.000000,107386406.000000" />
<path d="M100794793.000000,118483030.000000 C98472774.000000,117425195.000000 96103727.000000,116484109.000000 93697700.000000,115635541.000000" />
<path d="M40879733 38594165
L40879733 24623403
" />
<path d="M117079733 30973403
L117079733 17003149
" />
<path d="M35800495 86219165
L35800495 100188403
" />
<path d="M113251699 89376131
L125349719 96360115
" />
<path d="M40879733 62723403
L54850495 62723403
" />
<path d="M78979733 5573403
L92950495 5573403
" />
<path d="M240216 62088403
L240216 48119165
" />
<path d="M92950495 38594165
L78979733 38594165
" />
<path d="M-3181135.000000,99007661.000000 C-3211110.000000,98508888.000000 -3270376.000000,98025537.000000 -3364183.000000,97559188.000000" />
<path d="M138625142.227398 -974874.758838 A5000100.000000 5000100.000000 0.0 0 0 133625675.000000 -5903088.998654" />
<path d="M240216 48119165
L14210774 48119165
" />
<path d="M73900495 17003149
L59929733 17003149
" />
<path d="M116485311.000000,128701708.000000 C115594752.000000,127858163.000000 114668391.000000,127051434.000000 113708882.000000,126278337.000000" />
<path d="M134874719 117984329
L122776699 110999050
" />
<path d="M35800495 43038403
L21829987 43038403
" />
<path d="M-6290362.000000,92963143.000000 C-6688946.000000,92646167.000000 -7127787.000000,92332984.000000 -7602114.000000,91997152.000000" />
<path d="M40879733 43673403
L54850495 43673403
" />
<path d="M83760267 96871417
L87374941 83378937
" />
<path d="M138914533.000000,9981203.000000 C139058796.000000,13627718.000000 139254419.000000,17268238.000000 139518887.000000,20900137.000000" />
<path d="M131050495 41133911
L131050495 55103149
" />
<path d="M21829987 100188403
L21829987 86219165
" />
<path d="M59929733 79233911
L73900495 79233911
" />
<path d="M117079733 55103149
L117079733 41133911
" />
<path d="M59929733 93203149
L59929733 79233911
" />
<path d="M92950495 57644165
L78979733 57644165
" />
<path d="M14210774 43038403
L240216 43038403
" />
<path d="M98029733 59548403
L98029733 45578149
" />
<path d="M40879733 95744165
L40879733 81773403
" />
<path d="M146940735 97028389
L134841445 90043135
" />
<path d="M141267517.000000,37169685.000000 C141535690.000000,38965008.000000 141832484.000000,40750440.000000 142163996.000000,42523556.000000" />
</g>
<g style="fill:#000000; fill-opacity:0.0; 
stroke:#000000; stroke-width:200000.000000; stroke-opacity:1; 
stroke-linecap:round; stroke-linejoin:round;">
<circle cx="-4799524.000000" cy="89626666.000000" r="1499357.000000" /> 
</g>
<g style="fill:#000000; fill-opacity:0.0; 
stroke:#000000; stroke-width:250000.000000; stroke-opacity:1; 
stroke-linecap:round; stroke-linejoin:round;">
<path d="M137415735 75405877
L130430227 87503643
" />
<path d="M59929733 17003149
L59929733 3033911
" />
<path d="M139518887.000000,20900137.000000 C139783356.000000,24532036.000000 140116221.000000,28155649.000000 140545487.000000,31765720.000000" />
<path d="M98029733 26528149
L112000495 26528149
" />
<path d="M35800495 10019165
L35800495 23988403
" />
<path d="M21829987 62088403
L21829987 48119165
" />
<path d="M86375670.000000,113350987.000000 C83902724.000000,112670892.000000 81399784.000000,112066677.000000 78872267.000000,111525972.000000" />
<path d="M78979733 38594165
L78979733 24623403
" />
<path d="M21829987 29069165
L35800495 29069165
" />
<path d="M112000495 78598403
L98029733 78598403
" />
<path d="M5496347.000000,107557298.000000 C4198395.000000,107619016.000000 2902621.000000,107685453.000000 1602729.000000,107756268.000000" />
<path d="M14210774 23988403
L240216 23988403
" />
<path d="M106267969 101474050
L113251699 89376131
" />
<path d="M73900495 79233911
L73900495 93203149
" />
<path d="M92950495 43673403
L92950495 57644165
" />
<path d="M16750495 100188403
L2779911 100188403
" />
<path d="M40879733 24623403
L54850495 24623403
" />
<path d="M73900495 93203149
L59929733 93203149
" />
<path d="M240216 23988403
L240216 10019165
" />
<path d="M21829987 86219165
L35800495 86219165
" />
<path d="M119046624.000000,131346733.000000 C118994331.000000,131287708.000000 118944435.000000,131231709.000000 118893136.000000,131174459.000000" />
<path d="M54850495 5573403
L54850495 19544165
" />
<path d="M153998724.000000,71829655.000000 C155086007.000000,73185006.000000 156255533.000000,74485260.000000 157492239.000000,75758183.000000" />
<path d="M21829987 43038403
L21829987 29069165
" />
<path d="M54850495 57644165
L40879733 57644165
" />
<path d="M87374941 83378937
L100869961 86993611
" />
<path d="M92950495 62723403
L92950495 76694165
" />
<path d="M71247557.000000,110089726.000000 C68698886.000000,109670301.000000 66144635.000000,109306482.000000 63585875.000000,108989251.000000" />
<path d="M21829987 10019165
L35800495 10019165
" />
<path d="M118427385.000000,130663458.000000 C118218591.000000,130438221.000000 118007419.000000,130215468.000000 117793917.000000,129995135.000000" />
<path d="M-4364156.000000,95015436.000000 C-4606036.000000,94637600.000000 -4891670.000000,94276544.000000 -5212442.000000,93938199.000000" />
<path d="M107572748.000000,122023050.000000 C106489910.000000,121374463.000000 105376563.000000,120753692.000000 104240724.000000,120161916.000000" />
<path d="M117079733 17003149
L131050495 17003149
" />
<path d="M35800495 23988403
L21829987 23988403
" />
<path d="M21829987 48119165
L35800495 48119165
" />
<path d="M63585875.000000,108989251.000000 C58468353.000000,108354789.000000 53332948.000000,107905452.000000 48185167.000000,107593046.000000" />
<path d="M40879733 81773403
L54850495 81773403
" />
<path d="M240216 67169165
L14210774 67169165
" />
<path d="M14210774 29069165
L14210774 43038403
" />
</g>
<g style="fill:#000000; fill-opacity:0.0; 
stroke:#000000; stroke-width:200000.000000; stroke-opacity:1; 
stroke-linecap:round; stroke-linejoin:round;">
<circle cx="122208674.000000" cy="127473564.000000" r="1495909.000000" /> 
</g>
<g style="fill:#000000; fill-opacity:0.0; 
stroke:#000000; stroke-width:250000.000000; stroke-opacity:1; 
stroke-linecap:round; stroke-linejoin:round;">
<path d="M59929733 41133911
L73900495 41133911
" />
<path d="M97252747 100488733
L83760267 96871417
" />
<path d="M73900495 60183911
L73900495 74153149
" />
<path d="M78979733 76694165
L78979733 62723403
" />
<path d="M129762207 98901131
L141859973 105885141
" />
<path d="M141859973 105885141
L134874719 117984329
" />
<path d="M-9712468.999770 87916719.000029 A5000088.000000 5000088.000000 0.0 0 0 -7602113.884709 91997151.837202" />
<path d="M157492239.000000,75758183.000000 C158728946.000000,77031106.000000 160033256.000000,78277236.000000 161360201.000000,79541631.000000" />
<path d="M98029733 21448403
L98029733 7478149
" />
<path d="M112000495 45578149
L112000495 59548403
" />
<path d="M98029733 7478149
L112000495 7478149
" />
<path d="M136708554 129969963
L162243118 85657757
" />
<path d="M146325874.000000,58055784.000000 C146639030.000000,58888805.000000 146969227.000000,59715628.000000 147318715.000000,60535570.000000" />
<path d="M131050495 30973403
L117079733 30973403
" />
<path d="M59929733 3033911
L73900495 3033911
" />
<path d="M75066199.000000,110762056.000000 C73794832.000000,110523078.000000 72521893.000000,110299439.000000 71247557.000000,110089726.000000" />
</g>
<g style="fill:#000000; fill-opacity:0.0; 
stroke:#000000; stroke-width:200000.000000; stroke-opacity:1; 
stroke-linecap:round; stroke-linejoin:round;">
<circle cx="139481920.000000" cy="58693518.000000" r="1497844.000000" /> 
</g>
<g style="fill:#000000; fill-opacity:0.0; 
stroke:#000000; stroke-width:250000.000000; stroke-opacity:1; 
stroke-linecap:round; stroke-linejoin:round;">
<path d="M125349719 96360115
L118365735 108459329
" />
<path d="M118893136.000000,131174459.000000 C118841836.000000,131117209.000000 118790386.000000,131060118.000000 118738785.000000,131003184.000000" />
<path d="M59929733 55103149
L59929733 41133911
" />
<path d="M32707774.000000,107037745.000000 C27538389.000000,106969797.000000 22359821.000000,107009073.000000 17174167.000000,107134749.000000" />
<path d="M14210774 81138403
L240216 81138403
" />
<path d="M21829987 23988403
L21829987 10019165
" />
<path d="M240216 29069165
L14210774 29069165
" />
<path d="M78979733 19544165
L78979733 5573403
" />
<path d="M112000495 26528149
L112000495 40498403
" />
<path d="M240216 81138403
L240216 67169165
" />
<path d="M21829987 67169165
L35800495 67169165
" />
<path d="M73900495 36053149
L59929733 36053149
" />
<path d="M78979733 24623403
L92950495 24623403
" />
<path d="M54850495 19544165
L40879733 19544165
" />
<path d="M40879733 5573403
L54850495 5573403
" />
<path d="M140545487.000000,31765720.000000 C140760119.000000,33570755.000000 140999344.000000,35374361.000000 141267517.000000,37169685.000000" />
<path d="M92950495 19544165
L78979733 19544165
" />
<path d="M2779911 86219165
L16750495 86219165
" />
<path d="M162243075.178038 85657732.323455 A4999935.000000 4999935.000000 0.0 0 0 161360200.746630 79541631.265890" />
<path d="M16750495 86219165
L16750495 100188403
" />
<path d="M40879733 19544165
L40879733 5573403
" />
<path d="M122208674 132473564
L132376350 132473564
" />
</g>
<g style="fill:#000000; fill-opacity:0.0; 
stroke:#000000; stroke-width:200000.000000; stroke-opacity:1; 
stroke-linecap:round; stroke-linejoin:round;">
<circle cx="133625675.000000" cy="-903089.000000" r="1501336.000000" /> 
</g>
<g style="fill:#000000; fill-opacity:0.0; 
stroke:#000000; stroke-width:250000.000000; stroke-opacity:1; 
stroke-linecap:round; stroke-linejoin:round;">
<path d="M-3531711.000000,96872137.000000 C-3596757.000000,96647307.000000 -3671411.000000,96426763.000000 -3754537.000000,96214596.000000" />
<path d="M14210774 48119165
L14210774 62088403
" />
<path d="M59929733 60183911
L73900495 60183911
" />
<path d="M93697700.000000,115635541.000000 C91291673.000000,114786973.000000 88848617.000000,114031082.000000 86375670.000000,113350987.000000" />
<path d="M98029733 64628149
L112000495 64628149
" />
<path d="M35800495 67169165
L35800495 81138403
" />
<path d="M118365735 108459329
L106267969 101474050
" />
<path d="M40879733 57644165
L40879733 43673403
" />
<path d="M153924719 84930877
L146940735 97028389
" />
<path d="M240216 43038403
L240216 29069165
" />
<path d="M104240724.000000,120161916.000000 C103104884.000000,119570140.000000 101955803.000000,119011948.000000 100794793.000000,118483030.000000" />
<path d="M92950495 5573403
L92950495 19544165
" />
<path d="M-3754537.000000,96214596.000000 C-3920789.000000,95790261.000000 -4122277.000000,95393271.000000 -4364156.000000,95015436.000000" />
<path d="M78979733 62723403
L92950495 62723403
" />
<path d="M-3364183.000000,97559188.000000 C-3411086.000000,97326013.000000 -3466665.000000,97096966.000000 -3531711.000000,96872137.000000" />
<path d="M142163996.000000,42523556.000000 C142827022.000000,46069788.000000 143626035.000000,49567858.000000 144636116.000000,52988599.000000" />
<path d="M147318715.000000,60535570.000000 C147668203.000000,61355511.000000 148038358.000000,62171347.000000 148426768.000000,62972342.000000" />
<path d="M-4712466.000095 -5903083.999097 A4999905.000000 4999905.000000 0.0 0 0 -9712465.999190 -903089.000000" />
</g>
<g style="fill:#000000; fill-opacity:0.0; 
stroke:#000000; stroke-width:200000.000000; stroke-opacity:1; 
stroke-linecap:round; stroke-linejoin:round;">
<circle cx="-4712466.000000" cy="-903089.000000" r="1500000.000000" /> 
</g>
<g style="fill:#000000; fill-opacity:0.0; 
stroke:#000000; stroke-width:250000.000000; stroke-opacity:1; 
stroke-linecap:round; stroke-linejoin:round;">
<path d="M59929733 36053149
L59929733 22083911
" />
<path d="M98029733 45578149
L112000495 45578149
" />
<path d="M54850495 24623403
L54850495 38594165
" />
<path d="M54850495 81773403
L54850495 95744165
" />
<path d="M54850495 43673403
L54850495 57644165
" />
<path d="M78872267.000000,111525972.000000 C77608508.000000,111255619.000000 76337566.000000,111001034.000000 75066199.000000,110762056.000000" />
<path d="M141826699 77945369
L153924719 84930877
" />
<path d="M54850495 76694165
L40879733 76694165
" />
<path d="M100869961 86993611
L97252747 100488733
" />
<path d="M14210774 67169165
L14210774 81138403
" />
<path d="M133625675 -5903089
L-4712466 -5903089
" />
<path d="M35800495 48119165
L35800495 62088403
" />
<path d="M59929733 74153149
L59929733 60183911
" />
<path d="M112000495 40498403
L98029733 40498403
" />
<path d="M112000495 21448403
L98029733 21448403
" />
<path d="M-3314015.101409 102131392.239213 A5000035.000000 5000035.000000 0.0 0 0 1602730.001852 107756271.789928" />
<path d="M112000495 7478149
L112000495 21448403
" />
<path d="M113708882.000000,126278337.000000 C111789864.000000,124732143.000000 109738425.000000,123320224.000000 107572748.000000,122023050.000000" />
<path d="M134841445 90043135
L141826699 77945369
" />
<path d="M98029733 40498403
L98029733 26528149
" />
<path d="M35800495 100188403
L21829987 100188403
" />
<path d="M54850495 95744165
L40879733 95744165
" />
<path d="M54850495 38594165
L40879733 38594165
" />
<path d="M73900495 3033911
L73900495 17003149
" />
<path d="M21829987 81138403
L21829987 67169165
" />
<path d="M9390554.000000,107386406.000000 C8092497.000000,107438533.000000 6794300.000000,107495580.000000 5496347.000000,107557298.000000" />
<path d="M-3174619.000000,100544749.000000 C-3150655.000000,100022203.000000 -3151160.000000,99506433.000000 -3181135.000000,99007661.000000" />
<g >
</g>
<g >
</g>
<g >
</g>
<g >
</g>
<g >
</g>
<g >
</g>
<g >
</g>
<g >
</g>
<g >
</g>
<g >
</g>
<g >
</g>
<g >
</g>
<g >
</g>
<g >
</g>
<g >
</g>
<g >
</g>
<g >
</g>
<g >
</g>
<g >
</g>
<g >
</g>
<g >
</g>
<g >
</g>
<g >
</g>
<g >
</g>
<g >
</g>
<g >
</g>
<g >
</g>
<g >
</g>
<g >
</g>
<g >
</g>
<g >
</g>
<g >
</g>
<g >
</g>
<g >
</g>
<g >
</g>
</g> 
</svg>
