<?xml version="1.0" standalone="no"?>
 <!DOCTYPE svg PUBLIC "-//W3C//DTD SVG 1.1//EN" 
 "http://www.w3.org/Graphics/SVG/1.1/DTD/svg11.dtd"> 
<svg
  xmlns:svg="http://www.w3.org/2000/svg"
  xmlns="http://www.w3.org/2000/svg"
  xmlns:xlink="http://www.w3.org/1999/xlink"
  version="1.1"
  width="16.057880cm" height="13.754100cm" viewBox="0 0 160578800 137541000">
<title>SVG Picture created as mykeeb-adapter-Edge_Cuts.svg date 2022/05/08 18:26:22 </title>
  <desc>Picture generated by PCBNEW </desc>
<g style="fill:#000000; fill-opacity:1.000000;stroke:#000000; stroke-opacity:1.000000;
stroke-linecap:round; stroke-linejoin:round;"
 transform="translate(0 0) scale(1 1)">
</g>
<g style="fill:#000000; fill-opacity:0.0; 
stroke:#000000; stroke-width:0.000000; stroke-opacity:1; 
stroke-linecap:round; stroke-linejoin:round;">
</g>
<g style="fill:#000000; fill-opacity:0.0; 
stroke:#000000; stroke-width:100000.000000; stroke-opacity:1; 
stroke-linecap:round; stroke-linejoin:round;">
<path d="M70892296 63748544
L75059487 63748544
" />
<path d="M75059487 63748544
L75059487 65534483
" />
<path d="M75059487 65534483
L70892296 65534483
" />
<path d="M70892296 65534483
L70892296 63748544
" />
<path d="M77440739 63748544
L81607930 63748544
" />
<path d="M81607930 63748544
L81607930 65534483
" />
<path d="M81607930 65534483
L77440739 65534483
" />
<path d="M77440739 65534483
L77440739 63748544
" />
<path style="fill:#000000; fill-opacity:0.0; 
stroke:#000000; stroke-width:100000.000000; stroke-opacity:1; 
stroke-linecap:round; stroke-linejoin:round;fill:none"
d="M 89346999.000000,19100069.000000
97086068.000000,19100069.000000
98276694.000000,20290695.000000
98276694.000000,51246971.000000
97086068.000000,52437597.000000
89942312.000000,52437597.000000
88751686.000000,53628223.000000
88751686.000000,62557918.000000
87561060.000000,63748544.000000
83989182.000000,63748544.000000
83989182.000000,65534483.000000
85179808.000000,65534483.000000
85179808.000000,84584499.000000
87561060.000000,86965751.000000
92323564.000000,86965751.000000
94704816.000000,88751690.000000
99467320.000000,88751690.000000
121493901.000000,95300133.000000
132804848.000000,83989186.000000
137567352.000000,83989186.000000
148878299.000000,95300133.000000
148878299.000000,98276698.000000
159593933.000000,116731401.000000
159593933.000000,119112653.000000
129232970.000000,136376730.000000
126851718.000000,136376730.000000
116731397.000000,118517340.000000
101253259.000000,109587645.000000
75654800.000000,102443889.000000
57795410.000000,102443889.000000
47079776.000000,120303279.000000
45889150.000000,120303279.000000
31601638.000000,112033008.000000
31601638.000000,109587645.000000
37554768.000000,99467324.000000
42317272.000000,94704820.000000
47675089.000000,94704820.000000
51246967.000000,91132942.000000
54818845.000000,91132942.000000
56009471.000000,89942316.000000
56009471.000000,85179812.000000
57795410.000000,83393873.000000
64939166.000000,83393873.000000
67320418.000000,81012621.000000
67320418.000000,65534483.000000
68511044.000000,65534483.000000
68511044.000000,63748544.000000
64939166.000000,63748544.000000
63748540.000000,62329755.000000
63748540.000000,53628223.000000
61962601.000000,51842284.000000
55414158.000000,51842284.000000
53628219.000000,50056345.000000
53628219.000000,19100069.000000
55414158.000000,17314130.000000
64939166.000000,17314130.000000
67915731.000000,14337565.000000
84609392.000000,14337565.000000
Z" /> 
<g >
</g>
<g >
</g>
<g >
</g>
<g >
</g>
<g >
</g>
<g >
</g>
<g >
</g>
<g >
</g>
<g >
</g>
<g >
</g>
<g >
</g>
<g >
</g>
<g >
</g>
<g >
</g>
<g >
</g>
<g >
</g>
<g >
</g>
<g >
</g>
<g >
</g>
<g >
</g>
<g >
</g>
<g >
</g>
<g >
</g>
<g >
</g>
<g >
</g>
<g >
</g>
<g >
</g>
<g >
</g>
<g >
</g>
<g >
</g>
<g >
</g>
<g >
</g>
<g >
</g>
<g >
</g>
<g >
</g>
</g> 
</svg>
