<?xml version="1.0" standalone="no"?>
 <!DOCTYPE svg PUBLIC "-//W3C//DTD SVG 1.1//EN" 
 "http://www.w3.org/Graphics/SVG/1.1/DTD/svg11.dtd"> 
<svg
  xmlns:svg="http://www.w3.org/2000/svg"
  xmlns="http://www.w3.org/2000/svg"
  xmlns:xlink="http://www.w3.org/1999/xlink"
  version="1.1"
  width="273.2278mm" height="186.3090mm" viewBox="0.0000 0.0000 273.2278 186.3090">
<title>SVG Image created as mykeeb_v7a3-User_5.svg date 2023/05/25 13:38:56 </title>
  <desc>Image generated by PCBNEW </desc>
<g style="fill:#000000; fill-opacity:1.0000;stroke:#000000; stroke-opacity:1.0000;
stroke-linecap:round; stroke-linejoin:round;"
 transform="translate(0 0) scale(1 1)">
</g>
<g style="fill:#000000; fill-opacity:0.0; 
stroke:#000000; stroke-width:0.0000; stroke-opacity:1; 
stroke-linecap:round; stroke-linejoin:round;">
</g>
<g style="fill:#000000; fill-opacity:0.0; 
stroke:#000000; stroke-width:0.1200; stroke-opacity:1; 
stroke-linecap:round; stroke-linejoin:round;">
<path d="M108.7983 87.9626
L108.7983 73.9626
" />
<path d="M205.7578 84.1862
L191.8111 82.9661
" />
<path d="M165.9483 89.4407
L151.9483 89.4407
" />
<path d="M127.8483 85.5814
L127.8483 71.5814
" />
<path d="M165.9483 51.3407
L151.9483 51.3407
" />
<path d="M94.7982 49.8626
L108.7982 49.8626
" />
<path d="M89.7483 83.2001
L89.7483 69.2001
" />
<path d="M113.8483 85.5814
L127.8483 85.5814
" />
<path d="M190.0483 58.1970
L204.0483 58.1970
" />
<path d="M165.9483 84.3907
L165.9483 70.3907
" />
<path d="M75.7482 93.0127
L75.7482 107.0127
" />
<path d="M170.9983 77.2470
L184.9983 77.2470
" />
<path d="M132.8983 59.3876
L146.8983 59.3876
" />
<path d="M113.8482 33.4814
L113.8482 47.4814
" />
<path d="M94.7983 73.9626
L94.7983 87.9626
" />
<path d="M146.8983 59.3876
L146.8983 45.3876
" />
<path d="M108.7983 73.9626
L94.7983 73.9626
" />
<path d="M151.9483 89.4407
L151.9483 103.4407
" />
<path d="M146.8982 40.3376
L146.8982 26.3376
" />
<path d="M204.0483 103.7282
L190.0483 103.7282
" />
<path d="M81.9321 138.1126
L72.0326 128.2131
" />
<path d="M149.4603 122.5247
L137.3360 115.5247
" />
<path d="M146.8983 83.4876
L132.8983 83.4876
" />
<path d="M48.7781 157.9390
L60.9024 164.9390
" />
<path d="M190.0483 117.7282
L204.0483 117.7282
" />
<path d="M204.5376 78.9502
L205.7578 65.0034
" />
<path d="M108.7983 68.9126
L94.7983 68.9126
" />
<path d="M55.7781 145.8146
L48.7781 157.9390
" />
<path d="M67.9025 152.8146
L55.7781 145.8146
" />
<path d="M75.7483 59.3876
L89.7483 59.3876
" />
<path d="M108.7982 35.8626
L94.7982 35.8626
" />
<path d="M184.9983 77.2470
L184.9983 63.2470
" />
<path d="M165.9482 46.2907
L165.9482 32.2907
" />
<path d="M142.4603 134.6491
L149.4603 122.5247
" />
<path d="M89.7482 93.0127
L75.7482 93.0127
" />
<path d="M121.8951 112.0627
L107.8951 112.0627
" />
<path d="M107.8951 126.0627
L121.8951 126.0627
" />
<path d="M151.9482 46.2907
L165.9482 46.2907
" />
<path d="M79.8300 122.4825
L86.8300 134.6069
" />
<path d="M89.7483 45.3876
L75.7483 45.3876
" />
<path d="M132.8983 64.4376
L132.8983 78.4376
" />
<path d="M191.8111 82.9661
L190.5909 96.9128
" />
<path d="M94.7983 68.9126
L94.7983 54.9126
" />
<path d="M146.8983 97.4876
L146.8983 83.4876
" />
<path d="M70.8141 121.1231
L62.3887 109.9422
" />
<path d="M194.5233 122.7783
L180.5233 122.7783
" />
<path d="M204.0483 117.7282
L204.0483 103.7282
" />
<path d="M113.8483 90.6314
L113.8483 104.6314
" />
<path d="M151.9483 84.3907
L165.9483 84.3907
" />
<path d="M113.8483 66.5314
L127.8483 66.5314
" />
<path d="M190.5909 77.7300
L204.5376 78.9502
" />
<path d="M107.8951 112.0627
L107.8951 126.0627
" />
<path d="M184.9983 63.2470
L170.9983 63.2470
" />
<path d="M184.9983 115.3470
L184.9983 101.3470
" />
<path d="M113.8483 52.5314
L113.8483 66.5314
" />
<path d="M127.8483 104.6314
L127.8483 90.6314
" />
<path d="M180.5233 122.7783
L180.5233 136.7783
" />
<path d="M190.0483 103.7282
L190.0483 117.7282
" />
<path d="M170.9983 115.3470
L184.9983 115.3470
" />
<path d="M191.8111 63.7833
L190.5909 77.7300
" />
<path d="M130.3360 127.6491
L142.4603 134.6491
" />
<path d="M113.8483 71.5814
L113.8483 85.5814
" />
<path d="M151.9483 103.4407
L165.9483 103.4407
" />
<path d="M146.8982 26.3376
L132.8982 26.3376
" />
<path d="M94.7983 107.0126
L108.7983 107.0126
" />
<path d="M108.7983 107.0126
L108.7983 93.0126
" />
<path d="M127.8483 71.5814
L113.8483 71.5814
" />
<path d="M132.8983 45.3876
L132.8983 59.3876
" />
<path d="M62.1331 138.1126
L72.0326 148.0121
" />
<path d="M184.9983 96.2970
L184.9983 82.2970
" />
<path d="M190.0483 44.1970
L190.0483 58.1970
" />
<path d="M180.5233 136.7783
L194.5233 136.7783
" />
<path d="M170.9982 44.1970
L170.9982 58.1970
" />
<path d="M165.9483 70.3907
L151.9483 70.3907
" />
<path d="M170.9983 82.2970
L170.9983 96.2970
" />
<path d="M184.9982 44.1970
L170.9982 44.1970
" />
<path d="M75.7483 69.2001
L75.7483 83.2001
" />
<path d="M113.8483 104.6314
L127.8483 104.6314
" />
<path d="M127.8482 33.4814
L113.8482 33.4814
" />
<path d="M94.7983 54.9126
L108.7983 54.9126
" />
<path d="M91.9543 115.4825
L79.8300 122.4825
" />
<path d="M137.3360 115.5247
L130.3360 127.6491
" />
<path d="M146.8983 45.3876
L132.8983 45.3876
" />
<path d="M190.5909 96.9128
L204.5376 98.1330
" />
<path d="M170.9983 63.2470
L170.9983 77.2470
" />
<path d="M151.9483 51.3407
L151.9483 65.3407
" />
<path d="M108.7983 54.9126
L108.7983 68.9126
" />
<path d="M184.9983 82.2970
L170.9983 82.2970
" />
<path d="M127.8482 47.4814
L127.8482 33.4814
" />
<path d="M170.9982 58.1970
L184.9982 58.1970
" />
<path d="M60.9024 164.9390
L67.9025 152.8146
" />
<path d="M86.8300 134.6069
L98.9543 127.6069
" />
<path d="M75.7483 83.2001
L89.7483 83.2001
" />
<path d="M94.7983 93.0126
L94.7983 107.0126
" />
<path d="M113.8482 47.4814
L127.8482 47.4814
" />
<path d="M59.6332 129.5485
L70.8141 121.1231
" />
<path d="M184.9982 58.1970
L184.9982 44.1970
" />
<path d="M89.7483 69.2001
L75.7483 69.2001
" />
<path d="M165.9483 103.4407
L165.9483 89.4407
" />
<path d="M75.7482 107.0127
L89.7482 107.0127
" />
<path d="M151.9483 70.3907
L151.9483 84.3907
" />
<path d="M94.7982 35.8626
L94.7982 49.8626
" />
<path d="M94.7983 87.9626
L108.7983 87.9626
" />
<path d="M204.0483 58.1970
L204.0483 44.1970
" />
<path d="M165.9483 65.3407
L165.9483 51.3407
" />
<path d="M127.8483 90.6314
L113.8483 90.6314
" />
<path d="M146.8983 64.4376
L132.8983 64.4376
" />
<path d="M170.9983 101.3470
L170.9983 115.3470
" />
<path d="M127.8483 52.5314
L113.8483 52.5314
" />
<path d="M165.9482 32.2907
L151.9482 32.2907
" />
<path d="M204.0483 44.1970
L190.0483 44.1970
" />
<path d="M108.7982 49.8626
L108.7982 35.8626
" />
<path d="M62.3887 109.9422
L51.2078 118.3676
" />
<path d="M132.8983 83.4876
L132.8983 97.4876
" />
<path d="M89.7483 59.3876
L89.7483 45.3876
" />
<path d="M204.5376 98.1330
L205.7578 84.1862
" />
<path d="M132.8982 26.3376
L132.8982 40.3376
" />
<path d="M184.9983 101.3470
L170.9983 101.3470
" />
<path d="M151.9483 65.3407
L165.9483 65.3407
" />
<path d="M51.2078 118.3676
L59.6332 129.5485
" />
<path d="M194.5233 136.7783
L194.5233 122.7783
" />
<path d="M132.8983 78.4376
L146.8983 78.4376
" />
<path d="M170.9983 96.2970
L184.9983 96.2970
" />
<path d="M108.7983 93.0126
L94.7983 93.0126
" />
<path d="M132.8982 40.3376
L146.8982 40.3376
" />
<path d="M132.8983 97.4876
L146.8983 97.4876
" />
<path d="M72.0326 148.0121
L81.9321 138.1126
" />
<path d="M75.7483 45.3876
L75.7483 59.3876
" />
<path d="M72.0326 128.2131
L62.1331 138.1126
" />
<path d="M205.7578 65.0034
L191.8111 63.7833
" />
<path d="M98.9543 127.6069
L91.9543 115.4825
" />
<path d="M89.7482 107.0127
L89.7482 93.0127
" />
<path d="M151.9482 32.2907
L151.9482 46.2907
" />
<path d="M146.8983 78.4376
L146.8983 64.4376
" />
<path d="M121.8951 126.0627
L121.8951 112.0627
" />
<path d="M127.8483 66.5314
L127.8483 52.5314
" />
<g >
</g>
<g >
</g>
<g >
</g>
<g >
</g>
<g >
</g>
<g >
</g>
<g >
</g>
<g >
</g>
<g >
</g>
<g >
</g>
<g >
</g>
<g >
</g>
<g >
</g>
<g >
</g>
<g >
</g>
<g >
</g>
<g >
</g>
<g >
</g>
<g >
</g>
<g >
</g>
<g >
</g>
<g >
</g>
<g >
</g>
<g >
</g>
<g >
</g>
<g >
</g>
<g >
</g>
<g >
</g>
<g >
</g>
<g >
</g>
<g >
</g>
<g >
</g>
<g >
</g>
<g >
</g>
<g >
</g>
<g >
</g>
<g >
</g>
<g >
</g>
<g >
</g>
<g >
</g>
<g >
</g>
<g >
</g>
<g >
</g>
<g >
</g>
<g >
</g>
<g >
</g>
<g >
</g>
<g >
</g>
<g >
</g>
<g >
</g>
<g >
</g>
<g >
</g>
<g >
</g>
<g >
</g>
<g >
</g>
<g >
</g>
<g >
</g>
<g >
</g>
<g >
</g>
<g >
</g>
<g >
</g>
<g >
</g>
<g >
</g>
<g >
</g>
<g >
</g>
</g> 
</svg>
