<?xml version="1.0" standalone="no"?>
 <!DOCTYPE svg PUBLIC "-//W3C//DTD SVG 1.1//EN" 
 "http://www.w3.org/Graphics/SVG/1.1/DTD/svg11.dtd"> 
<svg
  xmlns:svg="http://www.w3.org/2000/svg"
  xmlns="http://www.w3.org/2000/svg"
  xmlns:xlink="http://www.w3.org/1999/xlink"
  version="1.1"
  width="273.2278mm" height="186.3090mm" viewBox="0.0000 0.0000 273.2278 186.3090">
<title>SVG Image created as mykeeb_v7a3-User_4.svg date 2023/05/25 13:38:56 </title>
  <desc>Image generated by PCBNEW </desc>
<g style="fill:#000000; fill-opacity:1.0000;stroke:#000000; stroke-opacity:1.0000;
stroke-linecap:round; stroke-linejoin:round;"
 transform="translate(0 0) scale(1 1)">
</g>
<g style="fill:#000000; fill-opacity:0.0; 
stroke:#000000; stroke-width:0.0000; stroke-opacity:1; 
stroke-linecap:round; stroke-linejoin:round;">
</g>
<g style="fill:#000000; fill-opacity:0.0; 
stroke:#000000; stroke-width:0.1600; stroke-opacity:1; 
stroke-linecap:round; stroke-linejoin:round;">
<path d="M139.2160 135.8324
L137.5809 134.8654
" />
<path d="M205.5134 18.7526
L205.4149 18.6903
" />
<path d="M86.6404 31.0640
L86.4722 31.1107
" />
<path d="M48.5799 117.7753
L48.4923 117.9803
" />
<path d="M87.3339 30.9607
L87.1580 30.9738
" />
</g>
<g style="fill:#000000; fill-opacity:0.0; 
stroke:#000000; stroke-width:0.1000; stroke-opacity:1; 
stroke-linecap:round; stroke-linejoin:round;">
<path d="M76.4424 41.6893
L76.2679 41.7110
" />
</g>
<g style="fill:#000000; fill-opacity:0.0; 
stroke:#000000; stroke-width:0.1600; stroke-opacity:1; 
stroke-linecap:round; stroke-linejoin:round;">
<path d="M140.9724 136.9220
L139.2160 135.8324
" />
<path d="M141.9725 137.3140
L142.1443 137.3483
" />
<path d="M167.5783 23.0174
L167.6250 22.9435
" />
<path d="M175.1003 124.3543
L175.0074 124.2094
" />
<path d="M175.5762 125.6624
L175.5448 125.4865
" />
<path d="M166.1810 23.8104
L166.2689 23.8038
" />
</g>
<g style="fill:#000000; fill-opacity:0.0; 
stroke:#000000; stroke-width:0.1000; stroke-opacity:1; 
stroke-linecap:round; stroke-linejoin:round;">
<path d="M73.2626 44.7163
L73.2410 44.8907
" />
</g>
<g style="fill:#000000; fill-opacity:0.0; 
stroke:#000000; stroke-width:0.1600; stroke-opacity:1; 
stroke-linecap:round; stroke-linejoin:round;">
<path d="M206.5736 20.7339
L206.5707 20.6158
" />
<path d="M47.6485 161.6338
L47.8813 161.8025
" />
<path d="M168.1502 20.6597
L168.0874 20.8223
" />
</g>
<g style="fill:#000000; fill-opacity:0.0; 
stroke:#000000; stroke-width:0.1000; stroke-opacity:1; 
stroke-linecap:round; stroke-linejoin:round;">
<path d="M73.4326 44.0394
L73.3779 44.2049
" />
</g>
<g style="fill:#000000; fill-opacity:0.0; 
stroke:#000000; stroke-width:0.1600; stroke-opacity:1; 
stroke-linecap:round; stroke-linejoin:round;">
<path d="M108.1257 129.8636
L106.7812 129.9768
" />
<path d="M72.6234 98.4223
L72.7168 98.2746
" />
<path d="M154.3659 123.4607
L154.2066 123.6093
" />
<path d="M121.2304 29.6482
L121.3384 29.5096
" />
<path d="M95.1919 133.6602
L93.8487 134.3919
" />
</g>
<g style="fill:#000000; fill-opacity:0.0; 
stroke:#000000; stroke-width:0.1000; stroke-opacity:1; 
stroke-linecap:round; stroke-linejoin:round;">
<path d="M74.2697 42.7180
L74.1475 42.8464
" />
</g>
<g style="fill:#000000; fill-opacity:0.0; 
stroke:#000000; stroke-width:0.1600; stroke-opacity:1; 
stroke-linecap:round; stroke-linejoin:round;">
<path d="M199.4298 135.7314
L199.4298 129.7783
" />
</g>
<g style="fill:#000000; fill-opacity:0.0; 
stroke:#000000; stroke-width:0.1000; stroke-opacity:1; 
stroke-linecap:round; stroke-linejoin:round;">
<path d="M73.5660 43.7175
L73.4954 43.8769
" />
</g>
<g style="fill:#000000; fill-opacity:0.0; 
stroke:#000000; stroke-width:0.1600; stroke-opacity:1; 
stroke-linecap:round; stroke-linejoin:round;">
<path d="M206.5274 20.2671
L206.5018 20.1534
" />
<path d="M62.2834 166.9470
L62.3800 166.8653
" />
<path d="M201.7736 126.4230
L201.6114 126.4870
" />
<path d="M83.9000 38.6274
L83.9216 38.4530
" />
<path d="M169.9240 18.7972
L169.7682 18.8755
" />
<path d="M121.8301 28.5889
L121.8849 28.4233
" />
<path d="M205.7579 124.9065
L205.8639 124.7716
" />
<path d="M62.0800 167.0953
L62.1834 167.0237
" />
<path d="M124.9110 23.8817
L124.7404 23.9202
" />
<path d="M124.7404 23.9202
L124.5723 23.9669
" />
<path d="M170.2458 18.6638
L170.0833 18.7266
" />
<path d="M93.8487 134.3919
L92.5381 135.1421
" />
<path d="M126.9112 130.4043
L126.0186 130.2388
" />
<path d="M204.5502 125.8541
L204.7042 125.7752
" />
<path d="M112.5886 129.6682
L111.0282 129.7133
" />
<path d="M199.9469 127.9261
L199.8609 128.0757
" />
<path d="M206.2931 19.6124
L206.2358 19.5112
" />
<path d="M144.6270 136.8736
L144.7723 136.7797
" />
<path d="M206.2928 124.0248
L206.3567 123.8626
" />
<path d="M60.0287 167.4565
L60.1550 167.4834
" />
<path d="M153.9169 123.9383
L153.7877 124.1180
" />
</g>
<g style="fill:#000000; fill-opacity:0.0; 
stroke:#000000; stroke-width:0.1000; stroke-opacity:1; 
stroke-linecap:round; stroke-linejoin:round;">
<path d="M172.0455 122.6345
L156.5673 122.6345
" />
</g>
<g style="fill:#000000; fill-opacity:0.0; 
stroke:#000000; stroke-width:0.1600; stroke-opacity:1; 
stroke-linecap:round; stroke-linejoin:round;">
<path d="M206.1735 19.4126
L206.1063 19.3170
" />
<path d="M205.7905 18.9685
L205.7014 18.8918
" />
<path d="M124.2442 24.0844
L124.0849 24.1550
" />
<path d="M47.0422 161.0368
L47.2283 161.2500
" />
<path d="M172.4108 122.6529
L172.2294 122.6391
" />
<path d="M73.1844 96.9681
L73.2060 96.7937
" />
<path d="M77.9554 146.6206
L75.7145 148.8841
" />
<path d="M203.3669 126.1879
L203.5457 126.1652
" />
<path d="M83.9347 38.2771
L83.9391 38.1000
" />
<path d="M83.0458 141.7693
L82.1534 142.5773
" />
</g>
<g style="fill:#000000; fill-opacity:0.0; 
stroke:#000000; stroke-width:0.1000; stroke-opacity:1; 
stroke-linecap:round; stroke-linejoin:round;">
<path d="M76.2679 41.7110
L76.0953 41.7411
" />
</g>
<g style="fill:#000000; fill-opacity:0.0; 
stroke:#000000; stroke-width:0.1600; stroke-opacity:1; 
stroke-linecap:round; stroke-linejoin:round;">
<path d="M177.0642 138.6025
L177.2076 138.7032
" />
<path d="M175.7250 136.6021
L175.7717 136.7703
" />
<path d="M204.3920 125.9256
L204.5502 125.8541
" />
<path d="M154.2066 123.6093
L154.0567 123.7686
" />
<path d="M206.6503 34.5665
L206.8527 41.1603
" />
<path d="M50.0063 116.0861
L49.8224 116.2191
" />
<path d="M198.2553 138.3793
L198.3837 138.2571
" />
<path d="M80.1498 144.4687
L79.0674 145.5214
" />
<path d="M199.2754 136.7702
L199.3221 136.6020
" />
<path d="M173.1077 122.7951
L172.9382 122.7470
" />
<path d="M64.0387 164.3101
L63.0012 166.0399
" />
<path d="M169.1864 19.2636
L169.0528 19.3788
" />
<path d="M167.6680 22.8676
L167.7071 22.7897
" />
<path d="M46.8728 160.8110
L47.0422 161.0368
" />
<path d="M121.3384 29.5096
L121.4392 29.3662
" />
<path d="M123.6294 24.4126
L123.4860 24.5134
" />
<path d="M205.1035 18.5338
L204.9951 18.4920
" />
<path d="M96.5479 132.9657
L95.1919 133.6602
" />
<path d="M82.8930 40.6257
L83.0151 40.4973
" />
<path d="M111.0282 129.7133
L109.5376 129.7783
" />
<path d="M83.9567 34.1751
L83.9436 34.3511
" />
</g>
<g style="fill:#000000; fill-opacity:0.0; 
stroke:#000000; stroke-width:0.1000; stroke-opacity:1; 
stroke-linecap:round; stroke-linejoin:round;">
<path d="M73.2410 44.8907
L73.2279 45.0667
" />
</g>
<g style="fill:#000000; fill-opacity:0.0; 
stroke:#000000; stroke-width:0.1600; stroke-opacity:1; 
stroke-linecap:round; stroke-linejoin:round;">
<path d="M106.7812 129.9768
L105.4880 130.1272
" />
<path d="M203.5457 126.1652
L203.7215 126.1338
" />
<path d="M120.4490 30.3563
L120.5924 30.2555
" />
<path d="M206.2213 124.1830
L206.2928 124.0248
" />
<path d="M171.0972 18.4722
L170.9227 18.4938
" />
<path d="M73.1158 97.3113
L73.1542 97.1408
" />
<path d="M170.5795 18.5624
L170.4113 18.6091
" />
<path d="M101.1293 131.0808
L100.5008 131.2868
" />
<path d="M48.2551 118.8446
L48.2252 119.0697
" />
<path d="M117.5488 129.6629
L115.8629 129.6418
" />
<path d="M48.2252 119.0697
L46.2068 158.3797
" />
<path d="M122.0567 27.0314
L122.0436 27.2074
" />
</g>
<g style="fill:#000000; fill-opacity:0.0; 
stroke:#000000; stroke-width:0.1000; stroke-opacity:1; 
stroke-linecap:round; stroke-linejoin:round;">
<path d="M75.5910 41.8810
L75.4285 41.9437
" />
</g>
<g style="fill:#000000; fill-opacity:0.0; 
stroke:#000000; stroke-width:0.1600; stroke-opacity:1; 
stroke-linecap:round; stroke-linejoin:round;">
<path d="M205.2737 125.3907
L205.4033 125.2784
" />
<path d="M200.3577 127.3766
L200.2454 127.5062
" />
<path d="M206.3923 19.8225
L206.3453 19.7163
" />
<path d="M176.3182 137.8565
L176.4262 137.9952
" />
</g>
<g style="fill:#000000; fill-opacity:0.0; 
stroke:#000000; stroke-width:0.1000; stroke-opacity:1; 
stroke-linecap:round; stroke-linejoin:round;">
<path d="M73.4954 43.8769
L73.4326 44.0394
" />
</g>
<g style="fill:#000000; fill-opacity:0.0; 
stroke:#000000; stroke-width:0.1600; stroke-opacity:1; 
stroke-linecap:round; stroke-linejoin:round;">
<path d="M119.1674 30.8871
L119.3380 30.8487
" />
<path d="M46.2997 159.5278
L46.3758 159.8015
" />
<path d="M66.6979 160.0318
L65.8807 161.3174
" />
<path d="M72.5226 98.5657
L72.6234 98.4223
" />
<path d="M206.1063 19.3170
L206.0343 19.2246
" />
<path d="M123.0854 24.8587
L122.9632 24.9870
" />
<path d="M61.6380 167.3290
L61.7524 167.2786
" />
<path d="M82.6310 40.8630
L82.7646 40.7478
" />
<path d="M60.6619 167.5280
L60.7879 167.5237
" />
<path d="M199.8609 128.0757
L199.7820 128.2297
" />
<path d="M121.1152 29.7819
L121.2304 29.6482
" />
<path d="M202.1090 126.3187
L201.9395 126.3669
" />
<path d="M85.6771 31.4630
L85.5293 31.5564
" />
<path d="M176.9255 138.4945
L177.0642 138.6025
" />
<path d="M80.8948 41.6327
L81.0674 41.6026
" />
<path d="M204.5439 18.3786
L204.4276 18.3642
" />
<path d="M83.5967 39.6262
L83.6673 39.4669
" />
<path d="M205.6090 18.8198
L205.5134 18.7526
" />
<path d="M73.2060 96.7937
L73.2191 96.6178
" />
<path d="M171.2731 18.4591
L171.0972 18.4722
" />
<path d="M83.8314 38.9706
L83.8699 38.8001
" />
<path d="M197.5400 138.8825
L197.6919 138.7966
" />
<path d="M46.4718 160.0677
L46.5870 160.3254
" />
<path d="M83.9216 38.4530
L83.9347 38.2771
" />
<path d="M100.5008 131.2868
L99.8648 131.5138
" />
<path d="M84.4459 32.6943
L84.3600 32.8462
" />
<path d="M120.5924 30.2555
L120.7311 30.1475
" />
<path d="M86.2663 139.1655
L85.4647 139.7618
" />
<path d="M175.6217 135.9085
L175.6348 136.0844
" />
<path d="M82.0493 41.2511
L82.2012 41.1652
" />
<path d="M198.9231 137.5653
L199.0091 137.4133
" />
<path d="M179.1892 139.3033
L195.8580 139.3033
" />
<path d="M145.1815 136.4543
L145.3079 136.3316
" />
<path d="M122.3111 26.0175
L122.2483 26.1801
" />
<path d="M46.2098 158.9623
L46.2442 159.2478
" />
<path d="M122.1085 26.6844
L122.0783 26.8570
" />
<path d="M47.2283 161.2500
L47.4306 161.4493
" />
<path d="M61.9736 167.1617
L62.0800 167.0953
" />
<path d="M201.2991 126.6374
L201.1495 126.7234
" />
<path d="M202.6365 126.2247
L202.4577 126.2474
" />
<path d="M144.4777 136.9601
L144.6270 136.8736
" />
<path d="M199.4254 135.9085
L199.4298 135.7314
" />
<path d="M167.8958 21.6736
L167.8827 21.8496
" />
</g>
<g style="fill:#000000; fill-opacity:0.0; 
stroke:#000000; stroke-width:0.1000; stroke-opacity:1; 
stroke-linecap:round; stroke-linejoin:round;">
<path d="M74.0324 42.9800
L73.9244 43.1187
" />
</g>
<g style="fill:#000000; fill-opacity:0.0; 
stroke:#000000; stroke-width:0.1600; stroke-opacity:1; 
stroke-linecap:round; stroke-linejoin:round;">
<path d="M205.5273 125.1601
L205.6456 125.0361
" />
<path d="M206.8527 41.1603
L207.1387 46.3170
" />
<path d="M200.1394 127.6411
L200.0398 127.7812
" />
<path d="M132.0821 132.0684
L130.9251 131.5984
" />
<path d="M144.3248 137.0392
L144.4777 136.9601
" />
<path d="M171.4502 18.4547
L171.2731 18.4591
" />
<path d="M122.6346 129.8775
L120.9487 129.7796
" />
<path d="M197.9830 138.6024
L198.1217 138.4944
" />
<path d="M59.5313 167.2830
L59.6540 167.3363
" />
<path d="M99.2191 131.7628
L98.5626 132.0344
" />
<path d="M168.6872 19.7629
L168.5792 19.9016
" />
<path d="M119.2488 129.7085
L117.5488 129.6629
" />
<path d="M170.9227 18.4938
L170.7501 18.5239
" />
<path d="M81.0674 41.6026
L81.2380 41.5641
" />
<path d="M198.5058 138.1288
L198.6210 137.9951
" />
<path d="M73.0143 97.6450
L73.0691 97.4795
" />
<path d="M87.1064 138.5727
L86.2663 139.1655
" />
<path d="M206.4707 20.0412
L206.4342 19.9309
" />
<path d="M177.2076 138.7032
L177.3554 138.7966
" />
<path d="M122.5459 25.5505
L122.4600 25.7025
" />
<path d="M68.1561 157.8248
L67.4542 158.8714
" />
<path d="M81.8935 41.3294
L82.0493 41.2511
" />
<path d="M81.5716 41.4627
L81.7342 41.4000
" />
<path d="M119.6717 30.7473
L119.8342 30.6845
" />
<path d="M167.7738 22.6288
L167.8011 22.5460
" />
<path d="M136.0585 134.0132
L134.6403 133.2681
" />
<path d="M70.5456 154.5486
L69.9983 155.2540
" />
<path d="M177.8224 139.0314
L177.9849 139.0942
" />
<path d="M199.4710 129.2343
L199.4482 129.4131
" />
<path d="M177.9849 139.0942
L178.1504 139.1489
" />
<path d="M65.8807 161.3174
L64.9964 162.7397
" />
<path d="M167.4163 23.2253
L167.4739 23.1585
" />
<path d="M204.2298 125.9896
L204.3920 125.9256
" />
<path d="M169.3251 19.1556
L169.1864 19.2636
" />
<path d="M81.2380 41.5641
L81.4061 41.5175
" />
<path d="M205.4149 18.6903
L205.3136 18.6330
" />
<path d="M69.9983 155.2540
L69.4218 156.0275
" />
<path d="M177.6631 138.9609
L177.8224 139.0314
" />
<path d="M86.3067 31.1654
L86.1441 31.2282
" />
<path d="M141.1339 137.0098
L141.2979 137.0886
" />
<path d="M72.1773 98.9664
L72.2994 98.8380
" />
<path d="M199.1580 137.0983
L199.2207 136.9357
" />
<path d="M206.0564 124.4866
L206.1424 124.3370
" />
<path d="M199.7820 128.2297
L199.7105 128.3879
" />
<path d="M145.5440 136.0653
L145.6531 135.9219
" />
<path d="M145.6531 135.9219
L145.7558 135.7717
" />
<path d="M155.6943 122.7503
L155.4860 122.8140
" />
<path d="M122.1469 26.5138
L122.1085 26.6844
" />
<path d="M84.2111 33.1613
L84.1483 33.3238
" />
<path d="M199.0874 137.2576
L199.1580 137.0983
" />
<path d="M48.3893 162.0879
L59.5313 167.2830
" />
<path d="M199.5423 128.8856
L199.5024 129.0584
" />
<path d="M119.8342 30.6845
L119.9936 30.6140
" />
<path d="M73.2191 96.6178
L73.2235 96.4407
" />
<path d="M168.4784 20.0449
L168.3850 20.1927
" />
<path d="M199.7105 128.3879
L199.6465 128.5501
" />
<path d="M143.6827 137.2789
L143.8472 137.2306
" />
<path d="M84.6400 32.4031
L84.5393 32.5465
" />
<path d="M123.4860 24.5134
L123.3474 24.6214
" />
<path d="M46.3758 159.8015
L46.4718 160.0677
" />
<path d="M121.4392 29.3662
L121.5326 29.2184
" />
<path d="M83.2383 40.2250
L83.3390 40.0817
" />
<path d="M122.0436 27.2074
L122.0392 27.3845
" />
<path d="M145.8517 135.6149
L153.6698 124.3074
" />
<path d="M144.9134 136.6784
L145.0499 136.5700
" />
<path d="M166.0924 23.8126
L166.1810 23.8104
" />
<path d="M208.3596 62.5079
L208.3596 82.1532
" />
<path d="M204.7727 18.4244
L204.6590 18.3987
" />
<path d="M176.6635 138.2572
L176.7919 138.3793
" />
<path d="M115.8629 129.6418
L114.2048 129.6439
" />
<path d="M73.5711 151.1104
L72.5696 152.1813
" />
<path d="M208.0805 56.5827
L208.2829 59.4092
" />
<path d="M196.3855 139.2642
L196.5581 139.2341
" />
<path d="M49.4803 116.5121
L49.3226 116.6712
" />
<path d="M206.1424 124.3370
L206.2213 124.1830
" />
<path d="M196.7286 139.1956
L196.8968 139.1489
" />
<path d="M145.7558 135.7717
L145.8517 135.6149
" />
<path d="M166.3561 23.7930
L166.4425 23.7779
" />
<path d="M174.8018 123.9344
L174.6895 123.8048
" />
<path d="M199.3606 136.4315
L199.3907 136.2588
" />
<path d="M48.1285 161.9542
L48.3893 162.0879
" />
<path d="M200.8646 126.9159
L200.7296 127.0220
" />
</g>
<g style="fill:#000000; fill-opacity:0.0; 
stroke:#000000; stroke-width:0.1000; stroke-opacity:1; 
stroke-linecap:round; stroke-linejoin:round;">
<path d="M74.9615 42.1786
L74.8137 42.2720
" />
</g>
<g style="fill:#000000; fill-opacity:0.0; 
stroke:#000000; stroke-width:0.1600; stroke-opacity:1; 
stroke-linecap:round; stroke-linejoin:round;">
<path d="M198.8297 137.7131
L198.9231 137.5653
" />
<path d="M174.9078 124.0693
L174.8018 123.9344
" />
<path d="M85.9848 31.2988
L85.8291 31.3771
" />
<path d="M206.4610 123.5271
L206.5009 123.3543
" />
<path d="M60.2817 167.5040
L60.4086 167.5182
" />
<path d="M49.6470 116.3613
L49.4803 116.5121
" />
<path d="M143.1779 137.3760
L143.3478 137.3517
" />
<path d="M141.4641 137.1583
L141.6321 137.2190
" />
<path d="M166.7759 23.6766
L166.8555 23.6413
" />
<path d="M62.9403 166.1590
L63.0012 166.0399
" />
<path d="M206.5688 122.8183
L206.5735 122.6345
" />
<path d="M62.1834 167.0237
L62.2834 166.9470
" />
<path d="M206.0343 19.2246
L205.9575 19.1355
" />
<path d="M79.0674 145.5214
L77.9554 146.6206
" />
<path d="M203.1855 126.2017
L203.3669 126.1879
" />
<path d="M176.1240 137.5654
L176.2174 137.7132
" />
<path d="M72.8027 98.1226
L72.8810 97.9669
" />
<path d="M205.2097 18.5808
L205.1035 18.5338
" />
<path d="M175.0074 124.2094
L174.9078 124.0693
" />
<path d="M199.5024 129.0584
L199.4710 129.2343
" />
<path d="M142.3168 137.3740
L142.4896 137.3912
" />
<path d="M166.9334 23.6022
L167.0094 23.5592
" />
<path d="M154.5341 123.3231
L154.3659 123.4607
" />
<path d="M90.0936 136.6241
L88.9993 137.3186
" />
<path d="M175.9598 137.2577
L176.0381 137.4134
" />
<path d="M122.0217 27.7375
L122.0348 27.5616
" />
<path d="M204.9987 125.5963
L205.1388 125.4967
" />
<path d="M167.8587 22.2903
L167.8696 22.2031
" />
<path d="M121.8849 28.4233
L121.9315 28.2551
" />
<path d="M167.3553 23.2895
L167.4163 23.2253
" />
<path d="M48.6782 117.5756
L48.5799 117.7753
" />
<path d="M154.0567 123.7686
L153.9169 123.9383
" />
<path d="M156.3444 122.6419
L156.1241 122.6639
" />
<path d="M84.7481 32.2645
L84.6400 32.4031
" />
<path d="M178.6618 139.2642
L178.8363 139.2858
" />
<path d="M173.5941 122.9868
L173.4359 122.9152
" />
<path d="M61.0375 167.4970
L61.1608 167.4748
" />
<path d="M122.0348 27.5616
L122.0392 27.3845
" />
<path d="M130.9251 131.5984
L129.8381 131.2047
" />
<path d="M129.8381 131.2047
L128.8124 130.8796
" />
<path d="M207.4666 50.3784
L208.0805 56.5827
" />
<path d="M196.2110 139.2859
L196.3855 139.2642
" />
<path d="M142.1443 137.3483
L142.3168 137.3740
" />
<path d="M82.3490 41.0717
L82.4923 40.9710
" />
<path d="M86.9836 30.9954
L86.8109 31.0255
" />
<path d="M48.2969 118.6227
L48.2551 118.8446
" />
<path d="M200.2454 127.5062
L200.1394 127.6411
" />
<path d="M145.4289 136.2019
L145.5440 136.0653
" />
<path d="M155.4860 122.8140
L155.2828 122.8908
" />
<path d="M205.4033 125.2784
L205.5273 125.1601
" />
<path d="M67.4542 158.8714
L66.6979 160.0318
" />
<path d="M204.6590 18.3987
L204.5439 18.3786
" />
<path d="M64.9964 162.7397
L64.0387 164.3101
" />
<path d="M62.7271 166.4898
L62.8030 166.3841
" />
<path d="M176.7919 138.3793
L176.9255 138.4945
" />
<path d="M48.3506 118.4045
L48.2969 118.6227
" />
<path d="M202.2818 126.2789
L202.1090 126.3187
" />
<path d="M85.1137 31.8803
L84.9853 32.0025
" />
<path d="M86.1441 31.2282
L85.9848 31.2988
" />
<path d="M46.2068 158.3797
L46.1971 158.6726
" />
<path d="M61.1608 167.4748
L61.2826 167.4469
" />
<path d="M199.4482 129.4131
L199.4345 129.5945
" />
<path d="M179.0122 139.2989
L179.1893 139.3033
" />
<path d="M118.4673 30.9564
L118.6444 30.9520
" />
<path d="M114.2048 129.6439
L112.5886 129.6682
" />
<path d="M167.7071 22.7897
L167.7424 22.7100
" />
<path d="M199.4345 129.5945
L199.4298 129.7783
" />
<path d="M178.4892 139.2340
L178.6618 139.2642
" />
<path d="M83.7847 39.1388
L83.8314 38.9706
" />
<path d="M98.5626 132.0344
L97.8969 132.3270
" />
<path d="M46.1971 158.6726
L46.2098 158.9623
" />
<path d="M122.4600 25.7025
L122.3817 25.8582
" />
<path d="M121.9315 28.2551
L121.9700 28.0846
" />
<path d="M84.1483 33.3238
L84.0936 33.4893
" />
<path d="M168.9244 19.5009
L168.8023 19.6292
" />
<path d="M167.9476 21.3266
L167.9174 21.4992
" />
<path d="M92.5381 135.1421
L91.2798 135.8924
" />
<path d="M201.9395 126.3669
L201.7736 126.4230
" />
<path d="M197.0623 139.0942
L197.2249 139.0314
" />
<path d="M205.8639 124.7716
L205.9635 124.6315
" />
</g>
<g style="fill:#000000; fill-opacity:0.0; 
stroke:#000000; stroke-width:0.1000; stroke-opacity:1; 
stroke-linecap:round; stroke-linejoin:round;">
<path d="M73.7302 43.4099
L73.6443 43.5618
" />
</g>
<g style="fill:#000000; fill-opacity:0.0; 
stroke:#000000; stroke-width:0.1600; stroke-opacity:1; 
stroke-linecap:round; stroke-linejoin:round;">
<path d="M46.5870 160.3254
L46.7209 160.5735
" />
<path d="M72.0758 152.7279
L71.5780 153.2970
" />
<path d="M123.9291 24.2333
L123.7772 24.3192
" />
<path d="M62.6467 166.5908
L62.7271 166.4898
" />
<path d="M175.6174 126.2064
L175.6127 126.0226
" />
<path d="M166.2689 23.8038
L166.3561 23.7930
" />
<path d="M80.3673 41.6719
L80.5444 41.6675
" />
<path d="M69.4218 156.0275
L68.8099 156.8806
" />
<path d="M73.1542 97.1408
L73.1844 96.9681
" />
<path d="M177.3554 138.7966
L177.5073 138.8825
" />
<path d="M143.8472 137.2306
L144.0092 137.1745
" />
<path d="M205.9635 124.6315
L206.0564 124.4866
" />
<path d="M205.7014 18.8918
L205.6090 18.8198
" />
<path d="M168.0874 20.8223
L168.0327 20.9878
" />
</g>
<g style="fill:#000000; fill-opacity:0.0; 
stroke:#000000; stroke-width:0.1000; stroke-opacity:1; 
stroke-linecap:round; stroke-linejoin:round;">
<path d="M73.8236 43.2621
L73.7302 43.4099
" />
</g>
<g style="fill:#000000; fill-opacity:0.0; 
stroke:#000000; stroke-width:0.1600; stroke-opacity:1; 
stroke-linecap:round; stroke-linejoin:round;">
<path d="M141.2979 137.0886
L141.4641 137.1583
" />
</g>
<g style="fill:#000000; fill-opacity:0.0; 
stroke:#000000; stroke-width:0.1000; stroke-opacity:1; 
stroke-linecap:round; stroke-linejoin:round;">
<path d="M73.6443 43.5618
L73.5660 43.7175
" />
</g>
<g style="fill:#000000; fill-opacity:0.0; 
stroke:#000000; stroke-width:0.1600; stroke-opacity:1; 
stroke-linecap:round; stroke-linejoin:round;">
<path d="M200.7296 127.0220
L200.6000 127.1342
" />
<path d="M72.5696 152.1813
L72.0758 152.7279
" />
<path d="M204.9951 18.4920
L204.8848 18.4555
" />
</g>
<g style="fill:#000000; fill-opacity:0.0; 
stroke:#000000; stroke-width:0.1000; stroke-opacity:1; 
stroke-linecap:round; stroke-linejoin:round;">
<path d="M87.5110 30.9563
L118.4673 30.9564
" />
</g>
<g style="fill:#000000; fill-opacity:0.0; 
stroke:#000000; stroke-width:0.1600; stroke-opacity:1; 
stroke-linecap:round; stroke-linejoin:round;">
<path d="M204.3103 18.3555
L204.1922 18.3526
" />
<path d="M122.0001 27.9119
L122.0217 27.7375
" />
<path d="M84.6770 140.3813
L83.8788 141.0439
" />
<path d="M167.1549 23.4621
L167.2243 23.4081
" />
<path d="M101.7523 130.8946
L101.1293 131.0808
" />
<path d="M153.7877 124.1180
L153.6698 124.3074
" />
<path d="M86.4722 31.1107
L86.3067 31.1654
" />
<path d="M204.4276 18.3642
L204.3103 18.3555
" />
<path d="M121.5326 29.2184
L121.6185 29.0665
" />
<path d="M204.0638 126.0458
L204.2298 125.9896
" />
<path d="M88.0092 137.9636
L87.1064 138.5727
" />
<path d="M198.7290 137.8564
L198.8297 137.7131
" />
<path d="M124.0849 24.1550
L123.9291 24.2333
" />
<path d="M126.0186 130.2388
L124.3063 130.0134
" />
<path d="M105.4880 130.1272
L104.2296 130.3241
" />
<path d="M83.9436 34.3511
L83.9392 34.5282
" />
<path d="M118.6444 30.9520
L118.8204 30.9389
" />
<path d="M167.0833 23.5125
L167.1549 23.4621
" />
<path d="M175.5049 125.3137
L175.4568 125.1443
" />
<path d="M61.7524 167.2786
L61.8643 167.2228
" />
<path d="M61.2826 167.4469
L61.4030 167.4132
" />
<path d="M178.1504 139.1489
L178.3186 139.1956
" />
<path d="M71.0701 153.9001
L70.5456 154.5486
" />
<path d="M200.6000 127.1342
L200.4760 127.2525
" />
<path d="M81.7342 41.4000
L81.8935 41.3294
" />
<path d="M83.6673 39.4669
L83.7300 39.3043
" />
<path d="M80.5444 41.6675
L80.7203 41.6544
" />
<path d="M60.5354 167.5262
L60.6619 167.5280
" />
<path d="M202.8179 126.2109
L202.6365 126.2247
" />
<path d="M122.2483 26.1801
L122.1936 26.3456
" />
<path d="M122.8481 25.1207
L122.7401 25.2594
" />
<path d="M87.1580 30.9738
L86.9836 30.9954
" />
<path d="M206.5018 20.1534
L206.4707 20.0412
" />
</g>
<g style="fill:#000000; fill-opacity:0.0; 
stroke:#000000; stroke-width:0.1000; stroke-opacity:1; 
stroke-linecap:round; stroke-linejoin:round;">
<path d="M74.8137 42.2720
L74.6703 42.3727
" />
</g>
<g style="fill:#000000; fill-opacity:0.0; 
stroke:#000000; stroke-width:0.1600; stroke-opacity:1; 
stroke-linecap:round; stroke-linejoin:round;">
<path d="M120.1493 30.5356
L120.3012 30.4497
" />
<path d="M72.4146 98.7044
L72.5226 98.5657
" />
<path d="M61.8643 167.2228
L61.9736 167.1617
" />
<path d="M127.8397 130.6154
L126.9112 130.4043
" />
<path d="M177.5073 138.8825
L177.6631 138.9609
" />
<path d="M48.7870 117.3816
L48.6782 117.5756
" />
<path d="M175.8892 137.0984
L175.9598 137.2577
" />
<path d="M72.2994 98.8380
L72.4146 98.7044
" />
<path d="M170.0833 18.7266
L169.9240 18.7972
" />
<path d="M123.2137 24.7366
L123.0854 24.8587
" />
<path d="M61.4030 167.4132
L61.5215 167.3739
" />
<path d="M167.4739 23.1585
L167.5279 23.0891
" />
<path d="M196.8968 139.1489
L197.0623 139.0942
" />
</g>
<g style="fill:#000000; fill-opacity:0.0; 
stroke:#000000; stroke-width:0.1000; stroke-opacity:1; 
stroke-linecap:round; stroke-linejoin:round;">
<path d="M75.2692 42.0143
L75.1134 42.0926
" />
</g>
<g style="fill:#000000; fill-opacity:0.0; 
stroke:#000000; stroke-width:0.1600; stroke-opacity:1; 
stroke-linecap:round; stroke-linejoin:round;">
<path d="M155.2828 122.8908
L155.0854 122.9805
" />
<path d="M199.0091 137.4133
L199.0874 137.2576
" />
<path d="M197.8397 138.7032
L197.9830 138.6024
" />
</g>
<g style="fill:#000000; fill-opacity:0.0; 
stroke:#000000; stroke-width:0.1000; stroke-opacity:1; 
stroke-linecap:round; stroke-linejoin:round;">
<path d="M73.3779 44.2049
L73.3312 44.3731
" />
</g>
<g style="fill:#000000; fill-opacity:0.0; 
stroke:#000000; stroke-width:0.1600; stroke-opacity:1; 
stroke-linecap:round; stroke-linejoin:round;">
<path d="M72.8810 97.9669
L72.9516 97.8076
" />
<path d="M97.8969 132.3270
L96.5479 132.9657
" />
<path d="M120.7311 30.1475
L120.8647 30.0324
" />
<path d="M167.5279 23.0891
L167.5783 23.0174
" />
<path d="M134.6403 133.2681
L133.3177 132.6224
" />
<path d="M60.4086 167.5182
L60.5354 167.5262
" />
<path d="M59.9030 167.4230
L60.0287 167.4565
" />
<path d="M156.1241 122.6639
L155.9073 122.7002
" />
<path d="M124.3063 130.0134
L122.6346 129.8775
" />
<path d="M123.7772 24.3192
L123.6294 24.4126
" />
<path d="M84.9853 32.0025
L84.8632 32.1308
" />
<path d="M88.9993 137.3186
L88.0092 137.9636
" />
<path d="M142.4896 137.3912
L142.6624 137.3999
" />
<path d="M125.2581 23.8300
L125.0836 23.8516
" />
<path d="M176.2174 137.7132
L176.3182 137.8565
" />
<path d="M170.7501 18.5239
L170.5795 18.5624
" />
<path d="M122.7401 25.2594
L122.6393 25.4027
" />
<path d="M208.3596 82.1532
L206.5735 122.6345
" />
<path d="M205.3136 18.6330
L205.2097 18.5808
" />
</g>
<g style="fill:#000000; fill-opacity:0.0; 
stroke:#000000; stroke-width:0.1000; stroke-opacity:1; 
stroke-linecap:round; stroke-linejoin:round;">
<path d="M73.2928 44.5437
L73.2626 44.7163
" />
</g>
<g style="fill:#000000; fill-opacity:0.0; 
stroke:#000000; stroke-width:0.1600; stroke-opacity:1; 
stroke-linecap:round; stroke-linejoin:round;">
<path d="M142.8349 137.4002
L143.0069 137.3922
" />
<path d="M49.8224 116.2191
L49.6470 116.3613
" />
<path d="M169.6163 18.9614
L169.4685 19.0548
" />
<path d="M205.9575 19.1355
L205.8761 19.0499
" />
<path d="M61.5215 167.3739
L61.6380 167.3290
" />
<path d="M141.6321 137.2190
L141.8017 137.2709
" />
<path d="M203.7215 126.1338
L203.8944 126.0939
" />
<path d="M169.0528 19.3788
L168.9244 19.5009
" />
<path d="M167.7424 22.7100
L167.7738 22.6288
" />
</g>
<g style="fill:#000000; fill-opacity:0.0; 
stroke:#000000; stroke-width:0.1000; stroke-opacity:1; 
stroke-linecap:round; stroke-linejoin:round;">
<path d="M73.9244 43.1187
L73.8236 43.2621
" />
</g>
<g style="fill:#000000; fill-opacity:0.0; 
stroke:#000000; stroke-width:0.1600; stroke-opacity:1; 
stroke-linecap:round; stroke-linejoin:round;">
<path d="M83.8699 38.8001
L83.9000 38.6274
" />
<path d="M119.3380 30.8487
L119.5062 30.8020
" />
<path d="M172.2294 122.6391
L172.0456 122.6345
" />
<path d="M144.1685 137.1106
L144.3248 137.0392
" />
<path d="M82.1534 142.5773
L81.1844 143.4811
" />
<path d="M167.8437 22.3766
L167.8587 22.2903
" />
<path d="M167.8696 22.2031
L167.8761 22.1151
" />
<path d="M198.6210 137.9951
L198.7290 137.8564
" />
<path d="M173.8977 123.1517
L173.7481 123.0657
" />
<path d="M86.8109 31.0255
L86.6404 31.0640
" />
<path d="M174.3176 123.4502
L174.1827 123.3442
" />
<path d="M104.2296 130.3241
L103.6083 130.4429
" />
<path d="M175.4568 125.1443
L175.4007 124.9783
" />
<path d="M84.0936 33.4893
L84.0469 33.6575
" />
<path d="M167.9860 21.1560
L167.9476 21.3266
" />
<path d="M203.0017 126.2063
L202.8179 126.2109
" />
<path d="M201.4531 126.5585
L201.2991 126.6374
" />
<path d="M178.8363 139.2858
L179.0122 139.2989
" />
<path d="M167.6250 22.9435
L167.6680 22.8676
" />
<path d="M80.7203 41.6544
L80.8948 41.6327
" />
<path d="M166.6118 23.7354
L166.6946 23.7080
" />
<path d="M123.3474 24.6214
L123.2137 24.7366
" />
</g>
<g style="fill:#000000; fill-opacity:0.0; 
stroke:#000000; stroke-width:0.1000; stroke-opacity:1; 
stroke-linecap:round; stroke-linejoin:round;">
<path d="M75.9248 41.7796
L75.7566 41.8262
" />
</g>
<g style="fill:#000000; fill-opacity:0.0; 
stroke:#000000; stroke-width:0.1600; stroke-opacity:1; 
stroke-linecap:round; stroke-linejoin:round;">
<path d="M175.6173 135.7314
L175.6174 126.2064
" />
<path d="M71.5780 153.2970
L71.0701 153.9001
" />
<path d="M196.5581 139.2341
L196.7286 139.1956
" />
<path d="M172.9382 122.7470
L172.7654 122.7071
" />
</g>
<g style="fill:#000000; fill-opacity:0.0; 
stroke:#000000; stroke-width:0.1000; stroke-opacity:1; 
stroke-linecap:round; stroke-linejoin:round;">
<path d="M80.3673 41.6719
L76.7954 41.6719
" />
</g>
<g style="fill:#000000; fill-opacity:0.0; 
stroke:#000000; stroke-width:0.1600; stroke-opacity:1; 
stroke-linecap:round; stroke-linejoin:round;">
<path d="M206.4342 19.9309
L206.3923 19.8225
" />
<path d="M48.9062 117.1938
L48.7870 117.3816
" />
<path d="M175.2652 124.6579
L175.1863 124.5039
" />
</g>
<g style="fill:#000000; fill-opacity:0.0; 
stroke:#000000; stroke-width:0.1000; stroke-opacity:1; 
stroke-linecap:round; stroke-linejoin:round;">
<path d="M76.0953 41.7411
L75.9248 41.7796
" />
<path d="M74.1475 42.8464
L74.0324 42.9800
" />
</g>
<g style="fill:#000000; fill-opacity:0.0; 
stroke:#000000; stroke-width:0.1600; stroke-opacity:1; 
stroke-linecap:round; stroke-linejoin:round;">
<path d="M167.8827 21.8496
L167.8783 22.0267
" />
<path d="M49.3226 116.6712
L49.1742 116.8381
" />
</g>
<g style="fill:#000000; fill-opacity:0.0; 
stroke:#000000; stroke-width:0.1000; stroke-opacity:1; 
stroke-linecap:round; stroke-linejoin:round;">
<path d="M206.5736 26.1938
L206.5736 20.7339
" />
</g>
<g style="fill:#000000; fill-opacity:0.0; 
stroke:#000000; stroke-width:0.1600; stroke-opacity:1; 
stroke-linecap:round; stroke-linejoin:round;">
<path d="M122.9632 24.9870
L122.8481 25.1207
" />
<path d="M81.1844 143.4811
L80.1498 144.4687
" />
<path d="M178.3186 139.1956
L178.4892 139.2340
" />
</g>
<g style="fill:#000000; fill-opacity:0.0; 
stroke:#000000; stroke-width:0.1000; stroke-opacity:1; 
stroke-linecap:round; stroke-linejoin:round;">
<path d="M73.2235 45.2438
L73.2235 96.4407
" />
</g>
<g style="fill:#000000; fill-opacity:0.0; 
stroke:#000000; stroke-width:0.1600; stroke-opacity:1; 
stroke-linecap:round; stroke-linejoin:round;">
<path d="M83.0151 40.4973
L83.1303 40.3637
" />
<path d="M174.0426 123.2446
L173.8977 123.1517
" />
<path d="M168.0327 20.9878
L167.9860 21.1560
" />
<path d="M60.7879 167.5237
L60.9132 167.5133
" />
<path d="M167.8011 22.5460
L167.8245 22.4619
" />
<path d="M175.7717 136.7703
L175.8265 136.9358
" />
<path d="M175.4007 124.9783
L175.3367 124.8161
" />
<path d="M172.7654 122.7071
L172.5895 122.6757
" />
</g>
<g style="fill:#000000; fill-opacity:0.0; 
stroke:#000000; stroke-width:0.1000; stroke-opacity:1; 
stroke-linecap:round; stroke-linejoin:round;">
<path d="M75.1134 42.0926
L74.9615 42.1786
" />
</g>
<g style="fill:#000000; fill-opacity:0.0; 
stroke:#000000; stroke-width:0.1600; stroke-opacity:1; 
stroke-linecap:round; stroke-linejoin:round;">
<path d="M168.2207 20.5004
L168.1502 20.6597
" />
<path d="M208.2829 59.4092
L208.3596 62.5079
" />
<path d="M199.3907 136.2588
L199.4123 136.0844
" />
<path d="M125.4340 23.8169
L125.2581 23.8300
" />
<path d="M167.2911 23.3505
L167.3553 23.2895
" />
<path d="M128.8124 130.8796
L127.8397 130.6154
" />
<path d="M166.5277 23.7587
L166.6118 23.7354
" />
<path d="M47.8813 161.8025
L48.1285 161.9542
" />
<path d="M85.5293 31.5564
L85.3860 31.6572
" />
<path d="M197.6919 138.7966
L197.8397 138.7032
" />
<path d="M83.1303 40.3637
L83.2383 40.2250
" />
<path d="M197.2249 139.0314
L197.3842 138.9608
" />
<path d="M121.7674 28.7514
L121.8301 28.5889
" />
<path d="M205.6456 125.0361
L205.7579 124.9065
" />
<path d="M175.6348 136.0844
L175.6564 136.2589
" />
<path d="M206.5707 20.6158
L206.5619 20.4985
" />
<path d="M59.6540 167.3363
L59.7780 167.3830
" />
<path d="M167.2243 23.4081
L167.2911 23.3505
" />
<path d="M83.3390 40.0817
L83.4324 39.9339
" />
<path d="M83.4324 39.9339
L83.5184 39.7819
" />
<path d="M205.8761 19.0499
L205.7905 18.9685
" />
<path d="M48.4158 118.1902
L48.3506 118.4045
" />
<path d="M206.5619 20.4985
L206.5475 20.3822
" />
<path d="M62.3800 166.8653
L62.4729 166.7787
" />
<path d="M91.2798 135.8924
L90.0936 136.6241
" />
<path d="M84.0469 33.6575
L84.0085 33.8281
" />
<path d="M201.0046 126.8163
L200.8646 126.9159
" />
<path d="M206.2358 19.5112
L206.1735 19.4126
" />
<path d="M199.5904 128.7161
L199.5423 128.8856
" />
<path d="M167.9174 21.4992
L167.8958 21.6736
" />
<path d="M121.6185 29.0665
L121.6968 28.9107
" />
<path d="M204.7042 125.7752
L204.8538 125.6892
" />
<path d="M145.0499 136.5700
L145.1815 136.4543
" />
<path d="M82.4923 40.9710
L82.6310 40.8630
" />
<path d="M204.8848 18.4555
L204.7727 18.4244
" />
<path d="M205.1388 125.4967
L205.2737 125.3907
" />
<path d="M174.4472 123.5625
L174.3176 123.4502
" />
<path d="M102.9898 130.5768
L102.3717 130.7270
" />
<path d="M176.4262 137.9952
L176.5414 138.1288
" />
<path d="M206.5550 122.9997
L206.5688 122.8183
" />
<path d="M175.1863 124.5039
L175.1003 124.3543
" />
<path d="M87.5110 30.9563
L87.3339 30.9607
" />
<path d="M119.9936 30.6140
L120.1493 30.5356
" />
<path d="M168.3850 20.1927
L168.2991 20.3447
" />
<path d="M175.8265 136.9358
L175.8892 137.0984
" />
<path d="M154.8944 123.0827
L154.7105 123.1970
" />
</g>
<g style="fill:#000000; fill-opacity:0.0; 
stroke:#000000; stroke-width:0.1000; stroke-opacity:1; 
stroke-linecap:round; stroke-linejoin:round;">
<path d="M74.5317 42.4808
L74.3980 42.5959
" />
</g>
<g style="fill:#000000; fill-opacity:0.0; 
stroke:#000000; stroke-width:0.1600; stroke-opacity:1; 
stroke-linecap:round; stroke-linejoin:round;">
<path d="M119.5062 30.8020
L119.6717 30.7473
" />
<path d="M125.6111 23.8125
L125.4340 23.8169
" />
<path d="M201.1495 126.7234
L201.0046 126.8163
" />
<path d="M155.9073 122.7002
L155.6943 122.7503
" />
<path d="M122.1936 26.3456
L122.1469 26.5138
" />
<path d="M196.0351 139.2990
L196.2110 139.2859
" />
<path d="M118.9948 30.9173
L119.1674 30.8871
" />
<path d="M174.5712 123.6807
L174.4472 123.5625
" />
<path d="M122.3817 25.8582
L122.3111 26.0175
" />
<path d="M50.0063 116.0861
L72.1773 98.9664
" />
<path d="M204.8538 125.6892
L204.9987 125.5963
" />
<path d="M200.0398 127.7812
L199.9469 127.9261
" />
<path d="M118.8204 30.9389
L118.9948 30.9173
" />
<path d="M84.0085 33.8281
L83.9783 34.0007
" />
<path d="M202.4577 126.2474
L202.2818 126.2789
" />
<path d="M166.4425 23.7779
L166.5277 23.7587
" />
<path d="M59.7780 167.3830
L59.9030 167.4230
" />
<path d="M143.5162 137.3192
L143.6827 137.2789
" />
<path d="M154.7105 123.1970
L154.5341 123.3231
" />
<path d="M142.6624 137.3999
L142.8349 137.4002
" />
<path d="M102.3717 130.7270
L101.7523 130.8946
" />
<path d="M207.1387 46.3170
L207.4666 50.3784
" />
<path d="M167.8245 22.4619
L167.8437 22.3766
" />
</g>
<g style="fill:#000000; fill-opacity:0.0; 
stroke:#000000; stroke-width:0.1000; stroke-opacity:1; 
stroke-linecap:round; stroke-linejoin:round;">
<path d="M73.3312 44.3731
L73.2928 44.5437
" />
<path d="M76.7954 41.6719
L76.6183 41.6763
" />
</g>
<g style="fill:#000000; fill-opacity:0.0; 
stroke:#000000; stroke-width:0.1600; stroke-opacity:1; 
stroke-linecap:round; stroke-linejoin:round;">
<path d="M206.5736 26.1938
L206.6503 34.5665
" />
<path d="M68.8099 156.8806
L68.1561 157.8248
" />
<path d="M46.7209 160.5735
L46.8728 160.8110
" />
<path d="M75.7145 148.8841
L73.5711 151.1104
" />
<path d="M49.0353 117.0125
L48.9062 117.1938
" />
<path d="M174.1827 123.3442
L174.0426 123.2446
" />
<path d="M173.4359 122.9152
L173.2737 122.8513
" />
</g>
<g style="fill:#000000; fill-opacity:0.0; 
stroke:#000000; stroke-width:0.1000; stroke-opacity:1; 
stroke-linecap:round; stroke-linejoin:round;">
<path d="M75.7566 41.8262
L75.5910 41.8810
" />
</g>
<g style="fill:#000000; fill-opacity:0.0; 
stroke:#000000; stroke-width:0.1600; stroke-opacity:1; 
stroke-linecap:round; stroke-linejoin:round;">
<path d="M83.5184 39.7819
L83.5967 39.6262
" />
<path d="M175.6866 136.4315
L175.7250 136.6021
" />
<path d="M206.5009 123.3543
L206.5323 123.1784
" />
<path d="M176.0381 137.4134
L176.1240 137.5654
" />
<path d="M81.4061 41.5175
L81.5716 41.4627
" />
<path d="M49.1742 116.8381
L49.0353 117.0125
" />
<path d="M120.9487 129.7796
L119.2488 129.7085
" />
</g>
<g style="fill:#000000; fill-opacity:0.0; 
stroke:#000000; stroke-width:0.1000; stroke-opacity:1; 
stroke-linecap:round; stroke-linejoin:round;">
<path d="M73.2279 45.0667
L73.2235 45.2438
" />
</g>
<g style="fill:#000000; fill-opacity:0.0; 
stroke:#000000; stroke-width:0.1600; stroke-opacity:1; 
stroke-linecap:round; stroke-linejoin:round;">
<path d="M82.2012 41.1652
L82.3490 41.0717
" />
<path d="M170.4113 18.6091
L170.2458 18.6638
" />
<path d="M141.8017 137.2709
L141.9725 137.3140
" />
<path d="M133.3177 132.6224
L132.0821 132.0684
" />
<path d="M169.4685 19.0548
L169.3251 19.1556
" />
<path d="M122.6393 25.4027
L122.5459 25.5505
" />
<path d="M197.3842 138.9608
L197.5400 138.8825
" />
</g>
<g style="fill:#000000; fill-opacity:0.0; 
stroke:#000000; stroke-width:0.1000; stroke-opacity:1; 
stroke-linecap:round; stroke-linejoin:round;">
<path d="M125.6111 23.8126
L166.0924 23.8126
" />
</g>
<g style="fill:#000000; fill-opacity:0.0; 
stroke:#000000; stroke-width:0.1600; stroke-opacity:1; 
stroke-linecap:round; stroke-linejoin:round;">
<path d="M99.8648 131.5138
L99.2191 131.7628
" />
<path d="M201.6114 126.4870
L201.4531 126.5585
" />
<path d="M84.8632 32.1308
L84.7481 32.2645
" />
<path d="M82.7646 40.7478
L82.8930 40.6257
" />
<path d="M144.7723 136.7797
L144.9134 136.6784
" />
<path d="M175.6564 136.2589
L175.6866 136.4315
" />
<path d="M173.2737 122.8513
L173.1077 122.7951
" />
<path d="M167.0094 23.5592
L167.0833 23.5125
" />
<path d="M60.9132 167.5133
L61.0375 167.4970
" />
<path d="M199.2207 136.9357
L199.2754 136.7702
" />
<path d="M175.3367 124.8161
L175.2652 124.6579
" />
<path d="M85.2473 31.7652
L85.1137 31.8803
" />
<path d="M62.5619 166.6871
L62.6467 166.5908
" />
<path d="M124.4067 24.0216
L124.2442 24.0844
" />
<path d="M175.5990 125.8412
L175.5762 125.6624
" />
<path d="M143.3478 137.3517
L143.5162 137.3192
" />
<path d="M121.6968 28.9107
L121.7674 28.7514
" />
<path d="M145.3079 136.3316
L145.4289 136.2019
" />
<path d="M200.4760 127.2525
L200.3577 127.3766
" />
<path d="M172.5895 122.6757
L172.4108 122.6529
" />
<path d="M121.9700 28.0846
L122.0001 27.9119
" />
</g>
<g style="fill:#000000; fill-opacity:0.0; 
stroke:#000000; stroke-width:0.1000; stroke-opacity:1; 
stroke-linecap:round; stroke-linejoin:round;">
<path d="M74.6703 42.3727
L74.5317 42.4808
" />
</g>
<g style="fill:#000000; fill-opacity:0.0; 
stroke:#000000; stroke-width:0.1600; stroke-opacity:1; 
stroke-linecap:round; stroke-linejoin:round;">
<path d="M84.3600 32.8462
L84.2816 33.0020
" />
<path d="M203.0017 126.2064
L203.1855 126.2017
" />
<path d="M72.9516 97.8076
L73.0143 97.6450
" />
<path d="M169.7682 18.8755
L169.6163 18.9614
" />
<path d="M120.3012 30.4497
L120.4490 30.3563
" />
<path d="M125.0836 23.8516
L124.9110 23.8817
" />
<path d="M73.0691 97.4795
L73.1158 97.3113
" />
<path d="M83.9783 34.0007
L83.9567 34.1751
" />
<path d="M109.5376 129.7783
L108.1257 129.8636
" />
</g>
<g style="fill:#000000; fill-opacity:0.0; 
stroke:#000000; stroke-width:0.1000; stroke-opacity:1; 
stroke-linecap:round; stroke-linejoin:round;">
<path d="M76.6183 41.6763
L76.4424 41.6893
" />
</g>
<g style="fill:#000000; fill-opacity:0.0; 
stroke:#000000; stroke-width:0.1600; stroke-opacity:1; 
stroke-linecap:round; stroke-linejoin:round;">
<path d="M62.4729 166.7787
L62.5619 166.6871
" />
<path d="M199.4123 136.0844
L199.4254 135.9085
" />
<path d="M85.3860 31.6572
L85.2473 31.7652
" />
<path d="M168.2991 20.3447
L168.2207 20.5004
" />
<path d="M72.7168 98.2746
L72.8027 98.1226
" />
<path d="M48.4923 117.9803
L48.4158 118.1902
" />
<path d="M195.8580 139.3034
L196.0351 139.2990
" />
<path d="M175.6173 135.7314
L175.6217 135.9085
" />
<path d="M175.5448 125.4865
L175.5049 125.3137
" />
<path d="M137.5809 134.8654
L136.0585 134.0132
" />
<path d="M206.3567 123.8626
L206.4129 123.6966
" />
<path d="M176.5414 138.1288
L176.6635 138.2572
" />
<path d="M155.0854 122.9805
L154.8944 123.0827
" />
<path d="M206.5323 123.1784
L206.5550 122.9997
" />
<path d="M84.5393 32.5465
L84.4459 32.6943
" />
<path d="M122.0783 26.8570
L122.0567 27.0314
" />
<path d="M62.8030 166.3841
L62.8742 166.2738
" />
</g>
<g style="fill:#000000; fill-opacity:0.0; 
stroke:#000000; stroke-width:0.1000; stroke-opacity:1; 
stroke-linecap:round; stroke-linejoin:round;">
<path d="M83.9391 38.1000
L83.9391 34.5282
" />
</g>
<g style="fill:#000000; fill-opacity:0.0; 
stroke:#000000; stroke-width:0.1600; stroke-opacity:1; 
stroke-linecap:round; stroke-linejoin:round;">
<path d="M175.6127 126.0226
L175.5990 125.8412
" />
<path d="M166.6946 23.7080
L166.7759 23.6766
" />
<path d="M83.8788 141.0439
L83.0458 141.7693
" />
<path d="M144.0092 137.1745
L144.1685 137.1106
" />
<path d="M168.5792 19.9016
L168.4784 20.0449
" />
</g>
<g style="fill:#000000; fill-opacity:0.0; 
stroke:#000000; stroke-width:0.1000; stroke-opacity:1; 
stroke-linecap:round; stroke-linejoin:round;">
<path d="M171.4502 18.4547
L204.1923 18.3526
" />
</g>
<g style="fill:#000000; fill-opacity:0.0; 
stroke:#000000; stroke-width:0.1600; stroke-opacity:1; 
stroke-linecap:round; stroke-linejoin:round;">
<path d="M174.6895 123.8048
L174.5712 123.6807
" />
<path d="M60.1550 167.4834
L60.2817 167.5040
" />
<path d="M173.7481 123.0657
L173.5941 122.9868
" />
<path d="M120.8647 30.0324
L120.9931 29.9102
" />
<path d="M124.5723 23.9669
L124.4067 24.0216
" />
<path d="M46.2442 159.2478
L46.2997 159.5278
" />
<path d="M206.3453 19.7163
L206.2931 19.6124
" />
<path d="M83.7300 39.3043
L83.7847 39.1388
" />
<path d="M85.4647 139.7618
L84.6770 140.3813
" />
<path d="M166.8555 23.6413
L166.9334 23.6022
" />
<path d="M103.6083 130.4429
L102.9898 130.5768
" />
<path d="M199.6465 128.5501
L199.5904 128.7161
" />
<path d="M47.4306 161.4493
L47.6485 161.6338
" />
<path d="M85.8291 31.3771
L85.6771 31.4630
" />
<path d="M120.9931 29.9102
L121.1152 29.7819
" />
<path d="M156.5673 122.6345
L156.3444 122.6419
" />
<path d="M62.8742 166.2738
L62.9403 166.1590
" />
<path d="M198.3837 138.2571
L198.5058 138.1288
" />
<path d="M199.3221 136.6020
L199.3606 136.4315
" />
<path d="M203.8944 126.0939
L204.0638 126.0458
" />
</g>
<g style="fill:#000000; fill-opacity:0.0; 
stroke:#000000; stroke-width:0.1000; stroke-opacity:1; 
stroke-linecap:round; stroke-linejoin:round;">
<path d="M74.3980 42.5959
L74.2697 42.7180
" />
</g>
<g style="fill:#000000; fill-opacity:0.0; 
stroke:#000000; stroke-width:0.1600; stroke-opacity:1; 
stroke-linecap:round; stroke-linejoin:round;">
<path d="M168.8023 19.6292
L168.6872 19.7629
" />
<path d="M140.9724 136.9220
L141.1339 137.0098
" />
</g>
<g style="fill:#000000; fill-opacity:0.0; 
stroke:#000000; stroke-width:0.1000; stroke-opacity:1; 
stroke-linecap:round; stroke-linejoin:round;">
<path d="M75.4285 41.9437
L75.2692 42.0143
" />
</g>
<g style="fill:#000000; fill-opacity:0.0; 
stroke:#000000; stroke-width:0.1600; stroke-opacity:1; 
stroke-linecap:round; stroke-linejoin:round;">
<path d="M206.4129 123.6966
L206.4610 123.5271
" />
<path d="M84.2816 33.0020
L84.2111 33.1613
" />
<path d="M206.5475 20.3822
L206.5274 20.2671
" />
<path d="M143.0069 137.3922
L143.1779 137.3760
" />
<path d="M167.8761 22.1151
L167.8783 22.0266
" />
<path d="M198.1217 138.4944
L198.2553 138.3793
" />
<g >
</g>
<g >
</g>
<g >
</g>
<g >
</g>
<g >
</g>
<g >
</g>
<g >
</g>
<g >
</g>
<g >
</g>
<g >
</g>
<g >
</g>
<g >
</g>
<g >
</g>
<g >
</g>
<g >
</g>
<g >
</g>
<g >
</g>
<g >
</g>
<g >
</g>
<g >
</g>
<g >
</g>
<g >
</g>
<g >
</g>
<g >
</g>
<g >
</g>
<g >
</g>
<g >
</g>
<g >
</g>
<g >
</g>
<g >
</g>
<g >
</g>
<g >
</g>
<g >
</g>
<g >
</g>
<g >
</g>
<g >
</g>
<g >
</g>
<g >
</g>
<g >
</g>
<g >
</g>
<g >
</g>
<g >
</g>
<g >
</g>
<g >
</g>
<g >
</g>
<g >
</g>
<g >
</g>
<g >
</g>
<g >
</g>
<g >
</g>
<g >
</g>
<g >
</g>
<g >
</g>
<g >
</g>
<g >
</g>
<g >
</g>
<g >
</g>
<g >
</g>
<g >
</g>
<g >
</g>
<g >
</g>
<g >
</g>
<g >
</g>
<g >
</g>
<g >
</g>
</g> 
</svg>
