<?xml version="1.0" standalone="no"?>
 <!DOCTYPE svg PUBLIC "-//W3C//DTD SVG 1.1//EN" 
 "http://www.w3.org/Graphics/SVG/1.1/DTD/svg11.dtd"> 
<svg
  xmlns:svg="http://www.w3.org/2000/svg"
  xmlns="http://www.w3.org/2000/svg"
  xmlns:xlink="http://www.w3.org/1999/xlink"
  version="1.1"
  width="273.2278mm" height="186.3090mm" viewBox="0.0000 0.0000 273.2278 186.3090">
<title>SVG Image created as mykeeb_v7a3-Edge_Cuts.svg date 2023/05/25 13:38:56 </title>
  <desc>Image generated by PCBNEW </desc>
<g style="fill:#000000; fill-opacity:1.0000;stroke:#000000; stroke-opacity:1.0000;
stroke-linecap:round; stroke-linejoin:round;"
 transform="translate(0 0) scale(1 1)">
</g>
<g style="fill:#000000; fill-opacity:0.0; 
stroke:#000000; stroke-width:0.0000; stroke-opacity:1; 
stroke-linecap:round; stroke-linejoin:round;">
</g>
<g style="fill:#000000; fill-opacity:0.0; 
stroke:#000000; stroke-width:0.1600; stroke-opacity:1; 
stroke-linecap:round; stroke-linejoin:round;">
<path d="M203.0017 119.0625 A3.5718 3.5718 0.0 0 0 206.5735 115.4908" />
<path d="M171.4501 18.4547 A3.5717 3.5717 0.0 0 0 167.8783 22.0266" />
</g>
<g style="fill:#000000; fill-opacity:0.0; 
stroke:#000000; stroke-width:0.1000; stroke-opacity:1; 
stroke-linecap:round; stroke-linejoin:round;">
<path d="M125.8110 123.2809 A1.1906 1.1906 0.0 0 0 127.9923 123.9413" />
</g>
<g style="fill:#000000; fill-opacity:0.0; 
stroke:#000000; stroke-width:0.1600; stroke-opacity:1; 
stroke-linecap:round; stroke-linejoin:round;">
<path d="M175.6173 133.3501 A3.5718 3.5718 0.0 0 0 179.1892 136.9220" />
<path d="M72.6452,147.8014 C69.9166,150.6788 67.8326,153.0598 60.5377,164.8803" />
</g>
<g style="fill:#000000; fill-opacity:0.0; 
stroke:#000000; stroke-width:0.1000; stroke-opacity:1; 
stroke-linecap:round; stroke-linejoin:round;">
<path d="M139.3032 110.1329 A5.3578 5.3578 0.0 0 0 139.3032 99.4173" />
</g>
<g style="fill:#000000; fill-opacity:0.0; 
stroke:#000000; stroke-width:0.1600; stroke-opacity:1; 
stroke-linecap:round; stroke-linejoin:round;">
<path d="M149.4236 26.7890 A2.9767 2.9767 0.0 0 0 146.4469 23.8124" />
</g>
<g style="fill:#000000; fill-opacity:0.0; 
stroke:#000000; stroke-width:0.1000; stroke-opacity:1; 
stroke-linecap:round; stroke-linejoin:round;">
<path d="M202.4064 32.1469
L203.0018 32.1469
" />
</g>
<g style="fill:#000000; fill-opacity:0.0; 
stroke:#000000; stroke-width:0.1600; stroke-opacity:1; 
stroke-linecap:round; stroke-linejoin:round;">
<path d="M79.1766 67.8656 A3.5718 3.5718 0.0 0 0 75.6048 71.4376" />
<path d="M51.2526 118.6318
L74.5585 100.7524
" />
</g>
<g style="fill:#000000; fill-opacity:0.0; 
stroke:#000000; stroke-width:0.1000; stroke-opacity:1; 
stroke-linecap:round; stroke-linejoin:round;">
<path d="M206.5737 28.5750
L206.5736 20.8360
" />
</g>
<g style="fill:#000000; fill-opacity:0.0; 
stroke:#000000; stroke-width:0.1600; stroke-opacity:1; 
stroke-linecap:round; stroke-linejoin:round;">
<path d="M74.5585 100.7523 A3.5721 3.5721 0.0 0 0 75.6047 98.2267" />
<path d="M79.1767 91.6782 A3.5719 3.5719 0.0 0 0 75.6048 95.2501" />
<path d="M206.5736 20.8360 A2.3812 2.3812 0.0 0 0 204.1923 18.4547" />
<path d="M88.0734,134.0096 C85.2952,135.7954 83.7079,136.9861 81.2276,139.2683" />
<path d="M203.0017 119.0626 A3.5720 3.5720 0.0 0 0 199.4298 122.6345" />
<path d="M54.4628 142.3671
L46.7236 156.7237
" />
<path d="M82.7486 88.1064 A3.5718 3.5718 0.0 0 0 79.1767 84.5345" />
<path d="M147.1263 133.2977
L158.4323 117.1636
" />
</g>
<g style="fill:#000000; fill-opacity:0.0; 
stroke:#000000; stroke-width:0.1000; stroke-opacity:1; 
stroke-linecap:round; stroke-linejoin:round;">
<path d="M75.6047 80.9626
L75.6048 71.4376
" />
</g>
<g style="fill:#000000; fill-opacity:0.0; 
stroke:#000000; stroke-width:0.1600; stroke-opacity:1; 
stroke-linecap:round; stroke-linejoin:round;">
<path d="M48.3893 162.0879
L57.0677 166.1235
" />
</g>
<g style="fill:#000000; fill-opacity:0.0; 
stroke:#000000; stroke-width:0.1000; stroke-opacity:1; 
stroke-linecap:round; stroke-linejoin:round;">
<path d="M204.1923 18.4547
L171.4501 18.4547
" />
</g>
<g style="fill:#000000; fill-opacity:0.0; 
stroke:#000000; stroke-width:0.1600; stroke-opacity:1; 
stroke-linecap:round; stroke-linejoin:round;">
<path d="M175.6172 119.0626 A3.5718 3.5718 0.0 0 0 172.0454 115.4908" />
<path d="M179.1892 136.9220
L195.8579 136.9221
" />
<path d="M52.7131 127.2658
L50.1457 124.3275
" />
<path d="M206.5736 45.2438
L206.5735 115.4908
" />
</g>
<g style="fill:#000000; fill-opacity:0.0; 
stroke:#000000; stroke-width:0.1000; stroke-opacity:1; 
stroke-linecap:round; stroke-linejoin:round;">
<path d="M103.8348 118.5184 A2.3813 2.3813 0.0 1 0 99.4116 119.7435" />
</g>
<g style="fill:#000000; fill-opacity:0.0; 
stroke:#000000; stroke-width:0.1600; stroke-opacity:1; 
stroke-linecap:round; stroke-linejoin:round;">
<path d="M54.4628 142.3671 A11.5589 11.5589 0.0 0 0 52.7131 127.2658" />
</g>
<g style="fill:#000000; fill-opacity:0.0; 
stroke:#000000; stroke-width:0.1000; stroke-opacity:1; 
stroke-linecap:round; stroke-linejoin:round;">
<path d="M103.8347 118.5184
L103.8347 123.2809
" />
</g>
<g style="fill:#000000; fill-opacity:0.0; 
stroke:#000000; stroke-width:0.1600; stroke-opacity:1; 
stroke-linecap:round; stroke-linejoin:round;">
<path d="M82.7486 64.2938 A3.5718 3.5718 0.0 0 0 79.1766 60.7219" />
<path d="M175.6173 133.3501
L175.6173 119.0626
" />
<path d="M199.4298 133.3501
L199.4298 122.6345
" />
<path d="M202.4064 32.1468 A3.5719 3.5719 0.0 0 0 198.8345 35.7188" />
<path d="M75.6048 80.9626 A3.5718 3.5718 0.0 0 0 79.1767 84.5345" />
<path d="M203.0018 32.1469 A3.5718 3.5718 0.0 0 0 206.5737 28.5750" />
</g>
<g style="fill:#000000; fill-opacity:0.0; 
stroke:#000000; stroke-width:0.1000; stroke-opacity:1; 
stroke-linecap:round; stroke-linejoin:round;">
<path d="M75.6047 57.1500
L75.6048 45.2438
" />
</g>
<g style="fill:#000000; fill-opacity:0.0; 
stroke:#000000; stroke-width:0.1600; stroke-opacity:1; 
stroke-linecap:round; stroke-linejoin:round;">
<path d="M79.1766 67.8656 A3.5718 3.5718 0.0 0 0 82.7485 64.2937" />
<path d="M79.1767 91.6782 A3.5719 3.5719 0.0 0 0 82.7485 88.1063" />
<path d="M98.2932,128.4538 C94.8206,129.8428 90.8516,132.2238 88.0734,134.0096" />
<path d="M142.2471 134.6047 A3.5720 3.5720 0.0 0 0 147.1263 133.2977" />
</g>
<g style="fill:#000000; fill-opacity:0.0; 
stroke:#000000; stroke-width:0.1000; stroke-opacity:1; 
stroke-linecap:round; stroke-linejoin:round;">
<path d="M87.5110 41.6719
L79.1766 41.6719
" />
<path d="M130.2341 119.7435 A2.3812 2.3812 0.0 1 0 125.8110 118.5184" />
<path d="M133.9454 110.1329
L139.3032 110.1329
" />
<path d="M125.8110 123.2809
L125.8110 118.5184
" />
<path d="M79.1766 41.6719 A3.5719 3.5719 0.0 0 0 75.6048 45.2438" />
</g>
<g style="fill:#000000; fill-opacity:0.0; 
stroke:#000000; stroke-width:0.1600; stroke-opacity:1; 
stroke-linecap:round; stroke-linejoin:round;">
<circle cx="77.9860" cy="114.3001" r="5.3578" /> 
<path d="M51.2526 118.6318 A4.1252 4.1252 0.0 0 0 50.1457 124.3275" />
</g>
<g style="fill:#000000; fill-opacity:0.0; 
stroke:#000000; stroke-width:0.1000; stroke-opacity:1; 
stroke-linecap:round; stroke-linejoin:round;">
<path d="M167.8782 26.1936
L167.8783 22.0266
" />
</g>
<g style="fill:#000000; fill-opacity:0.0; 
stroke:#000000; stroke-width:0.1600; stroke-opacity:1; 
stroke-linecap:round; stroke-linejoin:round;">
<path d="M149.4235 26.7890 A2.9766 2.9766 0.0 0 0 152.4002 29.7656" />
<path d="M142.2471,134.6048 C130.3406,127.4618 126.1736,126.8663 121.7087,126.5685" />
</g>
<g style="fill:#000000; fill-opacity:0.0; 
stroke:#000000; stroke-width:0.1000; stroke-opacity:1; 
stroke-linecap:round; stroke-linejoin:round;">
<path d="M133.9454 99.4173 A5.3578 5.3578 0.0 0 0 133.9454 110.1329" />
<path d="M172.0454 115.4908
L161.3298 115.4907
" />
</g>
<g style="fill:#000000; fill-opacity:0.0; 
stroke:#000000; stroke-width:0.1600; stroke-opacity:1; 
stroke-linecap:round; stroke-linejoin:round;">
<path d="M108.6117,126.4693 C104.7422,126.6678 101.7659,127.0648 98.2932,128.4538" />
</g>
<g style="fill:#000000; fill-opacity:0.0; 
stroke:#000000; stroke-width:0.1000; stroke-opacity:1; 
stroke-linecap:round; stroke-linejoin:round;">
<path d="M94.6548 30.9563
L125.6110 30.9563
" />
</g>
<g style="fill:#000000; fill-opacity:0.0; 
stroke:#000000; stroke-width:0.1600; stroke-opacity:1; 
stroke-linecap:round; stroke-linejoin:round;">
<path d="M198.8345 38.1000 A3.5719 3.5719 0.0 0 0 202.4064 41.6719" />
<path d="M161.3298 115.4907 A3.3457 3.3457 0.0 0 0 158.4323 117.1636" />
</g>
<g style="fill:#000000; fill-opacity:0.0; 
stroke:#000000; stroke-width:0.1000; stroke-opacity:1; 
stroke-linecap:round; stroke-linejoin:round;">
<path d="M101.6535 123.9413 A1.1906 1.1906 0.0 0 0 103.8347 123.2809" />
</g>
<g style="fill:#000000; fill-opacity:0.0; 
stroke:#000000; stroke-width:0.1600; stroke-opacity:1; 
stroke-linecap:round; stroke-linejoin:round;">
<path d="M94.6548 30.9563 A3.5718 3.5718 0.0 0 0 91.0829 34.5282" />
</g>
<g style="fill:#000000; fill-opacity:0.0; 
stroke:#000000; stroke-width:0.1000; stroke-opacity:1; 
stroke-linecap:round; stroke-linejoin:round;">
<path d="M99.4116 119.7435
L101.6535 123.9413
" />
</g>
<g style="fill:#000000; fill-opacity:0.0; 
stroke:#000000; stroke-width:0.1600; stroke-opacity:1; 
stroke-linecap:round; stroke-linejoin:round;">
<path d="M46.7236 156.7237 A3.7904 3.7904 0.0 0 0 48.3893 162.0879" />
<path d="M81.2276,139.2683 C78.7472,141.5504 75.3739,144.9241 72.6452,147.8014" />
</g>
<g style="fill:#000000; fill-opacity:0.0; 
stroke:#000000; stroke-width:0.1000; stroke-opacity:1; 
stroke-linecap:round; stroke-linejoin:round;">
<path d="M198.8345 35.7188
L198.8345 38.1000
" />
</g>
<g style="fill:#000000; fill-opacity:0.0; 
stroke:#000000; stroke-width:0.1600; stroke-opacity:1; 
stroke-linecap:round; stroke-linejoin:round;">
<path d="M121.7087,126.5685 C117.2439,126.2708 112.4812,126.2708 108.6117,126.4693" />
<path d="M75.6047 57.1500 A3.5719 3.5719 0.0 0 0 79.1766 60.7219" />
<path d="M164.3064 29.7657 A3.5718 3.5718 0.0 0 0 167.8783 26.1938" />
</g>
<g style="fill:#000000; fill-opacity:0.0; 
stroke:#000000; stroke-width:0.1000; stroke-opacity:1; 
stroke-linecap:round; stroke-linejoin:round;">
<path d="M202.4064 41.6719
L203.0017 41.6719
" />
<path d="M91.0829 38.1000
L91.0829 34.5282
" />
</g>
<g style="fill:#000000; fill-opacity:0.0; 
stroke:#000000; stroke-width:0.1600; stroke-opacity:1; 
stroke-linecap:round; stroke-linejoin:round;">
<path d="M57.0678 166.1235 A2.6223 2.6223 0.0 0 0 60.5377 164.8803" />
<path d="M206.5736 45.2438 A3.5718 3.5718 0.0 0 0 203.0017 41.6719" />
<path d="M132.7548 23.8125 A3.5717 3.5717 0.0 0 0 129.1829 27.3844" />
<path d="M87.5110 41.6719 A3.5717 3.5717 0.0 0 0 91.0829 38.1000" />
<path d="M125.6110 30.9563 A3.5718 3.5718 0.0 0 0 129.1829 27.3844" />
</g>
<g style="fill:#000000; fill-opacity:0.0; 
stroke:#000000; stroke-width:0.1000; stroke-opacity:1; 
stroke-linecap:round; stroke-linejoin:round;">
<path d="M152.4002 29.7656
L164.3064 29.7657
" />
<path d="M133.9454 99.4173
L139.3032 99.4173
" />
<path d="M132.7548 23.8125
L146.4469 23.8124
" />
</g>
<g style="fill:#000000; fill-opacity:0.0; 
stroke:#000000; stroke-width:0.1600; stroke-opacity:1; 
stroke-linecap:round; stroke-linejoin:round;">
<path d="M195.8579 136.9220 A3.5718 3.5718 0.0 0 0 199.4298 133.3501" />
</g>
<g style="fill:#000000; fill-opacity:0.0; 
stroke:#000000; stroke-width:0.1000; stroke-opacity:1; 
stroke-linecap:round; stroke-linejoin:round;">
<path d="M75.6048 95.2501
L75.6047 98.2267
" />
<path d="M127.9923 123.9413
L130.2342 119.7435
" />
</g>
<g style="fill:#000000; fill-opacity:0.0; 
stroke:#000000; stroke-width:0.1200; stroke-opacity:1; 
stroke-linecap:round; stroke-linejoin:round;">
<path d="M178.0621 28.4215
L178.0621 27.3801
" />
<path d="M178.7479 26.6943
L180.3481 26.6943
" />
<path d="M180.3481 29.1073
L178.7479 29.1073
" />
<path d="M180.7291 27.0753
L180.7291 28.7263
" />
<path d="M181.2371 22.7065
L181.2371 21.0301
" />
<path d="M181.9229 20.3443
L183.5993 20.3443
" />
<path d="M181.9229 23.3923
L183.5993 23.3923
" />
<path d="M184.2851 22.7065
L184.2851 21.0301
" />
<path d="M184.7931 27.0753
L184.7931 28.7263
" />
<path d="M185.1741 29.1073
L186.7743 29.1073
" />
<path d="M186.7743 26.6943
L185.1741 26.6943
" />
<path d="M187.4601 28.4215
L187.4601 27.3801
" />
<path d="M178.7479 29.1073 A0.5033 0.5033 0.0 0 0 178.0621 28.4215" />
<path d="M178.0621 27.3801 A0.5033 0.5033 0.0 0 0 178.7479 26.6943" />
<path d="M180.7291 27.0753 A0.3810 0.3810 0.0 0 0 180.3481 26.6943" />
<path d="M180.3481 29.1073 A0.3810 0.3810 0.0 0 0 180.7291 28.7263" />
<path d="M181.9229 23.3923 A0.5033 0.5033 0.0 0 0 181.2371 22.7065" />
<path d="M181.2371 21.0301 A0.5033 0.5033 0.0 0 0 181.9229 20.3443" />
<path d="M184.2851 22.7065 A0.5033 0.5033 0.0 0 0 183.5993 23.3923" />
<path d="M183.5993 20.3443 A0.5033 0.5033 0.0 0 0 184.2851 21.0301" />
<path d="M185.1741 26.6943 A0.3810 0.3810 0.0 0 0 184.7931 27.0753" />
<path d="M184.7931 28.7263 A0.3810 0.3810 0.0 0 0 185.1741 29.1073" />
<path d="M187.4601 28.4215 A0.5033 0.5033 0.0 0 0 186.7743 29.1073" />
<path d="M186.7743 26.6943 A0.5033 0.5033 0.0 0 0 187.4601 27.3801" />
<g >
</g>
<g >
</g>
<g >
</g>
<g >
</g>
<g >
</g>
<g >
</g>
<g >
</g>
<g >
</g>
<g >
</g>
<g >
</g>
<g >
</g>
<g >
</g>
<g >
</g>
<g >
</g>
<g >
</g>
<g >
</g>
<g >
</g>
<g >
</g>
<g >
</g>
<g >
</g>
<g >
</g>
<g >
</g>
<g >
</g>
<g >
</g>
<g >
</g>
<g >
</g>
<g >
</g>
<g >
</g>
<g >
</g>
<g >
</g>
<g >
</g>
<g >
</g>
<g >
</g>
<g >
</g>
<g >
</g>
<g >
</g>
<g >
</g>
<g >
</g>
<g >
</g>
<g >
</g>
<g >
</g>
<g >
</g>
<g >
</g>
<g >
</g>
<g >
</g>
<g >
</g>
<g >
</g>
<g >
</g>
<g >
</g>
<g >
</g>
<g >
</g>
<g >
</g>
<g >
</g>
<g >
</g>
<g >
</g>
<g >
</g>
<g >
</g>
<g >
</g>
<g >
</g>
<g >
</g>
<g >
</g>
<g >
</g>
<g >
</g>
<g >
</g>
<g >
</g>
</g> 
</svg>
