M48
; DRILL file {KiCad 6.0.4} date So 08 Mai 2022 18:55:15 CEST
; FORMAT={-:-/ absolute / inch / decimal}
; #@! TF.CreationDate,2022-05-08T18:55:15+02:00
; #@! TF.GenerationSoftware,Kicad,Pcbnew,6.0.4
; #@! TF.FileFunction,MixedPlating,1,2
FMAT,2
INCH
; #@! TA.AperFunction,Plated,PTH,ViaDrill
T1C0.0157
; #@! TA.AperFunction,Plated,PTH,ComponentDrill
T2C0.0157
; #@! TA.AperFunction,Plated,PTH,ComponentDrill
T3C0.0295
; #@! TA.AperFunction,Plated,PTH,ComponentDrill
T4C0.0362
; #@! TA.AperFunction,Plated,PTH,ComponentDrill
T5C0.0394
; #@! TA.AperFunction,Plated,PTH,ComponentDrill
T6C0.0430
; #@! TA.AperFunction,Plated,PTH,ComponentDrill
T7C0.0433
; #@! TA.AperFunction,Plated,PTH,ComponentDrill
T8C0.0591
; #@! TA.AperFunction,NonPlated,NPTH,ComponentDrill
T9C0.0155
; #@! TA.AperFunction,NonPlated,NPTH,ComponentDrill
T10C0.0670
; #@! TA.AperFunction,NonPlated,NPTH,ComponentDrill
T11C0.1181
; #@! TA.AperFunction,NonPlated,NPTH,ComponentDrill
T12C0.1260
; #@! TA.AperFunction,NonPlated,NPTH,ComponentDrill
T13C0.1570
%
G90
G05
T1
X2.25Y-5.2734
X3.0Y-4.4531
X3.3057Y-1.702
X3.3057Y-1.866
X3.5625Y-4.0313
X3.5994Y-1.9445
X3.5994Y-2.0445
X3.5994Y-2.1445
X3.5994Y-2.2445
X3.5994Y-2.3445
X3.5994Y-2.4445
X3.5994Y-2.5445
X3.5994Y-2.6445
X3.6094Y-1.5345
X3.6394Y-1.5045
X3.6465Y-1.5745
X3.6865Y-1.5745
X3.7265Y-1.5745
X3.7494Y-1.6836
X3.7694Y-1.5745
X3.7969Y-4.1953
X3.8049Y-1.9041
X3.8194Y-1.9845
X3.8194Y-2.0845
X3.8194Y-2.1845
X3.8194Y-2.2845
X3.8194Y-2.3845
X3.8194Y-2.4845
X3.8194Y-2.5845
X3.8197Y-1.4726
X3.8438Y-4.6641
X3.8672Y-3.4453
X3.8906Y-4.6172
X3.9549Y-2.6863
X3.9609Y-3.5859
X3.9844Y-3.5156
X3.9844Y-3.75
X3.9844Y-4.5
X4.1016Y-1.6172
X4.126Y-1.7488
X4.1953Y-1.7578
X4.8984Y-4.6875
X4.9219Y-4.7813
X5.6953Y-4.9219
X5.7188Y-5.4375
X5.8125Y-4.3359
X6.3516Y-5.0625
T2
X3.3937Y-2.7547
X3.4437Y-2.7547
X3.4874Y-2.8016
X3.5374Y-2.8016
X3.5812Y-2.7547
X3.6312Y-2.7547
X3.6749Y-2.8016
X3.7249Y-2.8016
X3.7687Y-2.7566
X3.8187Y-2.7566
X3.8624Y-2.8016
X3.9124Y-2.8016
X3.9562Y-2.7547
X4.0062Y-2.7547
T3
X3.1322Y-2.6953
X3.2109Y-2.6953
T4
X4.2422Y-1.9496
X4.2422Y-2.0283
X4.2422Y-2.1071
X4.2422Y-2.1858
T5
X2.9531Y-2.0568
X2.9531Y-2.1568
X2.9531Y-2.2568
X2.9531Y-1.6313
X2.9531Y-1.7313
X2.9531Y-1.8313
X2.9531Y-1.9313
X2.9531Y-2.3813
X2.9531Y-2.4813
X2.9531Y-2.5813
X2.9531Y-2.6813
X3.1641Y-1.8055
X3.1641Y-1.9055
X3.1641Y-2.0055
X3.1641Y-2.1055
X3.1641Y-2.2055
X3.3971Y-3.102
X3.3971Y-3.202
X3.4971Y-3.102
X3.4971Y-3.202
X3.5971Y-3.102
X3.5971Y-3.202
X3.6791Y-1.7477
X3.6791Y-1.8477
X3.6971Y-3.102
X3.6971Y-3.202
X3.7971Y-3.102
X3.7971Y-3.202
X3.8971Y-3.102
X3.8971Y-3.202
X3.9971Y-3.102
X3.9971Y-3.202
X4.4531Y-1.6781
X4.4531Y-1.7781
X4.4531Y-1.8781
X4.4531Y-1.9781
X4.4531Y-2.4281
X4.4531Y-2.5281
X4.4531Y-2.6281
X4.4531Y-2.7281
T6
X3.4094Y-1.5145
X3.4094Y-1.6145
X3.4094Y-1.7145
X3.4094Y-1.8145
X3.4094Y-1.9145
X3.4094Y-2.0145
X3.4094Y-2.1145
X3.4094Y-2.2145
X3.4094Y-2.3145
X3.4094Y-2.4145
X3.4094Y-2.5145
X3.4094Y-2.6145
X4.0094Y-1.5145
X4.0094Y-1.6145
X4.0094Y-1.7145
X4.0094Y-1.8145
X4.0094Y-1.9145
X4.0094Y-2.0145
X4.0094Y-2.1145
X4.0094Y-2.2145
X4.0094Y-2.3145
X4.0094Y-2.4145
X4.0094Y-2.5145
X4.0094Y-2.6145
T7
X4.1312Y-2.4375
X4.1312Y-2.6934
X4.3083Y-2.4375
X4.3083Y-2.6934
T8
X4.1351Y-1.9209
X4.1351Y-2.1964
X4.3493Y-1.9209
X4.3493Y-2.1964
T9
X3.3945Y-3.3086
X3.3945Y-3.3711
X3.4453Y-3.3086
X3.4453Y-3.3711
X3.4961Y-3.3086
X3.4961Y-3.3711
X3.6523Y-3.3086
X3.6523Y-3.3711
X3.7031Y-3.3086
X3.7031Y-3.3711
X3.7539Y-3.3086
X3.7539Y-3.3711
X3.9101Y-3.3086
X3.9101Y-3.3711
X3.9609Y-3.3086
X3.9609Y-3.3711
X4.0118Y-3.3086
X4.0118Y-3.3711
T10
X2.3141Y-5.2123
X2.5141Y-4.8659
X3.1047Y-4.4531
X3.5047Y-4.4531
X4.0959Y-4.542
X4.4823Y-4.6455
X5.0299Y-4.8688
X5.3763Y-5.0688
X5.7594Y-5.5221
X5.8792Y-4.401
X5.9594Y-5.8685
X6.162Y-4.6838
X6.4089Y-5.1471
X6.6089Y-5.4935
T11
X2.1909Y-5.0257
X2.4025Y-4.8592
X2.5373Y-5.2257
X2.5757Y-4.9592
X3.2047Y-4.2531
X3.2047Y-4.6531
X3.4547Y-4.3531
X3.4547Y-4.5531
X4.1407Y-4.7611
X4.2442Y-4.3747
X4.4081Y-4.7292
X4.4598Y-4.536
X5.0165Y-5.092
X5.2165Y-4.7455
X5.283Y-5.1304
X5.383Y-4.9572
X5.6362Y-5.7087
X5.8084Y-4.6131
X5.8478Y-5.8752
X5.9826Y-5.5087
X6.021Y-5.7752
X6.0559Y-4.7192
X6.0913Y-4.3303
X6.1974Y-4.5778
X6.2857Y-5.3337
X6.4973Y-5.5002
X6.6321Y-5.1337
X6.6705Y-5.4002
T12
X2.7891Y-4.5703
X3.8672Y-4.3359
X5.7891Y-5.0859
T13
X2.4141Y-5.0391
X3.3047Y-4.4531
X4.2891Y-4.5938
X5.2031Y-4.9688
X5.8594Y-5.6953
X6.0206Y-4.5424
X6.5089Y-5.3203
T0
M30
