%TF.GenerationSoftware,KiCad,Pcbnew,6.0.4*%
%TF.CreationDate,2022-05-08T18:55:17+02:00*%
%TF.ProjectId,mykeeb-adapter,6d796b65-6562-42d6-9164-61707465722e,rev?*%
%TF.SameCoordinates,Original*%
%TF.FileFunction,Legend,Bot*%
%TF.FilePolarity,Positive*%
%FSLAX46Y46*%
G04 Gerber Fmt 4.6, Leading zero omitted, Abs format (unit mm)*
G04 Created by KiCad (PCBNEW 6.0.4) date 2022-05-08 18:55:17*
%MOMM*%
%LPD*%
G01*
G04 APERTURE LIST*
%ADD10C,0.500000*%
%ADD11C,0.150000*%
%ADD12C,0.200000*%
%ADD13C,0.120000*%
%ADD14C,0.381000*%
%ADD15C,1.752600*%
%ADD16R,1.752600X1.752600*%
G04 APERTURE END LIST*
D10*
X79128860Y-69865906D02*
X76843145Y-69865906D01*
X77986003Y-71008763D02*
X77986003Y-68723049D01*
D11*
%TO.C,U1*%
X85019576Y-37800515D02*
X84543386Y-37467182D01*
X85019576Y-37229086D02*
X84019576Y-37229086D01*
X84019576Y-37610039D01*
X84067196Y-37705277D01*
X84114815Y-37752896D01*
X84210053Y-37800515D01*
X84352910Y-37800515D01*
X84448148Y-37752896D01*
X84495767Y-37705277D01*
X84543386Y-37610039D01*
X84543386Y-37229086D01*
X85019576Y-38657658D02*
X84495767Y-38657658D01*
X84400529Y-38610039D01*
X84352910Y-38514801D01*
X84352910Y-38324324D01*
X84400529Y-38229086D01*
X84971957Y-38657658D02*
X85019576Y-38562420D01*
X85019576Y-38324324D01*
X84971957Y-38229086D01*
X84876719Y-38181467D01*
X84781481Y-38181467D01*
X84686243Y-38229086D01*
X84638624Y-38324324D01*
X84638624Y-38562420D01*
X84591005Y-38657658D01*
X84352910Y-39038610D02*
X85019576Y-39229086D01*
X84543386Y-39419562D01*
X85019576Y-39610039D01*
X84352910Y-39800515D01*
%TO.C,K46*%
X156963781Y-120316639D02*
X156694374Y-120047231D01*
X152922666Y-125276993D02*
X152215559Y-124569886D01*
X143730278Y-116084605D02*
X143023171Y-115377498D01*
X143023171Y-115377498D02*
X143303185Y-115097484D01*
X162115054Y-114670391D02*
X162822161Y-115377498D01*
X155437138Y-118789995D02*
X154269704Y-117622562D01*
X162822161Y-115377498D02*
X162115054Y-116084605D01*
X152215559Y-106185110D02*
X152922666Y-105478003D01*
X147085500Y-114030460D02*
X146816092Y-114299867D01*
X156694374Y-120586047D02*
X156963781Y-120316639D01*
X152922666Y-105478003D02*
X153629773Y-106185110D01*
X154269704Y-123010716D02*
X154539112Y-122741308D01*
X144660830Y-116455129D02*
X144391423Y-116724536D01*
X153629773Y-124569886D02*
X152922666Y-125276993D01*
X151126615Y-117173549D02*
X149510169Y-115557103D01*
X144391423Y-116724536D02*
X150677602Y-123010716D01*
X151126615Y-117173549D02*
G75*
G03*
X154229486Y-117555530I1796051J1796051D01*
G01*
X150677602Y-123010716D02*
G75*
G03*
X154269704Y-123010716I1796051J1796052D01*
G01*
%TO.C,K45*%
X167951122Y-140952812D02*
X167760622Y-140622857D01*
X163126343Y-136406051D02*
X161983343Y-134426317D01*
X164651565Y-142857812D02*
X164981521Y-142667312D01*
X160036417Y-132324142D02*
X159706462Y-132514642D01*
X167621166Y-141143312D02*
X167951122Y-140952812D01*
X174388226Y-136832203D02*
X174888226Y-137698229D01*
X174888226Y-137698229D02*
X174022200Y-138198229D01*
X163629896Y-144198229D02*
X162763870Y-144698229D01*
X156263870Y-133439899D02*
X155763870Y-132573873D01*
X166871622Y-139083063D02*
X166046122Y-137653256D01*
X167022200Y-126073873D02*
X167888226Y-125573873D01*
X162763870Y-144698229D02*
X162263870Y-143832203D01*
X155763870Y-132573873D02*
X156106816Y-132375873D01*
X157066816Y-134038642D02*
X156736861Y-134229142D01*
X156736861Y-134229142D02*
X161181861Y-141928108D01*
X167888226Y-125573873D02*
X168388226Y-126439899D01*
X163126343Y-136406051D02*
G75*
G03*
X166024623Y-137578098I2199705J1270000D01*
G01*
X161181861Y-141928108D02*
G75*
G03*
X164651565Y-142857812I2199704J1270000D01*
G01*
D12*
%TO.C,D46*%
X87163501Y-70729023D02*
X85763501Y-70729023D01*
X86813501Y-72729023D02*
X86063501Y-72729023D01*
X87163501Y-70929023D02*
X85763501Y-70929023D01*
X86971501Y-70329023D02*
X86209501Y-70529023D01*
X87163501Y-70529023D02*
X85763501Y-70529023D01*
X86463501Y-72729023D02*
X86813501Y-73329023D01*
X85763501Y-70329023D02*
X85763501Y-75129023D01*
X86463501Y-73329023D02*
X86463501Y-73629023D01*
X87163501Y-70475023D02*
X87163501Y-75129023D01*
X87163501Y-75129023D02*
X85763501Y-75129023D01*
X86813501Y-73329023D02*
X86063501Y-73329023D01*
X86209501Y-70529023D02*
X85763501Y-70329023D01*
X86463501Y-72729023D02*
X86463501Y-72429023D01*
X86063501Y-73329023D02*
X86463501Y-72729023D01*
X86971501Y-70329023D02*
X87163501Y-70475023D01*
%TO.C,D45*%
X88590753Y-71719649D02*
X88144753Y-71519649D01*
X88844753Y-74519649D02*
X88844753Y-74819649D01*
X88844753Y-73919649D02*
X88844753Y-73619649D01*
X89352753Y-71519649D02*
X88590753Y-71719649D01*
X89544753Y-72119649D02*
X88144753Y-72119649D01*
X89194753Y-73919649D02*
X88444753Y-73919649D01*
X89544753Y-71919649D02*
X88144753Y-71919649D01*
X88844753Y-73919649D02*
X89194753Y-74519649D01*
X89544753Y-71665649D02*
X89544753Y-76319649D01*
X89544753Y-76319649D02*
X88144753Y-76319649D01*
X88444753Y-74519649D02*
X88844753Y-73919649D01*
X88144753Y-71519649D02*
X88144753Y-76319649D01*
X89194753Y-74519649D02*
X88444753Y-74519649D01*
X89544753Y-71719649D02*
X88144753Y-71719649D01*
X89352753Y-71519649D02*
X89544753Y-71665649D01*
%TO.C,D43*%
X93957257Y-73919649D02*
X93207257Y-73919649D01*
X94307257Y-71719649D02*
X92907257Y-71719649D01*
X92907257Y-71519649D02*
X92907257Y-76319649D01*
X94115257Y-71519649D02*
X94307257Y-71665649D01*
X94307257Y-71665649D02*
X94307257Y-76319649D01*
X94307257Y-71919649D02*
X92907257Y-71919649D01*
X93353257Y-71719649D02*
X92907257Y-71519649D01*
X94307257Y-76319649D02*
X92907257Y-76319649D01*
X94307257Y-72119649D02*
X92907257Y-72119649D01*
X94115257Y-71519649D02*
X93353257Y-71719649D01*
X93607257Y-73919649D02*
X93957257Y-74519649D01*
X93207257Y-74519649D02*
X93607257Y-73919649D01*
X93607257Y-74519649D02*
X93607257Y-74819649D01*
X93957257Y-74519649D02*
X93207257Y-74519649D01*
X93607257Y-73919649D02*
X93607257Y-73619649D01*
D11*
%TO.C,K41*%
X78859133Y-116284470D02*
X78859133Y-116665470D01*
X90289133Y-117554470D02*
X90289133Y-117173470D01*
X76939133Y-120109470D02*
X76939133Y-119713470D01*
X90289133Y-114125470D02*
X90289133Y-113744470D01*
X83939133Y-115649470D02*
X81653133Y-115649470D01*
X90939133Y-120109470D02*
X89939133Y-120109470D01*
X76939133Y-107109470D02*
X76939133Y-106109470D01*
X78859133Y-120094470D02*
X87749133Y-120094470D01*
X90939133Y-119109470D02*
X90939133Y-120109470D01*
X76939133Y-106109470D02*
X77939133Y-106109470D01*
X89939133Y-106109470D02*
X90939133Y-106109470D01*
X90939133Y-106109470D02*
X90939133Y-107109470D01*
X90289133Y-113744470D02*
X89908133Y-113744470D01*
X77939133Y-120109470D02*
X76939133Y-120109470D01*
X78859133Y-119713470D02*
X78859133Y-120094470D01*
X88130133Y-113744470D02*
X86479133Y-113744470D01*
X83939133Y-115649470D02*
G75*
G03*
X86403295Y-113725510I0J2540000D01*
G01*
X87749133Y-120094470D02*
G75*
G03*
X90289133Y-117554470I0J2540000D01*
G01*
D12*
%TO.C,D44*%
X91926005Y-70475023D02*
X91926005Y-75129023D01*
X91226005Y-73329023D02*
X91226005Y-73629023D01*
X91226005Y-72729023D02*
X91576005Y-73329023D01*
X90972005Y-70529023D02*
X90526005Y-70329023D01*
X91926005Y-70529023D02*
X90526005Y-70529023D01*
X90826005Y-73329023D02*
X91226005Y-72729023D01*
X91926005Y-70929023D02*
X90526005Y-70929023D01*
X90526005Y-70329023D02*
X90526005Y-75129023D01*
X91226005Y-72729023D02*
X91226005Y-72429023D01*
X91576005Y-73329023D02*
X90826005Y-73329023D01*
X91926005Y-70729023D02*
X90526005Y-70729023D01*
X91576005Y-72729023D02*
X90826005Y-72729023D01*
X91926005Y-75129023D02*
X90526005Y-75129023D01*
X91734005Y-70329023D02*
X91926005Y-70475023D01*
X91734005Y-70329023D02*
X90972005Y-70529023D01*
D11*
%TO.C,K42*%
X103992532Y-108108134D02*
X104958457Y-108366953D01*
X114812948Y-119306230D02*
X114911558Y-118938212D01*
X102227525Y-122113539D02*
X110814605Y-124414440D01*
X103733712Y-109074060D02*
X103992532Y-108108134D01*
X112826124Y-118379422D02*
X111231381Y-117952111D01*
X100369065Y-121631095D02*
X100471557Y-121248589D01*
X114911558Y-118938212D02*
X114543540Y-118839602D01*
X113925457Y-122618389D02*
X114024067Y-122250371D01*
X108284879Y-119134800D02*
X106076772Y-118543139D01*
X102326135Y-121745521D02*
X102227525Y-122113539D01*
X113892026Y-125254562D02*
X112926101Y-124995743D01*
X117515493Y-111731601D02*
X117256674Y-112697526D01*
X103213625Y-118433362D02*
X103115015Y-118801379D01*
X114150846Y-124288636D02*
X113892026Y-125254562D01*
X101334991Y-121889915D02*
X100369065Y-121631095D01*
X116549567Y-111472781D02*
X117515493Y-111731601D01*
X110814605Y-124414439D02*
G75*
G03*
X113925457Y-122618389I657401J2453450D01*
G01*
X108284879Y-119134800D02*
G75*
G03*
X111163034Y-117914169I657399J2453454D01*
G01*
%TO.C,K44*%
X140569018Y-143563650D02*
X140239063Y-143754150D01*
X151123368Y-150668320D02*
X151453324Y-150477820D01*
X150373824Y-148608071D02*
X149548324Y-147178264D01*
X139766072Y-142964907D02*
X139266072Y-142098881D01*
X139266072Y-142098881D02*
X139609018Y-141900881D01*
X151390428Y-135098881D02*
X151890428Y-135964907D01*
X150524402Y-135598881D02*
X151390428Y-135098881D01*
X158390428Y-147223237D02*
X157524402Y-147723237D01*
X146266072Y-154223237D02*
X145766072Y-153357211D01*
X157890428Y-146357211D02*
X158390428Y-147223237D01*
X146628545Y-145931059D02*
X145485545Y-143951325D01*
X143538619Y-141849150D02*
X143208664Y-142039650D01*
X151453324Y-150477820D02*
X151262824Y-150147865D01*
X147132098Y-153723237D02*
X146266072Y-154223237D01*
X148153767Y-152382820D02*
X148483723Y-152192320D01*
X140239063Y-143754150D02*
X144684063Y-151453116D01*
X144684063Y-151453116D02*
G75*
G03*
X148153767Y-152382820I2199704J1270000D01*
G01*
X146628545Y-145931059D02*
G75*
G03*
X149526825Y-147103106I2199705J1270000D01*
G01*
%TO.C,K40*%
X58755061Y-118430117D02*
X59621087Y-118930117D01*
X64496471Y-135693704D02*
X64826426Y-135884204D01*
X68341722Y-124715534D02*
X68011766Y-124525034D01*
X51755061Y-130554473D02*
X52255061Y-129688447D01*
X64826426Y-135884204D02*
X69271426Y-128185238D01*
X52621087Y-131054473D02*
X51755061Y-130554473D01*
X65372121Y-123001034D02*
X65042165Y-122810534D01*
X65042165Y-122810534D02*
X64851665Y-123140489D01*
X61526870Y-133979204D02*
X61856825Y-134169704D01*
X63879417Y-137554473D02*
X63536471Y-137356473D01*
X58255061Y-119296143D02*
X58755061Y-118430117D01*
X63962665Y-124680283D02*
X63137165Y-126110090D01*
X63516944Y-129262295D02*
X62373944Y-131242029D01*
X70013391Y-124930117D02*
X70879417Y-125430117D01*
X70879417Y-125430117D02*
X70379417Y-126296143D01*
X64379417Y-136688447D02*
X63879417Y-137554473D01*
X63516944Y-129262295D02*
G75*
G03*
X63082826Y-126166288I-2199705J1270000D01*
G01*
X69271426Y-128185238D02*
G75*
G03*
X68341722Y-124715534I-2199704J1270000D01*
G01*
D12*
%TO.C,D42*%
X96688509Y-70778771D02*
X95288509Y-70778771D01*
X95734509Y-70578771D02*
X95288509Y-70378771D01*
X96688509Y-70578771D02*
X95288509Y-70578771D01*
X96496509Y-70378771D02*
X95734509Y-70578771D01*
X96688509Y-75178771D02*
X95288509Y-75178771D01*
X96338509Y-73378771D02*
X95588509Y-73378771D01*
X95588509Y-73378771D02*
X95988509Y-72778771D01*
X96496509Y-70378771D02*
X96688509Y-70524771D01*
X96338509Y-72778771D02*
X95588509Y-72778771D01*
X95988509Y-72778771D02*
X95988509Y-72478771D01*
X96688509Y-70978771D02*
X95288509Y-70978771D01*
X95988509Y-73378771D02*
X95988509Y-73678771D01*
X95288509Y-70378771D02*
X95288509Y-75178771D01*
X96688509Y-70524771D02*
X96688509Y-75178771D01*
X95988509Y-72778771D02*
X96338509Y-73378771D01*
D11*
%TO.C,K43*%
X135436247Y-133230839D02*
X135626747Y-132900883D01*
X123463334Y-129268534D02*
X122597308Y-128768534D01*
X135221664Y-134902508D02*
X134721664Y-135768534D01*
X140855638Y-123144178D02*
X141721664Y-123644178D01*
X137341247Y-129931282D02*
X137011292Y-129740782D01*
X122597308Y-128768534D02*
X122795308Y-128425588D01*
X135471498Y-128851782D02*
X134041691Y-128026282D01*
X129097308Y-117510204D02*
X129597308Y-116644178D01*
X129597308Y-116644178D02*
X130463334Y-117144178D01*
X134721664Y-135768534D02*
X133855638Y-135268534D01*
X124267577Y-129715543D02*
X131966543Y-134160543D01*
X124458077Y-129385588D02*
X124267577Y-129715543D01*
X137150747Y-130261238D02*
X137341247Y-129931282D01*
X130889486Y-128406061D02*
X128909752Y-127263061D01*
X141721664Y-123644178D02*
X141221664Y-124510204D01*
X126172577Y-126415987D02*
X125982077Y-126745942D01*
X131966543Y-134160543D02*
G75*
G03*
X135436247Y-133230839I1270000J2199704D01*
G01*
X130889486Y-128406061D02*
G75*
G03*
X133985493Y-127971943I1270000J2199705D01*
G01*
D13*
%TO.C,J1*%
X111779454Y-43894424D02*
X111779454Y-51574424D01*
X114439454Y-42624424D02*
X114439454Y-41294424D01*
X76339454Y-42703799D02*
X76339454Y-50383799D01*
X114439454Y-51574424D02*
X111779454Y-51574424D01*
X76339454Y-40103799D02*
X75009454Y-40103799D01*
X114439454Y-61674424D02*
X114439454Y-60344424D01*
X76339454Y-69433799D02*
X73679454Y-69433799D01*
X114439454Y-70624424D02*
X111779454Y-70624424D01*
X76339454Y-59153799D02*
X75009454Y-59153799D01*
X114439454Y-43894424D02*
X111779454Y-43894424D01*
X76339454Y-42703799D02*
X73679454Y-42703799D01*
X114439454Y-41294424D02*
X113109454Y-41294424D01*
X114439454Y-62944424D02*
X114439454Y-70624424D01*
X76339454Y-60483799D02*
X76339454Y-59153799D01*
X114439454Y-62944424D02*
X111779454Y-62944424D01*
X76339454Y-50383799D02*
X73679454Y-50383799D01*
X76339454Y-41433799D02*
X76339454Y-40103799D01*
X111779454Y-62944424D02*
X111779454Y-70624424D01*
X114439454Y-60344424D02*
X113109454Y-60344424D01*
X73679454Y-42703799D02*
X73679454Y-50383799D01*
X73679454Y-61753799D02*
X73679454Y-69433799D01*
X76339454Y-61753799D02*
X76339454Y-69433799D01*
X76339454Y-61753799D02*
X73679454Y-61753799D01*
X114439454Y-43894424D02*
X114439454Y-51574424D01*
D12*
%TO.C,D41*%
X98369761Y-73919649D02*
X98369761Y-73619649D01*
X98719761Y-74519649D02*
X97969761Y-74519649D01*
X99069761Y-76319649D02*
X97669761Y-76319649D01*
X98877761Y-71519649D02*
X99069761Y-71665649D01*
X99069761Y-71919649D02*
X97669761Y-71919649D01*
X99069761Y-71665649D02*
X99069761Y-76319649D01*
X98115761Y-71719649D02*
X97669761Y-71519649D01*
X97969761Y-74519649D02*
X98369761Y-73919649D01*
X99069761Y-71719649D02*
X97669761Y-71719649D01*
X98719761Y-73919649D02*
X97969761Y-73919649D01*
X99069761Y-72119649D02*
X97669761Y-72119649D01*
X97669761Y-71519649D02*
X97669761Y-76319649D01*
X98877761Y-71519649D02*
X98115761Y-71719649D01*
X98369761Y-74519649D02*
X98369761Y-74819649D01*
X98369761Y-73919649D02*
X98719761Y-74519649D01*
%TO.C,D40*%
X101101013Y-72729023D02*
X100351013Y-72729023D01*
X100751013Y-72729023D02*
X101101013Y-73329023D01*
X101451013Y-70729023D02*
X100051013Y-70729023D01*
X101259013Y-70329023D02*
X100497013Y-70529023D01*
X101259013Y-70329023D02*
X101451013Y-70475023D01*
X101451013Y-75129023D02*
X100051013Y-75129023D01*
X100497013Y-70529023D02*
X100051013Y-70329023D01*
X100051013Y-70329023D02*
X100051013Y-75129023D01*
X100751013Y-72729023D02*
X100751013Y-72429023D01*
X101451013Y-70475023D02*
X101451013Y-75129023D01*
X101101013Y-73329023D02*
X100351013Y-73329023D01*
X101451013Y-70929023D02*
X100051013Y-70929023D01*
X101451013Y-70529023D02*
X100051013Y-70529023D01*
X100751013Y-73329023D02*
X100751013Y-73629023D01*
X100351013Y-73329023D02*
X100751013Y-72729023D01*
D13*
%TO.C,J3*%
X87555257Y-77459718D02*
X102855257Y-77459718D01*
X84955257Y-77459718D02*
X84955257Y-78789718D01*
X86285257Y-77459718D02*
X84955257Y-77459718D01*
X87555257Y-80059718D02*
X84955257Y-80059718D01*
X87555257Y-77459718D02*
X87555257Y-80059718D01*
X84955257Y-82659718D02*
X102855257Y-82659718D01*
X84955257Y-80059718D02*
X84955257Y-82659718D01*
X102855257Y-77459718D02*
X102855257Y-82659718D01*
%TO.C,SW2*%
X76339438Y-53513796D02*
X73679438Y-53513796D01*
X76339438Y-52243796D02*
X76339438Y-50913796D01*
X76339438Y-50913796D02*
X75009438Y-50913796D01*
X76339438Y-53513796D02*
X76339438Y-58653796D01*
X73679438Y-53513796D02*
X73679438Y-58653796D01*
X76339438Y-58653796D02*
X73679438Y-58653796D01*
%TO.C,J11*%
X81697152Y-54748755D02*
X81697152Y-44528755D01*
X79037152Y-44528755D02*
X81697152Y-44528755D01*
X80367152Y-57348755D02*
X81697152Y-57348755D01*
X79037152Y-54748755D02*
X81697152Y-54748755D01*
X79037152Y-54748755D02*
X79037152Y-44528755D01*
X81697152Y-57348755D02*
X81697152Y-56018755D01*
%TO.C,J4*%
X106251653Y-56589727D02*
X109251653Y-56589727D01*
X111781653Y-49019727D02*
X111781653Y-50019727D01*
X104101653Y-37089727D02*
X104101653Y-47539727D01*
X104101653Y-50039727D02*
X104101653Y-54539727D01*
X111401653Y-50039727D02*
X111401653Y-54539727D01*
X104101653Y-37089727D02*
X111401653Y-37089727D01*
X111401653Y-37089727D02*
X111401653Y-47539727D01*
D14*
%TO.C,U1*%
X103109196Y-37197182D02*
X103109196Y-67677182D01*
X85329196Y-37197182D02*
X103109196Y-37197182D01*
X85329196Y-67677182D02*
X85329196Y-37197182D01*
X100569196Y-39737182D02*
X103109196Y-39737182D01*
X103109196Y-67677182D02*
X85329196Y-67677182D01*
D13*
%TO.C,J2*%
X92118853Y-46930312D02*
X92118853Y-48260312D01*
X92118853Y-45660312D02*
X92118853Y-43060312D01*
X92118853Y-48260312D02*
X93448853Y-48260312D01*
X92118853Y-45660312D02*
X94778853Y-45660312D01*
X94778853Y-45660312D02*
X94778853Y-43060312D01*
X92118853Y-43060312D02*
X94778853Y-43060312D01*
%TO.C,SW1*%
X107931237Y-68662552D02*
X106431237Y-68662552D01*
X103931237Y-67412552D02*
X103931237Y-62912552D01*
X110431237Y-62912552D02*
X110431237Y-67412552D01*
X106431237Y-61662552D02*
X107931237Y-61662552D01*
%TO.C,BT1*%
X79257881Y-65960995D02*
X78257881Y-65960995D01*
X83617881Y-68320995D02*
X82697881Y-68320995D01*
X82697881Y-68320995D02*
X82417881Y-68320995D01*
X78417881Y-69920995D02*
X77497881Y-69920995D01*
X83617881Y-69920995D02*
X82697881Y-69920995D01*
X77497881Y-62100995D02*
X83617881Y-62100995D01*
X78257881Y-64360995D02*
X79257881Y-64360995D01*
X79257881Y-64360995D02*
X79257881Y-62100995D01*
X79257881Y-64360995D02*
X79257881Y-65960995D01*
X78417881Y-68320995D02*
X78417881Y-69920995D01*
X81857881Y-64360995D02*
X81857881Y-65960995D01*
X80057881Y-66460995D02*
X81057881Y-66460995D01*
X83617881Y-62100995D02*
X83617881Y-69920995D01*
X80057881Y-62100995D02*
X80057881Y-66460995D01*
X78257881Y-65960995D02*
X78257881Y-64360995D01*
X78697881Y-68320995D02*
X78697881Y-69535995D01*
X82857881Y-64360995D02*
X81857881Y-64360995D01*
X78757881Y-64360995D02*
X78757881Y-62100995D01*
X81057881Y-66460995D02*
X81057881Y-62100995D01*
X78697881Y-68320995D02*
X78417881Y-68320995D01*
X81857881Y-65960995D02*
X82857881Y-65960995D01*
X82857881Y-65960995D02*
X82857881Y-64360995D01*
X77497881Y-69920995D02*
X77497881Y-62100995D01*
X77497881Y-68320995D02*
X78417881Y-68320995D01*
X82697881Y-69920995D02*
X82697881Y-68320995D01*
%TD*%
D15*
%TO.C,U1*%
X101839196Y-58787182D03*
X86599196Y-48627182D03*
D16*
X101839196Y-38467182D03*
D15*
X86599196Y-51167182D03*
X101839196Y-63867182D03*
X86599196Y-46087182D03*
X101839196Y-53707182D03*
X86599196Y-56247182D03*
X101839196Y-66407182D03*
X86599196Y-43547182D03*
X101839196Y-41007182D03*
X101839196Y-43547182D03*
X86599196Y-41007182D03*
X86599196Y-38467182D03*
X86599196Y-53707182D03*
X101839196Y-51167182D03*
X101839196Y-61327182D03*
X86599196Y-61327182D03*
X86599196Y-66407182D03*
X101839196Y-48627182D03*
X86599196Y-63867182D03*
X86599196Y-58787182D03*
X101839196Y-46087182D03*
X101839196Y-56247182D03*
%TD*%
M02*
