%TF.GenerationSoftware,KiCad,Pcbnew,6.0.4*%
%TF.CreationDate,2022-04-28T08:17:54+02:00*%
%TF.ProjectId,mykeeb,6d796b65-6562-42e6-9b69-6361645f7063,rev?*%
%TF.SameCoordinates,Original*%
%TF.FileFunction,Legend,Bot*%
%TF.FilePolarity,Positive*%
%FSLAX46Y46*%
G04 Gerber Fmt 4.6, Leading zero omitted, Abs format (unit mm)*
G04 Created by KiCad (PCBNEW 6.0.4) date 2022-04-28 08:17:54*
%MOMM*%
%LPD*%
G01*
G04 APERTURE LIST*
%ADD10C,0.150000*%
%ADD11C,0.200000*%
%ADD12C,0.120000*%
%ADD13C,1.752600*%
%ADD14R,1.752600X1.752600*%
G04 APERTURE END LIST*
D10*
X155972006Y-59531300D02*
X154781380Y-59531300D01*
X154781380Y-59531300D02*
X154781380Y-58935987D01*
X154781380Y-58935987D02*
X155972006Y-58935987D01*
X155972006Y-58935987D02*
X155972006Y-59531300D01*
X175022022Y-59531300D02*
X157162632Y-59531300D01*
X157162632Y-59531300D02*
X157162632Y-58935987D01*
X157162632Y-58935987D02*
X175022022Y-58935987D01*
X175022022Y-58935987D02*
X175022022Y-59531300D01*
X34098683Y-56935762D02*
X34098683Y-57745286D01*
X34146302Y-57840524D01*
X34193921Y-57888143D01*
X34289159Y-57935762D01*
X34432017Y-57935762D01*
X34527255Y-57888143D01*
X34098683Y-57554809D02*
X34193921Y-57602428D01*
X34384398Y-57602428D01*
X34479636Y-57554809D01*
X34527255Y-57507190D01*
X34574874Y-57411952D01*
X34574874Y-57126238D01*
X34527255Y-57031000D01*
X34479636Y-56983381D01*
X34384398Y-56935762D01*
X34193921Y-56935762D01*
X34098683Y-56983381D01*
X33622493Y-57602428D02*
X33622493Y-56935762D01*
X33622493Y-56602428D02*
X33670112Y-56650048D01*
X33622493Y-56697667D01*
X33574874Y-56650048D01*
X33622493Y-56602428D01*
X33622493Y-56697667D01*
X33289159Y-56935762D02*
X32908207Y-56935762D01*
X33146302Y-56602428D02*
X33146302Y-57459571D01*
X33098683Y-57554809D01*
X33003445Y-57602428D01*
X32908207Y-57602428D01*
X32574874Y-57602428D02*
X32574874Y-56602428D01*
X32146302Y-57602428D02*
X32146302Y-57078619D01*
X32193921Y-56983381D01*
X32289159Y-56935762D01*
X32432017Y-56935762D01*
X32527255Y-56983381D01*
X32574874Y-57031000D01*
X31241540Y-56935762D02*
X31241540Y-57602428D01*
X31670112Y-56935762D02*
X31670112Y-57459571D01*
X31622493Y-57554809D01*
X31527255Y-57602428D01*
X31384398Y-57602428D01*
X31289159Y-57554809D01*
X31241540Y-57507190D01*
X30765350Y-57602428D02*
X30765350Y-56602428D01*
X30765350Y-56983381D02*
X30670112Y-56935762D01*
X30479636Y-56935762D01*
X30384398Y-56983381D01*
X30336778Y-57031000D01*
X30289159Y-57126238D01*
X30289159Y-57411952D01*
X30336778Y-57507190D01*
X30384398Y-57554809D01*
X30479636Y-57602428D01*
X30670112Y-57602428D01*
X30765350Y-57554809D01*
X29860588Y-57507190D02*
X29812969Y-57554809D01*
X29860588Y-57602428D01*
X29908207Y-57554809D01*
X29860588Y-57507190D01*
X29860588Y-57602428D01*
X28955826Y-57554809D02*
X29051064Y-57602428D01*
X29241540Y-57602428D01*
X29336778Y-57554809D01*
X29384398Y-57507190D01*
X29432017Y-57411952D01*
X29432017Y-57126238D01*
X29384398Y-57031000D01*
X29336778Y-56983381D01*
X29241540Y-56935762D01*
X29051064Y-56935762D01*
X28955826Y-56983381D01*
X28384398Y-57602428D02*
X28479636Y-57554809D01*
X28527255Y-57507190D01*
X28574874Y-57411952D01*
X28574874Y-57126238D01*
X28527255Y-57031000D01*
X28479636Y-56983381D01*
X28384398Y-56935762D01*
X28241540Y-56935762D01*
X28146302Y-56983381D01*
X28098683Y-57031000D01*
X28051064Y-57126238D01*
X28051064Y-57411952D01*
X28098683Y-57507190D01*
X28146302Y-57554809D01*
X28241540Y-57602428D01*
X28384398Y-57602428D01*
X27622493Y-57602428D02*
X27622493Y-56935762D01*
X27622493Y-57031000D02*
X27574874Y-56983381D01*
X27479636Y-56935762D01*
X27336778Y-56935762D01*
X27241540Y-56983381D01*
X27193921Y-57078619D01*
X27193921Y-57602428D01*
X27193921Y-57078619D02*
X27146302Y-56983381D01*
X27051064Y-56935762D01*
X26908207Y-56935762D01*
X26812969Y-56983381D01*
X26765350Y-57078619D01*
X26765350Y-57602428D01*
X25574874Y-56554809D02*
X26432017Y-57840524D01*
X25241540Y-57602428D02*
X25241540Y-56935762D01*
X25241540Y-57031000D02*
X25193921Y-56983381D01*
X25098683Y-56935762D01*
X24955826Y-56935762D01*
X24860588Y-56983381D01*
X24812969Y-57078619D01*
X24812969Y-57602428D01*
X24812969Y-57078619D02*
X24765350Y-56983381D01*
X24670112Y-56935762D01*
X24527255Y-56935762D01*
X24432017Y-56983381D01*
X24384398Y-57078619D01*
X24384398Y-57602428D01*
X23479636Y-57602428D02*
X23479636Y-57078619D01*
X23527255Y-56983381D01*
X23622493Y-56935762D01*
X23812969Y-56935762D01*
X23908207Y-56983381D01*
X23479636Y-57554809D02*
X23574874Y-57602428D01*
X23812969Y-57602428D01*
X23908207Y-57554809D01*
X23955826Y-57459571D01*
X23955826Y-57364333D01*
X23908207Y-57269095D01*
X23812969Y-57221476D01*
X23574874Y-57221476D01*
X23479636Y-57173857D01*
X23098683Y-57602428D02*
X22574874Y-56935762D01*
X23098683Y-56935762D02*
X22574874Y-57602428D01*
X22193921Y-57602428D02*
X22193921Y-56602428D01*
X21765350Y-57602428D02*
X21765350Y-57078619D01*
X21812969Y-56983381D01*
X21908207Y-56935762D01*
X22051064Y-56935762D01*
X22146302Y-56983381D01*
X22193921Y-57031000D01*
X21289159Y-57602428D02*
X21289159Y-56602428D01*
X21289159Y-56983381D02*
X21193921Y-56935762D01*
X21003445Y-56935762D01*
X20908207Y-56983381D01*
X20860588Y-57031000D01*
X20812969Y-57126238D01*
X20812969Y-57411952D01*
X20860588Y-57507190D01*
X20908207Y-57554809D01*
X21003445Y-57602428D01*
X21193921Y-57602428D01*
X21289159Y-57554809D01*
X20384398Y-57602428D02*
X20384398Y-56935762D01*
X20384398Y-57126238D02*
X20336778Y-57031000D01*
X20289159Y-56983381D01*
X20193921Y-56935762D01*
X20098683Y-56935762D01*
X163163427Y-35504453D02*
X165449142Y-35504453D01*
X164306285Y-34361596D02*
X164306285Y-36647310D01*
X136874221Y-54983081D02*
X134588506Y-54983081D01*
X135731364Y-56125938D02*
X135731364Y-53840224D01*
%TO.C,U1*%
X154556380Y-25749333D02*
X154080190Y-25416000D01*
X154556380Y-25177904D02*
X153556380Y-25177904D01*
X153556380Y-25558857D01*
X153604000Y-25654095D01*
X153651619Y-25701714D01*
X153746857Y-25749333D01*
X153889714Y-25749333D01*
X153984952Y-25701714D01*
X154032571Y-25654095D01*
X154080190Y-25558857D01*
X154080190Y-25177904D01*
X154556380Y-26606476D02*
X154032571Y-26606476D01*
X153937333Y-26558857D01*
X153889714Y-26463619D01*
X153889714Y-26273142D01*
X153937333Y-26177904D01*
X154508761Y-26606476D02*
X154556380Y-26511238D01*
X154556380Y-26273142D01*
X154508761Y-26177904D01*
X154413523Y-26130285D01*
X154318285Y-26130285D01*
X154223047Y-26177904D01*
X154175428Y-26273142D01*
X154175428Y-26511238D01*
X154127809Y-26606476D01*
X153889714Y-26987428D02*
X154556380Y-27177904D01*
X154080190Y-27368380D01*
X154556380Y-27558857D01*
X153889714Y-27749333D01*
%TO.C,K26*%
X136604375Y-98663125D02*
X145494375Y-98663125D01*
X148684375Y-84678125D02*
X148684375Y-85678125D01*
X147684375Y-84678125D02*
X148684375Y-84678125D01*
X135684375Y-98678125D02*
X134684375Y-98678125D01*
X148034375Y-92694125D02*
X148034375Y-92313125D01*
X148034375Y-92313125D02*
X147653375Y-92313125D01*
X134684375Y-98678125D02*
X134684375Y-98282125D01*
X134684375Y-85678125D02*
X134684375Y-84678125D01*
X148034375Y-96123125D02*
X148034375Y-95742125D01*
X148684375Y-97678125D02*
X148684375Y-98678125D01*
X136604375Y-98282125D02*
X136604375Y-98663125D01*
X148684375Y-98678125D02*
X147684375Y-98678125D01*
X136604375Y-94853125D02*
X136604375Y-95234125D01*
X141684375Y-94218125D02*
X139398375Y-94218125D01*
X134684375Y-84678125D02*
X135684375Y-84678125D01*
X145875375Y-92313125D02*
X144224375Y-92313125D01*
X141684375Y-94218125D02*
G75*
G03*
X144148537Y-92294165I0J2540000D01*
G01*
X145494375Y-98663125D02*
G75*
G03*
X148034375Y-96123125I0J2540000D01*
G01*
D11*
%TO.C,D33*%
X92378125Y-85953625D02*
X90978125Y-85953625D01*
X91424125Y-86353625D02*
X90978125Y-86553625D01*
X92028125Y-84153625D02*
X91278125Y-84153625D01*
X91678125Y-83553625D02*
X91678125Y-83253625D01*
X92186125Y-86553625D02*
X92378125Y-86407625D01*
X90978125Y-86553625D02*
X90978125Y-81753625D01*
X92028125Y-83553625D02*
X91278125Y-83553625D01*
X92186125Y-86553625D02*
X91424125Y-86353625D01*
X91278125Y-83553625D02*
X91678125Y-84153625D01*
X92378125Y-86153625D02*
X90978125Y-86153625D01*
X92378125Y-86407625D02*
X92378125Y-81753625D01*
X92378125Y-81753625D02*
X90978125Y-81753625D01*
X91678125Y-84153625D02*
X91678125Y-84453625D01*
X92378125Y-86353625D02*
X90978125Y-86353625D01*
X91678125Y-84153625D02*
X92028125Y-83553625D01*
D10*
%TO.C,K14*%
X109934375Y-56594375D02*
X109553375Y-56594375D01*
X98504375Y-62563375D02*
X98504375Y-62944375D01*
X103584375Y-58499375D02*
X101298375Y-58499375D01*
X110584375Y-61959375D02*
X110584375Y-62959375D01*
X98504375Y-59134375D02*
X98504375Y-59515375D01*
X110584375Y-48959375D02*
X110584375Y-49959375D01*
X96584375Y-49959375D02*
X96584375Y-48959375D01*
X109934375Y-56975375D02*
X109934375Y-56594375D01*
X107775375Y-56594375D02*
X106124375Y-56594375D01*
X109934375Y-60404375D02*
X109934375Y-60023375D01*
X110584375Y-62959375D02*
X109584375Y-62959375D01*
X109584375Y-48959375D02*
X110584375Y-48959375D01*
X96584375Y-62959375D02*
X96584375Y-62563375D01*
X96584375Y-48959375D02*
X97584375Y-48959375D01*
X98504375Y-62944375D02*
X107394375Y-62944375D01*
X97584375Y-62959375D02*
X96584375Y-62959375D01*
X103584375Y-58499375D02*
G75*
G03*
X106048537Y-56575415I0J2540000D01*
G01*
X107394375Y-62944375D02*
G75*
G03*
X109934375Y-60404375I0J2540000D01*
G01*
%TO.C,K12*%
X59484375Y-61768750D02*
X58484375Y-61768750D01*
X72484375Y-61768750D02*
X71484375Y-61768750D01*
X72484375Y-60768750D02*
X72484375Y-61768750D01*
X58484375Y-48768750D02*
X58484375Y-47768750D01*
X71834375Y-55784750D02*
X71834375Y-55403750D01*
X58484375Y-61768750D02*
X58484375Y-61372750D01*
X71484375Y-47768750D02*
X72484375Y-47768750D01*
X72484375Y-47768750D02*
X72484375Y-48768750D01*
X71834375Y-59213750D02*
X71834375Y-58832750D01*
X60404375Y-61372750D02*
X60404375Y-61753750D01*
X71834375Y-55403750D02*
X71453375Y-55403750D01*
X60404375Y-61753750D02*
X69294375Y-61753750D01*
X65484375Y-57308750D02*
X63198375Y-57308750D01*
X58484375Y-47768750D02*
X59484375Y-47768750D01*
X60404375Y-57943750D02*
X60404375Y-58324750D01*
X69675375Y-55403750D02*
X68024375Y-55403750D01*
X65484375Y-57308750D02*
G75*
G03*
X67948537Y-55384790I0J2540000D01*
G01*
X69294375Y-61753750D02*
G75*
G03*
X71834375Y-59213750I0J2540000D01*
G01*
D11*
%TO.C,D32*%
X72374125Y-92306750D02*
X71928125Y-92506750D01*
X72628125Y-89506750D02*
X72628125Y-89206750D01*
X73328125Y-92106750D02*
X71928125Y-92106750D01*
X72978125Y-90106750D02*
X72228125Y-90106750D01*
X73136125Y-92506750D02*
X72374125Y-92306750D01*
X71928125Y-92506750D02*
X71928125Y-87706750D01*
X73328125Y-87706750D02*
X71928125Y-87706750D01*
X72228125Y-89506750D02*
X72628125Y-90106750D01*
X73136125Y-92506750D02*
X73328125Y-92360750D01*
X72978125Y-89506750D02*
X72228125Y-89506750D01*
X73328125Y-91906750D02*
X71928125Y-91906750D01*
X72628125Y-90106750D02*
X72978125Y-89506750D01*
X73328125Y-92306750D02*
X71928125Y-92306750D01*
X72628125Y-90106750D02*
X72628125Y-90406750D01*
X73328125Y-92360750D02*
X73328125Y-87706750D01*
D10*
%TO.C,K22*%
X72484375Y-66818750D02*
X72484375Y-67818750D01*
X65484375Y-76358750D02*
X63198375Y-76358750D01*
X71834375Y-74453750D02*
X71453375Y-74453750D01*
X58484375Y-66818750D02*
X59484375Y-66818750D01*
X71834375Y-74834750D02*
X71834375Y-74453750D01*
X60404375Y-76993750D02*
X60404375Y-77374750D01*
X60404375Y-80422750D02*
X60404375Y-80803750D01*
X71484375Y-66818750D02*
X72484375Y-66818750D01*
X69675375Y-74453750D02*
X68024375Y-74453750D01*
X58484375Y-80818750D02*
X58484375Y-80422750D01*
X72484375Y-80818750D02*
X71484375Y-80818750D01*
X60404375Y-80803750D02*
X69294375Y-80803750D01*
X71834375Y-78263750D02*
X71834375Y-77882750D01*
X59484375Y-80818750D02*
X58484375Y-80818750D01*
X72484375Y-79818750D02*
X72484375Y-80818750D01*
X58484375Y-67818750D02*
X58484375Y-66818750D01*
X69294375Y-80803750D02*
G75*
G03*
X71834375Y-78263750I0J2540000D01*
G01*
X65484375Y-76358750D02*
G75*
G03*
X67948537Y-74434790I0J2540000D01*
G01*
%TO.C,K45*%
X165692599Y-117866627D02*
X166399706Y-118573734D01*
X164985492Y-118573734D02*
X165692599Y-117866627D01*
X165692599Y-137665617D02*
X164985492Y-136958510D01*
X169464307Y-132974671D02*
X169733714Y-132705263D01*
X159855433Y-126419084D02*
X159586025Y-126688491D01*
X157430763Y-128843753D02*
X157161356Y-129113160D01*
X156500211Y-128473229D02*
X155793104Y-127766122D01*
X174884987Y-127059015D02*
X175592094Y-127766122D01*
X167039637Y-135399340D02*
X167309045Y-135129932D01*
X168207071Y-131178619D02*
X167039637Y-130011186D01*
X166399706Y-136958510D02*
X165692599Y-137665617D01*
X157161356Y-129113160D02*
X163447535Y-135399340D01*
X163896548Y-129562173D02*
X162280102Y-127945727D01*
X175592094Y-127766122D02*
X174884987Y-128473229D01*
X155793104Y-127766122D02*
X156073118Y-127486108D01*
X169733714Y-132705263D02*
X169464307Y-132435855D01*
X163896548Y-129562173D02*
G75*
G03*
X166999419Y-129944154I1796051J1796051D01*
G01*
X163447535Y-135399340D02*
G75*
G03*
X167039637Y-135399340I1796051J1796052D01*
G01*
%TO.C,K44*%
X151692599Y-151665617D02*
X150985492Y-150958510D01*
X150985492Y-132573734D02*
X151692599Y-131866627D01*
X161592094Y-141766122D02*
X160884987Y-142473229D01*
X155733714Y-146705263D02*
X155464307Y-146435855D01*
X160884987Y-141059015D02*
X161592094Y-141766122D01*
X143430763Y-142843753D02*
X143161356Y-143113160D01*
X142500211Y-142473229D02*
X141793104Y-141766122D01*
X155464307Y-146974671D02*
X155733714Y-146705263D01*
X149896548Y-143562173D02*
X148280102Y-141945727D01*
X145855433Y-140419084D02*
X145586025Y-140688491D01*
X143161356Y-143113160D02*
X149447535Y-149399340D01*
X153039637Y-149399340D02*
X153309045Y-149129932D01*
X151692599Y-131866627D02*
X152399706Y-132573734D01*
X154207071Y-145178619D02*
X153039637Y-144011186D01*
X141793104Y-141766122D02*
X142073118Y-141486108D01*
X152399706Y-150958510D02*
X151692599Y-151665617D01*
X149896548Y-143562173D02*
G75*
G03*
X152999419Y-143944154I1796051J1796051D01*
G01*
X149447535Y-149399340D02*
G75*
G03*
X153039637Y-149399340I1796051J1796052D01*
G01*
D11*
%TO.C,D10*%
X34878125Y-63913000D02*
X34128125Y-63913000D01*
X35036125Y-66313000D02*
X35228125Y-66167000D01*
X34128125Y-63313000D02*
X34528125Y-63913000D01*
X35228125Y-65713000D02*
X33828125Y-65713000D01*
X35228125Y-61513000D02*
X33828125Y-61513000D01*
X35228125Y-65913000D02*
X33828125Y-65913000D01*
X34528125Y-63313000D02*
X34528125Y-63013000D01*
X34528125Y-63913000D02*
X34528125Y-64213000D01*
X35228125Y-66167000D02*
X35228125Y-61513000D01*
X34528125Y-63913000D02*
X34878125Y-63313000D01*
X35228125Y-66113000D02*
X33828125Y-66113000D01*
X34878125Y-63313000D02*
X34128125Y-63313000D01*
X34274125Y-66113000D02*
X33828125Y-66313000D01*
X35036125Y-66313000D02*
X34274125Y-66113000D01*
X33828125Y-66313000D02*
X33828125Y-61513000D01*
%TO.C,D2*%
X72628125Y-32956750D02*
X72978125Y-32356750D01*
X72628125Y-32356750D02*
X72628125Y-32056750D01*
X73328125Y-30556750D02*
X71928125Y-30556750D01*
X72228125Y-32356750D02*
X72628125Y-32956750D01*
X71928125Y-35356750D02*
X71928125Y-30556750D01*
X73328125Y-35156750D02*
X71928125Y-35156750D01*
X72374125Y-35156750D02*
X71928125Y-35356750D01*
X73328125Y-34956750D02*
X71928125Y-34956750D01*
X73136125Y-35356750D02*
X72374125Y-35156750D01*
X72628125Y-32956750D02*
X72628125Y-33256750D01*
X73328125Y-35210750D02*
X73328125Y-30556750D01*
X72978125Y-32956750D02*
X72228125Y-32956750D01*
X73136125Y-35356750D02*
X73328125Y-35210750D01*
X72978125Y-32356750D02*
X72228125Y-32356750D01*
X73328125Y-34756750D02*
X71928125Y-34756750D01*
D10*
%TO.C,K30*%
X20384375Y-111775000D02*
X20384375Y-111379000D01*
X34384375Y-110775000D02*
X34384375Y-111775000D01*
X22304375Y-107950000D02*
X22304375Y-108331000D01*
X33734375Y-105791000D02*
X33734375Y-105410000D01*
X20384375Y-98775000D02*
X20384375Y-97775000D01*
X33734375Y-109220000D02*
X33734375Y-108839000D01*
X33384375Y-97775000D02*
X34384375Y-97775000D01*
X33734375Y-105410000D02*
X33353375Y-105410000D01*
X34384375Y-111775000D02*
X33384375Y-111775000D01*
X21384375Y-111775000D02*
X20384375Y-111775000D01*
X20384375Y-97775000D02*
X21384375Y-97775000D01*
X22304375Y-111760000D02*
X31194375Y-111760000D01*
X31575375Y-105410000D02*
X29924375Y-105410000D01*
X27384375Y-107315000D02*
X25098375Y-107315000D01*
X34384375Y-97775000D02*
X34384375Y-98775000D01*
X22304375Y-111379000D02*
X22304375Y-111760000D01*
X31194375Y-111760000D02*
G75*
G03*
X33734375Y-109220000I0J2540000D01*
G01*
X27384375Y-107315000D02*
G75*
G03*
X29848537Y-105391040I0J2540000D01*
G01*
D11*
%TO.C,D14*%
X111078125Y-53197375D02*
X110328125Y-53197375D01*
X110728125Y-53197375D02*
X110728125Y-53497375D01*
X110328125Y-52597375D02*
X110728125Y-53197375D01*
X110474125Y-55397375D02*
X110028125Y-55597375D01*
X111236125Y-55597375D02*
X110474125Y-55397375D01*
X111236125Y-55597375D02*
X111428125Y-55451375D01*
X111078125Y-52597375D02*
X110328125Y-52597375D01*
X110728125Y-53197375D02*
X111078125Y-52597375D01*
X111428125Y-50797375D02*
X110028125Y-50797375D01*
X111428125Y-54997375D02*
X110028125Y-54997375D01*
X111428125Y-55451375D02*
X111428125Y-50797375D01*
X110028125Y-55597375D02*
X110028125Y-50797375D01*
X111428125Y-55197375D02*
X110028125Y-55197375D01*
X110728125Y-52597375D02*
X110728125Y-52297375D01*
X111428125Y-55397375D02*
X110028125Y-55397375D01*
%TO.C,D5*%
X130478125Y-38528625D02*
X129078125Y-38528625D01*
X129778125Y-36528625D02*
X129778125Y-36828625D01*
X129078125Y-38928625D02*
X129078125Y-34128625D01*
X130478125Y-38328625D02*
X129078125Y-38328625D01*
X129378125Y-35928625D02*
X129778125Y-36528625D01*
X129778125Y-35928625D02*
X129778125Y-35628625D01*
X130478125Y-38728625D02*
X129078125Y-38728625D01*
X130286125Y-38928625D02*
X130478125Y-38782625D01*
X130128125Y-35928625D02*
X129378125Y-35928625D01*
X130478125Y-38782625D02*
X130478125Y-34128625D01*
X129778125Y-36528625D02*
X130128125Y-35928625D01*
X130478125Y-34128625D02*
X129078125Y-34128625D01*
X129524125Y-38728625D02*
X129078125Y-38928625D01*
X130286125Y-38928625D02*
X129524125Y-38728625D01*
X130128125Y-36528625D02*
X129378125Y-36528625D01*
%TO.C,D15*%
X130478125Y-57578625D02*
X129078125Y-57578625D01*
X129778125Y-54978625D02*
X129778125Y-54678625D01*
X129524125Y-57778625D02*
X129078125Y-57978625D01*
X130128125Y-54978625D02*
X129378125Y-54978625D01*
X129778125Y-55578625D02*
X129778125Y-55878625D01*
X130478125Y-57778625D02*
X129078125Y-57778625D01*
X129378125Y-54978625D02*
X129778125Y-55578625D01*
X130128125Y-55578625D02*
X129378125Y-55578625D01*
X130286125Y-57978625D02*
X130478125Y-57832625D01*
X130478125Y-57378625D02*
X129078125Y-57378625D01*
X130286125Y-57978625D02*
X129524125Y-57778625D01*
X130478125Y-57832625D02*
X130478125Y-53178625D01*
X129778125Y-55578625D02*
X130128125Y-54978625D01*
X130478125Y-53178625D02*
X129078125Y-53178625D01*
X129078125Y-57978625D02*
X129078125Y-53178625D01*
%TO.C,D11*%
X52878125Y-66313000D02*
X52878125Y-61513000D01*
X53928125Y-63913000D02*
X53178125Y-63913000D01*
X53578125Y-63913000D02*
X53928125Y-63313000D01*
X53578125Y-63313000D02*
X53578125Y-63013000D01*
X54086125Y-66313000D02*
X53324125Y-66113000D01*
X53928125Y-63313000D02*
X53178125Y-63313000D01*
X54278125Y-65913000D02*
X52878125Y-65913000D01*
X54278125Y-65713000D02*
X52878125Y-65713000D01*
X54278125Y-61513000D02*
X52878125Y-61513000D01*
X54086125Y-66313000D02*
X54278125Y-66167000D01*
X54278125Y-66167000D02*
X54278125Y-61513000D01*
X53578125Y-63913000D02*
X53578125Y-64213000D01*
X53178125Y-63313000D02*
X53578125Y-63913000D01*
X53324125Y-66113000D02*
X52878125Y-66313000D01*
X54278125Y-66113000D02*
X52878125Y-66113000D01*
D10*
%TO.C,K31*%
X46434375Y-107315000D02*
X44148375Y-107315000D01*
X41354375Y-107950000D02*
X41354375Y-108331000D01*
X40434375Y-111775000D02*
X39434375Y-111775000D01*
X53434375Y-97775000D02*
X53434375Y-98775000D01*
X41354375Y-111379000D02*
X41354375Y-111760000D01*
X52434375Y-97775000D02*
X53434375Y-97775000D01*
X52784375Y-109220000D02*
X52784375Y-108839000D01*
X53434375Y-111775000D02*
X52434375Y-111775000D01*
X53434375Y-110775000D02*
X53434375Y-111775000D01*
X41354375Y-111760000D02*
X50244375Y-111760000D01*
X50625375Y-105410000D02*
X48974375Y-105410000D01*
X52784375Y-105791000D02*
X52784375Y-105410000D01*
X39434375Y-97775000D02*
X40434375Y-97775000D01*
X39434375Y-98775000D02*
X39434375Y-97775000D01*
X52784375Y-105410000D02*
X52403375Y-105410000D01*
X39434375Y-111775000D02*
X39434375Y-111379000D01*
X50244375Y-111760000D02*
G75*
G03*
X52784375Y-109220000I0J2540000D01*
G01*
X46434375Y-107315000D02*
G75*
G03*
X48898537Y-105391040I0J2540000D01*
G01*
%TO.C,K40*%
X68046553Y-111881572D02*
X68546553Y-112747598D01*
X66754375Y-123643455D02*
X64774641Y-124786455D01*
X75046553Y-124005928D02*
X74180527Y-124505928D01*
X62922197Y-131005928D02*
X62724197Y-130662982D01*
X64386966Y-129702982D02*
X64577466Y-130032937D01*
X67180527Y-112381572D02*
X68046553Y-111881572D01*
X71491636Y-119148632D02*
X71301136Y-118818676D01*
X63788223Y-130505928D02*
X62922197Y-131005928D01*
X71301136Y-118818676D02*
X70971181Y-119009176D01*
X55922197Y-118881572D02*
X56788223Y-118381572D01*
X69431387Y-119898176D02*
X68001580Y-120723676D01*
X64577466Y-130032937D02*
X72276432Y-125587937D01*
X62672466Y-126733381D02*
X62862966Y-127063336D01*
X73206136Y-122118233D02*
X73015636Y-121788277D01*
X74546553Y-123139902D02*
X75046553Y-124005928D01*
X56422197Y-119747598D02*
X55922197Y-118881572D01*
X66754375Y-123643455D02*
G75*
G03*
X67926422Y-120745175I-1270000J2199705D01*
G01*
X72276432Y-125587937D02*
G75*
G03*
X73206136Y-122118233I-1270000J2199704D01*
G01*
%TO.C,K46*%
X160884987Y-113059015D02*
X161592094Y-113766122D01*
X152770230Y-122027958D02*
X153039637Y-122297365D01*
X151692599Y-123665617D02*
X151412585Y-123385603D01*
X161592094Y-113766122D02*
X160884987Y-114473229D01*
X150345561Y-119603288D02*
X150614968Y-119872696D01*
X141793104Y-113766122D02*
X142500211Y-113059015D01*
X153488650Y-115562173D02*
X151872204Y-117178619D01*
X150985492Y-104573734D02*
X151692599Y-103866627D01*
X142500211Y-114473229D02*
X141793104Y-113766122D01*
X155105096Y-111251650D02*
X153937663Y-112419084D01*
X151692599Y-103866627D02*
X152399706Y-104573734D01*
X156901148Y-109994414D02*
X156631740Y-109725007D01*
X153039637Y-122297365D02*
X159325817Y-116011186D01*
X159325817Y-112419084D02*
X159056409Y-112149676D01*
X152399706Y-122958510D02*
X151692599Y-123665617D01*
X156631740Y-109725007D02*
X156362332Y-109994414D01*
X153488650Y-115562173D02*
G75*
G03*
X153870631Y-112459302I-1796051J1796051D01*
G01*
X159325817Y-116011186D02*
G75*
G03*
X159325817Y-112419084I-1796052J1796051D01*
G01*
D11*
%TO.C,D16*%
X145046375Y-74609375D02*
X144446375Y-75009375D01*
X142646375Y-75709375D02*
X142646375Y-74309375D01*
X142246375Y-74755375D02*
X142046375Y-74309375D01*
X144446375Y-75359375D02*
X144446375Y-74609375D01*
X145046375Y-75359375D02*
X145046375Y-74609375D01*
X142046375Y-74309375D02*
X146846375Y-74309375D01*
X142046375Y-75517375D02*
X142192375Y-75709375D01*
X146846375Y-75709375D02*
X146846375Y-74309375D01*
X142046375Y-75517375D02*
X142246375Y-74755375D01*
X142446375Y-75709375D02*
X142446375Y-74309375D01*
X144446375Y-75009375D02*
X144146375Y-75009375D01*
X142246375Y-75709375D02*
X142246375Y-74309375D01*
X142192375Y-75709375D02*
X146846375Y-75709375D01*
X144446375Y-75009375D02*
X145046375Y-75359375D01*
X145046375Y-75009375D02*
X145346375Y-75009375D01*
D10*
%TO.C,K20*%
X20384375Y-92725000D02*
X20384375Y-92329000D01*
X34384375Y-78725000D02*
X34384375Y-79725000D01*
X33734375Y-86741000D02*
X33734375Y-86360000D01*
X22304375Y-92710000D02*
X31194375Y-92710000D01*
X33734375Y-86360000D02*
X33353375Y-86360000D01*
X20384375Y-79725000D02*
X20384375Y-78725000D01*
X21384375Y-92725000D02*
X20384375Y-92725000D01*
X27384375Y-88265000D02*
X25098375Y-88265000D01*
X33734375Y-90170000D02*
X33734375Y-89789000D01*
X22304375Y-88900000D02*
X22304375Y-89281000D01*
X31575375Y-86360000D02*
X29924375Y-86360000D01*
X20384375Y-78725000D02*
X21384375Y-78725000D01*
X22304375Y-92329000D02*
X22304375Y-92710000D01*
X33384375Y-78725000D02*
X34384375Y-78725000D01*
X34384375Y-92725000D02*
X33384375Y-92725000D01*
X34384375Y-91725000D02*
X34384375Y-92725000D01*
X31194375Y-92710000D02*
G75*
G03*
X33734375Y-90170000I0J2540000D01*
G01*
X27384375Y-88265000D02*
G75*
G03*
X29848537Y-86341040I0J2540000D01*
G01*
D11*
%TO.C,D30*%
X34528125Y-101413000D02*
X34528125Y-101113000D01*
X33828125Y-104413000D02*
X33828125Y-99613000D01*
X35228125Y-99613000D02*
X33828125Y-99613000D01*
X34528125Y-102013000D02*
X34528125Y-102313000D01*
X35036125Y-104413000D02*
X34274125Y-104213000D01*
X35228125Y-103813000D02*
X33828125Y-103813000D01*
X35228125Y-104213000D02*
X33828125Y-104213000D01*
X34878125Y-102013000D02*
X34128125Y-102013000D01*
X34528125Y-102013000D02*
X34878125Y-101413000D01*
X34274125Y-104213000D02*
X33828125Y-104413000D01*
X34878125Y-101413000D02*
X34128125Y-101413000D01*
X34128125Y-101413000D02*
X34528125Y-102013000D01*
X35228125Y-104267000D02*
X35228125Y-99613000D01*
X35228125Y-104013000D02*
X33828125Y-104013000D01*
X35036125Y-104413000D02*
X35228125Y-104267000D01*
%TO.C,D25*%
X130286125Y-77028625D02*
X129524125Y-76828625D01*
X129378125Y-74028625D02*
X129778125Y-74628625D01*
X129778125Y-74028625D02*
X129778125Y-73728625D01*
X130478125Y-72228625D02*
X129078125Y-72228625D01*
X130478125Y-76882625D02*
X130478125Y-72228625D01*
X129778125Y-74628625D02*
X130128125Y-74028625D01*
X129778125Y-74628625D02*
X129778125Y-74928625D01*
X129524125Y-76828625D02*
X129078125Y-77028625D01*
X130478125Y-76428625D02*
X129078125Y-76428625D01*
X130286125Y-77028625D02*
X130478125Y-76882625D01*
X129078125Y-77028625D02*
X129078125Y-72228625D01*
X130128125Y-74628625D02*
X129378125Y-74628625D01*
X130478125Y-76628625D02*
X129078125Y-76628625D01*
X130478125Y-76828625D02*
X129078125Y-76828625D01*
X130128125Y-74028625D02*
X129378125Y-74028625D01*
%TO.C,D0*%
X34274125Y-47063000D02*
X33828125Y-47263000D01*
X33828125Y-47263000D02*
X33828125Y-42463000D01*
X34128125Y-44263000D02*
X34528125Y-44863000D01*
X34528125Y-44863000D02*
X34878125Y-44263000D01*
X35036125Y-47263000D02*
X35228125Y-47117000D01*
X35036125Y-47263000D02*
X34274125Y-47063000D01*
X35228125Y-42463000D02*
X33828125Y-42463000D01*
X34528125Y-44863000D02*
X34528125Y-45163000D01*
X35228125Y-47117000D02*
X35228125Y-42463000D01*
X35228125Y-46863000D02*
X33828125Y-46863000D01*
X34878125Y-44263000D02*
X34128125Y-44263000D01*
X34878125Y-44863000D02*
X34128125Y-44863000D01*
X35228125Y-46663000D02*
X33828125Y-46663000D01*
X35228125Y-47063000D02*
X33828125Y-47063000D01*
X34528125Y-44263000D02*
X34528125Y-43963000D01*
%TO.C,D4*%
X110728125Y-34147375D02*
X110728125Y-34447375D01*
X110728125Y-34147375D02*
X111078125Y-33547375D01*
X111078125Y-33547375D02*
X110328125Y-33547375D01*
X110328125Y-33547375D02*
X110728125Y-34147375D01*
X110028125Y-36547375D02*
X110028125Y-31747375D01*
X111428125Y-36147375D02*
X110028125Y-36147375D01*
X111078125Y-34147375D02*
X110328125Y-34147375D01*
X110728125Y-33547375D02*
X110728125Y-33247375D01*
X111236125Y-36547375D02*
X110474125Y-36347375D01*
X111428125Y-31747375D02*
X110028125Y-31747375D01*
X111236125Y-36547375D02*
X111428125Y-36401375D01*
X111428125Y-36347375D02*
X110028125Y-36347375D01*
X110474125Y-36347375D02*
X110028125Y-36547375D01*
X111428125Y-36401375D02*
X111428125Y-31747375D01*
X111428125Y-35947375D02*
X110028125Y-35947375D01*
D10*
%TO.C,K11*%
X53434375Y-72675000D02*
X53434375Y-73675000D01*
X50625375Y-67310000D02*
X48974375Y-67310000D01*
X53434375Y-73675000D02*
X52434375Y-73675000D01*
X52784375Y-71120000D02*
X52784375Y-70739000D01*
X39434375Y-73675000D02*
X39434375Y-73279000D01*
X41354375Y-73279000D02*
X41354375Y-73660000D01*
X53434375Y-59675000D02*
X53434375Y-60675000D01*
X39434375Y-60675000D02*
X39434375Y-59675000D01*
X52784375Y-67310000D02*
X52403375Y-67310000D01*
X41354375Y-73660000D02*
X50244375Y-73660000D01*
X52434375Y-59675000D02*
X53434375Y-59675000D01*
X40434375Y-73675000D02*
X39434375Y-73675000D01*
X39434375Y-59675000D02*
X40434375Y-59675000D01*
X41354375Y-69850000D02*
X41354375Y-70231000D01*
X46434375Y-69215000D02*
X44148375Y-69215000D01*
X52784375Y-67691000D02*
X52784375Y-67310000D01*
X50244375Y-73660000D02*
G75*
G03*
X52784375Y-71120000I0J2540000D01*
G01*
X46434375Y-69215000D02*
G75*
G03*
X48898537Y-67291040I0J2540000D01*
G01*
%TO.C,K4*%
X96584375Y-43909375D02*
X96584375Y-43513375D01*
X109934375Y-41354375D02*
X109934375Y-40973375D01*
X97584375Y-43909375D02*
X96584375Y-43909375D01*
X110584375Y-42909375D02*
X110584375Y-43909375D01*
X110584375Y-43909375D02*
X109584375Y-43909375D01*
X103584375Y-39449375D02*
X101298375Y-39449375D01*
X109934375Y-37544375D02*
X109553375Y-37544375D01*
X98504375Y-43894375D02*
X107394375Y-43894375D01*
X107775375Y-37544375D02*
X106124375Y-37544375D01*
X98504375Y-40084375D02*
X98504375Y-40465375D01*
X110584375Y-29909375D02*
X110584375Y-30909375D01*
X98504375Y-43513375D02*
X98504375Y-43894375D01*
X109934375Y-37925375D02*
X109934375Y-37544375D01*
X109584375Y-29909375D02*
X110584375Y-29909375D01*
X96584375Y-30909375D02*
X96584375Y-29909375D01*
X96584375Y-29909375D02*
X97584375Y-29909375D01*
X103584375Y-39449375D02*
G75*
G03*
X106048537Y-37525415I0J2540000D01*
G01*
X107394375Y-43894375D02*
G75*
G03*
X109934375Y-41354375I0J2540000D01*
G01*
D11*
%TO.C,D31*%
X53578125Y-102013000D02*
X53928125Y-101413000D01*
X53578125Y-101413000D02*
X53578125Y-101113000D01*
X54278125Y-103813000D02*
X52878125Y-103813000D01*
X53324125Y-104213000D02*
X52878125Y-104413000D01*
X54278125Y-99613000D02*
X52878125Y-99613000D01*
X54086125Y-104413000D02*
X54278125Y-104267000D01*
X53178125Y-101413000D02*
X53578125Y-102013000D01*
X52878125Y-104413000D02*
X52878125Y-99613000D01*
X53928125Y-102013000D02*
X53178125Y-102013000D01*
X54278125Y-104213000D02*
X52878125Y-104213000D01*
X54278125Y-104013000D02*
X52878125Y-104013000D01*
X54086125Y-104413000D02*
X53324125Y-104213000D01*
X53928125Y-101413000D02*
X53178125Y-101413000D01*
X53578125Y-102013000D02*
X53578125Y-102313000D01*
X54278125Y-104267000D02*
X54278125Y-99613000D01*
D10*
%TO.C,K10*%
X22304375Y-73279000D02*
X22304375Y-73660000D01*
X20384375Y-60675000D02*
X20384375Y-59675000D01*
X22304375Y-69850000D02*
X22304375Y-70231000D01*
X33734375Y-67310000D02*
X33353375Y-67310000D01*
X33734375Y-67691000D02*
X33734375Y-67310000D01*
X22304375Y-73660000D02*
X31194375Y-73660000D01*
X33734375Y-71120000D02*
X33734375Y-70739000D01*
X34384375Y-59675000D02*
X34384375Y-60675000D01*
X21384375Y-73675000D02*
X20384375Y-73675000D01*
X33384375Y-59675000D02*
X34384375Y-59675000D01*
X27384375Y-69215000D02*
X25098375Y-69215000D01*
X34384375Y-72675000D02*
X34384375Y-73675000D01*
X20384375Y-73675000D02*
X20384375Y-73279000D01*
X20384375Y-59675000D02*
X21384375Y-59675000D01*
X34384375Y-73675000D02*
X33384375Y-73675000D01*
X31575375Y-67310000D02*
X29924375Y-67310000D01*
X27384375Y-69215000D02*
G75*
G03*
X29848537Y-67291040I0J2540000D01*
G01*
X31194375Y-73660000D02*
G75*
G03*
X33734375Y-71120000I0J2540000D01*
G01*
D11*
%TO.C,D3*%
X92378125Y-29203625D02*
X90978125Y-29203625D01*
X90978125Y-29403625D02*
X90978125Y-24603625D01*
X92378125Y-29003625D02*
X90978125Y-29003625D01*
X92378125Y-24603625D02*
X90978125Y-24603625D01*
X92186125Y-29403625D02*
X91424125Y-29203625D01*
X92186125Y-29403625D02*
X92378125Y-29257625D01*
X91678125Y-26403625D02*
X91678125Y-26103625D01*
X91678125Y-27003625D02*
X92028125Y-26403625D01*
X92378125Y-28803625D02*
X90978125Y-28803625D01*
X91424125Y-29203625D02*
X90978125Y-29403625D01*
X92028125Y-27003625D02*
X91278125Y-27003625D01*
X92378125Y-29257625D02*
X92378125Y-24603625D01*
X91678125Y-27003625D02*
X91678125Y-27303625D01*
X92028125Y-26403625D02*
X91278125Y-26403625D01*
X91278125Y-26403625D02*
X91678125Y-27003625D01*
%TO.C,D13*%
X92186125Y-48453625D02*
X92378125Y-48307625D01*
X91424125Y-48253625D02*
X90978125Y-48453625D01*
X92378125Y-47853625D02*
X90978125Y-47853625D01*
X90978125Y-48453625D02*
X90978125Y-43653625D01*
X92028125Y-45453625D02*
X91278125Y-45453625D01*
X91278125Y-45453625D02*
X91678125Y-46053625D01*
X92378125Y-48307625D02*
X92378125Y-43653625D01*
X91678125Y-46053625D02*
X91678125Y-46353625D01*
X92378125Y-48253625D02*
X90978125Y-48253625D01*
X92378125Y-48053625D02*
X90978125Y-48053625D01*
X92186125Y-48453625D02*
X91424125Y-48253625D01*
X92028125Y-46053625D02*
X91278125Y-46053625D01*
X91678125Y-45453625D02*
X91678125Y-45153625D01*
X92378125Y-43653625D02*
X90978125Y-43653625D01*
X91678125Y-46053625D02*
X92028125Y-45453625D01*
%TO.C,D20*%
X34878125Y-82363000D02*
X34128125Y-82363000D01*
X35228125Y-84963000D02*
X33828125Y-84963000D01*
X34128125Y-82363000D02*
X34528125Y-82963000D01*
X34528125Y-82363000D02*
X34528125Y-82063000D01*
X35036125Y-85363000D02*
X35228125Y-85217000D01*
X34274125Y-85163000D02*
X33828125Y-85363000D01*
X34878125Y-82963000D02*
X34128125Y-82963000D01*
X34528125Y-82963000D02*
X34878125Y-82363000D01*
X35228125Y-84763000D02*
X33828125Y-84763000D01*
X35228125Y-85217000D02*
X35228125Y-80563000D01*
X34528125Y-82963000D02*
X34528125Y-83263000D01*
X35036125Y-85363000D02*
X34274125Y-85163000D01*
X35228125Y-80563000D02*
X33828125Y-80563000D01*
X35228125Y-85163000D02*
X33828125Y-85163000D01*
X33828125Y-85363000D02*
X33828125Y-80563000D01*
D10*
%TO.C,K3*%
X77534375Y-36765625D02*
X77534375Y-36369625D01*
X84534375Y-32305625D02*
X82248375Y-32305625D01*
X88725375Y-30400625D02*
X87074375Y-30400625D01*
X90534375Y-22765625D02*
X91534375Y-22765625D01*
X79454375Y-32940625D02*
X79454375Y-33321625D01*
X90884375Y-30400625D02*
X90503375Y-30400625D01*
X90884375Y-30781625D02*
X90884375Y-30400625D01*
X78534375Y-36765625D02*
X77534375Y-36765625D01*
X79454375Y-36369625D02*
X79454375Y-36750625D01*
X79454375Y-36750625D02*
X88344375Y-36750625D01*
X90884375Y-34210625D02*
X90884375Y-33829625D01*
X91534375Y-35765625D02*
X91534375Y-36765625D01*
X77534375Y-23765625D02*
X77534375Y-22765625D01*
X91534375Y-36765625D02*
X90534375Y-36765625D01*
X77534375Y-22765625D02*
X78534375Y-22765625D01*
X91534375Y-22765625D02*
X91534375Y-23765625D01*
X84534375Y-32305625D02*
G75*
G03*
X86998537Y-30381665I0J2540000D01*
G01*
X88344375Y-36750625D02*
G75*
G03*
X90884375Y-34210625I0J2540000D01*
G01*
D11*
%TO.C,D23*%
X91678125Y-64503625D02*
X91678125Y-64203625D01*
X92028125Y-64503625D02*
X91278125Y-64503625D01*
X90978125Y-67503625D02*
X90978125Y-62703625D01*
X91678125Y-65103625D02*
X92028125Y-64503625D01*
X91278125Y-64503625D02*
X91678125Y-65103625D01*
X92378125Y-67357625D02*
X92378125Y-62703625D01*
X92378125Y-67103625D02*
X90978125Y-67103625D01*
X92378125Y-62703625D02*
X90978125Y-62703625D01*
X91424125Y-67303625D02*
X90978125Y-67503625D01*
X92186125Y-67503625D02*
X91424125Y-67303625D01*
X92186125Y-67503625D02*
X92378125Y-67357625D01*
X92378125Y-66903625D02*
X90978125Y-66903625D01*
X92028125Y-65103625D02*
X91278125Y-65103625D01*
X92378125Y-67303625D02*
X90978125Y-67303625D01*
X91678125Y-65103625D02*
X91678125Y-65403625D01*
D10*
%TO.C,K16*%
X137239375Y-74215625D02*
X137620375Y-74215625D01*
X134684375Y-61865625D02*
X134684375Y-60865625D01*
X138509375Y-62785625D02*
X138128375Y-62785625D01*
X141049375Y-72056625D02*
X141049375Y-70405625D01*
X148684375Y-73865625D02*
X148684375Y-74865625D01*
X135080375Y-62785625D02*
X134699375Y-62785625D01*
X139144375Y-67865625D02*
X139144375Y-65579625D01*
X141049375Y-74215625D02*
X141049375Y-73834625D01*
X147684375Y-60865625D02*
X148684375Y-60865625D01*
X134699375Y-62785625D02*
X134699375Y-71675625D01*
X134684375Y-60865625D02*
X135080375Y-60865625D01*
X135684375Y-74865625D02*
X134684375Y-74865625D01*
X148684375Y-60865625D02*
X148684375Y-61865625D01*
X148684375Y-74865625D02*
X147684375Y-74865625D01*
X140668375Y-74215625D02*
X141049375Y-74215625D01*
X134684375Y-74865625D02*
X134684375Y-73865625D01*
X139144375Y-67865625D02*
G75*
G03*
X141068335Y-70329787I2540000J0D01*
G01*
X134699375Y-71675625D02*
G75*
G03*
X137239375Y-74215625I2540000J0D01*
G01*
%TO.C,K35*%
X128984375Y-97456625D02*
X128984375Y-97075625D01*
X117554375Y-103425625D02*
X126444375Y-103425625D01*
X117554375Y-103044625D02*
X117554375Y-103425625D01*
X129634375Y-103440625D02*
X128634375Y-103440625D01*
X115634375Y-90440625D02*
X115634375Y-89440625D01*
X116634375Y-103440625D02*
X115634375Y-103440625D01*
X128984375Y-100885625D02*
X128984375Y-100504625D01*
X126825375Y-97075625D02*
X125174375Y-97075625D01*
X128984375Y-97075625D02*
X128603375Y-97075625D01*
X129634375Y-102440625D02*
X129634375Y-103440625D01*
X122634375Y-98980625D02*
X120348375Y-98980625D01*
X129634375Y-89440625D02*
X129634375Y-90440625D01*
X115634375Y-103440625D02*
X115634375Y-103044625D01*
X117554375Y-99615625D02*
X117554375Y-99996625D01*
X128634375Y-89440625D02*
X129634375Y-89440625D01*
X115634375Y-89440625D02*
X116634375Y-89440625D01*
X122634375Y-98980625D02*
G75*
G03*
X125098537Y-97056665I0J2540000D01*
G01*
X126444375Y-103425625D02*
G75*
G03*
X128984375Y-100885625I0J2540000D01*
G01*
%TO.C,K2*%
X58484375Y-28718750D02*
X59484375Y-28718750D01*
X72484375Y-28718750D02*
X72484375Y-29718750D01*
X60404375Y-42703750D02*
X69294375Y-42703750D01*
X71484375Y-28718750D02*
X72484375Y-28718750D01*
X71834375Y-36353750D02*
X71453375Y-36353750D01*
X60404375Y-38893750D02*
X60404375Y-39274750D01*
X58484375Y-42718750D02*
X58484375Y-42322750D01*
X59484375Y-42718750D02*
X58484375Y-42718750D01*
X65484375Y-38258750D02*
X63198375Y-38258750D01*
X69675375Y-36353750D02*
X68024375Y-36353750D01*
X71834375Y-40163750D02*
X71834375Y-39782750D01*
X71834375Y-36734750D02*
X71834375Y-36353750D01*
X58484375Y-29718750D02*
X58484375Y-28718750D01*
X72484375Y-41718750D02*
X72484375Y-42718750D01*
X60404375Y-42322750D02*
X60404375Y-42703750D01*
X72484375Y-42718750D02*
X71484375Y-42718750D01*
X65484375Y-38258750D02*
G75*
G03*
X67948537Y-36334790I0J2540000D01*
G01*
X69294375Y-42703750D02*
G75*
G03*
X71834375Y-40163750I0J2540000D01*
G01*
%TO.C,K32*%
X71834375Y-93503750D02*
X71453375Y-93503750D01*
X60404375Y-96043750D02*
X60404375Y-96424750D01*
X72484375Y-99868750D02*
X71484375Y-99868750D01*
X58484375Y-86868750D02*
X58484375Y-85868750D01*
X71484375Y-85868750D02*
X72484375Y-85868750D01*
X69675375Y-93503750D02*
X68024375Y-93503750D01*
X60404375Y-99472750D02*
X60404375Y-99853750D01*
X71834375Y-93884750D02*
X71834375Y-93503750D01*
X60404375Y-99853750D02*
X69294375Y-99853750D01*
X59484375Y-99868750D02*
X58484375Y-99868750D01*
X58484375Y-99868750D02*
X58484375Y-99472750D01*
X71834375Y-97313750D02*
X71834375Y-96932750D01*
X58484375Y-85868750D02*
X59484375Y-85868750D01*
X72484375Y-98868750D02*
X72484375Y-99868750D01*
X72484375Y-85868750D02*
X72484375Y-86868750D01*
X65484375Y-95408750D02*
X63198375Y-95408750D01*
X65484375Y-95408750D02*
G75*
G03*
X67948537Y-93484790I0J2540000D01*
G01*
X69294375Y-99853750D02*
G75*
G03*
X71834375Y-97313750I0J2540000D01*
G01*
%TO.C,K5*%
X115634375Y-46290625D02*
X115634375Y-45894625D01*
X129634375Y-45290625D02*
X129634375Y-46290625D01*
X117554375Y-46275625D02*
X126444375Y-46275625D01*
X129634375Y-32290625D02*
X129634375Y-33290625D01*
X122634375Y-41830625D02*
X120348375Y-41830625D01*
X129634375Y-46290625D02*
X128634375Y-46290625D01*
X115634375Y-32290625D02*
X116634375Y-32290625D01*
X126825375Y-39925625D02*
X125174375Y-39925625D01*
X128984375Y-40306625D02*
X128984375Y-39925625D01*
X117554375Y-45894625D02*
X117554375Y-46275625D01*
X128984375Y-43735625D02*
X128984375Y-43354625D01*
X116634375Y-46290625D02*
X115634375Y-46290625D01*
X128634375Y-32290625D02*
X129634375Y-32290625D01*
X128984375Y-39925625D02*
X128603375Y-39925625D01*
X117554375Y-42465625D02*
X117554375Y-42846625D01*
X115634375Y-33290625D02*
X115634375Y-32290625D01*
X122634375Y-41830625D02*
G75*
G03*
X125098537Y-39906665I0J2540000D01*
G01*
X126444375Y-46275625D02*
G75*
G03*
X128984375Y-43735625I0J2540000D01*
G01*
%TO.C,K6*%
X148684375Y-37053125D02*
X148684375Y-38053125D01*
X134684375Y-51053125D02*
X134684375Y-50657125D01*
X136604375Y-51038125D02*
X145494375Y-51038125D01*
X148034375Y-48498125D02*
X148034375Y-48117125D01*
X148684375Y-51053125D02*
X147684375Y-51053125D01*
X134684375Y-38053125D02*
X134684375Y-37053125D01*
X136604375Y-47228125D02*
X136604375Y-47609125D01*
X148034375Y-44688125D02*
X147653375Y-44688125D01*
X141684375Y-46593125D02*
X139398375Y-46593125D01*
X148034375Y-45069125D02*
X148034375Y-44688125D01*
X145875375Y-44688125D02*
X144224375Y-44688125D01*
X135684375Y-51053125D02*
X134684375Y-51053125D01*
X136604375Y-50657125D02*
X136604375Y-51038125D01*
X148684375Y-50053125D02*
X148684375Y-51053125D01*
X134684375Y-37053125D02*
X135684375Y-37053125D01*
X147684375Y-37053125D02*
X148684375Y-37053125D01*
X141684375Y-46593125D02*
G75*
G03*
X144148537Y-44669165I0J2540000D01*
G01*
X145494375Y-51038125D02*
G75*
G03*
X148034375Y-48498125I0J2540000D01*
G01*
%TO.C,K13*%
X90884375Y-49450625D02*
X90503375Y-49450625D01*
X79454375Y-51990625D02*
X79454375Y-52371625D01*
X79454375Y-55800625D02*
X88344375Y-55800625D01*
X77534375Y-42815625D02*
X77534375Y-41815625D01*
X78534375Y-55815625D02*
X77534375Y-55815625D01*
X90884375Y-49831625D02*
X90884375Y-49450625D01*
X91534375Y-55815625D02*
X90534375Y-55815625D01*
X77534375Y-55815625D02*
X77534375Y-55419625D01*
X79454375Y-55419625D02*
X79454375Y-55800625D01*
X91534375Y-41815625D02*
X91534375Y-42815625D01*
X90884375Y-53260625D02*
X90884375Y-52879625D01*
X91534375Y-54815625D02*
X91534375Y-55815625D01*
X90534375Y-41815625D02*
X91534375Y-41815625D01*
X88725375Y-49450625D02*
X87074375Y-49450625D01*
X77534375Y-41815625D02*
X78534375Y-41815625D01*
X84534375Y-51355625D02*
X82248375Y-51355625D01*
X88344375Y-55800625D02*
G75*
G03*
X90884375Y-53260625I0J2540000D01*
G01*
X84534375Y-51355625D02*
G75*
G03*
X86998537Y-49431665I0J2540000D01*
G01*
%TO.C,K41*%
X87868125Y-116681250D02*
X85582125Y-116681250D01*
X82788125Y-121126250D02*
X91678125Y-121126250D01*
X81868125Y-121141250D02*
X80868125Y-121141250D01*
X93868125Y-107141250D02*
X94868125Y-107141250D01*
X80868125Y-108141250D02*
X80868125Y-107141250D01*
X80868125Y-107141250D02*
X81868125Y-107141250D01*
X94218125Y-114776250D02*
X93837125Y-114776250D01*
X80868125Y-121141250D02*
X80868125Y-120745250D01*
X92059125Y-114776250D02*
X90408125Y-114776250D01*
X94218125Y-115157250D02*
X94218125Y-114776250D01*
X82788125Y-117316250D02*
X82788125Y-117697250D01*
X94218125Y-118586250D02*
X94218125Y-118205250D01*
X94868125Y-120141250D02*
X94868125Y-121141250D01*
X94868125Y-107141250D02*
X94868125Y-108141250D01*
X82788125Y-120745250D02*
X82788125Y-121126250D01*
X94868125Y-121141250D02*
X93868125Y-121141250D01*
X91678125Y-121126250D02*
G75*
G03*
X94218125Y-118586250I0J2540000D01*
G01*
X87868125Y-116681250D02*
G75*
G03*
X90332287Y-114757290I0J2540000D01*
G01*
%TO.C,K1*%
X52784375Y-48641000D02*
X52784375Y-48260000D01*
X52784375Y-52070000D02*
X52784375Y-51689000D01*
X46434375Y-50165000D02*
X44148375Y-50165000D01*
X41354375Y-54229000D02*
X41354375Y-54610000D01*
X39434375Y-54625000D02*
X39434375Y-54229000D01*
X53434375Y-40625000D02*
X53434375Y-41625000D01*
X52784375Y-48260000D02*
X52403375Y-48260000D01*
X52434375Y-40625000D02*
X53434375Y-40625000D01*
X39434375Y-41625000D02*
X39434375Y-40625000D01*
X40434375Y-54625000D02*
X39434375Y-54625000D01*
X41354375Y-50800000D02*
X41354375Y-51181000D01*
X50625375Y-48260000D02*
X48974375Y-48260000D01*
X53434375Y-54625000D02*
X52434375Y-54625000D01*
X53434375Y-53625000D02*
X53434375Y-54625000D01*
X41354375Y-54610000D02*
X50244375Y-54610000D01*
X39434375Y-40625000D02*
X40434375Y-40625000D01*
X46434375Y-50165000D02*
G75*
G03*
X48898537Y-48241040I0J2540000D01*
G01*
X50244375Y-54610000D02*
G75*
G03*
X52784375Y-52070000I0J2540000D01*
G01*
%TO.C,K42*%
X116901928Y-123808916D02*
X117000538Y-123440898D01*
X116868497Y-126445089D02*
X115902572Y-126186270D01*
X106710183Y-110264587D02*
X106969003Y-109298661D01*
X106190096Y-119623889D02*
X106091486Y-119991906D01*
X117127317Y-125479163D02*
X116868497Y-126445089D01*
X105203996Y-123304066D02*
X113791076Y-125604967D01*
X104311462Y-123080442D02*
X103345536Y-122821622D01*
X103345536Y-122821622D02*
X103448028Y-122439116D01*
X105302606Y-122936048D02*
X105203996Y-123304066D01*
X117888029Y-120128739D02*
X117520011Y-120030129D01*
X117789419Y-120496757D02*
X117888029Y-120128739D01*
X106969003Y-109298661D02*
X107934928Y-109557480D01*
X115802595Y-119569949D02*
X114207852Y-119142638D01*
X111261350Y-120325327D02*
X109053243Y-119733666D01*
X119526038Y-112663308D02*
X120491964Y-112922128D01*
X120491964Y-112922128D02*
X120233145Y-113888053D01*
X111261350Y-120325327D02*
G75*
G03*
X114139505Y-119104696I657399J2453454D01*
G01*
X113791076Y-125604966D02*
G75*
G03*
X116901928Y-123808916I657401J2453450D01*
G01*
D11*
%TO.C,D21*%
X54278125Y-85217000D02*
X54278125Y-80563000D01*
X53324125Y-85163000D02*
X52878125Y-85363000D01*
X54086125Y-85363000D02*
X54278125Y-85217000D01*
X53578125Y-82963000D02*
X53928125Y-82363000D01*
X54278125Y-84763000D02*
X52878125Y-84763000D01*
X54278125Y-85163000D02*
X52878125Y-85163000D01*
X52878125Y-85363000D02*
X52878125Y-80563000D01*
X54278125Y-80563000D02*
X52878125Y-80563000D01*
X54086125Y-85363000D02*
X53324125Y-85163000D01*
X53578125Y-82363000D02*
X53578125Y-82063000D01*
X53578125Y-82963000D02*
X53578125Y-83263000D01*
X53928125Y-82363000D02*
X53178125Y-82363000D01*
X54278125Y-84963000D02*
X52878125Y-84963000D01*
X53928125Y-82963000D02*
X53178125Y-82963000D01*
X53178125Y-82363000D02*
X53578125Y-82963000D01*
D10*
%TO.C,K25*%
X115634375Y-70390625D02*
X116634375Y-70390625D01*
X115634375Y-71390625D02*
X115634375Y-70390625D01*
X117554375Y-83994625D02*
X117554375Y-84375625D01*
X128634375Y-70390625D02*
X129634375Y-70390625D01*
X129634375Y-84390625D02*
X128634375Y-84390625D01*
X122634375Y-79930625D02*
X120348375Y-79930625D01*
X128984375Y-78025625D02*
X128603375Y-78025625D01*
X116634375Y-84390625D02*
X115634375Y-84390625D01*
X128984375Y-78406625D02*
X128984375Y-78025625D01*
X129634375Y-70390625D02*
X129634375Y-71390625D01*
X126825375Y-78025625D02*
X125174375Y-78025625D01*
X129634375Y-83390625D02*
X129634375Y-84390625D01*
X128984375Y-81835625D02*
X128984375Y-81454625D01*
X117554375Y-84375625D02*
X126444375Y-84375625D01*
X115634375Y-84390625D02*
X115634375Y-83994625D01*
X117554375Y-80565625D02*
X117554375Y-80946625D01*
X122634375Y-79930625D02*
G75*
G03*
X125098537Y-78006665I0J2540000D01*
G01*
X126444375Y-84375625D02*
G75*
G03*
X128984375Y-81835625I0J2540000D01*
G01*
D11*
%TO.C,D1*%
X53578125Y-44863000D02*
X53578125Y-45163000D01*
X53928125Y-44263000D02*
X53178125Y-44263000D01*
X54278125Y-42463000D02*
X52878125Y-42463000D01*
X53578125Y-44263000D02*
X53578125Y-43963000D01*
X52878125Y-47263000D02*
X52878125Y-42463000D01*
X53578125Y-44863000D02*
X53928125Y-44263000D01*
X54086125Y-47263000D02*
X54278125Y-47117000D01*
X54278125Y-46863000D02*
X52878125Y-46863000D01*
X53324125Y-47063000D02*
X52878125Y-47263000D01*
X53928125Y-44863000D02*
X53178125Y-44863000D01*
X54278125Y-46663000D02*
X52878125Y-46663000D01*
X53178125Y-44263000D02*
X53578125Y-44863000D01*
X54278125Y-47117000D02*
X54278125Y-42463000D01*
X54086125Y-47263000D02*
X53324125Y-47063000D01*
X54278125Y-47063000D02*
X52878125Y-47063000D01*
D10*
%TO.C,K33*%
X90884375Y-91360625D02*
X90884375Y-90979625D01*
X79454375Y-93900625D02*
X88344375Y-93900625D01*
X84534375Y-89455625D02*
X82248375Y-89455625D01*
X77534375Y-80915625D02*
X77534375Y-79915625D01*
X91534375Y-79915625D02*
X91534375Y-80915625D01*
X91534375Y-92915625D02*
X91534375Y-93915625D01*
X88725375Y-87550625D02*
X87074375Y-87550625D01*
X90884375Y-87931625D02*
X90884375Y-87550625D01*
X79454375Y-90090625D02*
X79454375Y-90471625D01*
X77534375Y-79915625D02*
X78534375Y-79915625D01*
X90534375Y-79915625D02*
X91534375Y-79915625D01*
X78534375Y-93915625D02*
X77534375Y-93915625D01*
X79454375Y-93519625D02*
X79454375Y-93900625D01*
X90884375Y-87550625D02*
X90503375Y-87550625D01*
X91534375Y-93915625D02*
X90534375Y-93915625D01*
X77534375Y-93915625D02*
X77534375Y-93519625D01*
X84534375Y-89455625D02*
G75*
G03*
X86998537Y-87531665I0J2540000D01*
G01*
X88344375Y-93900625D02*
G75*
G03*
X90884375Y-91360625I0J2540000D01*
G01*
D11*
%TO.C,D24*%
X111428125Y-74047375D02*
X110028125Y-74047375D01*
X111428125Y-69847375D02*
X110028125Y-69847375D01*
X111428125Y-74447375D02*
X110028125Y-74447375D01*
X111236125Y-74647375D02*
X110474125Y-74447375D01*
X111078125Y-71647375D02*
X110328125Y-71647375D01*
X111236125Y-74647375D02*
X111428125Y-74501375D01*
X111428125Y-74501375D02*
X111428125Y-69847375D01*
X110028125Y-74647375D02*
X110028125Y-69847375D01*
X110728125Y-72247375D02*
X110728125Y-72547375D01*
X110328125Y-71647375D02*
X110728125Y-72247375D01*
X111428125Y-74247375D02*
X110028125Y-74247375D01*
X110728125Y-71647375D02*
X110728125Y-71347375D01*
X110728125Y-72247375D02*
X111078125Y-71647375D01*
X111078125Y-72247375D02*
X110328125Y-72247375D01*
X110474125Y-74447375D02*
X110028125Y-74647375D01*
%TO.C,D26*%
X149178125Y-88316125D02*
X148428125Y-88316125D01*
X149336125Y-91316125D02*
X148574125Y-91116125D01*
X149528125Y-86516125D02*
X148128125Y-86516125D01*
X148574125Y-91116125D02*
X148128125Y-91316125D01*
X149336125Y-91316125D02*
X149528125Y-91170125D01*
X148428125Y-88316125D02*
X148828125Y-88916125D01*
X149528125Y-91116125D02*
X148128125Y-91116125D01*
X149528125Y-90916125D02*
X148128125Y-90916125D01*
X149528125Y-91170125D02*
X149528125Y-86516125D01*
X149528125Y-90716125D02*
X148128125Y-90716125D01*
X148828125Y-88316125D02*
X148828125Y-88016125D01*
X149178125Y-88916125D02*
X148428125Y-88916125D01*
X148128125Y-91316125D02*
X148128125Y-86516125D01*
X148828125Y-88916125D02*
X148828125Y-89216125D01*
X148828125Y-88916125D02*
X149178125Y-88316125D01*
D10*
%TO.C,K43*%
X139894977Y-131293007D02*
X140085477Y-130963051D01*
X138180477Y-134262608D02*
X138370977Y-133932652D01*
X126207564Y-130300303D02*
X125341538Y-129800303D01*
X131841538Y-118541973D02*
X132341538Y-117675947D01*
X140085477Y-130963051D02*
X139755522Y-130772551D01*
X127202307Y-130417357D02*
X127011807Y-130747312D01*
X144465894Y-124675947D02*
X143965894Y-125541973D01*
X127011807Y-130747312D02*
X134710773Y-135192312D01*
X137465894Y-136800303D02*
X136599868Y-136300303D01*
X137965894Y-135934277D02*
X137465894Y-136800303D01*
X132341538Y-117675947D02*
X133207564Y-118175947D01*
X138215728Y-129883551D02*
X136785921Y-129058051D01*
X133633716Y-129437830D02*
X131653982Y-128294830D01*
X143599868Y-124175947D02*
X144465894Y-124675947D01*
X128916807Y-127447756D02*
X128726307Y-127777711D01*
X125341538Y-129800303D02*
X125539538Y-129457357D01*
X133633716Y-129437830D02*
G75*
G03*
X136729723Y-129003712I1270000J2199705D01*
G01*
X134710773Y-135192312D02*
G75*
G03*
X138180477Y-134262608I1270000J2199704D01*
G01*
D11*
%TO.C,D35*%
X130478125Y-95878625D02*
X129078125Y-95878625D01*
X129524125Y-95878625D02*
X129078125Y-96078625D01*
X129078125Y-96078625D02*
X129078125Y-91278625D01*
X130128125Y-93078625D02*
X129378125Y-93078625D01*
X129778125Y-93678625D02*
X129778125Y-93978625D01*
X129378125Y-93078625D02*
X129778125Y-93678625D01*
X130478125Y-95678625D02*
X129078125Y-95678625D01*
X130128125Y-93678625D02*
X129378125Y-93678625D01*
X130478125Y-95932625D02*
X130478125Y-91278625D01*
X130478125Y-91278625D02*
X129078125Y-91278625D01*
X130478125Y-95478625D02*
X129078125Y-95478625D01*
X130286125Y-96078625D02*
X130478125Y-95932625D01*
X129778125Y-93678625D02*
X130128125Y-93078625D01*
X129778125Y-93078625D02*
X129778125Y-92778625D01*
X130286125Y-96078625D02*
X129524125Y-95878625D01*
D10*
%TO.C,K21*%
X39434375Y-79725000D02*
X39434375Y-78725000D01*
X53434375Y-92725000D02*
X52434375Y-92725000D01*
X50625375Y-86360000D02*
X48974375Y-86360000D01*
X41354375Y-92710000D02*
X50244375Y-92710000D01*
X53434375Y-78725000D02*
X53434375Y-79725000D01*
X41354375Y-92329000D02*
X41354375Y-92710000D01*
X52784375Y-90170000D02*
X52784375Y-89789000D01*
X52434375Y-78725000D02*
X53434375Y-78725000D01*
X46434375Y-88265000D02*
X44148375Y-88265000D01*
X39434375Y-92725000D02*
X39434375Y-92329000D01*
X41354375Y-88900000D02*
X41354375Y-89281000D01*
X52784375Y-86360000D02*
X52403375Y-86360000D01*
X52784375Y-86741000D02*
X52784375Y-86360000D01*
X53434375Y-91725000D02*
X53434375Y-92725000D01*
X39434375Y-78725000D02*
X40434375Y-78725000D01*
X40434375Y-92725000D02*
X39434375Y-92725000D01*
X50244375Y-92710000D02*
G75*
G03*
X52784375Y-90170000I0J2540000D01*
G01*
X46434375Y-88265000D02*
G75*
G03*
X48898537Y-86341040I0J2540000D01*
G01*
D11*
%TO.C,D12*%
X73582125Y-54206750D02*
X72182125Y-54206750D01*
X72882125Y-52006750D02*
X73232125Y-51406750D01*
X73582125Y-54260750D02*
X73582125Y-49606750D01*
X73390125Y-54406750D02*
X73582125Y-54260750D01*
X73390125Y-54406750D02*
X72628125Y-54206750D01*
X73582125Y-53806750D02*
X72182125Y-53806750D01*
X73232125Y-52006750D02*
X72482125Y-52006750D01*
X73582125Y-54006750D02*
X72182125Y-54006750D01*
X72882125Y-52006750D02*
X72882125Y-52306750D01*
X73232125Y-51406750D02*
X72482125Y-51406750D01*
X72628125Y-54206750D02*
X72182125Y-54406750D01*
X73582125Y-49606750D02*
X72182125Y-49606750D01*
X72482125Y-51406750D02*
X72882125Y-52006750D01*
X72182125Y-54406750D02*
X72182125Y-49606750D01*
X72882125Y-51406750D02*
X72882125Y-51106750D01*
D10*
%TO.C,K0*%
X33384375Y-40625000D02*
X34384375Y-40625000D01*
X33734375Y-48260000D02*
X33353375Y-48260000D01*
X20384375Y-41625000D02*
X20384375Y-40625000D01*
X33734375Y-52070000D02*
X33734375Y-51689000D01*
X20384375Y-40625000D02*
X21384375Y-40625000D01*
X22304375Y-54610000D02*
X31194375Y-54610000D01*
X20384375Y-54625000D02*
X20384375Y-54229000D01*
X33734375Y-48641000D02*
X33734375Y-48260000D01*
X34384375Y-54625000D02*
X33384375Y-54625000D01*
X22304375Y-54229000D02*
X22304375Y-54610000D01*
X34384375Y-53625000D02*
X34384375Y-54625000D01*
X21384375Y-54625000D02*
X20384375Y-54625000D01*
X34384375Y-40625000D02*
X34384375Y-41625000D01*
X27384375Y-50165000D02*
X25098375Y-50165000D01*
X31575375Y-48260000D02*
X29924375Y-48260000D01*
X22304375Y-50800000D02*
X22304375Y-51181000D01*
X31194375Y-54610000D02*
G75*
G03*
X33734375Y-52070000I0J2540000D01*
G01*
X27384375Y-50165000D02*
G75*
G03*
X29848537Y-48241040I0J2540000D01*
G01*
%TO.C,K34*%
X107775375Y-94694375D02*
X106124375Y-94694375D01*
X109934375Y-95075375D02*
X109934375Y-94694375D01*
X98504375Y-100663375D02*
X98504375Y-101044375D01*
X110584375Y-100059375D02*
X110584375Y-101059375D01*
X96584375Y-87059375D02*
X97584375Y-87059375D01*
X103584375Y-96599375D02*
X101298375Y-96599375D01*
X109934375Y-94694375D02*
X109553375Y-94694375D01*
X97584375Y-101059375D02*
X96584375Y-101059375D01*
X110584375Y-101059375D02*
X109584375Y-101059375D01*
X98504375Y-97234375D02*
X98504375Y-97615375D01*
X109584375Y-87059375D02*
X110584375Y-87059375D01*
X96584375Y-101059375D02*
X96584375Y-100663375D01*
X98504375Y-101044375D02*
X107394375Y-101044375D01*
X96584375Y-88059375D02*
X96584375Y-87059375D01*
X109934375Y-98504375D02*
X109934375Y-98123375D01*
X110584375Y-87059375D02*
X110584375Y-88059375D01*
X107394375Y-101044375D02*
G75*
G03*
X109934375Y-98504375I0J2540000D01*
G01*
X103584375Y-96599375D02*
G75*
G03*
X106048537Y-94675415I0J2540000D01*
G01*
D11*
%TO.C,D34*%
X111236125Y-93697375D02*
X110474125Y-93497375D01*
X111078125Y-91297375D02*
X110328125Y-91297375D01*
X111078125Y-90697375D02*
X110328125Y-90697375D01*
X111236125Y-93697375D02*
X111428125Y-93551375D01*
X110728125Y-90697375D02*
X110728125Y-90397375D01*
X110728125Y-91297375D02*
X111078125Y-90697375D01*
X111428125Y-93097375D02*
X110028125Y-93097375D01*
X111428125Y-93297375D02*
X110028125Y-93297375D01*
X110474125Y-93497375D02*
X110028125Y-93697375D01*
X110328125Y-90697375D02*
X110728125Y-91297375D01*
X111428125Y-88897375D02*
X110028125Y-88897375D01*
X111428125Y-93551375D02*
X111428125Y-88897375D01*
X110728125Y-91297375D02*
X110728125Y-91597375D01*
X110028125Y-93697375D02*
X110028125Y-88897375D01*
X111428125Y-93497375D02*
X110028125Y-93497375D01*
%TO.C,D22*%
X73232125Y-71231375D02*
X72482125Y-71231375D01*
X72182125Y-73631375D02*
X72182125Y-68831375D01*
X73232125Y-70631375D02*
X72482125Y-70631375D01*
X73582125Y-73431375D02*
X72182125Y-73431375D01*
X72882125Y-71231375D02*
X72882125Y-71531375D01*
X73582125Y-73031375D02*
X72182125Y-73031375D01*
X73390125Y-73631375D02*
X73582125Y-73485375D01*
X72482125Y-70631375D02*
X72882125Y-71231375D01*
X73582125Y-68831375D02*
X72182125Y-68831375D01*
X73582125Y-73231375D02*
X72182125Y-73231375D01*
X73582125Y-73485375D02*
X73582125Y-68831375D01*
X72628125Y-73431375D02*
X72182125Y-73631375D01*
X72882125Y-70631375D02*
X72882125Y-70331375D01*
X73390125Y-73631375D02*
X72628125Y-73431375D01*
X72882125Y-71231375D02*
X73232125Y-70631375D01*
D10*
%TO.C,K24*%
X109934375Y-79454375D02*
X109934375Y-79073375D01*
X97584375Y-82009375D02*
X96584375Y-82009375D01*
X98504375Y-78184375D02*
X98504375Y-78565375D01*
X96584375Y-69009375D02*
X96584375Y-68009375D01*
X110584375Y-82009375D02*
X109584375Y-82009375D01*
X96584375Y-82009375D02*
X96584375Y-81613375D01*
X109584375Y-68009375D02*
X110584375Y-68009375D01*
X98504375Y-81613375D02*
X98504375Y-81994375D01*
X110584375Y-81009375D02*
X110584375Y-82009375D01*
X110584375Y-68009375D02*
X110584375Y-69009375D01*
X98504375Y-81994375D02*
X107394375Y-81994375D01*
X109934375Y-76025375D02*
X109934375Y-75644375D01*
X96584375Y-68009375D02*
X97584375Y-68009375D01*
X107775375Y-75644375D02*
X106124375Y-75644375D01*
X109934375Y-75644375D02*
X109553375Y-75644375D01*
X103584375Y-77549375D02*
X101298375Y-77549375D01*
X107394375Y-81994375D02*
G75*
G03*
X109934375Y-79454375I0J2540000D01*
G01*
X103584375Y-77549375D02*
G75*
G03*
X106048537Y-75625415I0J2540000D01*
G01*
%TO.C,K23*%
X78534375Y-74865625D02*
X77534375Y-74865625D01*
X79454375Y-74469625D02*
X79454375Y-74850625D01*
X90884375Y-68881625D02*
X90884375Y-68500625D01*
X77534375Y-74865625D02*
X77534375Y-74469625D01*
X91534375Y-74865625D02*
X90534375Y-74865625D01*
X77534375Y-60865625D02*
X78534375Y-60865625D01*
X90534375Y-60865625D02*
X91534375Y-60865625D01*
X79454375Y-71040625D02*
X79454375Y-71421625D01*
X79454375Y-74850625D02*
X88344375Y-74850625D01*
X91534375Y-73865625D02*
X91534375Y-74865625D01*
X88725375Y-68500625D02*
X87074375Y-68500625D01*
X90884375Y-68500625D02*
X90503375Y-68500625D01*
X91534375Y-60865625D02*
X91534375Y-61865625D01*
X84534375Y-70405625D02*
X82248375Y-70405625D01*
X90884375Y-72310625D02*
X90884375Y-71929625D01*
X77534375Y-61865625D02*
X77534375Y-60865625D01*
X88344375Y-74850625D02*
G75*
G03*
X90884375Y-72310625I0J2540000D01*
G01*
X84534375Y-70405625D02*
G75*
G03*
X86998537Y-68481665I0J2540000D01*
G01*
D11*
%TO.C,D6*%
X149510750Y-43691125D02*
X149702750Y-43545125D01*
X148302750Y-43691125D02*
X148302750Y-38891125D01*
X149002750Y-41291125D02*
X149002750Y-41591125D01*
X149702750Y-43545125D02*
X149702750Y-38891125D01*
X149702750Y-43491125D02*
X148302750Y-43491125D01*
X148748750Y-43491125D02*
X148302750Y-43691125D01*
X149702750Y-38891125D02*
X148302750Y-38891125D01*
X149002750Y-41291125D02*
X149352750Y-40691125D01*
X149510750Y-43691125D02*
X148748750Y-43491125D01*
X149002750Y-40691125D02*
X149002750Y-40391125D01*
X149352750Y-41291125D02*
X148602750Y-41291125D01*
X149702750Y-43091125D02*
X148302750Y-43091125D01*
X148602750Y-40691125D02*
X149002750Y-41291125D01*
X149352750Y-40691125D02*
X148602750Y-40691125D01*
X149702750Y-43291125D02*
X148302750Y-43291125D01*
D10*
%TO.C,K15*%
X128984375Y-58975625D02*
X128603375Y-58975625D01*
X128984375Y-62785625D02*
X128984375Y-62404625D01*
X129634375Y-64340625D02*
X129634375Y-65340625D01*
X115634375Y-51340625D02*
X116634375Y-51340625D01*
X115634375Y-65340625D02*
X115634375Y-64944625D01*
X126825375Y-58975625D02*
X125174375Y-58975625D01*
X129634375Y-51340625D02*
X129634375Y-52340625D01*
X117554375Y-65325625D02*
X126444375Y-65325625D01*
X117554375Y-61515625D02*
X117554375Y-61896625D01*
X128634375Y-51340625D02*
X129634375Y-51340625D01*
X116634375Y-65340625D02*
X115634375Y-65340625D01*
X129634375Y-65340625D02*
X128634375Y-65340625D01*
X115634375Y-52340625D02*
X115634375Y-51340625D01*
X117554375Y-64944625D02*
X117554375Y-65325625D01*
X128984375Y-59356625D02*
X128984375Y-58975625D01*
X122634375Y-60880625D02*
X120348375Y-60880625D01*
X122634375Y-60880625D02*
G75*
G03*
X125098537Y-58956665I0J2540000D01*
G01*
X126444375Y-65325625D02*
G75*
G03*
X128984375Y-62785625I0J2540000D01*
G01*
D11*
%TO.C,D36*%
X156306000Y-67772000D02*
X155556000Y-67772000D01*
X156656000Y-70572000D02*
X155256000Y-70572000D01*
X155956000Y-68372000D02*
X155956000Y-68672000D01*
X155556000Y-67772000D02*
X155956000Y-68372000D01*
X156656000Y-70172000D02*
X155256000Y-70172000D01*
X155256000Y-70772000D02*
X155256000Y-65972000D01*
X156656000Y-65972000D02*
X155256000Y-65972000D01*
X155956000Y-68372000D02*
X156306000Y-67772000D01*
X155956000Y-67772000D02*
X155956000Y-67472000D01*
X156656000Y-70772000D02*
X156656000Y-65972000D01*
X156306000Y-68372000D02*
X155556000Y-68372000D01*
X156656000Y-70372000D02*
X155256000Y-70372000D01*
X156656000Y-70772000D02*
X155256000Y-70772000D01*
D12*
%TO.C,J11*%
X134590000Y-36153000D02*
X135920000Y-36153000D01*
X137190000Y-33493000D02*
X137190000Y-36153000D01*
X134590000Y-34823000D02*
X134590000Y-36153000D01*
X147410000Y-33493000D02*
X147410000Y-36153000D01*
X137190000Y-33493000D02*
X147410000Y-33493000D01*
X137190000Y-36153000D02*
X147410000Y-36153000D01*
%TO.C,J3*%
X80797881Y-104806930D02*
X80797881Y-104260401D01*
X79592881Y-105062871D02*
X79592881Y-104260401D01*
X81557881Y-106480401D02*
X82317881Y-106480401D01*
X80797881Y-104260401D02*
X79592881Y-104260401D01*
X80797881Y-106480401D02*
X80797881Y-105933872D01*
X79592881Y-106480401D02*
X79592881Y-105677931D01*
X80797881Y-106480401D02*
X79592881Y-106480401D01*
X82317881Y-106480401D02*
X82317881Y-105370401D01*
%TO.C,J4*%
X86751011Y-106480401D02*
X85546011Y-106480401D01*
X87511011Y-106480401D02*
X88271011Y-106480401D01*
X86751011Y-104806930D02*
X86751011Y-104260401D01*
X88271011Y-106480401D02*
X88271011Y-105370401D01*
X85546011Y-105062871D02*
X85546011Y-104260401D01*
X85546011Y-106480401D02*
X85546011Y-105677931D01*
X86751011Y-106480401D02*
X86751011Y-105933872D01*
X86751011Y-104260401D02*
X85546011Y-104260401D01*
D11*
%TO.C,D45*%
X171896000Y-70772000D02*
X171896000Y-65972000D01*
X171896000Y-70172000D02*
X170496000Y-70172000D01*
X171546000Y-67772000D02*
X170796000Y-67772000D01*
X170496000Y-70772000D02*
X170496000Y-65972000D01*
X171196000Y-68372000D02*
X171196000Y-68672000D01*
X171896000Y-70772000D02*
X170496000Y-70772000D01*
X171896000Y-70372000D02*
X170496000Y-70372000D01*
X171196000Y-68372000D02*
X171546000Y-67772000D01*
X171196000Y-67772000D02*
X171196000Y-67472000D01*
X171896000Y-65972000D02*
X170496000Y-65972000D01*
X171896000Y-70572000D02*
X170496000Y-70572000D01*
X171546000Y-68372000D02*
X170796000Y-68372000D01*
X170796000Y-67772000D02*
X171196000Y-68372000D01*
%TO.C,D41*%
X161036000Y-68372000D02*
X161036000Y-68672000D01*
X161736000Y-70772000D02*
X160336000Y-70772000D01*
X160336000Y-70772000D02*
X160336000Y-65972000D01*
X161386000Y-68372000D02*
X160636000Y-68372000D01*
X161386000Y-67772000D02*
X160636000Y-67772000D01*
X161736000Y-70772000D02*
X161736000Y-65972000D01*
X161736000Y-70172000D02*
X160336000Y-70172000D01*
X161736000Y-65972000D02*
X160336000Y-65972000D01*
X160636000Y-67772000D02*
X161036000Y-68372000D01*
X161036000Y-68372000D02*
X161386000Y-67772000D01*
X161736000Y-70572000D02*
X160336000Y-70572000D01*
X161736000Y-70372000D02*
X160336000Y-70372000D01*
X161036000Y-67772000D02*
X161036000Y-67472000D01*
%TO.C,D42*%
X163576000Y-67772000D02*
X163576000Y-67472000D01*
X163576000Y-68372000D02*
X163576000Y-68672000D01*
X162876000Y-70772000D02*
X162876000Y-65972000D01*
X163576000Y-68372000D02*
X163926000Y-67772000D01*
X163176000Y-67772000D02*
X163576000Y-68372000D01*
X163926000Y-67772000D02*
X163176000Y-67772000D01*
X164276000Y-65972000D02*
X162876000Y-65972000D01*
X164276000Y-70772000D02*
X162876000Y-70772000D01*
X164276000Y-70172000D02*
X162876000Y-70172000D01*
X164276000Y-70572000D02*
X162876000Y-70572000D01*
X164276000Y-70372000D02*
X162876000Y-70372000D01*
X163926000Y-68372000D02*
X163176000Y-68372000D01*
X164276000Y-70772000D02*
X164276000Y-65972000D01*
D12*
%TO.C,SWbat1*%
X126141875Y-28460625D02*
X131281875Y-28460625D01*
X123541875Y-29790625D02*
X123541875Y-31120625D01*
X123541875Y-31120625D02*
X124871875Y-31120625D01*
X126141875Y-31120625D02*
X131281875Y-31120625D01*
X126141875Y-28460625D02*
X126141875Y-31120625D01*
X131281875Y-28460625D02*
X131281875Y-31120625D01*
%TO.C,J5*%
X140329181Y-104260401D02*
X139124181Y-104260401D01*
X141089181Y-106480401D02*
X141849181Y-106480401D01*
X139124181Y-106480401D02*
X139124181Y-105677931D01*
X140329181Y-104806930D02*
X140329181Y-104260401D01*
X140329181Y-106480401D02*
X139124181Y-106480401D01*
X141849181Y-106480401D02*
X141849181Y-105370401D01*
X140329181Y-106480401D02*
X140329181Y-105933872D01*
X139124181Y-105062871D02*
X139124181Y-104260401D01*
D11*
%TO.C,D43*%
X166816000Y-70572000D02*
X165416000Y-70572000D01*
X166116000Y-68372000D02*
X166116000Y-68672000D01*
X166816000Y-65972000D02*
X165416000Y-65972000D01*
X166816000Y-70172000D02*
X165416000Y-70172000D01*
X166466000Y-68372000D02*
X165716000Y-68372000D01*
X165716000Y-67772000D02*
X166116000Y-68372000D01*
X166466000Y-67772000D02*
X165716000Y-67772000D01*
X166816000Y-70772000D02*
X166816000Y-65972000D01*
X166116000Y-68372000D02*
X166466000Y-67772000D01*
X166816000Y-70372000D02*
X165416000Y-70372000D01*
X166116000Y-67772000D02*
X166116000Y-67472000D01*
X166816000Y-70772000D02*
X165416000Y-70772000D01*
X165416000Y-70772000D02*
X165416000Y-65972000D01*
D12*
%TO.C,J1*%
X155971000Y-59884000D02*
X154641000Y-59884000D01*
X175081000Y-59884000D02*
X175081000Y-65084000D01*
X154641000Y-65084000D02*
X175081000Y-65084000D01*
X157241000Y-59884000D02*
X157241000Y-62484000D01*
X154641000Y-62484000D02*
X154641000Y-65084000D01*
X154641000Y-59884000D02*
X154641000Y-61214000D01*
X157241000Y-62484000D02*
X154641000Y-62484000D01*
X157241000Y-59884000D02*
X175081000Y-59884000D01*
%TO.C,J2*%
X165695762Y-33362528D02*
X165695762Y-32032528D01*
X163095762Y-34692528D02*
X163095762Y-32032528D01*
X165695762Y-32032528D02*
X164365762Y-32032528D01*
X163095762Y-34692528D02*
X160495762Y-34692528D01*
X163095762Y-32032528D02*
X160495762Y-32032528D01*
X160495762Y-34692528D02*
X160495762Y-32032528D01*
%TO.C,J6*%
X146282311Y-104260401D02*
X145077311Y-104260401D01*
X146282311Y-104806930D02*
X146282311Y-104260401D01*
X147042311Y-106480401D02*
X147802311Y-106480401D01*
X145077311Y-105062871D02*
X145077311Y-104260401D01*
X146282311Y-106480401D02*
X145077311Y-106480401D01*
X146282311Y-106480401D02*
X146282311Y-105933872D01*
X147802311Y-106480401D02*
X147802311Y-105370401D01*
X145077311Y-106480401D02*
X145077311Y-105677931D01*
D11*
%TO.C,D44*%
X169006000Y-68372000D02*
X168256000Y-68372000D01*
X168656000Y-68372000D02*
X168656000Y-68672000D01*
X169006000Y-67772000D02*
X168256000Y-67772000D01*
X169356000Y-70772000D02*
X169356000Y-65972000D01*
X169356000Y-70172000D02*
X167956000Y-70172000D01*
X167956000Y-70772000D02*
X167956000Y-65972000D01*
X169356000Y-65972000D02*
X167956000Y-65972000D01*
X169356000Y-70772000D02*
X167956000Y-70772000D01*
X169356000Y-70372000D02*
X167956000Y-70372000D01*
X168656000Y-67772000D02*
X168656000Y-67472000D01*
X168656000Y-68372000D02*
X169006000Y-67772000D01*
X169356000Y-70572000D02*
X167956000Y-70572000D01*
X168256000Y-67772000D02*
X168656000Y-68372000D01*
%TO.C,D40*%
X158496000Y-68372000D02*
X158496000Y-68672000D01*
X157796000Y-70772000D02*
X157796000Y-65972000D01*
X158846000Y-68372000D02*
X158096000Y-68372000D01*
X158846000Y-67772000D02*
X158096000Y-67772000D01*
X159196000Y-70372000D02*
X157796000Y-70372000D01*
X159196000Y-70572000D02*
X157796000Y-70572000D01*
X159196000Y-70772000D02*
X159196000Y-65972000D01*
X158496000Y-67772000D02*
X158496000Y-67472000D01*
X158096000Y-67772000D02*
X158496000Y-68372000D01*
X158496000Y-68372000D02*
X158846000Y-67772000D01*
X159196000Y-70772000D02*
X157796000Y-70772000D01*
X159196000Y-70172000D02*
X157796000Y-70172000D01*
X159196000Y-65972000D02*
X157796000Y-65972000D01*
%TO.C,D46*%
X174086000Y-68372000D02*
X173336000Y-68372000D01*
X173736000Y-68372000D02*
X174086000Y-67772000D01*
X173736000Y-67772000D02*
X173736000Y-67472000D01*
X174086000Y-67772000D02*
X173336000Y-67772000D01*
X174436000Y-70772000D02*
X173036000Y-70772000D01*
X173336000Y-67772000D02*
X173736000Y-68372000D01*
X174436000Y-70372000D02*
X173036000Y-70372000D01*
X174436000Y-70172000D02*
X173036000Y-70172000D01*
X173036000Y-70772000D02*
X173036000Y-65972000D01*
X173736000Y-68372000D02*
X173736000Y-68672000D01*
X174436000Y-65972000D02*
X173036000Y-65972000D01*
X174436000Y-70572000D02*
X173036000Y-70572000D01*
X174436000Y-70772000D02*
X174436000Y-65972000D01*
D12*
%TO.C,BT1*%
X144403750Y-55459375D02*
X140043750Y-55459375D01*
X142143750Y-53659375D02*
X142143750Y-54659375D01*
X140043750Y-55459375D02*
X140043750Y-56459375D01*
X142143750Y-54159375D02*
X144403750Y-54159375D01*
X140543750Y-57259375D02*
X140543750Y-58259375D01*
X138183750Y-54099375D02*
X136968750Y-54099375D01*
X136583750Y-59019375D02*
X136583750Y-58099375D01*
X138183750Y-53819375D02*
X136583750Y-53819375D01*
X144403750Y-59019375D02*
X136583750Y-59019375D01*
X142143750Y-54659375D02*
X140543750Y-54659375D01*
X140543750Y-58259375D02*
X142143750Y-58259375D01*
X138183750Y-59019375D02*
X138183750Y-58099375D01*
X138183750Y-58099375D02*
X138183750Y-57819375D01*
X136583750Y-58099375D02*
X138183750Y-58099375D01*
X142143750Y-58259375D02*
X142143750Y-57259375D01*
X136583750Y-53819375D02*
X136583750Y-52899375D01*
X140043750Y-56459375D02*
X144403750Y-56459375D01*
X140543750Y-53659375D02*
X142143750Y-53659375D01*
X136583750Y-52899375D02*
X144403750Y-52899375D01*
X144403750Y-52899375D02*
X144403750Y-59019375D01*
X138183750Y-52899375D02*
X138183750Y-53819375D01*
X142143750Y-57259375D02*
X140543750Y-57259375D01*
X140543750Y-54659375D02*
X140543750Y-53659375D01*
X138183750Y-54099375D02*
X138183750Y-53819375D01*
X142143750Y-54659375D02*
X144403750Y-54659375D01*
%TD*%
D13*
%TO.C,U1*%
X156136000Y-46736000D03*
X171376000Y-36576000D03*
D14*
X156136000Y-26416000D03*
D13*
X171376000Y-39116000D03*
X156136000Y-51816000D03*
X171376000Y-34036000D03*
X156136000Y-41656000D03*
X171376000Y-44196000D03*
X156136000Y-54356000D03*
X171376000Y-31496000D03*
X156136000Y-28956000D03*
X156136000Y-31496000D03*
X171376000Y-28956000D03*
X171376000Y-26416000D03*
X171376000Y-41656000D03*
X156136000Y-39116000D03*
X156136000Y-49276000D03*
X171376000Y-49276000D03*
X171376000Y-54356000D03*
X156136000Y-36576000D03*
X171376000Y-51816000D03*
X171376000Y-46736000D03*
X156136000Y-34036000D03*
X156136000Y-44196000D03*
%TD*%
M02*
