M48
; DRILL file {KiCad 6.0.4} date Do 28 Apr 2022 08:17:49 CEST
; FORMAT={-:-/ absolute / inch / decimal}
; #@! TF.CreationDate,2022-04-28T08:17:49+02:00
; #@! TF.GenerationSoftware,Kicad,Pcbnew,6.0.4
; #@! TF.FileFunction,MixedPlating,1,2
FMAT,2
INCH
; #@! TA.AperFunction,Plated,PTH,ViaDrill
T1C0.0157
; #@! TA.AperFunction,Plated,PTH,ComponentDrill
T2C0.0157
; #@! TA.AperFunction,Plated,PTH,ComponentDrill
T3C0.0256
; #@! TA.AperFunction,Plated,PTH,ComponentDrill
T4C0.0295
; #@! TA.AperFunction,Plated,PTH,ComponentDrill
T5C0.0394
; #@! TA.AperFunction,Plated,PTH,ComponentDrill
T6C0.0430
; #@! TA.AperFunction,Plated,PTH,ComponentDrill
T7C0.0433
; #@! TA.AperFunction,NonPlated,NPTH,ComponentDrill
T8C0.0155
; #@! TA.AperFunction,NonPlated,NPTH,ComponentDrill
T9C0.0670
; #@! TA.AperFunction,NonPlated,NPTH,ComponentDrill
T10C0.1181
; #@! TA.AperFunction,NonPlated,NPTH,ComponentDrill
T11C0.1260
; #@! TA.AperFunction,NonPlated,NPTH,ComponentDrill
T12C0.1570
%
G90
G05
T1
X0.9375Y-1.875
X0.9375Y-2.625
X0.9375Y-3.375
X0.9375Y-4.125
X1.5Y-3.375
X1.6875Y-1.875
X1.6875Y-2.625
X1.6875Y-3.375
X1.6875Y-4.125
X2.2031Y-3.0
X2.33Y-4.92
X2.4375Y-1.4062
X2.4375Y-2.1562
X2.4375Y-2.9062
X2.4375Y-3.6562
X2.83Y-4.63
X2.9531Y-2.5312
X3.0Y-2.25
X3.0703Y-4.1484
X3.16Y-4.49
X3.1641Y-3.7969
X3.1875Y-1.1719
X3.1875Y-1.9219
X3.1875Y-2.6719
X3.1875Y-3.4219
X3.3281Y-3.9375
X3.4453Y-2.3906
X3.5391Y-4.1484
X3.6797Y-3.9844
X3.7031Y-2.25
X3.75Y-2.6719
X3.79Y-4.49
X3.9375Y-1.4531
X3.9375Y-2.2031
X3.9375Y-2.9531
X3.9375Y-3.7031
X4.1Y-4.54
X4.4531Y-2.5313
X4.5Y-2.9531
X4.6875Y-1.5469
X4.6875Y-2.2969
X4.6875Y-3.0469
X4.6875Y-3.7969
X4.76Y-4.74
X4.9219Y-2.7891
X5.04Y-4.85
X5.2031Y-1.875
X5.2031Y-2.6719
X5.25Y-1.6875
X5.3043Y-3.1857
X5.3328Y-3.2249
X5.3438Y-3.5391
X5.4375Y-1.7344
X5.4375Y-3.6094
X5.5781Y-2.5312
X5.6016Y-3.3516
X5.61Y-5.18
X5.625Y-3.7969
X5.6484Y-4.2891
X5.74Y-5.34
X5.7422Y-3.3984
X5.76Y-4.68
X5.8125Y-2.7422
X5.9251Y-2.7651
X5.93Y-3.41
X5.94Y-2.81
X5.9531Y-2.1094
X5.9531Y-4.1484
X5.96Y-2.85
X5.98Y-2.89
X5.995Y-2.93
X6.0Y-1.44
X6.0Y-1.64
X6.0Y-1.7578
X6.015Y-2.97
X6.03Y-3.01
X6.04Y-1.54
X6.04Y-2.39
X6.06Y-2.44
X6.21Y-4.24
X6.21Y-5.82
X6.28Y-4.81
X6.3371Y-1.51
X6.3371Y-1.61
X6.3371Y-1.71
X6.3371Y-1.81
X6.3371Y-1.91
X6.3371Y-2.01
X6.3371Y-2.11
X6.3516Y-1.4297
X6.3871Y-0.99
X6.3871Y-1.1
X6.4271Y-1.24
X6.43Y-1.1
X6.47Y-1.1
X6.51Y-1.1
X6.5171Y-1.03
X6.52Y-1.37
X6.5471Y-1.06
X6.5571Y-1.47
X6.5571Y-1.57
X6.5571Y-1.67
X6.5571Y-1.77
X6.5571Y-1.87
X6.5571Y-1.97
X6.5571Y-2.07
X6.5571Y-2.17
X6.5625Y-2.2969
X6.76Y-5.26
X6.8203Y-2.8359
T2
X1.3494Y-1.875
X1.3494Y-2.625
X1.3494Y-3.375
X1.3494Y-4.125
X1.3994Y-1.875
X1.3994Y-2.625
X1.3994Y-3.375
X1.3994Y-4.125
X2.0994Y-1.875
X2.0994Y-2.625
X2.0994Y-3.375
X2.0994Y-4.125
X2.1494Y-1.875
X2.1494Y-2.625
X2.1494Y-3.375
X2.1494Y-4.125
X2.8494Y-1.4062
X2.8494Y-3.6562
X2.8594Y-2.1562
X2.8594Y-2.9131
X2.8994Y-1.4062
X2.8994Y-3.6562
X2.9094Y-2.1562
X2.9094Y-2.9131
X3.5994Y-1.1719
X3.5994Y-1.9219
X3.5994Y-2.6719
X3.5994Y-3.4219
X3.6494Y-1.1719
X3.6494Y-1.9219
X3.6494Y-2.6719
X3.6494Y-3.4219
X4.3494Y-1.4531
X4.3494Y-2.2031
X4.3494Y-2.9531
X4.3494Y-3.7031
X4.3994Y-1.4531
X4.3994Y-2.2031
X4.3994Y-2.9531
X4.3994Y-3.7031
X5.0994Y-1.5469
X5.0994Y-2.2969
X5.0994Y-3.0469
X5.0994Y-3.7969
X5.1494Y-1.5469
X5.1494Y-2.2969
X5.1494Y-3.0469
X5.1494Y-3.7969
X5.5781Y-2.9431
X5.5781Y-2.9931
X5.8494Y-3.6094
X5.8563Y-1.7344
X5.8994Y-3.6094
X5.9062Y-1.7344
T3
X3.1609Y-4.1484
X3.2109Y-4.1484
X3.3953Y-4.1484
X3.4453Y-4.1484
X5.5047Y-4.1484
X5.5547Y-4.1484
X5.7391Y-4.1484
X5.7891Y-4.1484
T4
X5.4348Y-2.1638
X5.4348Y-2.2425
T5
X4.9162Y-1.1729
X5.0162Y-1.1729
X5.1162Y-1.1729
X5.3512Y-1.371
X5.4512Y-1.371
X5.5512Y-1.371
X5.6512Y-1.371
X5.7512Y-1.371
X6.1406Y-2.41
X6.1406Y-2.51
X6.2406Y-2.41
X6.2406Y-2.51
X6.3406Y-2.41
X6.3406Y-2.51
X6.3711Y-1.3135
X6.4406Y-2.41
X6.4406Y-2.51
X6.4711Y-1.3135
X6.5406Y-2.41
X6.5406Y-2.51
X6.6406Y-2.41
X6.6406Y-2.51
X6.7406Y-2.41
X6.7406Y-2.51
X6.8406Y-2.41
X6.8406Y-2.51
T6
X6.1471Y-1.04
X6.1471Y-1.14
X6.1471Y-1.24
X6.1471Y-1.34
X6.1471Y-1.44
X6.1471Y-1.54
X6.1471Y-1.64
X6.1471Y-1.74
X6.1471Y-1.84
X6.1471Y-1.94
X6.1471Y-2.04
X6.1471Y-2.14
X6.7471Y-1.04
X6.7471Y-1.14
X6.7471Y-1.24
X6.7471Y-1.34
X6.7471Y-1.44
X6.7471Y-1.54
X6.7471Y-1.64
X6.7471Y-1.74
X6.7471Y-1.84
X6.7471Y-1.94
X6.7471Y-2.04
X6.7471Y-2.14
T7
X5.7164Y-0.9502
X5.7164Y-1.2061
X5.8936Y-0.9502
X5.8936Y-1.2061
T8
X3.1367Y-3.9883
X3.1367Y-4.0742
X3.1875Y-3.9883
X3.1875Y-4.0742
X3.2383Y-3.9883
X3.2383Y-4.0742
X3.3711Y-3.9883
X3.3711Y-4.0742
X3.4219Y-3.9883
X3.4219Y-4.0742
X3.4727Y-3.9883
X3.4727Y-4.0742
X5.4804Y-3.9883
X5.4804Y-4.0742
X5.5312Y-3.9883
X5.5312Y-4.0742
X5.5821Y-3.9883
X5.5821Y-4.0742
X5.7148Y-3.9883
X5.7148Y-4.0742
X5.7656Y-3.9883
X5.7656Y-4.0742
X5.8164Y-3.9883
X5.8164Y-4.0742
T9
X0.8781Y-1.875
X0.8781Y-2.625
X0.8781Y-3.375
X0.8781Y-4.125
X1.2781Y-1.875
X1.2781Y-2.625
X1.2781Y-3.375
X1.2781Y-4.125
X1.6281Y-1.875
X1.6281Y-2.625
X1.6281Y-3.375
X1.6281Y-4.125
X2.0281Y-1.875
X2.0281Y-2.625
X2.0281Y-3.375
X2.0281Y-4.125
X2.3781Y-1.4062
X2.3781Y-2.1562
X2.3781Y-2.9062
X2.3781Y-3.6562
X2.4049Y-4.8812
X2.7513Y-4.6812
X2.7781Y-1.4062
X2.7781Y-2.1562
X2.7781Y-2.9062
X2.7781Y-3.6562
X3.1281Y-1.1719
X3.1281Y-1.9219
X3.1281Y-2.6719
X3.1281Y-3.4219
X3.2594Y-4.4937
X3.5281Y-1.1719
X3.5281Y-1.9219
X3.5281Y-2.6719
X3.5281Y-3.4219
X3.6594Y-4.4937
X3.8781Y-1.4531
X3.8781Y-2.2031
X3.8781Y-2.9531
X3.8781Y-3.7031
X4.2131Y-4.5889
X4.2781Y-1.4531
X4.2781Y-2.2031
X4.2781Y-2.9531
X4.2781Y-3.7031
X4.5994Y-4.6924
X4.6281Y-1.5469
X4.6281Y-2.2969
X4.6281Y-3.0469
X4.6281Y-3.7969
X5.0281Y-1.5469
X5.0281Y-2.2969
X5.0281Y-3.0469
X5.0281Y-3.7969
X5.138Y-4.9094
X5.3781Y-1.7344
X5.3781Y-3.6094
X5.4844Y-5.1094
X5.5781Y-2.4719
X5.5781Y-2.8719
X5.7781Y-1.7344
X5.7781Y-3.6094
X5.8307Y-4.6204
X5.8307Y-5.4399
X6.1136Y-4.3376
X6.1136Y-5.7228
X6.3819Y-4.8887
X6.6648Y-5.1716
T10
X0.9781Y-1.675
X0.9781Y-2.075
X0.9781Y-2.425
X0.9781Y-2.825
X0.9781Y-3.175
X0.9781Y-3.575
X0.9781Y-3.925
X0.9781Y-4.325
X1.2281Y-1.775
X1.2281Y-1.975
X1.2281Y-2.525
X1.2281Y-2.725
X1.2281Y-3.275
X1.2281Y-3.475
X1.2281Y-4.025
X1.2281Y-4.225
X1.7281Y-1.675
X1.7281Y-2.075
X1.7281Y-2.425
X1.7281Y-2.825
X1.7281Y-3.175
X1.7281Y-3.575
X1.7281Y-3.925
X1.7281Y-4.325
X1.9781Y-1.775
X1.9781Y-1.975
X1.9781Y-2.525
X1.9781Y-2.725
X1.9781Y-3.275
X1.9781Y-3.475
X1.9781Y-4.025
X1.9781Y-4.225
X2.3915Y-4.658
X2.4781Y-1.2063
X2.4781Y-1.6062
X2.4781Y-1.9563
X2.4781Y-2.3562
X2.4781Y-2.7062
X2.4781Y-3.1062
X2.4781Y-3.4562
X2.4781Y-3.8562
X2.5915Y-5.0045
X2.658Y-4.6196
X2.7281Y-1.3062
X2.7281Y-1.5062
X2.7281Y-2.0562
X2.7281Y-2.2563
X2.7281Y-2.8062
X2.7281Y-3.0063
X2.7281Y-3.5562
X2.7281Y-3.7563
X2.758Y-4.7929
X3.2281Y-0.9719
X3.2281Y-1.3719
X3.2281Y-1.7219
X3.2281Y-2.1219
X3.2281Y-2.4719
X3.2281Y-2.8719
X3.2281Y-3.2219
X3.2281Y-3.6219
X3.3594Y-4.2938
X3.3594Y-4.6937
X3.4781Y-1.0719
X3.4781Y-1.2719
X3.4781Y-1.8219
X3.4781Y-2.0219
X3.4781Y-2.5719
X3.4781Y-2.7719
X3.4781Y-3.3219
X3.4781Y-3.5219
X3.6094Y-4.3937
X3.6094Y-4.5938
X3.9781Y-1.2531
X3.9781Y-1.6531
X3.9781Y-2.0031
X3.9781Y-2.4031
X3.9781Y-2.7531
X3.9781Y-3.1531
X3.9781Y-3.5031
X3.9781Y-3.9031
X4.2281Y-1.3531
X4.2281Y-1.5531
X4.2281Y-2.1031
X4.2281Y-2.3031
X4.2281Y-2.8531
X4.2281Y-3.0531
X4.2281Y-3.6031
X4.2281Y-3.8031
X4.2579Y-4.8079
X4.3614Y-4.4216
X4.5253Y-4.776
X4.577Y-4.5829
X4.7281Y-1.3469
X4.7281Y-1.7469
X4.7281Y-2.0969
X4.7281Y-2.4969
X4.7281Y-2.8469
X4.7281Y-3.2469
X4.7281Y-3.5969
X4.7281Y-3.9969
X4.9781Y-1.4469
X4.9781Y-1.6469
X4.9781Y-2.1969
X4.9781Y-2.3969
X4.9781Y-2.9469
X4.9781Y-3.1469
X4.9781Y-3.6969
X4.9781Y-3.8969
X5.1246Y-5.1326
X5.3246Y-4.7862
X5.3781Y-2.5719
X5.3911Y-5.171
X5.4781Y-1.5344
X5.4781Y-1.9344
X5.4781Y-2.8219
X5.4781Y-3.4094
X5.4781Y-3.8094
X5.4911Y-4.9978
X5.6781Y-2.8219
X5.7281Y-1.6344
X5.7281Y-1.8344
X5.7281Y-3.5094
X5.7281Y-3.7094
X5.76Y-4.4083
X5.76Y-5.6521
X5.7781Y-2.5719
X6.0075Y-4.3022
X6.0075Y-5.7581
X6.0429Y-4.6911
X6.0429Y-5.3692
X6.1489Y-4.4436
X6.1489Y-5.6167
X6.3112Y-5.1009
X6.5587Y-5.2069
X6.594Y-4.818
X6.7001Y-5.0655
T11
X2.0156Y-1.3125
X2.3906Y-4.2188
X2.9531Y-4.3594
X5.3438Y-4.4531
X5.3906Y-1.1719
X5.9766Y-5.0391
X6.2812Y-3.0
T12
X1.0781Y-1.875
X1.0781Y-2.625
X1.0781Y-3.375
X1.0781Y-4.125
X1.8281Y-1.875
X1.8281Y-2.625
X1.8281Y-3.375
X1.8281Y-4.125
X2.5781Y-1.4062
X2.5781Y-2.1562
X2.5781Y-2.9062
X2.5781Y-3.6562
X2.5781Y-4.7812
X3.3281Y-1.1719
X3.3281Y-1.9219
X3.3281Y-2.6719
X3.3281Y-3.4219
X3.4594Y-4.4937
X4.0781Y-1.4531
X4.0781Y-2.2031
X4.0781Y-2.9531
X4.0781Y-3.7031
X4.4062Y-4.6406
X4.8281Y-1.5469
X4.8281Y-2.2969
X4.8281Y-3.0469
X4.8281Y-3.7969
X5.3112Y-5.0094
X5.5781Y-1.7344
X5.5781Y-2.6719
X5.5781Y-3.6094
X5.9721Y-4.479
X5.9721Y-5.5813
X6.5233Y-5.0302
T0
M30
