%TF.GenerationSoftware,KiCad,Pcbnew,6.0.4*%
%TF.CreationDate,2022-04-20T09:09:29+02:00*%
%TF.ProjectId,mykeeb,6d796b65-6562-42e6-9b69-6361645f7063,rev?*%
%TF.SameCoordinates,Original*%
%TF.FileFunction,Soldermask,Bot*%
%TF.FilePolarity,Negative*%
%FSLAX46Y46*%
G04 Gerber Fmt 4.6, Leading zero omitted, Abs format (unit mm)*
G04 Created by KiCad (PCBNEW 6.0.4) date 2022-04-20 09:09:29*
%MOMM*%
%LPD*%
G01*
G04 APERTURE LIST*
G04 Aperture macros list*
%AMRoundRect*
0 Rectangle with rounded corners*
0 $1 Rounding radius*
0 $2 $3 $4 $5 $6 $7 $8 $9 X,Y pos of 4 corners*
0 Add a 4 corners polygon primitive as box body*
4,1,4,$2,$3,$4,$5,$6,$7,$8,$9,$2,$3,0*
0 Add four circle primitives for the rounded corners*
1,1,$1+$1,$2,$3*
1,1,$1+$1,$4,$5*
1,1,$1+$1,$6,$7*
1,1,$1+$1,$8,$9*
0 Add four rect primitives between the rounded corners*
20,1,$1+$1,$2,$3,$4,$5,0*
20,1,$1+$1,$4,$5,$6,$7,0*
20,1,$1+$1,$6,$7,$8,$9,0*
20,1,$1+$1,$8,$9,$2,$3,0*%
%AMRotRect*
0 Rectangle, with rotation*
0 The origin of the aperture is its center*
0 $1 length*
0 $2 width*
0 $3 Rotation angle, in degrees counterclockwise*
0 Add horizontal line*
21,1,$1,$2,0,0,$3*%
%AMFreePoly0*
4,1,6,1.000000,0.000000,0.500000,-0.750000,-0.500000,-0.750000,-0.500000,0.750000,0.500000,0.750000,1.000000,0.000000,1.000000,0.000000,$1*%
%AMFreePoly1*
4,1,6,0.500000,-0.750000,-0.650000,-0.750000,-0.150000,0.000000,-0.650000,0.750000,0.500000,0.750000,0.500000,-0.750000,0.500000,-0.750000,$1*%
G04 Aperture macros list end*
%ADD10R,1.700000X1.700000*%
%ADD11O,1.700000X1.700000*%
%ADD12R,2.550000X2.500000*%
%ADD13C,2.286000*%
%ADD14C,3.000000*%
%ADD15C,3.987800*%
%ADD16C,1.701800*%
%ADD17C,3.200000*%
%ADD18RoundRect,0.250000X0.625000X-0.350000X0.625000X0.350000X-0.625000X0.350000X-0.625000X-0.350000X0*%
%ADD19O,1.750000X1.200000*%
%ADD20RotRect,2.550000X2.500000X345.000000*%
%ADD21C,2.200000*%
%ADD22RotRect,2.550000X2.500000X330.000000*%
%ADD23R,2.500000X2.550000*%
%ADD24C,2.000000*%
%ADD25C,0.900000*%
%ADD26RotRect,2.550000X2.500000X60.000000*%
%ADD27FreePoly0,180.000000*%
%ADD28FreePoly1,180.000000*%
%ADD29FreePoly0,0.000000*%
%ADD30FreePoly1,0.000000*%
%ADD31C,1.752600*%
%ADD32R,1.752600X1.752600*%
%ADD33R,0.700000X1.500000*%
%ADD34R,1.000000X0.800000*%
G04 APERTURE END LIST*
D10*
%TO.C,BT2*%
X172974000Y-82296000D03*
D11*
X172974000Y-84836000D03*
%TD*%
D12*
%TO.C,K11*%
X74235000Y-76358750D03*
D13*
X69215000Y-68738750D03*
X69215000Y-78898750D03*
D12*
X60385000Y-78898750D03*
D13*
X62865000Y-76358750D03*
X62865000Y-71278750D03*
D14*
X64135000Y-78898750D03*
X70485000Y-76358750D03*
X70485000Y-71278750D03*
D15*
X66675000Y-73818750D03*
D16*
X61595000Y-73818750D03*
D14*
X64135000Y-68738750D03*
D16*
X71755000Y-73818750D03*
%TD*%
D12*
%TO.C,K10*%
X55185000Y-78740000D03*
D13*
X50165000Y-71120000D03*
X50165000Y-81280000D03*
D12*
X41335000Y-81280000D03*
D13*
X43815000Y-78740000D03*
X43815000Y-73660000D03*
D14*
X45085000Y-81280000D03*
X51435000Y-78740000D03*
X51435000Y-73660000D03*
D15*
X47625000Y-76200000D03*
D16*
X42545000Y-76200000D03*
D14*
X45085000Y-71120000D03*
D16*
X52705000Y-76200000D03*
%TD*%
D12*
%TO.C,K31*%
X74235000Y-114458750D03*
D13*
X69215000Y-106838750D03*
X69215000Y-116998750D03*
D12*
X60385000Y-116998750D03*
D13*
X62865000Y-114458750D03*
X62865000Y-109378750D03*
D14*
X64135000Y-116998750D03*
X70485000Y-114458750D03*
X70485000Y-109378750D03*
D15*
X66675000Y-111918750D03*
D16*
X61595000Y-111918750D03*
D14*
X64135000Y-106838750D03*
D16*
X71755000Y-111918750D03*
%TD*%
D17*
%TO.C,H2*%
X135731250Y-36909375D03*
%TD*%
D18*
%TO.C,BT1*%
X155284000Y-113014000D03*
D19*
X155284000Y-111014000D03*
%TD*%
D12*
%TO.C,K24*%
X131385000Y-83502500D03*
D13*
X126365000Y-75882500D03*
X126365000Y-86042500D03*
D12*
X117535000Y-86042500D03*
D13*
X120015000Y-83502500D03*
X120015000Y-78422500D03*
D14*
X121285000Y-86042500D03*
X127635000Y-83502500D03*
X127635000Y-78422500D03*
D15*
X123825000Y-80962500D03*
D16*
X118745000Y-80962500D03*
D14*
X121285000Y-75882500D03*
D16*
X128905000Y-80962500D03*
%TD*%
D20*
%TO.C,K45*%
X154605567Y-131527054D03*
D13*
X151728820Y-122867427D03*
X149099219Y-132681234D03*
D20*
X140570094Y-130395861D03*
D13*
X144937791Y-123677378D03*
X143622990Y-128584281D03*
D16*
X152867471Y-128431731D03*
D15*
X147960568Y-127116930D03*
D14*
X152298146Y-125649579D03*
X150983345Y-130556482D03*
X146821917Y-121552626D03*
X144192316Y-131366433D03*
D16*
X143053665Y-125802129D03*
%TD*%
D12*
%TO.C,K41*%
X74235000Y-133508750D03*
D13*
X69215000Y-125888750D03*
X69215000Y-136048750D03*
D12*
X60385000Y-136048750D03*
D13*
X62865000Y-133508750D03*
X62865000Y-128428750D03*
D14*
X64135000Y-136048750D03*
X70485000Y-133508750D03*
X70485000Y-128428750D03*
D15*
X66675000Y-130968750D03*
D16*
X61595000Y-130968750D03*
D14*
X64135000Y-125888750D03*
D16*
X71755000Y-130968750D03*
%TD*%
D12*
%TO.C,K20*%
X55185000Y-97790000D03*
D13*
X50165000Y-90170000D03*
X50165000Y-100330000D03*
D12*
X41335000Y-100330000D03*
D13*
X43815000Y-97790000D03*
X43815000Y-92710000D03*
D14*
X45085000Y-100330000D03*
X51435000Y-97790000D03*
X51435000Y-92710000D03*
D15*
X47625000Y-95250000D03*
D16*
X42545000Y-95250000D03*
D14*
X45085000Y-90170000D03*
D16*
X52705000Y-95250000D03*
%TD*%
D12*
%TO.C,K21*%
X74235000Y-95408750D03*
D13*
X69215000Y-87788750D03*
X69215000Y-97948750D03*
D12*
X60385000Y-97948750D03*
D13*
X62865000Y-95408750D03*
X62865000Y-90328750D03*
D14*
X64135000Y-97948750D03*
X70485000Y-95408750D03*
X70485000Y-90328750D03*
D15*
X66675000Y-92868750D03*
D16*
X61595000Y-92868750D03*
D14*
X64135000Y-87788750D03*
D16*
X71755000Y-92868750D03*
%TD*%
D12*
%TO.C,K13*%
X112335000Y-59690000D03*
D13*
X107315000Y-52070000D03*
X107315000Y-62230000D03*
D12*
X98485000Y-62230000D03*
D13*
X100965000Y-59690000D03*
X100965000Y-54610000D03*
D14*
X102235000Y-62230000D03*
X108585000Y-59690000D03*
X108585000Y-54610000D03*
D15*
X104775000Y-57150000D03*
D16*
X99695000Y-57150000D03*
D14*
X102235000Y-52070000D03*
D16*
X109855000Y-57150000D03*
%TD*%
D21*
%TO.C,H10*%
X194066981Y-78224296D03*
%TD*%
D22*
%TO.C,K36*%
X187960000Y-121080659D03*
D13*
X187422553Y-111971545D03*
X182342553Y-120770363D03*
D22*
X174695548Y-116355363D03*
D13*
X178113291Y-115395659D03*
X180653291Y-110996249D03*
D14*
X177943143Y-118230363D03*
X184712405Y-119205659D03*
X187252405Y-114806249D03*
D15*
X182682848Y-115100954D03*
D16*
X178283439Y-112560954D03*
D14*
X183023143Y-109431545D03*
D16*
X187082257Y-117640954D03*
%TD*%
D17*
%TO.C,H1*%
X44396516Y-43963668D03*
%TD*%
D12*
%TO.C,K40*%
X55185000Y-135890000D03*
D13*
X50165000Y-128270000D03*
X50165000Y-138430000D03*
D12*
X41335000Y-138430000D03*
D13*
X43815000Y-135890000D03*
X43815000Y-130810000D03*
D14*
X45085000Y-138430000D03*
X51435000Y-135890000D03*
X51435000Y-130810000D03*
D15*
X47625000Y-133350000D03*
D16*
X42545000Y-133350000D03*
D14*
X45085000Y-128270000D03*
D16*
X52705000Y-133350000D03*
%TD*%
D12*
%TO.C,K25*%
X150435000Y-88265000D03*
D13*
X145415000Y-80645000D03*
X145415000Y-90805000D03*
D12*
X136585000Y-90805000D03*
D13*
X139065000Y-88265000D03*
X139065000Y-83185000D03*
D14*
X140335000Y-90805000D03*
X146685000Y-88265000D03*
X146685000Y-83185000D03*
D15*
X142875000Y-85725000D03*
D16*
X137795000Y-85725000D03*
D14*
X140335000Y-80645000D03*
D16*
X147955000Y-85725000D03*
%TD*%
D17*
%TO.C,H3*%
X194111215Y-108536998D03*
%TD*%
D12*
%TO.C,K7*%
X93285000Y-140652500D03*
D13*
X88265000Y-133032500D03*
X88265000Y-143192500D03*
D12*
X79435000Y-143192500D03*
D13*
X81915000Y-140652500D03*
X81915000Y-135572500D03*
D14*
X83185000Y-143192500D03*
X89535000Y-140652500D03*
X89535000Y-135572500D03*
D15*
X85725000Y-138112500D03*
D16*
X80645000Y-138112500D03*
D14*
X83185000Y-133032500D03*
D16*
X90805000Y-138112500D03*
%TD*%
D12*
%TO.C,K15*%
X150435000Y-69215000D03*
D13*
X145415000Y-61595000D03*
X145415000Y-71755000D03*
D12*
X136585000Y-71755000D03*
D13*
X139065000Y-69215000D03*
X139065000Y-64135000D03*
D14*
X140335000Y-71755000D03*
X146685000Y-69215000D03*
X146685000Y-64135000D03*
D15*
X142875000Y-66675000D03*
D16*
X137795000Y-66675000D03*
D14*
X140335000Y-61595000D03*
D16*
X147955000Y-66675000D03*
%TD*%
D12*
%TO.C,K5*%
X150435000Y-50165000D03*
D13*
X145415000Y-42545000D03*
X145415000Y-52705000D03*
D12*
X136585000Y-52705000D03*
D13*
X139065000Y-50165000D03*
X139065000Y-45085000D03*
D14*
X140335000Y-52705000D03*
X146685000Y-50165000D03*
X146685000Y-45085000D03*
D15*
X142875000Y-47625000D03*
D16*
X137795000Y-47625000D03*
D14*
X140335000Y-42545000D03*
D16*
X147955000Y-47625000D03*
%TD*%
D12*
%TO.C,K1*%
X74235000Y-57308750D03*
D13*
X69215000Y-49688750D03*
X69215000Y-59848750D03*
D12*
X60385000Y-59848750D03*
D13*
X62865000Y-57308750D03*
X62865000Y-52228750D03*
D14*
X64135000Y-59848750D03*
X70485000Y-57308750D03*
X70485000Y-52228750D03*
D15*
X66675000Y-54768750D03*
D16*
X61595000Y-54768750D03*
D14*
X64135000Y-49688750D03*
D16*
X71755000Y-54768750D03*
%TD*%
D12*
%TO.C,K0*%
X55185000Y-59690000D03*
D13*
X50165000Y-52070000D03*
X50165000Y-62230000D03*
D12*
X41335000Y-62230000D03*
D13*
X43815000Y-59690000D03*
X43815000Y-54610000D03*
D14*
X45085000Y-62230000D03*
X51435000Y-59690000D03*
X51435000Y-54610000D03*
D15*
X47625000Y-57150000D03*
D16*
X42545000Y-57150000D03*
D14*
X45085000Y-52070000D03*
D16*
X52705000Y-57150000D03*
%TD*%
D12*
%TO.C,K42*%
X93285000Y-121602500D03*
D13*
X88265000Y-113982500D03*
X88265000Y-124142500D03*
D12*
X79435000Y-124142500D03*
D13*
X81915000Y-121602500D03*
X81915000Y-116522500D03*
D14*
X83185000Y-124142500D03*
X89535000Y-121602500D03*
X89535000Y-116522500D03*
D15*
X85725000Y-119062500D03*
D16*
X80645000Y-119062500D03*
D14*
X83185000Y-113982500D03*
D16*
X90805000Y-119062500D03*
%TD*%
D12*
%TO.C,K35*%
X150435000Y-107315000D03*
D13*
X145415000Y-99695000D03*
X145415000Y-109855000D03*
D12*
X136585000Y-109855000D03*
D13*
X139065000Y-107315000D03*
X139065000Y-102235000D03*
D14*
X140335000Y-109855000D03*
X146685000Y-107315000D03*
X146685000Y-102235000D03*
D15*
X142875000Y-104775000D03*
D16*
X137795000Y-104775000D03*
D14*
X140335000Y-99695000D03*
D16*
X147955000Y-104775000D03*
%TD*%
D12*
%TO.C,K14*%
X131385000Y-64452500D03*
D13*
X126365000Y-56832500D03*
X126365000Y-66992500D03*
D12*
X117535000Y-66992500D03*
D13*
X120015000Y-64452500D03*
X120015000Y-59372500D03*
D14*
X121285000Y-66992500D03*
X127635000Y-64452500D03*
X127635000Y-59372500D03*
D15*
X123825000Y-61912500D03*
D16*
X118745000Y-61912500D03*
D14*
X121285000Y-56832500D03*
D16*
X128905000Y-61912500D03*
%TD*%
D12*
%TO.C,K22*%
X93285000Y-83502500D03*
D13*
X88265000Y-75882500D03*
X88265000Y-86042500D03*
D12*
X79435000Y-86042500D03*
D13*
X81915000Y-83502500D03*
X81915000Y-78422500D03*
D14*
X83185000Y-86042500D03*
X89535000Y-83502500D03*
X89535000Y-78422500D03*
D15*
X85725000Y-80962500D03*
D16*
X80645000Y-80962500D03*
D14*
X83185000Y-75882500D03*
D16*
X90805000Y-80962500D03*
%TD*%
D17*
%TO.C,H8*%
X164306250Y-121443750D03*
%TD*%
D12*
%TO.C,K12*%
X93285000Y-64452500D03*
D13*
X88265000Y-56832500D03*
X88265000Y-66992500D03*
D12*
X79435000Y-66992500D03*
D13*
X81915000Y-64452500D03*
X81915000Y-59372500D03*
D14*
X83185000Y-66992500D03*
X89535000Y-64452500D03*
X89535000Y-59372500D03*
D15*
X85725000Y-61912500D03*
D16*
X80645000Y-61912500D03*
D14*
X83185000Y-56832500D03*
D16*
X90805000Y-61912500D03*
%TD*%
D12*
%TO.C,K43*%
X112335000Y-133508750D03*
D13*
X107315000Y-125888750D03*
X107315000Y-136048750D03*
D12*
X98485000Y-136048750D03*
D13*
X100965000Y-133508750D03*
X100965000Y-128428750D03*
D14*
X102235000Y-136048750D03*
X108585000Y-133508750D03*
X108585000Y-128428750D03*
D15*
X104775000Y-130968750D03*
D16*
X99695000Y-130968750D03*
D14*
X102235000Y-125888750D03*
D16*
X109855000Y-130968750D03*
%TD*%
D21*
%TO.C,H7*%
X75200000Y-83343750D03*
%TD*%
D17*
%TO.C,H4*%
X61005076Y-144019868D03*
%TD*%
D21*
%TO.C,H9*%
X174831232Y-50681104D03*
%TD*%
D12*
%TO.C,K33*%
X112335000Y-97790000D03*
D13*
X107315000Y-90170000D03*
X107315000Y-100330000D03*
D12*
X98485000Y-100330000D03*
D13*
X100965000Y-97790000D03*
X100965000Y-92710000D03*
D14*
X102235000Y-100330000D03*
X108585000Y-97790000D03*
X108585000Y-92710000D03*
D15*
X104775000Y-95250000D03*
D16*
X99695000Y-95250000D03*
D14*
X102235000Y-90170000D03*
D16*
X109855000Y-95250000D03*
%TD*%
D13*
%TO.C,K26*%
X167005000Y-97472500D03*
X156845000Y-97472500D03*
D23*
X164465000Y-92452500D03*
D13*
X164465000Y-103822500D03*
X159385000Y-103822500D03*
D23*
X167005000Y-106302500D03*
D14*
X167005000Y-102552500D03*
X164465000Y-96202500D03*
D16*
X161925000Y-105092500D03*
D14*
X156845000Y-102552500D03*
D15*
X161925000Y-100012500D03*
D16*
X161925000Y-94932500D03*
D14*
X159385000Y-96202500D03*
%TD*%
D24*
%TO.C,K17*%
X183225000Y-80093750D03*
X183225000Y-86593750D03*
X178725000Y-80093750D03*
X178725000Y-86593750D03*
%TD*%
%TO.C,K47*%
X192750000Y-96762500D03*
X192750000Y-103262500D03*
X188250000Y-96762500D03*
X188250000Y-103262500D03*
%TD*%
D12*
%TO.C,K3*%
X112335000Y-40640000D03*
D13*
X107315000Y-33020000D03*
X107315000Y-43180000D03*
D12*
X98485000Y-43180000D03*
D13*
X100965000Y-40640000D03*
X100965000Y-35560000D03*
D14*
X102235000Y-43180000D03*
X108585000Y-40640000D03*
X108585000Y-35560000D03*
D15*
X104775000Y-38100000D03*
D16*
X99695000Y-38100000D03*
D14*
X102235000Y-33020000D03*
D16*
X109855000Y-38100000D03*
%TD*%
D12*
%TO.C,K34*%
X131385000Y-102552500D03*
D13*
X126365000Y-94932500D03*
X126365000Y-105092500D03*
D12*
X117535000Y-105092500D03*
D13*
X120015000Y-102552500D03*
X120015000Y-97472500D03*
D14*
X121285000Y-105092500D03*
X127635000Y-102552500D03*
X127635000Y-97472500D03*
D15*
X123825000Y-100012500D03*
D16*
X118745000Y-100012500D03*
D14*
X121285000Y-94932500D03*
D16*
X128905000Y-100012500D03*
%TD*%
D25*
%TO.C,SWbat1*%
X127047735Y-136177044D03*
X130047735Y-136177044D03*
%TD*%
D23*
%TO.C,K16*%
X164465000Y-66258750D03*
D13*
X156845000Y-71278750D03*
X167005000Y-71278750D03*
D23*
X167005000Y-80108750D03*
D13*
X159385000Y-77628750D03*
X164465000Y-77628750D03*
D16*
X161925000Y-68738750D03*
D15*
X161925000Y-73818750D03*
D14*
X159385000Y-70008750D03*
X164465000Y-70008750D03*
X156845000Y-76358750D03*
X167005000Y-76358750D03*
D16*
X161925000Y-78898750D03*
%TD*%
D21*
%TO.C,H6*%
X132350000Y-71437500D03*
%TD*%
D12*
%TO.C,K2*%
X93285000Y-45402500D03*
D13*
X88265000Y-37782500D03*
X88265000Y-47942500D03*
D12*
X79435000Y-47942500D03*
D13*
X81915000Y-45402500D03*
X81915000Y-40322500D03*
D14*
X83185000Y-47942500D03*
X89535000Y-45402500D03*
X89535000Y-40322500D03*
D15*
X85725000Y-42862500D03*
D16*
X80645000Y-42862500D03*
D14*
X83185000Y-37782500D03*
D16*
X90805000Y-42862500D03*
%TD*%
D24*
%TO.C,K37*%
X192750000Y-84856250D03*
X192750000Y-91356250D03*
X188250000Y-84856250D03*
X188250000Y-91356250D03*
%TD*%
%TO.C,K27*%
X183225000Y-92000000D03*
X183225000Y-98500000D03*
X178725000Y-92000000D03*
X178725000Y-98500000D03*
%TD*%
D12*
%TO.C,K44*%
X131385000Y-126365000D03*
D13*
X126365000Y-118745000D03*
X126365000Y-128905000D03*
D12*
X117535000Y-128905000D03*
D13*
X120015000Y-126365000D03*
X120015000Y-121285000D03*
D14*
X121285000Y-128905000D03*
X127635000Y-126365000D03*
X127635000Y-121285000D03*
D15*
X123825000Y-123825000D03*
D16*
X118745000Y-123825000D03*
D14*
X121285000Y-118745000D03*
D16*
X128905000Y-123825000D03*
%TD*%
D12*
%TO.C,K4*%
X131385000Y-45402500D03*
D13*
X126365000Y-37782500D03*
X126365000Y-47942500D03*
D12*
X117535000Y-47942500D03*
D13*
X120015000Y-45402500D03*
X120015000Y-40322500D03*
D14*
X121285000Y-47942500D03*
X127635000Y-45402500D03*
X127635000Y-40322500D03*
D15*
X123825000Y-42862500D03*
D16*
X118745000Y-42862500D03*
D14*
X121285000Y-37782500D03*
D16*
X128905000Y-42862500D03*
%TD*%
D12*
%TO.C,K23*%
X112335000Y-78740000D03*
D13*
X107315000Y-71120000D03*
X107315000Y-81280000D03*
D12*
X98485000Y-81280000D03*
D13*
X100965000Y-78740000D03*
X100965000Y-73660000D03*
D14*
X102235000Y-81280000D03*
X108585000Y-78740000D03*
X108585000Y-73660000D03*
D15*
X104775000Y-76200000D03*
D16*
X99695000Y-76200000D03*
D14*
X102235000Y-71120000D03*
D16*
X109855000Y-76200000D03*
%TD*%
D12*
%TO.C,K30*%
X55185000Y-116840000D03*
D13*
X50165000Y-109220000D03*
X50165000Y-119380000D03*
D12*
X41335000Y-119380000D03*
D13*
X43815000Y-116840000D03*
X43815000Y-111760000D03*
D14*
X45085000Y-119380000D03*
X51435000Y-116840000D03*
X51435000Y-111760000D03*
D15*
X47625000Y-114300000D03*
D16*
X42545000Y-114300000D03*
D14*
X45085000Y-109220000D03*
D16*
X52705000Y-114300000D03*
%TD*%
D13*
%TO.C,K46*%
X176446007Y-136063479D03*
X167647189Y-130983479D03*
D26*
X176756303Y-130446032D03*
D13*
X171071303Y-140292741D03*
X166671893Y-137752741D03*
D26*
X172031007Y-143710484D03*
D14*
X173906007Y-140462889D03*
X174881303Y-133693627D03*
D16*
X168236598Y-140122593D03*
D14*
X165107189Y-135382889D03*
D15*
X170776598Y-135723184D03*
D16*
X173316598Y-131323775D03*
D14*
X170481893Y-131153627D03*
%TD*%
D12*
%TO.C,K32*%
X93285000Y-102552500D03*
D13*
X88265000Y-94932500D03*
X88265000Y-105092500D03*
D12*
X79435000Y-105092500D03*
D13*
X81915000Y-102552500D03*
X81915000Y-97472500D03*
D14*
X83185000Y-105092500D03*
X89535000Y-102552500D03*
X89535000Y-97472500D03*
D15*
X85725000Y-100012500D03*
D16*
X80645000Y-100012500D03*
D14*
X83185000Y-94932500D03*
D16*
X90805000Y-100012500D03*
%TD*%
D23*
%TO.C,K6*%
X164465000Y-42446250D03*
D13*
X156845000Y-47466250D03*
X167005000Y-47466250D03*
D23*
X167005000Y-56296250D03*
D13*
X159385000Y-53816250D03*
X164465000Y-53816250D03*
D16*
X161925000Y-44926250D03*
D15*
X161925000Y-50006250D03*
D14*
X159385000Y-46196250D03*
X164465000Y-46196250D03*
X156845000Y-52546250D03*
X167005000Y-52546250D03*
D16*
X161925000Y-55086250D03*
%TD*%
D17*
%TO.C,H5*%
X111918750Y-111918750D03*
%TD*%
D27*
%TO.C,JPc4b1*%
X191883750Y-66913125D03*
D28*
X190433750Y-66913125D03*
%TD*%
D27*
%TO.C,JPc0b1*%
X191883750Y-56753125D03*
D28*
X190433750Y-56753125D03*
%TD*%
D27*
%TO.C,JPbat+b0*%
X191987000Y-44053125D03*
D28*
X190537000Y-44053125D03*
%TD*%
D29*
%TO.C,JPr1b1*%
X180744750Y-64373125D03*
D30*
X182194750Y-64373125D03*
%TD*%
D27*
%TO.C,JPc6b1*%
X191883750Y-71993125D03*
D28*
X190433750Y-71993125D03*
%TD*%
D31*
%TO.C,U1*%
X178675750Y-44053125D03*
X193915750Y-71993125D03*
X178675750Y-46593125D03*
X178675750Y-49133125D03*
X178675750Y-51673125D03*
X178675750Y-54213125D03*
X178675750Y-56753125D03*
X178675750Y-59293125D03*
X178675750Y-61833125D03*
X178675750Y-64373125D03*
X178675750Y-66913125D03*
X178675750Y-69453125D03*
X178675750Y-71993125D03*
X193915750Y-69453125D03*
X193915750Y-66913125D03*
X193915750Y-64373125D03*
X193915750Y-61833125D03*
X193915750Y-59293125D03*
X193915750Y-56753125D03*
X193915750Y-54213125D03*
X193915750Y-51673125D03*
X193915750Y-49133125D03*
X193915750Y-46593125D03*
D32*
X193915750Y-44053125D03*
%TD*%
D33*
%TO.C,SWbat2*%
X126298000Y-134417000D03*
X127798000Y-134417000D03*
X130798000Y-134417000D03*
D25*
X130048000Y-136177000D03*
X127048000Y-136177000D03*
D34*
X132198000Y-135067000D03*
X124898000Y-137277000D03*
X132198000Y-137277000D03*
X124898000Y-135067000D03*
%TD*%
D29*
%TO.C,JPr0b1*%
X180744750Y-61833125D03*
D30*
X182194750Y-61833125D03*
%TD*%
D29*
%TO.C,JPr3b1*%
X180781750Y-69453125D03*
D30*
X182231750Y-69453125D03*
%TD*%
D28*
%TO.C,JPresb0*%
X190396750Y-49133125D03*
D27*
X191846750Y-49133125D03*
%TD*%
%TO.C,JPc5b1*%
X191883750Y-69453125D03*
D28*
X190433750Y-69453125D03*
%TD*%
D29*
%TO.C,JPr2b1*%
X180781750Y-66913125D03*
D30*
X182231750Y-66913125D03*
%TD*%
D27*
%TO.C,JPc2b1*%
X191883750Y-61833125D03*
D28*
X190433750Y-61833125D03*
%TD*%
D29*
%TO.C,JPr4b1*%
X180744750Y-71993125D03*
D30*
X182194750Y-71993125D03*
%TD*%
D28*
%TO.C,JPgndb0*%
X190396750Y-46593125D03*
D27*
X191846750Y-46593125D03*
%TD*%
%TO.C,JPc3b1*%
X191846750Y-64373125D03*
D28*
X190396750Y-64373125D03*
%TD*%
D24*
%TO.C,SW1*%
X158675000Y-34834000D03*
X165175000Y-34834000D03*
X158675000Y-39334000D03*
X165175000Y-39334000D03*
%TD*%
D27*
%TO.C,JPc1b1*%
X191883750Y-59293125D03*
D28*
X190433750Y-59293125D03*
%TD*%
D29*
%TO.C,JPc7b1*%
X180829375Y-59293125D03*
D30*
X182279375Y-59293125D03*
%TD*%
M02*
