M48
; DRILL file {KiCad 6.0.4} date Mi 20 Apr 2022 09:09:22 CEST
; FORMAT={-:-/ absolute / inch / decimal}
; #@! TF.CreationDate,2022-04-20T09:09:22+02:00
; #@! TF.GenerationSoftware,Kicad,Pcbnew,6.0.4
; #@! TF.FileFunction,MixedPlating,1,2
FMAT,2
INCH
; #@! TA.AperFunction,Plated,PTH,ViaDrill
T1C0.0157
; #@! TA.AperFunction,Plated,PTH,ComponentDrill
T2C0.0295
; #@! TA.AperFunction,Plated,PTH,ComponentDrill
T3C0.0394
; #@! TA.AperFunction,Plated,PTH,ComponentDrill
T4C0.0430
; #@! TA.AperFunction,Plated,PTH,ComponentDrill
T5C0.0433
; #@! TA.AperFunction,Plated,PTH,ComponentDrill
T6C0.0590
; #@! TA.AperFunction,NonPlated,NPTH,ComponentDrill
T7C0.0354
; #@! TA.AperFunction,NonPlated,NPTH,ComponentDrill
T8C0.0670
; #@! TA.AperFunction,NonPlated,NPTH,ComponentDrill
T9C0.0866
; #@! TA.AperFunction,NonPlated,NPTH,ComponentDrill
T10C0.1181
; #@! TA.AperFunction,NonPlated,NPTH,ComponentDrill
T11C0.1260
; #@! TA.AperFunction,NonPlated,NPTH,ComponentDrill
T12C0.1570
%
G90
G05
T1
X1.875Y-2.625
X1.875Y-3.375
X1.875Y-4.125
X1.875Y-4.875
X2.2969Y-2.1562
X2.625Y-2.5312
X2.63Y-2.29
X2.87Y-3.13
X2.94Y-2.9
X3.0469Y-2.0156
X3.375Y-2.0625
X3.375Y-5.0625
X4.125Y-1.875
X4.125Y-2.625
X4.48Y-5.44
X4.7344Y-5.25
X4.875Y-2.1094
X4.9724Y-5.292
X5.09Y-5.23
X5.31Y-4.77
X5.36Y-4.78
X5.5312Y-4.875
X5.625Y-2.2969
X5.78Y-4.57
X5.79Y-5.15
X6.02Y-4.37
X6.04Y-4.34
X6.19Y-4.34
X6.19Y-4.4
X6.21Y-4.37
X6.25Y-4.68
X6.3281Y-1.4531
X6.375Y-1.4531
X6.375Y-2.4844
X6.375Y-3.1875
X6.4219Y-1.4531
X6.62Y-1.46
X6.66Y-1.5
X6.7Y-1.54
X6.7031Y-2.2031
X6.7031Y-4.6406
X6.71Y-4.4
X6.74Y-1.58
X6.74Y-3.24
X6.75Y-3.18
X6.76Y-4.42
X6.78Y-1.62
X6.79Y-4.32
X6.81Y-3.17
X6.82Y-1.66
X6.82Y-4.36
X6.8438Y-3.75
X6.8438Y-4.9219
X6.8527Y-4.0827
X6.87Y-3.18
X6.87Y-3.91
X6.88Y-3.24
X6.93Y-4.11
X6.9375Y-1.7344
X6.97Y-2.25
X7.1Y-2.97
X7.15Y-3.95
X7.16Y-3.25
X7.16Y-3.52
X7.2188Y-5.0625
X7.2245Y-1.7344
X7.2245Y-1.8344
X7.2245Y-1.9344
X7.2245Y-2.1844
X7.2395Y-2.2694
X7.2588Y-2.3486
X7.2656Y-2.0156
X7.2656Y-2.0625
X7.2656Y-2.1094
X7.2745Y-2.8644
X7.2787Y-2.4286
X7.2988Y-2.5086
X7.31Y-1.67
X7.3125Y-2.0156
X7.3125Y-2.0625
X7.3125Y-2.1094
X7.3125Y-3.0469
X7.3125Y-3.5156
X7.3137Y-2.5936
X7.32Y-3.97
X7.3237Y-2.6836
X7.3594Y-2.0156
X7.3594Y-2.0625
X7.3594Y-2.1094
X7.37Y-1.67
X7.4062Y-2.0156
X7.4062Y-2.0625
X7.4062Y-2.1094
X7.4345Y-2.5344
X7.4345Y-2.6344
X7.4345Y-2.7344
X7.4345Y-2.8344
X7.4354Y-2.4335
X7.4478Y-2.3344
X7.4531Y-3.1875
X7.51Y-3.74
X7.54Y-3.18
X7.54Y-3.46
X7.62Y-3.46
X7.62Y-3.71
X7.63Y-3.94
X7.69Y-2.93
T2
X6.1135Y-4.3706
X6.1135Y-4.4494
T3
X6.81Y-3.24
X6.81Y-3.34
T4
X7.0345Y-1.7344
X7.0345Y-1.8344
X7.0345Y-1.9344
X7.0345Y-2.0344
X7.0345Y-2.1344
X7.0345Y-2.2344
X7.0345Y-2.3344
X7.0345Y-2.4344
X7.0345Y-2.5344
X7.0345Y-2.6344
X7.0345Y-2.7344
X7.0345Y-2.8344
X7.6345Y-1.7344
X7.6345Y-1.8344
X7.6345Y-1.9344
X7.6345Y-2.0344
X7.6345Y-2.1344
X7.6345Y-2.2344
X7.6345Y-2.3344
X7.6345Y-2.4344
X7.6345Y-2.5344
X7.6345Y-2.6344
X7.6345Y-2.7344
X7.6345Y-2.8344
T5
X6.247Y-1.3714
X6.247Y-1.5486
X6.503Y-1.3714
X6.503Y-1.5486
X7.0364Y-3.1533
X7.0364Y-3.4092
X7.0364Y-3.622
X7.0364Y-3.878
X7.2136Y-3.1533
X7.2136Y-3.4092
X7.2136Y-3.622
X7.2136Y-3.878
X7.4114Y-3.3408
X7.4114Y-3.5967
X7.4114Y-3.8095
X7.4114Y-4.0655
X7.5886Y-3.3408
X7.5886Y-3.5967
X7.5886Y-3.8095
X7.5886Y-4.0655
T6
X1.725Y-2.15
X1.725Y-2.35
X1.725Y-2.9
X1.725Y-3.1
X1.725Y-3.65
X1.725Y-3.85
X1.725Y-4.4
X1.725Y-4.6
X1.725Y-5.15
X1.725Y-5.35
X1.975Y-2.05
X1.975Y-2.45
X1.975Y-2.8
X1.975Y-3.2
X1.975Y-3.55
X1.975Y-3.95
X1.975Y-4.3
X1.975Y-4.7
X1.975Y-5.05
X1.975Y-5.45
X2.475Y-2.0562
X2.475Y-2.2563
X2.475Y-2.8062
X2.475Y-3.0063
X2.475Y-3.5562
X2.475Y-3.7563
X2.475Y-4.3062
X2.475Y-4.5062
X2.475Y-5.0562
X2.475Y-5.2562
X2.725Y-1.9563
X2.725Y-2.3562
X2.725Y-2.7062
X2.725Y-3.1062
X2.725Y-3.4562
X2.725Y-3.8562
X2.725Y-4.2062
X2.725Y-4.6063
X2.725Y-4.9562
X2.725Y-5.3563
X3.225Y-1.5875
X3.225Y-1.7875
X3.225Y-2.3375
X3.225Y-2.5375
X3.225Y-3.0875
X3.225Y-3.2875
X3.225Y-3.8375
X3.225Y-4.0375
X3.225Y-4.5875
X3.225Y-4.7875
X3.225Y-5.3375
X3.225Y-5.5375
X3.475Y-1.4875
X3.475Y-1.8875
X3.475Y-2.2375
X3.475Y-2.6375
X3.475Y-2.9875
X3.475Y-3.3875
X3.475Y-3.7375
X3.475Y-4.1375
X3.475Y-4.4875
X3.475Y-4.8875
X3.475Y-5.2375
X3.475Y-5.6375
X3.975Y-1.4
X3.975Y-1.6
X3.975Y-2.15
X3.975Y-2.35
X3.975Y-2.9
X3.975Y-3.1
X3.975Y-3.65
X3.975Y-3.85
X3.975Y-5.0562
X3.975Y-5.2562
X4.225Y-1.3
X4.225Y-1.7
X4.225Y-2.05
X4.225Y-2.45
X4.225Y-2.8
X4.225Y-3.2
X4.225Y-3.55
X4.225Y-3.95
X4.225Y-4.9562
X4.225Y-5.3563
X4.725Y-1.5875
X4.725Y-1.7875
X4.725Y-2.3375
X4.725Y-2.5375
X4.725Y-3.0875
X4.725Y-3.2875
X4.725Y-3.8375
X4.725Y-4.0375
X4.725Y-4.775
X4.725Y-4.975
X4.975Y-1.4875
X4.975Y-1.8875
X4.975Y-2.2375
X4.975Y-2.6375
X4.975Y-2.9875
X4.975Y-3.3875
X4.975Y-3.7375
X4.975Y-4.1375
X4.975Y-4.675
X4.975Y-5.075
X5.475Y-1.775
X5.475Y-1.975
X5.475Y-2.525
X5.475Y-2.725
X5.475Y-3.275
X5.475Y-3.475
X5.475Y-4.025
X5.475Y-4.225
X5.6544Y-5.0624
X5.7062Y-4.8692
X5.725Y-1.675
X5.725Y-2.075
X5.725Y-2.425
X5.725Y-2.825
X5.725Y-3.175
X5.725Y-3.575
X5.725Y-3.925
X5.725Y-4.325
X5.87Y-5.2237
X5.9736Y-4.8373
X6.175Y-1.8687
X6.175Y-2.8062
X6.175Y-3.8375
X6.275Y-2.1187
X6.275Y-3.0562
X6.275Y-4.0875
X6.475Y-2.1187
X6.475Y-3.0562
X6.475Y-4.0875
X6.5619Y-5.4233
X6.575Y-1.8687
X6.575Y-2.8062
X6.575Y-3.8375
X6.6003Y-5.1568
X6.7351Y-5.5233
X6.9467Y-5.3568
X7.0123Y-4.5431
X7.1123Y-4.3699
X7.1788Y-4.7547
X7.3788Y-4.4083
T7
X5.0019Y-5.3613
X5.0019Y-5.3613
X5.12Y-5.3613
X5.12Y-5.3613
T8
X1.675Y-2.25
X1.675Y-3.0
X1.675Y-3.75
X1.675Y-4.5
X1.675Y-5.25
X2.075Y-2.25
X2.075Y-3.0
X2.075Y-3.75
X2.075Y-4.5
X2.075Y-5.25
X2.425Y-2.1562
X2.425Y-2.9062
X2.425Y-3.6562
X2.425Y-4.4062
X2.425Y-5.1562
X2.825Y-2.1562
X2.825Y-2.9062
X2.825Y-3.6562
X2.825Y-4.4062
X2.825Y-5.1562
X3.175Y-1.6875
X3.175Y-2.4375
X3.175Y-3.1875
X3.175Y-3.9375
X3.175Y-4.6875
X3.175Y-5.4375
X3.575Y-1.6875
X3.575Y-2.4375
X3.575Y-3.1875
X3.575Y-3.9375
X3.575Y-4.6875
X3.575Y-5.4375
X3.925Y-1.5
X3.925Y-2.25
X3.925Y-3.0
X3.925Y-3.75
X3.925Y-5.1562
X4.325Y-1.5
X4.325Y-2.25
X4.325Y-3.0
X4.325Y-3.75
X4.325Y-5.1562
X4.675Y-1.6875
X4.675Y-2.4375
X4.675Y-3.1875
X4.675Y-3.9375
X4.675Y-4.875
X5.075Y-1.6875
X5.075Y-2.4375
X5.075Y-3.1875
X5.075Y-3.9375
X5.075Y-4.875
X5.425Y-1.875
X5.425Y-2.625
X5.425Y-3.375
X5.425Y-4.125
X5.632Y-4.9528
X5.825Y-1.875
X5.825Y-2.625
X5.825Y-3.375
X5.825Y-4.125
X6.0184Y-5.0564
X6.375Y-1.7688
X6.375Y-2.1687
X6.375Y-2.7062
X6.375Y-3.1062
X6.375Y-3.7375
X6.375Y-4.1375
X6.6235Y-5.5166
X6.8235Y-5.1702
X7.019Y-4.4315
X7.3654Y-4.6315
T9
X2.9606Y-3.2812
X5.2106Y-2.8125
X6.8831Y-1.9953
X7.6404Y-3.0797
T10
X1.775Y-2.05
X1.775Y-2.45
X1.775Y-2.8
X1.775Y-3.2
X1.775Y-3.55
X1.775Y-3.95
X1.775Y-4.3
X1.775Y-4.7
X1.775Y-5.05
X1.775Y-5.45
X2.025Y-2.15
X2.025Y-2.35
X2.025Y-2.9
X2.025Y-3.1
X2.025Y-3.65
X2.025Y-3.85
X2.025Y-4.4
X2.025Y-4.6
X2.025Y-5.15
X2.025Y-5.35
X2.525Y-1.9563
X2.525Y-2.3562
X2.525Y-2.7062
X2.525Y-3.1062
X2.525Y-3.4562
X2.525Y-3.8562
X2.525Y-4.2062
X2.525Y-4.6063
X2.525Y-4.9562
X2.525Y-5.3563
X2.775Y-2.0562
X2.775Y-2.2563
X2.775Y-2.8062
X2.775Y-3.0063
X2.775Y-3.5562
X2.775Y-3.7563
X2.775Y-4.3062
X2.775Y-4.5062
X2.775Y-5.0562
X2.775Y-5.2562
X3.275Y-1.4875
X3.275Y-1.8875
X3.275Y-2.2375
X3.275Y-2.6375
X3.275Y-2.9875
X3.275Y-3.3875
X3.275Y-3.7375
X3.275Y-4.1375
X3.275Y-4.4875
X3.275Y-4.8875
X3.275Y-5.2375
X3.275Y-5.6375
X3.525Y-1.5875
X3.525Y-1.7875
X3.525Y-2.3375
X3.525Y-2.5375
X3.525Y-3.0875
X3.525Y-3.2875
X3.525Y-3.8375
X3.525Y-4.0375
X3.525Y-4.5875
X3.525Y-4.7875
X3.525Y-5.3375
X3.525Y-5.5375
X4.025Y-1.3
X4.025Y-1.7
X4.025Y-2.05
X4.025Y-2.45
X4.025Y-2.8
X4.025Y-3.2
X4.025Y-3.55
X4.025Y-3.95
X4.025Y-4.9562
X4.025Y-5.3563
X4.275Y-1.4
X4.275Y-1.6
X4.275Y-2.15
X4.275Y-2.35
X4.275Y-2.9
X4.275Y-3.1
X4.275Y-3.65
X4.275Y-3.85
X4.275Y-5.0562
X4.275Y-5.2562
X4.775Y-1.4875
X4.775Y-1.8875
X4.775Y-2.2375
X4.775Y-2.6375
X4.775Y-2.9875
X4.775Y-3.3875
X4.775Y-3.7375
X4.775Y-4.1375
X4.775Y-4.675
X4.775Y-5.075
X5.025Y-1.5875
X5.025Y-1.7875
X5.025Y-2.3375
X5.025Y-2.5375
X5.025Y-3.0875
X5.025Y-3.2875
X5.025Y-3.8375
X5.025Y-4.0375
X5.025Y-4.775
X5.025Y-4.975
X5.525Y-1.675
X5.525Y-2.075
X5.525Y-2.425
X5.525Y-2.825
X5.525Y-3.175
X5.525Y-3.575
X5.525Y-3.925
X5.525Y-4.325
X5.6769Y-5.1719
X5.775Y-1.775
X5.775Y-1.975
X5.775Y-2.525
X5.775Y-2.725
X5.775Y-3.275
X5.775Y-3.475
X5.775Y-4.025
X5.775Y-4.225
X5.7804Y-4.7855
X5.9442Y-5.14
X5.996Y-4.9468
X6.175Y-2.0688
X6.175Y-3.0063
X6.175Y-4.0375
X6.275Y-1.8187
X6.275Y-2.7563
X6.275Y-3.7875
X6.475Y-1.8187
X6.475Y-2.7563
X6.475Y-3.7875
X6.5003Y-5.33
X6.575Y-2.0688
X6.575Y-3.0063
X6.575Y-4.0375
X6.7119Y-5.1635
X6.8467Y-5.53
X6.8851Y-5.2635
X7.0056Y-4.6547
X7.2056Y-4.3083
X7.2721Y-4.6931
X7.3721Y-4.5199
T11
X1.7479Y-1.7309
X2.4018Y-5.6701
X4.4062Y-4.4062
X5.3438Y-1.4531
X6.4688Y-4.7812
X7.6422Y-4.2731
T12
X1.875Y-2.25
X1.875Y-3.0
X1.875Y-3.75
X1.875Y-4.5
X1.875Y-5.25
X2.625Y-2.1562
X2.625Y-2.9062
X2.625Y-3.6562
X2.625Y-4.4062
X2.625Y-5.1562
X3.375Y-1.6875
X3.375Y-2.4375
X3.375Y-3.1875
X3.375Y-3.9375
X3.375Y-4.6875
X3.375Y-5.4375
X4.125Y-1.5
X4.125Y-2.25
X4.125Y-3.0
X4.125Y-3.75
X4.125Y-5.1562
X4.875Y-1.6875
X4.875Y-2.4375
X4.875Y-3.1875
X4.875Y-3.9375
X4.875Y-4.875
X5.625Y-1.875
X5.625Y-2.625
X5.625Y-3.375
X5.625Y-4.125
X5.8252Y-5.0046
X6.375Y-1.9688
X6.375Y-2.9062
X6.375Y-3.9375
X6.7235Y-5.3434
X7.1922Y-4.5315
T0
M30
