<?xml version="1.0" standalone="no"?>
 <!DOCTYPE svg PUBLIC "-//W3C//DTD SVG 1.1//EN" 
 "http://www.w3.org/Graphics/SVG/1.1/DTD/svg11.dtd"> 
<svg
  xmlns:svg="http://www.w3.org/2000/svg"
  xmlns="http://www.w3.org/2000/svg"
  xmlns:xlink="http://www.w3.org/1999/xlink"
  version="1.1"
  width="14.267180cm" height="9.420860cm" viewBox="0 0 142671800 94208600">
<title>SVG Picture created as mykeeb-Edge_Cuts.svg date 2022/04/30 18:38:57 </title>
  <desc>Picture generated by PCBNEW </desc>
<g style="fill:#000000; fill-opacity:1.000000;stroke:#000000; stroke-opacity:1.000000;
stroke-linecap:round; stroke-linejoin:round;"
 transform="translate(0 0) scale(1 1)">
</g>
<g style="fill:#000000; fill-opacity:0.0; 
stroke:#000000; stroke-width:0.000000; stroke-opacity:1; 
stroke-linecap:round; stroke-linejoin:round;">
</g>
<g style="fill:#000000; fill-opacity:0.0; 
stroke:#000000; stroke-width:100000.000000; stroke-opacity:1; 
stroke-linecap:round; stroke-linejoin:round;">
<path style="fill:#000000; fill-opacity:0.0; 
stroke:#000000; stroke-width:100000.000000; stroke-opacity:1; 
stroke-linecap:round; stroke-linejoin:round;fill:none"
d="M 83418732.000000,7218732.000000
97706244.000000,7218732.000000
100087496.000000,4837480.000000
109612504.000000,4837480.000000
110207817.000000,5432793.000000
120923451.000000,5432793.000000
123900016.000000,8409358.000000
123900016.000000,11385923.000000
126876581.000000,14362488.000000
132829814.000000,14362529.000000
134615753.000000,16148468.000000
134615753.000000,26268789.000000
136401692.000000,28054728.000000
138782944.000000,28054728.000000
141759406.000000,31031293.000000
141759406.000000,46509390.000000
138782841.000000,49485955.000000
136401589.000000,49485955.000000
134615650.000000,51271894.000000
134615650.000000,78656292.000000
132234398.000000,81037544.000000
119137512.000000,81037544.000000
114375008.000000,85800048.000000
95324992.000000,85800048.000000
92943740.000000,83418796.000000
77465602.000000,83418796.000000
73893724.000000,79846918.000000
58415586.000000,79846918.000000
56034334.000000,82228170.000000
50081204.000000,82228170.000000
47699952.000000,84609422.000000
47699952.000000,88181300.000000
44128074.000000,91753178.000000
40556196.000000,91753178.000000
38174944.000000,94134430.000000
1265538.000000,94134430.000000
74912.000000,92943804.000000
74912.000000,19124992.000000
1265538.000000,17934366.000000
25078058.000000,17934366.000000
28649936.000000,14362488.000000
28649936.000000,11981236.000000
32221814.000000,8409358.000000
35793692.000000,8409358.000000
38174944.000000,6028106.000000
51271830.000000,6028106.000000
57224960.000000,74976.000000
76274976.000000,74976.000000
Z" /> 
<g >
</g>
<g >
</g>
<g >
</g>
<g >
</g>
<g >
</g>
<g >
</g>
<g >
</g>
<g >
</g>
<g >
</g>
<g >
</g>
<g >
</g>
<g >
</g>
<g >
</g>
<g >
</g>
<g >
</g>
<g >
</g>
<g >
</g>
<g >
</g>
<g >
</g>
<g >
</g>
<g >
</g>
<g >
</g>
<g >
</g>
<g >
</g>
<g >
</g>
<g >
</g>
<g >
</g>
<g >
</g>
<g >
</g>
<g >
</g>
<g >
</g>
<g >
</g>
<g >
</g>
<g >
</g>
<g >
</g>
<g >
</g>
<g >
</g>
<g >
</g>
<g >
</g>
<g >
</g>
<g >
</g>
<g >
</g>
<g >
</g>
<g >
</g>
<g >
</g>
<g >
</g>
<g >
</g>
<g >
</g>
<g >
</g>
<g >
</g>
<g >
</g>
<g >
</g>
<g >
</g>
<g >
</g>
<g >
</g>
<g >
</g>
<g >
</g>
<g >
</g>
<g >
</g>
<g >
</g>
<g >
</g>
<g >
</g>
<g >
</g>
<g >
</g>
<g >
</g>
<g >
</g>
<g >
</g>
<g >
</g>
</g> 
</svg>
