<?xml version="1.0" standalone="no"?>
 <!DOCTYPE svg PUBLIC "-//W3C//DTD SVG 1.1//EN" 
 "http://www.w3.org/Graphics/SVG/1.1/DTD/svg11.dtd"> 
<svg
  xmlns:svg="http://www.w3.org/2000/svg"
  xmlns="http://www.w3.org/2000/svg"
  xmlns:xlink="http://www.w3.org/1999/xlink"
  version="1.1"
  width="14.267180cm" height="9.420860cm" viewBox="0 0 142671800 94208600">
<title>SVG Picture created as mykeeb-Nutzer_9.svg date 2022/04/30 18:38:57 </title>
  <desc>Picture generated by PCBNEW </desc>
<g style="fill:#000000; fill-opacity:1.000000;stroke:#000000; stroke-opacity:1.000000;
stroke-linecap:round; stroke-linejoin:round;"
 transform="translate(0 0) scale(1 1)">
</g>
<g style="fill:#000000; fill-opacity:0.0; 
stroke:#000000; stroke-width:0.000000; stroke-opacity:1; 
stroke-linecap:round; stroke-linejoin:round;">
</g>
<g style="fill:#000000; fill-opacity:0.0; 
stroke:#000000; stroke-width:150000.000000; stroke-opacity:1; 
stroke-linecap:round; stroke-linejoin:round;">
<path d="M56034437 20315659
L58415689 20315659
" />
<path d="M58415689 20315659
L58415689 22696911
" />
<path d="M58415689 22696911
L56034437 22696911
" />
<path d="M56034437 22696911
L56034437 20315659
" />
<path d="M94134469 40556301
L96515721 40556301
" />
<path d="M96515721 40556301
L96515721 42937553
" />
<path d="M96515721 42937553
L94134469 42937553
" />
<path d="M94134469 42937553
L94134469 40556301
" />
<path d="M56034437 39365675
L58415689 39365675
" />
<path d="M58415689 39365675
L58415689 41746927
" />
<path d="M58415689 41746927
L56034437 41746927
" />
<path d="M56034437 41746927
L56034437 39365675
" />
<path d="M94134469 21506285
L96515721 21506285
" />
<path d="M96515721 21506285
L96515721 23887537
" />
<path d="M96515721 23887537
L94134469 23887537
" />
<path d="M94134469 23887537
L94134469 21506285
" />
<path style="fill:#000000; fill-opacity:0.0; 
stroke:#000000; stroke-width:150000.000000; stroke-opacity:1; 
stroke-linecap:round; stroke-linejoin:round;fill:none"
d="M 83418835.000000,7218773.000000
97706347.000000,7218773.000000
100087599.000000,4837521.000000
109612607.000000,4837521.000000
110207920.000000,5432834.000000
120923554.000000,5432834.000000
123900119.000000,8409399.000000
123900119.000000,11385964.000000
126876684.000000,14362529.000000
133425127.000000,14362529.000000
135211066.000000,16148468.000000
135211066.000000,25078163.000000
141759509.000000,31626606.000000
141759509.000000,46509431.000000
138782944.000000,49485996.000000
136401692.000000,49485996.000000
134615753.000000,51271935.000000
134615753.000000,78656333.000000
132234501.000000,81037585.000000
119137615.000000,81037585.000000
114375111.000000,85800089.000000
95325095.000000,85800089.000000
92943843.000000,83418837.000000
77465705.000000,83418837.000000
73893827.000000,79846959.000000
58415689.000000,79846959.000000
56034437.000000,82228211.000000
50081307.000000,82228211.000000
47700055.000000,84609463.000000
47700055.000000,88181341.000000
44128177.000000,91753219.000000
40556299.000000,91753219.000000
38175047.000000,94134471.000000
1265641.000000,94134471.000000
75015.000000,92943845.000000
75015.000000,19125033.000000
1265641.000000,17934407.000000
25078161.000000,17934407.000000
28650039.000000,14362529.000000
28650039.000000,11981277.000000
32221917.000000,8409399.000000
35793795.000000,8409399.000000
38175047.000000,6028147.000000
51271933.000000,6028147.000000
57225063.000000,75017.000000
76275079.000000,75017.000000
Z" /> 
<g >
</g>
<g >
</g>
<g >
</g>
<g >
</g>
<g >
</g>
<g >
</g>
<g >
</g>
<g >
</g>
<g >
</g>
<g >
</g>
<g >
</g>
<g >
</g>
<g >
</g>
<g >
</g>
<g >
</g>
<g >
</g>
<g >
</g>
<g >
</g>
<g >
</g>
<g >
</g>
<g >
</g>
<g >
</g>
<g >
</g>
<g >
</g>
<g >
</g>
<g >
</g>
<g >
</g>
<g >
</g>
<g >
</g>
<g >
</g>
<g >
</g>
<g >
</g>
<g >
</g>
<g >
</g>
<g >
</g>
<g >
</g>
<g >
</g>
<g >
</g>
<g >
</g>
<g >
</g>
<g >
</g>
<g >
</g>
<g >
</g>
<g >
</g>
<g >
</g>
<g >
</g>
<g >
</g>
<g >
</g>
<g >
</g>
<g >
</g>
<g >
</g>
<g >
</g>
<g >
</g>
<g >
</g>
<g >
</g>
<g >
</g>
<g >
</g>
<g >
</g>
<g >
</g>
<g >
</g>
<g >
</g>
<g >
</g>
<g >
</g>
<g >
</g>
<g >
</g>
<g >
</g>
<g >
</g>
<g >
</g>
</g> 
</svg>
