G04 #@! TF.GenerationSoftware,KiCad,Pcbnew,7.0.2*
G04 #@! TF.CreationDate,2023-05-17T12:31:55+02:00*
G04 #@! TF.ProjectId,mykeeb_v7a2_left,6d796b65-6562-45f7-9637-61325f6c6566,rev?*
G04 #@! TF.SameCoordinates,Original*
G04 #@! TF.FileFunction,Profile,NP*
%FSLAX46Y46*%
G04 Gerber Fmt 4.6, Leading zero omitted, Abs format (unit mm)*
G04 Created by KiCad (PCBNEW 7.0.2) date 2023-05-17 12:31:55*
%MOMM*%
%LPD*%
G01*
G04 APERTURE LIST*
G04 #@! TA.AperFunction,Profile*
%ADD10C,0.100000*%
G04 #@! TD*
G04 #@! TA.AperFunction,Profile*
%ADD11C,0.160000*%
G04 #@! TD*
%ADD12C,0.160000*%
G04 #@! TA.AperFunction,Profile*
%ADD13C,0.120000*%
G04 #@! TD*
G04 APERTURE END LIST*
D10*
X165497014Y-153590754D02*
X175022022Y-153590754D01*
X96440753Y-149423563D02*
X58340815Y-149423563D01*
D11*
X88167469Y-218067852D02*
G75*
G03*
X85725119Y-221456436I1129423J-3388505D01*
G01*
X204053000Y-236246339D02*
X201485516Y-239184630D01*
X123262574Y-220925477D02*
G75*
G03*
X124487686Y-216024944I-1837822J3062850D01*
G01*
X47625136Y-227409583D02*
G75*
G03*
X51197013Y-230981413I3571856J26D01*
G01*
X47625135Y-227409583D02*
X47625040Y-160139197D01*
D12*
X155905444Y-240372587D02*
X156232409Y-240505663D01*
X156561973Y-240644262D01*
X156893828Y-240788091D01*
X157227664Y-240936862D01*
X157563173Y-241090282D01*
X157900045Y-241248062D01*
X158237972Y-241409910D01*
X158576644Y-241575537D01*
X158915754Y-241744651D01*
X159254991Y-241916963D01*
X159594047Y-242092180D01*
X159932613Y-242270013D01*
X160270380Y-242450172D01*
X160607039Y-242632364D01*
X160942281Y-242816301D01*
X161275798Y-243001691D01*
X161607280Y-243188243D01*
X161936418Y-243375667D01*
X162262904Y-243563673D01*
X162586429Y-243751970D01*
X162906683Y-243940266D01*
X163223357Y-244128272D01*
X163536144Y-244315697D01*
X163844733Y-244502250D01*
X164148816Y-244687641D01*
X164448084Y-244871579D01*
X164742229Y-245053774D01*
X165030940Y-245233934D01*
X165313909Y-245411769D01*
X165590828Y-245586989D01*
X165861387Y-245759302D01*
X166125278Y-245928420D01*
X145586944Y-238388087D02*
X145947135Y-238407302D01*
X146302347Y-238427825D01*
X146652835Y-238449802D01*
X146998853Y-238473378D01*
X147340655Y-238498699D01*
X147678495Y-238525909D01*
X148012629Y-238555154D01*
X148343311Y-238586579D01*
X148670794Y-238620329D01*
X148995334Y-238656550D01*
X149317185Y-238695387D01*
X149636601Y-238736986D01*
X149953837Y-238781491D01*
X150269146Y-238829048D01*
X150582785Y-238879802D01*
X150895006Y-238933899D01*
X151206065Y-238991484D01*
X151516216Y-239052701D01*
X151825712Y-239117697D01*
X152134810Y-239186617D01*
X152443763Y-239259605D01*
X152752825Y-239336808D01*
X153062251Y-239418371D01*
X153372295Y-239504438D01*
X153683213Y-239595156D01*
X153995257Y-239690668D01*
X154308683Y-239791122D01*
X154623745Y-239896662D01*
X154940698Y-240007433D01*
X155259796Y-240123580D01*
X155581293Y-240245250D01*
X155905444Y-240372587D01*
D11*
X121941376Y-212137870D02*
G75*
G03*
X119299123Y-211485022I-1917284J-2086387D01*
G01*
D10*
X178593947Y-210145489D02*
X178593900Y-157162632D01*
D11*
X179640141Y-212671185D02*
X202946058Y-230550657D01*
X121941346Y-212137903D02*
X124487686Y-216024944D01*
X125015764Y-160734510D02*
G75*
G03*
X121443899Y-157162585I-3571672J253D01*
G01*
X58340721Y-248840897D02*
X75009485Y-248840850D01*
X51196965Y-156567305D02*
G75*
G03*
X47625040Y-160139197I-73J-3571852D01*
G01*
D12*
X166125278Y-245928420D02*
X166382305Y-246094149D01*
X166632737Y-246256701D01*
X166876955Y-246416382D01*
X167115339Y-246573503D01*
X167348273Y-246728372D01*
X167576137Y-246881298D01*
X167799312Y-247032589D01*
X168018181Y-247182555D01*
X168233125Y-247331505D01*
X168444525Y-247479746D01*
X168652763Y-247627589D01*
X168858222Y-247775342D01*
X169061281Y-247923313D01*
X169262323Y-248071812D01*
X169461729Y-248221147D01*
X169659881Y-248371628D01*
X169857161Y-248523563D01*
X170053950Y-248677261D01*
X170250629Y-248833030D01*
X170447580Y-248991180D01*
X170645185Y-249152020D01*
X170843826Y-249315858D01*
X171043883Y-249483003D01*
X171245738Y-249653763D01*
X171449774Y-249828449D01*
X171656370Y-250007369D01*
X171865910Y-250190831D01*
X172078775Y-250379144D01*
X172295346Y-250572617D01*
X172516004Y-250771559D01*
X172741132Y-250976280D01*
X172971111Y-251187087D01*
D11*
X181570512Y-226218940D02*
G75*
G03*
X181570512Y-226218940I-5357817J0D01*
G01*
X100012631Y-152995488D02*
X100012631Y-153590754D01*
D10*
X178593895Y-157162632D02*
G75*
G03*
X175022022Y-153590754I-3571903J-25D01*
G01*
D11*
X205809341Y-274006675D02*
G75*
G03*
X207475062Y-268642483I-1598249J3437018D01*
G01*
X102634835Y-232424512D02*
X123262573Y-220925476D01*
X82153288Y-227409578D02*
G75*
G03*
X85725213Y-223837704I-96J3572021D01*
G01*
X158353258Y-164306388D02*
X128587655Y-164306435D01*
X207475062Y-268642483D02*
X199735859Y-254285956D01*
X100012686Y-152995488D02*
G75*
G03*
X96440753Y-149423563I-3571994J-69D01*
G01*
X197130916Y-278042298D02*
X205809343Y-274006679D01*
X103584509Y-157162679D02*
X107156387Y-157162585D01*
X125015714Y-160734510D02*
G75*
G03*
X128587655Y-164306435I3571878J-47D01*
G01*
X54768852Y-245268972D02*
G75*
G03*
X58340721Y-248840897I3571840J-85D01*
G01*
X204052995Y-236246336D02*
G75*
G03*
X202946058Y-230550657I-3432293J2288349D01*
G01*
X78581363Y-230981460D02*
X78581410Y-245268972D01*
D12*
X172971111Y-251187087D02*
X173206211Y-251404189D01*
X173446262Y-251627396D01*
X173690983Y-251856417D01*
X173940092Y-252090962D01*
X174193306Y-252330739D01*
X174450346Y-252575458D01*
X174710928Y-252824828D01*
X174974772Y-253078558D01*
X175241596Y-253336358D01*
X175511118Y-253597936D01*
X175783057Y-253863003D01*
X176057132Y-254131267D01*
X176333060Y-254402438D01*
X176610561Y-254676225D01*
X176889352Y-254952336D01*
X177169152Y-255230482D01*
X177449680Y-255510372D01*
X177730654Y-255791715D01*
X178011792Y-256074220D01*
X178292813Y-256357596D01*
X178573435Y-256641553D01*
X178853377Y-256925800D01*
X179132358Y-257210046D01*
X179410095Y-257494001D01*
X179686307Y-257777373D01*
X179960713Y-258059872D01*
X180233030Y-258341208D01*
X180502978Y-258621089D01*
X180770275Y-258899225D01*
X181034639Y-259175325D01*
X181295789Y-259449098D01*
X181553444Y-259720254D01*
X181553444Y-259720254D02*
X181807546Y-259988853D01*
X182058943Y-260256363D01*
X182308708Y-260524603D01*
X182557912Y-260795394D01*
X182807627Y-261070553D01*
X183058925Y-261351901D01*
X183312880Y-261641257D01*
X183570562Y-261940439D01*
X183833044Y-262251268D01*
X184101399Y-262575563D01*
X184376699Y-262915143D01*
X184660015Y-263271826D01*
X184952420Y-263647434D01*
X185254986Y-264043785D01*
X185568785Y-264462697D01*
X185894890Y-264905992D01*
X186234372Y-265375487D01*
X186588305Y-265873002D01*
X186957759Y-266400357D01*
X187343807Y-266959371D01*
X187747522Y-267551863D01*
X188169976Y-268179653D01*
X188612240Y-268844559D01*
X189075387Y-269548402D01*
X189560489Y-270293000D01*
X190068619Y-271080172D01*
X190600848Y-271911739D01*
X191158249Y-272789519D01*
X191741893Y-273715332D01*
X192352854Y-274690997D01*
X192992203Y-275718333D01*
X193661013Y-276799161D01*
D11*
X121443899Y-157162585D02*
X107156387Y-157162585D01*
X58340815Y-149423555D02*
G75*
G03*
X54768890Y-152995441I-123J-3571802D01*
G01*
X54768836Y-234553338D02*
G75*
G03*
X51197013Y-230981413I-3571944J-19D01*
G01*
X101327396Y-237303811D02*
X107072327Y-245216496D01*
X193661010Y-276799163D02*
G75*
G03*
X197130916Y-278042298I2364112J1134576D01*
G01*
X51196965Y-156567355D02*
G75*
G03*
X54768890Y-152995441I127J3571798D01*
G01*
X102634837Y-232424516D02*
G75*
G03*
X101327396Y-237303811I1786015J-3093391D01*
G01*
X54768891Y-234553338D02*
X54768843Y-245268972D01*
D10*
X161925183Y-160734510D02*
X161925136Y-157162632D01*
D11*
X82153288Y-227409628D02*
G75*
G03*
X78581363Y-230981460I-96J-3571829D01*
G01*
X107072374Y-245216469D02*
G75*
G03*
X111951611Y-246523586I3093218J1786212D01*
G01*
X85725213Y-223837704D02*
X85725119Y-221456436D01*
X75009485Y-248840875D02*
G75*
G03*
X78581410Y-245268972I107J3571818D01*
G01*
X158353258Y-164306348D02*
G75*
G03*
X161925183Y-160734510I-66J3571991D01*
G01*
D12*
X132489944Y-238487337D02*
X132909358Y-238460292D01*
X133330299Y-238434973D01*
X133752550Y-238411363D01*
X134175891Y-238389443D01*
X134600105Y-238369195D01*
X135024974Y-238350601D01*
X135450279Y-238333643D01*
X135875803Y-238318301D01*
X136301328Y-238304559D01*
X136726634Y-238292398D01*
X137151506Y-238281800D01*
X137575723Y-238272747D01*
X137999069Y-238265220D01*
X138421324Y-238259202D01*
X138842272Y-238254674D01*
X139261694Y-238251618D01*
X139679371Y-238250015D01*
X140095087Y-238249849D01*
X140508622Y-238251100D01*
X140919758Y-238253750D01*
X141328278Y-238257781D01*
X141733964Y-238263176D01*
X142136597Y-238269915D01*
X142535959Y-238277981D01*
X142931833Y-238287355D01*
X143323999Y-238298020D01*
X143712241Y-238309957D01*
X144096340Y-238323148D01*
X144476078Y-238337574D01*
X144851236Y-238353218D01*
X145221598Y-238370062D01*
X145586944Y-238388087D01*
D11*
X88167468Y-218067850D02*
X119299123Y-211485021D01*
D12*
X111951611Y-246523587D02*
X113045416Y-245872922D01*
X114095344Y-245259477D01*
X115102867Y-244682107D01*
X116069457Y-244139669D01*
X116996584Y-243631018D01*
X117885722Y-243155009D01*
X118738341Y-242710498D01*
X119555913Y-242296340D01*
X120339909Y-241911393D01*
X121091803Y-241554510D01*
X121813064Y-241224547D01*
X122505165Y-240920361D01*
X123169578Y-240640807D01*
X123807774Y-240384741D01*
X124421225Y-240151017D01*
X125011402Y-239938493D01*
X125579778Y-239746023D01*
X126127823Y-239572463D01*
X126657010Y-239416668D01*
X127168811Y-239277495D01*
X127664696Y-239153799D01*
X128146138Y-239044436D01*
X128614609Y-238948261D01*
X129071579Y-238864129D01*
X129518521Y-238790898D01*
X129956907Y-238727421D01*
X130388207Y-238672556D01*
X130813894Y-238625156D01*
X131235440Y-238584079D01*
X131654315Y-238548180D01*
X132071993Y-238516314D01*
X132489944Y-238487337D01*
D11*
X178593945Y-210145489D02*
G75*
G03*
X179640141Y-212671185I3572147J132D01*
G01*
X201485516Y-239184630D02*
G75*
G03*
X199735859Y-254285956I7775319J-8552879D01*
G01*
D10*
X165497014Y-153590761D02*
G75*
G03*
X161925136Y-157162632I-2J-3571876D01*
G01*
D11*
X100012570Y-153590754D02*
G75*
G03*
X103584509Y-157162679I3572122J197D01*
G01*
D13*
X71501064Y-159271320D02*
X71501064Y-158229920D01*
X72186864Y-157544120D02*
X73787064Y-157544120D01*
X73787064Y-159957120D02*
X72186864Y-159957120D01*
X74168064Y-157925120D02*
X74168064Y-159576120D01*
X74676064Y-153556320D02*
X74676064Y-151879920D01*
X75361864Y-151194120D02*
X77038264Y-151194120D01*
X75361864Y-154242120D02*
X77038264Y-154242120D01*
X77724064Y-153556320D02*
X77724064Y-151879920D01*
X72186864Y-159957120D02*
G75*
G03*
X71501064Y-159271320I-438047J247753D01*
G01*
X71501064Y-158229920D02*
G75*
G03*
X72186864Y-157544120I247753J438047D01*
G01*
X74168064Y-157925120D02*
G75*
G03*
X73787064Y-157544120I-380999J1D01*
G01*
X73787064Y-159957120D02*
G75*
G03*
X74168064Y-159576120I1J380999D01*
G01*
X75361864Y-154242120D02*
G75*
G03*
X74676064Y-153556320I-438047J247753D01*
G01*
X74676064Y-151879920D02*
G75*
G03*
X75361864Y-151194120I247753J438047D01*
G01*
X77724064Y-153556320D02*
G75*
G03*
X77038264Y-154242120I-247753J-438047D01*
G01*
X77038264Y-151194120D02*
G75*
G03*
X77724064Y-151879920I438050J-247750D01*
G01*
M02*
