M48
; DRILL file {KiCad 7.0.2} date Mi 17 Mai 2023 12:31:50 CEST
; FORMAT={-:-/ absolute / metric / decimal}
; #@! TF.CreationDate,2023-05-17T12:31:50+02:00
; #@! TF.GenerationSoftware,Kicad,Pcbnew,7.0.2
; #@! TF.FileFunction,NonPlated,1,2,NPTH
FMAT,2
METRIC
; #@! TA.AperFunction,NonPlated,NPTH,ComponentDrill
T1C0.700
; #@! TA.AperFunction,NonPlated,NPTH,ComponentDrill
T2C1.750
; #@! TA.AperFunction,NonPlated,NPTH,ComponentDrill
T3C3.988
%
G90
G05
T1
X90.203Y-151.369
X93.103Y-151.369
T2
X55.581Y-178.225
X55.581Y-197.408
X56.467Y-188.346
X56.467Y-207.529
X57.15Y-158.036
X57.15Y-168.196
X57.15Y-217.567
X57.15Y-227.727
X61.595Y-241.697
X71.12Y-182.166
X71.12Y-201.216
X71.12Y-220.266
X71.755Y-241.697
X81.28Y-182.166
X81.28Y-201.216
X81.28Y-220.266
X90.17Y-170.26
X90.17Y-189.31
X90.17Y-208.36
X100.33Y-170.26
X100.33Y-189.31
X100.33Y-208.36
X109.22Y-164.306
X109.22Y-183.356
X109.22Y-202.406
X109.901Y-239.546
X118.7Y-234.466
X119.38Y-164.306
X119.38Y-183.356
X119.38Y-202.406
X128.27Y-171.45
X128.27Y-190.5
X128.27Y-209.55
X134.223Y-230.982
X138.43Y-171.45
X138.43Y-190.5
X138.43Y-209.55
X144.383Y-230.982
X147.32Y-173.831
X147.32Y-192.881
X147.32Y-211.931
X157.48Y-173.831
X157.48Y-192.881
X157.48Y-211.931
X160.407Y-234.424
X169.206Y-239.504
X171.45Y-159.226
X171.45Y-169.386
X171.45Y-183.039
X171.45Y-193.199
X171.45Y-206.852
X171.45Y-217.012
X178.574Y-246.439
X185.758Y-253.624
X189.13Y-228.607
X193.318Y-262.896
X197.244Y-234.721
X198.398Y-271.695
T3
X56.024Y-183.286
X56.024Y-202.468
X57.15Y-163.116
X57.15Y-222.647
X66.675Y-241.697
X76.2Y-182.166
X76.2Y-201.216
X76.2Y-220.266
X95.25Y-170.26
X95.25Y-189.31
X95.25Y-208.36
X114.3Y-164.306
X114.3Y-183.356
X114.3Y-202.406
X114.3Y-237.006
X133.35Y-171.45
X133.35Y-190.5
X133.35Y-209.55
X139.303Y-230.982
X152.4Y-173.831
X152.4Y-192.881
X152.4Y-211.931
X164.806Y-236.964
X171.45Y-164.306
X171.45Y-188.119
X171.45Y-211.932
X182.166Y-250.031
X193.187Y-231.664
X195.858Y-267.296
T0
M30
