M48
; DRILL file {KiCad 7.0.2} date Mi 17 Mai 2023 12:31:50 CEST
; FORMAT={-:-/ absolute / metric / decimal}
; #@! TF.CreationDate,2023-05-17T12:31:50+02:00
; #@! TF.GenerationSoftware,Kicad,Pcbnew,7.0.2
; #@! TF.FileFunction,Plated,1,2,PTH
FMAT,2
METRIC
; #@! TA.AperFunction,Plated,PTH,ViaDrill
T1C0.400
; #@! TA.AperFunction,Plated,PTH,ComponentDrill
T2C0.400
; #@! TA.AperFunction,Plated,PTH,ComponentDrill
T3C0.750
; #@! TA.AperFunction,Plated,PTH,ComponentDrill
T4C1.000
; #@! TA.AperFunction,Plated,PTH,ComponentDrill
T5C1.016
; #@! TA.AperFunction,Plated,PTH,ComponentDrill
T6C1.300
; #@! TA.AperFunction,Plated,PTH,ComponentDrill
T7C3.000
%
G90
G05
T1
X54.769Y-175.022
X54.769Y-194.667
X61.913Y-156.567
X63.698Y-173.236
X67.866Y-184.547
X67.866Y-203.597
X67.866Y-223.838
X70.247Y-167.283
X70.247Y-185.142
X70.247Y-189.31
X70.842Y-164.306
X72.033Y-165.497
X72.033Y-171.45
X75.009Y-177.999
X76.2Y-176.808
X77.986Y-169.664
X77.986Y-176.213
X78.581Y-164.902
X78.581Y-174.427
X79.177Y-172.512
X79.177Y-180.975
X79.772Y-168.474
X80.367Y-164.306
X80.367Y-173.961
X80.963Y-167.283
X80.963Y-172.512
X80.963Y-176.213
X82.153Y-166.092
X82.153Y-172.045
X82.153Y-180.38
X82.749Y-174.427
X83.344Y-170.855
X83.344Y-187.524
X83.939Y-173.831
X84.534Y-181.57
X85.13Y-173.236
X85.13Y-177.403
X86.32Y-175.022
X86.32Y-213.122
X86.916Y-189.31
X87.511Y-180.38
X88.702Y-157.163
X88.702Y-158.353
X89.297Y-155.972
X89.297Y-194.667
X89.297Y-211.336
X89.892Y-159.544
X89.892Y-180.38
X91.083Y-159.544
X92.274Y-158.949
X93.464Y-182.166
X93.464Y-213.122
X105.966Y-184.547
X114.3Y-228.005
X120.253Y-176.213
X121.444Y-186.333
X129.778Y-198.835
X132.755Y-220.266
X138.708Y-216.099
X140.494Y-214.908
X142.875Y-178.594
X142.875Y-194.667
X144.066Y-213.122
X146.447Y-214.908
X148.828Y-213.717
X153.591Y-223.242
X153.591Y-230.386
X155.972Y-172.641
X157.163Y-215.503
X161.925Y-197.644
X163.116Y-215.503
X165.497Y-230.981
X166.688Y-227.41
X166.688Y-231.577
X167.878Y-227.41
X173.236Y-216.099
X175.022Y-239.911
X176.808Y-206.574
X177.999Y-217.289
X182.166Y-236.935
T2
X57.02Y-174.274
X57.02Y-193.457
X57.785Y-238.395
X57.785Y-239.919
X58.539Y-174.142
X58.539Y-193.324
X58.928Y-154.226
X58.928Y-213.757
X60.452Y-154.226
X60.452Y-213.757
X60.99Y-190.5
X60.99Y-209.683
X61.468Y-170.736
X61.468Y-230.267
X62.508Y-190.367
X62.508Y-209.55
X62.992Y-170.736
X62.992Y-230.267
X67.31Y-197.914
X67.31Y-199.438
X67.31Y-216.964
X67.31Y-218.488
X68.58Y-186.484
X68.58Y-188.008
X74.295Y-235.855
X74.295Y-237.379
X83.82Y-195.374
X83.82Y-196.898
X83.82Y-214.424
X83.82Y-215.948
X85.09Y-183.944
X85.09Y-185.468
X86.36Y-186.008
X86.36Y-187.532
X86.36Y-205.058
X86.36Y-206.582
X87.63Y-174.578
X87.63Y-176.102
X102.87Y-183.468
X102.87Y-184.992
X102.87Y-202.518
X102.87Y-204.042
X104.14Y-172.038
X104.14Y-173.562
X104.95Y-238.591
X105.41Y-180.054
X105.41Y-181.578
X105.41Y-199.104
X105.41Y-200.628
X105.712Y-239.911
X106.68Y-168.624
X106.68Y-170.148
X117.978Y-228.136
X118.74Y-229.456
X121.92Y-177.514
X121.92Y-179.038
X121.92Y-196.564
X121.92Y-198.088
X123.19Y-166.084
X123.19Y-167.608
X124.46Y-187.198
X124.46Y-188.722
X124.46Y-206.248
X124.46Y-207.772
X125.73Y-175.768
X125.73Y-177.292
X130.413Y-227.68
X130.413Y-229.204
X140.97Y-184.658
X140.97Y-186.182
X140.97Y-203.708
X140.97Y-205.232
X142.24Y-173.228
X142.24Y-174.752
X143.51Y-189.579
X143.51Y-191.103
X143.51Y-208.629
X143.51Y-210.153
X144.78Y-178.149
X144.78Y-179.673
X146.923Y-225.14
X146.923Y-226.664
X157.996Y-230.979
X158.758Y-229.659
X160.02Y-187.039
X160.02Y-188.563
X160.02Y-206.089
X160.02Y-207.613
X161.29Y-175.609
X161.29Y-177.133
X165.608Y-156.686
X165.608Y-180.499
X165.608Y-204.312
X167.132Y-156.686
X167.132Y-180.499
X167.132Y-204.312
X168.148Y-173.196
X168.148Y-197.009
X168.148Y-220.822
X169.672Y-173.196
X169.672Y-197.009
X169.672Y-220.822
X173.564Y-237.034
X174.326Y-235.714
X177.137Y-242.488
X178.214Y-241.41
X183.586Y-231.744
X184.503Y-230.527
X190.607Y-252.366
X191.685Y-251.289
X192.953Y-258.708
X194.273Y-257.946
X198.3Y-239.651
X199.217Y-238.434
X203.408Y-271.736
X204.727Y-270.974
T3
X90.678Y-157.094
X92.678Y-157.094
T4
X68.58Y-152.4
X68.58Y-154.94
X68.58Y-157.48
X68.58Y-160.02
X68.58Y-162.56
X68.58Y-165.1
X68.58Y-167.64
X83.82Y-152.4
X83.82Y-154.94
X83.82Y-157.48
X83.82Y-160.02
X83.82Y-162.56
X83.82Y-165.1
X83.82Y-167.64
T5
X71.755Y-157.798
X71.755Y-159.703
X74.93Y-151.448
X74.93Y-153.988
X77.47Y-151.448
X77.47Y-153.988
T6
X58.389Y-151.805
X64.889Y-151.805
T7
X58.222Y-179.269
X58.222Y-198.451
X59.69Y-159.306
X59.69Y-218.837
X61.306Y-185.373
X61.306Y-204.556
X62.23Y-165.656
X62.23Y-225.187
X62.865Y-239.157
X69.215Y-236.617
X72.39Y-198.676
X72.39Y-217.726
X73.66Y-187.246
X78.74Y-196.136
X78.74Y-215.186
X80.01Y-184.706
X91.44Y-186.77
X91.44Y-205.82
X92.71Y-175.34
X97.79Y-184.23
X97.79Y-203.28
X99.06Y-172.8
X109.731Y-236.711
X110.49Y-180.816
X110.49Y-199.866
X111.76Y-169.386
X113.96Y-231.336
X116.84Y-178.276
X116.84Y-197.326
X118.11Y-166.846
X129.54Y-187.96
X129.54Y-207.01
X130.81Y-176.53
X135.493Y-228.442
X135.89Y-185.42
X135.89Y-204.47
X137.16Y-173.99
X141.843Y-225.902
X148.59Y-190.341
X148.59Y-209.391
X149.86Y-178.911
X154.94Y-187.801
X154.94Y-206.851
X156.21Y-176.371
X162.777Y-232.859
X166.37Y-161.766
X166.37Y-185.579
X166.37Y-209.392
X168.91Y-168.116
X168.91Y-191.929
X168.91Y-215.742
X169.546Y-233.834
X181.268Y-245.541
X187.554Y-248.235
X188.102Y-234.193
X194.702Y-235.986
X196.153Y-262.726
X201.528Y-266.955
T0
M30
