<?xml version="1.0" standalone="no"?>
 <!DOCTYPE svg PUBLIC "-//W3C//DTD SVG 1.1//EN" 
 "http://www.w3.org/Graphics/SVG/1.1/DTD/svg11.dtd"> 
<svg
  xmlns:svg="http://www.w3.org/2000/svg"
  xmlns="http://www.w3.org/2000/svg"
  xmlns:xlink="http://www.w3.org/1999/xlink"
  version="1.1"
  width="173.8630mm" height="155.0162mm" viewBox="0.0000 0.0000 173.8630 155.0162">
<title>SVG Image created as mykeeb_v7a3-plate-Edge_Cuts.svg date 2023/05/24 15:37:13 </title>
  <desc>Image generated by PCBNEW </desc>
<g style="fill:#000000; fill-opacity:1.0000;stroke:#000000; stroke-opacity:1.0000;
stroke-linecap:round; stroke-linejoin:round;"
 transform="translate(0 0) scale(1 1)">
</g>
<g style="fill:#000000; fill-opacity:0.0; 
stroke:#000000; stroke-width:0.0000; stroke-opacity:1; 
stroke-linecap:round; stroke-linejoin:round;">
</g>
<g style="fill:#000000; fill-opacity:0.0; 
stroke:#000000; stroke-width:0.1000; stroke-opacity:1; 
stroke-linecap:round; stroke-linejoin:round;">
<path d="M172.0202 7.9212
L172.0202 2.4613
" />
</g>
<g style="fill:#000000; fill-opacity:0.0; 
stroke:#000000; stroke-width:0.1600; stroke-opacity:1; 
stroke-linecap:round; stroke-linejoin:round;">
<path d="M168.4483 107.9338 A3.5719 3.5719 0.0 0 0 172.0201 104.3619" />
<path d="M141.0639 117.4588 A3.5718 3.5718 0.0 0 0 144.6358 121.0307" />
<path d="M39.0177,132.8378 C36.2890,135.7152 34.2050,138.0962 28.4478,147.7673" />
</g>
<g style="fill:#000000; fill-opacity:0.0; 
stroke:#000000; stroke-width:0.1000; stroke-opacity:1; 
stroke-linecap:round; stroke-linejoin:round;">
<path d="M136.8968 0.1821
L169.6389 0.0800
" />
</g>
<g style="fill:#000000; fill-opacity:0.0; 
stroke:#000000; stroke-width:0.1600; stroke-opacity:1; 
stroke-linecap:round; stroke-linejoin:round;">
<path d="M15.4529 97.8135
L37.6239 80.6938
" />
<path d="M37.6239 80.6938 A3.5722 3.5722 0.0 0 0 38.6701 78.1681" />
<path d="M131.5390 5.5400 A1.7859 1.7859 0.0 0 0 133.3249 3.7540" />
<path d="M54.4459,119.0460 C51.6677,120.8318 50.0804,122.0225 47.6000,124.3047" />
<path d="M168.4483 107.9337 A3.5720 3.5720 0.0 0 0 164.8764 111.5057" />
<path d="M13.6718 100.7971
L11.6534 140.1071
" />
<path d="M111.2983 117.3423
L119.1164 106.0348
" />
<path d="M13.8359 143.8153
L24.9779 149.0104
" />
<path d="M141.0640 107.9338 A3.5720 3.5720 0.0 0 0 137.4921 104.3619" />
<path d="M144.6358 121.0307
L161.3046 121.0307
" />
<path d="M173.8062,63.8806 C173.8062,76.3822 172.0202,92.4557 172.0201,104.3619" />
<path d="M173.8062 44.2353
L173.8062 63.8806
" />
<path d="M141.0639 117.4588
L141.0640 107.9338
" />
<path d="M164.8764 117.4588
L164.8764 111.5057
" />
<path d="M136.8968 0.1821 A3.5719 3.5719 0.0 0 0 133.3249 3.7541" />
<path d="M64.6657,113.4902 C61.1930,114.8792 57.2240,117.2602 54.4459,119.0460" />
<path d="M106.4190 118.6494 A3.5721 3.5721 0.0 0 0 111.2983 117.3423" />
</g>
<g style="fill:#000000; fill-opacity:0.0; 
stroke:#000000; stroke-width:0.1000; stroke-opacity:1; 
stroke-linecap:round; stroke-linejoin:round;">
<path d="M45.8139 23.3993
L42.2420 23.3993
" />
<path d="M42.2420 23.3993 A3.5718 3.5718 0.0 0 0 38.6701 26.9712" />
</g>
<g style="fill:#000000; fill-opacity:0.0; 
stroke:#000000; stroke-width:0.1600; stroke-opacity:1; 
stroke-linecap:round; stroke-linejoin:round;">
<path d="M15.4529 97.8135 A4.1337 4.1337 0.0 0 0 13.6718 100.7971" />
<path d="M106.4190,118.6494 C96.7130,112.4982 92.5460,111.9027 88.0812,111.6049" />
</g>
<g style="fill:#000000; fill-opacity:0.0; 
stroke:#000000; stroke-width:0.1000; stroke-opacity:1; 
stroke-linecap:round; stroke-linejoin:round;">
<path d="M137.4921 104.3619
L122.0139 104.3619
" />
</g>
<g style="fill:#000000; fill-opacity:0.0; 
stroke:#000000; stroke-width:0.1600; stroke-opacity:1; 
stroke-linecap:round; stroke-linejoin:round;">
<path d="M74.9842,111.5057 C71.1147,111.7042 68.1384,112.1012 64.6657,113.4902" />
</g>
<g style="fill:#000000; fill-opacity:0.0; 
stroke:#000000; stroke-width:0.1000; stroke-opacity:1; 
stroke-linecap:round; stroke-linejoin:round;">
<path d="M52.9576 12.6837
L83.9139 12.6838
" />
</g>
<g style="fill:#000000; fill-opacity:0.0; 
stroke:#000000; stroke-width:0.1600; stroke-opacity:1; 
stroke-linecap:round; stroke-linejoin:round;">
<path d="M122.0139 104.3619 A3.3458 3.3458 0.0 0 0 119.1164 106.0348" />
<path d="M52.9576 12.6837 A3.5718 3.5718 0.0 0 0 49.3858 16.2556" />
<path d="M11.6534 140.1071 A3.7904 3.7904 0.0 0 0 13.8359 143.8153" />
<path d="M47.6000,124.3047 C45.1197,126.5868 41.7464,129.9605 39.0177,132.8378" />
<path d="M88.0812,111.6049 C83.6164,111.3072 78.8537,111.3072 74.9842,111.5057" />
</g>
<g style="fill:#000000; fill-opacity:0.0; 
stroke:#000000; stroke-width:0.1000; stroke-opacity:1; 
stroke-linecap:round; stroke-linejoin:round;">
<path d="M49.3857 19.8274
L49.3857 16.2556
" />
</g>
<g style="fill:#000000; fill-opacity:0.0; 
stroke:#000000; stroke-width:0.1600; stroke-opacity:1; 
stroke-linecap:round; stroke-linejoin:round;">
<path d="M24.9779 149.0104 A2.6223 2.6223 0.0 0 0 28.4478 147.7673" />
<path d="M172.0202 2.4613 A2.3812 2.3812 0.0 0 0 169.6389 0.0800" />
<path d="M172.0202,7.9212 C172.0202,32.9244 173.8062,35.3056 173.8062,44.2353" />
<path d="M91.0577 5.5399 A3.5719 3.5719 0.0 0 0 87.4858 9.1119" />
<path d="M45.8139 23.3993 A3.5718 3.5718 0.0 0 0 49.3857 19.8274" />
<path d="M83.9139 12.6838 A3.5717 3.5717 0.0 0 0 87.4858 9.1119" />
</g>
<g style="fill:#000000; fill-opacity:0.0; 
stroke:#000000; stroke-width:0.1000; stroke-opacity:1; 
stroke-linecap:round; stroke-linejoin:round;">
<path d="M91.0577 5.5400
L131.5390 5.5400
" />
</g>
<g style="fill:#000000; fill-opacity:0.0; 
stroke:#000000; stroke-width:0.1600; stroke-opacity:1; 
stroke-linecap:round; stroke-linejoin:round;">
<path d="M161.3046 121.0308 A3.5719 3.5719 0.0 0 0 164.8764 117.4588" />
</g>
<g style="fill:#000000; fill-opacity:0.0; 
stroke:#000000; stroke-width:0.1000; stroke-opacity:1; 
stroke-linecap:round; stroke-linejoin:round;">
<path d="M38.6701 26.9712
L38.6701 78.1681
" />
<g >
</g>
<g >
</g>
<g >
</g>
<g >
</g>
<g >
</g>
<g >
</g>
<g >
</g>
<g >
</g>
<g >
</g>
<g >
</g>
<g >
</g>
<g >
</g>
<g >
</g>
<g >
</g>
</g> 
</svg>
