<?xml version="1.0" standalone="no"?>
 <!DOCTYPE svg PUBLIC "-//W3C//DTD SVG 1.1//EN" 
 "http://www.w3.org/Graphics/SVG/1.1/DTD/svg11.dtd"> 
<svg
  xmlns:svg="http://www.w3.org/2000/svg"
  xmlns="http://www.w3.org/2000/svg"
  xmlns:xlink="http://www.w3.org/1999/xlink"
  version="1.1"
  width="173.9900mm" height="154.9146mm" viewBox="0.0000 0.0000 173.9900 154.9146">
<title>SVG Image created as mykeeb_v7a3-plate-User_Comments.svg date 2023/05/24 11:39:16 </title>
  <desc>Image generated by PCBNEW </desc>
<g style="fill:#000000; fill-opacity:1.0000;stroke:#000000; stroke-opacity:1.0000;
stroke-linecap:round; stroke-linejoin:round;"
 transform="translate(0 0) scale(1 1)">
</g>
<g style="fill:#000000; fill-opacity:0.0; 
stroke:#000000; stroke-width:0.0000; stroke-opacity:1; 
stroke-linecap:round; stroke-linejoin:round;">
</g>
<g style="fill:#000000; fill-opacity:0.0; 
stroke:#000000; stroke-width:0.1500; stroke-opacity:1; 
stroke-linecap:round; stroke-linejoin:round;">
<circle cx="44.6233" cy="69.7317" r="2.9766" /> 
<circle cx="44.6232" cy="45.9191" r="2.9766" /> 
<circle cx="99.3920" cy="86.4004" r="2.9766" /> 
<circle cx="129.7530" cy="7.8191" r="2.9766" /> 
<circle cx="18.4295" cy="117.9520" r="2.9766" /> 
<circle cx="148.2077" cy="9.6051" r="2.9766" /> 
<circle cx="167.8530" cy="19.7254" r="2.9766" /> 
<circle cx="137.4920" cy="100.6880" r="2.9766" /> 
<circle cx="43.4326" cy="95.9255" r="2.9766" /> 
<circle cx="168.4483" cy="104.2598" r="2.9766" /> 
<circle cx="52.9576" cy="19.7254" r="2.9766" /> 
<circle cx="91.0576" cy="9.0097" r="2.9766" /> 
<g transform="rotate(-90.000000 5.3732 74.1965)">
<text x="5.3732" y="74.6965"
textLength="10.7464" font-size="1.3333" lengthAdjust="spacingAndGlyphs"
text-anchor="middle" opacity="0">148.2329 mm</text>
</g>
<g class="stroked-text"><desc>148.2329 mm</desc>
<path d="M5.8358 78.7203
L5.8358 79.2918
" />
<path d="M5.8358 79.0060
L4.8358 79.0060
" />
<path d="M4.8358 79.0060
L4.9787 79.1013
" />
<path d="M4.9787 79.1013
L5.0739 79.1965
" />
<path d="M5.0739 79.1965
L5.1215 79.2918
" />
<path d="M5.1692 77.8632
L5.8358 77.8632
" />
<path d="M4.7882 78.1013
L5.5025 78.3394
" />
<path d="M5.5025 78.3394
L5.5025 77.7203
" />
<path d="M5.2644 77.1965
L5.2168 77.2918
" />
<path d="M5.2168 77.2918
L5.1692 77.3394
" />
<path d="M5.1692 77.3394
L5.0739 77.3870
" />
<path d="M5.0739 77.3870
L5.0263 77.3870
" />
<path d="M5.0263 77.3870
L4.9311 77.3394
" />
<path d="M4.9311 77.3394
L4.8835 77.2918
" />
<path d="M4.8835 77.2918
L4.8358 77.1965
" />
<path d="M4.8358 77.1965
L4.8358 77.0060
" />
<path d="M4.8358 77.0060
L4.8835 76.9108
" />
<path d="M4.8835 76.9108
L4.9311 76.8632
" />
<path d="M4.9311 76.8632
L5.0263 76.8156
" />
<path d="M5.0263 76.8156
L5.0739 76.8156
" />
<path d="M5.0739 76.8156
L5.1692 76.8632
" />
<path d="M5.1692 76.8632
L5.2168 76.9108
" />
<path d="M5.2168 76.9108
L5.2644 77.0060
" />
<path d="M5.2644 77.0060
L5.2644 77.1965
" />
<path d="M5.2644 77.1965
L5.3120 77.2918
" />
<path d="M5.3120 77.2918
L5.3596 77.3394
" />
<path d="M5.3596 77.3394
L5.4549 77.3870
" />
<path d="M5.4549 77.3870
L5.6454 77.3870
" />
<path d="M5.6454 77.3870
L5.7406 77.3394
" />
<path d="M5.7406 77.3394
L5.7882 77.2918
" />
<path d="M5.7882 77.2918
L5.8358 77.1965
" />
<path d="M5.8358 77.1965
L5.8358 77.0060
" />
<path d="M5.8358 77.0060
L5.7882 76.9108
" />
<path d="M5.7882 76.9108
L5.7406 76.8632
" />
<path d="M5.7406 76.8632
L5.6454 76.8156
" />
<path d="M5.6454 76.8156
L5.4549 76.8156
" />
<path d="M5.4549 76.8156
L5.3596 76.8632
" />
<path d="M5.3596 76.8632
L5.3120 76.9108
" />
<path d="M5.3120 76.9108
L5.2644 77.0060
" />
<path d="M5.7406 76.3870
L5.7882 76.3394
" />
<path d="M5.7882 76.3394
L5.8358 76.3870
" />
<path d="M5.8358 76.3870
L5.7882 76.4346
" />
<path d="M5.7882 76.4346
L5.7406 76.3870
" />
<path d="M5.7406 76.3870
L5.8358 76.3870
" />
<path d="M4.9311 75.9584
L4.8835 75.9108
" />
<path d="M4.8835 75.9108
L4.8358 75.8156
" />
<path d="M4.8358 75.8156
L4.8358 75.5775
" />
<path d="M4.8358 75.5775
L4.8835 75.4822
" />
<path d="M4.8835 75.4822
L4.9311 75.4346
" />
<path d="M4.9311 75.4346
L5.0263 75.3870
" />
<path d="M5.0263 75.3870
L5.1215 75.3870
" />
<path d="M5.1215 75.3870
L5.2644 75.4346
" />
<path d="M5.2644 75.4346
L5.8358 76.0060
" />
<path d="M5.8358 76.0060
L5.8358 75.3870
" />
<path d="M4.8358 75.0537
L4.8358 74.4346
" />
<path d="M4.8358 74.4346
L5.2168 74.7679
" />
<path d="M5.2168 74.7679
L5.2168 74.6251
" />
<path d="M5.2168 74.6251
L5.2644 74.5298
" />
<path d="M5.2644 74.5298
L5.3120 74.4822
" />
<path d="M5.3120 74.4822
L5.4073 74.4346
" />
<path d="M5.4073 74.4346
L5.6454 74.4346
" />
<path d="M5.6454 74.4346
L5.7406 74.4822
" />
<path d="M5.7406 74.4822
L5.7882 74.5298
" />
<path d="M5.7882 74.5298
L5.8358 74.6251
" />
<path d="M5.8358 74.6251
L5.8358 74.9108
" />
<path d="M5.8358 74.9108
L5.7882 75.0060
" />
<path d="M5.7882 75.0060
L5.7406 75.0537
" />
<path d="M4.9311 74.0537
L4.8835 74.0060
" />
<path d="M4.8835 74.0060
L4.8358 73.9108
" />
<path d="M4.8358 73.9108
L4.8358 73.6727
" />
<path d="M4.8358 73.6727
L4.8835 73.5775
" />
<path d="M4.8835 73.5775
L4.9311 73.5298
" />
<path d="M4.9311 73.5298
L5.0263 73.4822
" />
<path d="M5.0263 73.4822
L5.1215 73.4822
" />
<path d="M5.1215 73.4822
L5.2644 73.5298
" />
<path d="M5.2644 73.5298
L5.8358 74.1013
" />
<path d="M5.8358 74.1013
L5.8358 73.4822
" />
<path d="M5.8358 73.0060
L5.8358 72.8156
" />
<path d="M5.8358 72.8156
L5.7882 72.7203
" />
<path d="M5.7882 72.7203
L5.7406 72.6727
" />
<path d="M5.7406 72.6727
L5.5977 72.5775
" />
<path d="M5.5977 72.5775
L5.4073 72.5298
" />
<path d="M5.4073 72.5298
L5.0263 72.5298
" />
<path d="M5.0263 72.5298
L4.9311 72.5775
" />
<path d="M4.9311 72.5775
L4.8835 72.6251
" />
<path d="M4.8835 72.6251
L4.8358 72.7203
" />
<path d="M4.8358 72.7203
L4.8358 72.9108
" />
<path d="M4.8358 72.9108
L4.8835 73.0060
" />
<path d="M4.8835 73.0060
L4.9311 73.0537
" />
<path d="M4.9311 73.0537
L5.0263 73.1013
" />
<path d="M5.0263 73.1013
L5.2644 73.1013
" />
<path d="M5.2644 73.1013
L5.3596 73.0537
" />
<path d="M5.3596 73.0537
L5.4073 73.0060
" />
<path d="M5.4073 73.0060
L5.4549 72.9108
" />
<path d="M5.4549 72.9108
L5.4549 72.7203
" />
<path d="M5.4549 72.7203
L5.4073 72.6251
" />
<path d="M5.4073 72.6251
L5.3596 72.5775
" />
<path d="M5.3596 72.5775
L5.2644 72.5298
" />
<path d="M5.8358 71.3394
L5.1692 71.3394
" />
<path d="M5.2644 71.3394
L5.2168 71.2918
" />
<path d="M5.2168 71.2918
L5.1692 71.1965
" />
<path d="M5.1692 71.1965
L5.1692 71.0537
" />
<path d="M5.1692 71.0537
L5.2168 70.9584
" />
<path d="M5.2168 70.9584
L5.3120 70.9108
" />
<path d="M5.3120 70.9108
L5.8358 70.9108
" />
<path d="M5.3120 70.9108
L5.2168 70.8632
" />
<path d="M5.2168 70.8632
L5.1692 70.7679
" />
<path d="M5.1692 70.7679
L5.1692 70.6251
" />
<path d="M5.1692 70.6251
L5.2168 70.5298
" />
<path d="M5.2168 70.5298
L5.3120 70.4822
" />
<path d="M5.3120 70.4822
L5.8358 70.4822
" />
<path d="M5.8358 70.0060
L5.1692 70.0060
" />
<path d="M5.2644 70.0060
L5.2168 69.9584
" />
<path d="M5.2168 69.9584
L5.1692 69.8632
" />
<path d="M5.1692 69.8632
L5.1692 69.7203
" />
<path d="M5.1692 69.7203
L5.2168 69.6251
" />
<path d="M5.2168 69.6251
L5.3120 69.5775
" />
<path d="M5.3120 69.5775
L5.8358 69.5775
" />
<path d="M5.3120 69.5775
L5.2168 69.5298
" />
<path d="M5.2168 69.5298
L5.1692 69.4346
" />
<path d="M5.1692 69.4346
L5.1692 69.2918
" />
<path d="M5.1692 69.2918
L5.2168 69.1965
" />
<path d="M5.2168 69.1965
L5.3120 69.1489
" />
<path d="M5.3120 69.1489
L5.8358 69.1489
" />
</g><path d="M23.2873 148.3130
L5.9368 148.3130
" />
<path d="M23.2873 0.0800
L5.9368 0.0800
" />
<path d="M6.5232 148.3130
L6.5232 0.0800
" />
<path d="M6.5232 148.3130
L6.5232 0.0800
" />
<path d="M6.5232 148.3130
L5.9368 147.1865
" />
<path d="M6.5232 148.3130
L7.1096 147.1865
" />
<path d="M6.5232 0.0800
L7.1096 1.2066
" />
<path d="M6.5232 0.0800
L5.9368 1.2066
" />
<text x="91.6530" y="153.6161"
textLength="10.7464" font-size="1.3333" lengthAdjust="spacingAndGlyphs"
text-anchor="middle" opacity="0">160.7345 mm</text>
<g class="stroked-text"><desc>160.7345 mm</desc>
<path d="M87.1292 153.5787
L86.5577 153.5787
" />
<path d="M86.8434 153.5787
L86.8434 152.5787
" />
<path d="M86.8434 152.5787
L86.7482 152.7216
" />
<path d="M86.7482 152.7216
L86.6530 152.8168
" />
<path d="M86.6530 152.8168
L86.5577 152.8644
" />
<path d="M87.9863 152.5787
L87.7958 152.5787
" />
<path d="M87.7958 152.5787
L87.7006 152.6264
" />
<path d="M87.7006 152.6264
L87.6530 152.6740
" />
<path d="M87.6530 152.6740
L87.5577 152.8168
" />
<path d="M87.5577 152.8168
L87.5101 153.0073
" />
<path d="M87.5101 153.0073
L87.5101 153.3883
" />
<path d="M87.5101 153.3883
L87.5577 153.4835
" />
<path d="M87.5577 153.4835
L87.6054 153.5311
" />
<path d="M87.6054 153.5311
L87.7006 153.5787
" />
<path d="M87.7006 153.5787
L87.8911 153.5787
" />
<path d="M87.8911 153.5787
L87.9863 153.5311
" />
<path d="M87.9863 153.5311
L88.0339 153.4835
" />
<path d="M88.0339 153.4835
L88.0815 153.3883
" />
<path d="M88.0815 153.3883
L88.0815 153.1502
" />
<path d="M88.0815 153.1502
L88.0339 153.0549
" />
<path d="M88.0339 153.0549
L87.9863 153.0073
" />
<path d="M87.9863 153.0073
L87.8911 152.9597
" />
<path d="M87.8911 152.9597
L87.7006 152.9597
" />
<path d="M87.7006 152.9597
L87.6054 153.0073
" />
<path d="M87.6054 153.0073
L87.5577 153.0549
" />
<path d="M87.5577 153.0549
L87.5101 153.1502
" />
<path d="M88.7006 152.5787
L88.7958 152.5787
" />
<path d="M88.7958 152.5787
L88.8911 152.6264
" />
<path d="M88.8911 152.6264
L88.9387 152.6740
" />
<path d="M88.9387 152.6740
L88.9863 152.7692
" />
<path d="M88.9863 152.7692
L89.0339 152.9597
" />
<path d="M89.0339 152.9597
L89.0339 153.1978
" />
<path d="M89.0339 153.1978
L88.9863 153.3883
" />
<path d="M88.9863 153.3883
L88.9387 153.4835
" />
<path d="M88.9387 153.4835
L88.8911 153.5311
" />
<path d="M88.8911 153.5311
L88.7958 153.5787
" />
<path d="M88.7958 153.5787
L88.7006 153.5787
" />
<path d="M88.7006 153.5787
L88.6054 153.5311
" />
<path d="M88.6054 153.5311
L88.5577 153.4835
" />
<path d="M88.5577 153.4835
L88.5101 153.3883
" />
<path d="M88.5101 153.3883
L88.4625 153.1978
" />
<path d="M88.4625 153.1978
L88.4625 152.9597
" />
<path d="M88.4625 152.9597
L88.5101 152.7692
" />
<path d="M88.5101 152.7692
L88.5577 152.6740
" />
<path d="M88.5577 152.6740
L88.6054 152.6264
" />
<path d="M88.6054 152.6264
L88.7006 152.5787
" />
<path d="M89.4625 153.4835
L89.5101 153.5311
" />
<path d="M89.5101 153.5311
L89.4625 153.5787
" />
<path d="M89.4625 153.5787
L89.4149 153.5311
" />
<path d="M89.4149 153.5311
L89.4625 153.4835
" />
<path d="M89.4625 153.4835
L89.4625 153.5787
" />
<path d="M89.8434 152.5787
L90.5101 152.5787
" />
<path d="M90.5101 152.5787
L90.0815 153.5787
" />
<path d="M90.7958 152.5787
L91.4149 152.5787
" />
<path d="M91.4149 152.5787
L91.0815 152.9597
" />
<path d="M91.0815 152.9597
L91.2244 152.9597
" />
<path d="M91.2244 152.9597
L91.3196 153.0073
" />
<path d="M91.3196 153.0073
L91.3673 153.0549
" />
<path d="M91.3673 153.0549
L91.4149 153.1502
" />
<path d="M91.4149 153.1502
L91.4149 153.3883
" />
<path d="M91.4149 153.3883
L91.3673 153.4835
" />
<path d="M91.3673 153.4835
L91.3196 153.5311
" />
<path d="M91.3196 153.5311
L91.2244 153.5787
" />
<path d="M91.2244 153.5787
L90.9387 153.5787
" />
<path d="M90.9387 153.5787
L90.8434 153.5311
" />
<path d="M90.8434 153.5311
L90.7958 153.4835
" />
<path d="M92.2720 152.9121
L92.2720 153.5787
" />
<path d="M92.0339 152.5311
L91.7958 153.2454
" />
<path d="M91.7958 153.2454
L92.4149 153.2454
" />
<path d="M93.2720 152.5787
L92.7958 152.5787
" />
<path d="M92.7958 152.5787
L92.7482 153.0549
" />
<path d="M92.7482 153.0549
L92.7958 153.0073
" />
<path d="M92.7958 153.0073
L92.8911 152.9597
" />
<path d="M92.8911 152.9597
L93.1292 152.9597
" />
<path d="M93.1292 152.9597
L93.2244 153.0073
" />
<path d="M93.2244 153.0073
L93.2720 153.0549
" />
<path d="M93.2720 153.0549
L93.3196 153.1502
" />
<path d="M93.3196 153.1502
L93.3196 153.3883
" />
<path d="M93.3196 153.3883
L93.2720 153.4835
" />
<path d="M93.2720 153.4835
L93.2244 153.5311
" />
<path d="M93.2244 153.5311
L93.1292 153.5787
" />
<path d="M93.1292 153.5787
L92.8911 153.5787
" />
<path d="M92.8911 153.5787
L92.7958 153.5311
" />
<path d="M92.7958 153.5311
L92.7482 153.4835
" />
<path d="M94.5101 153.5787
L94.5101 152.9121
" />
<path d="M94.5101 153.0073
L94.5577 152.9597
" />
<path d="M94.5577 152.9597
L94.6530 152.9121
" />
<path d="M94.6530 152.9121
L94.7958 152.9121
" />
<path d="M94.7958 152.9121
L94.8911 152.9597
" />
<path d="M94.8911 152.9597
L94.9387 153.0549
" />
<path d="M94.9387 153.0549
L94.9387 153.5787
" />
<path d="M94.9387 153.0549
L94.9863 152.9597
" />
<path d="M94.9863 152.9597
L95.0815 152.9121
" />
<path d="M95.0815 152.9121
L95.2244 152.9121
" />
<path d="M95.2244 152.9121
L95.3196 152.9597
" />
<path d="M95.3196 152.9597
L95.3673 153.0549
" />
<path d="M95.3673 153.0549
L95.3673 153.5787
" />
<path d="M95.8434 153.5787
L95.8434 152.9121
" />
<path d="M95.8434 153.0073
L95.8911 152.9597
" />
<path d="M95.8911 152.9597
L95.9863 152.9121
" />
<path d="M95.9863 152.9121
L96.1292 152.9121
" />
<path d="M96.1292 152.9121
L96.2244 152.9597
" />
<path d="M96.2244 152.9597
L96.2720 153.0549
" />
<path d="M96.2720 153.0549
L96.2720 153.5787
" />
<path d="M96.2720 153.0549
L96.3196 152.9597
" />
<path d="M96.3196 152.9597
L96.4149 152.9121
" />
<path d="M96.4149 152.9121
L96.5577 152.9121
" />
<path d="M96.5577 152.9121
L96.6530 152.9597
" />
<path d="M96.6530 152.9597
L96.7006 153.0549
" />
<path d="M96.7006 153.0549
L96.7006 153.5787
" />
</g><path d="M11.2857 141.0739
L11.2857 154.8525
" />
<path d="M172.0202 141.0739
L172.0202 154.8525
" />
<path d="M11.2857 154.2661
L172.0202 154.2661
" />
<path d="M11.2857 154.2661
L172.0202 154.2661
" />
<path d="M11.2857 154.2661
L12.4122 153.6797
" />
<path d="M11.2857 154.2661
L12.4122 154.8525
" />
<path d="M172.0202 154.2661
L170.8937 154.8525
" />
<path d="M172.0202 154.2661
L170.8937 153.6797
" />
<g >
</g>
<g >
</g>
<g >
</g>
<g >
</g>
<g >
</g>
<g >
</g>
<g >
</g>
<g >
</g>
<g >
</g>
<g >
</g>
<g >
</g>
<g >
</g>
<g >
</g>
<g >
</g>
<g >
</g>
<g >
</g>
<g >
</g>
<g >
</g>
<g >
</g>
<g >
</g>
<g >
</g>
<g >
</g>
<g >
</g>
<g >
</g>
<g >
</g>
<g >
</g>
<g >
</g>
<g >
</g>
<g >
</g>
<g >
</g>
<g >
</g>
<g >
</g>
<g >
</g>
<g >
</g>
<g >
</g>
<g >
</g>
<g >
</g>
</g> 
</svg>
