<?xml version="1.0" standalone="no"?>
 <!DOCTYPE svg PUBLIC "-//W3C//DTD SVG 1.1//EN" 
 "http://www.w3.org/Graphics/SVG/1.1/DTD/svg11.dtd"> 
<svg
  xmlns:svg="http://www.w3.org/2000/svg"
  xmlns="http://www.w3.org/2000/svg"
  xmlns:xlink="http://www.w3.org/1999/xlink"
  version="1.1"
  width="173.9900mm" height="154.9146mm" viewBox="0.0000 0.0000 173.9900 154.9146">
<title>SVG Image created as mykeeb_v7a3-plate-Edge_Cuts.svg date 2023/05/24 14:07:12 </title>
  <desc>Image generated by PCBNEW </desc>
<g style="fill:#000000; fill-opacity:1.0000;stroke:#000000; stroke-opacity:1.0000;
stroke-linecap:round; stroke-linejoin:round;"
 transform="translate(0 0) scale(1 1)">
</g>
<g style="fill:#000000; fill-opacity:0.0; 
stroke:#000000; stroke-width:0.0000; stroke-opacity:1; 
stroke-linecap:round; stroke-linejoin:round;">
</g>
<g style="fill:#000000; fill-opacity:0.0; 
stroke:#000000; stroke-width:0.1600; stroke-opacity:1; 
stroke-linecap:round; stroke-linejoin:round;">
<path d="M168.4483 107.8317 A3.5719 3.5719 0.0 0 0 172.0201 104.2598" />
<path d="M136.8970 19.7252 A3.5717 3.5717 0.0 0 0 140.4689 23.2971" />
</g>
<g style="fill:#000000; fill-opacity:0.0; 
stroke:#000000; stroke-width:0.1000; stroke-opacity:1; 
stroke-linecap:round; stroke-linejoin:round;">
<path d="M91.2576 104.9062 A1.1906 1.1906 0.0 0 0 93.4389 105.5667" />
</g>
<g style="fill:#000000; fill-opacity:0.0; 
stroke:#000000; stroke-width:0.1600; stroke-opacity:1; 
stroke-linecap:round; stroke-linejoin:round;">
<path d="M141.0639 117.3567 A3.5718 3.5718 0.0 0 0 144.6358 120.9286" />
<path d="M39.0177,132.7357 C36.2890,135.6131 34.2050,137.9941 28.4478,147.6652" />
</g>
<g style="fill:#000000; fill-opacity:0.0; 
stroke:#000000; stroke-width:0.1000; stroke-opacity:1; 
stroke-linecap:round; stroke-linejoin:round;">
<path d="M163.0905 5.4378
L169.6389 5.4379
" />
</g>
<g style="fill:#000000; fill-opacity:0.0; 
stroke:#000000; stroke-width:0.1600; stroke-opacity:1; 
stroke-linecap:round; stroke-linejoin:round;">
<path d="M15.4529 97.7114
L37.6239 80.5918
" />
</g>
<g style="fill:#000000; fill-opacity:0.0; 
stroke:#000000; stroke-width:0.1000; stroke-opacity:1; 
stroke-linecap:round; stroke-linejoin:round;">
<path d="M136.8970 19.7252
L136.8968 7.8191
" />
</g>
<g style="fill:#000000; fill-opacity:0.0; 
stroke:#000000; stroke-width:0.1600; stroke-opacity:1; 
stroke-linecap:round; stroke-linejoin:round;">
<path d="M37.6239 80.5917 A3.5722 3.5722 0.0 0 0 38.6701 78.0661" />
<path d="M136.8968 7.8191 A2.3813 2.3813 0.0 0 0 134.5155 5.4379" />
<path d="M54.4459,118.9439 C51.6677,120.7297 50.0804,121.9204 47.6000,124.2026" />
<path d="M168.4483 107.8316 A3.5720 3.5720 0.0 0 0 164.8764 111.4036" />
<path d="M13.6718 100.6951
L11.6534 140.0050
" />
<path d="M111.2983 117.2402
L119.1164 105.9327
" />
<path d="M13.8359 143.7132
L24.9779 148.9083
" />
</g>
<g style="fill:#000000; fill-opacity:0.0; 
stroke:#000000; stroke-width:0.1000; stroke-opacity:1; 
stroke-linecap:round; stroke-linejoin:round;">
<path d="M155.9468 23.2973
L140.4689 23.2971
" />
</g>
<g style="fill:#000000; fill-opacity:0.0; 
stroke:#000000; stroke-width:0.1600; stroke-opacity:1; 
stroke-linecap:round; stroke-linejoin:round;">
<path d="M141.0640 107.8317 A3.5720 3.5720 0.0 0 0 137.4921 104.2598" />
<path d="M144.6358 120.9286
L161.3046 120.9286
" />
<path d="M173.8062,63.7785 C173.8062,76.2801 172.0202,92.3536 172.0201,104.2598" />
<path d="M173.8062 44.1332
L173.8062 63.7785
" />
</g>
<g style="fill:#000000; fill-opacity:0.0; 
stroke:#000000; stroke-width:0.1000; stroke-opacity:1; 
stroke-linecap:round; stroke-linejoin:round;">
<path d="M69.2814 100.1437 A2.3813 2.3813 0.0 1 0 64.8582 101.3689" />
<path d="M69.2814 100.1437
L69.2814 104.9062
" />
</g>
<g style="fill:#000000; fill-opacity:0.0; 
stroke:#000000; stroke-width:0.1600; stroke-opacity:1; 
stroke-linecap:round; stroke-linejoin:round;">
<path d="M141.0639 117.3567
L141.0640 107.8317
" />
<path d="M164.8764 117.3567
L164.8764 111.4036
" />
<path d="M163.0905 5.4378 A3.5719 3.5719 0.0 0 0 159.5187 9.0098" />
<path d="M64.6657,113.3881 C61.1930,114.7771 57.2240,117.1581 54.4459,118.9439" />
<path d="M106.4190 118.5473 A3.5721 3.5721 0.0 0 0 111.2983 117.2402" />
</g>
<g style="fill:#000000; fill-opacity:0.0; 
stroke:#000000; stroke-width:0.1000; stroke-opacity:1; 
stroke-linecap:round; stroke-linejoin:round;">
<path d="M45.8139 23.2973
L42.2420 23.2972
" />
<path d="M95.6807 101.3688 A2.3812 2.3812 0.0 1 0 91.2576 100.1437" />
<path d="M91.2576 104.9062
L91.2576 100.1437
" />
<path d="M42.2420 23.2972 A3.5718 3.5718 0.0 0 0 38.6701 26.8691" />
</g>
<g style="fill:#000000; fill-opacity:0.0; 
stroke:#000000; stroke-width:0.1600; stroke-opacity:1; 
stroke-linecap:round; stroke-linejoin:round;">
<path d="M15.4529 97.7114 A4.1337 4.1337 0.0 0 0 13.6718 100.6951" />
<path d="M106.4190,118.5473 C96.7130,112.3961 92.5460,111.8006 88.0812,111.5028" />
</g>
<g style="fill:#000000; fill-opacity:0.0; 
stroke:#000000; stroke-width:0.1000; stroke-opacity:1; 
stroke-linecap:round; stroke-linejoin:round;">
<path d="M137.4921 104.2598
L122.0139 104.2598
" />
</g>
<g style="fill:#000000; fill-opacity:0.0; 
stroke:#000000; stroke-width:0.1600; stroke-opacity:1; 
stroke-linecap:round; stroke-linejoin:round;">
<path d="M74.9842,111.4036 C71.1147,111.6021 68.1384,111.9991 64.6657,113.3881" />
</g>
<g style="fill:#000000; fill-opacity:0.0; 
stroke:#000000; stroke-width:0.1000; stroke-opacity:1; 
stroke-linecap:round; stroke-linejoin:round;">
<path d="M52.9576 12.5816
L83.9139 12.5817
" />
</g>
<g style="fill:#000000; fill-opacity:0.0; 
stroke:#000000; stroke-width:0.1600; stroke-opacity:1; 
stroke-linecap:round; stroke-linejoin:round;">
<path d="M155.9468 23.2973 A3.5718 3.5718 0.0 0 0 159.5187 19.7254" />
<path d="M122.0139 104.2598 A3.3458 3.3458 0.0 0 0 119.1164 105.9327" />
</g>
<g style="fill:#000000; fill-opacity:0.0; 
stroke:#000000; stroke-width:0.1000; stroke-opacity:1; 
stroke-linecap:round; stroke-linejoin:round;">
<path d="M67.1001 105.5666 A1.1906 1.1906 0.0 0 0 69.2814 104.9062" />
</g>
<g style="fill:#000000; fill-opacity:0.0; 
stroke:#000000; stroke-width:0.1600; stroke-opacity:1; 
stroke-linecap:round; stroke-linejoin:round;">
<path d="M52.9576 12.5816 A3.5718 3.5718 0.0 0 0 49.3858 16.1535" />
</g>
<g style="fill:#000000; fill-opacity:0.0; 
stroke:#000000; stroke-width:0.1000; stroke-opacity:1; 
stroke-linecap:round; stroke-linejoin:round;">
<path d="M64.8582 101.3689
L67.1001 105.5667
" />
</g>
<g style="fill:#000000; fill-opacity:0.0; 
stroke:#000000; stroke-width:0.1600; stroke-opacity:1; 
stroke-linecap:round; stroke-linejoin:round;">
<path d="M11.6534 140.0050 A3.7904 3.7904 0.0 0 0 13.8359 143.7132" />
<path d="M47.6000,124.2026 C45.1197,126.4847 41.7464,129.8584 39.0177,132.7357" />
</g>
<g style="fill:#000000; fill-opacity:0.0; 
stroke:#000000; stroke-width:0.1000; stroke-opacity:1; 
stroke-linecap:round; stroke-linejoin:round;">
<path d="M159.5187 9.0098
L159.5187 19.7254
" />
</g>
<g style="fill:#000000; fill-opacity:0.0; 
stroke:#000000; stroke-width:0.1600; stroke-opacity:1; 
stroke-linecap:round; stroke-linejoin:round;">
<path d="M88.0812,111.5028 C83.6164,111.2051 78.8537,111.2051 74.9842,111.4036" />
</g>
<g style="fill:#000000; fill-opacity:0.0; 
stroke:#000000; stroke-width:0.1000; stroke-opacity:1; 
stroke-linecap:round; stroke-linejoin:round;">
<path d="M49.3857 19.7253
L49.3857 16.1535
" />
</g>
<g style="fill:#000000; fill-opacity:0.0; 
stroke:#000000; stroke-width:0.1600; stroke-opacity:1; 
stroke-linecap:round; stroke-linejoin:round;">
<path d="M24.9779 148.9084 A2.6223 2.6223 0.0 0 0 28.4478 147.6652" />
<path d="M172.0202 7.8192 A2.3812 2.3812 0.0 0 0 169.6389 5.4379" />
<path d="M172.0202,7.8192 C172.0202,32.8223 173.8062,35.2035 173.8062,44.1332" />
<path d="M91.0577 5.4378 A3.5719 3.5719 0.0 0 0 87.4858 9.0098" />
<path d="M45.8139 23.2972 A3.5718 3.5718 0.0 0 0 49.3857 19.7253" />
<path d="M83.9139 12.5817 A3.5717 3.5717 0.0 0 0 87.4858 9.0098" />
</g>
<g style="fill:#000000; fill-opacity:0.0; 
stroke:#000000; stroke-width:0.1000; stroke-opacity:1; 
stroke-linecap:round; stroke-linejoin:round;">
<path d="M91.0577 5.4379
L134.5155 5.4379
" />
</g>
<g style="fill:#000000; fill-opacity:0.0; 
stroke:#000000; stroke-width:0.1600; stroke-opacity:1; 
stroke-linecap:round; stroke-linejoin:round;">
<path d="M161.3046 120.9287 A3.5719 3.5719 0.0 0 0 164.8764 117.3567" />
</g>
<g style="fill:#000000; fill-opacity:0.0; 
stroke:#000000; stroke-width:0.1000; stroke-opacity:1; 
stroke-linecap:round; stroke-linejoin:round;">
<path d="M38.6701 26.8691
L38.6701 78.0661
" />
<path d="M93.4389 105.5667
L95.6808 101.3689
" />
</g>
<g style="fill:#000000; fill-opacity:0.0; 
stroke:#000000; stroke-width:0.1200; stroke-opacity:1; 
stroke-linecap:round; stroke-linejoin:round;">
<path d="M45.2769 104.1078
L52.2769 116.2322
" />
<path d="M52.2769 116.2322
L64.4012 109.2322
" />
<path d="M57.4012 97.1078
L45.2769 104.1078
" />
<path d="M64.4012 109.2322
L57.4012 97.1078
" />
<path d="M156.0378 59.3553
L169.9845 60.5755
" />
<path d="M169.9845 60.5755
L171.2047 46.6287
" />
<path d="M157.2580 45.4086
L156.0378 59.3553
" />
<path d="M171.2047 46.6287
L157.2580 45.4086
" />
<path d="M117.3952 32.9660
L117.3952 46.9660
" />
<path d="M117.3952 46.9660
L131.3952 46.9660
" />
<path d="M131.3952 32.9660
L117.3952 32.9660
" />
<path d="M131.3952 46.9660
L131.3952 32.9660
" />
<path d="M136.4452 63.9223
L136.4452 77.9223
" />
<path d="M136.4452 77.9223
L150.4452 77.9223
" />
<path d="M150.4452 63.9223
L136.4452 63.9223
" />
<path d="M150.4452 77.9223
L150.4452 63.9223
" />
<path d="M79.2952 34.1567
L79.2952 48.1567
" />
<path d="M79.2952 48.1567
L93.2952 48.1567
" />
<path d="M93.2952 34.1567
L79.2952 34.1567
" />
<path d="M93.2952 48.1567
L93.2952 34.1567
" />
<path d="M136.4452 82.9723
L136.4452 96.9723
" />
<path d="M136.4452 96.9723
L150.4452 96.9723
" />
<path d="M150.4452 82.9723
L136.4452 82.9723
" />
<path d="M150.4452 96.9723
L150.4452 82.9723
" />
<path d="M98.3451 7.9629
L98.3451 21.9629
" />
<path d="M98.3451 21.9629
L112.3451 21.9629
" />
<path d="M112.3451 7.9629
L98.3451 7.9629
" />
<path d="M112.3451 21.9629
L112.3451 7.9629
" />
<path d="M155.4952 99.3535
L169.4952 99.3535
" />
<path d="M169.4952 99.3535
L169.4952 85.3535
" />
<path d="M155.4952 85.3535
L155.4952 99.3535
" />
<path d="M169.4952 85.3535
L155.4952 85.3535
" />
<path d="M155.4952 39.8223
L169.4952 39.8223
" />
<path d="M169.4952 39.8223
L169.4952 25.8223
" />
<path d="M155.4952 25.8223
L155.4952 39.8223
" />
<path d="M169.4952 25.8223
L155.4952 25.8223
" />
<path d="M73.3420 93.6880
L73.3420 107.6880
" />
<path d="M73.3420 107.6880
L87.3420 107.6880
" />
<path d="M87.3420 93.6880
L73.3420 93.6880
" />
<path d="M87.3420 107.6880
L87.3420 93.6880
" />
<path d="M55.1951 74.6380
L41.1951 74.6380
" />
<path d="M41.1951 74.6380
L41.1951 88.6380
" />
<path d="M55.1951 88.6380
L55.1951 74.6380
" />
<path d="M41.1951 88.6380
L55.1951 88.6380
" />
<path d="M27.5800 119.7379
L37.4795 129.6374
" />
<path d="M37.4795 129.6374
L47.3790 119.7379
" />
<path d="M37.4795 109.8384
L27.5800 119.7379
" />
<path d="M47.3790 119.7379
L37.4795 109.8384
" />
<path d="M136.4451 25.8223
L136.4451 39.8223
" />
<path d="M136.4451 39.8223
L150.4451 39.8223
" />
<path d="M150.4451 25.8223
L136.4451 25.8223
" />
<path d="M150.4451 39.8223
L150.4451 25.8223
" />
<path d="M14.2250 139.5643
L26.3493 146.5643
" />
<path d="M26.3493 146.5643
L33.3494 134.4399
" />
<path d="M21.2250 127.4399
L14.2250 139.5643
" />
<path d="M33.3494 134.4399
L21.2250 127.4399
" />
<path d="M36.2610 102.7484
L27.8356 91.5675
" />
<path d="M27.8356 91.5675
L16.6547 99.9929
" />
<path d="M25.0801 111.1738
L36.2610 102.7484
" />
<path d="M16.6547 99.9929
L25.0801 111.1738
" />
<path d="M60.2452 74.6379
L60.2452 88.6379
" />
<path d="M60.2452 88.6379
L74.2452 88.6379
" />
<path d="M74.2452 74.6379
L60.2452 74.6379
" />
<path d="M74.2452 88.6379
L74.2452 74.6379
" />
<path d="M98.3452 65.1129
L98.3452 79.1129
" />
<path d="M98.3452 79.1129
L112.3452 79.1129
" />
<path d="M112.3452 65.1129
L98.3452 65.1129
" />
<path d="M112.3452 79.1129
L112.3452 65.1129
" />
<path d="M79.2952 53.2067
L79.2952 67.2067
" />
<path d="M79.2952 67.2067
L93.2952 67.2067
" />
<path d="M93.2952 53.2067
L79.2952 53.2067
" />
<path d="M93.2952 67.2067
L93.2952 53.2067
" />
<path d="M60.2452 55.5879
L60.2452 69.5879
" />
<path d="M60.2452 69.5879
L74.2452 69.5879
" />
<path d="M74.2452 55.5879
L60.2452 55.5879
" />
<path d="M74.2452 69.5879
L74.2452 55.5879
" />
<path d="M98.3452 46.0629
L98.3452 60.0629
" />
<path d="M98.3452 60.0629
L112.3452 60.0629
" />
<path d="M112.3452 46.0629
L98.3452 46.0629
" />
<path d="M112.3452 60.0629
L112.3452 46.0629
" />
<path d="M117.3952 52.0160
L117.3952 66.0160
" />
<path d="M117.3952 66.0160
L131.3952 66.0160
" />
<path d="M131.3952 52.0160
L117.3952 52.0160
" />
<path d="M131.3952 66.0160
L131.3952 52.0160
" />
<path d="M60.2451 17.4879
L60.2451 31.4879
" />
<path d="M60.2451 31.4879
L74.2451 31.4879
" />
<path d="M74.2451 17.4879
L60.2451 17.4879
" />
<path d="M74.2451 31.4879
L74.2451 17.4879
" />
<path d="M55.1952 27.0129
L41.1952 27.0129
" />
<path d="M41.1952 27.0129
L41.1952 41.0129
" />
<path d="M55.1952 41.0129
L55.1952 27.0129
" />
<path d="M41.1952 41.0129
L55.1952 41.0129
" />
<path d="M79.2952 72.2567
L79.2952 86.2567
" />
<path d="M79.2952 86.2567
L93.2952 86.2567
" />
<path d="M93.2952 72.2567
L79.2952 72.2567
" />
<path d="M93.2952 86.2567
L93.2952 72.2567
" />
<path d="M117.3952 71.0660
L117.3952 85.0660
" />
<path d="M117.3952 85.0660
L131.3952 85.0660
" />
<path d="M131.3952 71.0660
L117.3952 71.0660
" />
<path d="M131.3952 85.0660
L131.3952 71.0660
" />
<path d="M117.3951 13.9160
L117.3951 27.9160
" />
<path d="M117.3951 27.9160
L131.3951 27.9160
" />
<path d="M131.3951 13.9160
L117.3951 13.9160
" />
<path d="M131.3951 27.9160
L131.3951 13.9160
" />
<path d="M156.0378 78.5381
L169.9845 79.7583
" />
<path d="M169.9845 79.7583
L171.2047 65.8115
" />
<path d="M157.2580 64.5914
L156.0378 78.5381
" />
<path d="M171.2047 65.8115
L157.2580 64.5914
" />
<path d="M55.1952 50.8254
L41.1952 50.8254
" />
<path d="M41.1952 50.8254
L41.1952 64.8254
" />
<path d="M55.1952 64.8254
L55.1952 50.8254
" />
<path d="M41.1952 64.8254
L55.1952 64.8254
" />
<path d="M102.7829 97.1500
L95.7829 109.2744
" />
<path d="M95.7829 109.2744
L107.9072 116.2744
" />
<path d="M114.9072 104.1500
L102.7829 97.1500
" />
<path d="M107.9072 116.2744
L114.9072 104.1500
" />
<path d="M145.9702 104.4036
L145.9702 118.4036
" />
<path d="M145.9702 118.4036
L159.9702 118.4036
" />
<path d="M159.9702 104.4036
L145.9702 104.4036
" />
<path d="M159.9702 118.4036
L159.9702 104.4036
" />
<path d="M136.4452 44.8723
L136.4452 58.8723
" />
<path d="M136.4452 58.8723
L150.4452 58.8723
" />
<path d="M150.4452 44.8723
L136.4452 44.8723
" />
<path d="M150.4452 58.8723
L150.4452 44.8723
" />
<path d="M98.3452 27.0129
L98.3452 41.0129
" />
<path d="M98.3452 41.0129
L112.3452 41.0129
" />
<path d="M112.3452 27.0129
L98.3452 27.0129
" />
<path d="M112.3452 41.0129
L112.3452 27.0129
" />
<path d="M79.2951 15.1067
L79.2951 29.1067
" />
<path d="M79.2951 29.1067
L93.2951 29.1067
" />
<path d="M93.2951 15.1067
L79.2951 15.1067
" />
<path d="M93.2951 29.1067
L93.2951 15.1067
" />
<path d="M74.2452 50.5379
L60.2452 50.5379
" />
<path d="M74.2452 36.5379
L74.2452 50.5379
" />
<path d="M60.2452 50.5379
L60.2452 36.5379
" />
<path d="M60.2452 36.5379
L74.2452 36.5379
" />
<g >
</g>
<g >
</g>
<g >
</g>
<g >
</g>
<g >
</g>
<g >
</g>
<g >
</g>
<g >
</g>
<g >
</g>
<g >
</g>
<g >
</g>
<g >
</g>
<g >
</g>
<g >
</g>
<g >
</g>
<g >
</g>
<g >
</g>
<g >
</g>
<g >
</g>
<g >
</g>
<g >
</g>
<g >
</g>
<g >
</g>
<g >
</g>
<g >
</g>
<g >
</g>
<g >
</g>
<g >
</g>
<g >
</g>
<g >
</g>
<g >
</g>
<g >
</g>
<g >
</g>
<g >
</g>
<g >
</g>
<g >
</g>
<g >
</g>
<g >
</g>
<g >
</g>
<g >
</g>
<g >
</g>
<g >
</g>
<g >
</g>
<g >
</g>
<g >
</g>
<g >
</g>
<g >
</g>
<g >
</g>
</g> 
</svg>
