G04 #@! TF.GenerationSoftware,KiCad,Pcbnew,7.0.2*
G04 #@! TF.CreationDate,2023-05-25T14:20:49+02:00*
G04 #@! TF.ProjectId,mykeeb_v7a3-plate,6d796b65-6562-45f7-9637-61332d706c61,rev?*
G04 #@! TF.SameCoordinates,Original*
G04 #@! TF.FileFunction,Profile,NP*
%FSLAX46Y46*%
G04 Gerber Fmt 4.6, Leading zero omitted, Abs format (unit mm)*
G04 Created by KiCad (PCBNEW 7.0.2) date 2023-05-25 14:20:49*
%MOMM*%
%LPD*%
G01*
G04 APERTURE LIST*
G04 #@! TA.AperFunction,Profile*
%ADD10C,0.160000*%
G04 #@! TD*
G04 #@! TA.AperFunction,Profile*
%ADD11C,0.100000*%
G04 #@! TD*
%ADD12C,0.160000*%
G04 #@! TA.AperFunction,Profile*
%ADD13C,0.120000*%
G04 #@! TD*
G04 APERTURE END LIST*
D10*
X214907913Y-138112591D02*
G75*
G03*
X218479791Y-134540738I-13J3571891D01*
G01*
X183356634Y-50006088D02*
G75*
G03*
X186928523Y-53577966I3571666J-212D01*
G01*
D11*
X137717258Y-135187138D02*
G75*
G03*
X139898554Y-135847579I1190642J38D01*
G01*
D10*
X187523498Y-147637624D02*
G75*
G03*
X191095441Y-151209502I3571802J-76D01*
G01*
D12*
X85477352Y-163016661D02*
X85223296Y-163285194D01*
X84972227Y-163552245D01*
X84723354Y-163819239D01*
X84475887Y-164087603D01*
X84229034Y-164358761D01*
X83982006Y-164634139D01*
X83734011Y-164915164D01*
X83484259Y-165203261D01*
X83231960Y-165499855D01*
X82976322Y-165806373D01*
X82716555Y-166124240D01*
X82451869Y-166454881D01*
X82181472Y-166799724D01*
X81904575Y-167160193D01*
X81620386Y-167537713D01*
X81328115Y-167933712D01*
X81026971Y-168349614D01*
X80716164Y-168786846D01*
X80394903Y-169246833D01*
X80062398Y-169731000D01*
X79717857Y-170240774D01*
X79360490Y-170777580D01*
X78989507Y-171342844D01*
X78604117Y-171937992D01*
X78203529Y-172564449D01*
X77786952Y-173223641D01*
X77353597Y-173916995D01*
X76902672Y-174645935D01*
X76433386Y-175411887D01*
X75944950Y-176216277D01*
X75436572Y-177060532D01*
X74907463Y-177946076D01*
D11*
X209550176Y-35718756D02*
X216098583Y-35718780D01*
D10*
X61912552Y-127992295D02*
X84083565Y-110872662D01*
D11*
X183356598Y-50006088D02*
X183356404Y-38100032D01*
D10*
X84083549Y-110872646D02*
G75*
G03*
X85129759Y-108346966I-2525949J2525846D01*
G01*
X183356420Y-38100032D02*
G75*
G03*
X180975103Y-35718780I-2381320J-68D01*
G01*
D12*
X100905518Y-149224827D02*
X100648490Y-149390556D01*
X100398058Y-149553108D01*
X100153840Y-149712789D01*
X99915456Y-149869910D01*
X99682522Y-150024779D01*
X99454658Y-150177705D01*
X99231483Y-150328996D01*
X99012614Y-150478962D01*
X98797670Y-150627912D01*
X98586270Y-150776153D01*
X98378032Y-150923996D01*
X98172573Y-151071749D01*
X97969514Y-151219720D01*
X97768472Y-151368219D01*
X97569066Y-151517554D01*
X97370914Y-151668035D01*
X97173634Y-151819970D01*
X96976845Y-151973668D01*
X96780166Y-152129437D01*
X96583215Y-152287587D01*
X96385610Y-152448427D01*
X96186969Y-152612265D01*
X95986912Y-152779410D01*
X95785057Y-152950170D01*
X95581021Y-153124856D01*
X95374425Y-153303776D01*
X95164885Y-153487238D01*
X94952020Y-153675551D01*
X94735449Y-153869024D01*
X94514791Y-154067966D01*
X94289663Y-154272687D01*
X94059685Y-154483494D01*
D10*
X214907913Y-138112535D02*
G75*
G03*
X211336035Y-141684493I87J-3571965D01*
G01*
X60131466Y-130975967D02*
X58113087Y-170285896D01*
X157757945Y-147521159D02*
X165576014Y-136213637D01*
X60295583Y-173994112D02*
X71437560Y-179189213D01*
D11*
X202406420Y-53578217D02*
X186928523Y-53577966D01*
D10*
X187523662Y-138112616D02*
G75*
G03*
X183951717Y-134540738I-3571962J-84D01*
G01*
X191095441Y-151209502D02*
X207764205Y-151209549D01*
D12*
X220265810Y-94059454D02*
X220260686Y-95241704D01*
X220245753Y-96443467D01*
X220221662Y-97663324D01*
X220189070Y-98899860D01*
X220148629Y-100151656D01*
X220100993Y-101417295D01*
X220046817Y-102695362D01*
X219986755Y-103984437D01*
X219921461Y-105283106D01*
X219851588Y-106589949D01*
X219777791Y-107903551D01*
X219700723Y-109222494D01*
X219621039Y-110545362D01*
X219539393Y-111870736D01*
X219456439Y-113197200D01*
X219372830Y-114523338D01*
X219289221Y-115847731D01*
X219206266Y-117168963D01*
X219124619Y-118485618D01*
X219044933Y-119796276D01*
X218967864Y-121099523D01*
X218894064Y-122393940D01*
X218824188Y-123678110D01*
X218758890Y-124950617D01*
X218698824Y-126210044D01*
X218644643Y-127454972D01*
X218597003Y-128683986D01*
X218556556Y-129895668D01*
X218523958Y-131088602D01*
X218499862Y-132261369D01*
X218484921Y-133412553D01*
X218479791Y-134540738D01*
D10*
X220265810Y-74414125D02*
X220265810Y-94059454D01*
D11*
X115741014Y-130424634D02*
G75*
G03*
X111317854Y-131649780I-2381254J4D01*
G01*
X115741010Y-130424634D02*
X115741010Y-135187138D01*
D10*
X187523516Y-147637624D02*
X187523642Y-138112616D01*
X211336083Y-147637624D02*
X211336035Y-141684493D01*
X209550176Y-35718698D02*
G75*
G03*
X205978298Y-39290681I24J-3571902D01*
G01*
D12*
X111125352Y-143668994D02*
X110798386Y-143802070D01*
X110468822Y-143940669D01*
X110136967Y-144084498D01*
X109803131Y-144233269D01*
X109467622Y-144386689D01*
X109130750Y-144544469D01*
X108792823Y-144706317D01*
X108454151Y-144871944D01*
X108115041Y-145041058D01*
X107775804Y-145213370D01*
X107436748Y-145388587D01*
X107098182Y-145566420D01*
X106760415Y-145746579D01*
X106423756Y-145928771D01*
X106088514Y-146112708D01*
X105754997Y-146298098D01*
X105423515Y-146484650D01*
X105094377Y-146672074D01*
X104767891Y-146860080D01*
X104444366Y-147048377D01*
X104124112Y-147236673D01*
X103807438Y-147424679D01*
X103494651Y-147612104D01*
X103186062Y-147798657D01*
X102881979Y-147984048D01*
X102582711Y-148167986D01*
X102288566Y-148350181D01*
X101999855Y-148530341D01*
X101716886Y-148708176D01*
X101439967Y-148883396D01*
X101169408Y-149055709D01*
X100905518Y-149224827D01*
D10*
X152878688Y-148828203D02*
G75*
G03*
X157757945Y-147521159I1786012J3093503D01*
G01*
D11*
X92273515Y-53578170D02*
X88701637Y-53578154D01*
X142140378Y-131649753D02*
G75*
G03*
X137717268Y-130424634I-2041878J1225153D01*
G01*
X137717268Y-135187138D02*
X137717268Y-130424634D01*
X88701637Y-53578159D02*
G75*
G03*
X85129759Y-57150032I-37J-3571841D01*
G01*
D10*
X61912550Y-127992293D02*
G75*
G03*
X60131466Y-130975967I2330150J-3414407D01*
G01*
D12*
X152878661Y-148828250D02*
X151984775Y-148267685D01*
X151122275Y-147738712D01*
X150290093Y-147240366D01*
X149487159Y-146771685D01*
X148712405Y-146331706D01*
X147964763Y-145919467D01*
X147243163Y-145534004D01*
X146546536Y-145174355D01*
X145873815Y-144839558D01*
X145223930Y-144528648D01*
X144595812Y-144240664D01*
X143988393Y-143974643D01*
X143400603Y-143729622D01*
X142831375Y-143504639D01*
X142279639Y-143298729D01*
X141744327Y-143110932D01*
X141224370Y-142940283D01*
X140718699Y-142785821D01*
X140226246Y-142646582D01*
X139745941Y-142521603D01*
X139276716Y-142409923D01*
X138817502Y-142310577D01*
X138367231Y-142222604D01*
X137924833Y-142145040D01*
X137489240Y-142076924D01*
X137059383Y-142017291D01*
X136634194Y-141965179D01*
X136212603Y-141919626D01*
X135793542Y-141879669D01*
X135375942Y-141844345D01*
X134958735Y-141812690D01*
X134540852Y-141783744D01*
D11*
X183951717Y-134540738D02*
X168473579Y-134540738D01*
D12*
X121443852Y-141684494D02*
X121083660Y-141703709D01*
X120728448Y-141724232D01*
X120377960Y-141746209D01*
X120031942Y-141769785D01*
X119690140Y-141795106D01*
X119352300Y-141822316D01*
X119018166Y-141851561D01*
X118687484Y-141882986D01*
X118360001Y-141916736D01*
X118035461Y-141952957D01*
X117713610Y-141991794D01*
X117394194Y-142033393D01*
X117076958Y-142077898D01*
X116761649Y-142125455D01*
X116448010Y-142176209D01*
X116135789Y-142230306D01*
X115824730Y-142287891D01*
X115514579Y-142349108D01*
X115205083Y-142414104D01*
X114895985Y-142483024D01*
X114587032Y-142556012D01*
X114277970Y-142633215D01*
X113968544Y-142714778D01*
X113658500Y-142800845D01*
X113347582Y-142891563D01*
X113035538Y-142987075D01*
X112722112Y-143087529D01*
X112407050Y-143193069D01*
X112090097Y-143303840D01*
X111770999Y-143419987D01*
X111449502Y-143541657D01*
X111125352Y-143668994D01*
D11*
X99417271Y-42862489D02*
X130373547Y-42862630D01*
D10*
X202406420Y-53578198D02*
G75*
G03*
X205978298Y-50006292I80J3571798D01*
G01*
X168473579Y-134540686D02*
G75*
G03*
X165576015Y-136213637I21J-3345814D01*
G01*
D11*
X113559765Y-135847551D02*
G75*
G03*
X115741010Y-135187138I990635J660451D01*
G01*
D10*
X99417271Y-42862493D02*
G75*
G03*
X95845393Y-46434414I-71J-3571807D01*
G01*
D11*
X111317854Y-131649780D02*
X113559723Y-135847579D01*
D10*
X58113088Y-170285896D02*
G75*
G03*
X60295583Y-173994110I3780712J-271204D01*
G01*
D12*
X94059685Y-154483494D02*
X93824584Y-154700596D01*
X93584533Y-154923803D01*
X93339812Y-155152824D01*
X93090703Y-155387369D01*
X92837489Y-155627146D01*
X92580449Y-155871865D01*
X92319867Y-156121235D01*
X92056023Y-156374965D01*
X91789199Y-156632765D01*
X91519677Y-156894343D01*
X91247738Y-157159410D01*
X90973663Y-157427674D01*
X90697735Y-157698845D01*
X90420234Y-157972632D01*
X90141443Y-158248743D01*
X89861643Y-158526889D01*
X89581115Y-158806779D01*
X89300141Y-159088122D01*
X89019003Y-159370627D01*
X88737982Y-159654003D01*
X88457360Y-159937960D01*
X88177418Y-160222207D01*
X87898437Y-160506453D01*
X87620700Y-160790408D01*
X87344488Y-161073780D01*
X87070082Y-161356279D01*
X86797765Y-161637615D01*
X86527817Y-161917496D01*
X86260520Y-162195632D01*
X85996156Y-162471732D01*
X85735006Y-162745505D01*
X85477352Y-163016661D01*
D11*
X205978298Y-39290681D02*
X205978298Y-50006292D01*
D12*
X134540852Y-141783744D02*
X134121437Y-141756699D01*
X133700496Y-141731380D01*
X133278245Y-141707770D01*
X132854904Y-141685850D01*
X132430690Y-141665602D01*
X132005821Y-141647008D01*
X131580516Y-141630050D01*
X131154992Y-141614708D01*
X130729467Y-141600966D01*
X130304161Y-141588805D01*
X129879289Y-141578207D01*
X129455072Y-141569154D01*
X129031726Y-141561627D01*
X128609471Y-141555609D01*
X128188523Y-141551081D01*
X127769101Y-141548025D01*
X127351424Y-141546422D01*
X126935708Y-141546256D01*
X126522173Y-141547507D01*
X126111037Y-141550157D01*
X125702517Y-141554188D01*
X125296831Y-141559583D01*
X124894198Y-141566322D01*
X124494836Y-141574388D01*
X124098962Y-141583762D01*
X123706796Y-141594427D01*
X123318554Y-141606364D01*
X122934455Y-141619555D01*
X122554717Y-141633981D01*
X122179559Y-141649625D01*
X121809197Y-141666469D01*
X121443852Y-141684494D01*
D11*
X95845393Y-50006245D02*
X95845393Y-46434414D01*
D10*
X71437532Y-179189273D02*
G75*
G03*
X74907462Y-177946076I1105768J2377773D01*
G01*
X218479820Y-38100064D02*
G75*
G03*
X216098583Y-35718780I-2381220J64D01*
G01*
D12*
X218479871Y-38100064D02*
X218484994Y-40378721D01*
X218499927Y-42530169D01*
X218524018Y-44559750D01*
X218556610Y-46472805D01*
X218597051Y-48274674D01*
X218644686Y-49970700D01*
X218698862Y-51566224D01*
X218758923Y-53066586D01*
X218824218Y-54477128D01*
X218894090Y-55803191D01*
X218967886Y-57050117D01*
X219044953Y-58223247D01*
X219124635Y-59327921D01*
X219206280Y-60369481D01*
X219289233Y-61353269D01*
X219372840Y-62284626D01*
X219456447Y-63168893D01*
X219539400Y-64011410D01*
X219621045Y-64817520D01*
X219700727Y-65592564D01*
X219777794Y-66341883D01*
X219851590Y-67070818D01*
X219921462Y-67784710D01*
X219986757Y-68488900D01*
X220046818Y-69188731D01*
X220100994Y-69889542D01*
X220148629Y-70596676D01*
X220189070Y-71315474D01*
X220221662Y-72051276D01*
X220245753Y-72809425D01*
X220260686Y-73595260D01*
X220265810Y-74414125D01*
D10*
X137517303Y-35718725D02*
G75*
G03*
X133945425Y-39290705I-3J-3571875D01*
G01*
X92273515Y-53578093D02*
G75*
G03*
X95845393Y-50006245I85J3571793D01*
G01*
X130373547Y-42862625D02*
G75*
G03*
X133945425Y-39290705I153J3571725D01*
G01*
D11*
X137517303Y-35718780D02*
X180975103Y-35718780D01*
D10*
X207764205Y-151209583D02*
G75*
G03*
X211336083Y-147637624I-5J3571883D01*
G01*
D11*
X85129759Y-57150032D02*
X85129759Y-108346966D01*
X139898555Y-135847579D02*
X142140424Y-131649780D01*
D13*
X91736537Y-134388742D02*
X98736537Y-146513098D01*
X98736537Y-146513098D02*
X110860893Y-139513098D01*
X103860893Y-127388742D02*
X91736537Y-134388742D01*
X110860893Y-139513098D02*
X103860893Y-127388742D01*
X202497462Y-89636193D02*
X216444188Y-90856373D01*
X216444188Y-90856373D02*
X217664368Y-76909647D01*
X203717642Y-75689467D02*
X202497462Y-89636193D01*
X217664368Y-76909647D02*
X203717642Y-75689467D01*
X163854815Y-63246920D02*
X163854815Y-77246920D01*
X163854815Y-77246920D02*
X177854815Y-77246920D01*
X177854815Y-63246920D02*
X163854815Y-63246920D01*
X177854815Y-77246920D02*
X177854815Y-63246920D01*
X182904815Y-94203220D02*
X182904815Y-108203220D01*
X182904815Y-108203220D02*
X196904815Y-108203220D01*
X196904815Y-94203220D02*
X182904815Y-94203220D01*
X196904815Y-108203220D02*
X196904815Y-94203220D01*
X125754815Y-64437620D02*
X125754815Y-78437620D01*
X125754815Y-78437620D02*
X139754815Y-78437620D01*
X139754815Y-64437620D02*
X125754815Y-64437620D01*
X139754815Y-78437620D02*
X139754815Y-64437620D01*
X182904815Y-113253220D02*
X182904815Y-127253220D01*
X182904815Y-127253220D02*
X196904815Y-127253220D01*
X196904815Y-113253220D02*
X182904815Y-113253220D01*
X196904815Y-127253220D02*
X196904815Y-113253220D01*
X144804783Y-38243780D02*
X144804783Y-52243780D01*
X144804783Y-52243780D02*
X158804783Y-52243780D01*
X158804783Y-38243780D02*
X144804783Y-38243780D01*
X158804783Y-52243780D02*
X158804783Y-38243780D01*
X201954815Y-129634420D02*
X215954815Y-129634420D01*
X215954815Y-129634420D02*
X215954815Y-115634420D01*
X201954815Y-115634420D02*
X201954815Y-129634420D01*
X215954815Y-115634420D02*
X201954815Y-115634420D01*
X201954815Y-70103220D02*
X215954815Y-70103220D01*
X215954815Y-70103220D02*
X215954815Y-56103220D01*
X201954815Y-56103220D02*
X201954815Y-70103220D01*
X215954815Y-56103220D02*
X201954815Y-56103220D01*
X119801615Y-123968920D02*
X119801615Y-137968920D01*
X119801615Y-137968920D02*
X133801615Y-137968920D01*
X133801615Y-123968920D02*
X119801615Y-123968920D01*
X133801615Y-137968920D02*
X133801615Y-123968920D01*
X101654715Y-104918920D02*
X87654715Y-104918920D01*
X87654715Y-104918920D02*
X87654715Y-118918920D01*
X101654715Y-118918920D02*
X101654715Y-104918920D01*
X87654715Y-118918920D02*
X101654715Y-118918920D01*
X74039620Y-150018820D02*
X83939115Y-159918315D01*
X83939115Y-159918315D02*
X93838610Y-150018820D01*
X83939115Y-140119325D02*
X74039620Y-150018820D01*
X93838610Y-150018820D02*
X83939115Y-140119325D01*
X182904783Y-56103180D02*
X182904783Y-70103180D01*
X182904783Y-70103180D02*
X196904783Y-70103180D01*
X196904783Y-56103180D02*
X182904783Y-56103180D01*
X196904783Y-70103180D02*
X196904783Y-56103180D01*
X60684637Y-169845198D02*
X72808993Y-176845198D01*
X72808993Y-176845198D02*
X79808993Y-164720842D01*
X67684637Y-157720842D02*
X60684637Y-169845198D01*
X79808993Y-164720842D02*
X67684637Y-157720842D01*
X82720669Y-133029263D02*
X74295258Y-121848366D01*
X74295258Y-121848366D02*
X63114361Y-130273777D01*
X71539772Y-141454674D02*
X82720669Y-133029263D01*
X63114361Y-130273777D02*
X71539772Y-141454674D01*
X106704815Y-104918820D02*
X106704815Y-118918820D01*
X106704815Y-118918820D02*
X120704815Y-118918820D01*
X120704815Y-104918820D02*
X106704815Y-104918820D01*
X120704815Y-118918820D02*
X120704815Y-104918820D01*
X144804815Y-95393820D02*
X144804815Y-109393820D01*
X144804815Y-109393820D02*
X158804815Y-109393820D01*
X158804815Y-95393820D02*
X144804815Y-95393820D01*
X158804815Y-109393820D02*
X158804815Y-95393820D01*
X125754815Y-83487620D02*
X125754815Y-97487620D01*
X125754815Y-97487620D02*
X139754815Y-97487620D01*
X139754815Y-83487620D02*
X125754815Y-83487620D01*
X139754815Y-97487620D02*
X139754815Y-83487620D01*
X106704815Y-85868820D02*
X106704815Y-99868820D01*
X106704815Y-99868820D02*
X120704815Y-99868820D01*
X120704815Y-85868820D02*
X106704815Y-85868820D01*
X120704815Y-99868820D02*
X120704815Y-85868820D01*
X144804815Y-76343820D02*
X144804815Y-90343820D01*
X144804815Y-90343820D02*
X158804815Y-90343820D01*
X158804815Y-76343820D02*
X144804815Y-76343820D01*
X158804815Y-90343820D02*
X158804815Y-76343820D01*
X163854815Y-82296920D02*
X163854815Y-96296920D01*
X163854815Y-96296920D02*
X177854815Y-96296920D01*
X177854815Y-82296920D02*
X163854815Y-82296920D01*
X177854815Y-96296920D02*
X177854815Y-82296920D01*
X106704783Y-47768780D02*
X106704783Y-61768780D01*
X106704783Y-61768780D02*
X120704783Y-61768780D01*
X120704783Y-47768780D02*
X106704783Y-47768780D01*
X120704783Y-61768780D02*
X120704783Y-47768780D01*
X101654815Y-57293820D02*
X87654815Y-57293820D01*
X87654815Y-57293820D02*
X87654815Y-71293820D01*
X101654815Y-71293820D02*
X101654815Y-57293820D01*
X87654815Y-71293820D02*
X101654815Y-71293820D01*
X125754815Y-102537620D02*
X125754815Y-116537620D01*
X125754815Y-116537620D02*
X139754815Y-116537620D01*
X139754815Y-102537620D02*
X125754815Y-102537620D01*
X139754815Y-116537620D02*
X139754815Y-102537620D01*
X163854815Y-101346920D02*
X163854815Y-115346920D01*
X163854815Y-115346920D02*
X177854815Y-115346920D01*
X177854815Y-101346920D02*
X163854815Y-101346920D01*
X177854815Y-115346920D02*
X177854815Y-101346920D01*
X163854783Y-44196880D02*
X163854783Y-58196880D01*
X163854783Y-58196880D02*
X177854783Y-58196880D01*
X177854783Y-44196880D02*
X163854783Y-44196880D01*
X177854783Y-58196880D02*
X177854783Y-44196880D01*
X202497462Y-108818993D02*
X216444188Y-110039173D01*
X216444188Y-110039173D02*
X217664368Y-96092447D01*
X203717642Y-94872267D02*
X202497462Y-108818993D01*
X217664368Y-96092447D02*
X203717642Y-94872267D01*
X101654815Y-81106320D02*
X87654815Y-81106320D01*
X87654815Y-81106320D02*
X87654815Y-95106320D01*
X101654815Y-95106320D02*
X101654815Y-81106320D01*
X87654815Y-95106320D02*
X101654815Y-95106320D01*
X149242537Y-127430942D02*
X142242537Y-139555298D01*
X142242537Y-139555298D02*
X154366893Y-146555298D01*
X161366893Y-134430942D02*
X149242537Y-127430942D01*
X154366893Y-146555298D02*
X161366893Y-134430942D01*
X192429815Y-134684520D02*
X192429815Y-148684520D01*
X192429815Y-148684520D02*
X206429815Y-148684520D01*
X206429815Y-134684520D02*
X192429815Y-134684520D01*
X206429815Y-148684520D02*
X206429815Y-134684520D01*
X182904815Y-75153220D02*
X182904815Y-89153220D01*
X182904815Y-89153220D02*
X196904815Y-89153220D01*
X196904815Y-75153220D02*
X182904815Y-75153220D01*
X196904815Y-89153220D02*
X196904815Y-75153220D01*
X144804815Y-57293820D02*
X144804815Y-71293820D01*
X144804815Y-71293820D02*
X158804815Y-71293820D01*
X158804815Y-57293820D02*
X144804815Y-57293820D01*
X158804815Y-71293820D02*
X158804815Y-57293820D01*
X125754783Y-45387580D02*
X125754783Y-59387580D01*
X125754783Y-59387580D02*
X139754783Y-59387580D01*
X139754783Y-45387580D02*
X125754783Y-45387580D01*
X139754783Y-59387580D02*
X139754783Y-45387580D01*
X120704815Y-80818820D02*
X106704815Y-80818820D01*
X120704815Y-66818820D02*
X120704815Y-80818820D01*
X106704815Y-80818820D02*
X106704815Y-66818820D01*
X106704815Y-66818820D02*
X120704815Y-66818820D01*
M02*
