M48
; DRILL file {KiCad 7.0.5} date So 16 Jul 2023 20:07:30 CEST
; FORMAT={-:-/ absolute / metric / decimal}
; #@! TF.CreationDate,2023-07-16T20:07:30+02:00
; #@! TF.GenerationSoftware,Kicad,Pcbnew,7.0.5
; #@! TF.FileFunction,NonPlated,1,2,NPTH
FMAT,2
METRIC
; #@! TA.AperFunction,NonPlated,NPTH,ComponentDrill
T1C0.500
; #@! TA.AperFunction,NonPlated,NPTH,ComponentDrill
T2C0.700
; #@! TA.AperFunction,NonPlated,NPTH,ComponentDrill
T3C1.900
; #@! TA.AperFunction,NonPlated,NPTH,ComponentDrill
T4C3.000
; #@! TA.AperFunction,NonPlated,NPTH,ComponentDrill
T5C4.100
%
G90
G05
T1
X150.614Y-55.976
X150.614Y-61.896
X150.614Y-68.478
X150.614Y-74.398
X150.614Y-80.979
X150.614Y-86.899
X150.914Y-56.716
X150.914Y-57.456
X150.914Y-58.196
X150.914Y-58.936
X150.914Y-59.676
X150.914Y-60.416
X150.914Y-61.156
X150.914Y-69.218
X150.914Y-69.958
X150.914Y-70.698
X150.914Y-71.438
X150.914Y-72.178
X150.914Y-72.918
X150.914Y-73.658
X150.914Y-81.719
X150.914Y-82.459
X150.914Y-83.199
X150.914Y-83.939
X150.914Y-84.679
X150.914Y-85.419
X150.914Y-86.159
X151.805Y-58.936
X151.805Y-71.438
X151.805Y-83.939
X217.289Y-58.936
X217.289Y-71.438
X217.289Y-83.939
X218.18Y-56.716
X218.18Y-57.456
X218.18Y-58.196
X218.18Y-58.936
X218.18Y-59.676
X218.18Y-60.416
X218.18Y-61.156
X218.18Y-69.218
X218.18Y-69.958
X218.18Y-70.698
X218.18Y-71.438
X218.18Y-72.178
X218.18Y-72.918
X218.18Y-73.658
X218.18Y-81.719
X218.18Y-82.459
X218.18Y-83.199
X218.18Y-83.939
X218.18Y-84.679
X218.18Y-85.419
X218.18Y-86.159
X218.48Y-55.976
X218.48Y-61.896
X218.48Y-68.478
X218.48Y-74.398
X218.48Y-80.979
X218.48Y-86.899
T2
X113.47Y-123.673
X116.37Y-123.673
X252.724Y-123.673
X255.624Y-123.673
T3
X27.602Y-65.711
X27.602Y-84.893
X28.487Y-75.832
X28.487Y-95.015
X29.17Y-105.053
X29.17Y-115.213
X43.14Y-69.652
X43.14Y-88.702
X43.14Y-107.752
X53.3Y-69.652
X53.3Y-88.702
X53.3Y-107.752
X62.19Y-57.745
X62.19Y-114.895
X62.19Y-76.795
X62.19Y-95.845
X72.35Y-57.745
X72.35Y-114.895
X72.35Y-76.795
X72.35Y-95.845
X81.24Y-51.792
X81.24Y-70.842
X81.24Y-89.892
X85.493Y-126.96
X91.4Y-51.792
X91.4Y-70.842
X91.4Y-89.892
X94.292Y-121.88
X100.29Y-77.986
X100.29Y-97.036
X100.29Y-58.936
X109.815Y-118.467
X110.45Y-77.986
X110.45Y-97.036
X110.45Y-58.936
X119.34Y-80.367
X119.34Y-99.417
X119.34Y-61.317
X119.975Y-118.467
X129.5Y-80.367
X129.5Y-99.417
X129.5Y-61.317
X135.499Y-121.88
X143.47Y-55.047
X143.47Y-65.207
X143.47Y-76.478
X143.47Y-86.638
X144.298Y-126.96
X145.024Y-105.383
X153.571Y-133.925
X153.823Y-110.463
X160.755Y-141.109
X167.041Y-120.455
X167.72Y-150.382
X172.8Y-159.181
X174.225Y-127.639
X194.869Y-127.639
X196.295Y-159.181
X201.375Y-150.382
X202.053Y-120.455
X208.339Y-141.109
X215.271Y-110.463
X215.524Y-133.925
X224.07Y-105.383
X224.796Y-126.96
X225.624Y-55.047
X225.624Y-65.207
X225.624Y-76.478
X225.624Y-86.638
X233.595Y-121.88
X239.594Y-61.317
X239.594Y-80.367
X239.594Y-99.417
X249.119Y-118.467
X249.754Y-61.317
X249.754Y-80.367
X249.754Y-99.417
X258.644Y-58.936
X258.644Y-77.986
X258.644Y-97.036
X259.279Y-118.467
X268.804Y-58.936
X268.804Y-77.986
X268.804Y-97.036
X274.802Y-121.88
X277.694Y-51.792
X277.694Y-70.842
X277.694Y-89.892
X283.601Y-126.96
X287.854Y-51.792
X287.854Y-70.842
X287.854Y-89.892
X296.744Y-76.795
X296.744Y-95.845
X296.744Y-57.745
X296.744Y-114.895
X306.904Y-76.795
X306.904Y-95.845
X306.904Y-57.745
X306.904Y-114.895
X315.794Y-88.702
X315.794Y-107.752
X315.794Y-69.652
X325.954Y-88.702
X325.954Y-107.752
X325.954Y-69.652
X339.924Y-105.053
X339.924Y-115.213
X340.607Y-75.832
X340.607Y-95.015
X341.493Y-65.711
X341.493Y-84.893
T4
X30.243Y-66.754
X30.243Y-85.937
X31.71Y-106.323
X33.326Y-72.859
X33.326Y-92.042
X34.25Y-112.673
X44.41Y-67.112
X44.41Y-86.162
X44.41Y-105.212
X50.76Y-64.572
X50.76Y-83.622
X50.76Y-102.672
X63.46Y-55.205
X63.46Y-112.355
X63.46Y-74.255
X63.46Y-93.305
X69.81Y-52.665
X69.81Y-109.815
X69.81Y-71.715
X69.81Y-90.765
X82.51Y-49.252
X82.51Y-68.302
X82.51Y-87.352
X85.323Y-124.126
X88.86Y-46.712
X88.86Y-65.762
X88.86Y-84.812
X89.552Y-118.751
X101.56Y-75.446
X101.56Y-94.496
X101.56Y-56.396
X107.91Y-72.906
X107.91Y-91.956
X107.91Y-53.856
X111.085Y-115.927
X117.435Y-113.387
X120.61Y-77.827
X120.61Y-96.877
X120.61Y-58.777
X126.96Y-75.287
X126.96Y-94.337
X126.96Y-56.237
X137.869Y-120.316
X138.39Y-57.587
X138.39Y-79.018
X140.93Y-63.937
X140.93Y-85.368
X144.638Y-121.291
X144.684Y-111.052
X151.453Y-112.027
X156.265Y-133.027
X162.551Y-135.721
X165.245Y-125.843
X170.554Y-150.212
X171.531Y-128.537
X175.929Y-154.441
X194.73Y-156.811
X195.705Y-150.042
X200.257Y-129.435
X202.951Y-123.149
X207.441Y-138.415
X210.135Y-132.129
X220.011Y-113.592
X224.24Y-108.217
X224.626Y-124.126
X228.164Y-56.317
X228.164Y-77.748
X228.855Y-118.751
X230.704Y-62.667
X230.704Y-84.098
X240.864Y-58.777
X240.864Y-77.827
X240.864Y-96.877
X247.214Y-56.237
X247.214Y-75.287
X247.214Y-94.337
X250.389Y-115.927
X256.739Y-113.387
X259.914Y-56.396
X259.914Y-75.446
X259.914Y-94.496
X266.264Y-53.856
X266.264Y-72.906
X266.264Y-91.956
X277.172Y-120.316
X278.964Y-49.252
X278.964Y-68.302
X278.964Y-87.352
X283.941Y-121.291
X285.314Y-46.712
X285.314Y-65.762
X285.314Y-84.812
X298.014Y-74.255
X298.014Y-93.305
X298.014Y-55.205
X298.014Y-112.355
X304.364Y-71.715
X304.364Y-90.765
X304.364Y-52.665
X304.364Y-109.815
X317.064Y-86.162
X317.064Y-105.212
X317.064Y-67.112
X323.414Y-83.622
X323.414Y-102.672
X323.414Y-64.572
X334.844Y-107.593
X336.21Y-67.798
X336.21Y-86.981
X337.384Y-113.943
X338.187Y-74.345
X338.187Y-93.528
T5
X28.044Y-70.771
X28.044Y-89.954
X29.17Y-110.133
X48.22Y-69.652
X48.22Y-88.702
X48.22Y-107.752
X67.27Y-57.745
X67.27Y-114.895
X67.27Y-76.795
X67.27Y-95.845
X86.32Y-51.792
X86.32Y-70.842
X86.32Y-89.892
X89.892Y-124.42
X105.37Y-77.986
X105.37Y-97.036
X105.37Y-58.936
X114.895Y-118.467
X124.42Y-80.367
X124.42Y-99.417
X124.42Y-61.317
X139.899Y-124.42
X143.47Y-60.127
X143.47Y-81.558
X149.424Y-107.923
X157.163Y-137.517
X170.26Y-154.781
X170.633Y-124.047
X198.461Y-124.047
X198.835Y-154.781
X211.931Y-137.517
X219.67Y-107.923
X225.624Y-60.127
X225.624Y-81.558
X229.195Y-124.42
X244.674Y-61.317
X244.674Y-80.367
X244.674Y-99.417
X254.199Y-118.467
X263.724Y-58.936
X263.724Y-77.986
X263.724Y-97.036
X279.202Y-124.42
X282.774Y-51.792
X282.774Y-70.842
X282.774Y-89.892
X301.824Y-76.795
X301.824Y-95.845
X301.824Y-57.745
X301.824Y-114.895
X320.874Y-88.702
X320.874Y-107.752
X320.874Y-69.652
X339.924Y-110.133
X341.05Y-70.771
X341.05Y-89.954
T0
M30
