M48
; DRILL file {KiCad 7.0.5} date Di 13 Jun 2023 17:14:00 CEST
; FORMAT={-:-/ absolute / metric / decimal}
; #@! TF.CreationDate,2023-06-13T17:14:00+02:00
; #@! TF.GenerationSoftware,Kicad,Pcbnew,7.0.5
; #@! TF.FileFunction,Plated,1,2,PTH
FMAT,2
METRIC
; #@! TA.AperFunction,Plated,PTH,ViaDrill
T1C0.300
; #@! TA.AperFunction,Plated,PTH,ViaDrill
T2C0.400
; #@! TA.AperFunction,Plated,PTH,ComponentDrill
T3C0.750
; #@! TA.AperFunction,Plated,PTH,ComponentDrill
T4C0.990
; #@! TA.AperFunction,Plated,PTH,ComponentDrill
T5C1.000
; #@! TA.AperFunction,Plated,PTH,ComponentDrill
T6C1.016
; #@! TA.AperFunction,Plated,PTH,ComponentDrill
T7C1.300
%
G90
G05
T1
X25.003Y-80.367
X25.003Y-99.417
X31.552Y-46.434
X31.552Y-47.625
X36.314Y-45.244
X36.314Y-52.983
X37.505Y-59.531
X38.1Y-66.675
X47.03Y-79.177
X47.03Y-98.227
X48.22Y-79.177
X48.22Y-98.227
X49.411Y-79.177
X51.792Y-90.488
X54.173Y-47.625
X55.364Y-67.27
X55.959Y-106.561
X57.15Y-66.08
X57.745Y-98.227
X58.341Y-58.536
X58.936Y-64.889
X58.936Y-84.534
X58.936Y-88.106
X60.127Y-59.531
X60.722Y-107.156
X66.08Y-67.27
X66.08Y-86.32
X66.08Y-101.799
X67.27Y-67.27
X67.27Y-86.32
X68.461Y-67.27
X68.461Y-86.32
X69.354Y-104.477
X72.033Y-61.317
X74.414Y-118.467
X80.367Y-114.3
X80.367Y-115.491
X80.367Y-116.681
X80.963Y-117.277
X81.558Y-62.508
X84.534Y-117.277
X85.13Y-80.367
X85.13Y-115.491
X85.13Y-116.681
X86.32Y-80.367
X87.511Y-80.367
X91.678Y-120.253
X92.274Y-73.223
X92.274Y-77.391
X94.059Y-59.531
X94.655Y-65.484
X95.845Y-68.461
X95.845Y-84.812
X98.227Y-59.531
X98.285Y-77.986
X98.285Y-83.285
X98.822Y-64.294
X99.417Y-83.939
X104.18Y-68.461
X104.18Y-87.511
X105.37Y-68.461
X105.37Y-87.511
X106.561Y-68.461
X106.561Y-87.511
X113.705Y-108.942
X114.3Y-61.317
X114.895Y-64.294
X114.895Y-108.942
X116.086Y-108.942
X119.063Y-73.819
X123.23Y-89.892
X124.42Y-89.892
X125.611Y-72.628
X125.611Y-89.892
X127.397Y-72.033
X127.397Y-104.775
X127.397Y-107.752
X127.992Y-122.634
X128.588Y-67.27
X128.588Y-89.892
X129.183Y-69.056
X129.183Y-84.534
X129.778Y-90.488
X129.778Y-118.467
X130.262Y-92.274
X130.969Y-77.986
X133.35Y-75.009
X133.945Y-58.936
X133.945Y-60.127
X133.945Y-61.317
X133.945Y-89.892
X135.136Y-83.939
X138.708Y-72.033
X138.708Y-82.749
X142.875Y-101.203
X144.066Y-91.678
X144.066Y-101.203
X166.092Y-143.47
X168.474Y-135.136
X212.527Y-114.895
X214.313Y-116.681
X222.647Y-69.652
X224.433Y-91.083
X224.433Y-93.464
X226.219Y-67.866
X228.6Y-92.869
X229.791Y-91.678
X232.172Y-81.558
X235.149Y-58.936
X235.149Y-60.127
X235.149Y-61.317
X238.125Y-125.611
X242.292Y-122.039
X243.483Y-70.842
X243.483Y-89.892
X244.674Y-70.842
X244.674Y-89.892
X245.864Y-70.842
X245.864Y-89.892
X251.817Y-61.913
X251.817Y-66.08
X251.817Y-80.367
X251.817Y-85.13
X253.008Y-108.942
X254.199Y-70.842
X254.199Y-89.892
X254.199Y-108.942
X254.199Y-123.825
X255.389Y-61.913
X255.389Y-66.08
X255.389Y-80.367
X255.389Y-85.13
X255.389Y-108.942
X257.771Y-120.253
X257.771Y-121.444
X263.128Y-68.461
X263.128Y-87.511
X264.319Y-68.461
X264.319Y-87.511
X265.51Y-68.461
X265.51Y-87.511
X270.272Y-125.611
X273.249Y-61.317
X273.249Y-68.461
X281.583Y-61.317
X282.774Y-61.317
X283.964Y-61.317
X283.964Y-116.086
X283.964Y-117.277
X283.964Y-131.564
X284.56Y-115.491
X285.155Y-117.872
X286.346Y-117.872
X287.536Y-117.872
X288.131Y-115.491
X288.727Y-116.086
X288.727Y-117.277
X289.917Y-51.792
X289.917Y-57.15
X289.917Y-76.2
X291.406Y-70.545
X292.299Y-73.819
X292.299Y-92.869
X293.489Y-69.056
X293.489Y-86.916
X294.68Y-119.063
X300.633Y-67.27
X300.633Y-86.32
X301.228Y-54.769
X301.824Y-67.27
X301.824Y-86.32
X303.014Y-67.27
X303.014Y-86.32
X306.586Y-55.364
X307.777Y-120.253
X311.349Y-63.698
X311.349Y-111.324
X314.325Y-113.705
X317.897Y-71.438
X319.683Y-79.177
X319.683Y-98.227
X320.874Y-79.177
X320.874Y-98.227
X322.064Y-55.364
X322.064Y-58.341
X322.064Y-79.177
X322.064Y-98.227
X323.255Y-55.364
X323.255Y-58.341
X323.255Y-110.133
X323.85Y-46.434
X323.85Y-52.388
X324.446Y-92.274
X325.041Y-76.795
X325.636Y-72.628
X325.636Y-96.441
X326.232Y-50.006
X326.232Y-91.083
X329.803Y-57.15
X330.399Y-47.625
X330.399Y-53.578
X330.399Y-55.364
X330.399Y-64.889
X331.589Y-66.675
X332.78Y-117.277
X334.566Y-62.508
X336.947Y-80.367
X338.138Y-47.625
X339.328Y-86.916
X340.519Y-47.625
X340.519Y-48.816
X343.496Y-117.872
X344.686Y-82.153
T2
X113.144Y-120.746
X116.102Y-122.023
T3
X82.817Y-114.3
X82.817Y-116.3
X286.277Y-114.3
X286.277Y-116.3
T4
X65.045Y-119.767
X69.545Y-119.767
X299.599Y-119.767
X304.099Y-119.767
T5
X34.647Y-44.172
X34.647Y-46.712
X34.647Y-49.252
X34.647Y-51.792
X34.647Y-54.332
X34.647Y-56.872
X34.647Y-59.412
X49.887Y-44.172
X49.887Y-46.712
X49.887Y-49.252
X49.887Y-51.792
X49.887Y-54.332
X49.887Y-56.872
X49.887Y-59.412
X319.207Y-44.172
X319.207Y-46.712
X319.207Y-49.252
X319.207Y-51.792
X319.207Y-54.332
X319.207Y-56.872
X319.207Y-59.412
X334.447Y-44.172
X334.447Y-46.712
X334.447Y-49.252
X334.447Y-51.792
X334.447Y-54.332
X334.447Y-56.872
X334.447Y-59.412
T6
X40.997Y-43.22
X40.997Y-45.76
X43.537Y-43.22
X43.537Y-45.76
X46.712Y-49.57
X46.712Y-51.475
X325.557Y-43.22
X325.557Y-45.76
X328.097Y-43.22
X328.097Y-45.76
X331.272Y-49.57
X331.272Y-51.475
T7
X29.766Y-44.97
X29.766Y-51.47
X55.364Y-50.602
X55.364Y-57.102
X63.785Y-117.277
X70.795Y-117.277
X298.339Y-117.277
X305.349Y-117.277
X313.73Y-50.602
X313.73Y-57.102
X339.328Y-44.97
X339.328Y-51.47
T0
M30
