G04 #@! TF.GenerationSoftware,KiCad,Pcbnew,7.0.5*
G04 #@! TF.CreationDate,2023-06-13T17:14:03+02:00*
G04 #@! TF.ProjectId,mykeeb_v7a5,6d796b65-6562-45f7-9637-61352e6b6963,rev?*
G04 #@! TF.SameCoordinates,Original*
G04 #@! TF.FileFunction,Legend,Top*
G04 #@! TF.FilePolarity,Positive*
%FSLAX46Y46*%
G04 Gerber Fmt 4.6, Leading zero omitted, Abs format (unit mm)*
G04 Created by KiCad (PCBNEW 7.0.5) date 2023-06-13 17:14:03*
%MOMM*%
%LPD*%
G01*
G04 APERTURE LIST*
G04 Aperture macros list*
%AMRoundRect*
0 Rectangle with rounded corners*
0 $1 Rounding radius*
0 $2 $3 $4 $5 $6 $7 $8 $9 X,Y pos of 4 corners*
0 Add a 4 corners polygon primitive as box body*
4,1,4,$2,$3,$4,$5,$6,$7,$8,$9,$2,$3,0*
0 Add four circle primitives for the rounded corners*
1,1,$1+$1,$2,$3*
1,1,$1+$1,$4,$5*
1,1,$1+$1,$6,$7*
1,1,$1+$1,$8,$9*
0 Add four rect primitives between the rounded corners*
20,1,$1+$1,$2,$3,$4,$5,0*
20,1,$1+$1,$4,$5,$6,$7,0*
20,1,$1+$1,$6,$7,$8,$9,0*
20,1,$1+$1,$8,$9,$2,$3,0*%
G04 Aperture macros list end*
%ADD10C,0.300000*%
%ADD11C,0.120000*%
%ADD12C,0.150000*%
%ADD13C,0.500000*%
%ADD14C,1.750000*%
%ADD15C,2.100000*%
%ADD16C,1.900000*%
%ADD17C,3.000000*%
%ADD18C,4.100000*%
%ADD19RoundRect,0.250000X-0.625000X0.350000X-0.625000X-0.350000X0.625000X-0.350000X0.625000X0.350000X0*%
%ADD20O,1.750000X1.200000*%
%ADD21C,2.000000*%
%ADD22O,2.750000X1.800000*%
%ADD23C,1.397000*%
%ADD24C,0.700000*%
G04 APERTURE END LIST*
D10*
X283375047Y-114124809D02*
X284517905Y-114124809D01*
X283946476Y-114696237D02*
X283946476Y-113553380D01*
X23225752Y-67872424D02*
X22011466Y-67872424D01*
X22011466Y-67872424D02*
X21868609Y-67800995D01*
X21868609Y-67800995D02*
X21797181Y-67729566D01*
X21797181Y-67729566D02*
X21725752Y-67586709D01*
X21725752Y-67586709D02*
X21725752Y-67372424D01*
X21725752Y-67372424D02*
X21797181Y-67229566D01*
X22297181Y-67872424D02*
X22225752Y-67729566D01*
X22225752Y-67729566D02*
X22225752Y-67443852D01*
X22225752Y-67443852D02*
X22297181Y-67300995D01*
X22297181Y-67300995D02*
X22368609Y-67229566D01*
X22368609Y-67229566D02*
X22511466Y-67158138D01*
X22511466Y-67158138D02*
X22940038Y-67158138D01*
X22940038Y-67158138D02*
X23082895Y-67229566D01*
X23082895Y-67229566D02*
X23154323Y-67300995D01*
X23154323Y-67300995D02*
X23225752Y-67443852D01*
X23225752Y-67443852D02*
X23225752Y-67729566D01*
X23225752Y-67729566D02*
X23154323Y-67872424D01*
X22225752Y-68586709D02*
X23225752Y-68586709D01*
X23725752Y-68586709D02*
X23654323Y-68515281D01*
X23654323Y-68515281D02*
X23582895Y-68586709D01*
X23582895Y-68586709D02*
X23654323Y-68658138D01*
X23654323Y-68658138D02*
X23725752Y-68586709D01*
X23725752Y-68586709D02*
X23582895Y-68586709D01*
X23225752Y-69086710D02*
X23225752Y-69658138D01*
X23725752Y-69300995D02*
X22440038Y-69300995D01*
X22440038Y-69300995D02*
X22297181Y-69372424D01*
X22297181Y-69372424D02*
X22225752Y-69515281D01*
X22225752Y-69515281D02*
X22225752Y-69658138D01*
X22225752Y-70158138D02*
X23725752Y-70158138D01*
X22225752Y-70800996D02*
X23011466Y-70800996D01*
X23011466Y-70800996D02*
X23154323Y-70729567D01*
X23154323Y-70729567D02*
X23225752Y-70586710D01*
X23225752Y-70586710D02*
X23225752Y-70372424D01*
X23225752Y-70372424D02*
X23154323Y-70229567D01*
X23154323Y-70229567D02*
X23082895Y-70158138D01*
X23225752Y-72158139D02*
X22225752Y-72158139D01*
X23225752Y-71515281D02*
X22440038Y-71515281D01*
X22440038Y-71515281D02*
X22297181Y-71586710D01*
X22297181Y-71586710D02*
X22225752Y-71729567D01*
X22225752Y-71729567D02*
X22225752Y-71943853D01*
X22225752Y-71943853D02*
X22297181Y-72086710D01*
X22297181Y-72086710D02*
X22368609Y-72158139D01*
X22225752Y-72872424D02*
X23725752Y-72872424D01*
X23154323Y-72872424D02*
X23225752Y-73015282D01*
X23225752Y-73015282D02*
X23225752Y-73300996D01*
X23225752Y-73300996D02*
X23154323Y-73443853D01*
X23154323Y-73443853D02*
X23082895Y-73515282D01*
X23082895Y-73515282D02*
X22940038Y-73586710D01*
X22940038Y-73586710D02*
X22511466Y-73586710D01*
X22511466Y-73586710D02*
X22368609Y-73515282D01*
X22368609Y-73515282D02*
X22297181Y-73443853D01*
X22297181Y-73443853D02*
X22225752Y-73300996D01*
X22225752Y-73300996D02*
X22225752Y-73015282D01*
X22225752Y-73015282D02*
X22297181Y-72872424D01*
X22368609Y-74229567D02*
X22297181Y-74300996D01*
X22297181Y-74300996D02*
X22225752Y-74229567D01*
X22225752Y-74229567D02*
X22297181Y-74158139D01*
X22297181Y-74158139D02*
X22368609Y-74229567D01*
X22368609Y-74229567D02*
X22225752Y-74229567D01*
X22297181Y-75586711D02*
X22225752Y-75443853D01*
X22225752Y-75443853D02*
X22225752Y-75158139D01*
X22225752Y-75158139D02*
X22297181Y-75015282D01*
X22297181Y-75015282D02*
X22368609Y-74943853D01*
X22368609Y-74943853D02*
X22511466Y-74872425D01*
X22511466Y-74872425D02*
X22940038Y-74872425D01*
X22940038Y-74872425D02*
X23082895Y-74943853D01*
X23082895Y-74943853D02*
X23154323Y-75015282D01*
X23154323Y-75015282D02*
X23225752Y-75158139D01*
X23225752Y-75158139D02*
X23225752Y-75443853D01*
X23225752Y-75443853D02*
X23154323Y-75586711D01*
X22225752Y-76443853D02*
X22297181Y-76300996D01*
X22297181Y-76300996D02*
X22368609Y-76229567D01*
X22368609Y-76229567D02*
X22511466Y-76158139D01*
X22511466Y-76158139D02*
X22940038Y-76158139D01*
X22940038Y-76158139D02*
X23082895Y-76229567D01*
X23082895Y-76229567D02*
X23154323Y-76300996D01*
X23154323Y-76300996D02*
X23225752Y-76443853D01*
X23225752Y-76443853D02*
X23225752Y-76658139D01*
X23225752Y-76658139D02*
X23154323Y-76800996D01*
X23154323Y-76800996D02*
X23082895Y-76872425D01*
X23082895Y-76872425D02*
X22940038Y-76943853D01*
X22940038Y-76943853D02*
X22511466Y-76943853D01*
X22511466Y-76943853D02*
X22368609Y-76872425D01*
X22368609Y-76872425D02*
X22297181Y-76800996D01*
X22297181Y-76800996D02*
X22225752Y-76658139D01*
X22225752Y-76658139D02*
X22225752Y-76443853D01*
X22225752Y-77586710D02*
X23225752Y-77586710D01*
X23082895Y-77586710D02*
X23154323Y-77658139D01*
X23154323Y-77658139D02*
X23225752Y-77800996D01*
X23225752Y-77800996D02*
X23225752Y-78015282D01*
X23225752Y-78015282D02*
X23154323Y-78158139D01*
X23154323Y-78158139D02*
X23011466Y-78229568D01*
X23011466Y-78229568D02*
X22225752Y-78229568D01*
X23011466Y-78229568D02*
X23154323Y-78300996D01*
X23154323Y-78300996D02*
X23225752Y-78443853D01*
X23225752Y-78443853D02*
X23225752Y-78658139D01*
X23225752Y-78658139D02*
X23154323Y-78800996D01*
X23154323Y-78800996D02*
X23011466Y-78872425D01*
X23011466Y-78872425D02*
X22225752Y-78872425D01*
X23797181Y-80658139D02*
X21868609Y-79372425D01*
X22225752Y-81158139D02*
X23225752Y-81158139D01*
X23082895Y-81158139D02*
X23154323Y-81229568D01*
X23154323Y-81229568D02*
X23225752Y-81372425D01*
X23225752Y-81372425D02*
X23225752Y-81586711D01*
X23225752Y-81586711D02*
X23154323Y-81729568D01*
X23154323Y-81729568D02*
X23011466Y-81800997D01*
X23011466Y-81800997D02*
X22225752Y-81800997D01*
X23011466Y-81800997D02*
X23154323Y-81872425D01*
X23154323Y-81872425D02*
X23225752Y-82015282D01*
X23225752Y-82015282D02*
X23225752Y-82229568D01*
X23225752Y-82229568D02*
X23154323Y-82372425D01*
X23154323Y-82372425D02*
X23011466Y-82443854D01*
X23011466Y-82443854D02*
X22225752Y-82443854D01*
X22225752Y-83800997D02*
X23011466Y-83800997D01*
X23011466Y-83800997D02*
X23154323Y-83729568D01*
X23154323Y-83729568D02*
X23225752Y-83586711D01*
X23225752Y-83586711D02*
X23225752Y-83300997D01*
X23225752Y-83300997D02*
X23154323Y-83158139D01*
X22297181Y-83800997D02*
X22225752Y-83658139D01*
X22225752Y-83658139D02*
X22225752Y-83300997D01*
X22225752Y-83300997D02*
X22297181Y-83158139D01*
X22297181Y-83158139D02*
X22440038Y-83086711D01*
X22440038Y-83086711D02*
X22582895Y-83086711D01*
X22582895Y-83086711D02*
X22725752Y-83158139D01*
X22725752Y-83158139D02*
X22797181Y-83300997D01*
X22797181Y-83300997D02*
X22797181Y-83658139D01*
X22797181Y-83658139D02*
X22868609Y-83800997D01*
X22225752Y-84372425D02*
X23225752Y-85158140D01*
X23225752Y-84372425D02*
X22225752Y-85158140D01*
X22225752Y-85729568D02*
X23725752Y-85729568D01*
X22225752Y-86372426D02*
X23011466Y-86372426D01*
X23011466Y-86372426D02*
X23154323Y-86300997D01*
X23154323Y-86300997D02*
X23225752Y-86158140D01*
X23225752Y-86158140D02*
X23225752Y-85943854D01*
X23225752Y-85943854D02*
X23154323Y-85800997D01*
X23154323Y-85800997D02*
X23082895Y-85729568D01*
X22225752Y-87086711D02*
X23725752Y-87086711D01*
X23154323Y-87086711D02*
X23225752Y-87229569D01*
X23225752Y-87229569D02*
X23225752Y-87515283D01*
X23225752Y-87515283D02*
X23154323Y-87658140D01*
X23154323Y-87658140D02*
X23082895Y-87729569D01*
X23082895Y-87729569D02*
X22940038Y-87800997D01*
X22940038Y-87800997D02*
X22511466Y-87800997D01*
X22511466Y-87800997D02*
X22368609Y-87729569D01*
X22368609Y-87729569D02*
X22297181Y-87658140D01*
X22297181Y-87658140D02*
X22225752Y-87515283D01*
X22225752Y-87515283D02*
X22225752Y-87229569D01*
X22225752Y-87229569D02*
X22297181Y-87086711D01*
X22225752Y-88443854D02*
X23225752Y-88443854D01*
X22940038Y-88443854D02*
X23082895Y-88515283D01*
X23082895Y-88515283D02*
X23154323Y-88586712D01*
X23154323Y-88586712D02*
X23225752Y-88729569D01*
X23225752Y-88729569D02*
X23225752Y-88872426D01*
X84446765Y-114124809D02*
X85589623Y-114124809D01*
X85018194Y-114696237D02*
X85018194Y-113553380D01*
X345868291Y-87504269D02*
X347082577Y-87504269D01*
X347082577Y-87504269D02*
X347225434Y-87575697D01*
X347225434Y-87575697D02*
X347296863Y-87647126D01*
X347296863Y-87647126D02*
X347368291Y-87789983D01*
X347368291Y-87789983D02*
X347368291Y-88004269D01*
X347368291Y-88004269D02*
X347296863Y-88147126D01*
X346796863Y-87504269D02*
X346868291Y-87647126D01*
X346868291Y-87647126D02*
X346868291Y-87932840D01*
X346868291Y-87932840D02*
X346796863Y-88075697D01*
X346796863Y-88075697D02*
X346725434Y-88147126D01*
X346725434Y-88147126D02*
X346582577Y-88218554D01*
X346582577Y-88218554D02*
X346154005Y-88218554D01*
X346154005Y-88218554D02*
X346011148Y-88147126D01*
X346011148Y-88147126D02*
X345939720Y-88075697D01*
X345939720Y-88075697D02*
X345868291Y-87932840D01*
X345868291Y-87932840D02*
X345868291Y-87647126D01*
X345868291Y-87647126D02*
X345939720Y-87504269D01*
X346868291Y-86789983D02*
X345868291Y-86789983D01*
X345368291Y-86789983D02*
X345439720Y-86861411D01*
X345439720Y-86861411D02*
X345511148Y-86789983D01*
X345511148Y-86789983D02*
X345439720Y-86718554D01*
X345439720Y-86718554D02*
X345368291Y-86789983D01*
X345368291Y-86789983D02*
X345511148Y-86789983D01*
X345868291Y-86289982D02*
X345868291Y-85718554D01*
X345368291Y-86075697D02*
X346654005Y-86075697D01*
X346654005Y-86075697D02*
X346796863Y-86004268D01*
X346796863Y-86004268D02*
X346868291Y-85861411D01*
X346868291Y-85861411D02*
X346868291Y-85718554D01*
X346868291Y-85218554D02*
X345368291Y-85218554D01*
X346868291Y-84575697D02*
X346082577Y-84575697D01*
X346082577Y-84575697D02*
X345939720Y-84647125D01*
X345939720Y-84647125D02*
X345868291Y-84789982D01*
X345868291Y-84789982D02*
X345868291Y-85004268D01*
X345868291Y-85004268D02*
X345939720Y-85147125D01*
X345939720Y-85147125D02*
X346011148Y-85218554D01*
X345868291Y-83218554D02*
X346868291Y-83218554D01*
X345868291Y-83861411D02*
X346654005Y-83861411D01*
X346654005Y-83861411D02*
X346796863Y-83789982D01*
X346796863Y-83789982D02*
X346868291Y-83647125D01*
X346868291Y-83647125D02*
X346868291Y-83432839D01*
X346868291Y-83432839D02*
X346796863Y-83289982D01*
X346796863Y-83289982D02*
X346725434Y-83218554D01*
X346868291Y-82504268D02*
X345368291Y-82504268D01*
X345939720Y-82504268D02*
X345868291Y-82361411D01*
X345868291Y-82361411D02*
X345868291Y-82075696D01*
X345868291Y-82075696D02*
X345939720Y-81932839D01*
X345939720Y-81932839D02*
X346011148Y-81861411D01*
X346011148Y-81861411D02*
X346154005Y-81789982D01*
X346154005Y-81789982D02*
X346582577Y-81789982D01*
X346582577Y-81789982D02*
X346725434Y-81861411D01*
X346725434Y-81861411D02*
X346796863Y-81932839D01*
X346796863Y-81932839D02*
X346868291Y-82075696D01*
X346868291Y-82075696D02*
X346868291Y-82361411D01*
X346868291Y-82361411D02*
X346796863Y-82504268D01*
X346725434Y-81147125D02*
X346796863Y-81075696D01*
X346796863Y-81075696D02*
X346868291Y-81147125D01*
X346868291Y-81147125D02*
X346796863Y-81218553D01*
X346796863Y-81218553D02*
X346725434Y-81147125D01*
X346725434Y-81147125D02*
X346868291Y-81147125D01*
X346796863Y-79789982D02*
X346868291Y-79932839D01*
X346868291Y-79932839D02*
X346868291Y-80218553D01*
X346868291Y-80218553D02*
X346796863Y-80361410D01*
X346796863Y-80361410D02*
X346725434Y-80432839D01*
X346725434Y-80432839D02*
X346582577Y-80504267D01*
X346582577Y-80504267D02*
X346154005Y-80504267D01*
X346154005Y-80504267D02*
X346011148Y-80432839D01*
X346011148Y-80432839D02*
X345939720Y-80361410D01*
X345939720Y-80361410D02*
X345868291Y-80218553D01*
X345868291Y-80218553D02*
X345868291Y-79932839D01*
X345868291Y-79932839D02*
X345939720Y-79789982D01*
X346868291Y-78932839D02*
X346796863Y-79075696D01*
X346796863Y-79075696D02*
X346725434Y-79147125D01*
X346725434Y-79147125D02*
X346582577Y-79218553D01*
X346582577Y-79218553D02*
X346154005Y-79218553D01*
X346154005Y-79218553D02*
X346011148Y-79147125D01*
X346011148Y-79147125D02*
X345939720Y-79075696D01*
X345939720Y-79075696D02*
X345868291Y-78932839D01*
X345868291Y-78932839D02*
X345868291Y-78718553D01*
X345868291Y-78718553D02*
X345939720Y-78575696D01*
X345939720Y-78575696D02*
X346011148Y-78504268D01*
X346011148Y-78504268D02*
X346154005Y-78432839D01*
X346154005Y-78432839D02*
X346582577Y-78432839D01*
X346582577Y-78432839D02*
X346725434Y-78504268D01*
X346725434Y-78504268D02*
X346796863Y-78575696D01*
X346796863Y-78575696D02*
X346868291Y-78718553D01*
X346868291Y-78718553D02*
X346868291Y-78932839D01*
X346868291Y-77789982D02*
X345868291Y-77789982D01*
X346011148Y-77789982D02*
X345939720Y-77718553D01*
X345939720Y-77718553D02*
X345868291Y-77575696D01*
X345868291Y-77575696D02*
X345868291Y-77361410D01*
X345868291Y-77361410D02*
X345939720Y-77218553D01*
X345939720Y-77218553D02*
X346082577Y-77147125D01*
X346082577Y-77147125D02*
X346868291Y-77147125D01*
X346082577Y-77147125D02*
X345939720Y-77075696D01*
X345939720Y-77075696D02*
X345868291Y-76932839D01*
X345868291Y-76932839D02*
X345868291Y-76718553D01*
X345868291Y-76718553D02*
X345939720Y-76575696D01*
X345939720Y-76575696D02*
X346082577Y-76504267D01*
X346082577Y-76504267D02*
X346868291Y-76504267D01*
X345296863Y-74718553D02*
X347225434Y-76004267D01*
X346868291Y-74218553D02*
X345868291Y-74218553D01*
X346011148Y-74218553D02*
X345939720Y-74147124D01*
X345939720Y-74147124D02*
X345868291Y-74004267D01*
X345868291Y-74004267D02*
X345868291Y-73789981D01*
X345868291Y-73789981D02*
X345939720Y-73647124D01*
X345939720Y-73647124D02*
X346082577Y-73575696D01*
X346082577Y-73575696D02*
X346868291Y-73575696D01*
X346082577Y-73575696D02*
X345939720Y-73504267D01*
X345939720Y-73504267D02*
X345868291Y-73361410D01*
X345868291Y-73361410D02*
X345868291Y-73147124D01*
X345868291Y-73147124D02*
X345939720Y-73004267D01*
X345939720Y-73004267D02*
X346082577Y-72932838D01*
X346082577Y-72932838D02*
X346868291Y-72932838D01*
X346868291Y-71575696D02*
X346082577Y-71575696D01*
X346082577Y-71575696D02*
X345939720Y-71647124D01*
X345939720Y-71647124D02*
X345868291Y-71789981D01*
X345868291Y-71789981D02*
X345868291Y-72075696D01*
X345868291Y-72075696D02*
X345939720Y-72218553D01*
X346796863Y-71575696D02*
X346868291Y-71718553D01*
X346868291Y-71718553D02*
X346868291Y-72075696D01*
X346868291Y-72075696D02*
X346796863Y-72218553D01*
X346796863Y-72218553D02*
X346654005Y-72289981D01*
X346654005Y-72289981D02*
X346511148Y-72289981D01*
X346511148Y-72289981D02*
X346368291Y-72218553D01*
X346368291Y-72218553D02*
X346296863Y-72075696D01*
X346296863Y-72075696D02*
X346296863Y-71718553D01*
X346296863Y-71718553D02*
X346225434Y-71575696D01*
X346868291Y-71004267D02*
X345868291Y-70218553D01*
X345868291Y-71004267D02*
X346868291Y-70218553D01*
X346868291Y-69647124D02*
X345368291Y-69647124D01*
X346868291Y-69004267D02*
X346082577Y-69004267D01*
X346082577Y-69004267D02*
X345939720Y-69075695D01*
X345939720Y-69075695D02*
X345868291Y-69218552D01*
X345868291Y-69218552D02*
X345868291Y-69432838D01*
X345868291Y-69432838D02*
X345939720Y-69575695D01*
X345939720Y-69575695D02*
X346011148Y-69647124D01*
X346868291Y-68289981D02*
X345368291Y-68289981D01*
X345939720Y-68289981D02*
X345868291Y-68147124D01*
X345868291Y-68147124D02*
X345868291Y-67861409D01*
X345868291Y-67861409D02*
X345939720Y-67718552D01*
X345939720Y-67718552D02*
X346011148Y-67647124D01*
X346011148Y-67647124D02*
X346154005Y-67575695D01*
X346154005Y-67575695D02*
X346582577Y-67575695D01*
X346582577Y-67575695D02*
X346725434Y-67647124D01*
X346725434Y-67647124D02*
X346796863Y-67718552D01*
X346796863Y-67718552D02*
X346868291Y-67861409D01*
X346868291Y-67861409D02*
X346868291Y-68147124D01*
X346868291Y-68147124D02*
X346796863Y-68289981D01*
X346868291Y-66932838D02*
X345868291Y-66932838D01*
X346154005Y-66932838D02*
X346011148Y-66861409D01*
X346011148Y-66861409D02*
X345939720Y-66789981D01*
X345939720Y-66789981D02*
X345868291Y-66647123D01*
X345868291Y-66647123D02*
X345868291Y-66504266D01*
D11*
X297988691Y-115966661D02*
X297988691Y-115456661D01*
X297988691Y-122466661D02*
X297988691Y-118566661D01*
X298508691Y-115456661D02*
X297988691Y-115456661D01*
X298508691Y-115966661D02*
X298508691Y-115456661D01*
X298508691Y-118796661D02*
X298508691Y-118566661D01*
X299048691Y-118796661D02*
X298508691Y-118796661D01*
X303548691Y-118796661D02*
X300148691Y-118796661D01*
X305188691Y-115966661D02*
X305188691Y-115456661D01*
X305188691Y-118796661D02*
X304648691Y-118796661D01*
X305188691Y-118796661D02*
X305188691Y-118566661D01*
X305708691Y-115456661D02*
X305188691Y-115456661D01*
X305708691Y-115966661D02*
X305708691Y-115456661D01*
X305708691Y-122466661D02*
X297988691Y-122466661D01*
X305708691Y-122466661D02*
X305708691Y-118566661D01*
D12*
X28165650Y-51070353D02*
X28415650Y-51070353D01*
X28165650Y-51070353D02*
X28165650Y-45370353D01*
X31365650Y-51070353D02*
X31115650Y-51070353D01*
X31365650Y-51070353D02*
X31365650Y-45370353D01*
X28165650Y-45370353D02*
X28415650Y-45370353D01*
X31365650Y-45370353D02*
X31115650Y-45370353D01*
D11*
X84277255Y-112240096D02*
X76457255Y-112240096D01*
X82677255Y-112240096D02*
X82677255Y-113160096D01*
X76457255Y-112240096D02*
X76457255Y-118360096D01*
X80317255Y-113000096D02*
X78717255Y-113000096D01*
X78717255Y-113000096D02*
X78717255Y-114000096D01*
X84277255Y-113160096D02*
X84277255Y-112240096D01*
X82677255Y-113160096D02*
X84277255Y-113160096D01*
X82677255Y-113440096D02*
X82677255Y-113160096D01*
X82677255Y-113440096D02*
X83892255Y-113440096D01*
X78717255Y-113500096D02*
X76457255Y-113500096D01*
X80317255Y-114000096D02*
X80317255Y-113000096D01*
X78717255Y-114000096D02*
X80317255Y-114000096D01*
X78717255Y-114000096D02*
X76457255Y-114000096D01*
X80817255Y-114800096D02*
X80817255Y-115800096D01*
X76457255Y-114800096D02*
X80817255Y-114800096D01*
X80817255Y-115800096D02*
X76457255Y-115800096D01*
X80317255Y-116600096D02*
X80317255Y-117600096D01*
X78717255Y-116600096D02*
X80317255Y-116600096D01*
X84277255Y-117440096D02*
X82677255Y-117440096D01*
X82677255Y-117440096D02*
X82677255Y-117160096D01*
X80317255Y-117600096D02*
X78717255Y-117600096D01*
X78717255Y-117600096D02*
X78717255Y-116600096D01*
X84277255Y-118360096D02*
X84277255Y-117440096D01*
X82677255Y-118360096D02*
X82677255Y-117440096D01*
X76457255Y-118360096D02*
X84277255Y-118360096D01*
D12*
X53764109Y-56701605D02*
X54014109Y-56701605D01*
X53764109Y-56701605D02*
X53764109Y-51001605D01*
X56964109Y-56701605D02*
X56714109Y-56701605D01*
X56964109Y-56701605D02*
X56964109Y-51001605D01*
X53764109Y-51001605D02*
X54014109Y-51001605D01*
X56964109Y-51001605D02*
X56714109Y-51001605D01*
X337728394Y-51070353D02*
X337978394Y-51070353D01*
X337728394Y-51070353D02*
X337728394Y-45370353D01*
X340928394Y-51070353D02*
X340678394Y-51070353D01*
X340928394Y-51070353D02*
X340928394Y-45370353D01*
X337728394Y-45370353D02*
X337978394Y-45370353D01*
X340928394Y-45370353D02*
X340678394Y-45370353D01*
X312129935Y-56701605D02*
X312379935Y-56701605D01*
X312129935Y-56701605D02*
X312129935Y-51001605D01*
X315329935Y-56701605D02*
X315079935Y-56701605D01*
X315329935Y-56701605D02*
X315329935Y-51001605D01*
X312129935Y-51001605D02*
X312379935Y-51001605D01*
X315329935Y-51001605D02*
X315079935Y-51001605D01*
D11*
X63435369Y-115966661D02*
X63435369Y-115456661D01*
X63435369Y-122466661D02*
X63435369Y-118566661D01*
X63955369Y-115456661D02*
X63435369Y-115456661D01*
X63955369Y-115966661D02*
X63955369Y-115456661D01*
X63955369Y-118796661D02*
X63955369Y-118566661D01*
X64495369Y-118796661D02*
X63955369Y-118796661D01*
X68995369Y-118796661D02*
X65595369Y-118796661D01*
X70635369Y-115966661D02*
X70635369Y-115456661D01*
X70635369Y-118796661D02*
X70095369Y-118796661D01*
X70635369Y-118796661D02*
X70635369Y-118566661D01*
X71155369Y-115456661D02*
X70635369Y-115456661D01*
X71155369Y-115966661D02*
X71155369Y-115456661D01*
X71155369Y-122466661D02*
X63435369Y-122466661D01*
X71155369Y-122466661D02*
X71155369Y-118566661D01*
%LPC*%
D13*
X151804815Y-71437560D03*
X150914190Y-73657560D03*
X150914190Y-72917560D03*
X150914190Y-72177560D03*
X150914190Y-71437560D03*
X150914190Y-70697560D03*
X150914190Y-69957560D03*
X150914190Y-69217560D03*
X150614190Y-74397560D03*
X150614190Y-68477560D03*
X151804815Y-58935987D03*
X150914190Y-61155987D03*
X150914190Y-60415987D03*
X150914190Y-59675987D03*
X150914190Y-58935987D03*
X150914190Y-58195987D03*
X150914190Y-57455987D03*
X150914190Y-56715987D03*
X150614190Y-61895987D03*
X150614190Y-55975987D03*
X151804815Y-83939133D03*
X150914190Y-86159133D03*
X150914190Y-85419133D03*
X150914190Y-84679133D03*
X150914190Y-83939133D03*
X150914190Y-83199133D03*
X150914190Y-82459133D03*
X150914190Y-81719133D03*
X150614190Y-86899133D03*
X150614190Y-80979133D03*
X217289229Y-83939133D03*
X218179854Y-86159133D03*
X218179854Y-85419133D03*
X218179854Y-84679133D03*
X218179854Y-83939133D03*
X218179854Y-83199133D03*
X218179854Y-82459133D03*
X218179854Y-81719133D03*
X218479854Y-86899133D03*
X218479854Y-80979133D03*
X217289229Y-58935987D03*
X218179854Y-61155987D03*
X218179854Y-60415987D03*
X218179854Y-59675987D03*
X218179854Y-58935987D03*
X218179854Y-58195987D03*
X218179854Y-57455987D03*
X218179854Y-56715987D03*
X218479854Y-61895987D03*
X218479854Y-55975987D03*
X217289229Y-71437560D03*
X218179854Y-73657560D03*
X218179854Y-72917560D03*
X218179854Y-72177560D03*
X218179854Y-71437560D03*
X218179854Y-70697560D03*
X218179854Y-69957560D03*
X218179854Y-69217560D03*
X218479854Y-74397560D03*
X218479854Y-68477560D03*
D14*
X299598691Y-119766661D03*
X304098691Y-119766661D03*
D15*
X298338691Y-117276661D03*
X305348691Y-117276661D03*
D16*
X144297964Y-126960417D03*
D17*
X144638260Y-121291008D03*
D18*
X139898555Y-124420417D03*
D17*
X137868998Y-120315712D03*
D16*
X135499146Y-121880417D03*
X28487036Y-75832016D03*
D17*
X33326330Y-72858930D03*
D18*
X28044285Y-70771347D03*
D17*
X30242556Y-66754470D03*
D16*
X27601534Y-65710678D03*
X341492510Y-84893478D03*
D17*
X336210466Y-86981061D03*
D18*
X341049759Y-89954147D03*
D17*
X338187361Y-93528273D03*
D16*
X340607008Y-95014816D03*
X225623611Y-65206613D03*
D17*
X230703611Y-62666613D03*
D18*
X225623611Y-60126613D03*
D17*
X228163611Y-56316613D03*
D16*
X225623611Y-55046613D03*
X72350385Y-76795303D03*
D17*
X69810385Y-71715303D03*
D18*
X67270385Y-76795303D03*
D17*
X63460385Y-74255303D03*
D16*
X62190385Y-76795303D03*
X194868914Y-127639009D03*
D17*
X200257067Y-129435061D03*
D18*
X198461016Y-124046907D03*
D17*
X202951144Y-123148881D03*
D16*
X202053118Y-120454805D03*
X53300385Y-107751603D03*
D17*
X50760385Y-102671603D03*
D18*
X48220385Y-107751603D03*
D17*
X44410385Y-105211603D03*
D16*
X43140385Y-107751603D03*
X110450385Y-77986003D03*
D17*
X107910385Y-72906003D03*
D18*
X105370385Y-77986003D03*
D17*
X101560385Y-75446003D03*
D16*
X100290385Y-77986003D03*
X306903675Y-57745301D03*
D17*
X304363675Y-52665301D03*
D18*
X301823675Y-57745301D03*
D17*
X298013675Y-55205301D03*
D16*
X296743675Y-57745301D03*
X325953659Y-88701603D03*
D17*
X323413659Y-83621603D03*
D18*
X320873659Y-88701603D03*
D17*
X317063659Y-86161603D03*
D16*
X315793659Y-88701603D03*
X268803643Y-58935927D03*
D17*
X266263643Y-53855927D03*
D18*
X263723643Y-58935927D03*
D17*
X259913643Y-56395927D03*
D16*
X258643643Y-58935927D03*
X91400385Y-51792171D03*
D17*
X88860385Y-46712171D03*
D18*
X86320385Y-51792171D03*
D17*
X82510385Y-49252171D03*
D16*
X81240385Y-51792171D03*
X29170385Y-115212847D03*
D17*
X34250385Y-112672847D03*
D18*
X29170385Y-110132847D03*
D17*
X31710385Y-106322847D03*
D16*
X29170385Y-105052847D03*
X119975409Y-118467347D03*
D17*
X117435409Y-113387347D03*
D18*
X114895409Y-118467347D03*
D17*
X111085409Y-115927347D03*
D16*
X109815409Y-118467347D03*
X215523514Y-133925201D03*
D17*
X210135361Y-132129149D03*
D18*
X211931412Y-137517303D03*
D17*
X207441284Y-138415329D03*
D16*
X208339310Y-141109405D03*
X160754734Y-141109405D03*
D17*
X162550786Y-135721252D03*
D18*
X157162632Y-137517303D03*
D17*
X156264606Y-133027175D03*
D16*
X153570530Y-133925201D03*
X53300353Y-69651561D03*
D17*
X50760353Y-64571561D03*
D18*
X48220353Y-69651561D03*
D17*
X44410353Y-67111561D03*
D16*
X43140353Y-69651561D03*
X172799518Y-159180789D03*
D17*
X175928927Y-154441085D03*
D18*
X170259518Y-154781380D03*
D17*
X170554223Y-150211823D03*
D16*
X167719518Y-150381971D03*
D19*
X82817255Y-114300096D03*
D20*
X82817255Y-116300096D03*
D16*
X167040926Y-120454805D03*
D17*
X165244874Y-125842958D03*
D18*
X170633028Y-124046907D03*
D17*
X171531054Y-128537035D03*
D16*
X174225130Y-127639009D03*
X306903675Y-114895409D03*
D17*
X304363675Y-109815409D03*
D18*
X301823675Y-114895409D03*
D17*
X298013675Y-112355409D03*
D16*
X296743675Y-114895409D03*
X283601190Y-126960417D03*
D17*
X283941486Y-121291008D03*
D18*
X279201781Y-124420417D03*
D17*
X277172224Y-120315712D03*
D16*
X274802372Y-121880417D03*
X233594898Y-121880417D03*
D17*
X228855194Y-118751008D03*
D18*
X229195489Y-124420417D03*
D17*
X224625932Y-124125712D03*
D16*
X224796080Y-126960417D03*
X268803659Y-77986003D03*
D17*
X266263659Y-72906003D03*
D18*
X263723659Y-77986003D03*
D17*
X259913659Y-75446003D03*
D16*
X258643659Y-77986003D03*
X325953659Y-107751603D03*
D17*
X323413659Y-102671603D03*
D18*
X320873659Y-107751603D03*
D17*
X317063659Y-105211603D03*
D16*
X315793659Y-107751603D03*
X110450385Y-97036003D03*
D17*
X107910385Y-91956003D03*
D18*
X105370385Y-97036003D03*
D17*
X101560385Y-94496003D03*
D16*
X100290385Y-97036003D03*
X249753659Y-99417203D03*
D17*
X247213659Y-94337203D03*
D18*
X244673659Y-99417203D03*
D17*
X240863659Y-96877203D03*
D16*
X239593659Y-99417203D03*
X215271072Y-110462619D03*
D17*
X220010776Y-113592028D03*
D18*
X219670481Y-107922619D03*
D17*
X224240038Y-108217324D03*
D16*
X224069890Y-105382619D03*
X249753659Y-80367203D03*
D17*
X247213659Y-75287203D03*
D18*
X244673659Y-80367203D03*
D17*
X240863659Y-77827203D03*
D16*
X239593659Y-80367203D03*
X129500385Y-99417203D03*
D17*
X126960385Y-94337203D03*
D18*
X124420385Y-99417203D03*
D17*
X120610385Y-96877203D03*
D16*
X119340385Y-99417203D03*
X325953691Y-69651561D03*
D17*
X323413691Y-64571561D03*
D18*
X320873691Y-69651561D03*
D17*
X317063691Y-67111561D03*
D16*
X315793691Y-69651561D03*
X91400385Y-89892203D03*
D17*
X88860385Y-84812203D03*
D18*
X86320385Y-89892203D03*
D17*
X82510385Y-87352203D03*
D16*
X81240385Y-89892203D03*
X306903659Y-76795303D03*
D17*
X304363659Y-71715303D03*
D18*
X301823659Y-76795303D03*
D17*
X298013659Y-74255303D03*
D16*
X296743659Y-76795303D03*
X259278635Y-118467347D03*
D17*
X256738635Y-113387347D03*
D18*
X254198635Y-118467347D03*
D17*
X250388635Y-115927347D03*
D16*
X249118635Y-118467347D03*
X72350385Y-95845303D03*
D17*
X69810385Y-90765303D03*
D18*
X67270385Y-95845303D03*
D17*
X63460385Y-93305303D03*
D16*
X62190385Y-95845303D03*
D21*
X173831396Y-151209502D03*
X85129759Y-47029727D03*
D16*
X287853659Y-70842203D03*
D17*
X285313659Y-65762203D03*
D18*
X282773659Y-70842203D03*
D17*
X278963659Y-68302203D03*
D16*
X277693659Y-70842203D03*
X225623611Y-86637881D03*
D17*
X230703611Y-84097881D03*
D18*
X225623611Y-81557881D03*
D17*
X228163611Y-77747881D03*
D16*
X225623611Y-76477881D03*
X287853659Y-51792171D03*
D17*
X285313659Y-46712171D03*
D18*
X282773659Y-51792171D03*
D17*
X278963659Y-49252171D03*
D16*
X277693659Y-51792171D03*
X129500417Y-61317179D03*
D17*
X126960417Y-56237179D03*
D18*
X124420417Y-61317179D03*
D17*
X120610417Y-58777179D03*
D16*
X119340417Y-61317179D03*
X143470433Y-55046613D03*
D17*
X138390433Y-57586613D03*
D18*
X143470433Y-60126613D03*
D17*
X140930433Y-63936613D03*
D16*
X143470433Y-65206613D03*
X287853659Y-89892203D03*
D17*
X285313659Y-84812203D03*
D18*
X282773659Y-89892203D03*
D17*
X278963659Y-87352203D03*
D16*
X277693659Y-89892203D03*
X249753627Y-61317179D03*
D17*
X247213627Y-56237179D03*
D18*
X244673627Y-61317179D03*
D17*
X240863627Y-58777179D03*
D16*
X239593627Y-61317179D03*
X145024154Y-105382619D03*
D17*
X144683858Y-111052028D03*
D18*
X149423563Y-107922619D03*
D17*
X151453120Y-112027324D03*
D16*
X153822972Y-110462619D03*
X201374526Y-150381971D03*
D17*
X195705117Y-150041675D03*
D18*
X198834526Y-154781380D03*
D17*
X194729821Y-156810937D03*
D16*
X196294526Y-159180789D03*
X129500385Y-80367203D03*
D17*
X126960385Y-75287203D03*
D18*
X124420385Y-80367203D03*
D17*
X120610385Y-77827203D03*
D16*
X119340385Y-80367203D03*
X72350369Y-57745301D03*
D17*
X69810369Y-52665301D03*
D18*
X67270369Y-57745301D03*
D17*
X63460369Y-55205301D03*
D16*
X62190369Y-57745301D03*
X72350369Y-114895409D03*
D17*
X69810369Y-109815409D03*
D18*
X67270369Y-114895409D03*
D17*
X63460369Y-112355409D03*
D16*
X62190369Y-114895409D03*
X28487036Y-95014816D03*
D17*
X33326330Y-92041730D03*
D18*
X28044285Y-89954147D03*
D17*
X30242556Y-85937270D03*
D16*
X27601534Y-84893478D03*
X339923659Y-105052847D03*
D17*
X334843659Y-107592847D03*
D18*
X339923659Y-110132847D03*
D17*
X337383659Y-113942847D03*
D16*
X339923659Y-115212847D03*
X143470433Y-76477881D03*
D17*
X138390433Y-79017881D03*
D18*
X143470433Y-81557881D03*
D17*
X140930433Y-85367881D03*
D16*
X143470433Y-86637881D03*
X94291672Y-121880417D03*
D17*
X89551968Y-118751008D03*
D18*
X89892263Y-124420417D03*
D17*
X85322706Y-124125712D03*
D16*
X85492854Y-126960417D03*
X341492510Y-65710678D03*
D17*
X336210466Y-67798261D03*
D18*
X341049759Y-70771347D03*
D17*
X338187361Y-74345473D03*
D16*
X340607008Y-75832016D03*
X53300385Y-88701603D03*
D17*
X50760385Y-83621603D03*
D18*
X48220385Y-88701603D03*
D17*
X44410385Y-86161603D03*
D16*
X43140385Y-88701603D03*
X268803659Y-97036003D03*
D17*
X266263659Y-91956003D03*
D18*
X263723659Y-97036003D03*
D17*
X259913659Y-94496003D03*
D16*
X258643659Y-97036003D03*
X91400385Y-70842203D03*
D17*
X88860385Y-65762203D03*
D18*
X86320385Y-70842203D03*
D17*
X82510385Y-68302203D03*
D16*
X81240385Y-70842203D03*
X110450401Y-58935927D03*
D17*
X107910401Y-53855927D03*
D18*
X105370401Y-58935927D03*
D17*
X101560401Y-56395927D03*
D16*
X100290401Y-58935927D03*
X306903659Y-95845303D03*
D17*
X304363659Y-90765303D03*
D18*
X301823659Y-95845303D03*
D17*
X298013659Y-93305303D03*
D16*
X296743659Y-95845303D03*
D21*
X33932841Y-108942279D03*
D14*
X65045369Y-119766661D03*
X69545369Y-119766661D03*
D15*
X63785369Y-117276661D03*
X70795369Y-117276661D03*
D22*
X334921821Y-44172231D03*
X334921821Y-46712231D03*
X334921821Y-49252231D03*
X334921821Y-51792231D03*
X334921821Y-54332231D03*
X334921821Y-56872231D03*
X334921821Y-59412231D03*
X318731821Y-59412231D03*
X318731821Y-56872231D03*
X318731821Y-54332231D03*
X318731821Y-51792231D03*
X318731821Y-49252231D03*
X318731821Y-46712231D03*
X318731821Y-44172231D03*
D23*
X328096821Y-43220231D03*
X325556821Y-43220231D03*
X328096821Y-45760231D03*
X325556821Y-45760231D03*
X331271821Y-51475231D03*
X331271821Y-49570231D03*
D24*
X116370409Y-123672730D03*
X113470409Y-123672730D03*
D22*
X50362223Y-44172231D03*
X50362223Y-46712231D03*
X50362223Y-49252231D03*
X50362223Y-51792231D03*
X50362223Y-54332231D03*
X50362223Y-56872231D03*
X50362223Y-59412231D03*
X34172223Y-59412231D03*
X34172223Y-56872231D03*
X34172223Y-54332231D03*
X34172223Y-51792231D03*
X34172223Y-49252231D03*
X34172223Y-46712231D03*
X34172223Y-44172231D03*
D23*
X43537223Y-43220231D03*
X40997223Y-43220231D03*
X43537223Y-45760231D03*
X40997223Y-45760231D03*
X46712223Y-51475231D03*
X46712223Y-49570231D03*
D24*
X255623635Y-123672730D03*
X252723635Y-123672730D03*
D19*
X286276789Y-114300096D03*
D20*
X286276789Y-116300096D03*
%LPD*%
M02*
