G04 #@! TF.GenerationSoftware,KiCad,Pcbnew,7.0.2*
G04 #@! TF.CreationDate,2023-05-17T12:25:55+02:00*
G04 #@! TF.ProjectId,mykeeb_v7a2_right,6d796b65-6562-45f7-9637-61325f726967,rev?*
G04 #@! TF.SameCoordinates,Original*
G04 #@! TF.FileFunction,Legend,Bot*
G04 #@! TF.FilePolarity,Positive*
%FSLAX46Y46*%
G04 Gerber Fmt 4.6, Leading zero omitted, Abs format (unit mm)*
G04 Created by KiCad (PCBNEW 7.0.2) date 2023-05-17 12:25:55*
%MOMM*%
%LPD*%
G01*
G04 APERTURE LIST*
G04 Aperture macros list*
%AMRoundRect*
0 Rectangle with rounded corners*
0 $1 Rounding radius*
0 $2 $3 $4 $5 $6 $7 $8 $9 X,Y pos of 4 corners*
0 Add a 4 corners polygon primitive as box body*
4,1,4,$2,$3,$4,$5,$6,$7,$8,$9,$2,$3,0*
0 Add four circle primitives for the rounded corners*
1,1,$1+$1,$2,$3*
1,1,$1+$1,$4,$5*
1,1,$1+$1,$6,$7*
1,1,$1+$1,$8,$9*
0 Add four rect primitives between the rounded corners*
20,1,$1+$1,$2,$3,$4,$5,0*
20,1,$1+$1,$4,$5,$6,$7,0*
20,1,$1+$1,$6,$7,$8,$9,0*
20,1,$1+$1,$8,$9,$2,$3,0*%
%AMRotRect*
0 Rectangle, with rotation*
0 The origin of the aperture is its center*
0 $1 length*
0 $2 width*
0 $3 Rotation angle, in degrees counterclockwise*
0 Add horizontal line*
21,1,$1,$2,0,0,$3*%
G04 Aperture macros list end*
%ADD10C,0.150000*%
%ADD11C,0.120000*%
%ADD12RotRect,2.550000X2.500000X30.000000*%
%ADD13C,1.750000*%
%ADD14C,3.987800*%
%ADD15O,2.750000X1.800000*%
%ADD16C,1.397000*%
%ADD17RotRect,2.550000X2.500000X85.000000*%
%ADD18R,2.550000X2.500000*%
%ADD19R,2.500000X2.550000*%
%ADD20RotRect,2.550000X2.500000X45.000000*%
%ADD21RotRect,2.550000X2.500000X60.000000*%
%ADD22RotRect,2.550000X2.500000X217.000000*%
%ADD23C,2.000000*%
%ADD24RotRect,2.550000X2.500000X330.000000*%
%ADD25RoundRect,0.150000X0.150000X-0.587500X0.150000X0.587500X-0.150000X0.587500X-0.150000X-0.587500X0*%
%ADD26RoundRect,0.250000X0.350000X0.625000X-0.350000X0.625000X-0.350000X-0.625000X0.350000X-0.625000X0*%
%ADD27O,1.200000X1.750000*%
%ADD28R,1.100000X0.600000*%
%ADD29R,1.000000X0.600000*%
%ADD30C,0.700000*%
%ADD31R,0.600000X1.000000*%
%ADD32RoundRect,0.150000X0.587500X0.150000X-0.587500X0.150000X-0.587500X-0.150000X0.587500X-0.150000X0*%
%ADD33R,1.000000X1.700000*%
G04 APERTURE END LIST*
D10*
X141273140Y-156448196D02*
X141273140Y-157972006D01*
X142035045Y-157210101D02*
X140511235Y-157210101D01*
D11*
X160365096Y-210398615D02*
X160365096Y-211048615D01*
X160365096Y-210398615D02*
X160365096Y-209748615D01*
X163485096Y-210398615D02*
X163485096Y-212073615D01*
X163485096Y-210398615D02*
X163485096Y-209748615D01*
X84165072Y-200025168D02*
X84165072Y-200675168D01*
X84165072Y-200025168D02*
X84165072Y-199375168D01*
X87285072Y-200025168D02*
X87285072Y-201700168D01*
X87285072Y-200025168D02*
X87285072Y-199375168D01*
X90118202Y-219328310D02*
X90118202Y-219978310D01*
X90118202Y-219328310D02*
X90118202Y-218678310D01*
X93238202Y-219328310D02*
X93238202Y-221003310D01*
X93238202Y-219328310D02*
X93238202Y-218678310D01*
X140172616Y-163453884D02*
X134052616Y-163453884D01*
X140172616Y-157233884D02*
X139252616Y-157233884D01*
X140172616Y-155633884D02*
X140172616Y-163453884D01*
X139412616Y-161193884D02*
X138412616Y-161193884D01*
X139412616Y-159593884D02*
X139412616Y-161193884D01*
X139252616Y-157233884D02*
X139252616Y-155633884D01*
X139252616Y-155633884D02*
X140172616Y-155633884D01*
X138972616Y-157233884D02*
X139252616Y-157233884D01*
X138972616Y-157233884D02*
X138972616Y-156018884D01*
X138912616Y-161193884D02*
X138912616Y-163453884D01*
X138412616Y-161193884D02*
X138412616Y-163453884D01*
X138412616Y-161193884D02*
X138412616Y-159593884D01*
X138412616Y-159593884D02*
X139412616Y-159593884D01*
X137612616Y-163453884D02*
X137612616Y-159093884D01*
X137612616Y-159093884D02*
X136612616Y-159093884D01*
X136612616Y-159093884D02*
X136612616Y-163453884D01*
X135812616Y-161193884D02*
X135812616Y-159593884D01*
X135812616Y-159593884D02*
X134812616Y-159593884D01*
X134972616Y-157233884D02*
X135252616Y-157233884D01*
X134972616Y-155633884D02*
X134972616Y-157233884D01*
X134812616Y-161193884D02*
X135812616Y-161193884D01*
X134812616Y-159593884D02*
X134812616Y-161193884D01*
X134052616Y-163453884D02*
X134052616Y-155633884D01*
X134052616Y-157233884D02*
X134972616Y-157233884D01*
X134052616Y-155633884D02*
X134972616Y-155633884D01*
X84165096Y-183356404D02*
X84165096Y-184006404D01*
X84165096Y-183356404D02*
X84165096Y-182706404D01*
X87285096Y-183356404D02*
X87285096Y-185031404D01*
X87285096Y-183356404D02*
X87285096Y-182706404D01*
X84165072Y-219075184D02*
X84165072Y-219725184D01*
X84165072Y-219075184D02*
X84165072Y-218425184D01*
X87285072Y-219075184D02*
X87285072Y-220750184D01*
X87285072Y-219075184D02*
X87285072Y-218425184D01*
X45469727Y-219075184D02*
X45469727Y-219725184D01*
X45469727Y-219075184D02*
X45469727Y-218425184D01*
X48589727Y-219075184D02*
X48589727Y-220750184D01*
X48589727Y-219075184D02*
X48589727Y-218425184D01*
X78211942Y-219075184D02*
X78211942Y-219725184D01*
X78211942Y-219075184D02*
X78211942Y-218425184D01*
X81331942Y-219075184D02*
X81331942Y-220750184D01*
X81331942Y-219075184D02*
X81331942Y-218425184D01*
X72258812Y-219075184D02*
X72258812Y-219725184D01*
X72258812Y-219075184D02*
X72258812Y-218425184D01*
X75378812Y-219075184D02*
X75378812Y-220750184D01*
X75378812Y-219075184D02*
X75378812Y-218425184D01*
X63103096Y-177772720D02*
X63753096Y-177772720D01*
X63103096Y-177772720D02*
X62453096Y-177772720D01*
X63103096Y-174652720D02*
X64778096Y-174652720D01*
X63103096Y-174652720D02*
X62453096Y-174652720D01*
X160365096Y-190842347D02*
X160365096Y-191492347D01*
X160365096Y-190842347D02*
X160365096Y-190192347D01*
X163485096Y-190842347D02*
X163485096Y-192517347D01*
X163485096Y-190842347D02*
X163485096Y-190192347D01*
X160365096Y-172640770D02*
X160365096Y-173290770D01*
X160365096Y-172640770D02*
X160365096Y-171990770D01*
X163485096Y-172640770D02*
X163485096Y-174315770D01*
X163485096Y-172640770D02*
X163485096Y-171990770D01*
X122265096Y-192881412D02*
X122265096Y-193531412D01*
X122265096Y-192881412D02*
X122265096Y-192231412D01*
X125385096Y-192881412D02*
X125385096Y-194556412D01*
X125385096Y-192881412D02*
X125385096Y-192231412D01*
X160365096Y-229448631D02*
X160365096Y-230098631D01*
X160365096Y-229448631D02*
X160365096Y-228798631D01*
X163485096Y-229448631D02*
X163485096Y-231123631D01*
X163485096Y-229448631D02*
X163485096Y-228798631D01*
X151400128Y-156793884D02*
X153400128Y-156793884D01*
X154700128Y-157843884D02*
X155150128Y-158293884D01*
X150100128Y-157843884D02*
X149650128Y-158293884D01*
X155150128Y-158293884D02*
X155150128Y-160793884D01*
X149650128Y-158293884D02*
X149650128Y-160793884D01*
X154700128Y-161243884D02*
X155150128Y-160793884D01*
X150100128Y-161243884D02*
X149650128Y-160793884D01*
X151400128Y-162293884D02*
X153400128Y-162293884D01*
X122265104Y-201215794D02*
X122265104Y-201865794D01*
X122265104Y-201215794D02*
X122265104Y-200565794D01*
X125385104Y-201215794D02*
X125385104Y-202890794D01*
X125385104Y-201215794D02*
X125385104Y-200565794D01*
X122265104Y-171792331D02*
X122265104Y-172442331D01*
X122265104Y-171792331D02*
X122265104Y-171142331D01*
X125385104Y-171792331D02*
X125385104Y-173467331D01*
X125385104Y-171792331D02*
X125385104Y-171142331D01*
%LPC*%
D12*
X56388206Y-238306315D03*
D13*
X59394587Y-239503520D03*
D14*
X63793996Y-236963520D03*
D13*
X68193405Y-234423520D03*
D12*
X66289934Y-229656611D03*
D15*
X144305128Y-152400120D03*
X144305128Y-154940120D03*
X144305128Y-157480120D03*
X144305128Y-160020120D03*
X144305128Y-162560120D03*
X144305128Y-165100120D03*
X144305128Y-167640120D03*
X160495128Y-167640120D03*
X160495128Y-165100120D03*
X160495128Y-162560120D03*
X160495128Y-160020120D03*
X160495128Y-157480120D03*
X160495128Y-154940120D03*
X160495128Y-152400120D03*
D16*
X151130128Y-151448120D03*
X153670128Y-151448120D03*
X151130128Y-153988120D03*
X153670128Y-153988120D03*
X147955128Y-159703120D03*
X147955128Y-157798120D03*
D17*
X169428363Y-190122184D03*
D13*
X172133445Y-188346189D03*
D14*
X172576196Y-183285520D03*
D13*
X173018947Y-178224851D03*
D17*
X168022338Y-177049897D03*
D18*
X140435096Y-172799520D03*
D13*
X138430096Y-170259520D03*
D14*
X133350096Y-170259520D03*
D13*
X128270096Y-170259520D03*
D18*
X127535096Y-175339520D03*
X145315096Y-198675820D03*
D13*
X147320096Y-201215820D03*
D14*
X152400096Y-201215820D03*
D13*
X157480096Y-201215820D03*
D18*
X158215096Y-196135820D03*
X102335096Y-173990220D03*
D13*
X100330096Y-171450220D03*
D14*
X95250096Y-171450220D03*
D13*
X90170096Y-171450220D03*
D18*
X89435096Y-176530220D03*
X145315096Y-217725820D03*
D13*
X147320096Y-220265820D03*
D14*
X152400096Y-220265820D03*
D13*
X157480096Y-220265820D03*
D18*
X158215096Y-215185820D03*
D19*
X168910096Y-229732020D03*
D13*
X171450096Y-227727020D03*
D14*
X171450096Y-222647020D03*
D13*
X171450096Y-217567020D03*
D19*
X166370096Y-216832020D03*
X168910096Y-170200820D03*
D13*
X171450096Y-168195820D03*
D14*
X171450096Y-163115820D03*
D13*
X171450096Y-158035820D03*
D19*
X166370096Y-157300820D03*
D18*
X82211896Y-228441520D03*
D13*
X84216896Y-230981520D03*
D14*
X89296896Y-230981520D03*
D13*
X94376896Y-230981520D03*
D18*
X95111896Y-225901520D03*
D19*
X59689996Y-204846520D03*
D13*
X57149996Y-206851520D03*
D14*
X57149996Y-211931520D03*
D13*
X57149996Y-217011520D03*
D19*
X62229996Y-217746520D03*
D20*
X39628493Y-253245220D03*
D13*
X42842294Y-253623522D03*
D14*
X46434396Y-250031420D03*
D13*
X50026498Y-246439318D03*
D20*
X46954119Y-242327492D03*
D21*
X26999891Y-272161410D03*
D13*
X30202096Y-271695029D03*
D14*
X32742096Y-267295620D03*
D13*
X35282096Y-262896211D03*
D21*
X31250187Y-259719682D03*
D22*
X42599739Y-229428795D03*
D13*
X39469864Y-228606900D03*
D14*
X35412796Y-231664120D03*
D13*
X31355728Y-234721340D03*
D22*
X33825951Y-239220743D03*
D18*
X69115096Y-209391420D03*
D13*
X71120096Y-211931420D03*
D14*
X76200096Y-211931420D03*
D13*
X81280096Y-211931420D03*
D18*
X82015096Y-206851420D03*
X107215096Y-199866420D03*
D13*
X109220096Y-202406420D03*
D14*
X114300096Y-202406420D03*
D13*
X119380096Y-202406420D03*
D18*
X120115096Y-197326420D03*
D23*
X170259518Y-151804815D03*
X163759518Y-151804815D03*
D18*
X88165096Y-187960220D03*
D13*
X90170096Y-190500220D03*
D14*
X95250096Y-190500220D03*
D13*
X100330096Y-190500220D03*
D18*
X101065096Y-185420220D03*
X69115096Y-190341420D03*
D13*
X71120096Y-192881420D03*
D14*
X76200096Y-192881420D03*
D13*
X81280096Y-192881420D03*
D18*
X82015096Y-187801420D03*
X107215096Y-180816420D03*
D13*
X109220096Y-183356420D03*
D14*
X114300096Y-183356420D03*
D13*
X119380096Y-183356420D03*
D18*
X120115096Y-178276420D03*
X126265096Y-186769520D03*
D13*
X128270096Y-189309520D03*
D14*
X133350096Y-189309520D03*
D13*
X138430096Y-189309520D03*
D18*
X139165096Y-184229520D03*
D19*
X59690096Y-157221420D03*
D13*
X57150096Y-159226420D03*
D14*
X57150096Y-164306420D03*
D13*
X57150096Y-169386420D03*
D19*
X62230096Y-170121420D03*
D18*
X83285096Y-176371420D03*
D13*
X81280096Y-173831420D03*
D14*
X76200096Y-173831420D03*
D13*
X71120096Y-173831420D03*
D18*
X70385096Y-178911420D03*
X88165096Y-207010220D03*
D13*
X90170096Y-209550220D03*
D14*
X95250096Y-209550220D03*
D13*
X100330096Y-209550220D03*
D18*
X101065096Y-204470220D03*
X126265096Y-205819520D03*
D13*
X128270096Y-208359520D03*
D14*
X133350096Y-208359520D03*
D13*
X138430096Y-208359520D03*
D18*
X139165096Y-203279520D03*
D17*
X169428363Y-209304984D03*
D13*
X172133445Y-207528989D03*
D14*
X172576196Y-202468320D03*
D13*
X173018947Y-197407651D03*
D17*
X168022338Y-196232697D03*
D19*
X59690096Y-181033920D03*
D13*
X57150096Y-183038920D03*
D14*
X57150096Y-188118920D03*
D13*
X57150096Y-193198920D03*
D19*
X62230096Y-193933920D03*
D24*
X109434206Y-231263515D03*
D13*
X109900587Y-234465720D03*
D14*
X114299996Y-237005720D03*
D13*
X118699405Y-239545720D03*
D24*
X121875934Y-235513811D03*
D18*
X154840096Y-239157120D03*
D13*
X156845096Y-241697120D03*
D14*
X161925096Y-241697120D03*
D13*
X167005096Y-241697120D03*
D18*
X167740096Y-236617120D03*
X159485096Y-184705820D03*
D13*
X157480096Y-182165820D03*
D14*
X152400096Y-182165820D03*
D13*
X147320096Y-182165820D03*
D18*
X146585096Y-187245820D03*
X121385096Y-166846420D03*
D13*
X119380096Y-164306420D03*
D14*
X114300096Y-164306420D03*
D13*
X109220096Y-164306420D03*
D18*
X108485096Y-169386420D03*
D25*
X162875096Y-211336115D03*
X160975096Y-211336115D03*
X161925096Y-209461115D03*
X86675072Y-200962668D03*
X84775072Y-200962668D03*
X85725072Y-199087668D03*
X92628202Y-220265810D03*
X90728202Y-220265810D03*
X91678202Y-218390810D03*
D26*
X138112616Y-157093884D03*
D27*
X136112616Y-157093884D03*
D25*
X86675096Y-184293904D03*
X84775096Y-184293904D03*
X85725096Y-182418904D03*
X86675072Y-220012684D03*
X84775072Y-220012684D03*
X85725072Y-218137684D03*
X47979727Y-220012684D03*
X46079727Y-220012684D03*
X47029727Y-218137684D03*
D28*
X140550096Y-150114120D03*
D29*
X133350096Y-150114120D03*
D30*
X138400096Y-151257120D03*
X135500096Y-151257120D03*
D29*
X140550096Y-152400120D03*
D28*
X133350096Y-152400120D03*
D31*
X134750096Y-153107120D03*
X137650096Y-153107120D03*
X139150096Y-153107120D03*
D25*
X80721942Y-220012684D03*
X78821942Y-220012684D03*
X79771942Y-218137684D03*
X74768812Y-220012684D03*
X72868812Y-220012684D03*
X73818812Y-218137684D03*
D32*
X64040596Y-175262720D03*
X64040596Y-177162720D03*
X62165596Y-176212720D03*
D25*
X162875096Y-191779847D03*
X160975096Y-191779847D03*
X161925096Y-189904847D03*
X162875096Y-173578270D03*
X160975096Y-173578270D03*
X161925096Y-171703270D03*
X124775096Y-193818912D03*
X122875096Y-193818912D03*
X123825096Y-191943912D03*
X162875096Y-230386131D03*
X160975096Y-230386131D03*
X161925096Y-228511131D03*
D33*
X150500128Y-156393884D03*
X150500128Y-162693884D03*
X154300128Y-156393884D03*
X154300128Y-162693884D03*
D25*
X124775104Y-202153294D03*
X122875104Y-202153294D03*
X123825104Y-200278294D03*
X124775104Y-172729831D03*
X122875104Y-172729831D03*
X123825104Y-170854831D03*
%LPD*%
M02*
