G04 #@! TF.GenerationSoftware,KiCad,Pcbnew,7.0.2*
G04 #@! TF.CreationDate,2023-05-17T12:25:55+02:00*
G04 #@! TF.ProjectId,mykeeb_v7a2_right,6d796b65-6562-45f7-9637-61325f726967,rev?*
G04 #@! TF.SameCoordinates,Original*
G04 #@! TF.FileFunction,Paste,Bot*
G04 #@! TF.FilePolarity,Positive*
%FSLAX46Y46*%
G04 Gerber Fmt 4.6, Leading zero omitted, Abs format (unit mm)*
G04 Created by KiCad (PCBNEW 7.0.2) date 2023-05-17 12:25:55*
%MOMM*%
%LPD*%
G01*
G04 APERTURE LIST*
G04 Aperture macros list*
%AMRoundRect*
0 Rectangle with rounded corners*
0 $1 Rounding radius*
0 $2 $3 $4 $5 $6 $7 $8 $9 X,Y pos of 4 corners*
0 Add a 4 corners polygon primitive as box body*
4,1,4,$2,$3,$4,$5,$6,$7,$8,$9,$2,$3,0*
0 Add four circle primitives for the rounded corners*
1,1,$1+$1,$2,$3*
1,1,$1+$1,$4,$5*
1,1,$1+$1,$6,$7*
1,1,$1+$1,$8,$9*
0 Add four rect primitives between the rounded corners*
20,1,$1+$1,$2,$3,$4,$5,0*
20,1,$1+$1,$4,$5,$6,$7,0*
20,1,$1+$1,$6,$7,$8,$9,0*
20,1,$1+$1,$8,$9,$2,$3,0*%
%AMRotRect*
0 Rectangle, with rotation*
0 The origin of the aperture is its center*
0 $1 length*
0 $2 width*
0 $3 Rotation angle, in degrees counterclockwise*
0 Add horizontal line*
21,1,$1,$2,0,0,$3*%
G04 Aperture macros list end*
%ADD10RotRect,2.550000X2.500000X30.000000*%
%ADD11RotRect,2.550000X2.500000X85.000000*%
%ADD12R,2.550000X2.500000*%
%ADD13R,2.500000X2.550000*%
%ADD14RotRect,2.550000X2.500000X45.000000*%
%ADD15RotRect,2.550000X2.500000X60.000000*%
%ADD16RotRect,2.550000X2.500000X217.000000*%
%ADD17RotRect,2.550000X2.500000X330.000000*%
%ADD18RoundRect,0.150000X0.150000X-0.587500X0.150000X0.587500X-0.150000X0.587500X-0.150000X-0.587500X0*%
%ADD19R,1.100000X0.600000*%
%ADD20R,1.000000X0.600000*%
%ADD21R,0.600000X1.000000*%
%ADD22RoundRect,0.150000X0.587500X0.150000X-0.587500X0.150000X-0.587500X-0.150000X0.587500X-0.150000X0*%
%ADD23R,1.000000X1.700000*%
G04 APERTURE END LIST*
D10*
X56388206Y-238306315D03*
X66289934Y-229656611D03*
D11*
X169428363Y-190122184D03*
X168022338Y-177049897D03*
D12*
X140435096Y-172799520D03*
X127535096Y-175339520D03*
X145315096Y-198675820D03*
X158215096Y-196135820D03*
X102335096Y-173990220D03*
X89435096Y-176530220D03*
X145315096Y-217725820D03*
X158215096Y-215185820D03*
D13*
X168910096Y-229732020D03*
X166370096Y-216832020D03*
X168910096Y-170200820D03*
X166370096Y-157300820D03*
D12*
X82211896Y-228441520D03*
X95111896Y-225901520D03*
D13*
X59689996Y-204846520D03*
X62229996Y-217746520D03*
D14*
X39628493Y-253245220D03*
X46954119Y-242327492D03*
D15*
X26999891Y-272161410D03*
X31250187Y-259719682D03*
D16*
X42599739Y-229428795D03*
X33825951Y-239220743D03*
D12*
X69115096Y-209391420D03*
X82015096Y-206851420D03*
X107215096Y-199866420D03*
X120115096Y-197326420D03*
X88165096Y-187960220D03*
X101065096Y-185420220D03*
X69115096Y-190341420D03*
X82015096Y-187801420D03*
X107215096Y-180816420D03*
X120115096Y-178276420D03*
X126265096Y-186769520D03*
X139165096Y-184229520D03*
D13*
X59690096Y-157221420D03*
X62230096Y-170121420D03*
D12*
X83285096Y-176371420D03*
X70385096Y-178911420D03*
X88165096Y-207010220D03*
X101065096Y-204470220D03*
X126265096Y-205819520D03*
X139165096Y-203279520D03*
D11*
X169428363Y-209304984D03*
X168022338Y-196232697D03*
D13*
X59690096Y-181033920D03*
X62230096Y-193933920D03*
D17*
X109434206Y-231263515D03*
X121875934Y-235513811D03*
D12*
X154840096Y-239157120D03*
X167740096Y-236617120D03*
X159485096Y-184705820D03*
X146585096Y-187245820D03*
X121385096Y-166846420D03*
X108485096Y-169386420D03*
D18*
X162875096Y-211336115D03*
X160975096Y-211336115D03*
X161925096Y-209461115D03*
X86675072Y-200962668D03*
X84775072Y-200962668D03*
X85725072Y-199087668D03*
X92628202Y-220265810D03*
X90728202Y-220265810D03*
X91678202Y-218390810D03*
X86675096Y-184293904D03*
X84775096Y-184293904D03*
X85725096Y-182418904D03*
X86675072Y-220012684D03*
X84775072Y-220012684D03*
X85725072Y-218137684D03*
X47979727Y-220012684D03*
X46079727Y-220012684D03*
X47029727Y-218137684D03*
D19*
X140550096Y-150114120D03*
D20*
X133350096Y-150114120D03*
X140550096Y-152400120D03*
D19*
X133350096Y-152400120D03*
D21*
X134750096Y-153107120D03*
X137650096Y-153107120D03*
X139150096Y-153107120D03*
D18*
X80721942Y-220012684D03*
X78821942Y-220012684D03*
X79771942Y-218137684D03*
X74768812Y-220012684D03*
X72868812Y-220012684D03*
X73818812Y-218137684D03*
D22*
X64040596Y-175262720D03*
X64040596Y-177162720D03*
X62165596Y-176212720D03*
D18*
X162875096Y-191779847D03*
X160975096Y-191779847D03*
X161925096Y-189904847D03*
X162875096Y-173578270D03*
X160975096Y-173578270D03*
X161925096Y-171703270D03*
X124775096Y-193818912D03*
X122875096Y-193818912D03*
X123825096Y-191943912D03*
X162875096Y-230386131D03*
X160975096Y-230386131D03*
X161925096Y-228511131D03*
D23*
X150500128Y-156393884D03*
X150500128Y-162693884D03*
X154300128Y-156393884D03*
X154300128Y-162693884D03*
D18*
X124775104Y-202153294D03*
X122875104Y-202153294D03*
X123825104Y-200278294D03*
X124775104Y-172729831D03*
X122875104Y-172729831D03*
X123825104Y-170854831D03*
M02*
