G04 #@! TF.GenerationSoftware,KiCad,Pcbnew,7.0.2*
G04 #@! TF.CreationDate,2023-05-17T12:25:55+02:00*
G04 #@! TF.ProjectId,mykeeb_v7a2_right,6d796b65-6562-45f7-9637-61325f726967,rev?*
G04 #@! TF.SameCoordinates,Original*
G04 #@! TF.FileFunction,Profile,NP*
%FSLAX46Y46*%
G04 Gerber Fmt 4.6, Leading zero omitted, Abs format (unit mm)*
G04 Created by KiCad (PCBNEW 7.0.2) date 2023-05-17 12:25:55*
%MOMM*%
%LPD*%
G01*
G04 APERTURE LIST*
G04 #@! TA.AperFunction,Profile*
%ADD10C,0.100000*%
G04 #@! TD*
G04 #@! TA.AperFunction,Profile*
%ADD11C,0.160000*%
G04 #@! TD*
%ADD12C,0.160000*%
G04 #@! TA.AperFunction,Profile*
%ADD13C,0.120000*%
G04 #@! TD*
G04 APERTURE END LIST*
D10*
X132159454Y-149423596D02*
X170259392Y-149423596D01*
X53578170Y-153590754D02*
X63103178Y-153590754D01*
D11*
X177403194Y-230981472D02*
G75*
G03*
X180975072Y-227409616I6J3571872D01*
G01*
X150018717Y-245269005D02*
G75*
G03*
X153590722Y-248840883I3571883J5D01*
G01*
D12*
X47046763Y-259720287D02*
X46792660Y-259988886D01*
X46541263Y-260256396D01*
X46291498Y-260524636D01*
X46042294Y-260795427D01*
X45792579Y-261070586D01*
X45541281Y-261351934D01*
X45287326Y-261641290D01*
X45029644Y-261940472D01*
X44767162Y-262251301D01*
X44498807Y-262575596D01*
X44223507Y-262915176D01*
X43940191Y-263271859D01*
X43647786Y-263647467D01*
X43345220Y-264043818D01*
X43031421Y-264462730D01*
X42705316Y-264906025D01*
X42365834Y-265375520D01*
X42011901Y-265873035D01*
X41642447Y-266400390D01*
X41256399Y-266959404D01*
X40852684Y-267551896D01*
X40430230Y-268179686D01*
X39987966Y-268844592D01*
X39524819Y-269548435D01*
X39039717Y-270293033D01*
X38531587Y-271080205D01*
X37999358Y-271911772D01*
X37441957Y-272789552D01*
X36858313Y-273715365D01*
X36247352Y-274691030D01*
X35608003Y-275718366D01*
X34939194Y-276799194D01*
D11*
X109301092Y-211485024D02*
G75*
G03*
X106658861Y-212137936I-724892J-2739276D01*
G01*
X25654149Y-230550690D02*
X48960066Y-212671218D01*
X48960073Y-212671225D02*
G75*
G03*
X50006260Y-210145522I-2525973J2525825D01*
G01*
X142875089Y-221456469D02*
G75*
G03*
X140432739Y-218067883I-3571789J69D01*
G01*
X173831348Y-152995474D02*
G75*
G03*
X177403242Y-156567352I3571752J-126D01*
G01*
D10*
X66675024Y-160734543D02*
X66675056Y-157162632D01*
D12*
X62474929Y-245928453D02*
X62217901Y-246094182D01*
X61967469Y-246256734D01*
X61723251Y-246416415D01*
X61484867Y-246573536D01*
X61251933Y-246728405D01*
X61024069Y-246881331D01*
X60800894Y-247032622D01*
X60582025Y-247182588D01*
X60367081Y-247331538D01*
X60155681Y-247479779D01*
X59947443Y-247627622D01*
X59741984Y-247775375D01*
X59538925Y-247923346D01*
X59337883Y-248071845D01*
X59138477Y-248221180D01*
X58940325Y-248371661D01*
X58743045Y-248523596D01*
X58546256Y-248677294D01*
X58349577Y-248833063D01*
X58152626Y-248991213D01*
X57955021Y-249152053D01*
X57756380Y-249315891D01*
X57556323Y-249483036D01*
X57354468Y-249653796D01*
X57150432Y-249828482D01*
X56943836Y-250007402D01*
X56734296Y-250190864D01*
X56521431Y-250379177D01*
X56304860Y-250572650D01*
X56084202Y-250771592D01*
X55859074Y-250976313D01*
X55629096Y-251187120D01*
D11*
X100012552Y-164306468D02*
X70246949Y-164306421D01*
X177403194Y-230981416D02*
G75*
G03*
X173831316Y-234553371I106J-3571984D01*
G01*
X28864348Y-254285989D02*
X21125145Y-268642516D01*
X121527880Y-245216529D02*
X127272811Y-237303844D01*
X173831304Y-152995474D02*
G75*
G03*
X170259392Y-149423596I-3571804J74D01*
G01*
X125015698Y-157162676D02*
G75*
G03*
X128587576Y-153590787I-198J3572076D01*
G01*
X66675079Y-160734543D02*
G75*
G03*
X70246949Y-164306421I3572021J143D01*
G01*
X22790864Y-274006712D02*
X31469291Y-278042331D01*
X121443820Y-157162618D02*
X107156308Y-157162618D01*
D10*
X66675046Y-157162632D02*
G75*
G03*
X63103178Y-153590754I-3571846J32D01*
G01*
D11*
X150018885Y-230981493D02*
G75*
G03*
X146446919Y-227409615I-3571885J-7D01*
G01*
X153590722Y-248840883D02*
X170259486Y-248840930D01*
X121443820Y-157162618D02*
X125015698Y-157162712D01*
X27114691Y-239184663D02*
X24547207Y-236246372D01*
X180975167Y-160139230D02*
X180975072Y-227409616D01*
X28864345Y-254285987D02*
G75*
G03*
X27114691Y-239184663I-9524975J6548447D01*
G01*
X150018797Y-245269005D02*
X150018844Y-230981493D01*
X107156308Y-157162630D02*
G75*
G03*
X103584430Y-160734543I-208J-3571670D01*
G01*
X173831364Y-245269005D02*
X173831316Y-234553371D01*
X142875088Y-221456469D02*
X142874994Y-223837737D01*
D10*
X50006292Y-157162632D02*
X50006260Y-210145522D01*
D12*
X72694763Y-240372620D02*
X72367797Y-240505696D01*
X72038233Y-240644295D01*
X71706378Y-240788124D01*
X71372542Y-240936895D01*
X71037033Y-241090315D01*
X70700161Y-241248095D01*
X70362234Y-241409943D01*
X70023562Y-241575570D01*
X69684452Y-241744684D01*
X69345215Y-241916996D01*
X69006159Y-242092213D01*
X68667593Y-242270046D01*
X68329826Y-242450205D01*
X67993167Y-242632397D01*
X67657925Y-242816334D01*
X67324408Y-243001724D01*
X66992926Y-243188276D01*
X66663788Y-243375700D01*
X66337302Y-243563706D01*
X66013777Y-243752003D01*
X65693523Y-243940299D01*
X65376849Y-244128305D01*
X65064062Y-244315730D01*
X64755473Y-244502283D01*
X64451390Y-244687674D01*
X64152122Y-244871612D01*
X63857977Y-245053807D01*
X63569266Y-245233967D01*
X63286297Y-245411802D01*
X63009378Y-245587022D01*
X62738819Y-245759335D01*
X62474929Y-245928453D01*
D11*
X116648626Y-246523568D02*
G75*
G03*
X121527879Y-245216529I1786074J3093268D01*
G01*
X109301084Y-211485054D02*
X140432739Y-218067883D01*
X57745329Y-226218973D02*
G75*
G03*
X57745329Y-226218973I-5357817J0D01*
G01*
X25654147Y-230550687D02*
G75*
G03*
X24547208Y-236246372I2325353J-3407333D01*
G01*
D12*
X116648596Y-246523620D02*
X115554790Y-245872955D01*
X114504862Y-245259510D01*
X113497339Y-244682140D01*
X112530749Y-244139702D01*
X111603622Y-243631051D01*
X110714484Y-243155042D01*
X109861865Y-242710531D01*
X109044293Y-242296373D01*
X108260297Y-241911426D01*
X107508403Y-241554543D01*
X106787142Y-241224580D01*
X106095041Y-240920394D01*
X105430628Y-240640840D01*
X104792432Y-240384774D01*
X104178981Y-240151050D01*
X103588804Y-239938526D01*
X103020428Y-239746056D01*
X102472383Y-239572496D01*
X101943196Y-239416701D01*
X101431395Y-239277528D01*
X100935510Y-239153832D01*
X100454068Y-239044469D01*
X99985597Y-238948294D01*
X99528627Y-238864162D01*
X99081685Y-238790931D01*
X98643299Y-238727454D01*
X98211999Y-238672589D01*
X97786312Y-238625189D01*
X97364766Y-238584112D01*
X96945891Y-238548213D01*
X96528213Y-238516347D01*
X96110263Y-238487370D01*
D11*
X100012552Y-164306430D02*
G75*
G03*
X103584430Y-160734543I48J3571830D01*
G01*
D12*
X83013263Y-238388120D02*
X82653071Y-238407335D01*
X82297859Y-238427858D01*
X81947371Y-238449835D01*
X81601353Y-238473411D01*
X81259551Y-238498732D01*
X80921711Y-238525942D01*
X80587577Y-238555187D01*
X80256895Y-238586612D01*
X79929412Y-238620362D01*
X79604872Y-238656583D01*
X79283021Y-238695420D01*
X78963605Y-238737019D01*
X78646369Y-238781524D01*
X78331060Y-238829081D01*
X78017421Y-238879835D01*
X77705200Y-238933932D01*
X77394141Y-238991517D01*
X77083990Y-239052734D01*
X76774494Y-239117730D01*
X76465396Y-239186650D01*
X76156443Y-239259638D01*
X75847381Y-239336841D01*
X75537955Y-239418404D01*
X75227911Y-239504471D01*
X74916993Y-239595189D01*
X74604949Y-239690701D01*
X74291523Y-239791155D01*
X73976461Y-239896695D01*
X73659508Y-240007466D01*
X73340410Y-240123613D01*
X73018913Y-240245283D01*
X72694763Y-240372620D01*
D11*
X105337634Y-220925509D02*
X125965372Y-232424545D01*
X104112583Y-216025014D02*
G75*
G03*
X105337634Y-220925509I3062917J-1837686D01*
G01*
X127272781Y-237303827D02*
G75*
G03*
X125965372Y-232424545I-3093381J1785927D01*
G01*
X21125149Y-268642518D02*
G75*
G03*
X22790864Y-274006711I3263951J-1927182D01*
G01*
D10*
X53578170Y-153590752D02*
G75*
G03*
X50006292Y-157162632I0J-3571878D01*
G01*
D12*
X55629096Y-251187120D02*
X55393995Y-251404222D01*
X55153944Y-251627429D01*
X54909223Y-251856450D01*
X54660114Y-252090995D01*
X54406900Y-252330772D01*
X54149860Y-252575491D01*
X53889278Y-252824861D01*
X53625434Y-253078591D01*
X53358610Y-253336391D01*
X53089088Y-253597969D01*
X52817149Y-253863036D01*
X52543074Y-254131300D01*
X52267146Y-254402471D01*
X51989645Y-254676258D01*
X51710854Y-254952369D01*
X51431054Y-255230515D01*
X51150526Y-255510405D01*
X50869552Y-255791748D01*
X50588414Y-256074253D01*
X50307393Y-256357629D01*
X50026771Y-256641586D01*
X49746829Y-256925833D01*
X49467848Y-257210079D01*
X49190111Y-257494034D01*
X48913899Y-257777406D01*
X48639493Y-258059905D01*
X48367176Y-258341241D01*
X48097228Y-258621122D01*
X47829931Y-258899258D01*
X47565567Y-259175358D01*
X47304417Y-259449131D01*
X47046763Y-259720287D01*
D11*
X132159454Y-149423576D02*
G75*
G03*
X128587576Y-152995521I46J-3571924D01*
G01*
D12*
X96110263Y-238487370D02*
X95690848Y-238460325D01*
X95269907Y-238435006D01*
X94847656Y-238411396D01*
X94424315Y-238389476D01*
X94000101Y-238369228D01*
X93575232Y-238350634D01*
X93149927Y-238333676D01*
X92724403Y-238318334D01*
X92298878Y-238304592D01*
X91873572Y-238292431D01*
X91448700Y-238281833D01*
X91024483Y-238272780D01*
X90601137Y-238265253D01*
X90178882Y-238259235D01*
X89757934Y-238254707D01*
X89338512Y-238251651D01*
X88920835Y-238250048D01*
X88505119Y-238249882D01*
X88091584Y-238251133D01*
X87680448Y-238253783D01*
X87271928Y-238257814D01*
X86866242Y-238263209D01*
X86463609Y-238269948D01*
X86064247Y-238278014D01*
X85668373Y-238287388D01*
X85276207Y-238298053D01*
X84887965Y-238309990D01*
X84503866Y-238323181D01*
X84124128Y-238337607D01*
X83748970Y-238353251D01*
X83378608Y-238370095D01*
X83013263Y-238388120D01*
D11*
X31469305Y-278042301D02*
G75*
G03*
X34939194Y-276799194I1105795J2377701D01*
G01*
X180975148Y-160139230D02*
G75*
G03*
X177403242Y-156567352I-3571848J30D01*
G01*
X104112521Y-216024977D02*
X106658861Y-212137936D01*
X128587576Y-153590787D02*
X128587576Y-152995521D01*
X142874985Y-223837737D02*
G75*
G03*
X146446919Y-227409615I3572015J137D01*
G01*
X170259486Y-248840964D02*
G75*
G03*
X173831364Y-245269005I14J3571864D01*
G01*
D13*
X147701128Y-159271320D02*
X147701128Y-158229920D01*
X148386928Y-157544120D02*
X149987128Y-157544120D01*
X149987128Y-159957120D02*
X148386928Y-159957120D01*
X150368128Y-157925120D02*
X150368128Y-159576120D01*
X150876128Y-153556320D02*
X150876128Y-151879920D01*
X151561928Y-151194120D02*
X153238328Y-151194120D01*
X151561928Y-154242120D02*
X153238328Y-154242120D01*
X153924128Y-153556320D02*
X153924128Y-151879920D01*
X148386928Y-159957120D02*
G75*
G03*
X147701128Y-159271320I-438047J247753D01*
G01*
X147701128Y-158229920D02*
G75*
G03*
X148386928Y-157544120I247753J438047D01*
G01*
X150368128Y-157925120D02*
G75*
G03*
X149987128Y-157544120I-380999J1D01*
G01*
X149987128Y-159957120D02*
G75*
G03*
X150368128Y-159576120I1J380999D01*
G01*
X151561928Y-154242120D02*
G75*
G03*
X150876128Y-153556320I-438047J247753D01*
G01*
X150876128Y-151879920D02*
G75*
G03*
X151561928Y-151194120I247753J438047D01*
G01*
X153924128Y-153556320D02*
G75*
G03*
X153238328Y-154242120I-247753J-438047D01*
G01*
X153238328Y-151194120D02*
G75*
G03*
X153924128Y-151879920I438050J-247750D01*
G01*
M02*
