G04 #@! TF.GenerationSoftware,KiCad,Pcbnew,7.0.2*
G04 #@! TF.CreationDate,2023-05-17T12:31:54+02:00*
G04 #@! TF.ProjectId,mykeeb_v7a2_left,6d796b65-6562-45f7-9637-61325f6c6566,rev?*
G04 #@! TF.SameCoordinates,Original*
G04 #@! TF.FileFunction,Legend,Bot*
G04 #@! TF.FilePolarity,Positive*
%FSLAX46Y46*%
G04 Gerber Fmt 4.6, Leading zero omitted, Abs format (unit mm)*
G04 Created by KiCad (PCBNEW 7.0.2) date 2023-05-17 12:31:54*
%MOMM*%
%LPD*%
G01*
G04 APERTURE LIST*
G04 Aperture macros list*
%AMRoundRect*
0 Rectangle with rounded corners*
0 $1 Rounding radius*
0 $2 $3 $4 $5 $6 $7 $8 $9 X,Y pos of 4 corners*
0 Add a 4 corners polygon primitive as box body*
4,1,4,$2,$3,$4,$5,$6,$7,$8,$9,$2,$3,0*
0 Add four circle primitives for the rounded corners*
1,1,$1+$1,$2,$3*
1,1,$1+$1,$4,$5*
1,1,$1+$1,$6,$7*
1,1,$1+$1,$8,$9*
0 Add four rect primitives between the rounded corners*
20,1,$1+$1,$2,$3,$4,$5,0*
20,1,$1+$1,$4,$5,$6,$7,0*
20,1,$1+$1,$6,$7,$8,$9,0*
20,1,$1+$1,$8,$9,$2,$3,0*%
%AMRotRect*
0 Rectangle, with rotation*
0 The origin of the aperture is its center*
0 $1 length*
0 $2 width*
0 $3 Rotation angle, in degrees counterclockwise*
0 Add horizontal line*
21,1,$1,$2,0,0,$3*%
G04 Aperture macros list end*
%ADD10C,0.150000*%
%ADD11C,0.120000*%
%ADD12O,2.750000X1.800000*%
%ADD13C,1.397000*%
%ADD14R,2.550000X2.500000*%
%ADD15C,1.750000*%
%ADD16C,3.987800*%
%ADD17R,2.500000X2.550000*%
%ADD18RotRect,2.550000X2.500000X30.000000*%
%ADD19RotRect,2.550000X2.500000X143.000000*%
%ADD20RotRect,2.550000X2.500000X330.000000*%
%ADD21RotRect,2.550000X2.500000X300.000000*%
%ADD22RotRect,2.550000X2.500000X275.000000*%
%ADD23C,2.000000*%
%ADD24RotRect,2.550000X2.500000X315.000000*%
%ADD25RoundRect,0.150000X-0.150000X0.587500X-0.150000X-0.587500X0.150000X-0.587500X0.150000X0.587500X0*%
%ADD26R,1.100000X0.600000*%
%ADD27R,1.000000X0.600000*%
%ADD28C,0.700000*%
%ADD29R,0.600000X1.000000*%
%ADD30R,1.000000X1.700000*%
%ADD31RoundRect,0.250000X0.350000X0.625000X-0.350000X0.625000X-0.350000X-0.625000X0.350000X-0.625000X0*%
%ADD32O,1.200000X1.750000*%
%ADD33RoundRect,0.150000X0.587500X0.150000X-0.587500X0.150000X-0.587500X-0.150000X0.587500X-0.150000X0*%
G04 APERTURE END LIST*
D10*
X95130957Y-156978672D02*
X96654767Y-156978672D01*
X95892862Y-156216767D02*
X95892862Y-157740577D01*
D11*
X106335088Y-188714221D02*
X106335088Y-188064221D01*
X106335088Y-188714221D02*
X106335088Y-189364221D01*
X103215088Y-188714221D02*
X103215088Y-187039221D01*
X103215088Y-188714221D02*
X103215088Y-189364221D01*
X68235056Y-210398615D02*
X68235056Y-209748615D01*
X68235056Y-210398615D02*
X68235056Y-211048615D01*
X65115056Y-210398615D02*
X65115056Y-208723615D01*
X65115056Y-210398615D02*
X65115056Y-211048615D01*
X183130425Y-219075184D02*
X183130425Y-218425184D01*
X183130425Y-219075184D02*
X183130425Y-219725184D01*
X180010425Y-219075184D02*
X180010425Y-217400184D01*
X180010425Y-219075184D02*
X180010425Y-219725184D01*
X106335088Y-194072038D02*
X106335088Y-193422038D01*
X106335088Y-194072038D02*
X106335088Y-194722038D01*
X103215088Y-194072038D02*
X103215088Y-192397038D01*
X103215088Y-194072038D02*
X103215088Y-194722038D01*
X75200064Y-156793884D02*
X77200064Y-156793884D01*
X78500064Y-157843884D02*
X78950064Y-158293884D01*
X73900064Y-157843884D02*
X73450064Y-158293884D01*
X78950064Y-158293884D02*
X78950064Y-160793884D01*
X73450064Y-158293884D02*
X73450064Y-160793884D01*
X78500064Y-161243884D02*
X78950064Y-160793884D01*
X73900064Y-161243884D02*
X73450064Y-160793884D01*
X75200064Y-162293884D02*
X77200064Y-162293884D01*
X138481950Y-219328310D02*
X138481950Y-218678310D01*
X138481950Y-219328310D02*
X138481950Y-219978310D01*
X135361950Y-219328310D02*
X135361950Y-217653310D01*
X135361950Y-219328310D02*
X135361950Y-219978310D01*
X68235056Y-229448631D02*
X68235056Y-228798631D01*
X68235056Y-229448631D02*
X68235056Y-230098631D01*
X65115056Y-229448631D02*
X65115056Y-227773631D01*
X65115056Y-229448631D02*
X65115056Y-230098631D01*
X156341340Y-219075184D02*
X156341340Y-218425184D01*
X156341340Y-219075184D02*
X156341340Y-219725184D01*
X153221340Y-219075184D02*
X153221340Y-217400184D01*
X153221340Y-219075184D02*
X153221340Y-219725184D01*
X68235056Y-172640770D02*
X68235056Y-171990770D01*
X68235056Y-172640770D02*
X68235056Y-173290770D01*
X65115056Y-172640770D02*
X65115056Y-170965770D01*
X65115056Y-172640770D02*
X65115056Y-173290770D01*
X94738202Y-163453884D02*
X88618202Y-163453884D01*
X94738202Y-157233884D02*
X93818202Y-157233884D01*
X94738202Y-155633884D02*
X94738202Y-163453884D01*
X93978202Y-161193884D02*
X92978202Y-161193884D01*
X93978202Y-159593884D02*
X93978202Y-161193884D01*
X93818202Y-157233884D02*
X93818202Y-155633884D01*
X93818202Y-155633884D02*
X94738202Y-155633884D01*
X93538202Y-157233884D02*
X93818202Y-157233884D01*
X93538202Y-157233884D02*
X93538202Y-156018884D01*
X93478202Y-161193884D02*
X93478202Y-163453884D01*
X92978202Y-161193884D02*
X92978202Y-163453884D01*
X92978202Y-161193884D02*
X92978202Y-159593884D01*
X92978202Y-159593884D02*
X93978202Y-159593884D01*
X92178202Y-163453884D02*
X92178202Y-159093884D01*
X92178202Y-159093884D02*
X91178202Y-159093884D01*
X91178202Y-159093884D02*
X91178202Y-163453884D01*
X90378202Y-161193884D02*
X90378202Y-159593884D01*
X90378202Y-159593884D02*
X89378202Y-159593884D01*
X89538202Y-157233884D02*
X89818202Y-157233884D01*
X89538202Y-155633884D02*
X89538202Y-157233884D01*
X89378202Y-161193884D02*
X90378202Y-161193884D01*
X89378202Y-159593884D02*
X89378202Y-161193884D01*
X88618202Y-163453884D02*
X88618202Y-155633884D01*
X88618202Y-157233884D02*
X89538202Y-157233884D01*
X88618202Y-155633884D02*
X89538202Y-155633884D01*
X150388210Y-219075184D02*
X150388210Y-218425184D01*
X150388210Y-219075184D02*
X150388210Y-219725184D01*
X147268210Y-219075184D02*
X147268210Y-217400184D01*
X147268210Y-219075184D02*
X147268210Y-219725184D01*
X144435080Y-219075184D02*
X144435080Y-218425184D01*
X144435080Y-219075184D02*
X144435080Y-219725184D01*
X141315080Y-219075184D02*
X141315080Y-217400184D01*
X141315080Y-219075184D02*
X141315080Y-219725184D01*
X144435120Y-182761091D02*
X144435120Y-182111091D01*
X144435120Y-182761091D02*
X144435120Y-183411091D01*
X141315120Y-182761091D02*
X141315120Y-181086091D01*
X141315120Y-182761091D02*
X141315120Y-183411091D01*
X165497056Y-177772720D02*
X166147056Y-177772720D01*
X165497056Y-177772720D02*
X164847056Y-177772720D01*
X165497056Y-174652720D02*
X167172056Y-174652720D01*
X165497056Y-174652720D02*
X164847056Y-174652720D01*
X144435080Y-200025168D02*
X144435080Y-199375168D01*
X144435080Y-200025168D02*
X144435080Y-200675168D01*
X141315080Y-200025168D02*
X141315080Y-198350168D01*
X141315080Y-200025168D02*
X141315080Y-200675168D01*
X106335048Y-176807961D02*
X106335048Y-176157961D01*
X106335048Y-176807961D02*
X106335048Y-177457961D01*
X103215048Y-176807961D02*
X103215048Y-175132961D01*
X103215048Y-176807961D02*
X103215048Y-177457961D01*
X68235056Y-190842347D02*
X68235056Y-190192347D01*
X68235056Y-190842347D02*
X68235056Y-191492347D01*
X65115056Y-190842347D02*
X65115056Y-189167347D01*
X65115056Y-190842347D02*
X65115056Y-191492347D01*
%LPC*%
D12*
X68105064Y-152400120D03*
X68105064Y-154940120D03*
X68105064Y-157480120D03*
X68105064Y-160020120D03*
X68105064Y-162560120D03*
X68105064Y-165100120D03*
X68105064Y-167640120D03*
X84295064Y-167640120D03*
X84295064Y-165100120D03*
X84295064Y-162560120D03*
X84295064Y-160020120D03*
X84295064Y-157480120D03*
X84295064Y-154940120D03*
X84295064Y-152400120D03*
D13*
X74930064Y-151448120D03*
X77470064Y-151448120D03*
X74930064Y-153988120D03*
X77470064Y-153988120D03*
X71755064Y-159703120D03*
X71755064Y-157798120D03*
D14*
X107215096Y-199866404D03*
D15*
X109220096Y-202406404D03*
D16*
X114300096Y-202406404D03*
D15*
X119380096Y-202406404D03*
D14*
X120115096Y-197326404D03*
X107215096Y-180816404D03*
D15*
X109220096Y-183356404D03*
D16*
X114300096Y-183356404D03*
D15*
X119380096Y-183356404D03*
D14*
X120115096Y-178276404D03*
D17*
X168910096Y-171391404D03*
D15*
X171450096Y-169386404D03*
D16*
X171450096Y-164306404D03*
D15*
X171450096Y-159226404D03*
D17*
X166370096Y-158491404D03*
D14*
X83285096Y-184705804D03*
D15*
X81280096Y-182165804D03*
D16*
X76200096Y-182165804D03*
D15*
X71120096Y-182165804D03*
D14*
X70385096Y-187245804D03*
X159485096Y-176371404D03*
D15*
X157480096Y-173831404D03*
D16*
X152400096Y-173831404D03*
D15*
X147320096Y-173831404D03*
D14*
X146585096Y-178911404D03*
X126265096Y-187960204D03*
D15*
X128270096Y-190500204D03*
D16*
X133350096Y-190500204D03*
D15*
X138430096Y-190500204D03*
D14*
X139165096Y-185420204D03*
D17*
X168910096Y-195203904D03*
D15*
X171450096Y-193198904D03*
D16*
X171450096Y-188118904D03*
D15*
X171450096Y-183038904D03*
D17*
X166370096Y-182303904D03*
X59690096Y-156030804D03*
D15*
X57150096Y-158035804D03*
D16*
X57150096Y-163115804D03*
D15*
X57150096Y-168195804D03*
D17*
X62230096Y-168930804D03*
X168910196Y-219016504D03*
D15*
X171450196Y-217011504D03*
D16*
X171450196Y-211931504D03*
D15*
X171450196Y-206851504D03*
D17*
X166370196Y-206116504D03*
D14*
X69115096Y-198675804D03*
D15*
X71120096Y-201215804D03*
D16*
X76200096Y-201215804D03*
D15*
X81280096Y-201215804D03*
D14*
X82015096Y-196135804D03*
D17*
X59690096Y-215562004D03*
D15*
X57150096Y-217567004D03*
D16*
X57150096Y-222647004D03*
D15*
X57150096Y-227727004D03*
D17*
X62230096Y-228462004D03*
D14*
X126265096Y-207010204D03*
D15*
X128270096Y-209550204D03*
D16*
X133350096Y-209550204D03*
D15*
X138430096Y-209550204D03*
D14*
X139165096Y-204470204D03*
X59590096Y-239157104D03*
D15*
X61595096Y-241697104D03*
D16*
X66675096Y-241697104D03*
D15*
X71755096Y-241697104D03*
D14*
X72490096Y-236617104D03*
X121385096Y-166846404D03*
D15*
X119380096Y-164306404D03*
D16*
X114300096Y-164306404D03*
D15*
X109220096Y-164306404D03*
D14*
X108485096Y-169386404D03*
X132218296Y-228441504D03*
D15*
X134223296Y-230981504D03*
D16*
X139303296Y-230981504D03*
D15*
X144383296Y-230981504D03*
D14*
X145118296Y-225901504D03*
X145315096Y-209391404D03*
D15*
X147320096Y-211931404D03*
D16*
X152400096Y-211931404D03*
D15*
X157480096Y-211931404D03*
D14*
X158215096Y-206851404D03*
D18*
X106894406Y-238348499D03*
D15*
X109900787Y-239545704D03*
D16*
X114300196Y-237005704D03*
D15*
X118699605Y-234465704D03*
D18*
X116796134Y-229698795D03*
D19*
X197317118Y-237956498D03*
D15*
X197244464Y-234721324D03*
D16*
X193187396Y-231664104D03*
D15*
X189130328Y-228606884D03*
D19*
X185486110Y-232221618D03*
D20*
X159940406Y-231221299D03*
D15*
X160406787Y-234423504D03*
D16*
X164806196Y-236963504D03*
D15*
X169205605Y-239503504D03*
D20*
X172382134Y-235471595D03*
D21*
X194515301Y-259889814D03*
D15*
X193318096Y-262896195D03*
D16*
X195858096Y-267295604D03*
D15*
X198398096Y-271695013D03*
D21*
X203165005Y-269791542D03*
D14*
X88165096Y-205819504D03*
D15*
X90170096Y-208359504D03*
D16*
X95250096Y-208359504D03*
D15*
X100330096Y-208359504D03*
D14*
X101065096Y-203279504D03*
X102335096Y-172799504D03*
D15*
X100330096Y-170259504D03*
D16*
X95250096Y-170259504D03*
D15*
X90170096Y-170259504D03*
D14*
X89435096Y-175339504D03*
X88165096Y-186769504D03*
D15*
X90170096Y-189309504D03*
D16*
X95250096Y-189309504D03*
D15*
X100330096Y-189309504D03*
D14*
X101065096Y-184229504D03*
X140435096Y-173990204D03*
D15*
X138430096Y-171450204D03*
D16*
X133350096Y-171450204D03*
D15*
X128270096Y-171450204D03*
D14*
X127535096Y-176530204D03*
D22*
X57936832Y-195188889D03*
D15*
X55581245Y-197407635D03*
D16*
X56023996Y-202468304D03*
D15*
X56466747Y-207528973D03*
D22*
X61591476Y-207818425D03*
D14*
X145315096Y-190341404D03*
D15*
X147320096Y-192881404D03*
D16*
X152400096Y-192881404D03*
D15*
X157480096Y-192881404D03*
D14*
X158215096Y-187801404D03*
X69115096Y-217725804D03*
D15*
X71120096Y-220265804D03*
D16*
X76200096Y-220265804D03*
D15*
X81280096Y-220265804D03*
D14*
X82015096Y-215185804D03*
D23*
X64889117Y-151804815D03*
X58389117Y-151804815D03*
D22*
X57936832Y-176006089D03*
D15*
X55581245Y-178224835D03*
D16*
X56023996Y-183285504D03*
D15*
X56466747Y-188346173D03*
D22*
X61591476Y-188635625D03*
D24*
X178951996Y-243225501D03*
D15*
X178573694Y-246439302D03*
D16*
X182165796Y-250031404D03*
D15*
X185757898Y-253623506D03*
D24*
X189869724Y-250551127D03*
D25*
X103825088Y-187776721D03*
X105725088Y-187776721D03*
X104775088Y-189651721D03*
X65725056Y-209461115D03*
X67625056Y-209461115D03*
X66675056Y-211336115D03*
X180620425Y-218137684D03*
X182520425Y-218137684D03*
X181570425Y-220012684D03*
X103825088Y-193134538D03*
X105725088Y-193134538D03*
X104775088Y-195009538D03*
D26*
X95253202Y-150225876D03*
D27*
X88053202Y-150225876D03*
D28*
X93103202Y-151368876D03*
X90203202Y-151368876D03*
D27*
X95253202Y-152511876D03*
D26*
X88053202Y-152511876D03*
D29*
X89453202Y-153218876D03*
X92353202Y-153218876D03*
X93853202Y-153218876D03*
D30*
X74300064Y-156393884D03*
X74300064Y-162693884D03*
X78100064Y-156393884D03*
X78100064Y-162693884D03*
D25*
X135971950Y-218390810D03*
X137871950Y-218390810D03*
X136921950Y-220265810D03*
X65725056Y-228511131D03*
X67625056Y-228511131D03*
X66675056Y-230386131D03*
X153831340Y-218137684D03*
X155731340Y-218137684D03*
X154781340Y-220012684D03*
X65725056Y-171703270D03*
X67625056Y-171703270D03*
X66675056Y-173578270D03*
D31*
X92678202Y-157093884D03*
D32*
X90678202Y-157093884D03*
D25*
X147878210Y-218137684D03*
X149778210Y-218137684D03*
X148828210Y-220012684D03*
X141925080Y-218137684D03*
X143825080Y-218137684D03*
X142875080Y-220012684D03*
X141925120Y-181823591D03*
X143825120Y-181823591D03*
X142875120Y-183698591D03*
D33*
X166434556Y-175262720D03*
X166434556Y-177162720D03*
X164559556Y-176212720D03*
D25*
X141925080Y-199087668D03*
X143825080Y-199087668D03*
X142875080Y-200962668D03*
X103825048Y-175870461D03*
X105725048Y-175870461D03*
X104775048Y-177745461D03*
X65725056Y-189904847D03*
X67625056Y-189904847D03*
X66675056Y-191779847D03*
%LPD*%
M02*
