<?xml version="1.0" standalone="no"?>
 <!DOCTYPE svg PUBLIC "-//W3C//DTD SVG 1.1//EN" 
 "http://www.w3.org/Graphics/SVG/1.1/DTD/svg11.dtd"> 
<svg
  xmlns:svg="http://www.w3.org/2000/svg"
  xmlns="http://www.w3.org/2000/svg"
  xmlns:xlink="http://www.w3.org/1999/xlink"
  version="1.1"
  width="16.154400cm" height="12.440920cm" viewBox="0 0 161544000 124409200">
<title>SVG Picture created as mykeeb-User_Eco2.svg date 2022/04/18 18:45:09 </title>
  <desc>Picture generated by PCBNEW </desc>
<g style="fill:#000000; fill-opacity:1.000000;stroke:#000000; stroke-opacity:1.000000;
stroke-linecap:round; stroke-linejoin:round;"
 transform="translate(0 0) scale(1 1)">
</g>
<g style="fill:#000000; fill-opacity:0.0; 
stroke:#000000; stroke-width:0.000000; stroke-opacity:1; 
stroke-linecap:round; stroke-linejoin:round;">
</g>
<g style="fill:#000000; fill-opacity:0.0; 
stroke:#000000; stroke-width:150000.000000; stroke-opacity:1; 
stroke-linecap:round; stroke-linejoin:round;">
<path d="M135277173 116648759
L123326023 109748759
" />
<path d="M135277173 116648759
L142177173 104697609
" />
<path d="M130226023 97797609
L123326023 109748759
" />
<path d="M130226023 97797609
L142177173 104697609
" />
<path d="M135232273 89126529
L142132273 77175379
" />
<path d="M154083423 84075379
L147183423 96026529
" />
<path d="M154083423 84075379
L142132273 77175379
" />
<path d="M135232273 89126529
L147183423 96026529
" />
<path d="M130800000 28406250
L130800000 14606250
" />
<path d="M117000000 14606250
L117000000 28406250
" />
<path d="M130800000 28406250
L117000000 28406250
" />
<path d="M117000000 14606250
L130800000 14606250
" />
<path d="M130800000 52218750
L130800000 38418750
" />
<path d="M117000000 38418750
L117000000 52218750
" />
<path d="M130800000 52218750
L117000000 52218750
" />
<path d="M117000000 38418750
L130800000 38418750
" />
<path d="M130800000 78412500
L117000000 78412500
" />
<path d="M130800000 78412500
L130800000 64612500
" />
<path d="M117000000 64612500
L117000000 78412500
" />
<path d="M117000000 64612500
L130800000 64612500
" />
<path d="M101484828 103495967
L114814605 107067670
" />
<path d="M118386308 93737893
L105056531 90166190
" />
<path d="M101484828 103495967
L105056531 90166190
" />
<path d="M118386308 93737893
L114814605 107067670
" />
<path d="M97950000 83175000
L97950000 69375000
" />
<path d="M111750000 69375000
L111750000 83175000
" />
<path d="M111750000 69375000
L97950000 69375000
" />
<path d="M97950000 83175000
L111750000 83175000
" />
<path d="M97950000 64125000
L97950000 50325000
" />
<path d="M111750000 50325000
L111750000 64125000
" />
<path d="M111750000 50325000
L97950000 50325000
" />
<path d="M97950000 64125000
L111750000 64125000
" />
<path d="M97950000 45075000
L97950000 31275000
" />
<path d="M111750000 31275000
L111750000 45075000
" />
<path d="M111750000 31275000
L97950000 31275000
" />
<path d="M97950000 45075000
L111750000 45075000
" />
<path d="M97950000 26025000
L97950000 12225000
" />
<path d="M111750000 12225000
L111750000 26025000
" />
<path d="M111750000 12225000
L97950000 12225000
" />
<path d="M97950000 26025000
L111750000 26025000
" />
<path d="M78900000 102225000
L78900000 88425000
" />
<path d="M92700000 88425000
L92700000 102225000
" />
<path d="M92700000 88425000
L78900000 88425000
" />
<path d="M78900000 102225000
L92700000 102225000
" />
<path d="M78900000 78412500
L78900000 64612500
" />
<path d="M92700000 64612500
L92700000 78412500
" />
<path d="M92700000 64612500
L78900000 64612500
" />
<path d="M78900000 78412500
L92700000 78412500
" />
<path d="M78900000 59362500
L78900000 45562500
" />
<path d="M92700000 45562500
L92700000 59362500
" />
<path d="M92700000 45562500
L78900000 45562500
" />
<path d="M78900000 59362500
L92700000 59362500
" />
<path d="M78900000 40312500
L78900000 26512500
" />
<path d="M92700000 26512500
L92700000 40312500
" />
<path d="M92700000 26512500
L78900000 26512500
" />
<path d="M78900000 40312500
L92700000 40312500
" />
<path d="M78900000 21262500
L78900000 7462500
" />
<path d="M92700000 7462500
L92700000 21262500
" />
<path d="M92700000 7462500
L78900000 7462500
" />
<path d="M78900000 21262500
L92700000 21262500
" />
<path d="M59850000 16500000
L59850000 2700000
" />
<path d="M73650000 2700000
L73650000 16500000
" />
<path d="M73650000 2700000
L59850000 2700000
" />
<path d="M59850000 16500000
L73650000 16500000
" />
<path d="M59850000 35550000
L59850000 21750000
" />
<path d="M73650000 21750000
L73650000 35550000
" />
<path d="M73650000 21750000
L59850000 21750000
" />
<path d="M59850000 35550000
L73650000 35550000
" />
<path d="M59850000 54600000
L59850000 40800000
" />
<path d="M73650000 40800000
L73650000 54600000
" />
<path d="M73650000 40800000
L59850000 40800000
" />
<path d="M59850000 54600000
L73650000 54600000
" />
<path d="M59850000 73650000
L59850000 59850000
" />
<path d="M73650000 59850000
L73650000 73650000
" />
<path d="M73650000 59850000
L59850000 59850000
" />
<path d="M59850000 73650000
L73650000 73650000
" />
<path d="M59850000 109368750
L59850000 95568750
" />
<path d="M73650000 95568750
L73650000 109368750
" />
<path d="M73650000 95568750
L59850000 95568750
" />
<path d="M59850000 109368750
L73650000 109368750
" />
<path d="M40800000 116512500
L40800000 102712500
" />
<path d="M54600000 102712500
L54600000 116512500
" />
<path d="M54600000 102712500
L40800000 102712500
" />
<path d="M40800000 116512500
L54600000 116512500
" />
<path d="M40800000 97462500
L40800000 83662500
" />
<path d="M54600000 83662500
L54600000 97462500
" />
<path d="M54600000 83662500
L40800000 83662500
" />
<path d="M40800000 97462500
L54600000 97462500
" />
<path d="M40800000 78412500
L40800000 64612500
" />
<path d="M54600000 64612500
L54600000 78412500
" />
<path d="M54600000 64612500
L40800000 64612500
" />
<path d="M40800000 78412500
L54600000 78412500
" />
<path d="M40800000 59362500
L40800000 45562500
" />
<path d="M54600000 45562500
L54600000 59362500
" />
<path d="M54600000 45562500
L40800000 45562500
" />
<path d="M40800000 59362500
L54600000 59362500
" />
<path d="M40800000 40312500
L40800000 26512500
" />
<path d="M54600000 26512500
L54600000 40312500
" />
<path d="M54600000 26512500
L40800000 26512500
" />
<path d="M40800000 40312500
L54600000 40312500
" />
<path d="M40800000 21262500
L40800000 7462500
" />
<path d="M54600000 7462500
L54600000 21262500
" />
<path d="M54600000 7462500
L40800000 7462500
" />
<path d="M40800000 21262500
L54600000 21262500
" />
<path d="M21750000 109368750
L21750000 95568750
" />
<path d="M35550000 95568750
L35550000 109368750
" />
<path d="M35550000 95568750
L21750000 95568750
" />
<path d="M21750000 109368750
L35550000 109368750
" />
<path d="M21750000 90318750
L21750000 76518750
" />
<path d="M35550000 76518750
L35550000 90318750
" />
<path d="M35550000 76518750
L21750000 76518750
" />
<path d="M21750000 90318750
L35550000 90318750
" />
<path d="M21750000 71268750
L21750000 57468750
" />
<path d="M35550000 57468750
L35550000 71268750
" />
<path d="M35550000 57468750
L21750000 57468750
" />
<path d="M21750000 71268750
L35550000 71268750
" />
<path d="M21750000 52218750
L21750000 38418750
" />
<path d="M35550000 38418750
L35550000 52218750
" />
<path d="M35550000 38418750
L21750000 38418750
" />
<path d="M21750000 52218750
L35550000 52218750
" />
<path d="M21750000 33168750
L21750000 19368750
" />
<path d="M35550000 19368750
L35550000 33168750
" />
<path d="M35550000 19368750
L21750000 19368750
" />
<path d="M21750000 33168750
L35550000 33168750
" />
<path d="M2700000 92700000
L2700000 78900000
" />
<path d="M16500000 78900000
L16500000 92700000
" />
<path d="M16500000 78900000
L2700000 78900000
" />
<path d="M2700000 92700000
L16500000 92700000
" />
<path d="M2700000 73650000
L2700000 59850000
" />
<path d="M16500000 59850000
L16500000 73650000
" />
<path d="M16500000 59850000
L2700000 59850000
" />
<path d="M2700000 73650000
L16500000 73650000
" />
<path d="M2700000 54600000
L2700000 40800000
" />
<path d="M16500000 40800000
L16500000 54600000
" />
<path d="M16500000 40800000
L2700000 40800000
" />
<path d="M2700000 54600000
L16500000 54600000
" />
<path d="M2700000 35550000
L2700000 21750000
" />
<path d="M16500000 21750000
L16500000 35550000
" />
<path d="M16500000 21750000
L2700000 21750000
" />
<path d="M2700000 35550000
L16500000 35550000
" />
<path d="M16500000 97950000
L16500000 111750000
" />
<path d="M2700000 111750000
L16500000 111750000
" />
<path d="M2700000 111750000
L2700000 97950000
" />
<path d="M16500000 97950000
L2700000 97950000
" />
<path d="M59850000 95081250
L73650000 95081250
" />
<path d="M73650000 81281250
L59850000 81281250
" />
<path d="M73650000 81281250
L73650000 95081250
" />
<path d="M59850000 95081250
L59850000 81281250
" />
<g >
</g>
<g >
</g>
<g >
</g>
<g >
</g>
<g >
</g>
<g >
</g>
<g >
</g>
<g >
</g>
<g >
</g>
<g >
</g>
<g >
</g>
<g >
</g>
<g >
</g>
<g >
</g>
<g >
</g>
<g >
</g>
<g >
</g>
<g >
</g>
<g >
</g>
<g >
</g>
<g >
</g>
<g >
</g>
<g >
</g>
<g >
</g>
<g >
</g>
<g >
</g>
<g >
</g>
<g >
</g>
<g >
</g>
<g >
</g>
<g >
</g>
<g >
</g>
<g >
</g>
<g >
</g>
<g >
</g>
<g >
</g>
<g >
</g>
<g >
</g>
<g >
</g>
<g >
</g>
<g >
</g>
<g >
</g>
<g >
</g>
<g >
</g>
<g >
</g>
<g >
</g>
<g >
</g>
<g >
</g>
<g >
</g>
<g >
</g>
<g >
</g>
<g >
</g>
<g >
</g>
<g >
</g>
<g >
</g>
<g >
</g>
<g >
</g>
<g >
</g>
<g >
</g>
<g >
</g>
<g >
</g>
<g >
</g>
<g >
</g>
<g >
</g>
<g >
</g>
<g >
</g>
<g >
</g>
<g >
</g>
<g >
</g>
<g >
</g>
<g >
</g>
<g >
</g>
<g >
</g>
<g >
</g>
<g >
</g>
<g >
</g>
<g >
</g>
<g >
</g>
<g >
</g>
<g >
</g>
<g >
</g>
<g >
</g>
<g >
</g>
<g >
</g>
<g >
</g>
<g >
</g>
<g >
</g>
<g >
</g>
<g >
</g>
<g >
</g>
<g >
</g>
<g >
</g>
<g >
</g>
<g >
</g>
<g >
</g>
<g >
</g>
<g >
</g>
<g >
</g>
<g >
</g>
<g >
</g>
<g >
</g>
<g >
</g>
<g >
</g>
<g >
</g>
<g >
</g>
<g >
</g>
<g >
</g>
<g >
</g>
<g >
</g>
<g >
</g>
<g >
</g>
<g >
</g>
<g >
</g>
<g >
</g>
<g >
</g>
<g >
</g>
<g >
</g>
<g >
</g>
<g >
</g>
<g >
</g>
<g >
</g>
<g >
</g>
<g >
</g>
<g >
</g>
<g >
</g>
<g >
</g>
<g >
</g>
<g >
</g>
<g >
</g>
<g >
</g>
<g >
</g>
<g >
</g>
<g >
</g>
<g >
</g>
</g> 
</svg>
