<?xml version="1.0" standalone="no"?>
 <!DOCTYPE svg PUBLIC "-//W3C//DTD SVG 1.1//EN" 
 "http://www.w3.org/Graphics/SVG/1.1/DTD/svg11.dtd"> 
<svg
  xmlns:svg="http://www.w3.org/2000/svg"
  xmlns="http://www.w3.org/2000/svg"
  xmlns:xlink="http://www.w3.org/1999/xlink"
  version="1.1"
  width="339.9536mm" height="134.6200mm" viewBox="0.0000 0.0000 339.9536 134.6200">
<title>SVG Image created as mykeeb_v7a5-User_6.svg date 2023/06/10 20:45:29 </title>
  <desc>Image generated by PCBNEW </desc>
<g style="fill:#000000; fill-opacity:1.0000;stroke:#000000; stroke-opacity:1.0000;
stroke-linecap:round; stroke-linejoin:round;"
 transform="translate(0 0) scale(1 1)">
</g>
<g style="fill:#000000; fill-opacity:0.0; 
stroke:#000000; stroke-width:0.0000; stroke-opacity:1; 
stroke-linecap:round; stroke-linejoin:round;">
</g>
<g style="fill:#000000; fill-opacity:0.0; 
stroke:#000000; stroke-width:0.1000; stroke-opacity:1; 
stroke-linecap:round; stroke-linejoin:round;">
<path style="fill:#000000; fill-opacity:0.0; 
stroke:#000000; stroke-width:0.1000; stroke-opacity:1; 
stroke-linecap:round; stroke-linejoin:round;fill:none"
d="M 81.6079,63.1532
81.7949,63.1556
82.1670,63.1947
82.5330,63.2725
82.8888,63.3881
83.2306,63.5403
83.5546,63.7274
83.8573,63.9473
84.1353,64.1976
84.3857,64.4757
84.6056,64.7783
84.7926,65.1023
84.9448,65.4441
85.0604,65.7999
85.1382,66.1659
85.1773,66.5380
85.1798,66.7251
85.1822,66.9121
85.2213,67.2842
85.2991,67.6502
85.4147,68.0060
85.5669,68.3478
85.7539,68.6718
85.9738,68.9745
86.2242,69.2525
86.5022,69.5029
86.8049,69.7228
87.1289,69.9098
87.4707,70.0620
87.8265,70.1776
88.1925,70.2554
88.5646,70.2945
88.7516,70.2969
94.1095,70.2969
94.2965,70.2993
94.6686,70.3385
95.0346,70.4162
95.3904,70.5319
95.7322,70.6840
96.0562,70.8711
96.3589,71.0910
96.6369,71.3414
96.8873,71.6194
97.1072,71.9221
97.2942,72.2461
97.4464,72.5879
97.5620,72.9437
97.6398,73.3097
97.6790,73.6817
97.6813,73.8688
97.6789,74.0559
97.6398,74.4280
97.5620,74.7939
97.4464,75.1497
97.2942,75.4915
97.1072,75.8155
96.8873,76.1182
96.6369,76.3963
96.3589,76.6466
96.0562,76.8665
95.7322,77.0536
95.3904,77.2058
95.0346,77.3214
94.6686,77.3992
94.2965,77.4383
94.1095,77.4407
67.9157,77.4407
67.7286,77.4384
67.3565,77.3993
66.9905,77.3215
66.6347,77.2059
66.2929,77.0537
65.9689,76.8666
65.6662,76.6467
65.3882,76.3963
65.1378,76.1183
64.9179,75.8156
64.7308,75.4916
64.5786,75.1498
64.4630,74.7940
64.3852,74.4280
64.3461,74.0559
64.3438,73.8688
64.3438,66.7251
64.3461,66.5380
64.3852,66.1659
64.4630,65.7999
64.5786,65.4441
64.7308,65.1023
64.9179,64.7783
65.1378,64.4756
65.3882,64.1976
65.6662,63.9472
65.9689,63.7273
66.2929,63.5402
66.6347,63.3881
66.9905,63.2724
67.3565,63.1947
67.7286,63.1555
67.9157,63.1532
Z" /> 
<path style="fill:#000000; fill-opacity:0.0; 
stroke:#000000; stroke-width:0.1000; stroke-opacity:1; 
stroke-linecap:round; stroke-linejoin:round;fill:none"
d="M 167.9283,3.6219
175.6673,3.6219
175.6673,9.5750
167.9283,9.5750
Z" /> 
<path style="fill:#000000; fill-opacity:0.0; 
stroke:#000000; stroke-width:0.1000; stroke-opacity:1; 
stroke-linecap:round; stroke-linejoin:round;fill:none"
d="M 0.0500,128.6376
7.7891,128.6376
7.7891,134.5907
0.0500,134.5907
Z" /> 
<g >
</g>
<g >
</g>
<g >
</g>
<g >
</g>
<g >
</g>
<g >
</g>
<g >
</g>
<g >
</g>
<g >
</g>
<g >
</g>
<g >
</g>
<g >
</g>
<g >
</g>
<g >
</g>
<g >
</g>
<g >
</g>
<g >
</g>
<g >
</g>
<g >
</g>
<g >
</g>
<g >
</g>
<g >
</g>
<g >
</g>
<g >
</g>
<g >
</g>
<g >
</g>
<g >
</g>
<g >
</g>
<g >
</g>
<g >
</g>
<g >
</g>
<g >
</g>
<g >
</g>
<g >
</g>
<g >
</g>
<g >
</g>
<g >
</g>
<g >
</g>
<g >
</g>
<g >
</g>
<g >
</g>
<g >
</g>
<g >
</g>
<g >
</g>
<g >
</g>
<g >
</g>
<g >
</g>
<g >
</g>
<g >
</g>
<g >
</g>
<g >
</g>
<g >
</g>
<g >
</g>
<g >
</g>
<g >
</g>
<g >
</g>
<g >
</g>
<g >
</g>
<g >
</g>
<g >
</g>
<g >
</g>
<g >
</g>
<g >
</g>
<g >
</g>
<g >
</g>
<g >
</g>
<g >
</g>
<g >
</g>
<g >
</g>
<g >
</g>
<g >
</g>
<g >
</g>
<g >
</g>
<g >
</g>
<g >
</g>
<g >
</g>
<g >
</g>
<g >
</g>
<g >
</g>
<g >
</g>
<g >
</g>
<g >
</g>
<g >
</g>
<g >
</g>
<g >
</g>
<g >
</g>
<g >
</g>
<g >
</g>
<g >
</g>
<g >
</g>
<g >
</g>
<g >
</g>
<g >
</g>
<g >
</g>
<g >
</g>
<g >
</g>
<g >
</g>
<g >
</g>
<g >
</g>
<g >
</g>
<g >
</g>
<g >
</g>
<g >
</g>
<g >
</g>
<g >
</g>
<g >
</g>
</g> 
</svg>
