<?xml version="1.0"?>
<!DOCTYPE svg PUBLIC "-//W3C//DTD SVG 1.1//EN" "http://www.w3.org/Graphics/SVG/1.1/DTD/svg11.dtd">
<svg width="179.12968170000002mm" height="134.4812067mm" viewBox="0 0 179.12968170000002 134.4812067" xmlns="http://www.w3.org/2000/svg" version="1.1">
<g id="PCB_Sketch_1322" transform="translate(361.920538,41.046831) scale(1,-1)">
<path id="PCB_Sketch_1322_w0000"  d="M -278.60649 -20.240639000000012 L -292.29868 -20.240639000000012 A 3.57188 3.57188 0 0 1 -295.871 -23.8125L -295.870564 -30.956272999999996 A 3.57188 3.57188 0 0 1 -292.299 -34.5282L -280.392427 -34.528155 C -279.797114 -34.52815699999999 -276.774293 -34.52815699999999 -276.82054400000004 -36.31409599999999 A 3.57188 3.57188 0 1 1 -269.677 -36.3141C -269.723045 -34.528153 -266.700224 -34.528153 -266.104911 -34.528150999999994 A 3.57188 3.57188 0 1 1 -266.105 -27.3844L -271.462728 -27.38440100000001 A 3.57188 3.57188 0 0 0 -275.035 -23.8125A 3.57188 3.57188 0 0 1 -278.606 -20.2406" stroke="#000000" stroke-width="0.35 px" style="stroke-width:0.35;stroke-miterlimit:4;stroke-dasharray:none;stroke-linecap:square;fill:none;fill-opacity:1;fill-rule: evenodd"/>
<path id="PCB_Sketch_1322_w0001"  d="M -190.50016 37.504719 L -186.33296900000002 37.504719 L -186.33296900000002 35.123467000000005 L -190.50016 35.123467000000005 L -190.50016 37.504719 " stroke="#000000" stroke-width="0.35 px" style="stroke-width:0.35;stroke-miterlimit:4;stroke-dasharray:none;stroke-linecap:square;fill:none;fill-opacity:1;fill-rule: evenodd"/>
<path id="PCB_Sketch_1322_w0002"  d="M -357.783113 -88.106324 L -354.806548 -88.106324 L -354.806548 -89.29695000000001 L -357.783113 -89.29695000000001 L -357.783113 -88.106324 " stroke="#000000" stroke-width="0.35 px" style="stroke-width:0.35;stroke-miterlimit:4;stroke-dasharray:none;stroke-linecap:square;fill:none;fill-opacity:1;fill-rule: evenodd"/>
<path id="PCB_Sketch_1322_w0003"  d="M -192.286099 39.290658 L -184.54703 39.290658 L -184.54703 33.337528 L -192.286099 33.337528 L -192.286099 39.290658 " stroke="#000000" stroke-width="0.35 px" style="stroke-width:0.35;stroke-miterlimit:4;stroke-dasharray:none;stroke-linecap:square;fill:none;fill-opacity:1;fill-rule: evenodd"/>
<path id="PCB_Sketch_1322_w0004"  d="M -191.690786 38.695345 L -185.142343 38.695345 L -185.142343 33.932841 L -191.690786 33.932841 L -191.690786 38.695345 " stroke="#000000" stroke-width="0.35 px" style="stroke-width:0.35;stroke-miterlimit:4;stroke-dasharray:none;stroke-linecap:square;fill:none;fill-opacity:1;fill-rule: evenodd"/>
<path id="PCB_Sketch_1322_w0005"  d="M -359.569052 -86.32038499999999 L -353.02060900000004 -86.32038499999999 L -353.02060900000004 -91.082889 L -359.569052 -91.082889 L -359.569052 -86.32038499999999 " stroke="#000000" stroke-width="0.35 px" style="stroke-width:0.35;stroke-miterlimit:4;stroke-dasharray:none;stroke-linecap:square;fill:none;fill-opacity:1;fill-rule: evenodd"/>
<path id="PCB_Sketch_1322_w0006"  d="M -189.90484700000002 36.909406000000004 L -186.928282 36.909406000000004 L -186.928282 35.71878 L -189.90484700000002 35.71878 L -189.90484700000002 36.909406000000004 " stroke="#000000" stroke-width="0.35 px" style="stroke-width:0.35;stroke-miterlimit:4;stroke-dasharray:none;stroke-linecap:square;fill:none;fill-opacity:1;fill-rule: evenodd"/>
<path id="PCB_Sketch_1322_w0007"  d="M -360.16436500000003 -85.72507200000001 L -352.425296 -85.72507200000001 L -352.425296 -91.678202 L -360.16436500000003 -91.678202 L -360.16436500000003 -85.72507200000001 " stroke="#000000" stroke-width="0.35 px" style="stroke-width:0.35;stroke-miterlimit:4;stroke-dasharray:none;stroke-linecap:square;fill:none;fill-opacity:1;fill-rule: evenodd"/>
<path id="PCB_Sketch_1322_w0008"  d="M -358.378426 -87.511011 L -354.211235 -87.511011 L -354.211235 -89.89226299999999 L -358.378426 -89.89226299999999 L -358.378426 -87.511011 " stroke="#000000" stroke-width="0.35 px" style="stroke-width:0.35;stroke-miterlimit:4;stroke-dasharray:none;stroke-linecap:square;fill:none;fill-opacity:1;fill-rule: evenodd"/>
<title>b'PCB_Sketch_1322'</title>
</g>
</svg>