<?xml version="1.0" standalone="no"?>
 <!DOCTYPE svg PUBLIC "-//W3C//DTD SVG 1.1//EN" 
 "http://www.w3.org/Graphics/SVG/1.1/DTD/svg11.dtd"> 
<svg
  xmlns:svg="http://www.w3.org/2000/svg"
  xmlns="http://www.w3.org/2000/svg"
  xmlns:xlink="http://www.w3.org/1999/xlink"
  version="1.1"
  width="339.5726mm" height="131.0640mm" viewBox="0.0000 0.0000 339.5726 131.0640">
<title>SVG Image created as mykeeb_v7a5-User_3.svg date 2023/06/11 21:21:11 </title>
  <desc>Image generated by PCBNEW </desc>
<g style="fill:#000000; fill-opacity:1.0000;stroke:#000000; stroke-opacity:1.0000;
stroke-linecap:round; stroke-linejoin:round;"
 transform="translate(0 0) scale(1 1)">
</g>
<g style="fill:#000000; fill-opacity:0.0; 
stroke:#000000; stroke-width:0.0000; stroke-opacity:1; 
stroke-linecap:round; stroke-linejoin:round;">
</g>
<g style="fill:#000000; fill-opacity:1.0000; 
stroke:#000000; stroke-width:0.1000; stroke-opacity:1; 
stroke-linecap:round; stroke-linejoin:round;">
<path style="fill:#000000; fill-opacity:1.0000; 
stroke:#000000; stroke-width:0.1000; stroke-opacity:1; 
stroke-linecap:round; stroke-linejoin:round;fill-rule:evenodd;"
d="M 21.4813,3.6219
39.3407,3.6219
39.3407,25.0531
21.4813,25.0531
Z" /> 
<path style="fill:#000000; fill-opacity:1.0000; 
stroke:#000000; stroke-width:0.1000; stroke-opacity:1; 
stroke-linecap:round; stroke-linejoin:round;fill-rule:evenodd;"
d="M 45.2938,13.1469
45.2938,19.6953
44.1032,20.2906
42.9125,20.2906
41.7219,19.6953
41.7219,13.1469
42.9125,12.5516
44.1032,12.5516
Z" /> 
</g>
<g style="fill:#000000; fill-opacity:0.0; 
stroke:#000000; stroke-width:0.1000; stroke-opacity:1; 
stroke-linecap:round; stroke-linejoin:round;">
<path style="fill:#000000; fill-opacity:0.0; 
stroke:#000000; stroke-width:0.1000; stroke-opacity:1; 
stroke-linecap:round; stroke-linejoin:round;fill:none"
d="M 0.0500,125.0657
7.7891,125.0657
7.7891,131.0189
0.0500,131.0189
Z" /> 
<path style="fill:#000000; fill-opacity:0.0; 
stroke:#000000; stroke-width:0.1000; stroke-opacity:1; 
stroke-linecap:round; stroke-linejoin:round;fill:none"
d="M 167.9283,0.0500
175.6673,0.0500
175.6673,6.0031
167.9283,6.0031
Z" /> 
</g>
<g style="fill:#000000; fill-opacity:1.0000; 
stroke:#000000; stroke-width:0.1000; stroke-opacity:1; 
stroke-linecap:round; stroke-linejoin:round;">
<path style="fill:#000000; fill-opacity:1.0000; 
stroke:#000000; stroke-width:0.1000; stroke-opacity:1; 
stroke-linecap:round; stroke-linejoin:round;fill-rule:evenodd;"
d="M 72.0829,76.2501
72.0829,79.2266
71.4876,79.8219
70.2969,79.8219
69.7016,79.2266
69.7016,76.2501
70.2969,75.6548
71.4876,75.6548
Z" /> 
<path style="fill:#000000; fill-opacity:1.0000; 
stroke:#000000; stroke-width:0.1000; stroke-opacity:1; 
stroke-linecap:round; stroke-linejoin:round;fill-rule:evenodd;"
d="M 19.6953,7.4891
19.6953,14.0375
18.5047,14.6328
17.3141,14.6328
16.1235,14.0375
16.1235,7.4891
17.3141,6.8938
18.5047,6.8938
Z" /> 
</g>
<g style="fill:#000000; fill-opacity:1.0000; 
stroke:#000000; stroke-width:0.0000; stroke-opacity:1; 
stroke-linecap:round; stroke-linejoin:round;">
<path style="fill:#000000; fill-opacity:1.0000; 
stroke:#000000; stroke-width:0.0000; stroke-opacity:1; 
stroke-linecap:round; stroke-linejoin:round;fill-rule:evenodd;"
d="M 106.6110,73.8689
106.6110,88.1564
105.4204,89.3470
100.6579,89.3470
99.4673,88.1564
99.4673,73.8689
100.6579,72.6783
105.4204,72.6783
Z" /> 
<path style="fill:#000000; fill-opacity:1.0000; 
stroke:#000000; stroke-width:0.0000; stroke-opacity:1; 
stroke-linecap:round; stroke-linejoin:round;fill-rule:evenodd;"
d="M 194.1818,89.1179
194.1818,90.8017
190.8143,94.1693
189.1305,94.1693
179.0277,84.0665
179.0277,82.3827
182.3953,79.0151
184.0791,79.0151
Z" /> 
<path style="fill:#000000; fill-opacity:1.0000; 
stroke:#000000; stroke-width:0.0000; stroke-opacity:1; 
stroke-linecap:round; stroke-linejoin:round;fill-rule:evenodd;"
d="M 166.3539,82.3827
166.3539,84.0665
156.2511,94.1693
154.5673,94.1693
151.1997,90.8017
151.1997,89.1179
161.3025,79.0151
162.9863,79.0151
Z" /> 
<path style="fill:#000000; fill-opacity:1.0000; 
stroke:#000000; stroke-width:0.0000; stroke-opacity:1; 
stroke-linecap:round; stroke-linejoin:round;fill-rule:evenodd;"
d="M 207.3357,62.4953
214.4794,74.8686
214.0436,76.4951
209.9192,78.8763
208.2928,78.4405
201.1490,66.0672
201.5848,64.4407
205.7093,62.0595
Z" /> 
<path style="fill:#000000; fill-opacity:1.0000; 
stroke:#000000; stroke-width:0.0000; stroke-opacity:1; 
stroke-linecap:round; stroke-linejoin:round;fill-rule:evenodd;"
d="M 245.9142,73.8689
245.9142,88.1564
244.7236,89.3470
239.9611,89.3470
238.7705,88.1564
238.7705,73.8689
239.9611,72.6783
244.7236,72.6783
Z" /> 
<path style="fill:#000000; fill-opacity:1.0000; 
stroke:#000000; stroke-width:0.0000; stroke-opacity:1; 
stroke-linecap:round; stroke-linejoin:round;fill-rule:evenodd;"
d="M 222.1017,41.7219
222.1017,46.4844
220.9111,47.6750
206.6236,47.6750
205.4330,46.4844
205.4330,41.7219
206.6236,40.5313
220.9111,40.5313
Z" /> 
<path style="fill:#000000; fill-opacity:1.0000; 
stroke:#000000; stroke-width:0.0000; stroke-opacity:1; 
stroke-linecap:round; stroke-linejoin:round;fill-rule:evenodd;"
d="M 143.7967,64.4407
144.2325,66.0672
137.0888,78.4405
135.4623,78.8763
131.3379,76.4951
130.9021,74.8686
138.0458,62.4953
139.6723,62.0595
Z" /> 
<path style="fill:#000000; fill-opacity:1.0000; 
stroke:#000000; stroke-width:0.0000; stroke-opacity:1; 
stroke-linecap:round; stroke-linejoin:round;fill-rule:evenodd;"
d="M 139.9485,41.7219
139.9485,46.4844
138.7579,47.6750
124.4704,47.6750
123.2798,46.4844
123.2798,41.7219
124.4704,40.5313
138.7579,40.5313
Z" /> 
<path style="fill:#000000; fill-opacity:1.0000; 
stroke:#000000; stroke-width:0.0000; stroke-opacity:1; 
stroke-linecap:round; stroke-linejoin:round;fill-rule:evenodd;"
d="M 134.2717,80.9385
134.7075,82.5650
127.5638,94.9383
125.9373,95.3741
121.8129,92.9929
121.3771,91.3664
128.5208,78.9931
130.1473,78.5573
Z" /> 
<path style="fill:#000000; fill-opacity:1.0000; 
stroke:#000000; stroke-width:0.0000; stroke-opacity:1; 
stroke-linecap:round; stroke-linejoin:round;fill-rule:evenodd;"
d="M 24.2831,30.2181
24.6982,34.9624
23.6159,36.2523
9.3828,37.4975
8.0929,36.4152
7.6778,31.6708
8.7601,30.3810
22.9933,29.1357
Z" /> 
<path style="fill:#000000; fill-opacity:1.0000; 
stroke:#000000; stroke-width:0.0000; stroke-opacity:1; 
stroke-linecap:round; stroke-linejoin:round;fill-rule:evenodd;"
d="M 336.6214,49.5638
337.7037,50.8536
337.2886,55.5980
335.9988,56.6803
321.7656,55.4351
320.6833,54.1452
321.0984,49.4009
322.3882,48.3185
Z" /> 
<path style="fill:#000000; fill-opacity:1.0000; 
stroke:#000000; stroke-width:0.0000; stroke-opacity:1; 
stroke-linecap:round; stroke-linejoin:round;fill-rule:evenodd;"
d="M 222.1017,20.2906
222.1017,25.0531
220.9111,26.2438
206.6236,26.2438
205.4330,25.0531
205.4330,20.2906
206.6236,19.1000
220.9111,19.1000
Z" /> 
<path style="fill:#000000; fill-opacity:1.0000; 
stroke:#000000; stroke-width:0.0000; stroke-opacity:1; 
stroke-linecap:round; stroke-linejoin:round;fill-rule:evenodd;"
d="M 58.9860,32.1968
58.9860,46.4843
57.7954,47.6750
53.0329,47.6750
51.8422,46.4843
51.8422,32.1968
53.0329,31.0062
57.7954,31.0062
Z" /> 
<path style="fill:#000000; fill-opacity:1.0000; 
stroke:#000000; stroke-width:0.0000; stroke-opacity:1; 
stroke-linecap:round; stroke-linejoin:round;fill-rule:evenodd;"
d="M 39.9360,63.1531
39.9360,77.4406
38.7454,78.6313
33.9829,78.6313
32.7922,77.4406
32.7922,63.1531
33.9829,61.9625
38.7454,61.9625
Z" /> 
<path style="fill:#000000; fill-opacity:1.0000; 
stroke:#000000; stroke-width:0.0000; stroke-opacity:1; 
stroke-linecap:round; stroke-linejoin:round;fill-rule:evenodd;"
d="M 97.0860,33.3875
97.0860,47.6750
95.8954,48.8657
91.1329,48.8657
89.9423,47.6750
89.9423,33.3875
91.1329,32.1969
95.8954,32.1969
Z" /> 
<path style="fill:#000000; fill-opacity:1.0000; 
stroke:#000000; stroke-width:0.0000; stroke-opacity:1; 
stroke-linecap:round; stroke-linejoin:round;fill-rule:evenodd;"
d="M 293.5393,13.1468
293.5393,27.4343
292.3487,28.6250
287.5862,28.6250
286.3955,27.4343
286.3955,13.1468
287.5862,11.9562
292.3487,11.9562
Z" /> 
<path style="fill:#000000; fill-opacity:1.0000; 
stroke:#000000; stroke-width:0.0000; stroke-opacity:1; 
stroke-linecap:round; stroke-linejoin:round;fill-rule:evenodd;"
d="M 312.5893,44.1031
312.5893,58.3906
311.3986,59.5813
306.6361,59.5813
305.4455,58.3906
305.4455,44.1031
306.6361,42.9125
311.3986,42.9125
Z" /> 
<path style="fill:#000000; fill-opacity:1.0000; 
stroke:#000000; stroke-width:0.0000; stroke-opacity:1; 
stroke-linecap:round; stroke-linejoin:round;fill-rule:evenodd;"
d="M 255.4393,14.3375
255.4393,28.6250
254.2486,29.8156
249.4861,29.8156
248.2955,28.6250
248.2955,14.3375
249.4861,13.1468
254.2486,13.1468
Z" /> 
<path style="fill:#000000; fill-opacity:1.0000; 
stroke:#000000; stroke-width:0.0000; stroke-opacity:1; 
stroke-linecap:round; stroke-linejoin:round;fill-rule:evenodd;"
d="M 78.0360,7.1937
78.0360,21.4812
76.8454,22.6718
72.0829,22.6718
70.8922,21.4812
70.8922,7.1937
72.0829,6.0031
76.8454,6.0031
Z" /> 
<path style="fill:#000000; fill-opacity:1.0000; 
stroke:#000000; stroke-width:0.0000; stroke-opacity:1; 
stroke-linecap:round; stroke-linejoin:round;fill-rule:evenodd;"
d="M 25.6485,70.2969
25.6485,75.0594
24.4579,76.2500
10.1704,76.2500
8.9797,75.0594
8.9797,70.2969
10.1704,69.1063
24.4579,69.1063
Z" /> 
<path style="fill:#000000; fill-opacity:1.0000; 
stroke:#000000; stroke-width:0.0000; stroke-opacity:1; 
stroke-linecap:round; stroke-linejoin:round;fill-rule:evenodd;"
d="M 207.6522,102.5883
207.6522,104.2721
204.2846,107.6397
202.6008,107.6397
192.4981,97.5369
192.4981,95.8531
195.8657,92.4855
197.5495,92.4855
Z" /> 
<path style="fill:#000000; fill-opacity:1.0000; 
stroke:#000000; stroke-width:0.0000; stroke-opacity:1; 
stroke-linecap:round; stroke-linejoin:round;fill-rule:evenodd;"
d="M 152.8835,95.8531
152.8835,97.5369
142.7807,107.6397
141.0969,107.6397
137.7293,104.2721
137.7293,102.5883
147.8321,92.4855
149.5159,92.4855
Z" /> 
<path style="fill:#000000; fill-opacity:1.0000; 
stroke:#000000; stroke-width:0.0000; stroke-opacity:1; 
stroke-linecap:round; stroke-linejoin:round;fill-rule:evenodd;"
d="M 39.9360,25.0531
39.9360,39.3406
38.7453,40.5312
33.9828,40.5312
32.7922,39.3406
32.7922,25.0531
33.9828,23.8625
38.7453,23.8625
Z" /> 
<path style="fill:#000000; fill-opacity:1.0000; 
stroke:#000000; stroke-width:0.0000; stroke-opacity:1; 
stroke-linecap:round; stroke-linejoin:round;fill-rule:evenodd;"
d="M 164.4304,111.0973
166.8117,115.2217
166.3759,116.8481
154.0025,123.9919
152.3761,123.5561
149.9949,119.4316
150.4307,117.8052
162.8040,110.6615
Z" /> 
<path style="fill:#000000; fill-opacity:1.0000; 
stroke:#000000; stroke-width:0.0000; stroke-opacity:1; 
stroke-linecap:round; stroke-linejoin:round;fill-rule:evenodd;"
d="M 293.5393,70.2969
293.5393,84.5844
292.3487,85.7751
287.5862,85.7751
286.3955,84.5844
286.3955,70.2969
287.5862,69.1063
292.3487,69.1063
Z" /> 
<path style="fill:#000000; fill-opacity:1.0000; 
stroke:#000000; stroke-width:0.0000; stroke-opacity:1; 
stroke-linecap:round; stroke-linejoin:round;fill-rule:evenodd;"
d="M 273.5749,80.9385
274.0107,82.5650
266.8670,94.9383
265.2406,95.3741
261.1161,92.9929
260.6803,91.3664
267.8241,78.9931
269.4505,78.5573
Z" /> 
<path style="fill:#000000; fill-opacity:1.0000; 
stroke:#000000; stroke-width:0.0000; stroke-opacity:1; 
stroke-linecap:round; stroke-linejoin:round;fill-rule:evenodd;"
d="M 216.8607,78.9931
224.0044,91.3664
223.5686,92.9929
219.4442,95.3741
217.8178,94.9383
210.6740,82.5650
211.1098,80.9385
215.2343,78.5573
Z" /> 
<path style="fill:#000000; fill-opacity:1.0000; 
stroke:#000000; stroke-width:0.0000; stroke-opacity:1; 
stroke-linecap:round; stroke-linejoin:round;fill-rule:evenodd;"
d="M 255.4393,33.3875
255.4393,47.6750
254.2486,48.8657
249.4861,48.8657
248.2955,47.6750
248.2955,33.3875
249.4861,32.1969
254.2486,32.1969
Z" /> 
<path style="fill:#000000; fill-opacity:1.0000; 
stroke:#000000; stroke-width:0.0000; stroke-opacity:1; 
stroke-linecap:round; stroke-linejoin:round;fill-rule:evenodd;"
d="M 312.5893,63.1531
312.5893,77.4406
311.3986,78.6313
306.6361,78.6313
305.4455,77.4406
305.4455,63.1531
306.6361,61.9625
311.3986,61.9625
Z" /> 
<path style="fill:#000000; fill-opacity:1.0000; 
stroke:#000000; stroke-width:0.0000; stroke-opacity:1; 
stroke-linecap:round; stroke-linejoin:round;fill-rule:evenodd;"
d="M 97.0860,52.4375
97.0860,66.7250
95.8954,67.9157
91.1329,67.9157
89.9423,66.7250
89.9423,52.4375
91.1329,51.2469
95.8954,51.2469
Z" /> 
<path style="fill:#000000; fill-opacity:1.0000; 
stroke:#000000; stroke-width:0.0000; stroke-opacity:1; 
stroke-linecap:round; stroke-linejoin:round;fill-rule:evenodd;"
d="M 236.3893,54.8187
236.3893,69.1062
235.1986,70.2969
230.4361,70.2969
229.2455,69.1062
229.2455,54.8187
230.4361,53.6281
235.1986,53.6281
Z" /> 
<path style="fill:#000000; fill-opacity:1.0000; 
stroke:#000000; stroke-width:0.0000; stroke-opacity:1; 
stroke-linecap:round; stroke-linejoin:round;fill-rule:evenodd;"
d="M 236.3893,35.7687
236.3893,50.0562
235.1986,51.2469
230.4361,51.2469
229.2455,50.0562
229.2455,35.7687
230.4361,34.5781
235.1986,34.5781
Z" /> 
<path style="fill:#000000; fill-opacity:1.0000; 
stroke:#000000; stroke-width:0.0000; stroke-opacity:1; 
stroke-linecap:round; stroke-linejoin:round;fill-rule:evenodd;"
d="M 116.1360,54.8187
116.1360,69.1062
114.9454,70.2969
110.1829,70.2969
108.9922,69.1062
108.9922,54.8187
110.1829,53.6281
114.9454,53.6281
Z" /> 
<path style="fill:#000000; fill-opacity:1.0000; 
stroke:#000000; stroke-width:0.0000; stroke-opacity:1; 
stroke-linecap:round; stroke-linejoin:round;fill-rule:evenodd;"
d="M 312.5893,25.0531
312.5893,39.3406
311.3987,40.5312
306.6362,40.5312
305.4456,39.3406
305.4456,25.0531
306.6362,23.8625
311.3987,23.8625
Z" /> 
<path style="fill:#000000; fill-opacity:1.0000; 
stroke:#000000; stroke-width:0.0000; stroke-opacity:1; 
stroke-linecap:round; stroke-linejoin:round;fill-rule:evenodd;"
d="M 78.0360,45.2937
78.0360,59.5812
76.8454,60.7719
72.0829,60.7719
70.8922,59.5812
70.8922,45.2937
72.0829,44.1031
76.8454,44.1031
Z" /> 
<path style="fill:#000000; fill-opacity:1.0000; 
stroke:#000000; stroke-width:0.0000; stroke-opacity:1; 
stroke-linecap:round; stroke-linejoin:round;fill-rule:evenodd;"
d="M 293.5393,32.1968
293.5393,46.4843
292.3486,47.6750
287.5861,47.6750
286.3955,46.4843
286.3955,32.1968
287.5861,31.0062
292.3486,31.0062
Z" /> 
<path style="fill:#000000; fill-opacity:1.0000; 
stroke:#000000; stroke-width:0.0000; stroke-opacity:1; 
stroke-linecap:round; stroke-linejoin:round;fill-rule:evenodd;"
d="M 58.9860,51.2468
58.9860,65.5343
57.7954,66.7250
53.0329,66.7250
51.8422,65.5343
51.8422,51.2468
53.0329,50.0562
57.7954,50.0562
Z" /> 
<path style="fill:#000000; fill-opacity:1.0000; 
stroke:#000000; stroke-width:0.0000; stroke-opacity:1; 
stroke-linecap:round; stroke-linejoin:round;fill-rule:evenodd;"
d="M 274.4893,26.2437
274.4893,40.5312
273.2986,41.7219
268.5361,41.7219
267.3455,40.5312
267.3455,26.2437
268.5361,25.0531
273.2986,25.0531
Z" /> 
<path style="fill:#000000; fill-opacity:1.0000; 
stroke:#000000; stroke-width:0.0000; stroke-opacity:1; 
stroke-linecap:round; stroke-linejoin:round;fill-rule:evenodd;"
d="M 274.4893,7.1937
274.4893,21.4812
273.2986,22.6718
268.5361,22.6718
267.3455,21.4812
267.3455,7.1937
268.5361,6.0031
273.2986,6.0031
Z" /> 
<path style="fill:#000000; fill-opacity:1.0000; 
stroke:#000000; stroke-width:0.0000; stroke-opacity:1; 
stroke-linecap:round; stroke-linejoin:round;fill-rule:evenodd;"
d="M 116.1360,16.7187
116.1360,31.0062
114.9454,32.1968
110.1829,32.1968
108.9923,31.0062
108.9923,16.7187
110.1829,15.5281
114.9454,15.5281
Z" /> 
<path style="fill:#000000; fill-opacity:1.0000; 
stroke:#000000; stroke-width:0.0000; stroke-opacity:1; 
stroke-linecap:round; stroke-linejoin:round;fill-rule:evenodd;"
d="M 139.9485,20.2906
139.9485,25.0531
138.7579,26.2438
124.4704,26.2438
123.2798,25.0531
123.2798,20.2906
124.4704,19.1000
138.7579,19.1000
Z" /> 
<path style="fill:#000000; fill-opacity:1.0000; 
stroke:#000000; stroke-width:0.0000; stroke-opacity:1; 
stroke-linecap:round; stroke-linejoin:round;fill-rule:evenodd;"
d="M 274.4893,45.2937
274.4893,59.5812
273.2986,60.7719
268.5361,60.7719
267.3455,59.5812
267.3455,45.2937
268.5361,44.1031
273.2986,44.1031
Z" /> 
<path style="fill:#000000; fill-opacity:1.0000; 
stroke:#000000; stroke-width:0.0000; stroke-opacity:1; 
stroke-linecap:round; stroke-linejoin:round;fill-rule:evenodd;"
d="M 236.3892,16.7187
236.3892,31.0062
235.1986,32.1968
230.4361,32.1968
229.2455,31.0062
229.2455,16.7187
230.4361,15.5281
235.1986,15.5281
Z" /> 
<path style="fill:#000000; fill-opacity:1.0000; 
stroke:#000000; stroke-width:0.0000; stroke-opacity:1; 
stroke-linecap:round; stroke-linejoin:round;fill-rule:evenodd;"
d="M 194.9509,117.8052
195.3867,119.4316
193.0054,123.5561
191.3790,123.9919
179.0057,116.8481
178.5699,115.2217
180.9511,111.0973
182.5775,110.6615
Z" /> 
<path style="fill:#000000; fill-opacity:1.0000; 
stroke:#000000; stroke-width:0.0000; stroke-opacity:1; 
stroke-linecap:round; stroke-linejoin:round;fill-rule:evenodd;"
d="M 116.1360,35.7687
116.1360,50.0562
114.9454,51.2469
110.1829,51.2469
108.9922,50.0562
108.9922,35.7687
110.1829,34.5781
114.9454,34.5781
Z" /> 
<path style="fill:#000000; fill-opacity:1.0000; 
stroke:#000000; stroke-width:0.0000; stroke-opacity:1; 
stroke-linecap:round; stroke-linejoin:round;fill-rule:evenodd;"
d="M 58.9860,13.1468
58.9860,27.4343
57.7954,28.6250
53.0329,28.6250
51.8422,27.4343
51.8422,13.1468
53.0329,11.9562
57.7954,11.9562
Z" /> 
<path style="fill:#000000; fill-opacity:1.0000; 
stroke:#000000; stroke-width:0.0000; stroke-opacity:1; 
stroke-linecap:round; stroke-linejoin:round;fill-rule:evenodd;"
d="M 58.9860,70.2969
58.9860,84.5844
57.7954,85.7751
53.0329,85.7751
51.8422,84.5844
51.8422,70.2969
53.0329,69.1063
57.7954,69.1063
Z" /> 
<path style="fill:#000000; fill-opacity:1.0000; 
stroke:#000000; stroke-width:0.0000; stroke-opacity:1; 
stroke-linecap:round; stroke-linejoin:round;fill-rule:evenodd;"
d="M 24.2831,49.4009
24.6982,54.1452
23.6159,55.4351
9.3828,56.6803
8.0929,55.5980
7.6778,50.8536
8.7601,49.5638
22.9933,48.3185
Z" /> 
<path style="fill:#000000; fill-opacity:1.0000; 
stroke:#000000; stroke-width:0.0000; stroke-opacity:1; 
stroke-linecap:round; stroke-linejoin:round;fill-rule:evenodd;"
d="M 336.4018,70.2969
336.4018,75.0594
335.2111,76.2500
320.9236,76.2500
319.7330,75.0594
319.7330,70.2969
320.9236,69.1063
335.2111,69.1063
Z" /> 
<path style="fill:#000000; fill-opacity:1.0000; 
stroke:#000000; stroke-width:0.0000; stroke-opacity:1; 
stroke-linecap:round; stroke-linejoin:round;fill-rule:evenodd;"
d="M 77.5575,78.9931
84.7012,91.3664
84.2654,92.9929
80.1410,95.3741
78.5145,94.9383
71.3708,82.5650
71.8066,80.9385
75.9310,78.5573
Z" /> 
<path style="fill:#000000; fill-opacity:1.0000; 
stroke:#000000; stroke-width:0.0000; stroke-opacity:1; 
stroke-linecap:round; stroke-linejoin:round;fill-rule:evenodd;"
d="M 336.6214,30.3810
337.7037,31.6708
337.2886,36.4152
335.9988,37.4975
321.7656,36.2523
320.6833,34.9624
321.0984,30.2181
322.3882,29.1357
Z" /> 
<path style="fill:#000000; fill-opacity:1.0000; 
stroke:#000000; stroke-width:0.0000; stroke-opacity:1; 
stroke-linecap:round; stroke-linejoin:round;fill-rule:evenodd;"
d="M 39.9360,44.1031
39.9360,58.3906
38.7454,59.5813
33.9829,59.5813
32.7922,58.3906
32.7922,44.1031
33.9829,42.9125
38.7454,42.9125
Z" /> 
<path style="fill:#000000; fill-opacity:1.0000; 
stroke:#000000; stroke-width:0.0000; stroke-opacity:1; 
stroke-linecap:round; stroke-linejoin:round;fill-rule:evenodd;"
d="M 255.4393,52.4375
255.4393,66.7250
254.2486,67.9157
249.4861,67.9157
248.2955,66.7250
248.2955,52.4375
249.4861,51.2469
254.2486,51.2469
Z" /> 
<path style="fill:#000000; fill-opacity:1.0000; 
stroke:#000000; stroke-width:0.0000; stroke-opacity:1; 
stroke-linecap:round; stroke-linejoin:round;fill-rule:evenodd;"
d="M 78.0360,26.2437
78.0360,40.5312
76.8454,41.7219
72.0829,41.7219
70.8922,40.5312
70.8922,26.2437
72.0829,25.0531
76.8454,25.0531
Z" /> 
<path style="fill:#000000; fill-opacity:1.0000; 
stroke:#000000; stroke-width:0.0000; stroke-opacity:1; 
stroke-linecap:round; stroke-linejoin:round;fill-rule:evenodd;"
d="M 97.0860,14.3375
97.0860,28.6250
95.8954,29.8156
91.1329,29.8156
89.9423,28.6250
89.9423,14.3375
91.1329,13.1468
95.8954,13.1468
Z" /> 
<path style="fill:#000000; fill-opacity:1.0000; 
stroke:#000000; stroke-width:0.0000; stroke-opacity:1; 
stroke-linecap:round; stroke-linejoin:round;fill-rule:evenodd;"
d="M 293.5393,51.2468
293.5393,65.5343
292.3486,66.7250
287.5861,66.7250
286.3955,65.5343
286.3955,51.2468
287.5861,50.0562
292.3486,50.0562
Z" /> 
<g >
</g>
<g >
</g>
<g >
</g>
<g >
</g>
<g >
</g>
<g >
</g>
<g >
</g>
<g >
</g>
<g >
</g>
<g >
</g>
<g >
</g>
<g >
</g>
<g >
</g>
<g >
</g>
<g >
</g>
<g >
</g>
<g >
</g>
<g >
</g>
<g >
</g>
<g >
</g>
<g >
</g>
<g >
</g>
<g >
</g>
<g >
</g>
<g >
</g>
<g >
</g>
<g >
</g>
<g >
</g>
<g >
</g>
<g >
</g>
<g >
</g>
<g >
</g>
<g >
</g>
<g >
</g>
<g >
</g>
<g >
</g>
<g >
</g>
<g >
</g>
<g >
</g>
<g >
</g>
<g >
</g>
<g >
</g>
<g >
</g>
<g >
</g>
<g >
</g>
<g >
</g>
<g >
</g>
<g >
</g>
<g >
</g>
<g >
</g>
<g >
</g>
<g >
</g>
<g >
</g>
<g >
</g>
<g >
</g>
<g >
</g>
<g >
</g>
<g >
</g>
<g >
</g>
<g >
</g>
<g >
</g>
<g >
</g>
<g >
</g>
<g >
</g>
<g >
</g>
<g >
</g>
<g >
</g>
<g >
</g>
<g >
</g>
<g >
</g>
<g >
</g>
<g >
</g>
<g >
</g>
<g >
</g>
<g >
</g>
<g >
</g>
<g >
</g>
<g >
</g>
<g >
</g>
<g >
</g>
<g >
</g>
<g >
</g>
<g >
</g>
<g >
</g>
<g >
</g>
<g >
</g>
<g >
</g>
<g >
</g>
<g >
</g>
<g >
</g>
<g >
</g>
<g >
</g>
<g >
</g>
<g >
</g>
<g >
</g>
<g >
</g>
<g >
</g>
<g >
</g>
<g >
</g>
<g >
</g>
<g >
</g>
<g >
</g>
<g >
</g>
<g >
</g>
<g >
</g>
<g >
</g>
<g >
</g>
<g >
</g>
<g >
</g>
<g >
</g>
<g >
</g>
<g >
</g>
</g> 
</svg>
