<?xml version="1.0"?>
<!DOCTYPE svg PUBLIC "-//W3C//DTD SVG 1.1//EN" "http://www.w3.org/Graphics/SVG/1.1/DTD/svg11.dtd">
<svg width="179.1296817mm" height="134.4812067mm" viewBox="0 0 179.1296817 134.4812067" xmlns="http://www.w3.org/2000/svg" version="1.1">
<g id="PCB_Sketch_6088" transform="translate(362.515851,41.046831) scale(1,-1)">
<path id="PCB_Sketch_6088_w0000"  d="M -348.85341800000003 -42.86248800000001 L -346.472166 -42.86253599999999 C -321.46902 -42.86253599999999 -321.46902 -47.62504 -311.348699 -47.62504 L -296.582682 -47.625026 A 3.57197 3.57197 0 0 0 -293.489 -49.411L -287.652959 -58.224209 A 3.57188 3.57188 0 0 1 -282.774 -59.5313C -270.821167 -52.918835 -267.844602 -51.132896 -255.938342 -51.132896 C -245.268956 -51.196918 -241.055517 -52.918835 -236.339261 -55.95942199999999 C -228.600192 -60.721925999999996 -227.364116 -62.17535000000001 -222.60161200000002 -66.93785399999999 C -217.243795 -72.295671 -213.671917 -77.058175 -207.12347400000002 -88.369122 A 2.89194 2.89194 0 0 1 -203.002 -89.5816L -191.690786 -83.34382 A 3.57188 3.57188 0 0 1 -189.625 -80.105L -188.714221 -48.220353 A 3.95059 3.95059 0 0 1 -189.819 -45.4804C -198.732628 -36.733142 -199.92325400000001 -32.565951 -217.289245 -23.217207000000002 C -219.075184 -22.026580999999993 -219.075184 -22.026580999999993 -219.075184 -10.715633999999994 L -219.075184 22.621894000000005 A 3.57189 3.57189 0 0 1 -222.647 26.1938L -225.028314 26.193772000000003 L -232.767383 26.193772000000003 C -239.91113900000002 26.193772000000003 -239.91113900000002 25.003146 -247.65020800000002 25.003146 C -253.008025 25.003146 -253.008025 27.384398000000004 -258.961155 27.384398000000004 L -266.104911 27.384398000000008 A 3.57179 3.57179 0 0 0 -269.677 30.9563A 3.57186 3.57186 0 0 1 -273.249 34.5282C -295.870561 34.528154 -295.870561 35.71878 -308.967447 35.71878 L -341.709662 35.71878000000001 A 3.57187 3.57187 0 0 1 -345.282 32.1469L -345.28154 25.598459000000005 A 3.57187 3.57187 0 0 0 -348.853 22.0266L -350.639357 22.026580999999982 A 3.57187 3.57187 0 0 1 -354.211 18.4547L -354.211235 -4.762503999999993 C -354.211235 -19.645329000000004 -352.425296 -19.645329000000004 -352.425296 -39.29065799999999 A 3.57178 3.57178 0 0 1 -348.853 -42.8625" stroke="#000000" stroke-width="0.35 px" style="stroke-width:0.35;stroke-miterlimit:4;stroke-dasharray:none;stroke-linecap:square;fill:none;fill-opacity:1;fill-rule: evenodd"/>
<path id="PCB_Sketch_6088_w0001"  d="M -358.973739 -87.511011 L -354.806548 -87.511011 L -354.806548 -89.89226299999999 L -358.973739 -89.89226299999999 L -358.973739 -87.511011 " stroke="#000000" stroke-width="0.35 px" style="stroke-width:0.35;stroke-miterlimit:4;stroke-dasharray:none;stroke-linecap:square;fill:none;fill-opacity:1;fill-rule: evenodd"/>
<path id="PCB_Sketch_6088_w0002"  d="M -192.286099 38.695345 L -185.73765600000002 38.695345 L -185.73765600000002 33.932841 L -192.286099 33.932841 L -192.286099 38.695345 " stroke="#000000" stroke-width="0.35 px" style="stroke-width:0.35;stroke-miterlimit:4;stroke-dasharray:none;stroke-linecap:square;fill:none;fill-opacity:1;fill-rule: evenodd"/>
<path id="PCB_Sketch_6088_w0003"  d="M -191.095473 37.504719 L -186.928282 37.504719 L -186.928282 35.123467000000005 L -191.095473 35.123467000000005 L -191.095473 37.504719 " stroke="#000000" stroke-width="0.35 px" style="stroke-width:0.35;stroke-miterlimit:4;stroke-dasharray:none;stroke-linecap:square;fill:none;fill-opacity:1;fill-rule: evenodd"/>
<path id="PCB_Sketch_6088_w0004"  d="M -360.759678 -85.72507200000001 L -353.02060900000004 -85.72507200000001 L -353.02060900000004 -91.678202 L -360.759678 -91.678202 L -360.759678 -85.72507200000001 " stroke="#000000" stroke-width="0.35 px" style="stroke-width:0.35;stroke-miterlimit:4;stroke-dasharray:none;stroke-linecap:square;fill:none;fill-opacity:1;fill-rule: evenodd"/>
<path id="PCB_Sketch_6088_w0005"  d="M -360.16436500000003 -86.32038499999999 L -353.615922 -86.32038499999999 L -353.615922 -91.082889 L -360.16436500000003 -91.082889 L -360.16436500000003 -86.32038499999999 " stroke="#000000" stroke-width="0.35 px" style="stroke-width:0.35;stroke-miterlimit:4;stroke-dasharray:none;stroke-linecap:square;fill:none;fill-opacity:1;fill-rule: evenodd"/>
<path id="PCB_Sketch_6088_w0006"  d="M -358.378426 -88.106324 L -355.401861 -88.106324 L -355.401861 -89.29695000000001 L -358.378426 -89.29695000000001 L -358.378426 -88.106324 " stroke="#000000" stroke-width="0.35 px" style="stroke-width:0.35;stroke-miterlimit:4;stroke-dasharray:none;stroke-linecap:square;fill:none;fill-opacity:1;fill-rule: evenodd"/>
<path id="PCB_Sketch_6088_w0007"  d="M -192.881412 39.290658 L -185.142343 39.290658 L -185.142343 33.337528 L -192.881412 33.337528 L -192.881412 39.290658 " stroke="#000000" stroke-width="0.35 px" style="stroke-width:0.35;stroke-miterlimit:4;stroke-dasharray:none;stroke-linecap:square;fill:none;fill-opacity:1;fill-rule: evenodd"/>
<path id="PCB_Sketch_6088_w0008"  d="M -190.50016 36.909406000000004 L -187.523595 36.909406000000004 L -187.523595 35.71878 L -190.50016 35.71878 L -190.50016 36.909406000000004 " stroke="#000000" stroke-width="0.35 px" style="stroke-width:0.35;stroke-miterlimit:4;stroke-dasharray:none;stroke-linecap:square;fill:none;fill-opacity:1;fill-rule: evenodd"/>
<circle cx="-273.248667" cy="30.956276000000003" r="1.1906260000000088" stroke="#000000" stroke-width="0.35 px" style="stroke-width:0.35;stroke-miterlimit:4;stroke-dasharray:none;stroke-linecap:square;fill:none"/>
<title>b'PCB_Sketch_6088'</title>
</g>
</svg>