<?xml version="1.0" standalone="no"?>
 <!DOCTYPE svg PUBLIC "-//W3C//DTD SVG 1.1//EN" 
 "http://www.w3.org/Graphics/SVG/1.1/DTD/svg11.dtd"> 
<svg
  xmlns:svg="http://www.w3.org/2000/svg"
  xmlns="http://www.w3.org/2000/svg"
  xmlns:xlink="http://www.w3.org/1999/xlink"
  version="1.1"
  width="339.9536mm" height="134.6200mm" viewBox="0.0000 0.0000 339.9536 134.6200">
<title>SVG Image created as mykeeb_v7a5-Edge_Cuts.svg date 2023/06/10 20:45:29 </title>
  <desc>Image generated by PCBNEW </desc>
<g style="fill:#000000; fill-opacity:1.0000;stroke:#000000; stroke-opacity:1.0000;
stroke-linecap:round; stroke-linejoin:round;"
 transform="translate(0 0) scale(1 1)">
</g>
<g style="fill:#000000; fill-opacity:0.0; 
stroke:#000000; stroke-width:0.0000; stroke-opacity:1; 
stroke-linecap:round; stroke-linejoin:round;">
</g>
<g style="fill:#000000; fill-opacity:0.0; 
stroke:#000000; stroke-width:0.0381; stroke-opacity:1; 
stroke-linecap:round; stroke-linejoin:round;">
<path style="fill:#000000; fill-opacity:0.0; 
stroke:#000000; stroke-width:0.0381; stroke-opacity:1; 
stroke-linecap:round; stroke-linejoin:round;fill:none"
d="M 168.5236,4.2172
175.0720,4.2172
175.0720,8.9797
168.5236,8.9797
Z" /> 
<path style="fill:#000000; fill-opacity:0.0; 
stroke:#000000; stroke-width:0.0381; stroke-opacity:1; 
stroke-linecap:round; stroke-linejoin:round;fill:none"
d="M 169.7142,5.4078
173.8814,5.4078
173.8814,7.7891
169.7142,7.7891
Z" /> 
<path style="fill:#000000; fill-opacity:0.0; 
stroke:#000000; stroke-width:0.0381; stroke-opacity:1; 
stroke-linecap:round; stroke-linejoin:round;fill:none"
d="M 167.9283,3.6219
175.6673,3.6219
175.6673,9.5750
167.9283,9.5750
Z" /> 
<path style="fill:#000000; fill-opacity:0.0; 
stroke:#000000; stroke-width:0.0381; stroke-opacity:1; 
stroke-linecap:round; stroke-linejoin:round;fill:none"
d="M 170.3095,6.0031
173.2861,6.0031
173.2861,7.1938
170.3095,7.1938
Z" /> 
<path style="fill:#000000; fill-opacity:0.0; 
stroke:#000000; stroke-width:0.0381; stroke-opacity:1; 
stroke-linecap:round; stroke-linejoin:round;fill:none"
d="M 2.4313,131.0189
5.4078,131.0189
5.4078,132.2095
2.4313,132.2095
Z" /> 
<path style="fill:#000000; fill-opacity:0.0; 
stroke:#000000; stroke-width:0.0381; stroke-opacity:1; 
stroke-linecap:round; stroke-linejoin:round;fill:none"
d="M 0.0500,128.6376
7.7891,128.6376
7.7891,134.5907
0.0500,134.5907
Z" /> 
<path style="fill:#000000; fill-opacity:0.0; 
stroke:#000000; stroke-width:0.0381; stroke-opacity:1; 
stroke-linecap:round; stroke-linejoin:round;fill:none"
d="M 1.8359,130.4235
6.0031,130.4235
6.0031,132.8048
1.8359,132.8048
Z" /> 
<path style="fill:#000000; fill-opacity:0.0; 
stroke:#000000; stroke-width:0.0381; stroke-opacity:1; 
stroke-linecap:round; stroke-linejoin:round;fill:none"
d="M 0.6453,129.2329
7.1938,129.2329
7.1938,133.9954
0.6453,133.9954
Z" /> 
<path d="M263.7736 63.1532 A3.5721 3.5721 0.0 0 0 260.2018 66.7251" />
</g>
<g style="fill:#000000; fill-opacity:0.0; 
stroke:#000000; stroke-width:0.1600; stroke-opacity:1; 
stroke-linecap:round; stroke-linejoin:round;">
<path d="M10.1703 82.2032 A3.5718 3.5718 0.0 0 0 13.7422 85.7751" />
<path d="M47.0798 85.1798 A3.5716 3.5716 0.0 0 0 50.6516 88.7516" />
<path d="M139.9486,108.3970 C145.3064,113.7548 148.8782,118.5173 155.4267,129.8282" />
</g>
<g style="fill:#000000; fill-opacity:0.0; 
stroke:#000000; stroke-width:0.1000; stroke-opacity:1; 
stroke-linecap:round; stroke-linejoin:round;">
<circle cx="226.2689" cy="79.2266" r="3.5719" /> 
<circle cx="318.5424" cy="64.3438" r="3.5719" /> 
</g>
<g style="fill:#000000; fill-opacity:0.0; 
stroke:#000000; stroke-width:0.0381; stroke-opacity:1; 
stroke-linecap:round; stroke-linejoin:round;">
<path d="M67.9157 63.1532 A3.5718 3.5718 0.0 0 0 64.3438 66.7251" />
<path d="M85.1798 66.7251 A3.5719 3.5719 0.0 0 0 88.7516 70.2969" />
</g>
<g style="fill:#000000; fill-opacity:0.0; 
stroke:#000000; stroke-width:0.1000; stroke-opacity:1; 
stroke-linecap:round; stroke-linejoin:round;">
<circle cx="223.2924" cy="35.7688" r="3.5719" /> 
</g>
<g style="fill:#000000; fill-opacity:0.0; 
stroke:#000000; stroke-width:0.0381; stroke-opacity:1; 
stroke-linecap:round; stroke-linejoin:round;">
<path d="M277.4658 77.4407
L265.5596 77.4407
" />
</g>
<g style="fill:#000000; fill-opacity:0.0; 
stroke:#000000; stroke-width:0.1000; stroke-opacity:1; 
stroke-linecap:round; stroke-linejoin:round;">
<path d="M18.5047 7.1938 A3.5719 3.5719 0.0 0 0 14.9328 10.7656" />
<circle cx="202.4564" cy="88.7516" r="3.5719" /> 
<path d="M251.2721 15.5281
L258.4158 15.5281
" />
</g>
<g style="fill:#000000; fill-opacity:0.0; 
stroke:#000000; stroke-width:0.0381; stroke-opacity:1; 
stroke-linecap:round; stroke-linejoin:round;">
<path d="M81.6079 63.1532
L67.9157 63.1532
" />
</g>
<g style="fill:#000000; fill-opacity:0.0; 
stroke:#000000; stroke-width:0.1000; stroke-opacity:1; 
stroke-linecap:round; stroke-linejoin:round;">
<path d="M83.3939 11.9563 A3.5718 3.5718 0.0 0 0 86.9657 15.5281" />
<path d="M11.3609 28.0297 A3.5719 3.5719 0.0 0 0 7.7891 31.6016" />
<path d="M68.5110 8.3843
L79.8219 8.3844
" />
<path d="M331.6393 28.0297
L334.0206 28.0297
" />
</g>
<g style="fill:#000000; fill-opacity:0.0; 
stroke:#000000; stroke-width:0.1600; stroke-opacity:1; 
stroke-linecap:round; stroke-linejoin:round;">
<path d="M232.8174,17.9094 C242.9377,17.9094 244.1283,15.5281 251.2721,15.5281" />
</g>
<g style="fill:#000000; fill-opacity:0.0; 
stroke:#000000; stroke-width:0.1000; stroke-opacity:1; 
stroke-linecap:round; stroke-linejoin:round;">
<path d="M11.3609 28.0297
L13.7422 28.0297
" />
<path d="M330.4487 10.7656 A3.5718 3.5718 0.0 0 0 326.8768 7.1938" />
</g>
<g style="fill:#000000; fill-opacity:0.0; 
stroke:#000000; stroke-width:0.1600; stroke-opacity:1; 
stroke-linecap:round; stroke-linejoin:round;">
<path d="M301.8737 81.0126 A3.5718 3.5718 0.0 0 0 298.3018 84.5845" />
</g>
<g style="fill:#000000; fill-opacity:0.0; 
stroke:#000000; stroke-width:0.1000; stroke-opacity:1; 
stroke-linecap:round; stroke-linejoin:round;">
<path d="M14.9328 17.3141
L14.9328 10.7656
" />
</g>
<g style="fill:#000000; fill-opacity:0.0; 
stroke:#000000; stroke-width:0.1600; stroke-opacity:1; 
stroke-linecap:round; stroke-linejoin:round;">
<path d="M47.0797 84.5845 A3.5718 3.5718 0.0 0 0 43.5078 81.0127" />
<path d="M335.2112,82.2032 C335.2112,63.7485 337.5925,64.9391 337.5925,50.0563" />
<path d="M112.5642,17.9094 C120.3032,17.9094 120.3032,16.7188 127.4470,16.7188" />
<path d="M220.9111,97.0860 C214.9580,100.0626 210.1955,103.6345 205.4330,108.3970" />
<path d="M138.7579,53.6282 C138.7579,66.7251 138.7579,66.7251 140.4420,67.4966" />
<path d="M282.8237 88.7515 A3.5720 3.5720 0.0 0 0 279.7303 90.5375" />
<path d="M83.3938,79.2266 C83.4401,77.4407 80.4173,77.4407 79.8219,77.4407" />
</g>
<g style="fill:#000000; fill-opacity:0.0; 
stroke:#000000; stroke-width:0.1000; stroke-opacity:1; 
stroke-linecap:round; stroke-linejoin:round;">
<path d="M337.5925 31.6016 A3.5719 3.5719 0.0 0 0 334.0206 28.0297" />
<path d="M326.8768 7.1938
L306.0409 7.1938
" />
<circle cx="26.8391" cy="45.2938" r="3.5719" /> 
</g>
<g style="fill:#000000; fill-opacity:0.0; 
stroke:#000000; stroke-width:0.1600; stroke-opacity:1; 
stroke-linecap:round; stroke-linejoin:round;">
<path d="M14.9328,17.3141 C14.9328,20.8860 17.3141,20.8860 17.3141,24.4578" />
<path d="M169.5940 121.4875
L160.6200 106.9846
" />
</g>
<g style="fill:#000000; fill-opacity:0.0; 
stroke:#000000; stroke-width:0.1000; stroke-opacity:1; 
stroke-linecap:round; stroke-linejoin:round;">
<path d="M127.4470 16.7188
L135.1861 16.7188
" />
</g>
<g style="fill:#000000; fill-opacity:0.0; 
stroke:#000000; stroke-width:0.1600; stroke-opacity:1; 
stroke-linecap:round; stroke-linejoin:round;">
<path d="M331.6393,85.7751 C306.6362,85.7751 319.1378,81.0126 301.8737,81.0127" />
<path d="M140.4420,67.4966 C157.8079,76.8454 158.9986,81.0126 167.9872,89.3863" />
</g>
<g style="fill:#000000; fill-opacity:0.0; 
stroke:#000000; stroke-width:0.0381; stroke-opacity:1; 
stroke-linecap:round; stroke-linejoin:round;">
<path d="M281.0377 73.8688
L281.0377 66.7251
" />
</g>
<g style="fill:#000000; fill-opacity:0.0; 
stroke:#000000; stroke-width:0.1600; stroke-opacity:1; 
stroke-linecap:round; stroke-linejoin:round;">
<path d="M65.6512 90.5375
L71.3245 98.8195
" />
</g>
<g style="fill:#000000; fill-opacity:0.0; 
stroke:#000000; stroke-width:0.0381; stroke-opacity:1; 
stroke-linecap:round; stroke-linejoin:round;">
<path d="M83.3938 79.2266 A3.5719 3.5719 0.0 0 0 90.5376 79.2266" />
</g>
<g style="fill:#000000; fill-opacity:0.0; 
stroke:#000000; stroke-width:0.1600; stroke-opacity:1; 
stroke-linecap:round; stroke-linejoin:round;">
<path d="M112.5642,17.9094 C102.4438,17.9094 101.2532,15.5281 94.1095,15.5281" />
<path d="M330.4487,17.3141 C330.4487,20.8860 328.0674,20.8860 328.0674,24.4578" />
</g>
<g style="fill:#000000; fill-opacity:0.0; 
stroke:#000000; stroke-width:0.1000; stroke-opacity:1; 
stroke-linecap:round; stroke-linejoin:round;">
<path d="M279.8471 11.3609 A2.9766 2.9766 0.0 0 0 276.8705 8.3843" />
</g>
<g style="fill:#000000; fill-opacity:0.0; 
stroke:#000000; stroke-width:0.1600; stroke-opacity:1; 
stroke-linecap:round; stroke-linejoin:round;">
<path d="M331.6393 85.7750 A3.5719 3.5719 0.0 0 0 335.2112 82.2032" />
<path d="M159.5484 131.0407
L167.9283 126.8517
" />
</g>
<g style="fill:#000000; fill-opacity:0.0; 
stroke:#000000; stroke-width:0.1000; stroke-opacity:1; 
stroke-linecap:round; stroke-linejoin:round;">
<path d="M294.7299 88.7516
L282.8237 88.7516
" />
<circle cx="122.0892" cy="35.7688" r="3.5719" /> 
</g>
<g style="fill:#000000; fill-opacity:0.0; 
stroke:#000000; stroke-width:0.1600; stroke-opacity:1; 
stroke-linecap:round; stroke-linejoin:round;">
<path d="M242.3424,91.7282 C254.2486,91.7282 257.2252,93.5141 269.1777,100.1266" />
<path d="M254.8440,79.2266 C254.8902,77.4407 251.8674,77.4407 251.2721,77.4407" />
</g>
<g style="fill:#000000; fill-opacity:0.0; 
stroke:#000000; stroke-width:0.1000; stroke-opacity:1; 
stroke-linecap:round; stroke-linejoin:round;">
<path d="M47.0797 84.5845
L47.0797 85.1798
" />
<path d="M298.8971 14.3375
L282.8237 14.3375
" />
<path d="M210.1955 16.7187 A3.5719 3.5719 0.0 0 0 206.6236 20.2906" />
<path d="M330.4487 10.7656
L330.4487 17.3141
" />
</g>
<g style="fill:#000000; fill-opacity:0.0; 
stroke:#000000; stroke-width:0.0381; stroke-opacity:1; 
stroke-linecap:round; stroke-linejoin:round;">
<path d="M94.1094 70.2969
L88.7516 70.2969
" />
<path d="M256.6299 70.2969 A3.5718 3.5718 0.0 0 0 260.2018 66.7251" />
</g>
<g style="fill:#000000; fill-opacity:0.0; 
stroke:#000000; stroke-width:0.1000; stroke-opacity:1; 
stroke-linecap:round; stroke-linejoin:round;">
<path d="M62.5579 88.7516
L50.6516 88.7516
" />
<path d="M42.9125 10.7656 A3.5718 3.5718 0.0 0 0 39.3407 7.1938" />
<path d="M86.9657 15.5281
L94.1095 15.5281
" />
</g>
<g style="fill:#000000; fill-opacity:0.0; 
stroke:#000000; stroke-width:0.0381; stroke-opacity:1; 
stroke-linecap:round; stroke-linejoin:round;">
<path d="M281.0377 66.7251 A3.5720 3.5720 0.0 0 0 277.4658 63.1532" />
</g>
<g style="fill:#000000; fill-opacity:0.0; 
stroke:#000000; stroke-width:0.1000; stroke-opacity:1; 
stroke-linecap:round; stroke-linejoin:round;">
<path d="M306.0409 7.1937 A3.5719 3.5719 0.0 0 0 302.4690 10.7656" />
</g>
<g style="fill:#000000; fill-opacity:0.0; 
stroke:#000000; stroke-width:0.1600; stroke-opacity:1; 
stroke-linecap:round; stroke-linejoin:round;">
<path d="M269.1777 100.1265 A3.5718 3.5718 0.0 0 0 274.0570 98.8195" />
<path d="M177.4533 126.8517
L185.8331 131.0407
" />
<path d="M168.4399 94.4473
L161.3799 101.8485
" />
</g>
<g style="fill:#000000; fill-opacity:0.0; 
stroke:#000000; stroke-width:0.1000; stroke-opacity:1; 
stroke-linecap:round; stroke-linejoin:round;">
<circle cx="318.5424" cy="45.2938" r="3.5719" /> 
</g>
<g style="fill:#000000; fill-opacity:0.0; 
stroke:#000000; stroke-width:0.1600; stroke-opacity:1; 
stroke-linecap:round; stroke-linejoin:round;">
<path d="M7.7891 50.0563
L7.7891 31.6016
" />
<path d="M161.3798 101.8485 A3.8118 3.8118 0.0 0 0 160.6200 106.9846" />
</g>
<g style="fill:#000000; fill-opacity:0.0; 
stroke:#000000; stroke-width:0.1000; stroke-opacity:1; 
stroke-linecap:round; stroke-linejoin:round;">
<circle cx="26.8391" cy="64.3438" r="3.5719" /> 
</g>
<g style="fill:#000000; fill-opacity:0.0; 
stroke:#000000; stroke-width:0.1600; stroke-opacity:1; 
stroke-linecap:round; stroke-linejoin:round;">
<path d="M242.3424,91.7282 C230.4361,91.7282 227.4595,93.5141 220.9111,97.0860" />
<path d="M103.0391,91.7282 C91.1329,91.7282 88.1563,93.5141 76.2038,100.1266" />
</g>
<g style="fill:#000000; fill-opacity:0.0; 
stroke:#000000; stroke-width:0.1000; stroke-opacity:1; 
stroke-linecap:round; stroke-linejoin:round;">
<circle cx="219.7205" cy="63.1532" r="3.5719" /> 
<path d="M138.7579 20.2906 A3.5719 3.5719 0.0 0 0 135.1861 16.7188" />
</g>
<g style="fill:#000000; fill-opacity:0.0; 
stroke:#000000; stroke-width:0.0381; stroke-opacity:1; 
stroke-linecap:round; stroke-linejoin:round;">
<path d="M64.3437 73.8688 A3.5719 3.5719 0.0 0 0 67.9157 77.4407" />
<path d="M277.4658 77.4406 A3.5717 3.5717 0.0 0 0 281.0377 73.8688" />
</g>
<g style="fill:#000000; fill-opacity:0.0; 
stroke:#000000; stroke-width:0.1600; stroke-opacity:1; 
stroke-linecap:round; stroke-linejoin:round;">
<path d="M337.5925 31.6016
L337.5925 50.0563
" />
</g>
<g style="fill:#000000; fill-opacity:0.0; 
stroke:#000000; stroke-width:0.0381; stroke-opacity:1; 
stroke-linecap:round; stroke-linejoin:round;">
<path d="M85.1797 66.7251 A3.5719 3.5719 0.0 0 0 81.6079 63.1532" />
</g>
<g style="fill:#000000; fill-opacity:0.0; 
stroke:#000000; stroke-width:0.1000; stroke-opacity:1; 
stroke-linecap:round; stroke-linejoin:round;">
<path d="M298.3018 85.1798
L298.3018 84.5845
" />
</g>
<g style="fill:#000000; fill-opacity:0.0; 
stroke:#000000; stroke-width:0.1600; stroke-opacity:1; 
stroke-linecap:round; stroke-linejoin:round;">
<path d="M232.8174,17.9094 C225.0783,17.9094 225.0783,16.7188 217.9345,16.7188" />
</g>
<g style="fill:#000000; fill-opacity:0.0; 
stroke:#000000; stroke-width:0.1000; stroke-opacity:1; 
stroke-linecap:round; stroke-linejoin:round;">
<path d="M279.8471 11.3609 A2.9766 2.9766 0.0 0 0 282.8237 14.3375" />
</g>
<g style="fill:#000000; fill-opacity:0.0; 
stroke:#000000; stroke-width:0.1600; stroke-opacity:1; 
stroke-linecap:round; stroke-linejoin:round;">
<path d="M177.3943 89.3862 A4.0545 4.0545 0.0 0 0 176.9416 94.4473" />
</g>
<g style="fill:#000000; fill-opacity:0.0; 
stroke:#000000; stroke-width:0.1000; stroke-opacity:1; 
stroke-linecap:round; stroke-linejoin:round;">
<circle cx="280.4424" cy="27.4344" r="3.5719" /> 
</g>
<g style="fill:#000000; fill-opacity:0.0; 
stroke:#000000; stroke-width:0.1600; stroke-opacity:1; 
stroke-linecap:round; stroke-linejoin:round;">
<path d="M71.3245 98.8195 A3.5719 3.5719 0.0 0 0 76.2038 100.1266" />
</g>
<g style="fill:#000000; fill-opacity:0.0; 
stroke:#000000; stroke-width:0.1000; stroke-opacity:1; 
stroke-linecap:round; stroke-linejoin:round;">
<path d="M39.3407 7.1938
L18.5047 7.1938
" />
</g>
<g style="fill:#000000; fill-opacity:0.0; 
stroke:#000000; stroke-width:0.1600; stroke-opacity:1; 
stroke-linecap:round; stroke-linejoin:round;">
<path d="M13.7422,85.7751 C38.7453,85.7751 26.2438,81.0126 43.5078,81.0127" />
</g>
<g style="fill:#000000; fill-opacity:0.0; 
stroke:#000000; stroke-width:0.0381; stroke-opacity:1; 
stroke-linecap:round; stroke-linejoin:round;">
<path d="M64.3438 73.8688
L64.3438 66.7251
" />
<path d="M254.8440 79.2266 A3.5719 3.5719 0.0 1 0 261.9877 79.2266" />
</g>
<g style="fill:#000000; fill-opacity:0.0; 
stroke:#000000; stroke-width:0.1600; stroke-opacity:1; 
stroke-linecap:round; stroke-linejoin:round;">
<path d="M184.7616 106.9846
L175.7875 121.4875
" />
</g>
<g style="fill:#000000; fill-opacity:0.0; 
stroke:#000000; stroke-width:0.1000; stroke-opacity:1; 
stroke-linecap:round; stroke-linejoin:round;">
<path d="M258.4158 15.5281 A3.5719 3.5719 0.0 0 0 261.9877 11.9563" />
<circle cx="125.6610" cy="63.1532" r="3.5719" /> 
</g>
<g style="fill:#000000; fill-opacity:0.0; 
stroke:#000000; stroke-width:0.1600; stroke-opacity:1; 
stroke-linecap:round; stroke-linejoin:round;">
<path d="M175.7875 121.4875 A3.7904 3.7904 0.0 0 0 177.4533 126.8517" />
<path d="M294.7299 88.7516 A3.5718 3.5718 0.0 0 0 298.3018 85.1798" />
<path d="M274.0570 98.8195
L279.7303 90.5375
" />
</g>
<g style="fill:#000000; fill-opacity:0.0; 
stroke:#000000; stroke-width:0.1000; stroke-opacity:1; 
stroke-linecap:round; stroke-linejoin:round;">
<path d="M13.7422 28.0297 A3.5719 3.5719 0.0 0 0 17.3141 24.4578" />
<path d="M62.5579 14.3375 A2.9766 2.9766 0.0 0 0 65.5344 11.3609" />
<circle cx="142.9251" cy="88.7516" r="3.5719" /> 
</g>
<g style="fill:#000000; fill-opacity:0.0; 
stroke:#000000; stroke-width:0.1600; stroke-opacity:1; 
stroke-linecap:round; stroke-linejoin:round;">
<path d="M184.0017 101.8485
L176.9416 94.4473
" />
<path d="M168.4399 94.4473 A4.0544 4.0544 0.0 0 0 167.9872 89.3863" />
</g>
<g style="fill:#000000; fill-opacity:0.0; 
stroke:#000000; stroke-width:0.1000; stroke-opacity:1; 
stroke-linecap:round; stroke-linejoin:round;">
<path d="M62.5579 14.3375
L46.4844 14.3375
" />
<path d="M206.6236 20.2906
L206.6236 53.6282
" />
<path d="M210.1955 16.7188
L217.9345 16.7188
" />
<circle cx="64.9391" cy="27.4344" r="3.5719" /> 
<path d="M265.5596 8.3843 A3.5719 3.5719 0.0 0 0 261.9877 11.9563" />
<path d="M298.8971 14.3375 A3.5717 3.5717 0.0 0 0 302.4690 10.7656" />
</g>
<g style="fill:#000000; fill-opacity:0.0; 
stroke:#000000; stroke-width:0.1600; stroke-opacity:1; 
stroke-linecap:round; stroke-linejoin:round;">
<path d="M206.6236,53.6282 C206.6236,66.7251 206.6236,66.7251 204.9396,67.4966" />
<path d="M184.7615 106.9846 A3.8118 3.8118 0.0 0 0 184.0017 101.8485" />
</g>
<g style="fill:#000000; fill-opacity:0.0; 
stroke:#000000; stroke-width:0.1000; stroke-opacity:1; 
stroke-linecap:round; stroke-linejoin:round;">
<path d="M265.5596 8.3844
L276.8705 8.3843
" />
<path d="M328.0675 24.4578 A3.5720 3.5720 0.0 0 0 331.6393 28.0297" />
</g>
<g style="fill:#000000; fill-opacity:0.0; 
stroke:#000000; stroke-width:0.1600; stroke-opacity:1; 
stroke-linecap:round; stroke-linejoin:round;">
<path d="M124.4704,97.0860 C130.4235,100.0626 135.1861,103.6345 139.9486,108.3970" />
<path d="M205.4330,108.3970 C200.0752,113.7548 196.5033,118.5173 189.9548,129.8282" />
<path d="M103.0391,91.7282 C114.9454,91.7282 117.9220,93.5141 124.4704,97.0860" />
<path d="M185.8331 131.0407 A2.8920 2.8920 0.0 0 0 189.9548 129.8282" />
<path d="M65.6512 90.5375 A3.5720 3.5720 0.0 0 0 62.5579 88.7516" />
<path d="M204.9396,67.4966 C187.5736,76.8454 186.3830,81.0126 177.3943,89.3863" />
</g>
<g style="fill:#000000; fill-opacity:0.0; 
stroke:#000000; stroke-width:0.0381; stroke-opacity:1; 
stroke-linecap:round; stroke-linejoin:round;">
<path d="M94.1095 77.4407 A3.5719 3.5719 0.0 0 0 94.1094 70.2969" />
</g>
<g style="fill:#000000; fill-opacity:0.0; 
stroke:#000000; stroke-width:0.1600; stroke-opacity:1; 
stroke-linecap:round; stroke-linejoin:round;">
<path d="M167.9283 126.8517 A3.7905 3.7905 0.0 0 0 169.5940 121.4875" />
</g>
<g style="fill:#000000; fill-opacity:0.0; 
stroke:#000000; stroke-width:0.1000; stroke-opacity:1; 
stroke-linecap:round; stroke-linejoin:round;">
<circle cx="119.1126" cy="79.2266" r="3.5719" /> 
</g>
<g style="fill:#000000; fill-opacity:0.0; 
stroke:#000000; stroke-width:0.0381; stroke-opacity:1; 
stroke-linecap:round; stroke-linejoin:round;">
<path d="M277.4658 63.1532
L263.7736 63.1532
" />
</g>
<g style="fill:#000000; fill-opacity:0.0; 
stroke:#000000; stroke-width:0.1600; stroke-opacity:1; 
stroke-linecap:round; stroke-linejoin:round;">
<path d="M261.9877,79.2266 C261.9415,77.4407 264.9643,77.4407 265.5596,77.4407" />
</g>
<g style="fill:#000000; fill-opacity:0.0; 
stroke:#000000; stroke-width:0.0381; stroke-opacity:1; 
stroke-linecap:round; stroke-linejoin:round;">
<path d="M79.8219 77.4407
L67.9157 77.4407
" />
<path d="M256.6299 70.2969
L251.2721 70.2969
" />
</g>
<g style="fill:#000000; fill-opacity:0.0; 
stroke:#000000; stroke-width:0.1600; stroke-opacity:1; 
stroke-linecap:round; stroke-linejoin:round;">
<path d="M155.4267 129.8282 A2.8920 2.8920 0.0 0 0 159.5484 131.0407" />
<path d="M10.1703,82.2032 C10.1703,63.7485 7.7891,64.9391 7.7891,50.0563" />
</g>
<g style="fill:#000000; fill-opacity:0.0; 
stroke:#000000; stroke-width:0.1000; stroke-opacity:1; 
stroke-linecap:round; stroke-linejoin:round;">
<path d="M42.9125 10.7656 A3.5719 3.5719 0.0 0 0 46.4844 14.3375" />
</g>
<g style="fill:#000000; fill-opacity:0.0; 
stroke:#000000; stroke-width:0.1600; stroke-opacity:1; 
stroke-linecap:round; stroke-linejoin:round;">
<path d="M90.5376,79.2266 C90.4913,77.4407 93.5141,77.4407 94.1095,77.4407" />
</g>
<g style="fill:#000000; fill-opacity:0.0; 
stroke:#000000; stroke-width:0.0381; stroke-opacity:1; 
stroke-linecap:round; stroke-linejoin:round;">
<path d="M251.2721 70.2970 A3.5718 3.5718 0.0 0 0 251.2721 77.4407" />
</g>
<g style="fill:#000000; fill-opacity:0.0; 
stroke:#000000; stroke-width:0.1000; stroke-opacity:1; 
stroke-linecap:round; stroke-linejoin:round;">
<path d="M83.3938 11.9563 A3.5719 3.5719 0.0 0 0 79.8219 8.3844" />
<path d="M138.7579 53.6282
L138.7579 20.2906
" />
<path d="M68.5110 8.3842 A2.9766 2.9766 0.0 0 0 65.5344 11.3609" />
</g>
<g style="fill:#000000; fill-opacity:0.0; 
stroke:#000000; stroke-width:0.1200; stroke-opacity:1; 
stroke-linecap:round; stroke-linejoin:round;">
<path d="M319.6696 17.1606
L319.6696 16.1192
" />
<path d="M318.9838 15.4334
L317.3836 15.4334
" />
<path d="M317.3836 17.8464
L318.9838 17.8464
" />
<path d="M317.0026 15.8144
L317.0026 17.4654
" />
<path d="M316.4946 11.4456
L316.4946 9.7692
" />
<path d="M315.8088 12.1314
L314.1324 12.1314
" />
<path d="M315.8088 9.0834
L314.1324 9.0834
" />
<path d="M313.4466 11.4456
L313.4466 9.7692
" />
<path d="M318.9838 15.4334 A0.5033 0.5033 0.0 0 0 319.6696 16.1192" />
<path d="M319.6696 17.1606 A0.5033 0.5033 0.0 0 0 318.9838 17.8464" />
<path d="M317.0026 17.4654 A0.3810 0.3810 0.0 0 0 317.3836 17.8464" />
<path d="M317.3836 15.4334 A0.3810 0.3810 0.0 0 0 317.0026 15.8144" />
<path d="M315.8088 9.0834 A0.5033 0.5033 0.0 0 0 316.4946 9.7692" />
<path d="M316.4946 11.4456 A0.5033 0.5033 0.0 0 0 315.8088 12.1314" />
<path d="M313.4466 9.7692 A0.5033 0.5033 0.0 0 0 314.1324 9.0834" />
<path d="M314.1324 12.1314 A0.5033 0.5033 0.0 0 0 313.4466 11.4456" />
<path d="M35.1100 17.1606
L35.1100 16.1192
" />
<path d="M34.4242 15.4334
L32.8240 15.4334
" />
<path d="M32.8240 17.8464
L34.4242 17.8464
" />
<path d="M32.4430 15.8144
L32.4430 17.4654
" />
<path d="M31.9350 11.4456
L31.9350 9.7692
" />
<path d="M31.2492 12.1314
L29.5728 12.1314
" />
<path d="M31.2492 9.0834
L29.5728 9.0834
" />
<path d="M28.8870 11.4456
L28.8870 9.7692
" />
<path d="M34.4242 15.4334 A0.5033 0.5033 0.0 0 0 35.1100 16.1192" />
<path d="M35.1100 17.1606 A0.5033 0.5033 0.0 0 0 34.4242 17.8464" />
<path d="M32.4430 17.4654 A0.3810 0.3810 0.0 0 0 32.8240 17.8464" />
<path d="M32.8240 15.4334 A0.3810 0.3810 0.0 0 0 32.4430 15.8144" />
<path d="M31.2492 9.0834 A0.5033 0.5033 0.0 0 0 31.9350 9.7692" />
<path d="M31.9350 11.4456 A0.5033 0.5033 0.0 0 0 31.2492 12.1314" />
<path d="M28.8870 9.7692 A0.5033 0.5033 0.0 0 0 29.5728 9.0834" />
<path d="M29.5728 12.1314 A0.5033 0.5033 0.0 0 0 28.8870 11.4456" />
<g >
</g>
<g >
</g>
<g >
</g>
<g >
</g>
<g >
</g>
<g >
</g>
<g >
</g>
<g >
</g>
<g >
</g>
<g >
</g>
<g >
</g>
<g >
</g>
<g >
</g>
<g >
</g>
<g >
</g>
<g >
</g>
<g >
</g>
<g >
</g>
<g >
</g>
<g >
</g>
<g >
</g>
<g >
</g>
<g >
</g>
<g >
</g>
<g >
</g>
<g >
</g>
<g >
</g>
<g >
</g>
<g >
</g>
<g >
</g>
<g >
</g>
<g >
</g>
<g >
</g>
<g >
</g>
<g >
</g>
<g >
</g>
<g >
</g>
<g >
</g>
<g >
</g>
<g >
</g>
<g >
</g>
<g >
</g>
<g >
</g>
<g >
</g>
<g >
</g>
<g >
</g>
<g >
</g>
<g >
</g>
<g >
</g>
<g >
</g>
<g >
</g>
<g >
</g>
<g >
</g>
<g >
</g>
<g >
</g>
<g >
</g>
<g >
</g>
<g >
</g>
<g >
</g>
<g >
</g>
<g >
</g>
<g >
</g>
<g >
</g>
<g >
</g>
<g >
</g>
<g >
</g>
<g >
</g>
<g >
</g>
<g >
</g>
<g >
</g>
<g >
</g>
<g >
</g>
<g >
</g>
<g >
</g>
<g >
</g>
<g >
</g>
<g >
</g>
<g >
</g>
<g >
</g>
<g >
</g>
<g >
</g>
<g >
</g>
<g >
</g>
<g >
</g>
<g >
</g>
<g >
</g>
<g >
</g>
<g >
</g>
<g >
</g>
<g >
</g>
<g >
</g>
<g >
</g>
<g >
</g>
<g >
</g>
<g >
</g>
<g >
</g>
<g >
</g>
<g >
</g>
<g >
</g>
<g >
</g>
<g >
</g>
<g >
</g>
<g >
</g>
<g >
</g>
<g >
</g>
<g >
</g>
</g> 
</svg>
