<?xml version="1.0" standalone="no"?>
 <!DOCTYPE svg PUBLIC "-//W3C//DTD SVG 1.1//EN" 
 "http://www.w3.org/Graphics/SVG/1.1/DTD/svg11.dtd"> 
<svg
  xmlns:svg="http://www.w3.org/2000/svg"
  xmlns="http://www.w3.org/2000/svg"
  xmlns:xlink="http://www.w3.org/1999/xlink"
  version="1.1"
  width="339.9536mm" height="134.6200mm" viewBox="0.0000 0.0000 339.9536 134.6200">
<title>SVG Image created as mykeeb_v7a5-User_Comments.svg date 2023/06/10 17:51:03 </title>
  <desc>Image generated by PCBNEW </desc>
<g style="fill:#000000; fill-opacity:1.0000;stroke:#000000; stroke-opacity:1.0000;
stroke-linecap:round; stroke-linejoin:round;"
 transform="translate(0 0) scale(1 1)">
</g>
<g style="fill:#000000; fill-opacity:0.0; 
stroke:#000000; stroke-width:0.0000; stroke-opacity:1; 
stroke-linecap:round; stroke-linejoin:round;">
</g>
<g style="fill:#000000; fill-opacity:0.0; 
stroke:#000000; stroke-width:0.1000; stroke-opacity:1; 
stroke-linecap:round; stroke-linejoin:round;">
<path style="fill:#000000; fill-opacity:0.0; 
stroke:#000000; stroke-width:0.1000; stroke-opacity:1; 
stroke-linecap:round; stroke-linejoin:round;fill:none"
d="M 167.9283,3.6219
175.6673,3.6219
175.6673,9.5750
167.9283,9.5750
Z" /> 
<path style="fill:#000000; fill-opacity:0.0; 
stroke:#000000; stroke-width:0.1000; stroke-opacity:1; 
stroke-linecap:round; stroke-linejoin:round;fill:none"
d="M 0.0500,128.6376
7.7891,128.6376
7.7891,134.5907
0.0500,134.5907
Z" /> 
</g>
<g style="fill:#000000; fill-opacity:0.0; 
stroke:#000000; stroke-width:0.1500; stroke-opacity:1; 
stroke-linecap:round; stroke-linejoin:round;">
<circle cx="226.2689" cy="79.2266" r="2.9766" /> 
<circle cx="125.6610" cy="63.1532" r="2.9766" /> 
<circle cx="122.0892" cy="35.7688" r="2.9766" /> 
<circle cx="86.9657" cy="11.9563" r="2.9766" /> 
<circle cx="26.8391" cy="45.2938" r="2.9766" /> 
<circle cx="258.4158" cy="11.9563" r="2.9766" /> 
<circle cx="301.8737" cy="84.5845" r="2.9766" /> 
<circle cx="26.8391" cy="64.3438" r="2.9766" /> 
<circle cx="318.5424" cy="45.2938" r="2.9766" /> 
<circle cx="142.9252" cy="88.7517" r="2.9766" /> 
<circle cx="331.6393" cy="24.4578" r="2.9766" /> 
<circle cx="223.2923" cy="35.7688" r="2.9766" /> 
<circle cx="86.9657" cy="79.2266" r="2.9766" /> 
<circle cx="202.4564" cy="88.7517" r="2.9766" /> 
<circle cx="46.4844" cy="10.7656" r="2.9766" /> 
<circle cx="280.4424" cy="27.4344" r="2.9766" /> 
<circle cx="219.7205" cy="63.1532" r="2.9766" /> 
<circle cx="119.1126" cy="79.2266" r="2.9766" /> 
<circle cx="64.9391" cy="27.4344" r="2.9766" /> 
<circle cx="13.7422" cy="24.4578" r="2.9766" /> 
<circle cx="163.7611" cy="104.8251" r="2.9766" /> 
<circle cx="258.4158" cy="79.2266" r="2.9766" /> 
<circle cx="318.5424" cy="64.3438" r="2.9766" /> 
<circle cx="43.5078" cy="84.5845" r="2.9766" /> 
<circle cx="181.6204" cy="104.8251" r="2.9766" /> 
<circle cx="298.8971" cy="10.7656" r="2.9766" /> 
<g >
</g>
<g >
</g>
<g >
</g>
<g >
</g>
<g >
</g>
<g >
</g>
<g >
</g>
<g >
</g>
<g >
</g>
<g >
</g>
<g >
</g>
<g >
</g>
<g >
</g>
<g >
</g>
<g >
</g>
<g >
</g>
<g >
</g>
<g >
</g>
<g >
</g>
<g >
</g>
<g >
</g>
<g >
</g>
<g >
</g>
<g >
</g>
<g >
</g>
<g >
</g>
<g >
</g>
<g >
</g>
<g >
</g>
<g >
</g>
<g >
</g>
<g >
</g>
<g >
</g>
<g >
</g>
<g >
</g>
<g >
</g>
<g >
</g>
<g >
</g>
<g >
</g>
<g >
</g>
<g >
</g>
<g >
</g>
<g >
</g>
<g >
</g>
<g >
</g>
<g >
</g>
<g >
</g>
<g >
</g>
<g >
</g>
<g >
</g>
<g >
</g>
<g >
</g>
<g >
</g>
<g >
</g>
<g >
</g>
<g >
</g>
<g >
</g>
<g >
</g>
<g >
</g>
<g >
</g>
<g >
</g>
<g >
</g>
<g >
</g>
<g >
</g>
<g >
</g>
<g >
</g>
<g >
</g>
<g >
</g>
<g >
</g>
<g >
</g>
<g >
</g>
<g >
</g>
<g >
</g>
<g >
</g>
<g >
</g>
<g >
</g>
<g >
</g>
<g >
</g>
<g >
</g>
<g >
</g>
<g >
</g>
<g >
</g>
<g >
</g>
<g >
</g>
<g >
</g>
<g >
</g>
<g >
</g>
<g >
</g>
<g >
</g>
<g >
</g>
<g >
</g>
<g >
</g>
<g >
</g>
<g >
</g>
<g >
</g>
<g >
</g>
<g >
</g>
<g >
</g>
<g >
</g>
<g >
</g>
<g >
</g>
<g >
</g>
<g >
</g>
<g >
</g>
<g >
</g>
<g >
</g>
</g> 
</svg>
