<?xml version="1.0" standalone="no"?>
 <!DOCTYPE svg PUBLIC "-//W3C//DTD SVG 1.1//EN" 
 "http://www.w3.org/Graphics/SVG/1.1/DTD/svg11.dtd"> 
<svg
  xmlns:svg="http://www.w3.org/2000/svg"
  xmlns="http://www.w3.org/2000/svg"
  xmlns:xlink="http://www.w3.org/1999/xlink"
  version="1.1"
  width="339.9536mm" height="131.0640mm" viewBox="0.0000 0.0000 339.9536 131.0640">
<title>SVG Image created as mykeeb_v7a5-User_1.svg date 2023/06/11 09:40:46 </title>
  <desc>Image generated by PCBNEW </desc>
<g style="fill:#000000; fill-opacity:1.0000;stroke:#000000; stroke-opacity:1.0000;
stroke-linecap:round; stroke-linejoin:round;"
 transform="translate(0 0) scale(1 1)">
</g>
<g style="fill:#000000; fill-opacity:0.0; 
stroke:#000000; stroke-width:0.0000; stroke-opacity:1; 
stroke-linecap:round; stroke-linejoin:round;">
</g>
<g style="fill:#000000; fill-opacity:0.0; 
stroke:#000000; stroke-width:0.1000; stroke-opacity:1; 
stroke-linecap:round; stroke-linejoin:round;">
<path style="fill:#000000; fill-opacity:0.0; 
stroke:#000000; stroke-width:0.1000; stroke-opacity:1; 
stroke-linecap:round; stroke-linejoin:round;fill:none"
d="M 60.1766,73.8688
73.2735,73.8688
73.2735,81.6079
60.1766,81.6079
Z" /> 
<path style="fill:#000000; fill-opacity:0.0; 
stroke:#000000; stroke-width:0.1000; stroke-opacity:1; 
stroke-linecap:round; stroke-linejoin:round;fill:none"
d="M 29.2203,17.3141
31.6016,17.3141
31.6016,22.0766
29.2203,22.0766
Z" /> 
<path style="fill:#000000; fill-opacity:0.0; 
stroke:#000000; stroke-width:0.1000; stroke-opacity:1; 
stroke-linecap:round; stroke-linejoin:round;fill:none"
d="M 73.2735,54.2235
75.6548,54.2235
75.6548,59.5813
73.2735,59.5813
Z" /> 
</g>
<g style="fill:#000000; fill-opacity:1.0000; 
stroke:#000000; stroke-width:0.1000; stroke-opacity:1; 
stroke-linecap:round; stroke-linejoin:round;">
<path style="fill:#000000; fill-opacity:1.0000; 
stroke:#000000; stroke-width:0.1000; stroke-opacity:1; 
stroke-linecap:round; stroke-linejoin:round;fill-rule:evenodd;"
d="M 106.6110,88.1563
105.4204,89.3469
100.6579,89.3469
99.4673,88.1563
99.4673,84.5844
106.6110,84.5844
Z" /> 
</g>
<g style="fill:#000000; fill-opacity:0.0; 
stroke:#000000; stroke-width:0.1000; stroke-opacity:1; 
stroke-linecap:round; stroke-linejoin:round;">
<path style="fill:#000000; fill-opacity:0.0; 
stroke:#000000; stroke-width:0.1000; stroke-opacity:1; 
stroke-linecap:round; stroke-linejoin:round;fill:none"
d="M 167.9283,0.0500
175.6673,0.0500
175.6673,6.0031
167.9283,6.0031
Z" /> 
</g>
<g style="fill:#000000; fill-opacity:1.0000; 
stroke:#000000; stroke-width:0.1000; stroke-opacity:1; 
stroke-linecap:round; stroke-linejoin:round;">
<path style="fill:#000000; fill-opacity:1.0000; 
stroke:#000000; stroke-width:0.1000; stroke-opacity:1; 
stroke-linecap:round; stroke-linejoin:round;fill-rule:evenodd;"
d="M 73.2735,76.2501
73.2735,79.2266
70.8922,81.6079
60.1766,81.6079
60.1766,73.8688
70.8922,73.8688
Z" /> 
</g>
<g style="fill:#000000; fill-opacity:0.0; 
stroke:#000000; stroke-width:0.1000; stroke-opacity:1; 
stroke-linecap:round; stroke-linejoin:round;">
<path style="fill:#000000; fill-opacity:0.0; 
stroke:#000000; stroke-width:0.1000; stroke-opacity:1; 
stroke-linecap:round; stroke-linejoin:round;fill:none"
d="M 35.1735,72.0829
37.5547,72.0829
37.5547,76.2501
35.1735,76.2501
Z" /> 
<path style="fill:#000000; fill-opacity:0.0; 
stroke:#000000; stroke-width:0.1000; stroke-opacity:1; 
stroke-linecap:round; stroke-linejoin:round;fill:none"
d="M 128.3884,88.6998
126.0071,92.8243
123.9449,91.6337
126.3261,87.5092
Z" /> 
<path style="fill:#000000; fill-opacity:0.0; 
stroke:#000000; stroke-width:0.1000; stroke-opacity:1; 
stroke-linecap:round; stroke-linejoin:round;fill:none"
d="M 144.8044,102.1462
141.4368,105.5138
139.7530,103.8300
143.1206,100.4624
Z" /> 
</g>
<g style="fill:#000000; fill-opacity:1.0000; 
stroke:#000000; stroke-width:0.1000; stroke-opacity:1; 
stroke-linecap:round; stroke-linejoin:round;">
<path style="fill:#000000; fill-opacity:1.0000; 
stroke:#000000; stroke-width:0.1000; stroke-opacity:1; 
stroke-linecap:round; stroke-linejoin:round;fill-rule:evenodd;"
d="M 33.3875,10.7656
33.3875,16.7188
32.1969,17.3141
28.6250,17.3141
27.4344,16.7188
27.4344,10.7656
28.6250,10.1703
32.1969,10.1703
Z" /> 
</g>
<g style="fill:#000000; fill-opacity:0.0; 
stroke:#000000; stroke-width:0.1000; stroke-opacity:1; 
stroke-linecap:round; stroke-linejoin:round;">
<path style="fill:#000000; fill-opacity:0.0; 
stroke:#000000; stroke-width:0.1000; stroke-opacity:1; 
stroke-linecap:round; stroke-linejoin:round;fill:none"
d="M 111.3735,44.6985
113.7548,44.6985
113.7548,48.8657
111.3735,48.8657
Z" /> 
</g>
<g style="fill:#000000; fill-opacity:1.0000; 
stroke:#000000; stroke-width:0.0000; stroke-opacity:1; 
stroke-linecap:round; stroke-linejoin:round;">
<circle cx="17.9094" cy="14.0375" r="1.3812" /> 
<circle cx="17.9094" cy="7.4891" r="1.3812" /> 
</g>
<g style="fill:#000000; fill-opacity:0.0; 
stroke:#000000; stroke-width:0.1000; stroke-opacity:1; 
stroke-linecap:round; stroke-linejoin:round;">
<path style="fill:#000000; fill-opacity:0.0; 
stroke:#000000; stroke-width:0.1000; stroke-opacity:1; 
stroke-linecap:round; stroke-linejoin:round;fill:none"
d="M 111.3735,63.7485
113.7548,63.7485
113.7548,67.9157
111.3735,67.9157
Z" /> 
<path style="fill:#000000; fill-opacity:0.0; 
stroke:#000000; stroke-width:0.1000; stroke-opacity:1; 
stroke-linecap:round; stroke-linejoin:round;fill:none"
d="M 0.0500,125.0657
7.7891,125.0657
7.7891,131.0189
0.0500,131.0189
Z" /> 
<path style="fill:#000000; fill-opacity:0.0; 
stroke:#000000; stroke-width:0.1000; stroke-opacity:1; 
stroke-linecap:round; stroke-linejoin:round;fill:none"
d="M 76.8454,88.7516
79.2266,88.7516
79.2266,92.9188
76.8454,92.9188
Z" /> 
<path style="fill:#000000; fill-opacity:0.0; 
stroke:#000000; stroke-width:0.1000; stroke-opacity:1; 
stroke-linecap:round; stroke-linejoin:round;fill:none"
d="M 35.1735,53.0329
37.5547,53.0329
37.5547,57.2000
35.1735,57.2000
Z" /> 
<path style="fill:#000000; fill-opacity:0.0; 
stroke:#000000; stroke-width:0.1000; stroke-opacity:1; 
stroke-linecap:round; stroke-linejoin:round;fill:none"
d="M 133.4001,42.9125
137.5673,42.9125
137.5673,45.2938
133.4001,45.2938
Z" /> 
<path style="fill:#000000; fill-opacity:0.0; 
stroke:#000000; stroke-width:0.1000; stroke-opacity:1; 
stroke-linecap:round; stroke-linejoin:round;fill:none"
d="M 73.2735,35.1735
75.6548,35.1735
75.6548,39.3407
73.2735,39.3407
Z" /> 
<path style="fill:#000000; fill-opacity:0.0; 
stroke:#000000; stroke-width:0.1000; stroke-opacity:1; 
stroke-linecap:round; stroke-linejoin:round;fill:none"
d="M 35.1735,33.9828
37.5547,33.9828
37.5547,38.1500
35.1735,38.1500
Z" /> 
</g>
<g style="fill:#000000; fill-opacity:1.0000; 
stroke:#000000; stroke-width:0.0000; stroke-opacity:1; 
stroke-linecap:round; stroke-linejoin:round;">
<circle cx="43.5078" cy="19.6953" r="1.3812" /> 
</g>
<g style="fill:#000000; fill-opacity:0.0; 
stroke:#000000; stroke-width:0.1000; stroke-opacity:1; 
stroke-linecap:round; stroke-linejoin:round;">
<path style="fill:#000000; fill-opacity:0.0; 
stroke:#000000; stroke-width:0.1000; stroke-opacity:1; 
stroke-linecap:round; stroke-linejoin:round;fill:none"
d="M 111.3735,25.6485
113.7548,25.6485
113.7548,29.8156
111.3735,29.8156
Z" /> 
<path style="fill:#000000; fill-opacity:0.0; 
stroke:#000000; stroke-width:0.1000; stroke-opacity:1; 
stroke-linecap:round; stroke-linejoin:round;fill:none"
d="M 133.9954,58.3907
137.5673,58.3907
137.5673,61.3672
133.9954,61.3672
Z" /> 
</g>
<g style="fill:#000000; fill-opacity:1.0000; 
stroke:#000000; stroke-width:0.0000; stroke-opacity:1; 
stroke-linecap:round; stroke-linejoin:round;">
<circle cx="43.5078" cy="13.1469" r="1.3812" /> 
</g>
<g style="fill:#000000; fill-opacity:0.0; 
stroke:#000000; stroke-width:0.1000; stroke-opacity:1; 
stroke-linecap:round; stroke-linejoin:round;">
<path style="fill:#000000; fill-opacity:0.0; 
stroke:#000000; stroke-width:0.1000; stroke-opacity:1; 
stroke-linecap:round; stroke-linejoin:round;fill:none"
d="M 73.2735,16.1235
75.6548,16.1235
75.6548,20.2906
73.2735,20.2906
Z" /> 
</g>
<g style="fill:#000000; fill-opacity:1.0000; 
stroke:#000000; stroke-width:0.1200; stroke-opacity:1; 
stroke-linecap:round; stroke-linejoin:round;">
<path style="fill:#000000; fill-opacity:1.0000; 
stroke:#000000; stroke-width:0.1200; stroke-opacity:1; 
stroke-linecap:round; stroke-linejoin:round;fill-rule:evenodd;"
d="M 137.8008,84.3509
136.6102,86.4131
137.0460,88.0396
135.8554,90.1018
134.8243,89.5065
133.1979,89.9423
132.9002,90.4578
131.5714,90.3781
129.5092,89.1874
126.8517,89.0279
125.3848,86.8062
123.3225,85.6156
122.5891,84.5047
122.8867,83.9891
122.4509,82.3627
121.4198,81.7674
122.6105,79.7052
124.2369,79.2694
125.4275,77.2072
Z" /> 
<path style="fill:#000000; fill-opacity:1.0000; 
stroke:#000000; stroke-width:0.1200; stroke-opacity:1; 
stroke-linecap:round; stroke-linejoin:round;fill-rule:evenodd;"
d="M 20.3098,25.7850
22.6820,25.5774
23.9272,39.8106
21.5550,40.0181
20.4727,41.3080
18.1005,41.5155
17.9967,40.3294
16.7069,39.2471
16.1138,39.2990
15.4170,38.1648
15.2095,35.7926
13.8158,33.5242
14.7944,31.0482
14.5869,28.6760
15.0761,27.4380
15.6692,27.3862
16.7515,26.0963
16.6477,24.9102
19.0199,24.7027
Z" /> 
<path style="fill:#000000; fill-opacity:1.0000; 
stroke:#000000; stroke-width:0.1200; stroke-opacity:1; 
stroke-linecap:round; stroke-linejoin:round;fill-rule:evenodd;"
d="M 328.7338,44.0930
328.6300,45.2791
329.7123,46.5690
330.3054,46.6208
330.7947,47.8588
330.5871,50.2310
331.5657,52.7070
330.1721,54.9754
329.9645,57.3476
329.2677,58.4818
328.6746,58.4299
327.3848,59.5122
327.2810,60.6983
324.9088,60.4908
323.8265,59.2009
321.4543,58.9934
322.6996,44.7602
325.0717,44.9678
326.3616,43.8855
Z" /> 
<path style="fill:#000000; fill-opacity:1.0000; 
stroke:#000000; stroke-width:0.1200; stroke-opacity:1; 
stroke-linecap:round; stroke-linejoin:round;fill-rule:evenodd;"
d="M 218.5299,15.5281
220.9111,15.5281
220.9111,29.8156
218.5299,29.8156
217.3392,31.0063
214.9580,31.0063
214.9580,29.8156
213.7674,28.6250
213.1720,28.6250
212.5767,27.4344
212.5767,25.0531
211.3861,22.6719
212.5767,20.2906
212.5767,17.9094
213.1720,16.7188
213.7674,16.7188
214.9580,15.5281
214.9580,14.3375
217.3392,14.3375
Z" /> 
<path style="fill:#000000; fill-opacity:1.0000; 
stroke:#000000; stroke-width:0.1200; stroke-opacity:1; 
stroke-linecap:round; stroke-linejoin:round;fill-rule:evenodd;"
d="M 62.5579,34.5781
63.7485,35.7687
63.7485,38.1500
62.5579,38.1500
61.3672,39.3406
61.3672,39.9359
60.1766,40.5312
57.7954,40.5312
55.4141,41.7218
53.0329,40.5312
50.6516,40.5312
49.4610,39.9359
49.4610,39.3406
48.2704,38.1500
47.0797,38.1500
47.0797,35.7687
48.2704,34.5781
48.2704,32.1968
62.5579,32.1968
Z" /> 
<path style="fill:#000000; fill-opacity:1.0000; 
stroke:#000000; stroke-width:0.1200; stroke-opacity:1; 
stroke-linecap:round; stroke-linejoin:round;fill-rule:evenodd;"
d="M 195.0237,83.2246
195.0237,84.9084
196.7075,86.5922
186.6048,96.6950
184.9210,95.0112
183.2372,95.0112
181.5534,93.3274
182.3953,92.4855
182.3953,90.8017
181.9743,90.3807
182.3953,89.1179
184.0791,87.4341
184.9210,84.9084
187.4467,84.0665
189.1305,82.3827
190.3933,81.9617
190.8143,82.3827
192.4980,82.3827
193.3399,81.5408
Z" /> 
<path style="fill:#000000; fill-opacity:1.0000; 
stroke:#000000; stroke-width:0.1200; stroke-opacity:1; 
stroke-linecap:round; stroke-linejoin:round;fill-rule:evenodd;"
d="M 43.5079,65.5344
44.6985,66.7250
44.6985,69.1063
43.5079,69.1063
42.3173,70.2969
42.3173,70.8922
41.1266,71.4875
38.7454,71.4875
36.3641,72.6781
33.9829,71.4875
31.6016,71.4875
30.4110,70.8922
30.4110,70.2969
29.2204,69.1063
28.0297,69.1063
28.0297,66.7250
29.2204,65.5344
29.2204,63.1531
43.5079,63.1531
Z" /> 
<path style="fill:#000000; fill-opacity:1.0000; 
stroke:#000000; stroke-width:0.1200; stroke-opacity:1; 
stroke-linecap:round; stroke-linejoin:round;fill-rule:evenodd;"
d="M 100.6579,35.7688
101.8485,36.9594
101.8485,39.3407
100.6579,39.3407
99.4672,40.5313
99.4672,41.1266
98.2766,41.7219
95.8954,41.7219
93.5141,42.9125
91.1329,41.7219
88.7516,41.7219
87.5610,41.1266
87.5610,40.5313
86.3704,39.3407
85.1797,39.3407
85.1797,36.9594
86.3704,35.7688
86.3704,33.3875
100.6579,33.3875
Z" /> 
<path style="fill:#000000; fill-opacity:1.0000; 
stroke:#000000; stroke-width:0.1200; stroke-opacity:1; 
stroke-linecap:round; stroke-linejoin:round;fill-rule:evenodd;"
d="M 297.1112,15.5281
298.3018,16.7187
298.3018,19.1000
297.1112,19.1000
295.9205,20.2906
295.9205,20.8859
294.7299,21.4812
292.3487,21.4812
289.9674,22.6718
287.5862,21.4812
285.2049,21.4812
284.0143,20.8859
284.0143,20.2906
282.8237,19.1000
281.6330,19.1000
281.6330,16.7187
282.8237,15.5281
282.8237,13.1468
297.1112,13.1468
Z" /> 
<path style="fill:#000000; fill-opacity:1.0000; 
stroke:#000000; stroke-width:0.1200; stroke-opacity:1; 
stroke-linecap:round; stroke-linejoin:round;fill-rule:evenodd;"
d="M 316.1611,46.4844
317.3518,47.6750
317.3518,50.0563
316.1611,50.0563
314.9705,51.2469
314.9705,51.8422
313.7799,52.4375
311.3986,52.4375
309.0174,53.6281
306.6361,52.4375
304.2549,52.4375
303.0643,51.8422
303.0643,51.2469
301.8736,50.0563
300.6830,50.0563
300.6830,47.6750
301.8736,46.4844
301.8736,44.1031
316.1611,44.1031
Z" /> 
<path style="fill:#000000; fill-opacity:1.0000; 
stroke:#000000; stroke-width:0.1200; stroke-opacity:1; 
stroke-linecap:round; stroke-linejoin:round;fill-rule:evenodd;"
d="M 259.0111,16.7187
260.2018,17.9093
260.2018,20.2906
259.0111,20.2906
257.8205,21.4812
257.8205,22.0765
256.6299,22.6718
254.2486,22.6718
251.8674,23.8625
249.4861,22.6718
247.1049,22.6718
245.9143,22.0765
245.9143,21.4812
244.7236,20.2906
243.5330,20.2906
243.5330,17.9093
244.7236,16.7187
244.7236,14.3375
259.0111,14.3375
Z" /> 
<path style="fill:#000000; fill-opacity:1.0000; 
stroke:#000000; stroke-width:0.1200; stroke-opacity:1; 
stroke-linecap:round; stroke-linejoin:round;fill-rule:evenodd;"
d="M 81.6079,9.5750
82.7985,10.7656
82.7985,13.1468
81.6079,13.1468
80.4172,14.3375
80.4172,14.9328
79.2266,15.5281
76.8454,15.5281
74.4641,16.7187
72.0829,15.5281
69.7016,15.5281
68.5110,14.9328
68.5110,14.3375
67.3204,13.1468
66.1298,13.1468
66.1298,10.7656
67.3204,9.5750
67.3204,7.1937
81.6079,7.1937
Z" /> 
<path style="fill:#000000; fill-opacity:1.0000; 
stroke:#000000; stroke-width:0.1200; stroke-opacity:1; 
stroke-linecap:round; stroke-linejoin:round;fill-rule:evenodd;"
d="M 22.0766,65.5344
24.4579,65.5344
24.4579,79.8219
22.0766,79.8219
20.8860,81.0125
18.5047,81.0125
18.5047,79.8219
17.3141,78.6313
16.7188,78.6313
16.1235,77.4406
16.1235,75.0594
14.9329,72.6781
16.1235,70.2969
16.1235,67.9156
16.7188,66.7250
17.3141,66.7250
18.5047,65.5344
18.5047,64.3438
20.8860,64.3438
Z" /> 
<path style="fill:#000000; fill-opacity:1.0000; 
stroke:#000000; stroke-width:0.1200; stroke-opacity:1; 
stroke-linecap:round; stroke-linejoin:round;fill-rule:evenodd;"
d="M 110.1829,76.2501
111.3735,77.4408
111.3735,79.8220
110.1829,79.8220
108.9923,81.0126
108.9923,81.6079
107.8016,82.2033
105.4204,82.2033
103.0391,83.3939
100.6579,82.2033
98.2766,82.2033
97.0860,81.6079
97.0860,81.0126
95.8954,79.8220
94.7048,79.8220
94.7048,77.4408
95.8954,76.2501
95.8954,73.8689
110.1829,73.8689
Z" /> 
<path style="fill:#000000; fill-opacity:1.0000; 
stroke:#000000; stroke-width:0.1200; stroke-opacity:1; 
stroke-linecap:round; stroke-linejoin:round;fill-rule:evenodd;"
d="M 201.7589,91.6436
203.4427,91.6436
205.1265,93.3274
204.2846,94.1693
204.2846,95.8531
204.7056,96.2740
204.2846,97.5369
202.6008,99.2207
201.7589,101.7464
199.2333,102.5883
197.5495,104.2721
196.2866,104.6930
195.8657,104.2721
194.1819,104.2721
193.3400,105.1140
191.6562,103.4302
191.6562,101.7464
189.9724,100.0626
200.0752,89.9598
Z" /> 
<path style="fill:#000000; fill-opacity:1.0000; 
stroke:#000000; stroke-width:0.1200; stroke-opacity:1; 
stroke-linecap:round; stroke-linejoin:round;fill-rule:evenodd;"
d="M 155.4092,100.0626
153.7254,101.7464
153.7254,103.4302
152.0416,105.1140
151.1997,104.2721
149.5159,104.2721
149.0949,104.6930
147.8321,104.2721
146.1483,102.5883
143.6226,101.7464
142.7807,99.2207
141.0969,97.5369
140.6759,96.2740
141.0969,95.8531
141.0969,94.1693
140.2550,93.3274
141.9388,91.6436
143.6226,91.6436
145.3064,89.9598
Z" /> 
<path style="fill:#000000; fill-opacity:1.0000; 
stroke:#000000; stroke-width:0.1200; stroke-opacity:1; 
stroke-linecap:round; stroke-linejoin:round;fill-rule:evenodd;"
d="M 43.5078,27.4343
44.6985,28.6250
44.6985,31.0062
43.5078,31.0062
42.3172,32.1968
42.3172,32.7922
41.1266,33.3875
38.7453,33.3875
36.3641,34.5781
33.9828,33.3875
31.6016,33.3875
30.4110,32.7922
30.4110,32.1968
29.2203,31.0062
28.0297,31.0062
28.0297,28.6250
29.2203,27.4343
29.2203,25.0531
43.5078,25.0531
Z" /> 
<path style="fill:#000000; fill-opacity:1.0000; 
stroke:#000000; stroke-width:0.1200; stroke-opacity:1; 
stroke-linecap:round; stroke-linejoin:round;fill-rule:evenodd;"
d="M 168.1618,119.9415
166.0996,121.1321
165.6638,122.7585
163.6016,123.9491
163.0062,122.9180
161.3798,122.4822
160.8643,122.7799
159.7534,122.0464
158.5628,119.9842
156.3410,118.5173
156.1815,115.8598
154.9909,113.7975
154.9111,112.4688
155.4267,112.1711
155.8625,110.5447
155.2672,109.5136
157.3294,108.3229
158.9558,108.7587
161.0181,107.5681
Z" /> 
<path style="fill:#000000; fill-opacity:1.0000; 
stroke:#000000; stroke-width:0.1200; stroke-opacity:1; 
stroke-linecap:round; stroke-linejoin:round;fill-rule:evenodd;"
d="M 152.8835,82.3827
154.5673,82.3827
154.9882,81.9617
156.2511,82.3827
157.9349,84.0665
160.4606,84.9084
161.3025,87.4341
162.9863,89.1179
163.4072,90.3807
162.9863,90.8017
162.9863,92.4855
163.8282,93.3274
162.1444,95.0112
160.4606,95.0112
158.7768,96.6950
148.6740,86.5922
150.3578,84.9084
150.3578,83.2246
152.0416,81.5408
Z" /> 
<path style="fill:#000000; fill-opacity:1.0000; 
stroke:#000000; stroke-width:0.1200; stroke-opacity:1; 
stroke-linecap:round; stroke-linejoin:round;fill-rule:evenodd;"
d="M 297.1112,72.6782
298.3018,73.8688
298.3018,76.2501
297.1112,76.2501
295.9205,77.4407
295.9205,78.0360
294.7299,78.6313
292.3487,78.6313
289.9674,79.8219
287.5862,78.6313
285.2049,78.6313
284.0143,78.0360
284.0143,77.4407
282.8237,76.2501
281.6330,76.2501
281.6330,73.8688
282.8237,72.6782
282.8237,70.2969
297.1112,70.2969
Z" /> 
<path style="fill:#000000; fill-opacity:1.0000; 
stroke:#000000; stroke-width:0.1200; stroke-opacity:1; 
stroke-linecap:round; stroke-linejoin:round;fill-rule:evenodd;"
d="M 277.1041,84.3509
275.9134,86.4131
276.3492,88.0396
275.1586,90.1018
274.1275,89.5065
272.5011,89.9423
272.2034,90.4578
270.8747,90.3781
268.8124,89.1874
266.1549,89.0279
264.6880,86.8062
262.6258,85.6156
261.8923,84.5047
262.1900,83.9891
261.7542,82.3627
260.7231,81.7674
261.9137,79.7052
263.5401,79.2694
264.7307,77.2072
Z" /> 
<path style="fill:#000000; fill-opacity:1.0000; 
stroke:#000000; stroke-width:0.1200; stroke-opacity:1; 
stroke-linecap:round; stroke-linejoin:round;fill-rule:evenodd;"
d="M 221.1446,79.2694
222.7711,79.7052
223.9617,81.7674
222.9306,82.3627
222.4948,83.9891
222.7924,84.5047
222.0590,85.6156
219.9968,86.8062
218.5299,89.0279
215.8723,89.1874
213.8101,90.3781
212.4813,90.4578
212.1837,89.9423
210.5572,89.5065
209.5261,90.1018
208.3355,88.0396
208.7713,86.4131
207.5807,84.3509
219.9540,77.2072
Z" /> 
<path style="fill:#000000; fill-opacity:1.0000; 
stroke:#000000; stroke-width:0.1200; stroke-opacity:1; 
stroke-linecap:round; stroke-linejoin:round;fill-rule:evenodd;"
d="M 259.0111,35.7688
260.2018,36.9594
260.2018,39.3407
259.0111,39.3407
257.8205,40.5313
257.8205,41.1266
256.6299,41.7219
254.2486,41.7219
251.8674,42.9125
249.4861,41.7219
247.1049,41.7219
245.9143,41.1266
245.9143,40.5313
244.7236,39.3407
243.5330,39.3407
243.5330,36.9594
244.7236,35.7688
244.7236,33.3875
259.0111,33.3875
Z" /> 
<path style="fill:#000000; fill-opacity:1.0000; 
stroke:#000000; stroke-width:0.1200; stroke-opacity:1; 
stroke-linecap:round; stroke-linejoin:round;fill-rule:evenodd;"
d="M 316.1611,65.5344
317.3518,66.7250
317.3518,69.1063
316.1611,69.1063
314.9705,70.2969
314.9705,70.8922
313.7799,71.4875
311.3986,71.4875
309.0174,72.6781
306.6361,71.4875
304.2549,71.4875
303.0643,70.8922
303.0643,70.2969
301.8736,69.1063
300.6830,69.1063
300.6830,66.7250
301.8736,65.5344
301.8736,63.1531
316.1611,63.1531
Z" /> 
<path style="fill:#000000; fill-opacity:1.0000; 
stroke:#000000; stroke-width:0.1200; stroke-opacity:1; 
stroke-linecap:round; stroke-linejoin:round;fill-rule:evenodd;"
d="M 100.6579,54.8188
101.8485,56.0094
101.8485,58.3907
100.6579,58.3907
99.4672,59.5813
99.4672,60.1766
98.2766,60.7719
95.8954,60.7719
93.5141,61.9625
91.1329,60.7719
88.7516,60.7719
87.5610,60.1766
87.5610,59.5813
86.3704,58.3907
85.1797,58.3907
85.1797,56.0094
86.3704,54.8188
86.3704,52.4375
100.6579,52.4375
Z" /> 
<path style="fill:#000000; fill-opacity:1.0000; 
stroke:#000000; stroke-width:0.1200; stroke-opacity:1; 
stroke-linecap:round; stroke-linejoin:round;fill-rule:evenodd;"
d="M 239.9611,57.2000
241.1518,58.3906
241.1518,60.7719
239.9611,60.7719
238.7705,61.9625
238.7705,62.5578
237.5799,63.1531
235.1986,63.1531
232.8174,64.3437
230.4361,63.1531
228.0549,63.1531
226.8643,62.5578
226.8643,61.9625
225.6736,60.7719
224.4830,60.7719
224.4830,58.3906
225.6736,57.2000
225.6736,54.8187
239.9611,54.8187
Z" /> 
<path style="fill:#000000; fill-opacity:1.0000; 
stroke:#000000; stroke-width:0.1200; stroke-opacity:1; 
stroke-linecap:round; stroke-linejoin:round;fill-rule:evenodd;"
d="M 212.9698,67.4913
214.5962,67.9271
215.6273,67.3318
216.8179,69.3940
216.3821,71.0205
217.5728,73.0827
205.1994,80.2264
204.0088,78.1642
202.3824,77.7284
201.1918,75.6662
202.2229,75.0709
202.6587,73.4445
202.3610,72.9289
203.0945,71.8180
205.1567,70.6274
206.6236,68.4057
209.2811,68.2462
211.3434,67.0555
212.6721,66.9758
Z" /> 
<path style="fill:#000000; fill-opacity:1.0000; 
stroke:#000000; stroke-width:0.1200; stroke-opacity:1; 
stroke-linecap:round; stroke-linejoin:round;fill-rule:evenodd;"
d="M 239.9611,38.1500
241.1518,39.3406
241.1518,41.7219
239.9611,41.7219
238.7705,42.9125
238.7705,43.5078
237.5799,44.1031
235.1986,44.1031
232.8174,45.2937
230.4361,44.1031
228.0549,44.1031
226.8643,43.5078
226.8643,42.9125
225.6736,41.7219
224.4830,41.7219
224.4830,39.3406
225.6736,38.1500
225.6736,35.7687
239.9611,35.7687
Z" /> 
<path style="fill:#000000; fill-opacity:1.0000; 
stroke:#000000; stroke-width:0.1200; stroke-opacity:1; 
stroke-linecap:round; stroke-linejoin:round;fill-rule:evenodd;"
d="M 119.7079,57.2000
120.8985,58.3906
120.8985,60.7719
119.7079,60.7719
118.5172,61.9625
118.5172,62.5578
117.3266,63.1531
114.9454,63.1531
112.5641,64.3437
110.1829,63.1531
107.8016,63.1531
106.6110,62.5578
106.6110,61.9625
105.4204,60.7719
104.2297,60.7719
104.2297,58.3906
105.4204,57.2000
105.4204,54.8187
119.7079,54.8187
Z" /> 
<path style="fill:#000000; fill-opacity:1.0000; 
stroke:#000000; stroke-width:0.1200; stroke-opacity:1; 
stroke-linecap:round; stroke-linejoin:round;fill-rule:evenodd;"
d="M 316.1612,27.4343
317.3518,28.6250
317.3518,31.0062
316.1612,31.0062
314.9706,32.1968
314.9706,32.7922
313.7799,33.3875
311.3987,33.3875
309.0174,34.5781
306.6362,33.3875
304.2549,33.3875
303.0643,32.7922
303.0643,32.1968
301.8737,31.0062
300.6831,31.0062
300.6831,28.6250
301.8737,27.4343
301.8737,25.0531
316.1612,25.0531
Z" /> 
<path style="fill:#000000; fill-opacity:1.0000; 
stroke:#000000; stroke-width:0.1200; stroke-opacity:1; 
stroke-linecap:round; stroke-linejoin:round;fill-rule:evenodd;"
d="M 81.6079,47.6750
82.7985,48.8656
82.7985,51.2469
81.6079,51.2469
80.4172,52.4375
80.4172,53.0328
79.2266,53.6281
76.8454,53.6281
74.4641,54.8187
72.0829,53.6281
69.7016,53.6281
68.5110,53.0328
68.5110,52.4375
67.3204,51.2469
66.1298,51.2469
66.1298,48.8656
67.3204,47.6750
67.3204,45.2937
81.6079,45.2937
Z" /> 
<path style="fill:#000000; fill-opacity:1.0000; 
stroke:#000000; stroke-width:0.1200; stroke-opacity:1; 
stroke-linecap:round; stroke-linejoin:round;fill-rule:evenodd;"
d="M 297.1111,34.5781
298.3018,35.7687
298.3018,38.1500
297.1111,38.1500
295.9205,39.3406
295.9205,39.9359
294.7299,40.5312
292.3486,40.5312
289.9674,41.7218
287.5861,40.5312
285.2049,40.5312
284.0143,39.9359
284.0143,39.3406
282.8236,38.1500
281.6330,38.1500
281.6330,35.7687
282.8236,34.5781
282.8236,32.1968
297.1111,32.1968
Z" /> 
<path style="fill:#000000; fill-opacity:1.0000; 
stroke:#000000; stroke-width:0.1200; stroke-opacity:1; 
stroke-linecap:round; stroke-linejoin:round;fill-rule:evenodd;"
d="M 249.4861,76.2501
250.6767,77.4408
250.6767,79.8220
249.4861,79.8220
248.2955,81.0126
248.2955,81.6079
247.1049,82.2033
244.7236,82.2033
242.3424,83.3939
239.9611,82.2033
237.5799,82.2033
236.3892,81.6079
236.3892,81.0126
235.1986,79.8220
234.0080,79.8220
234.0080,77.4408
235.1986,76.2501
235.1986,73.8689
249.4861,73.8689
Z" /> 
<path style="fill:#000000; fill-opacity:1.0000; 
stroke:#000000; stroke-width:0.1200; stroke-opacity:1; 
stroke-linecap:round; stroke-linejoin:round;fill-rule:evenodd;"
d="M 62.5579,53.6281
63.7485,54.8187
63.7485,57.2000
62.5579,57.2000
61.3672,58.3906
61.3672,58.9859
60.1766,59.5812
57.7954,59.5812
55.4141,60.7718
53.0329,59.5812
50.6516,59.5812
49.4610,58.9859
49.4610,58.3906
48.2704,57.2000
47.0797,57.2000
47.0797,54.8187
48.2704,53.6281
48.2704,51.2468
62.5579,51.2468
Z" /> 
<path style="fill:#000000; fill-opacity:1.0000; 
stroke:#000000; stroke-width:0.1200; stroke-opacity:1; 
stroke-linecap:round; stroke-linejoin:round;fill-rule:evenodd;"
d="M 278.0611,28.6250
279.2518,29.8156
279.2518,32.1969
278.0611,32.1969
276.8705,33.3875
276.8705,33.9828
275.6799,34.5781
273.2986,34.5781
270.9174,35.7687
268.5361,34.5781
266.1549,34.5781
264.9643,33.9828
264.9643,33.3875
263.7736,32.1969
262.5830,32.1969
262.5830,29.8156
263.7736,28.6250
263.7736,26.2437
278.0611,26.2437
Z" /> 
<path style="fill:#000000; fill-opacity:1.0000; 
stroke:#000000; stroke-width:0.1200; stroke-opacity:1; 
stroke-linecap:round; stroke-linejoin:round;fill-rule:evenodd;"
d="M 218.5299,36.9594
220.9111,36.9594
220.9111,51.2469
218.5299,51.2469
217.3392,52.4375
214.9580,52.4375
214.9580,51.2469
213.7674,50.0563
213.1720,50.0563
212.5767,48.8657
212.5767,46.4844
211.3861,44.1032
212.5767,41.7219
212.5767,39.3407
213.1720,38.1500
213.7674,38.1500
214.9580,36.9594
214.9580,35.7688
217.3392,35.7688
Z" /> 
<path style="fill:#000000; fill-opacity:1.0000; 
stroke:#000000; stroke-width:0.1200; stroke-opacity:1; 
stroke-linecap:round; stroke-linejoin:round;fill-rule:evenodd;"
d="M 278.0611,9.5750
279.2518,10.7656
279.2518,13.1468
278.0611,13.1468
276.8705,14.3375
276.8705,14.9328
275.6799,15.5281
273.2986,15.5281
270.9174,16.7187
268.5361,15.5281
266.1549,15.5281
264.9643,14.9328
264.9643,14.3375
263.7736,13.1468
262.5830,13.1468
262.5830,10.7656
263.7736,9.5750
263.7736,7.1937
278.0611,7.1937
Z" /> 
<path style="fill:#000000; fill-opacity:1.0000; 
stroke:#000000; stroke-width:0.1200; stroke-opacity:1; 
stroke-linecap:round; stroke-linejoin:round;fill-rule:evenodd;"
d="M 119.7079,19.1000
120.8985,20.2906
120.8985,22.6718
119.7079,22.6718
118.5173,23.8625
118.5173,24.4578
117.3267,25.0531
114.9454,25.0531
112.5642,26.2437
110.1829,25.0531
107.8017,25.0531
106.6110,24.4578
106.6110,23.8625
105.4204,22.6718
104.2298,22.6718
104.2298,20.2906
105.4204,19.1000
105.4204,16.7187
119.7079,16.7187
Z" /> 
<path style="fill:#000000; fill-opacity:1.0000; 
stroke:#000000; stroke-width:0.1200; stroke-opacity:1; 
stroke-linecap:round; stroke-linejoin:round;fill-rule:evenodd;"
d="M 130.4235,15.5281
131.6142,16.7188
132.2095,16.7188
132.8048,17.9094
132.8048,20.2906
133.9954,22.6719
132.8048,25.0531
132.8048,27.4344
132.2095,28.6250
131.6142,28.6250
130.4235,29.8156
130.4235,31.0063
128.0423,31.0063
126.8517,29.8156
124.4704,29.8156
124.4704,15.5281
126.8517,15.5281
128.0423,14.3375
130.4235,14.3375
Z" /> 
<path style="fill:#000000; fill-opacity:1.0000; 
stroke:#000000; stroke-width:0.1200; stroke-opacity:1; 
stroke-linecap:round; stroke-linejoin:round;fill-rule:evenodd;"
d="M 278.0611,47.6750
279.2518,48.8656
279.2518,51.2469
278.0611,51.2469
276.8705,52.4375
276.8705,53.0328
275.6799,53.6281
273.2986,53.6281
270.9174,54.8187
268.5361,53.6281
266.1549,53.6281
264.9643,53.0328
264.9643,52.4375
263.7736,51.2469
262.5830,51.2469
262.5830,48.8656
263.7736,47.6750
263.7736,45.2937
278.0611,45.2937
Z" /> 
<path style="fill:#000000; fill-opacity:1.0000; 
stroke:#000000; stroke-width:0.1200; stroke-opacity:1; 
stroke-linecap:round; stroke-linejoin:round;fill-rule:evenodd;"
d="M 239.9611,19.1000
241.1517,20.2906
241.1517,22.6718
239.9611,22.6718
238.7705,23.8625
238.7705,24.4578
237.5799,25.0531
235.1986,25.0531
232.8174,26.2437
230.4361,25.0531
228.0549,25.0531
226.8642,24.4578
226.8642,23.8625
225.6736,22.6718
224.4830,22.6718
224.4830,20.2906
225.6736,19.1000
225.6736,16.7187
239.9611,16.7187
Z" /> 
<path style="fill:#000000; fill-opacity:1.0000; 
stroke:#000000; stroke-width:0.1200; stroke-opacity:1; 
stroke-linecap:round; stroke-linejoin:round;fill-rule:evenodd;"
d="M 134.0382,67.0555
136.1004,68.2462
138.7579,68.4057
140.2248,70.6274
142.2871,71.8180
143.0205,72.9289
142.7229,73.4445
143.1587,75.0709
144.1898,75.6662
142.9991,77.7284
141.3727,78.1642
140.1821,80.2264
127.8088,73.0827
128.9994,71.0205
128.5636,69.3940
129.7542,67.3318
130.7853,67.9271
132.4117,67.4913
132.7094,66.9758
Z" /> 
<path style="fill:#000000; fill-opacity:1.0000; 
stroke:#000000; stroke-width:0.1200; stroke-opacity:1; 
stroke-linecap:round; stroke-linejoin:round;fill-rule:evenodd;"
d="M 186.4257,108.7587
188.0521,108.3229
190.1143,109.5136
189.5190,110.5447
189.9548,112.1711
190.4704,112.4688
190.3906,113.7975
189.2000,115.8598
189.0405,118.5173
186.8188,119.9842
185.6281,122.0464
184.5173,122.7799
184.0017,122.4822
182.3753,122.9180
181.7800,123.9491
179.7177,122.7585
179.2819,121.1321
177.2197,119.9415
184.3635,107.5681
Z" /> 
<path style="fill:#000000; fill-opacity:1.0000; 
stroke:#000000; stroke-width:0.1200; stroke-opacity:1; 
stroke-linecap:round; stroke-linejoin:round;fill-rule:evenodd;"
d="M 119.7079,38.1500
120.8985,39.3406
120.8985,41.7219
119.7079,41.7219
118.5172,42.9125
118.5172,43.5078
117.3266,44.1031
114.9454,44.1031
112.5641,45.2937
110.1829,44.1031
107.8016,44.1031
106.6110,43.5078
106.6110,42.9125
105.4204,41.7219
104.2297,41.7219
104.2297,39.3406
105.4204,38.1500
105.4204,35.7687
119.7079,35.7687
Z" /> 
<path style="fill:#000000; fill-opacity:1.0000; 
stroke:#000000; stroke-width:0.1200; stroke-opacity:1; 
stroke-linecap:round; stroke-linejoin:round;fill-rule:evenodd;"
d="M 62.5579,15.5281
63.7485,16.7187
63.7485,19.1000
62.5579,19.1000
61.3672,20.2906
61.3672,20.8859
60.1766,21.4812
57.7954,21.4812
55.4141,22.6718
53.0329,21.4812
50.6516,21.4812
49.4610,20.8859
49.4610,20.2906
48.2704,19.1000
47.0797,19.1000
47.0797,16.7187
48.2704,15.5281
48.2704,13.1468
62.5579,13.1468
Z" /> 
<path style="fill:#000000; fill-opacity:1.0000; 
stroke:#000000; stroke-width:0.1200; stroke-opacity:1; 
stroke-linecap:round; stroke-linejoin:round;fill-rule:evenodd;"
d="M 62.5579,72.6782
63.7485,73.8688
63.7485,76.2501
62.5579,76.2501
61.3672,77.4407
61.3672,78.0360
60.1766,78.6313
57.7954,78.6313
55.4141,79.8219
53.0329,78.6313
50.6516,78.6313
49.4610,78.0360
49.4610,77.4407
48.2704,76.2501
47.0797,76.2501
47.0797,73.8688
48.2704,72.6782
48.2704,70.2969
62.5579,70.2969
Z" /> 
<path style="fill:#000000; fill-opacity:1.0000; 
stroke:#000000; stroke-width:0.1200; stroke-opacity:1; 
stroke-linecap:round; stroke-linejoin:round;fill-rule:evenodd;"
d="M 20.3098,44.9678
22.6820,44.7602
23.9272,58.9934
21.5550,59.2009
20.4727,60.4908
18.1005,60.6983
17.9967,59.5122
16.7069,58.4299
16.1138,58.4818
15.4170,57.3476
15.2095,54.9754
13.8158,52.7070
14.7944,50.2310
14.5869,47.8588
15.0761,46.6208
15.6692,46.5690
16.7515,45.2791
16.6477,44.0930
19.0199,43.8855
Z" /> 
<path style="fill:#000000; fill-opacity:1.0000; 
stroke:#000000; stroke-width:0.1200; stroke-opacity:1; 
stroke-linecap:round; stroke-linejoin:round;fill-rule:evenodd;"
d="M 326.8768,65.5344
328.0674,66.7250
328.6627,66.7250
329.2580,67.9156
329.2580,70.2969
330.4486,72.6781
329.2580,75.0594
329.2580,77.4406
328.6627,78.6313
328.0674,78.6313
326.8768,79.8219
326.8768,81.0125
324.4955,81.0125
323.3049,79.8219
320.9236,79.8219
320.9236,65.5344
323.3049,65.5344
324.4955,64.3438
326.8768,64.3438
Z" /> 
<path style="fill:#000000; fill-opacity:1.0000; 
stroke:#000000; stroke-width:0.1200; stroke-opacity:1; 
stroke-linecap:round; stroke-linejoin:round;fill-rule:evenodd;"
d="M 130.4235,36.9594
131.6142,38.1500
132.2095,38.1500
132.8048,39.3407
132.8048,41.7219
133.9954,44.1032
132.8048,46.4844
132.8048,48.8657
132.2095,50.0563
131.6142,50.0563
130.4235,51.2469
130.4235,52.4375
128.0423,52.4375
126.8517,51.2469
124.4704,51.2469
124.4704,36.9594
126.8517,36.9594
128.0423,35.7688
130.4235,35.7688
Z" /> 
<path style="fill:#000000; fill-opacity:1.0000; 
stroke:#000000; stroke-width:0.1200; stroke-opacity:1; 
stroke-linecap:round; stroke-linejoin:round;fill-rule:evenodd;"
d="M 81.8414,79.2694
83.4678,79.7052
84.6585,81.7674
83.6274,82.3627
83.1916,83.9891
83.4892,84.5047
82.7558,85.6156
80.6935,86.8062
79.2266,89.0279
76.5691,89.1874
74.5069,90.3781
73.1781,90.4578
72.8804,89.9423
71.2540,89.5065
70.2229,90.1018
69.0323,88.0396
69.4681,86.4131
68.2775,84.3509
80.6508,77.2072
Z" /> 
<path style="fill:#000000; fill-opacity:1.0000; 
stroke:#000000; stroke-width:0.1200; stroke-opacity:1; 
stroke-linecap:round; stroke-linejoin:round;fill-rule:evenodd;"
d="M 328.7338,24.9102
328.6300,26.0963
329.7123,27.3862
330.3054,27.4380
330.7947,28.6760
330.5871,31.0482
331.5657,33.5242
330.1721,35.7926
329.9645,38.1648
329.2677,39.2990
328.6746,39.2471
327.3848,40.3294
327.2810,41.5155
324.9088,41.3080
323.8265,40.0181
321.4543,39.8106
322.6996,25.5774
325.0717,25.7850
326.3616,24.7027
Z" /> 
<path style="fill:#000000; fill-opacity:1.0000; 
stroke:#000000; stroke-width:0.1200; stroke-opacity:1; 
stroke-linecap:round; stroke-linejoin:round;fill-rule:evenodd;"
d="M 43.5079,46.4844
44.6985,47.6750
44.6985,50.0563
43.5079,50.0563
42.3173,51.2469
42.3173,51.8422
41.1266,52.4375
38.7454,52.4375
36.3641,53.6281
33.9829,52.4375
31.6016,52.4375
30.4110,51.8422
30.4110,51.2469
29.2204,50.0563
28.0297,50.0563
28.0297,47.6750
29.2204,46.4844
29.2204,44.1031
43.5079,44.1031
Z" /> 
<path style="fill:#000000; fill-opacity:1.0000; 
stroke:#000000; stroke-width:0.1200; stroke-opacity:1; 
stroke-linecap:round; stroke-linejoin:round;fill-rule:evenodd;"
d="M 259.0111,54.8188
260.2018,56.0094
260.2018,58.3907
259.0111,58.3907
257.8205,59.5813
257.8205,60.1766
256.6299,60.7719
254.2486,60.7719
251.8674,61.9625
249.4861,60.7719
247.1049,60.7719
245.9143,60.1766
245.9143,59.5813
244.7236,58.3907
243.5330,58.3907
243.5330,56.0094
244.7236,54.8188
244.7236,52.4375
259.0111,52.4375
Z" /> 
<path style="fill:#000000; fill-opacity:1.0000; 
stroke:#000000; stroke-width:0.1200; stroke-opacity:1; 
stroke-linecap:round; stroke-linejoin:round;fill-rule:evenodd;"
d="M 81.6079,28.6250
82.7985,29.8156
82.7985,32.1969
81.6079,32.1969
80.4172,33.3875
80.4172,33.9828
79.2266,34.5781
76.8454,34.5781
74.4641,35.7687
72.0829,34.5781
69.7016,34.5781
68.5110,33.9828
68.5110,33.3875
67.3204,32.1969
66.1298,32.1969
66.1298,29.8156
67.3204,28.6250
67.3204,26.2437
81.6079,26.2437
Z" /> 
<path style="fill:#000000; fill-opacity:1.0000; 
stroke:#000000; stroke-width:0.1200; stroke-opacity:1; 
stroke-linecap:round; stroke-linejoin:round;fill-rule:evenodd;"
d="M 100.6579,16.7187
101.8485,17.9093
101.8485,20.2906
100.6579,20.2906
99.4673,21.4812
99.4673,22.0765
98.2766,22.6718
95.8954,22.6718
93.5141,23.8625
91.1329,22.6718
88.7516,22.6718
87.5610,22.0765
87.5610,21.4812
86.3704,20.2906
85.1798,20.2906
85.1798,17.9093
86.3704,16.7187
86.3704,14.3375
100.6579,14.3375
Z" /> 
<path style="fill:#000000; fill-opacity:1.0000; 
stroke:#000000; stroke-width:0.1200; stroke-opacity:1; 
stroke-linecap:round; stroke-linejoin:round;fill-rule:evenodd;"
d="M 297.1111,53.6281
298.3018,54.8187
298.3018,57.2000
297.1111,57.2000
295.9205,58.3906
295.9205,58.9859
294.7299,59.5812
292.3486,59.5812
289.9674,60.7718
287.5861,59.5812
285.2049,59.5812
284.0143,58.9859
284.0143,58.3906
282.8236,57.2000
281.6330,57.2000
281.6330,54.8187
282.8236,53.6281
282.8236,51.2468
297.1111,51.2468
Z" /> 
<g >
</g>
<g >
</g>
<g >
</g>
<g >
</g>
<g >
</g>
<g >
</g>
<g >
</g>
<g >
</g>
<g >
</g>
<g >
</g>
<g >
</g>
<g >
</g>
<g >
</g>
<g >
</g>
<g >
</g>
<g >
</g>
<g >
</g>
<g >
</g>
<g >
</g>
<g >
</g>
<g >
</g>
<g >
</g>
<g >
</g>
<g >
</g>
<g >
</g>
<g >
</g>
<g >
</g>
<g >
</g>
<g >
</g>
<g >
</g>
<g >
</g>
<g >
</g>
<g >
</g>
<g >
</g>
<g >
</g>
<g >
</g>
<g >
</g>
<g >
</g>
<g >
</g>
<g >
</g>
<g >
</g>
<g >
</g>
<g >
</g>
<g >
</g>
<g >
</g>
<g >
</g>
<g >
</g>
<g >
</g>
<g >
</g>
<g >
</g>
<g >
</g>
<g >
</g>
<g >
</g>
<g >
</g>
<g >
</g>
<g >
</g>
<g >
</g>
<g >
</g>
<g >
</g>
<g >
</g>
<g >
</g>
<g >
</g>
<g >
</g>
<g >
</g>
<g >
</g>
<g >
</g>
<g >
</g>
<g >
</g>
<g >
</g>
<g >
</g>
<g >
</g>
<g >
</g>
<g >
</g>
<g >
</g>
<g >
</g>
<g >
</g>
<g >
</g>
<g >
</g>
<g >
</g>
<g >
</g>
<g >
</g>
<g >
</g>
<g >
</g>
<g >
</g>
<g >
</g>
<g >
</g>
<g >
</g>
<g >
</g>
<g >
</g>
<g >
</g>
<g >
</g>
<g >
</g>
<g >
</g>
<g >
</g>
<g >
</g>
<g >
</g>
<g >
</g>
<g >
</g>
<g >
</g>
<g >
</g>
<g >
</g>
<g >
</g>
<g >
</g>
<g >
</g>
<g >
</g>
<g >
</g>
<g >
</g>
<g >
</g>
<g >
</g>
<g >
</g>
<g >
</g>
<g >
</g>
</g> 
</svg>
