<?xml version="1.0" standalone="no"?>
 <!DOCTYPE svg PUBLIC "-//W3C//DTD SVG 1.1//EN" 
 "http://www.w3.org/Graphics/SVG/1.1/DTD/svg11.dtd"> 
<svg
  xmlns:svg="http://www.w3.org/2000/svg"
  xmlns="http://www.w3.org/2000/svg"
  xmlns:xlink="http://www.w3.org/1999/xlink"
  version="1.1"
  width="166.5224mm" height="126.8476mm" viewBox="0.0000 0.0000 166.5224 126.8476">
<title>SVG Image created as mykeeb_v7a5-plate-Edge_Cuts.svg date 2023/06/10 13:16:00 </title>
  <desc>Image generated by PCBNEW </desc>
<g style="fill:#000000; fill-opacity:1.0000;stroke:#000000; stroke-opacity:1.0000;
stroke-linecap:round; stroke-linejoin:round;"
 transform="translate(0 0) scale(1 1)">
</g>
<g style="fill:#000000; fill-opacity:0.0; 
stroke:#000000; stroke-width:0.0000; stroke-opacity:1; 
stroke-linecap:round; stroke-linejoin:round;">
</g>
<g style="fill:#000000; fill-opacity:0.0; 
stroke:#000000; stroke-width:0.1600; stroke-opacity:1; 
stroke-linecap:round; stroke-linejoin:round;">
<path d="M131.8186,102.7366 C137.1765,108.0945 140.7483,112.8570 147.2968,124.1679" />
<path d="M1.9950,75.0894 C1.9950,55.4441 0.2090,55.4441 0.2090,40.5613" />
<path d="M1.9950 75.0894 A3.5718 3.5718 0.0 0 0 5.5668 78.6613" />
</g>
<g style="fill:#000000; fill-opacity:0.0; 
stroke:#000000; stroke-width:0.0381; stroke-opacity:1; 
stroke-linecap:round; stroke-linejoin:round;">
<path d="M5.5668 78.6613
L7.9481 78.6613
" />
</g>
<g style="fill:#000000; fill-opacity:0.0; 
stroke:#000000; stroke-width:0.1000; stroke-opacity:1; 
stroke-linecap:round; stroke-linejoin:round;">
<path d="M3.7809 13.7722 A3.5719 3.5719 0.0 0 0 0.2090 17.3441" />
</g>
<g style="fill:#000000; fill-opacity:0.0; 
stroke:#000000; stroke-width:0.0381; stroke-opacity:1; 
stroke-linecap:round; stroke-linejoin:round;">
<path d="M31.7606 15.5581
L31.7606 3.6519
" />
<path d="M21.0450 19.1300
L28.1887 19.1300
" />
</g>
<g style="fill:#000000; fill-opacity:0.0; 
stroke:#000000; stroke-width:0.1000; stroke-opacity:1; 
stroke-linecap:round; stroke-linejoin:round;">
<path d="M12.7106 0.0800 A3.5719 3.5719 0.0 0 0 9.1387 3.6519" />
</g>
<g style="fill:#000000; fill-opacity:0.0; 
stroke:#000000; stroke-width:0.0381; stroke-opacity:1; 
stroke-linecap:round; stroke-linejoin:round;">
<circle cx="21.0450" cy="57.2300" r="1.1906" /> 
<circle cx="81.1716" cy="72.1129" r="1.1906" /> 
</g>
<g style="fill:#000000; fill-opacity:0.0; 
stroke:#000000; stroke-width:0.1000; stroke-opacity:1; 
stroke-linecap:round; stroke-linejoin:round;">
<path d="M9.1387 10.2003
L9.1387 3.6519
" />
</g>
<g style="fill:#000000; fill-opacity:0.0; 
stroke:#000000; stroke-width:0.1600; stroke-opacity:1; 
stroke-linecap:round; stroke-linejoin:round;">
<path d="M106.7700,10.7956 C114.5091,10.7956 114.5091,9.6050 121.6529,9.6050" />
</g>
<g style="fill:#000000; fill-opacity:0.0; 
stroke:#000000; stroke-width:0.0381; stroke-opacity:1; 
stroke-linecap:round; stroke-linejoin:round;">
<circle cx="59.1450" cy="20.3206" r="1.1906" /> 
<path d="M0.2090 17.3441
L0.2090 40.5613
" />
</g>
<g style="fill:#000000; fill-opacity:0.0; 
stroke:#000000; stroke-width:0.1600; stroke-opacity:1; 
stroke-linecap:round; stroke-linejoin:round;">
<path d="M135.3451,46.5144 C135.3451,57.8254 135.3451,57.8254 137.1310,59.0160" />
</g>
<g style="fill:#000000; fill-opacity:0.0; 
stroke:#000000; stroke-width:0.1000; stroke-opacity:1; 
stroke-linecap:round; stroke-linejoin:round;">
<path d="M28.1887 19.1300 A3.5719 3.5719 0.0 0 0 31.7606 15.5581" />
<path d="M84.7435 4.8425 A3.5719 3.5719 0.0 0 0 81.1716 1.2706" />
<path d="M121.6529 9.6050
L129.3919 9.6050
" />
</g>
<g style="fill:#000000; fill-opacity:0.0; 
stroke:#000000; stroke-width:0.1600; stroke-opacity:1; 
stroke-linecap:round; stroke-linejoin:round;">
<path d="M60.9309 85.2098
L66.7673 94.0230
" />
</g>
<g style="fill:#000000; fill-opacity:0.0; 
stroke:#000000; stroke-width:0.1000; stroke-opacity:1; 
stroke-linecap:round; stroke-linejoin:round;">
<path d="M17.4731 15.5581 A3.5719 3.5719 0.0 0 0 21.0450 19.1300" />
</g>
<g style="fill:#000000; fill-opacity:0.0; 
stroke:#000000; stroke-width:0.1600; stroke-opacity:1; 
stroke-linecap:round; stroke-linejoin:round;">
<path d="M106.7700,10.7956 C101.4122,10.7956 101.4122,8.4144 95.4591,8.4144" />
<path d="M151.4185 125.3803
L162.7295 119.1426
" />
</g>
<g style="fill:#000000; fill-opacity:0.0; 
stroke:#000000; stroke-width:0.0381; stroke-opacity:1; 
stroke-linecap:round; stroke-linejoin:round;">
<path d="M45.4528 0.0800
L35.3325 0.0800
" />
<circle cx="116.2951" cy="28.6550" r="1.1906" /> 
</g>
<g style="fill:#000000; fill-opacity:0.0; 
stroke:#000000; stroke-width:0.1000; stroke-opacity:1; 
stroke-linecap:round; stroke-linejoin:round;">
<path d="M17.4731 3.6519 A3.5719 3.5719 0.0 0 0 13.9012 0.0800" />
</g>
<g style="fill:#000000; fill-opacity:0.0; 
stroke:#000000; stroke-width:0.0381; stroke-opacity:1; 
stroke-linecap:round; stroke-linejoin:round;">
<path d="M17.4731 3.6519
L17.4731 15.5581
" />
</g>
<g style="fill:#000000; fill-opacity:0.0; 
stroke:#000000; stroke-width:0.1000; stroke-opacity:1; 
stroke-linecap:round; stroke-linejoin:round;">
<path d="M57.8376 83.4238
L43.0716 83.4238
" />
<path d="M88.3153 8.4144
L95.4591 8.4144
" />
<path d="M35.3325 0.0800 A3.5719 3.5719 0.0 0 0 31.7606 3.6519" />
</g>
<g style="fill:#000000; fill-opacity:0.0; 
stroke:#000000; stroke-width:0.1600; stroke-opacity:1; 
stroke-linecap:round; stroke-linejoin:round;">
<path d="M98.4819,86.9317 C86.5757,86.9317 83.5991,88.7176 71.6466,95.3301" />
</g>
<g style="fill:#000000; fill-opacity:0.0; 
stroke:#000000; stroke-width:0.1000; stroke-opacity:1; 
stroke-linecap:round; stroke-linejoin:round;">
<path d="M135.3451 13.1769 A3.5719 3.5719 0.0 0 0 131.7732 9.6050" />
</g>
<g style="fill:#000000; fill-opacity:0.0; 
stroke:#000000; stroke-width:0.0381; stroke-opacity:1; 
stroke-linecap:round; stroke-linejoin:round;">
<circle cx="7.9481" cy="17.3441" r="1.1906" /> 
<circle cx="157.9670" cy="97.7113" r="1.1906" /> 
</g>
<g style="fill:#000000; fill-opacity:0.0; 
stroke:#000000; stroke-width:0.1600; stroke-opacity:1; 
stroke-linecap:round; stroke-linejoin:round;">
<path d="M66.7673 94.0230 A3.5719 3.5719 0.0 0 0 71.6466 95.3301" />
</g>
<g style="fill:#000000; fill-opacity:0.0; 
stroke:#000000; stroke-width:0.1000; stroke-opacity:1; 
stroke-linecap:round; stroke-linejoin:round;">
<path d="M13.9012 0.0800
L12.7106 0.0800
" />
</g>
<g style="fill:#000000; fill-opacity:0.0; 
stroke:#000000; stroke-width:0.1600; stroke-opacity:1; 
stroke-linecap:round; stroke-linejoin:round;">
<path d="M7.9481,78.6613 C32.9512,78.6613 32.9512,83.4238 43.0716,83.4238" />
</g>
<g style="fill:#000000; fill-opacity:0.0; 
stroke:#000000; stroke-width:0.0381; stroke-opacity:1; 
stroke-linecap:round; stroke-linejoin:round;">
<circle cx="40.6903" cy="3.6519" r="1.1906" /> 
<path d="M129.3919 9.6050
L131.7732 9.6050
" />
</g>
<g style="fill:#000000; fill-opacity:0.0; 
stroke:#000000; stroke-width:0.1600; stroke-opacity:1; 
stroke-linecap:round; stroke-linejoin:round;">
<path d="M165.7060 84.0191 A3.9506 3.9506 0.0 0 0 164.6014 81.2792" />
</g>
<g style="fill:#000000; fill-opacity:0.0; 
stroke:#000000; stroke-width:0.0381; stroke-opacity:1; 
stroke-linecap:round; stroke-linejoin:round;">
<path d="M164.7952 115.9038
L165.7060 84.0191
" />
<circle cx="119.8669" cy="56.0394" r="1.1906" /> 
</g>
<g style="fill:#000000; fill-opacity:0.0; 
stroke:#000000; stroke-width:0.1600; stroke-opacity:1; 
stroke-linecap:round; stroke-linejoin:round;">
<path d="M118.0810,91.7582 C125.8201,96.5207 127.0561,97.9741 131.8186,102.7366" />
<path d="M98.4819,86.9317 C109.1513,86.9957 113.3647,88.7176 118.0810,91.7582" />
</g>
<g style="fill:#000000; fill-opacity:0.0; 
stroke:#000000; stroke-width:0.0381; stroke-opacity:1; 
stroke-linecap:round; stroke-linejoin:round;">
<path d="M3.7809 13.7722
L5.5668 13.7722
" />
</g>
<g style="fill:#000000; fill-opacity:0.0; 
stroke:#000000; stroke-width:0.1600; stroke-opacity:1; 
stroke-linecap:round; stroke-linejoin:round;">
<path d="M60.9309 85.2098 A3.5720 3.5720 0.0 0 0 57.8376 83.4238" />
</g>
<g style="fill:#000000; fill-opacity:0.0; 
stroke:#000000; stroke-width:0.0381; stroke-opacity:1; 
stroke-linecap:round; stroke-linejoin:round;">
<circle cx="113.3185" cy="72.1129" r="1.1906" /> 
</g>
<g style="fill:#000000; fill-opacity:0.0; 
stroke:#000000; stroke-width:0.1000; stroke-opacity:1; 
stroke-linecap:round; stroke-linejoin:round;">
<path d="M84.7434 4.8425 A3.5718 3.5718 0.0 0 0 88.3153 8.4144" />
</g>
<g style="fill:#000000; fill-opacity:0.0; 
stroke:#000000; stroke-width:0.1600; stroke-opacity:1; 
stroke-linecap:round; stroke-linejoin:round;">
<path d="M162.7295 119.1426 A3.5719 3.5719 0.0 0 0 164.7952 115.9038" />
</g>
<g style="fill:#000000; fill-opacity:0.0; 
stroke:#000000; stroke-width:0.0381; stroke-opacity:1; 
stroke-linecap:round; stroke-linejoin:round;">
<circle cx="37.7137" cy="77.4707" r="1.1906" /> 
</g>
<g style="fill:#000000; fill-opacity:0.0; 
stroke:#000000; stroke-width:0.1600; stroke-opacity:1; 
stroke-linecap:round; stroke-linejoin:round;">
<path d="M147.2968 124.1679 A2.8919 2.8919 0.0 0 0 151.4185 125.3803" />
<path d="M81.1716,1.2706 C58.5497,1.2706 58.5497,0.0800 45.4528,0.0800" />
<path d="M137.1310,59.0160 C154.4970,68.3647 155.6876,72.5319 164.6014,81.2792" />
</g>
<g style="fill:#000000; fill-opacity:0.0; 
stroke:#000000; stroke-width:0.0381; stroke-opacity:1; 
stroke-linecap:round; stroke-linejoin:round;">
<circle cx="21.0450" cy="38.1800" r="1.1906" /> 
<path style="fill:#000000; fill-opacity:0.0; 
stroke:#000000; stroke-width:0.0381; stroke-opacity:1; 
stroke-linecap:round; stroke-linejoin:round;fill:none"
d="M 35.9278,9.6050
39.4997,9.6050
39.4997,16.1535
35.9278,16.1535
Z" /> 
<circle cx="137.1310" cy="81.6379" r="1.1906" /> 
</g>
<g style="fill:#000000; fill-opacity:0.0; 
stroke:#000000; stroke-width:0.1000; stroke-opacity:1; 
stroke-linecap:round; stroke-linejoin:round;">
<path d="M5.5668 13.7722 A3.5719 3.5719 0.0 0 0 9.1387 10.2003" />
<path d="M135.3451 46.5144
L135.3451 13.1769
" />
</g>
<g style="fill:#000000; fill-opacity:0.0; 
stroke:#000000; stroke-width:0.0381; stroke-opacity:1; 
stroke-linecap:round; stroke-linejoin:round;">
<circle cx="81.1716" cy="4.8425" r="1.1906" /> 
</g>
<g style="fill:#000000; fill-opacity:0.0; 
stroke:#000000; stroke-width:0.1200; stroke-opacity:1; 
stroke-linecap:round; stroke-linejoin:round;">
<path d="M119.6860 73.8616
L112.6860 85.9860
" />
<path d="M112.6860 85.9860
L124.8104 92.9860
" />
<path d="M131.8104 80.8616
L119.6860 73.8616
" />
<path d="M124.8104 92.9860
L131.8104 80.8616
" />
<path d="M16.7572 22.1913
L2.8105 23.4115
" />
<path d="M2.8105 23.4115
L4.0306 37.3582
" />
<path d="M17.9774 36.1380
L16.7572 22.1913
" />
<path d="M4.0306 37.3582
L17.9774 36.1380
" />
<path d="M42.6200 28.7987
L42.6200 42.7987
" />
<path d="M42.6200 42.7987
L56.6200 42.7987
" />
<path d="M56.6200 28.7987
L42.6200 28.7987
" />
<path d="M56.6200 42.7987
L56.6200 28.7987
" />
<path d="M23.5700 59.7550
L23.5700 73.7550
" />
<path d="M23.5700 73.7550
L37.5700 73.7550
" />
<path d="M37.5700 59.7550
L23.5700 59.7550
" />
<path d="M37.5700 73.7550
L37.5700 59.7550
" />
<path d="M80.7200 29.9894
L80.7200 43.9894
" />
<path d="M80.7200 43.9894
L94.7200 43.9894
" />
<path d="M94.7200 29.9894
L80.7200 29.9894
" />
<path d="M94.7200 43.9894
L94.7200 29.9894
" />
<path d="M61.6700 3.7956
L61.6700 17.7956
" />
<path d="M61.6700 17.7956
L75.6700 17.7956
" />
<path d="M75.6700 3.7956
L61.6700 3.7956
" />
<path d="M75.6700 17.7956
L75.6700 3.7956
" />
<path d="M18.5200 62.1362
L4.5200 62.1362
" />
<path d="M4.5200 62.1362
L4.5200 76.1362
" />
<path d="M18.5200 76.1362
L18.5200 62.1362
" />
<path d="M4.5200 76.1362
L18.5200 76.1362
" />
<path d="M90.2450 70.4707
L90.2450 84.4707
" />
<path d="M90.2450 84.4707
L104.2450 84.4707
" />
<path d="M104.2450 70.4707
L90.2450 70.4707
" />
<path d="M104.2450 84.4707
L104.2450 70.4707
" />
<path d="M139.5123 86.6212
L129.6128 96.5207
" />
<path d="M129.6128 96.5207
L139.5123 106.4202
" />
<path d="M149.4118 96.5207
L139.5123 86.6212
" />
<path d="M139.5123 106.4202
L149.4118 96.5207
" />
<path d="M23.5700 21.6550
L23.5700 35.6550
" />
<path d="M23.5700 35.6550
L37.5700 35.6550
" />
<path d="M37.5700 21.6550
L23.5700 21.6550
" />
<path d="M37.5700 35.6550
L37.5700 21.6550
" />
<path d="M155.1713 104.2226
L143.0470 111.2226
" />
<path d="M143.0470 111.2226
L150.0470 123.3470
" />
<path d="M162.1713 116.3470
L155.1713 104.2226
" />
<path d="M150.0470 123.3470
L162.1713 116.3470
" />
<path d="M152.9827 92.9498
L162.8822 83.0503
" />
<path d="M162.8822 83.0503
L152.9827 73.1508
" />
<path d="M143.0832 83.0503
L152.9827 92.9498
" />
<path d="M152.9827 73.1508
L143.0832 83.0503
" />
<path d="M80.7200 49.0394
L80.7200 63.0394
" />
<path d="M80.7200 63.0394
L94.7200 63.0394
" />
<path d="M94.7200 49.0394
L80.7200 49.0394
" />
<path d="M94.7200 63.0394
L94.7200 49.0394
" />
<path d="M99.7700 51.4206
L99.7700 65.4206
" />
<path d="M99.7700 65.4206
L113.7700 65.4206
" />
<path d="M113.7700 51.4206
L99.7700 51.4206
" />
<path d="M113.7700 65.4206
L113.7700 51.4206
" />
<path d="M61.6700 41.8956
L61.6700 55.8956
" />
<path d="M61.6700 55.8956
L75.6700 55.8956
" />
<path d="M75.6700 41.8956
L61.6700 41.8956
" />
<path d="M75.6700 55.8956
L75.6700 41.8956
" />
<path d="M42.6200 47.8487
L42.6200 61.8487
" />
<path d="M42.6200 61.8487
L56.6200 61.8487
" />
<path d="M56.6200 47.8487
L42.6200 47.8487
" />
<path d="M56.6200 61.8487
L56.6200 47.8487
" />
<path d="M99.7700 13.3206
L99.7700 27.3206
" />
<path d="M99.7700 27.3206
L113.7700 27.3206
" />
<path d="M113.7700 13.3206
L99.7700 13.3206
" />
<path d="M113.7700 27.3206
L113.7700 13.3206
" />
<path d="M118.8201 26.1300
L132.8201 26.1300
" />
<path d="M132.8201 26.1300
L132.8201 12.1300
" />
<path d="M118.8201 12.1300
L118.8201 26.1300
" />
<path d="M132.8201 12.1300
L118.8201 12.1300
" />
<path d="M134.3354 76.4882
L141.3354 64.3638
" />
<path d="M141.3354 64.3638
L129.2110 57.3638
" />
<path d="M122.2110 69.4882
L134.3354 76.4882
" />
<path d="M129.2110 57.3638
L122.2110 69.4882
" />
<path d="M99.7700 32.3706
L99.7700 46.3706
" />
<path d="M99.7700 46.3706
L113.7700 46.3706
" />
<path d="M113.7700 32.3706
L99.7700 32.3706
" />
<path d="M113.7700 46.3706
L113.7700 32.3706
" />
<path d="M42.6200 9.7487
L42.6200 23.7487
" />
<path d="M42.6200 23.7487
L56.6200 23.7487
" />
<path d="M56.6200 9.7487
L42.6200 9.7487
" />
<path d="M56.6200 23.7487
L56.6200 9.7487
" />
<path d="M42.6200 66.8988
L42.6200 80.8988
" />
<path d="M42.6200 80.8988
L56.6200 80.8988
" />
<path d="M56.6200 66.8988
L42.6200 66.8988
" />
<path d="M56.6200 80.8988
L56.6200 66.8988
" />
<path d="M16.7572 41.3741
L2.8105 42.5943
" />
<path d="M2.8105 42.5943
L4.0306 56.5410
" />
<path d="M17.9774 55.3208
L16.7572 41.3741
" />
<path d="M4.0306 56.5410
L17.9774 55.3208
" />
<path d="M118.8201 47.5613
L132.8201 47.5613
" />
<path d="M132.8201 47.5613
L132.8201 33.5613
" />
<path d="M118.8201 33.5613
L118.8201 47.5613
" />
<path d="M132.8201 33.5613
L118.8201 33.5613
" />
<path d="M62.6797 80.8616
L69.6797 92.9860
" />
<path d="M69.6797 92.9860
L81.8041 85.9860
" />
<path d="M74.8041 73.8616
L62.6797 80.8616
" />
<path d="M81.8041 85.9860
L74.8041 73.8616
" />
<path d="M23.5700 40.7050
L23.5700 54.7050
" />
<path d="M23.5700 54.7050
L37.5700 54.7050
" />
<path d="M37.5700 40.7050
L23.5700 40.7050
" />
<path d="M37.5700 54.7050
L37.5700 40.7050
" />
<path d="M61.6700 22.8456
L61.6700 36.8456
" />
<path d="M61.6700 36.8456
L75.6700 36.8456
" />
<path d="M75.6700 22.8456
L61.6700 22.8456
" />
<path d="M75.6700 36.8456
L75.6700 22.8456
" />
<path d="M80.7200 10.9393
L80.7200 24.9393
" />
<path d="M80.7200 24.9393
L94.7200 24.9393
" />
<path d="M94.7200 10.9393
L80.7200 10.9393
" />
<path d="M94.7200 24.9393
L94.7200 10.9393
" />
<g >
</g>
<g >
</g>
<g >
</g>
<g >
</g>
<g >
</g>
<g >
</g>
<g >
</g>
<g >
</g>
<g >
</g>
<g >
</g>
<g >
</g>
<g >
</g>
<g >
</g>
<g >
</g>
<g >
</g>
<g >
</g>
<g >
</g>
<g >
</g>
<g >
</g>
<g >
</g>
<g >
</g>
<g >
</g>
<g >
</g>
<g >
</g>
<g >
</g>
<g >
</g>
<g >
</g>
<g >
</g>
<g >
</g>
<g >
</g>
<g >
</g>
</g> 
</svg>
