<?xml version="1.0" standalone="no"?>
 <!DOCTYPE svg PUBLIC "-//W3C//DTD SVG 1.1//EN" 
 "http://www.w3.org/Graphics/SVG/1.1/DTD/svg11.dtd"> 
<svg
  xmlns:svg="http://www.w3.org/2000/svg"
  xmlns="http://www.w3.org/2000/svg"
  xmlns:xlink="http://www.w3.org/1999/xlink"
  version="1.1"
  width="339.5726mm" height="131.0640mm" viewBox="0.0000 0.0000 339.5726 131.0640">
<title>SVG Image created as mykeeb_v7a5-User_6.svg date 2023/06/11 21:21:11 </title>
  <desc>Image generated by PCBNEW </desc>
<g style="fill:#000000; fill-opacity:1.0000;stroke:#000000; stroke-opacity:1.0000;
stroke-linecap:round; stroke-linejoin:round;"
 transform="translate(0 0) scale(1 1)">
</g>
<g style="fill:#000000; fill-opacity:0.0; 
stroke:#000000; stroke-width:0.0000; stroke-opacity:1; 
stroke-linecap:round; stroke-linejoin:round;">
</g>
<g style="fill:#000000; fill-opacity:0.0; 
stroke:#000000; stroke-width:0.1000; stroke-opacity:1; 
stroke-linecap:round; stroke-linejoin:round;">
<path style="fill:#000000; fill-opacity:0.0; 
stroke:#000000; stroke-width:0.1000; stroke-opacity:1; 
stroke-linecap:round; stroke-linejoin:round;fill:none"
d="M 81.6079,59.5813
81.7949,59.5837
82.1670,59.6229
82.5330,59.7006
82.8888,59.8163
83.2306,59.9684
83.5546,60.1555
83.8573,60.3754
84.1353,60.6258
84.3856,60.9038
84.6055,61.2065
84.7926,61.5305
84.9448,61.8723
85.0604,62.2281
85.1382,62.5940
85.1773,62.9661
85.1798,63.1532
85.1822,63.3402
85.2213,63.7123
85.2991,64.0783
85.4147,64.4341
85.5669,64.7759
85.7540,65.0999
85.9739,65.4026
86.2242,65.6806
86.5022,65.9310
86.8049,66.1509
87.1289,66.3379
87.4707,66.4901
87.8265,66.6057
88.1925,66.6835
88.5646,66.7226
88.7516,66.7251
94.1095,66.7251
94.2965,66.7275
94.6686,66.7666
95.0346,66.8444
95.3904,66.9600
95.7322,67.1122
96.0562,67.2993
96.3589,67.5192
96.6369,67.7695
96.8872,68.0475
97.1072,68.3502
97.2942,68.6742
97.4464,69.0160
97.5620,69.3718
97.6398,69.7378
97.6789,70.1099
97.6813,70.2969
97.6789,70.4840
97.6398,70.8561
97.5620,71.2220
97.4464,71.5779
97.2942,71.9196
97.1071,72.2437
96.8872,72.5463
96.6369,72.8244
96.3589,73.0747
96.0562,73.2946
95.7322,73.4817
95.3904,73.6339
95.0346,73.7495
94.6686,73.8273
94.2965,73.8664
94.1095,73.8688
67.9157,73.8688
67.7286,73.8665
67.3565,73.8273
66.9906,73.7496
66.6347,73.6339
66.2929,73.4818
65.9689,73.2947
65.6662,73.0748
65.3882,72.8244
65.1378,72.5464
64.9179,72.2437
64.7308,71.9197
64.5787,71.5779
64.4631,71.2221
64.3853,70.8561
64.3462,70.4840
64.3438,70.2969
64.3438,63.1532
64.3462,62.9661
64.3853,62.5940
64.4631,62.2281
64.5787,61.8722
64.7309,61.5304
64.9179,61.2064
65.1378,60.9037
65.3882,60.6257
65.6662,60.3754
65.9689,60.1554
66.2929,59.9684
66.6347,59.8162
66.9906,59.7006
67.3565,59.6228
67.7286,59.5837
67.9157,59.5813
Z" /> 
<path style="fill:#000000; fill-opacity:0.0; 
stroke:#000000; stroke-width:0.1000; stroke-opacity:1; 
stroke-linecap:round; stroke-linejoin:round;fill:none"
d="M 0.0500,125.0657
7.7891,125.0657
7.7891,131.0189
0.0500,131.0189
Z" /> 
<path style="fill:#000000; fill-opacity:0.0; 
stroke:#000000; stroke-width:0.1000; stroke-opacity:1; 
stroke-linecap:round; stroke-linejoin:round;fill:none"
d="M 167.9283,0.0500
175.6673,0.0500
175.6673,6.0031
167.9283,6.0031
Z" /> 
<g >
</g>
<g >
</g>
<g >
</g>
<g >
</g>
<g >
</g>
<g >
</g>
<g >
</g>
<g >
</g>
<g >
</g>
<g >
</g>
<g >
</g>
<g >
</g>
<g >
</g>
<g >
</g>
<g >
</g>
<g >
</g>
<g >
</g>
<g >
</g>
<g >
</g>
<g >
</g>
<g >
</g>
<g >
</g>
<g >
</g>
<g >
</g>
<g >
</g>
<g >
</g>
<g >
</g>
<g >
</g>
<g >
</g>
<g >
</g>
<g >
</g>
<g >
</g>
<g >
</g>
<g >
</g>
<g >
</g>
<g >
</g>
<g >
</g>
<g >
</g>
<g >
</g>
<g >
</g>
<g >
</g>
<g >
</g>
<g >
</g>
<g >
</g>
<g >
</g>
<g >
</g>
<g >
</g>
<g >
</g>
<g >
</g>
<g >
</g>
<g >
</g>
<g >
</g>
<g >
</g>
<g >
</g>
<g >
</g>
<g >
</g>
<g >
</g>
<g >
</g>
<g >
</g>
<g >
</g>
<g >
</g>
<g >
</g>
<g >
</g>
<g >
</g>
<g >
</g>
<g >
</g>
<g >
</g>
<g >
</g>
<g >
</g>
<g >
</g>
<g >
</g>
<g >
</g>
<g >
</g>
<g >
</g>
<g >
</g>
<g >
</g>
<g >
</g>
<g >
</g>
<g >
</g>
<g >
</g>
<g >
</g>
<g >
</g>
<g >
</g>
<g >
</g>
<g >
</g>
<g >
</g>
<g >
</g>
<g >
</g>
<g >
</g>
<g >
</g>
<g >
</g>
<g >
</g>
<g >
</g>
<g >
</g>
<g >
</g>
<g >
</g>
<g >
</g>
<g >
</g>
<g >
</g>
<g >
</g>
<g >
</g>
<g >
</g>
<g >
</g>
<g >
</g>
<g >
</g>
<g >
</g>
<g >
</g>
<g >
</g>
<g >
</g>
<g >
</g>
<g >
</g>
<g >
</g>
</g> 
</svg>
