<?xml version="1.0" standalone="no"?>
 <!DOCTYPE svg PUBLIC "-//W3C//DTD SVG 1.1//EN" 
 "http://www.w3.org/Graphics/SVG/1.1/DTD/svg11.dtd"> 
<svg
  xmlns:svg="http://www.w3.org/2000/svg"
  xmlns="http://www.w3.org/2000/svg"
  xmlns:xlink="http://www.w3.org/1999/xlink"
  version="1.1"
  width="339.9536mm" height="134.6200mm" viewBox="0.0000 0.0000 339.9536 134.6200">
<title>SVG Image created as mykeeb_v7a5-User_1.svg date 2023/06/10 20:45:29 </title>
  <desc>Image generated by PCBNEW </desc>
<g style="fill:#000000; fill-opacity:1.0000;stroke:#000000; stroke-opacity:1.0000;
stroke-linecap:round; stroke-linejoin:round;"
 transform="translate(0 0) scale(1 1)">
</g>
<g style="fill:#000000; fill-opacity:0.0; 
stroke:#000000; stroke-width:0.0000; stroke-opacity:1; 
stroke-linecap:round; stroke-linejoin:round;">
</g>
<g style="fill:#000000; fill-opacity:0.0; 
stroke:#000000; stroke-width:0.1000; stroke-opacity:1; 
stroke-linecap:round; stroke-linejoin:round;">
<path style="fill:#000000; fill-opacity:0.0; 
stroke:#000000; stroke-width:0.1000; stroke-opacity:1; 
stroke-linecap:round; stroke-linejoin:round;fill:none"
d="M 144.8044,105.7181
141.4368,109.0857
139.7530,107.4019
143.1206,104.0343
Z" /> 
<path style="fill:#000000; fill-opacity:0.0; 
stroke:#000000; stroke-width:0.1000; stroke-opacity:1; 
stroke-linecap:round; stroke-linejoin:round;fill:none"
d="M 128.3884,92.2717
126.0071,96.3962
123.9449,95.2055
126.3261,91.0811
Z" /> 
<path style="fill:#000000; fill-opacity:0.0; 
stroke:#000000; stroke-width:0.1000; stroke-opacity:1; 
stroke-linecap:round; stroke-linejoin:round;fill:none"
d="M 133.9954,61.9626
137.5673,61.9626
137.5673,64.9391
133.9954,64.9391
Z" /> 
<path style="fill:#000000; fill-opacity:0.0; 
stroke:#000000; stroke-width:0.1000; stroke-opacity:1; 
stroke-linecap:round; stroke-linejoin:round;fill:none"
d="M 133.4001,46.4844
137.5673,46.4844
137.5673,48.8657
133.4001,48.8657
Z" /> 
<path style="fill:#000000; fill-opacity:0.0; 
stroke:#000000; stroke-width:0.1000; stroke-opacity:1; 
stroke-linecap:round; stroke-linejoin:round;fill:none"
d="M 111.3735,29.2203
113.7548,29.2203
113.7548,33.3875
111.3735,33.3875
Z" /> 
<path style="fill:#000000; fill-opacity:0.0; 
stroke:#000000; stroke-width:0.1000; stroke-opacity:1; 
stroke-linecap:round; stroke-linejoin:round;fill:none"
d="M 111.3735,48.2704
113.7548,48.2704
113.7548,52.4375
111.3735,52.4375
Z" /> 
<path style="fill:#000000; fill-opacity:0.0; 
stroke:#000000; stroke-width:0.1000; stroke-opacity:1; 
stroke-linecap:round; stroke-linejoin:round;fill:none"
d="M 111.3735,67.3204
113.7548,67.3204
113.7548,71.4876
111.3735,71.4876
Z" /> 
<path style="fill:#000000; fill-opacity:0.0; 
stroke:#000000; stroke-width:0.1000; stroke-opacity:1; 
stroke-linecap:round; stroke-linejoin:round;fill:none"
d="M 73.2735,19.6953
75.6548,19.6953
75.6548,23.8625
73.2735,23.8625
Z" /> 
<path style="fill:#000000; fill-opacity:0.0; 
stroke:#000000; stroke-width:0.1000; stroke-opacity:1; 
stroke-linecap:round; stroke-linejoin:round;fill:none"
d="M 73.2735,38.7453
75.6548,38.7453
75.6548,42.9125
73.2735,42.9125
Z" /> 
<path style="fill:#000000; fill-opacity:0.0; 
stroke:#000000; stroke-width:0.1000; stroke-opacity:1; 
stroke-linecap:round; stroke-linejoin:round;fill:none"
d="M 73.2735,57.7954
75.6548,57.7954
75.6548,63.1532
73.2735,63.1532
Z" /> 
<path style="fill:#000000; fill-opacity:0.0; 
stroke:#000000; stroke-width:0.1000; stroke-opacity:1; 
stroke-linecap:round; stroke-linejoin:round;fill:none"
d="M 76.8454,92.3235
79.2266,92.3235
79.2266,96.4907
76.8454,96.4907
Z" /> 
<path style="fill:#000000; fill-opacity:0.0; 
stroke:#000000; stroke-width:0.1000; stroke-opacity:1; 
stroke-linecap:round; stroke-linejoin:round;fill:none"
d="M 35.1735,75.6548
37.5547,75.6548
37.5547,79.8219
35.1735,79.8219
Z" /> 
<path style="fill:#000000; fill-opacity:0.0; 
stroke:#000000; stroke-width:0.1000; stroke-opacity:1; 
stroke-linecap:round; stroke-linejoin:round;fill:none"
d="M 35.1735,56.6047
37.5547,56.6047
37.5547,60.7719
35.1735,60.7719
Z" /> 
<path style="fill:#000000; fill-opacity:0.0; 
stroke:#000000; stroke-width:0.1000; stroke-opacity:1; 
stroke-linecap:round; stroke-linejoin:round;fill:none"
d="M 35.1735,37.5547
37.5547,37.5547
37.5547,41.7219
35.1735,41.7219
Z" /> 
<path style="fill:#000000; fill-opacity:0.0; 
stroke:#000000; stroke-width:0.1000; stroke-opacity:1; 
stroke-linecap:round; stroke-linejoin:round;fill:none"
d="M 29.2203,20.8860
31.6016,20.8860
31.6016,25.6485
29.2203,25.6485
Z" /> 
</g>
<g style="fill:#000000; fill-opacity:1.0000; 
stroke:#000000; stroke-width:0.1000; stroke-opacity:1; 
stroke-linecap:round; stroke-linejoin:round;">
<path style="fill:#000000; fill-opacity:1.0000; 
stroke:#000000; stroke-width:0.1000; stroke-opacity:1; 
stroke-linecap:round; stroke-linejoin:round;fill-rule:evenodd;"
d="M 33.3875,14.3375
33.3875,20.2906
32.1969,20.8860
28.6250,20.8860
27.4344,20.2906
27.4344,14.3375
28.6250,13.7422
32.1969,13.7422
Z" /> 
<path style="fill:#000000; fill-opacity:1.0000; 
stroke:#000000; stroke-width:0.1000; stroke-opacity:1; 
stroke-linecap:round; stroke-linejoin:round;fill-rule:evenodd;"
d="M 73.2735,79.8219
73.2735,82.7985
70.8922,85.1798
60.1766,85.1798
60.1766,77.4407
70.8922,77.4407
Z" /> 
</g>
<g style="fill:#000000; fill-opacity:0.0; 
stroke:#000000; stroke-width:0.1000; stroke-opacity:1; 
stroke-linecap:round; stroke-linejoin:round;">
<path style="fill:#000000; fill-opacity:0.0; 
stroke:#000000; stroke-width:0.1000; stroke-opacity:1; 
stroke-linecap:round; stroke-linejoin:round;fill:none"
d="M 167.9283,3.6219
175.6673,3.6219
175.6673,9.5750
167.9283,9.5750
Z" /> 
<path style="fill:#000000; fill-opacity:0.0; 
stroke:#000000; stroke-width:0.1000; stroke-opacity:1; 
stroke-linecap:round; stroke-linejoin:round;fill:none"
d="M 0.0500,128.6376
7.7891,128.6376
7.7891,134.5907
0.0500,134.5907
Z" /> 
<path style="fill:#000000; fill-opacity:0.0; 
stroke:#000000; stroke-width:0.1000; stroke-opacity:1; 
stroke-linecap:round; stroke-linejoin:round;fill:none"
d="M 60.1766,77.4407
73.2735,77.4407
73.2735,85.1798
60.1766,85.1798
Z" /> 
</g>
<g style="fill:#000000; fill-opacity:1.0000; 
stroke:#000000; stroke-width:0.1000; stroke-opacity:1; 
stroke-linecap:round; stroke-linejoin:round;">
<path style="fill:#000000; fill-opacity:1.0000; 
stroke:#000000; stroke-width:0.1000; stroke-opacity:1; 
stroke-linecap:round; stroke-linejoin:round;fill-rule:evenodd;"
d="M 106.6110,91.7282
105.4204,92.9188
100.6579,92.9188
99.4673,91.7282
99.4673,88.1563
106.6110,88.1563
Z" /> 
</g>
<g style="fill:#000000; fill-opacity:1.0000; 
stroke:#000000; stroke-width:0.0000; stroke-opacity:1; 
stroke-linecap:round; stroke-linejoin:round;">
<circle cx="17.9094" cy="11.0609" r="1.3812" /> 
<circle cx="17.9094" cy="17.6094" r="1.3812" /> 
<circle cx="43.5078" cy="23.2672" r="1.3812" /> 
<circle cx="43.5078" cy="16.7188" r="1.3812" /> 
</g>
<g style="fill:#000000; fill-opacity:1.0000; 
stroke:#000000; stroke-width:0.1200; stroke-opacity:1; 
stroke-linecap:round; stroke-linejoin:round;">
<path style="fill:#000000; fill-opacity:1.0000; 
stroke:#000000; stroke-width:0.1200; stroke-opacity:1; 
stroke-linecap:round; stroke-linejoin:round;fill-rule:evenodd;"
d="M 195.0237,86.7965
195.0237,88.4803
196.7075,90.1641
186.6048,100.2669
184.9210,98.5831
183.2372,98.5831
181.5534,96.8993
182.3953,96.0574
182.3953,94.3736
181.9743,93.9526
182.3953,92.6898
184.0791,91.0060
184.9210,88.4803
187.4467,87.6384
189.1305,85.9546
190.3933,85.5336
190.8143,85.9546
192.4980,85.9546
193.3399,85.1127
Z" /> 
<path style="fill:#000000; fill-opacity:1.0000; 
stroke:#000000; stroke-width:0.1200; stroke-opacity:1; 
stroke-linecap:round; stroke-linejoin:round;fill-rule:evenodd;"
d="M 110.1829,79.8220
111.3735,81.0126
111.3735,83.3939
110.1829,83.3939
108.9923,84.5845
108.9923,85.1798
107.8016,85.7751
105.4204,85.7751
103.0391,86.9658
100.6579,85.7751
98.2766,85.7751
97.0860,85.1798
97.0860,84.5845
95.8954,83.3939
94.7048,83.3939
94.7048,81.0126
95.8954,79.8220
95.8954,77.4408
110.1829,77.4408
Z" /> 
<path style="fill:#000000; fill-opacity:1.0000; 
stroke:#000000; stroke-width:0.1200; stroke-opacity:1; 
stroke-linecap:round; stroke-linejoin:round;fill-rule:evenodd;"
d="M 152.8835,85.9546
154.5673,85.9546
154.9882,85.5336
156.2511,85.9546
157.9349,87.6384
160.4606,88.4803
161.3025,91.0060
162.9863,92.6898
163.4072,93.9526
162.9863,94.3736
162.9863,96.0574
163.8282,96.8993
162.1444,98.5831
160.4606,98.5831
158.7768,100.2669
148.6740,90.1641
150.3578,88.4803
150.3578,86.7965
152.0416,85.1127
Z" /> 
<path style="fill:#000000; fill-opacity:1.0000; 
stroke:#000000; stroke-width:0.1200; stroke-opacity:1; 
stroke-linecap:round; stroke-linejoin:round;fill-rule:evenodd;"
d="M 212.9698,71.0632
214.5962,71.4990
215.6273,70.9037
216.8179,72.9659
216.3821,74.5923
217.5728,76.6546
205.1994,83.7983
204.0088,81.7361
202.3824,81.3003
201.1918,79.2381
202.2229,78.6428
202.6587,77.0163
202.3610,76.5008
203.0945,75.3899
205.1567,74.1993
206.6236,71.9776
209.2811,71.8180
211.3434,70.6274
212.6721,70.5477
Z" /> 
<path style="fill:#000000; fill-opacity:1.0000; 
stroke:#000000; stroke-width:0.1200; stroke-opacity:1; 
stroke-linecap:round; stroke-linejoin:round;fill-rule:evenodd;"
d="M 249.4861,79.8220
250.6767,81.0126
250.6767,83.3939
249.4861,83.3939
248.2955,84.5845
248.2955,85.1798
247.1049,85.7751
244.7236,85.7751
242.3424,86.9658
239.9611,85.7751
237.5799,85.7751
236.3892,85.1798
236.3892,84.5845
235.1986,83.3939
234.0080,83.3939
234.0080,81.0126
235.1986,79.8220
235.1986,77.4408
249.4861,77.4408
Z" /> 
<path style="fill:#000000; fill-opacity:1.0000; 
stroke:#000000; stroke-width:0.1200; stroke-opacity:1; 
stroke-linecap:round; stroke-linejoin:round;fill-rule:evenodd;"
d="M 218.5299,40.5313
220.9111,40.5313
220.9111,54.8188
218.5299,54.8188
217.3392,56.0094
214.9580,56.0094
214.9580,54.8188
213.7674,53.6282
213.1720,53.6282
212.5767,52.4375
212.5767,50.0563
211.3861,47.6750
212.5767,45.2938
212.5767,42.9125
213.1720,41.7219
213.7674,41.7219
214.9580,40.5313
214.9580,39.3407
217.3392,39.3407
Z" /> 
<path style="fill:#000000; fill-opacity:1.0000; 
stroke:#000000; stroke-width:0.1200; stroke-opacity:1; 
stroke-linecap:round; stroke-linejoin:round;fill-rule:evenodd;"
d="M 134.0382,70.6274
136.1004,71.8180
138.7579,71.9776
140.2248,74.1993
142.2871,75.3899
143.0205,76.5008
142.7229,77.0163
143.1587,78.6428
144.1898,79.2381
142.9991,81.3003
141.3727,81.7361
140.1821,83.7983
127.8088,76.6546
128.9994,74.5923
128.5636,72.9659
129.7542,70.9037
130.7853,71.4990
132.4117,71.0632
132.7094,70.5477
Z" /> 
<path style="fill:#000000; fill-opacity:1.0000; 
stroke:#000000; stroke-width:0.1200; stroke-opacity:1; 
stroke-linecap:round; stroke-linejoin:round;fill-rule:evenodd;"
d="M 130.4235,40.5313
131.6142,41.7219
132.2095,41.7219
132.8048,42.9125
132.8048,45.2938
133.9954,47.6750
132.8048,50.0563
132.8048,52.4375
132.2095,53.6282
131.6142,53.6282
130.4235,54.8188
130.4235,56.0094
128.0423,56.0094
126.8517,54.8188
124.4704,54.8188
124.4704,40.5313
126.8517,40.5313
128.0423,39.3407
130.4235,39.3407
Z" /> 
<path style="fill:#000000; fill-opacity:1.0000; 
stroke:#000000; stroke-width:0.1200; stroke-opacity:1; 
stroke-linecap:round; stroke-linejoin:round;fill-rule:evenodd;"
d="M 130.4235,19.1000
131.6142,20.2906
132.2095,20.2906
132.8048,21.4813
132.8048,23.8625
133.9954,26.2438
132.8048,28.6250
132.8048,31.0063
132.2095,32.1969
131.6142,32.1969
130.4235,33.3875
130.4235,34.5781
128.0423,34.5781
126.8517,33.3875
124.4704,33.3875
124.4704,19.1000
126.8517,19.1000
128.0423,17.9094
130.4235,17.9094
Z" /> 
<path style="fill:#000000; fill-opacity:1.0000; 
stroke:#000000; stroke-width:0.1200; stroke-opacity:1; 
stroke-linecap:round; stroke-linejoin:round;fill-rule:evenodd;"
d="M 137.8008,87.9228
136.6102,89.9850
137.0460,91.6114
135.8554,93.6737
134.8243,93.0783
133.1979,93.5141
132.9002,94.0297
131.5714,93.9499
129.5092,92.7593
126.8517,92.5998
125.3848,90.3781
123.3225,89.1874
122.5891,88.0766
122.8867,87.5610
122.4509,85.9346
121.4198,85.3393
122.6105,83.2771
124.2369,82.8413
125.4275,80.7790
Z" /> 
<path style="fill:#000000; fill-opacity:1.0000; 
stroke:#000000; stroke-width:0.1200; stroke-opacity:1; 
stroke-linecap:round; stroke-linejoin:round;fill-rule:evenodd;"
d="M 20.3098,29.3569
22.6820,29.1493
23.9272,43.3825
21.5550,43.5900
20.4727,44.8799
18.1005,45.0874
17.9967,43.9013
16.7069,42.8190
16.1138,42.8709
15.4170,41.7367
15.2095,39.3645
13.8158,37.0960
14.7944,34.6201
14.5869,32.2479
15.0761,31.0099
15.6692,30.9580
16.7515,29.6682
16.6477,28.4821
19.0199,28.2745
Z" /> 
<path style="fill:#000000; fill-opacity:1.0000; 
stroke:#000000; stroke-width:0.1200; stroke-opacity:1; 
stroke-linecap:round; stroke-linejoin:round;fill-rule:evenodd;"
d="M 328.7338,47.6649
328.6300,48.8510
329.7123,50.1408
330.3054,50.1927
330.7947,51.4307
330.5871,53.8029
331.5657,56.2788
330.1721,58.5473
329.9645,60.9195
329.2677,62.0537
328.6746,62.0018
327.3848,63.0841
327.2810,64.2702
324.9088,64.0627
323.8265,62.7728
321.4543,62.5653
322.6996,48.3321
325.0717,48.5397
326.3616,47.4573
Z" /> 
<path style="fill:#000000; fill-opacity:1.0000; 
stroke:#000000; stroke-width:0.1200; stroke-opacity:1; 
stroke-linecap:round; stroke-linejoin:round;fill-rule:evenodd;"
d="M 218.5299,19.1000
220.9111,19.1000
220.9111,33.3875
218.5299,33.3875
217.3392,34.5781
214.9580,34.5781
214.9580,33.3875
213.7674,32.1969
213.1720,32.1969
212.5767,31.0063
212.5767,28.6250
211.3861,26.2438
212.5767,23.8625
212.5767,21.4813
213.1720,20.2906
213.7674,20.2906
214.9580,19.1000
214.9580,17.9094
217.3392,17.9094
Z" /> 
<path style="fill:#000000; fill-opacity:1.0000; 
stroke:#000000; stroke-width:0.1200; stroke-opacity:1; 
stroke-linecap:round; stroke-linejoin:round;fill-rule:evenodd;"
d="M 62.5579,38.1500
63.7485,39.3406
63.7485,41.7218
62.5579,41.7218
61.3672,42.9125
61.3672,43.5078
60.1766,44.1031
57.7954,44.1031
55.4141,45.2937
53.0329,44.1031
50.6516,44.1031
49.4610,43.5078
49.4610,42.9125
48.2704,41.7218
47.0797,41.7218
47.0797,39.3406
48.2704,38.1500
48.2704,35.7687
62.5579,35.7687
Z" /> 
<path style="fill:#000000; fill-opacity:1.0000; 
stroke:#000000; stroke-width:0.1200; stroke-opacity:1; 
stroke-linecap:round; stroke-linejoin:round;fill-rule:evenodd;"
d="M 43.5079,69.1063
44.6985,70.2969
44.6985,72.6781
43.5079,72.6781
42.3173,73.8688
42.3173,74.4641
41.1266,75.0594
38.7454,75.0594
36.3641,76.2500
33.9829,75.0594
31.6016,75.0594
30.4110,74.4641
30.4110,73.8688
29.2204,72.6781
28.0297,72.6781
28.0297,70.2969
29.2204,69.1063
29.2204,66.7250
43.5079,66.7250
Z" /> 
<path style="fill:#000000; fill-opacity:1.0000; 
stroke:#000000; stroke-width:0.1200; stroke-opacity:1; 
stroke-linecap:round; stroke-linejoin:round;fill-rule:evenodd;"
d="M 100.6579,39.3407
101.8485,40.5313
101.8485,42.9125
100.6579,42.9125
99.4672,44.1032
99.4672,44.6985
98.2766,45.2938
95.8954,45.2938
93.5141,46.4844
91.1329,45.2938
88.7516,45.2938
87.5610,44.6985
87.5610,44.1032
86.3704,42.9125
85.1797,42.9125
85.1797,40.5313
86.3704,39.3407
86.3704,36.9594
100.6579,36.9594
Z" /> 
<path style="fill:#000000; fill-opacity:1.0000; 
stroke:#000000; stroke-width:0.1200; stroke-opacity:1; 
stroke-linecap:round; stroke-linejoin:round;fill-rule:evenodd;"
d="M 297.1112,19.1000
298.3018,20.2906
298.3018,22.6718
297.1112,22.6718
295.9205,23.8625
295.9205,24.4578
294.7299,25.0531
292.3487,25.0531
289.9674,26.2437
287.5862,25.0531
285.2049,25.0531
284.0143,24.4578
284.0143,23.8625
282.8237,22.6718
281.6330,22.6718
281.6330,20.2906
282.8237,19.1000
282.8237,16.7187
297.1112,16.7187
Z" /> 
<path style="fill:#000000; fill-opacity:1.0000; 
stroke:#000000; stroke-width:0.1200; stroke-opacity:1; 
stroke-linecap:round; stroke-linejoin:round;fill-rule:evenodd;"
d="M 316.1611,50.0563
317.3518,51.2469
317.3518,53.6281
316.1611,53.6281
314.9705,54.8188
314.9705,55.4141
313.7799,56.0094
311.3986,56.0094
309.0174,57.2000
306.6361,56.0094
304.2549,56.0094
303.0643,55.4141
303.0643,54.8188
301.8736,53.6281
300.6830,53.6281
300.6830,51.2469
301.8736,50.0563
301.8736,47.6750
316.1611,47.6750
Z" /> 
<path style="fill:#000000; fill-opacity:1.0000; 
stroke:#000000; stroke-width:0.1200; stroke-opacity:1; 
stroke-linecap:round; stroke-linejoin:round;fill-rule:evenodd;"
d="M 259.0111,20.2906
260.2018,21.4812
260.2018,23.8625
259.0111,23.8625
257.8205,25.0531
257.8205,25.6484
256.6299,26.2437
254.2486,26.2437
251.8674,27.4343
249.4861,26.2437
247.1049,26.2437
245.9143,25.6484
245.9143,25.0531
244.7236,23.8625
243.5330,23.8625
243.5330,21.4812
244.7236,20.2906
244.7236,17.9093
259.0111,17.9093
Z" /> 
<path style="fill:#000000; fill-opacity:1.0000; 
stroke:#000000; stroke-width:0.1200; stroke-opacity:1; 
stroke-linecap:round; stroke-linejoin:round;fill-rule:evenodd;"
d="M 81.6079,13.1468
82.7985,14.3375
82.7985,16.7187
81.6079,16.7187
80.4172,17.9093
80.4172,18.5046
79.2266,19.1000
76.8454,19.1000
74.4641,20.2906
72.0829,19.1000
69.7016,19.1000
68.5110,18.5046
68.5110,17.9093
67.3204,16.7187
66.1298,16.7187
66.1298,14.3375
67.3204,13.1468
67.3204,10.7656
81.6079,10.7656
Z" /> 
<path style="fill:#000000; fill-opacity:1.0000; 
stroke:#000000; stroke-width:0.1200; stroke-opacity:1; 
stroke-linecap:round; stroke-linejoin:round;fill-rule:evenodd;"
d="M 22.0766,69.1063
24.4579,69.1063
24.4579,83.3938
22.0766,83.3938
20.8860,84.5844
18.5047,84.5844
18.5047,83.3938
17.3141,82.2031
16.7188,82.2031
16.1235,81.0125
16.1235,78.6313
14.9329,76.2500
16.1235,73.8688
16.1235,71.4875
16.7188,70.2969
17.3141,70.2969
18.5047,69.1063
18.5047,67.9156
20.8860,67.9156
Z" /> 
<path style="fill:#000000; fill-opacity:1.0000; 
stroke:#000000; stroke-width:0.1200; stroke-opacity:1; 
stroke-linecap:round; stroke-linejoin:round;fill-rule:evenodd;"
d="M 201.7589,95.2155
203.4427,95.2155
205.1265,96.8993
204.2846,97.7412
204.2846,99.4250
204.7056,99.8459
204.2846,101.1088
202.6008,102.7926
201.7589,105.3183
199.2333,106.1602
197.5495,107.8440
196.2866,108.2649
195.8657,107.8440
194.1819,107.8440
193.3400,108.6859
191.6562,107.0021
191.6562,105.3183
189.9724,103.6345
200.0752,93.5317
Z" /> 
<path style="fill:#000000; fill-opacity:1.0000; 
stroke:#000000; stroke-width:0.1200; stroke-opacity:1; 
stroke-linecap:round; stroke-linejoin:round;fill-rule:evenodd;"
d="M 155.4092,103.6345
153.7254,105.3183
153.7254,107.0021
152.0416,108.6859
151.1997,107.8440
149.5159,107.8440
149.0949,108.2649
147.8321,107.8440
146.1483,106.1602
143.6226,105.3183
142.7807,102.7926
141.0969,101.1088
140.6759,99.8459
141.0969,99.4250
141.0969,97.7412
140.2550,96.8993
141.9388,95.2155
143.6226,95.2155
145.3064,93.5317
Z" /> 
<path style="fill:#000000; fill-opacity:1.0000; 
stroke:#000000; stroke-width:0.1200; stroke-opacity:1; 
stroke-linecap:round; stroke-linejoin:round;fill-rule:evenodd;"
d="M 43.5078,31.0062
44.6985,32.1968
44.6985,34.5781
43.5078,34.5781
42.3172,35.7687
42.3172,36.3640
41.1266,36.9593
38.7453,36.9593
36.3641,38.1500
33.9828,36.9593
31.6016,36.9593
30.4110,36.3640
30.4110,35.7687
29.2203,34.5781
28.0297,34.5781
28.0297,32.1968
29.2203,31.0062
29.2203,28.6250
43.5078,28.6250
Z" /> 
<path style="fill:#000000; fill-opacity:1.0000; 
stroke:#000000; stroke-width:0.1200; stroke-opacity:1; 
stroke-linecap:round; stroke-linejoin:round;fill-rule:evenodd;"
d="M 168.1618,123.5133
166.0996,124.7040
165.6638,126.3304
163.6016,127.5210
163.0062,126.4899
161.3798,126.0541
160.8643,126.3518
159.7534,125.6183
158.5628,123.5561
156.3410,122.0892
156.1815,119.4316
154.9909,117.3694
154.9111,116.0406
155.4267,115.7430
155.8625,114.1166
155.2672,113.0854
157.3294,111.8948
158.9558,112.3306
161.0181,111.1400
Z" /> 
<path style="fill:#000000; fill-opacity:1.0000; 
stroke:#000000; stroke-width:0.1200; stroke-opacity:1; 
stroke-linecap:round; stroke-linejoin:round;fill-rule:evenodd;"
d="M 297.1112,76.2501
298.3018,77.4407
298.3018,79.8219
297.1112,79.8219
295.9205,81.0126
295.9205,81.6079
294.7299,82.2032
292.3487,82.2032
289.9674,83.3938
287.5862,82.2032
285.2049,82.2032
284.0143,81.6079
284.0143,81.0126
282.8237,79.8219
281.6330,79.8219
281.6330,77.4407
282.8237,76.2501
282.8237,73.8688
297.1112,73.8688
Z" /> 
<path style="fill:#000000; fill-opacity:1.0000; 
stroke:#000000; stroke-width:0.1200; stroke-opacity:1; 
stroke-linecap:round; stroke-linejoin:round;fill-rule:evenodd;"
d="M 277.1041,87.9228
275.9134,89.9850
276.3492,91.6114
275.1586,93.6737
274.1275,93.0783
272.5011,93.5141
272.2034,94.0297
270.8747,93.9499
268.8124,92.7593
266.1549,92.5998
264.6880,90.3781
262.6258,89.1874
261.8923,88.0766
262.1900,87.5610
261.7542,85.9346
260.7231,85.3393
261.9137,83.2771
263.5401,82.8413
264.7307,80.7790
Z" /> 
<path style="fill:#000000; fill-opacity:1.0000; 
stroke:#000000; stroke-width:0.1200; stroke-opacity:1; 
stroke-linecap:round; stroke-linejoin:round;fill-rule:evenodd;"
d="M 221.1446,82.8413
222.7711,83.2771
223.9617,85.3393
222.9306,85.9346
222.4948,87.5610
222.7924,88.0766
222.0590,89.1874
219.9968,90.3781
218.5299,92.5998
215.8723,92.7593
213.8101,93.9499
212.4813,94.0297
212.1837,93.5141
210.5572,93.0783
209.5261,93.6737
208.3355,91.6114
208.7713,89.9850
207.5807,87.9228
219.9540,80.7790
Z" /> 
<path style="fill:#000000; fill-opacity:1.0000; 
stroke:#000000; stroke-width:0.1200; stroke-opacity:1; 
stroke-linecap:round; stroke-linejoin:round;fill-rule:evenodd;"
d="M 259.0111,39.3407
260.2018,40.5313
260.2018,42.9125
259.0111,42.9125
257.8205,44.1032
257.8205,44.6985
256.6299,45.2938
254.2486,45.2938
251.8674,46.4844
249.4861,45.2938
247.1049,45.2938
245.9143,44.6985
245.9143,44.1032
244.7236,42.9125
243.5330,42.9125
243.5330,40.5313
244.7236,39.3407
244.7236,36.9594
259.0111,36.9594
Z" /> 
<path style="fill:#000000; fill-opacity:1.0000; 
stroke:#000000; stroke-width:0.1200; stroke-opacity:1; 
stroke-linecap:round; stroke-linejoin:round;fill-rule:evenodd;"
d="M 316.1611,69.1063
317.3518,70.2969
317.3518,72.6781
316.1611,72.6781
314.9705,73.8688
314.9705,74.4641
313.7799,75.0594
311.3986,75.0594
309.0174,76.2500
306.6361,75.0594
304.2549,75.0594
303.0643,74.4641
303.0643,73.8688
301.8736,72.6781
300.6830,72.6781
300.6830,70.2969
301.8736,69.1063
301.8736,66.7250
316.1611,66.7250
Z" /> 
<path style="fill:#000000; fill-opacity:1.0000; 
stroke:#000000; stroke-width:0.1200; stroke-opacity:1; 
stroke-linecap:round; stroke-linejoin:round;fill-rule:evenodd;"
d="M 100.6579,58.3907
101.8485,59.5813
101.8485,61.9625
100.6579,61.9625
99.4672,63.1532
99.4672,63.7485
98.2766,64.3438
95.8954,64.3438
93.5141,65.5344
91.1329,64.3438
88.7516,64.3438
87.5610,63.7485
87.5610,63.1532
86.3704,61.9625
85.1797,61.9625
85.1797,59.5813
86.3704,58.3907
86.3704,56.0094
100.6579,56.0094
Z" /> 
<path style="fill:#000000; fill-opacity:1.0000; 
stroke:#000000; stroke-width:0.1200; stroke-opacity:1; 
stroke-linecap:round; stroke-linejoin:round;fill-rule:evenodd;"
d="M 239.9611,60.7719
241.1518,61.9625
241.1518,64.3437
239.9611,64.3437
238.7705,65.5344
238.7705,66.1297
237.5799,66.7250
235.1986,66.7250
232.8174,67.9156
230.4361,66.7250
228.0549,66.7250
226.8643,66.1297
226.8643,65.5344
225.6736,64.3437
224.4830,64.3437
224.4830,61.9625
225.6736,60.7719
225.6736,58.3906
239.9611,58.3906
Z" /> 
<path style="fill:#000000; fill-opacity:1.0000; 
stroke:#000000; stroke-width:0.1200; stroke-opacity:1; 
stroke-linecap:round; stroke-linejoin:round;fill-rule:evenodd;"
d="M 239.9611,41.7219
241.1518,42.9125
241.1518,45.2937
239.9611,45.2937
238.7705,46.4844
238.7705,47.0797
237.5799,47.6750
235.1986,47.6750
232.8174,48.8656
230.4361,47.6750
228.0549,47.6750
226.8643,47.0797
226.8643,46.4844
225.6736,45.2937
224.4830,45.2937
224.4830,42.9125
225.6736,41.7219
225.6736,39.3406
239.9611,39.3406
Z" /> 
<path style="fill:#000000; fill-opacity:1.0000; 
stroke:#000000; stroke-width:0.1200; stroke-opacity:1; 
stroke-linecap:round; stroke-linejoin:round;fill-rule:evenodd;"
d="M 119.7079,60.7719
120.8985,61.9625
120.8985,64.3437
119.7079,64.3437
118.5172,65.5344
118.5172,66.1297
117.3266,66.7250
114.9454,66.7250
112.5641,67.9156
110.1829,66.7250
107.8016,66.7250
106.6110,66.1297
106.6110,65.5344
105.4204,64.3437
104.2297,64.3437
104.2297,61.9625
105.4204,60.7719
105.4204,58.3906
119.7079,58.3906
Z" /> 
<path style="fill:#000000; fill-opacity:1.0000; 
stroke:#000000; stroke-width:0.1200; stroke-opacity:1; 
stroke-linecap:round; stroke-linejoin:round;fill-rule:evenodd;"
d="M 316.1612,31.0062
317.3518,32.1968
317.3518,34.5781
316.1612,34.5781
314.9706,35.7687
314.9706,36.3640
313.7799,36.9593
311.3987,36.9593
309.0174,38.1500
306.6362,36.9593
304.2549,36.9593
303.0643,36.3640
303.0643,35.7687
301.8737,34.5781
300.6831,34.5781
300.6831,32.1968
301.8737,31.0062
301.8737,28.6250
316.1612,28.6250
Z" /> 
<path style="fill:#000000; fill-opacity:1.0000; 
stroke:#000000; stroke-width:0.1200; stroke-opacity:1; 
stroke-linecap:round; stroke-linejoin:round;fill-rule:evenodd;"
d="M 81.6079,51.2469
82.7985,52.4375
82.7985,54.8187
81.6079,54.8187
80.4172,56.0094
80.4172,56.6047
79.2266,57.2000
76.8454,57.2000
74.4641,58.3906
72.0829,57.2000
69.7016,57.2000
68.5110,56.6047
68.5110,56.0094
67.3204,54.8187
66.1298,54.8187
66.1298,52.4375
67.3204,51.2469
67.3204,48.8656
81.6079,48.8656
Z" /> 
<path style="fill:#000000; fill-opacity:1.0000; 
stroke:#000000; stroke-width:0.1200; stroke-opacity:1; 
stroke-linecap:round; stroke-linejoin:round;fill-rule:evenodd;"
d="M 297.1111,38.1500
298.3018,39.3406
298.3018,41.7218
297.1111,41.7218
295.9205,42.9125
295.9205,43.5078
294.7299,44.1031
292.3486,44.1031
289.9674,45.2937
287.5861,44.1031
285.2049,44.1031
284.0143,43.5078
284.0143,42.9125
282.8236,41.7218
281.6330,41.7218
281.6330,39.3406
282.8236,38.1500
282.8236,35.7687
297.1111,35.7687
Z" /> 
<path style="fill:#000000; fill-opacity:1.0000; 
stroke:#000000; stroke-width:0.1200; stroke-opacity:1; 
stroke-linecap:round; stroke-linejoin:round;fill-rule:evenodd;"
d="M 62.5579,57.2000
63.7485,58.3906
63.7485,60.7718
62.5579,60.7718
61.3672,61.9625
61.3672,62.5578
60.1766,63.1531
57.7954,63.1531
55.4141,64.3437
53.0329,63.1531
50.6516,63.1531
49.4610,62.5578
49.4610,61.9625
48.2704,60.7718
47.0797,60.7718
47.0797,58.3906
48.2704,57.2000
48.2704,54.8187
62.5579,54.8187
Z" /> 
<path style="fill:#000000; fill-opacity:1.0000; 
stroke:#000000; stroke-width:0.1200; stroke-opacity:1; 
stroke-linecap:round; stroke-linejoin:round;fill-rule:evenodd;"
d="M 278.0611,32.1969
279.2518,33.3875
279.2518,35.7687
278.0611,35.7687
276.8705,36.9594
276.8705,37.5547
275.6799,38.1500
273.2986,38.1500
270.9174,39.3406
268.5361,38.1500
266.1549,38.1500
264.9643,37.5547
264.9643,36.9594
263.7736,35.7687
262.5830,35.7687
262.5830,33.3875
263.7736,32.1969
263.7736,29.8156
278.0611,29.8156
Z" /> 
<path style="fill:#000000; fill-opacity:1.0000; 
stroke:#000000; stroke-width:0.1200; stroke-opacity:1; 
stroke-linecap:round; stroke-linejoin:round;fill-rule:evenodd;"
d="M 278.0611,13.1468
279.2518,14.3375
279.2518,16.7187
278.0611,16.7187
276.8705,17.9093
276.8705,18.5046
275.6799,19.1000
273.2986,19.1000
270.9174,20.2906
268.5361,19.1000
266.1549,19.1000
264.9643,18.5046
264.9643,17.9093
263.7736,16.7187
262.5830,16.7187
262.5830,14.3375
263.7736,13.1468
263.7736,10.7656
278.0611,10.7656
Z" /> 
<path style="fill:#000000; fill-opacity:1.0000; 
stroke:#000000; stroke-width:0.1200; stroke-opacity:1; 
stroke-linecap:round; stroke-linejoin:round;fill-rule:evenodd;"
d="M 119.7079,22.6718
120.8985,23.8625
120.8985,26.2437
119.7079,26.2437
118.5173,27.4343
118.5173,28.0297
117.3267,28.6250
114.9454,28.6250
112.5642,29.8156
110.1829,28.6250
107.8017,28.6250
106.6110,28.0297
106.6110,27.4343
105.4204,26.2437
104.2298,26.2437
104.2298,23.8625
105.4204,22.6718
105.4204,20.2906
119.7079,20.2906
Z" /> 
<path style="fill:#000000; fill-opacity:1.0000; 
stroke:#000000; stroke-width:0.1200; stroke-opacity:1; 
stroke-linecap:round; stroke-linejoin:round;fill-rule:evenodd;"
d="M 278.0611,51.2469
279.2518,52.4375
279.2518,54.8187
278.0611,54.8187
276.8705,56.0094
276.8705,56.6047
275.6799,57.2000
273.2986,57.2000
270.9174,58.3906
268.5361,57.2000
266.1549,57.2000
264.9643,56.6047
264.9643,56.0094
263.7736,54.8187
262.5830,54.8187
262.5830,52.4375
263.7736,51.2469
263.7736,48.8656
278.0611,48.8656
Z" /> 
<path style="fill:#000000; fill-opacity:1.0000; 
stroke:#000000; stroke-width:0.1200; stroke-opacity:1; 
stroke-linecap:round; stroke-linejoin:round;fill-rule:evenodd;"
d="M 239.9611,22.6718
241.1517,23.8625
241.1517,26.2437
239.9611,26.2437
238.7705,27.4343
238.7705,28.0297
237.5799,28.6250
235.1986,28.6250
232.8174,29.8156
230.4361,28.6250
228.0549,28.6250
226.8642,28.0297
226.8642,27.4343
225.6736,26.2437
224.4830,26.2437
224.4830,23.8625
225.6736,22.6718
225.6736,20.2906
239.9611,20.2906
Z" /> 
<path style="fill:#000000; fill-opacity:1.0000; 
stroke:#000000; stroke-width:0.1200; stroke-opacity:1; 
stroke-linecap:round; stroke-linejoin:round;fill-rule:evenodd;"
d="M 186.4257,112.3306
188.0521,111.8948
190.1143,113.0854
189.5190,114.1166
189.9548,115.7430
190.4704,116.0406
190.3906,117.3694
189.2000,119.4316
189.0405,122.0892
186.8188,123.5561
185.6281,125.6183
184.5173,126.3518
184.0017,126.0541
182.3753,126.4899
181.7800,127.5210
179.7177,126.3304
179.2819,124.7040
177.2197,123.5133
184.3635,111.1400
Z" /> 
<path style="fill:#000000; fill-opacity:1.0000; 
stroke:#000000; stroke-width:0.1200; stroke-opacity:1; 
stroke-linecap:round; stroke-linejoin:round;fill-rule:evenodd;"
d="M 119.7079,41.7219
120.8985,42.9125
120.8985,45.2937
119.7079,45.2937
118.5172,46.4844
118.5172,47.0797
117.3266,47.6750
114.9454,47.6750
112.5641,48.8656
110.1829,47.6750
107.8016,47.6750
106.6110,47.0797
106.6110,46.4844
105.4204,45.2937
104.2297,45.2937
104.2297,42.9125
105.4204,41.7219
105.4204,39.3406
119.7079,39.3406
Z" /> 
<path style="fill:#000000; fill-opacity:1.0000; 
stroke:#000000; stroke-width:0.1200; stroke-opacity:1; 
stroke-linecap:round; stroke-linejoin:round;fill-rule:evenodd;"
d="M 62.5579,19.1000
63.7485,20.2906
63.7485,22.6718
62.5579,22.6718
61.3672,23.8625
61.3672,24.4578
60.1766,25.0531
57.7954,25.0531
55.4141,26.2437
53.0329,25.0531
50.6516,25.0531
49.4610,24.4578
49.4610,23.8625
48.2704,22.6718
47.0797,22.6718
47.0797,20.2906
48.2704,19.1000
48.2704,16.7187
62.5579,16.7187
Z" /> 
<path style="fill:#000000; fill-opacity:1.0000; 
stroke:#000000; stroke-width:0.1200; stroke-opacity:1; 
stroke-linecap:round; stroke-linejoin:round;fill-rule:evenodd;"
d="M 62.5579,76.2501
63.7485,77.4407
63.7485,79.8219
62.5579,79.8219
61.3672,81.0126
61.3672,81.6079
60.1766,82.2032
57.7954,82.2032
55.4141,83.3938
53.0329,82.2032
50.6516,82.2032
49.4610,81.6079
49.4610,81.0126
48.2704,79.8219
47.0797,79.8219
47.0797,77.4407
48.2704,76.2501
48.2704,73.8688
62.5579,73.8688
Z" /> 
<path style="fill:#000000; fill-opacity:1.0000; 
stroke:#000000; stroke-width:0.1200; stroke-opacity:1; 
stroke-linecap:round; stroke-linejoin:round;fill-rule:evenodd;"
d="M 20.3098,48.5397
22.6820,48.3321
23.9272,62.5653
21.5550,62.7728
20.4727,64.0627
18.1005,64.2702
17.9967,63.0841
16.7069,62.0018
16.1138,62.0537
15.4170,60.9195
15.2095,58.5473
13.8158,56.2788
14.7944,53.8029
14.5869,51.4307
15.0761,50.1927
15.6692,50.1408
16.7515,48.8510
16.6477,47.6649
19.0199,47.4573
Z" /> 
<path style="fill:#000000; fill-opacity:1.0000; 
stroke:#000000; stroke-width:0.1200; stroke-opacity:1; 
stroke-linecap:round; stroke-linejoin:round;fill-rule:evenodd;"
d="M 326.8768,69.1063
328.0674,70.2969
328.6627,70.2969
329.2580,71.4875
329.2580,73.8688
330.4486,76.2500
329.2580,78.6313
329.2580,81.0125
328.6627,82.2031
328.0674,82.2031
326.8768,83.3938
326.8768,84.5844
324.4955,84.5844
323.3049,83.3938
320.9236,83.3938
320.9236,69.1063
323.3049,69.1063
324.4955,67.9156
326.8768,67.9156
Z" /> 
<path style="fill:#000000; fill-opacity:1.0000; 
stroke:#000000; stroke-width:0.1200; stroke-opacity:1; 
stroke-linecap:round; stroke-linejoin:round;fill-rule:evenodd;"
d="M 81.8414,82.8413
83.4678,83.2771
84.6585,85.3393
83.6274,85.9346
83.1916,87.5610
83.4892,88.0766
82.7558,89.1874
80.6935,90.3781
79.2266,92.5998
76.5691,92.7593
74.5069,93.9499
73.1781,94.0297
72.8804,93.5141
71.2540,93.0783
70.2229,93.6737
69.0323,91.6114
69.4681,89.9850
68.2775,87.9228
80.6508,80.7790
Z" /> 
<path style="fill:#000000; fill-opacity:1.0000; 
stroke:#000000; stroke-width:0.1200; stroke-opacity:1; 
stroke-linecap:round; stroke-linejoin:round;fill-rule:evenodd;"
d="M 328.7338,28.4821
328.6300,29.6682
329.7123,30.9580
330.3054,31.0099
330.7947,32.2479
330.5871,34.6201
331.5657,37.0960
330.1721,39.3645
329.9645,41.7367
329.2677,42.8709
328.6746,42.8190
327.3848,43.9013
327.2810,45.0874
324.9088,44.8799
323.8265,43.5900
321.4543,43.3825
322.6996,29.1493
325.0717,29.3569
326.3616,28.2745
Z" /> 
<path style="fill:#000000; fill-opacity:1.0000; 
stroke:#000000; stroke-width:0.1200; stroke-opacity:1; 
stroke-linecap:round; stroke-linejoin:round;fill-rule:evenodd;"
d="M 43.5079,50.0563
44.6985,51.2469
44.6985,53.6281
43.5079,53.6281
42.3173,54.8188
42.3173,55.4141
41.1266,56.0094
38.7454,56.0094
36.3641,57.2000
33.9829,56.0094
31.6016,56.0094
30.4110,55.4141
30.4110,54.8188
29.2204,53.6281
28.0297,53.6281
28.0297,51.2469
29.2204,50.0563
29.2204,47.6750
43.5079,47.6750
Z" /> 
<path style="fill:#000000; fill-opacity:1.0000; 
stroke:#000000; stroke-width:0.1200; stroke-opacity:1; 
stroke-linecap:round; stroke-linejoin:round;fill-rule:evenodd;"
d="M 259.0111,58.3907
260.2018,59.5813
260.2018,61.9625
259.0111,61.9625
257.8205,63.1532
257.8205,63.7485
256.6299,64.3438
254.2486,64.3438
251.8674,65.5344
249.4861,64.3438
247.1049,64.3438
245.9143,63.7485
245.9143,63.1532
244.7236,61.9625
243.5330,61.9625
243.5330,59.5813
244.7236,58.3907
244.7236,56.0094
259.0111,56.0094
Z" /> 
<path style="fill:#000000; fill-opacity:1.0000; 
stroke:#000000; stroke-width:0.1200; stroke-opacity:1; 
stroke-linecap:round; stroke-linejoin:round;fill-rule:evenodd;"
d="M 81.6079,32.1969
82.7985,33.3875
82.7985,35.7687
81.6079,35.7687
80.4172,36.9594
80.4172,37.5547
79.2266,38.1500
76.8454,38.1500
74.4641,39.3406
72.0829,38.1500
69.7016,38.1500
68.5110,37.5547
68.5110,36.9594
67.3204,35.7687
66.1298,35.7687
66.1298,33.3875
67.3204,32.1969
67.3204,29.8156
81.6079,29.8156
Z" /> 
<path style="fill:#000000; fill-opacity:1.0000; 
stroke:#000000; stroke-width:0.1200; stroke-opacity:1; 
stroke-linecap:round; stroke-linejoin:round;fill-rule:evenodd;"
d="M 100.6579,20.2906
101.8485,21.4812
101.8485,23.8625
100.6579,23.8625
99.4673,25.0531
99.4673,25.6484
98.2766,26.2437
95.8954,26.2437
93.5141,27.4343
91.1329,26.2437
88.7516,26.2437
87.5610,25.6484
87.5610,25.0531
86.3704,23.8625
85.1798,23.8625
85.1798,21.4812
86.3704,20.2906
86.3704,17.9093
100.6579,17.9093
Z" /> 
<path style="fill:#000000; fill-opacity:1.0000; 
stroke:#000000; stroke-width:0.1200; stroke-opacity:1; 
stroke-linecap:round; stroke-linejoin:round;fill-rule:evenodd;"
d="M 297.1111,57.2000
298.3018,58.3906
298.3018,60.7718
297.1111,60.7718
295.9205,61.9625
295.9205,62.5578
294.7299,63.1531
292.3486,63.1531
289.9674,64.3437
287.5861,63.1531
285.2049,63.1531
284.0143,62.5578
284.0143,61.9625
282.8236,60.7718
281.6330,60.7718
281.6330,58.3906
282.8236,57.2000
282.8236,54.8187
297.1111,54.8187
Z" /> 
<g >
</g>
<g >
</g>
<g >
</g>
<g >
</g>
<g >
</g>
<g >
</g>
<g >
</g>
<g >
</g>
<g >
</g>
<g >
</g>
<g >
</g>
<g >
</g>
<g >
</g>
<g >
</g>
<g >
</g>
<g >
</g>
<g >
</g>
<g >
</g>
<g >
</g>
<g >
</g>
<g >
</g>
<g >
</g>
<g >
</g>
<g >
</g>
<g >
</g>
<g >
</g>
<g >
</g>
<g >
</g>
<g >
</g>
<g >
</g>
<g >
</g>
<g >
</g>
<g >
</g>
<g >
</g>
<g >
</g>
<g >
</g>
<g >
</g>
<g >
</g>
<g >
</g>
<g >
</g>
<g >
</g>
<g >
</g>
<g >
</g>
<g >
</g>
<g >
</g>
<g >
</g>
<g >
</g>
<g >
</g>
<g >
</g>
<g >
</g>
<g >
</g>
<g >
</g>
<g >
</g>
<g >
</g>
<g >
</g>
<g >
</g>
<g >
</g>
<g >
</g>
<g >
</g>
<g >
</g>
<g >
</g>
<g >
</g>
<g >
</g>
<g >
</g>
<g >
</g>
<g >
</g>
<g >
</g>
<g >
</g>
<g >
</g>
<g >
</g>
<g >
</g>
<g >
</g>
<g >
</g>
<g >
</g>
<g >
</g>
<g >
</g>
<g >
</g>
<g >
</g>
<g >
</g>
<g >
</g>
<g >
</g>
<g >
</g>
<g >
</g>
<g >
</g>
<g >
</g>
<g >
</g>
<g >
</g>
<g >
</g>
<g >
</g>
<g >
</g>
<g >
</g>
<g >
</g>
<g >
</g>
<g >
</g>
<g >
</g>
<g >
</g>
<g >
</g>
<g >
</g>
<g >
</g>
<g >
</g>
<g >
</g>
<g >
</g>
<g >
</g>
<g >
</g>
<g >
</g>
<g >
</g>
</g> 
</svg>
