<?xml version="1.0" standalone="no"?>
 <!DOCTYPE svg PUBLIC "-//W3C//DTD SVG 1.1//EN" 
 "http://www.w3.org/Graphics/SVG/1.1/DTD/svg11.dtd"> 
<svg
  xmlns:svg="http://www.w3.org/2000/svg"
  xmlns="http://www.w3.org/2000/svg"
  xmlns:xlink="http://www.w3.org/1999/xlink"
  version="1.1"
  width="339.9536mm" height="134.6200mm" viewBox="0.0000 0.0000 339.9536 134.6200">
<title>SVG Image created as mykeeb_v7a5-User_3.svg date 2023/06/10 17:51:03 </title>
  <desc>Image generated by PCBNEW </desc>
<g style="fill:#000000; fill-opacity:1.0000;stroke:#000000; stroke-opacity:1.0000;
stroke-linecap:round; stroke-linejoin:round;"
 transform="translate(0 0) scale(1 1)">
</g>
<g style="fill:#000000; fill-opacity:0.0; 
stroke:#000000; stroke-width:0.0000; stroke-opacity:1; 
stroke-linecap:round; stroke-linejoin:round;">
</g>
<g style="fill:#000000; fill-opacity:0.0; 
stroke:#000000; stroke-width:0.1000; stroke-opacity:1; 
stroke-linecap:round; stroke-linejoin:round;">
</g>
<g style="fill:#000000; fill-opacity:1.0000; 
stroke:#000000; stroke-width:0.1000; stroke-opacity:1; 
stroke-linecap:round; stroke-linejoin:round;">
<path style="fill:#000000; fill-opacity:1.0000; 
stroke:#000000; stroke-width:0.1000; stroke-opacity:1; 
stroke-linecap:round; stroke-linejoin:round;fill-rule:evenodd;"
d="M 72.0829,79.8219
72.0829,82.7985
71.4876,83.3938
70.2969,83.3938
69.7016,82.7985
69.7016,79.8219
70.2969,79.2266
71.4876,79.2266
Z" /> 
<path style="fill:#000000; fill-opacity:1.0000; 
stroke:#000000; stroke-width:0.1000; stroke-opacity:1; 
stroke-linecap:round; stroke-linejoin:round;fill-rule:evenodd;"
d="M 19.6953,11.0609
19.6953,17.6094
18.5047,18.2047
17.3141,18.2047
16.1235,17.6094
16.1235,11.0609
17.3141,10.4656
18.5047,10.4656
Z" /> 
<path style="fill:#000000; fill-opacity:1.0000; 
stroke:#000000; stroke-width:0.1000; stroke-opacity:1; 
stroke-linecap:round; stroke-linejoin:round;fill-rule:evenodd;"
d="M 45.2938,16.7188
45.2938,23.2672
44.1032,23.8625
42.9125,23.8625
41.7219,23.2672
41.7219,16.7188
42.9125,16.1235
44.1032,16.1235
Z" /> 
<path style="fill:#000000; fill-opacity:1.0000; 
stroke:#000000; stroke-width:0.1000; stroke-opacity:1; 
stroke-linecap:round; stroke-linejoin:round;fill-rule:evenodd;"
d="M 21.4813,7.1938
39.3407,7.1938
39.3407,28.6250
21.4813,28.6250
Z" /> 
</g>
<g style="fill:#000000; fill-opacity:0.0; 
stroke:#000000; stroke-width:0.1000; stroke-opacity:1; 
stroke-linecap:round; stroke-linejoin:round;">
<path style="fill:#000000; fill-opacity:0.0; 
stroke:#000000; stroke-width:0.1000; stroke-opacity:1; 
stroke-linecap:round; stroke-linejoin:round;fill:none"
d="M 167.9283,3.6219
175.6673,3.6219
175.6673,9.5750
167.9283,9.5750
Z" /> 
<path style="fill:#000000; fill-opacity:0.0; 
stroke:#000000; stroke-width:0.1000; stroke-opacity:1; 
stroke-linecap:round; stroke-linejoin:round;fill:none"
d="M 0.0500,128.6376
7.7891,128.6376
7.7891,134.5907
0.0500,134.5907
Z" /> 
</g>
<g style="fill:#000000; fill-opacity:1.0000; 
stroke:#000000; stroke-width:0.0000; stroke-opacity:1; 
stroke-linecap:round; stroke-linejoin:round;">
<path style="fill:#000000; fill-opacity:1.0000; 
stroke:#000000; stroke-width:0.0000; stroke-opacity:1; 
stroke-linecap:round; stroke-linejoin:round;fill-rule:evenodd;"
d="M 194.1818,92.6898
194.1818,94.3736
190.8143,97.7412
189.1305,97.7412
179.0277,87.6384
179.0277,85.9546
182.3953,82.5870
184.0791,82.5870
Z" /> 
<path style="fill:#000000; fill-opacity:1.0000; 
stroke:#000000; stroke-width:0.0000; stroke-opacity:1; 
stroke-linecap:round; stroke-linejoin:round;fill-rule:evenodd;"
d="M 106.6110,77.4408
106.6110,91.7283
105.4204,92.9189
100.6579,92.9189
99.4673,91.7283
99.4673,77.4408
100.6579,76.2501
105.4204,76.2501
Z" /> 
<path style="fill:#000000; fill-opacity:1.0000; 
stroke:#000000; stroke-width:0.0000; stroke-opacity:1; 
stroke-linecap:round; stroke-linejoin:round;fill-rule:evenodd;"
d="M 166.3539,85.9546
166.3539,87.6384
156.2511,97.7412
154.5673,97.7412
151.1997,94.3736
151.1997,92.6898
161.3025,82.5870
162.9863,82.5870
Z" /> 
<path style="fill:#000000; fill-opacity:1.0000; 
stroke:#000000; stroke-width:0.0000; stroke-opacity:1; 
stroke-linecap:round; stroke-linejoin:round;fill-rule:evenodd;"
d="M 207.3357,66.0672
214.4794,78.4405
214.0436,80.0669
209.9192,82.4482
208.2928,82.0124
201.1490,69.6390
201.5848,68.0126
205.7093,65.6314
Z" /> 
<path style="fill:#000000; fill-opacity:1.0000; 
stroke:#000000; stroke-width:0.0000; stroke-opacity:1; 
stroke-linecap:round; stroke-linejoin:round;fill-rule:evenodd;"
d="M 245.9142,77.4408
245.9142,91.7283
244.7236,92.9189
239.9611,92.9189
238.7705,91.7283
238.7705,77.4408
239.9611,76.2501
244.7236,76.2501
Z" /> 
<path style="fill:#000000; fill-opacity:1.0000; 
stroke:#000000; stroke-width:0.0000; stroke-opacity:1; 
stroke-linecap:round; stroke-linejoin:round;fill-rule:evenodd;"
d="M 222.1017,45.2938
222.1017,50.0563
220.9111,51.2469
206.6236,51.2469
205.4330,50.0563
205.4330,45.2938
206.6236,44.1032
220.9111,44.1032
Z" /> 
<path style="fill:#000000; fill-opacity:1.0000; 
stroke:#000000; stroke-width:0.0000; stroke-opacity:1; 
stroke-linecap:round; stroke-linejoin:round;fill-rule:evenodd;"
d="M 143.7967,68.0126
144.2325,69.6390
137.0888,82.0124
135.4623,82.4482
131.3379,80.0669
130.9021,78.4405
138.0458,66.0672
139.6723,65.6314
Z" /> 
<path style="fill:#000000; fill-opacity:1.0000; 
stroke:#000000; stroke-width:0.0000; stroke-opacity:1; 
stroke-linecap:round; stroke-linejoin:round;fill-rule:evenodd;"
d="M 139.9485,45.2938
139.9485,50.0563
138.7579,51.2469
124.4704,51.2469
123.2798,50.0563
123.2798,45.2938
124.4704,44.1032
138.7579,44.1032
Z" /> 
<path style="fill:#000000; fill-opacity:1.0000; 
stroke:#000000; stroke-width:0.0000; stroke-opacity:1; 
stroke-linecap:round; stroke-linejoin:round;fill-rule:evenodd;"
d="M 139.9485,23.8625
139.9485,28.6250
138.7579,29.8156
124.4704,29.8156
123.2798,28.6250
123.2798,23.8625
124.4704,22.6719
138.7579,22.6719
Z" /> 
<path style="fill:#000000; fill-opacity:1.0000; 
stroke:#000000; stroke-width:0.0000; stroke-opacity:1; 
stroke-linecap:round; stroke-linejoin:round;fill-rule:evenodd;"
d="M 134.2717,84.5104
134.7075,86.1368
127.5638,98.5102
125.9373,98.9460
121.8129,96.5647
121.3771,94.9383
128.5208,82.5650
130.1473,82.1292
Z" /> 
<path style="fill:#000000; fill-opacity:1.0000; 
stroke:#000000; stroke-width:0.0000; stroke-opacity:1; 
stroke-linecap:round; stroke-linejoin:round;fill-rule:evenodd;"
d="M 24.2831,33.7899
24.6982,38.5343
23.6159,39.8242
9.3828,41.0694
8.0929,39.9871
7.6778,35.2427
8.7601,33.9528
22.9933,32.7076
Z" /> 
<path style="fill:#000000; fill-opacity:1.0000; 
stroke:#000000; stroke-width:0.0000; stroke-opacity:1; 
stroke-linecap:round; stroke-linejoin:round;fill-rule:evenodd;"
d="M 336.6214,53.1356
337.7037,54.4255
337.2886,59.1699
335.9988,60.2522
321.7656,59.0070
320.6833,57.7171
321.0984,52.9727
322.3882,51.8904
Z" /> 
<path style="fill:#000000; fill-opacity:1.0000; 
stroke:#000000; stroke-width:0.0000; stroke-opacity:1; 
stroke-linecap:round; stroke-linejoin:round;fill-rule:evenodd;"
d="M 222.1017,23.8625
222.1017,28.6250
220.9111,29.8156
206.6236,29.8156
205.4330,28.6250
205.4330,23.8625
206.6236,22.6719
220.9111,22.6719
Z" /> 
<path style="fill:#000000; fill-opacity:1.0000; 
stroke:#000000; stroke-width:0.0000; stroke-opacity:1; 
stroke-linecap:round; stroke-linejoin:round;fill-rule:evenodd;"
d="M 58.9860,35.7687
58.9860,50.0562
57.7954,51.2468
53.0329,51.2468
51.8422,50.0562
51.8422,35.7687
53.0329,34.5781
57.7954,34.5781
Z" /> 
<path style="fill:#000000; fill-opacity:1.0000; 
stroke:#000000; stroke-width:0.0000; stroke-opacity:1; 
stroke-linecap:round; stroke-linejoin:round;fill-rule:evenodd;"
d="M 39.9360,66.7250
39.9360,81.0125
38.7454,82.2031
33.9829,82.2031
32.7922,81.0125
32.7922,66.7250
33.9829,65.5344
38.7454,65.5344
Z" /> 
<path style="fill:#000000; fill-opacity:1.0000; 
stroke:#000000; stroke-width:0.0000; stroke-opacity:1; 
stroke-linecap:round; stroke-linejoin:round;fill-rule:evenodd;"
d="M 97.0860,36.9594
97.0860,51.2469
95.8954,52.4375
91.1329,52.4375
89.9423,51.2469
89.9423,36.9594
91.1329,35.7688
95.8954,35.7688
Z" /> 
<path style="fill:#000000; fill-opacity:1.0000; 
stroke:#000000; stroke-width:0.0000; stroke-opacity:1; 
stroke-linecap:round; stroke-linejoin:round;fill-rule:evenodd;"
d="M 293.5393,16.7187
293.5393,31.0062
292.3487,32.1968
287.5862,32.1968
286.3955,31.0062
286.3955,16.7187
287.5862,15.5281
292.3487,15.5281
Z" /> 
<path style="fill:#000000; fill-opacity:1.0000; 
stroke:#000000; stroke-width:0.0000; stroke-opacity:1; 
stroke-linecap:round; stroke-linejoin:round;fill-rule:evenodd;"
d="M 312.5893,47.6750
312.5893,61.9625
311.3986,63.1531
306.6361,63.1531
305.4455,61.9625
305.4455,47.6750
306.6361,46.4844
311.3986,46.4844
Z" /> 
<path style="fill:#000000; fill-opacity:1.0000; 
stroke:#000000; stroke-width:0.0000; stroke-opacity:1; 
stroke-linecap:round; stroke-linejoin:round;fill-rule:evenodd;"
d="M 255.4393,17.9093
255.4393,32.1968
254.2486,33.3875
249.4861,33.3875
248.2955,32.1968
248.2955,17.9093
249.4861,16.7187
254.2486,16.7187
Z" /> 
<path style="fill:#000000; fill-opacity:1.0000; 
stroke:#000000; stroke-width:0.0000; stroke-opacity:1; 
stroke-linecap:round; stroke-linejoin:round;fill-rule:evenodd;"
d="M 78.0360,10.7656
78.0360,25.0531
76.8454,26.2437
72.0829,26.2437
70.8922,25.0531
70.8922,10.7656
72.0829,9.5750
76.8454,9.5750
Z" /> 
<path style="fill:#000000; fill-opacity:1.0000; 
stroke:#000000; stroke-width:0.0000; stroke-opacity:1; 
stroke-linecap:round; stroke-linejoin:round;fill-rule:evenodd;"
d="M 25.6485,73.8688
25.6485,78.6313
24.4579,79.8219
10.1704,79.8219
8.9797,78.6313
8.9797,73.8688
10.1704,72.6781
24.4579,72.6781
Z" /> 
<path style="fill:#000000; fill-opacity:1.0000; 
stroke:#000000; stroke-width:0.0000; stroke-opacity:1; 
stroke-linecap:round; stroke-linejoin:round;fill-rule:evenodd;"
d="M 207.6522,106.1602
207.6522,107.8440
204.2846,111.2116
202.6008,111.2116
192.4981,101.1088
192.4981,99.4250
195.8657,96.0574
197.5495,96.0574
Z" /> 
<path style="fill:#000000; fill-opacity:1.0000; 
stroke:#000000; stroke-width:0.0000; stroke-opacity:1; 
stroke-linecap:round; stroke-linejoin:round;fill-rule:evenodd;"
d="M 152.8835,99.4250
152.8835,101.1088
142.7807,111.2116
141.0969,111.2116
137.7293,107.8440
137.7293,106.1602
147.8321,96.0574
149.5159,96.0574
Z" /> 
<path style="fill:#000000; fill-opacity:1.0000; 
stroke:#000000; stroke-width:0.0000; stroke-opacity:1; 
stroke-linecap:round; stroke-linejoin:round;fill-rule:evenodd;"
d="M 39.9360,28.6250
39.9360,42.9125
38.7453,44.1031
33.9828,44.1031
32.7922,42.9125
32.7922,28.6250
33.9828,27.4343
38.7453,27.4343
Z" /> 
<path style="fill:#000000; fill-opacity:1.0000; 
stroke:#000000; stroke-width:0.0000; stroke-opacity:1; 
stroke-linecap:round; stroke-linejoin:round;fill-rule:evenodd;"
d="M 164.4304,114.6691
166.8117,118.7936
166.3759,120.4200
154.0025,127.5637
152.3761,127.1279
149.9949,123.0035
150.4307,121.3771
162.8040,114.2333
Z" /> 
<path style="fill:#000000; fill-opacity:1.0000; 
stroke:#000000; stroke-width:0.0000; stroke-opacity:1; 
stroke-linecap:round; stroke-linejoin:round;fill-rule:evenodd;"
d="M 293.5393,73.8688
293.5393,88.1563
292.3487,89.3469
287.5862,89.3469
286.3955,88.1563
286.3955,73.8688
287.5862,72.6782
292.3487,72.6782
Z" /> 
<path style="fill:#000000; fill-opacity:1.0000; 
stroke:#000000; stroke-width:0.0000; stroke-opacity:1; 
stroke-linecap:round; stroke-linejoin:round;fill-rule:evenodd;"
d="M 273.5749,84.5104
274.0107,86.1368
266.8670,98.5102
265.2406,98.9460
261.1161,96.5647
260.6803,94.9383
267.8241,82.5650
269.4505,82.1292
Z" /> 
<path style="fill:#000000; fill-opacity:1.0000; 
stroke:#000000; stroke-width:0.0000; stroke-opacity:1; 
stroke-linecap:round; stroke-linejoin:round;fill-rule:evenodd;"
d="M 216.8607,82.5650
224.0044,94.9383
223.5686,96.5647
219.4442,98.9460
217.8178,98.5102
210.6740,86.1368
211.1098,84.5104
215.2343,82.1292
Z" /> 
<path style="fill:#000000; fill-opacity:1.0000; 
stroke:#000000; stroke-width:0.0000; stroke-opacity:1; 
stroke-linecap:round; stroke-linejoin:round;fill-rule:evenodd;"
d="M 255.4393,36.9594
255.4393,51.2469
254.2486,52.4375
249.4861,52.4375
248.2955,51.2469
248.2955,36.9594
249.4861,35.7688
254.2486,35.7688
Z" /> 
<path style="fill:#000000; fill-opacity:1.0000; 
stroke:#000000; stroke-width:0.0000; stroke-opacity:1; 
stroke-linecap:round; stroke-linejoin:round;fill-rule:evenodd;"
d="M 312.5893,66.7250
312.5893,81.0125
311.3986,82.2031
306.6361,82.2031
305.4455,81.0125
305.4455,66.7250
306.6361,65.5344
311.3986,65.5344
Z" /> 
<path style="fill:#000000; fill-opacity:1.0000; 
stroke:#000000; stroke-width:0.0000; stroke-opacity:1; 
stroke-linecap:round; stroke-linejoin:round;fill-rule:evenodd;"
d="M 97.0860,56.0094
97.0860,70.2969
95.8954,71.4875
91.1329,71.4875
89.9423,70.2969
89.9423,56.0094
91.1329,54.8188
95.8954,54.8188
Z" /> 
<path style="fill:#000000; fill-opacity:1.0000; 
stroke:#000000; stroke-width:0.0000; stroke-opacity:1; 
stroke-linecap:round; stroke-linejoin:round;fill-rule:evenodd;"
d="M 236.3893,58.3906
236.3893,72.6781
235.1986,73.8687
230.4361,73.8687
229.2455,72.6781
229.2455,58.3906
230.4361,57.2000
235.1986,57.2000
Z" /> 
<path style="fill:#000000; fill-opacity:1.0000; 
stroke:#000000; stroke-width:0.0000; stroke-opacity:1; 
stroke-linecap:round; stroke-linejoin:round;fill-rule:evenodd;"
d="M 236.3893,39.3406
236.3893,53.6281
235.1986,54.8187
230.4361,54.8187
229.2455,53.6281
229.2455,39.3406
230.4361,38.1500
235.1986,38.1500
Z" /> 
<path style="fill:#000000; fill-opacity:1.0000; 
stroke:#000000; stroke-width:0.0000; stroke-opacity:1; 
stroke-linecap:round; stroke-linejoin:round;fill-rule:evenodd;"
d="M 116.1360,58.3906
116.1360,72.6781
114.9454,73.8687
110.1829,73.8687
108.9922,72.6781
108.9922,58.3906
110.1829,57.2000
114.9454,57.2000
Z" /> 
<path style="fill:#000000; fill-opacity:1.0000; 
stroke:#000000; stroke-width:0.0000; stroke-opacity:1; 
stroke-linecap:round; stroke-linejoin:round;fill-rule:evenodd;"
d="M 312.5893,28.6250
312.5893,42.9125
311.3987,44.1031
306.6362,44.1031
305.4456,42.9125
305.4456,28.6250
306.6362,27.4343
311.3987,27.4343
Z" /> 
<path style="fill:#000000; fill-opacity:1.0000; 
stroke:#000000; stroke-width:0.0000; stroke-opacity:1; 
stroke-linecap:round; stroke-linejoin:round;fill-rule:evenodd;"
d="M 78.0360,48.8656
78.0360,63.1531
76.8454,64.3437
72.0829,64.3437
70.8922,63.1531
70.8922,48.8656
72.0829,47.6750
76.8454,47.6750
Z" /> 
<path style="fill:#000000; fill-opacity:1.0000; 
stroke:#000000; stroke-width:0.0000; stroke-opacity:1; 
stroke-linecap:round; stroke-linejoin:round;fill-rule:evenodd;"
d="M 293.5393,35.7687
293.5393,50.0562
292.3486,51.2468
287.5861,51.2468
286.3955,50.0562
286.3955,35.7687
287.5861,34.5781
292.3486,34.5781
Z" /> 
<path style="fill:#000000; fill-opacity:1.0000; 
stroke:#000000; stroke-width:0.0000; stroke-opacity:1; 
stroke-linecap:round; stroke-linejoin:round;fill-rule:evenodd;"
d="M 58.9860,54.8187
58.9860,69.1062
57.7954,70.2968
53.0329,70.2968
51.8422,69.1062
51.8422,54.8187
53.0329,53.6281
57.7954,53.6281
Z" /> 
<path style="fill:#000000; fill-opacity:1.0000; 
stroke:#000000; stroke-width:0.0000; stroke-opacity:1; 
stroke-linecap:round; stroke-linejoin:round;fill-rule:evenodd;"
d="M 274.4893,29.8156
274.4893,44.1031
273.2986,45.2937
268.5361,45.2937
267.3455,44.1031
267.3455,29.8156
268.5361,28.6250
273.2986,28.6250
Z" /> 
<path style="fill:#000000; fill-opacity:1.0000; 
stroke:#000000; stroke-width:0.0000; stroke-opacity:1; 
stroke-linecap:round; stroke-linejoin:round;fill-rule:evenodd;"
d="M 274.4893,10.7656
274.4893,25.0531
273.2986,26.2437
268.5361,26.2437
267.3455,25.0531
267.3455,10.7656
268.5361,9.5750
273.2986,9.5750
Z" /> 
<path style="fill:#000000; fill-opacity:1.0000; 
stroke:#000000; stroke-width:0.0000; stroke-opacity:1; 
stroke-linecap:round; stroke-linejoin:round;fill-rule:evenodd;"
d="M 116.1360,20.2906
116.1360,34.5781
114.9454,35.7687
110.1829,35.7687
108.9923,34.5781
108.9923,20.2906
110.1829,19.1000
114.9454,19.1000
Z" /> 
<path style="fill:#000000; fill-opacity:1.0000; 
stroke:#000000; stroke-width:0.0000; stroke-opacity:1; 
stroke-linecap:round; stroke-linejoin:round;fill-rule:evenodd;"
d="M 274.4893,48.8656
274.4893,63.1531
273.2986,64.3437
268.5361,64.3437
267.3455,63.1531
267.3455,48.8656
268.5361,47.6750
273.2986,47.6750
Z" /> 
<path style="fill:#000000; fill-opacity:1.0000; 
stroke:#000000; stroke-width:0.0000; stroke-opacity:1; 
stroke-linecap:round; stroke-linejoin:round;fill-rule:evenodd;"
d="M 236.3892,20.2906
236.3892,34.5781
235.1986,35.7687
230.4361,35.7687
229.2455,34.5781
229.2455,20.2906
230.4361,19.1000
235.1986,19.1000
Z" /> 
<path style="fill:#000000; fill-opacity:1.0000; 
stroke:#000000; stroke-width:0.0000; stroke-opacity:1; 
stroke-linecap:round; stroke-linejoin:round;fill-rule:evenodd;"
d="M 194.9509,121.3771
195.3867,123.0035
193.0054,127.1279
191.3790,127.5637
179.0057,120.4200
178.5699,118.7936
180.9511,114.6691
182.5775,114.2333
Z" /> 
<path style="fill:#000000; fill-opacity:1.0000; 
stroke:#000000; stroke-width:0.0000; stroke-opacity:1; 
stroke-linecap:round; stroke-linejoin:round;fill-rule:evenodd;"
d="M 116.1360,39.3406
116.1360,53.6281
114.9454,54.8187
110.1829,54.8187
108.9922,53.6281
108.9922,39.3406
110.1829,38.1500
114.9454,38.1500
Z" /> 
<path style="fill:#000000; fill-opacity:1.0000; 
stroke:#000000; stroke-width:0.0000; stroke-opacity:1; 
stroke-linecap:round; stroke-linejoin:round;fill-rule:evenodd;"
d="M 58.9860,16.7187
58.9860,31.0062
57.7954,32.1968
53.0329,32.1968
51.8422,31.0062
51.8422,16.7187
53.0329,15.5281
57.7954,15.5281
Z" /> 
<path style="fill:#000000; fill-opacity:1.0000; 
stroke:#000000; stroke-width:0.0000; stroke-opacity:1; 
stroke-linecap:round; stroke-linejoin:round;fill-rule:evenodd;"
d="M 58.9860,73.8688
58.9860,88.1563
57.7954,89.3469
53.0329,89.3469
51.8422,88.1563
51.8422,73.8688
53.0329,72.6782
57.7954,72.6782
Z" /> 
<path style="fill:#000000; fill-opacity:1.0000; 
stroke:#000000; stroke-width:0.0000; stroke-opacity:1; 
stroke-linecap:round; stroke-linejoin:round;fill-rule:evenodd;"
d="M 24.2831,52.9727
24.6982,57.7171
23.6159,59.0070
9.3828,60.2522
8.0929,59.1699
7.6778,54.4255
8.7601,53.1356
22.9933,51.8904
Z" /> 
<path style="fill:#000000; fill-opacity:1.0000; 
stroke:#000000; stroke-width:0.0000; stroke-opacity:1; 
stroke-linecap:round; stroke-linejoin:round;fill-rule:evenodd;"
d="M 336.4018,73.8688
336.4018,78.6313
335.2111,79.8219
320.9236,79.8219
319.7330,78.6313
319.7330,73.8688
320.9236,72.6781
335.2111,72.6781
Z" /> 
<path style="fill:#000000; fill-opacity:1.0000; 
stroke:#000000; stroke-width:0.0000; stroke-opacity:1; 
stroke-linecap:round; stroke-linejoin:round;fill-rule:evenodd;"
d="M 77.5575,82.5650
84.7012,94.9383
84.2654,96.5647
80.1410,98.9460
78.5145,98.5102
71.3708,86.1368
71.8066,84.5104
75.9310,82.1292
Z" /> 
<path style="fill:#000000; fill-opacity:1.0000; 
stroke:#000000; stroke-width:0.0000; stroke-opacity:1; 
stroke-linecap:round; stroke-linejoin:round;fill-rule:evenodd;"
d="M 336.6214,33.9528
337.7037,35.2427
337.2886,39.9871
335.9988,41.0694
321.7656,39.8242
320.6833,38.5343
321.0984,33.7899
322.3882,32.7076
Z" /> 
<path style="fill:#000000; fill-opacity:1.0000; 
stroke:#000000; stroke-width:0.0000; stroke-opacity:1; 
stroke-linecap:round; stroke-linejoin:round;fill-rule:evenodd;"
d="M 39.9360,47.6750
39.9360,61.9625
38.7454,63.1531
33.9829,63.1531
32.7922,61.9625
32.7922,47.6750
33.9829,46.4844
38.7454,46.4844
Z" /> 
<path style="fill:#000000; fill-opacity:1.0000; 
stroke:#000000; stroke-width:0.0000; stroke-opacity:1; 
stroke-linecap:round; stroke-linejoin:round;fill-rule:evenodd;"
d="M 255.4393,56.0094
255.4393,70.2969
254.2486,71.4875
249.4861,71.4875
248.2955,70.2969
248.2955,56.0094
249.4861,54.8188
254.2486,54.8188
Z" /> 
<path style="fill:#000000; fill-opacity:1.0000; 
stroke:#000000; stroke-width:0.0000; stroke-opacity:1; 
stroke-linecap:round; stroke-linejoin:round;fill-rule:evenodd;"
d="M 78.0360,29.8156
78.0360,44.1031
76.8454,45.2937
72.0829,45.2937
70.8922,44.1031
70.8922,29.8156
72.0829,28.6250
76.8454,28.6250
Z" /> 
<path style="fill:#000000; fill-opacity:1.0000; 
stroke:#000000; stroke-width:0.0000; stroke-opacity:1; 
stroke-linecap:round; stroke-linejoin:round;fill-rule:evenodd;"
d="M 97.0860,17.9093
97.0860,32.1968
95.8954,33.3875
91.1329,33.3875
89.9423,32.1968
89.9423,17.9093
91.1329,16.7187
95.8954,16.7187
Z" /> 
<path style="fill:#000000; fill-opacity:1.0000; 
stroke:#000000; stroke-width:0.0000; stroke-opacity:1; 
stroke-linecap:round; stroke-linejoin:round;fill-rule:evenodd;"
d="M 293.5393,54.8187
293.5393,69.1062
292.3486,70.2968
287.5861,70.2968
286.3955,69.1062
286.3955,54.8187
287.5861,53.6281
292.3486,53.6281
Z" /> 
<g >
</g>
<g >
</g>
<g >
</g>
<g >
</g>
<g >
</g>
<g >
</g>
<g >
</g>
<g >
</g>
<g >
</g>
<g >
</g>
<g >
</g>
<g >
</g>
<g >
</g>
<g >
</g>
<g >
</g>
<g >
</g>
<g >
</g>
<g >
</g>
<g >
</g>
<g >
</g>
<g >
</g>
<g >
</g>
<g >
</g>
<g >
</g>
<g >
</g>
<g >
</g>
<g >
</g>
<g >
</g>
<g >
</g>
<g >
</g>
<g >
</g>
<g >
</g>
<g >
</g>
<g >
</g>
<g >
</g>
<g >
</g>
<g >
</g>
<g >
</g>
<g >
</g>
<g >
</g>
<g >
</g>
<g >
</g>
<g >
</g>
<g >
</g>
<g >
</g>
<g >
</g>
<g >
</g>
<g >
</g>
<g >
</g>
<g >
</g>
<g >
</g>
<g >
</g>
<g >
</g>
<g >
</g>
<g >
</g>
<g >
</g>
<g >
</g>
<g >
</g>
<g >
</g>
<g >
</g>
<g >
</g>
<g >
</g>
<g >
</g>
<g >
</g>
<g >
</g>
<g >
</g>
<g >
</g>
<g >
</g>
<g >
</g>
<g >
</g>
<g >
</g>
<g >
</g>
<g >
</g>
<g >
</g>
<g >
</g>
<g >
</g>
<g >
</g>
<g >
</g>
<g >
</g>
<g >
</g>
<g >
</g>
<g >
</g>
<g >
</g>
<g >
</g>
<g >
</g>
<g >
</g>
<g >
</g>
<g >
</g>
<g >
</g>
<g >
</g>
<g >
</g>
<g >
</g>
<g >
</g>
<g >
</g>
<g >
</g>
<g >
</g>
<g >
</g>
<g >
</g>
<g >
</g>
<g >
</g>
<g >
</g>
<g >
</g>
<g >
</g>
<g >
</g>
<g >
</g>
<g >
</g>
</g> 
</svg>
