<?xml version="1.0" standalone="no"?>
 <!DOCTYPE svg PUBLIC "-//W3C//DTD SVG 1.1//EN" 
 "http://www.w3.org/Graphics/SVG/1.1/DTD/svg11.dtd"> 
<svg
  xmlns:svg="http://www.w3.org/2000/svg"
  xmlns="http://www.w3.org/2000/svg"
  xmlns:xlink="http://www.w3.org/1999/xlink"
  version="1.1"
  width="165.6334mm" height="125.8824mm" viewBox="0.0000 0.0000 165.6334 125.8824">
<title>SVG Image created as mykeeb_v7a5-base-Edge_Cuts.svg date 2023/06/10 13:15:11 </title>
  <desc>Image generated by PCBNEW </desc>
<g style="fill:#000000; fill-opacity:1.0000;stroke:#000000; stroke-opacity:1.0000;
stroke-linecap:round; stroke-linejoin:round;"
 transform="translate(0 0) scale(1 1)">
</g>
<g style="fill:#000000; fill-opacity:0.0; 
stroke:#000000; stroke-width:0.0000; stroke-opacity:1; 
stroke-linecap:round; stroke-linejoin:round;">
</g>
<g style="fill:#000000; fill-opacity:0.0; 
stroke:#000000; stroke-width:0.1600; stroke-opacity:1; 
stroke-linecap:round; stroke-linejoin:round;">
<path d="M81.0426,1.2706 C58.4207,1.2706 58.4207,0.0800 45.3238,0.0800" />
<path d="M131.6896,102.7366 C137.0474,108.0945 140.6193,112.8570 147.1678,124.1679" />
<path d="M1.8659,75.0894 C1.8659,55.4441 0.0800,55.4441 0.0800,40.5613" />
<path d="M1.8659 75.0894 A3.5718 3.5718 0.0 0 0 5.4378 78.6613" />
</g>
<g style="fill:#000000; fill-opacity:0.0; 
stroke:#000000; stroke-width:0.0381; stroke-opacity:1; 
stroke-linecap:round; stroke-linejoin:round;">
<path d="M5.4378 78.6613
L7.8191 78.6613
" />
</g>
<g style="fill:#000000; fill-opacity:0.0; 
stroke:#000000; stroke-width:0.1000; stroke-opacity:1; 
stroke-linecap:round; stroke-linejoin:round;">
<path d="M3.6519 13.7722 A3.5719 3.5719 0.0 0 0 0.0800 17.3441" />
<path d="M12.5816 0.0800 A3.5719 3.5719 0.0 0 0 9.0097 3.6519" />
</g>
<g style="fill:#000000; fill-opacity:0.0; 
stroke:#000000; stroke-width:0.0381; stroke-opacity:1; 
stroke-linecap:round; stroke-linejoin:round;">
<circle cx="20.9160" cy="57.2300" r="1.1906" /> 
<circle cx="81.0426" cy="72.1129" r="1.1906" /> 
</g>
<g style="fill:#000000; fill-opacity:0.0; 
stroke:#000000; stroke-width:0.1000; stroke-opacity:1; 
stroke-linecap:round; stroke-linejoin:round;">
<path d="M9.0097 10.2003
L9.0097 3.6519
" />
</g>
<g style="fill:#000000; fill-opacity:0.0; 
stroke:#000000; stroke-width:0.1600; stroke-opacity:1; 
stroke-linecap:round; stroke-linejoin:round;">
<path d="M106.6410,10.7956 C114.3801,10.7956 114.3801,9.6050 121.5239,9.6050" />
</g>
<g style="fill:#000000; fill-opacity:0.0; 
stroke:#000000; stroke-width:0.0381; stroke-opacity:1; 
stroke-linecap:round; stroke-linejoin:round;">
<circle cx="59.0160" cy="20.3206" r="1.1906" /> 
<path d="M0.0800 17.3441
L0.0800 40.5613
" />
</g>
<g style="fill:#000000; fill-opacity:0.0; 
stroke:#000000; stroke-width:0.1600; stroke-opacity:1; 
stroke-linecap:round; stroke-linejoin:round;">
<path d="M135.2161,46.5144 C135.2161,57.8254 135.2161,57.8254 137.0020,59.0160" />
</g>
<g style="fill:#000000; fill-opacity:0.0; 
stroke:#000000; stroke-width:0.1000; stroke-opacity:1; 
stroke-linecap:round; stroke-linejoin:round;">
<path d="M84.6144 4.8425 A3.5718 3.5718 0.0 0 0 81.0426 1.2706" />
<path d="M121.5239 9.6050
L129.2629 9.6050
" />
</g>
<g style="fill:#000000; fill-opacity:0.0; 
stroke:#000000; stroke-width:0.1600; stroke-opacity:1; 
stroke-linecap:round; stroke-linejoin:round;">
<path d="M60.8019 85.2098
L66.6383 94.0230
" />
<path d="M106.6410,10.7956 C101.2832,10.7956 101.2832,8.4144 95.3301,8.4144" />
<path d="M151.2895 125.3803
L162.6004 119.1426
" />
</g>
<g style="fill:#000000; fill-opacity:0.0; 
stroke:#000000; stroke-width:0.0381; stroke-opacity:1; 
stroke-linecap:round; stroke-linejoin:round;">
<path d="M45.3238 0.0800
L12.5816 0.0800
" />
<circle cx="116.1660" cy="28.6550" r="1.1906" /> 
</g>
<g style="fill:#000000; fill-opacity:0.0; 
stroke:#000000; stroke-width:0.1000; stroke-opacity:1; 
stroke-linecap:round; stroke-linejoin:round;">
<path d="M57.7086 83.4238
L42.9425 83.4238
" />
<path d="M88.1863 8.4144
L95.3301 8.4144
" />
</g>
<g style="fill:#000000; fill-opacity:0.0; 
stroke:#000000; stroke-width:0.1600; stroke-opacity:1; 
stroke-linecap:round; stroke-linejoin:round;">
<path d="M98.3529,86.9317 C86.4466,86.9317 83.4701,88.7176 71.5176,95.3301" />
</g>
<g style="fill:#000000; fill-opacity:0.0; 
stroke:#000000; stroke-width:0.1000; stroke-opacity:1; 
stroke-linecap:round; stroke-linejoin:round;">
<path d="M135.2161 13.1769 A3.5719 3.5719 0.0 0 0 131.6442 9.6050" />
</g>
<g style="fill:#000000; fill-opacity:0.0; 
stroke:#000000; stroke-width:0.0381; stroke-opacity:1; 
stroke-linecap:round; stroke-linejoin:round;">
<circle cx="7.8191" cy="17.3441" r="1.1906" /> 
<circle cx="157.8379" cy="97.7113" r="1.1906" /> 
</g>
<g style="fill:#000000; fill-opacity:0.0; 
stroke:#000000; stroke-width:0.1600; stroke-opacity:1; 
stroke-linecap:round; stroke-linejoin:round;">
<path d="M66.6383 94.0230 A3.5719 3.5719 0.0 0 0 71.5176 95.3301" />
<path d="M7.8191,78.6613 C32.8222,78.6613 32.8222,83.4238 42.9425,83.4238" />
</g>
<g style="fill:#000000; fill-opacity:0.0; 
stroke:#000000; stroke-width:0.0381; stroke-opacity:1; 
stroke-linecap:round; stroke-linejoin:round;">
<circle cx="40.5613" cy="3.6519" r="1.1906" /> 
<path d="M129.2629 9.6050
L131.6442 9.6050
" />
</g>
<g style="fill:#000000; fill-opacity:0.0; 
stroke:#000000; stroke-width:0.1600; stroke-opacity:1; 
stroke-linecap:round; stroke-linejoin:round;">
<path d="M165.5770 84.0191 A3.9506 3.9506 0.0 0 0 164.4724 81.2792" />
</g>
<g style="fill:#000000; fill-opacity:0.0; 
stroke:#000000; stroke-width:0.0381; stroke-opacity:1; 
stroke-linecap:round; stroke-linejoin:round;">
<path d="M164.6662 115.9038
L165.5770 84.0191
" />
<circle cx="119.7379" cy="56.0394" r="1.1906" /> 
</g>
<g style="fill:#000000; fill-opacity:0.0; 
stroke:#000000; stroke-width:0.1600; stroke-opacity:1; 
stroke-linecap:round; stroke-linejoin:round;">
<path d="M117.9520,91.7582 C125.6910,96.5207 126.9271,97.9741 131.6896,102.7366" />
<path d="M98.3529,86.9317 C109.0223,86.9957 113.2357,88.7176 117.9520,91.7582" />
</g>
<g style="fill:#000000; fill-opacity:0.0; 
stroke:#000000; stroke-width:0.0381; stroke-opacity:1; 
stroke-linecap:round; stroke-linejoin:round;">
<path d="M3.6519 13.7722
L5.4378 13.7722
" />
</g>
<g style="fill:#000000; fill-opacity:0.0; 
stroke:#000000; stroke-width:0.1600; stroke-opacity:1; 
stroke-linecap:round; stroke-linejoin:round;">
<path d="M60.8019 85.2098 A3.5720 3.5720 0.0 0 0 57.7086 83.4238" />
</g>
<g style="fill:#000000; fill-opacity:0.0; 
stroke:#000000; stroke-width:0.0381; stroke-opacity:1; 
stroke-linecap:round; stroke-linejoin:round;">
<circle cx="113.1895" cy="72.1129" r="1.1906" /> 
</g>
<g style="fill:#000000; fill-opacity:0.0; 
stroke:#000000; stroke-width:0.1000; stroke-opacity:1; 
stroke-linecap:round; stroke-linejoin:round;">
<path d="M84.6144 4.8425 A3.5718 3.5718 0.0 0 0 88.1863 8.4144" />
</g>
<g style="fill:#000000; fill-opacity:0.0; 
stroke:#000000; stroke-width:0.1600; stroke-opacity:1; 
stroke-linecap:round; stroke-linejoin:round;">
<path d="M162.6004 119.1426 A3.5719 3.5719 0.0 0 0 164.6662 115.9038" />
</g>
<g style="fill:#000000; fill-opacity:0.0; 
stroke:#000000; stroke-width:0.0381; stroke-opacity:1; 
stroke-linecap:round; stroke-linejoin:round;">
<circle cx="37.5847" cy="77.4707" r="1.1906" /> 
</g>
<g style="fill:#000000; fill-opacity:0.0; 
stroke:#000000; stroke-width:0.1600; stroke-opacity:1; 
stroke-linecap:round; stroke-linejoin:round;">
<path d="M147.1678 124.1679 A2.8919 2.8919 0.0 0 0 151.2895 125.3803" />
<path d="M137.0020,59.0160 C154.3680,68.3647 155.5586,72.5319 164.4724,81.2792" />
</g>
<g style="fill:#000000; fill-opacity:0.0; 
stroke:#000000; stroke-width:0.0381; stroke-opacity:1; 
stroke-linecap:round; stroke-linejoin:round;">
<circle cx="20.9160" cy="38.1800" r="1.1906" /> 
<circle cx="137.0020" cy="81.6379" r="1.1906" /> 
</g>
<g style="fill:#000000; fill-opacity:0.0; 
stroke:#000000; stroke-width:0.1000; stroke-opacity:1; 
stroke-linecap:round; stroke-linejoin:round;">
<path d="M5.4378 13.7722 A3.5719 3.5719 0.0 0 0 9.0097 10.2003" />
<path d="M135.2161 46.5144
L135.2161 13.1769
" />
</g>
<g style="fill:#000000; fill-opacity:0.0; 
stroke:#000000; stroke-width:0.0381; stroke-opacity:1; 
stroke-linecap:round; stroke-linejoin:round;">
<circle cx="81.0426" cy="4.8425" r="1.1906" /> 
<g >
</g>
<g >
</g>
<g >
</g>
</g> 
</svg>
