<?xml version="1.0"?>
<!DOCTYPE svg PUBLIC "-//W3C//DTD SVG 1.1//EN" "http://www.w3.org/Graphics/SVG/1.1/DTD/svg11.dtd">
<svg width="179.12968170000002mm" height="134.4812067mm" viewBox="0 0 179.12968170000002 134.4812067" xmlns="http://www.w3.org/2000/svg" version="1.1">
<g id="PCB_Sketch_1322" transform="translate(361.920538,41.046831) scale(1,-1)">
<path id="PCB_Sketch_1322_w0000"  d="M -278.60649 -20.240639000000012 L -292.29868 -20.240639000000012 A 3.57188 3.57188 0 0 1 -295.871 -23.8125L -295.870564 -30.956272999999996 A 3.57188 3.57188 0 0 1 -292.299 -34.5282L -280.392427 -34.528155 C -279.797114 -34.52815699999999 -276.774293 -34.52815699999999 -276.82054400000004 -36.31409599999999 A 3.57188 3.57188 0 1 1 -269.677 -36.3141C -269.723045 -34.528153 -266.700224 -34.528153 -266.104911 -34.528150999999994 A 3.57188 3.57188 0 1 1 -266.105 -27.3844L -271.462728 -27.38440100000001 A 3.57188 3.57188 0 0 0 -275.035 -23.8125A 3.57188 3.57188 0 0 1 -278.606 -20.2406" stroke="#000000" stroke-width="0.35 px" style="stroke-width:0.35;stroke-miterlimit:4;stroke-dasharray:none;stroke-linecap:square;fill:none;fill-opacity:1;fill-rule: evenodd"/>
<path id="PCB_Sketch_1322_w0001"  d="M -294.679935 31.551626 A 2.97658 2.97658 0 0 0 -291.703 34.5282L -280.392423 34.52815399999999 A 3.57186 3.57186 0 0 0 -276.821 30.9563A 3.5718 3.5718 0 0 1 -273.249 27.3844L -266.104911 27.384398000000004 C -258.961155 27.384398000000004 -257.770529 25.003146 -247.65020800000002 25.003146 C -239.91113900000002 25.003146 -239.91113900000002 26.193772000000003 -232.767383 26.193772000000003 L -225.028314 26.193771999999996 A 3.57192 3.57192 0 0 0 -221.456 22.6219L -221.456436 -10.715633999999994 C -221.456436 -23.812519999999992 -221.456436 -23.812519999999992 -219.772411 -24.584097 C -202.40642 -33.932840999999996 -201.21579400000002 -38.100032 -192.22715100000002 -46.473715 A 4.05441 4.05441 0 0 0 -191.774 -51.5348L -198.834515 -58.93599299999999 A 3.81184 3.81184 0 0 1 -199.594 -64.0721L -190.62038 -78.574937 A 3.79048 3.79048 0 0 0 -192.286 -83.9391L -200.665931 -88.128137 A 2.89201 2.89201 0 0 0 -204.788 -86.9157C -211.336115 -75.604751 -214.907993 -70.84224699999999 -220.26581000000002 -65.48443 C -225.028314 -60.721925999999996 -229.790818 -57.150048 -235.74394800000002 -54.173483000000004 C -242.292391 -50.60160499999999 -245.268956 -48.81566599999999 -257.175216 -48.81566599999999 C -269.081476 -48.81566599999999 -272.058041 -50.60160499999999 -284.010549 -57.21406999999997 A 3.5719 3.5719 0 0 0 -288.89 -55.907L -294.563127 -47.625006 A 3.57192 3.57192 0 0 1 -297.656 -45.8391L -309.56276 -45.83905300000001 A 3.57168 3.57168 0 0 0 -313.135 -42.2672L -313.134638 -41.671958000000004 A 3.57175 3.57175 0 0 1 -316.707 -38.1001C -333.970593 -38.100032 -321.46902 -42.86253599999999 -346.472166 -42.862535999999984 A 3.57178 3.57178 0 0 0 -350.044 -39.2907C -350.044044 -20.835955 -352.425296 -22.026580999999993 -352.425296 -7.143755999999996 L -352.425296 11.310946999999999 A 3.57186 3.57186 0 0 0 -348.853 14.8828L -346.472166 14.882824999999997 A 3.57188 3.57188 0 0 1 -342.9 18.4547C -342.900288 22.026581 -345.28154 22.026581 -345.28154 25.598459000000005 L -345.28154 32.146902000000004 A 3.57187 3.57187 0 0 0 -341.71 35.7188L -320.873707 35.718779999999974 A 3.57181 3.57181 0 0 0 -317.302 32.1469A 3.57185 3.57185 0 0 1 -313.73 28.575L -297.656502 28.575024000000028 A 2.97658 2.97658 0 0 1 -294.68 31.5516" stroke="#000000" stroke-width="0.35 px" style="stroke-width:0.35;stroke-miterlimit:4;stroke-dasharray:none;stroke-linecap:square;fill:none;fill-opacity:1;fill-rule: evenodd"/>
<path id="PCB_Sketch_1322_w0002"  d="M -190.50016 37.504719 L -186.33296900000002 37.504719 L -186.33296900000002 35.123467000000005 L -190.50016 35.123467000000005 L -190.50016 37.504719 " stroke="#000000" stroke-width="0.35 px" style="stroke-width:0.35;stroke-miterlimit:4;stroke-dasharray:none;stroke-linecap:square;fill:none;fill-opacity:1;fill-rule: evenodd"/>
<path id="PCB_Sketch_1322_w0003"  d="M -357.783113 -88.106324 L -354.806548 -88.106324 L -354.806548 -89.29695000000001 L -357.783113 -89.29695000000001 L -357.783113 -88.106324 " stroke="#000000" stroke-width="0.35 px" style="stroke-width:0.35;stroke-miterlimit:4;stroke-dasharray:none;stroke-linecap:square;fill:none;fill-opacity:1;fill-rule: evenodd"/>
<path id="PCB_Sketch_1322_w0004"  d="M -192.286099 39.290658 L -184.54703 39.290658 L -184.54703 33.337528 L -192.286099 33.337528 L -192.286099 39.290658 " stroke="#000000" stroke-width="0.35 px" style="stroke-width:0.35;stroke-miterlimit:4;stroke-dasharray:none;stroke-linecap:square;fill:none;fill-opacity:1;fill-rule: evenodd"/>
<path id="PCB_Sketch_1322_w0005"  d="M -191.690786 38.695345 L -185.142343 38.695345 L -185.142343 33.932841 L -191.690786 33.932841 L -191.690786 38.695345 " stroke="#000000" stroke-width="0.35 px" style="stroke-width:0.35;stroke-miterlimit:4;stroke-dasharray:none;stroke-linecap:square;fill:none;fill-opacity:1;fill-rule: evenodd"/>
<path id="PCB_Sketch_1322_w0006"  d="M -359.569052 -86.32038499999999 L -353.02060900000004 -86.32038499999999 L -353.02060900000004 -91.082889 L -359.569052 -91.082889 L -359.569052 -86.32038499999999 " stroke="#000000" stroke-width="0.35 px" style="stroke-width:0.35;stroke-miterlimit:4;stroke-dasharray:none;stroke-linecap:square;fill:none;fill-opacity:1;fill-rule: evenodd"/>
<path id="PCB_Sketch_1322_w0007"  d="M -189.90484700000002 36.909406000000004 L -186.928282 36.909406000000004 L -186.928282 35.71878 L -189.90484700000002 35.71878 L -189.90484700000002 36.909406000000004 " stroke="#000000" stroke-width="0.35 px" style="stroke-width:0.35;stroke-miterlimit:4;stroke-dasharray:none;stroke-linecap:square;fill:none;fill-opacity:1;fill-rule: evenodd"/>
<path id="PCB_Sketch_1322_w0008"  d="M -360.16436500000003 -85.72507200000001 L -352.425296 -85.72507200000001 L -352.425296 -91.678202 L -360.16436500000003 -91.678202 L -360.16436500000003 -85.72507200000001 " stroke="#000000" stroke-width="0.35 px" style="stroke-width:0.35;stroke-miterlimit:4;stroke-dasharray:none;stroke-linecap:square;fill:none;fill-opacity:1;fill-rule: evenodd"/>
<path id="PCB_Sketch_1322_w0009"  d="M -358.378426 -87.511011 L -354.211235 -87.511011 L -354.211235 -89.89226299999999 L -358.378426 -89.89226299999999 L -358.378426 -87.511011 " stroke="#000000" stroke-width="0.35 px" style="stroke-width:0.35;stroke-miterlimit:4;stroke-dasharray:none;stroke-linecap:square;fill:none;fill-opacity:1;fill-rule: evenodd"/>
<title>b'PCB_Sketch_1322'</title>
</g>
</svg>