%TF.GenerationSoftware,KiCad,Pcbnew,6.0.4*%
%TF.CreationDate,2022-05-08T18:53:29+02:00*%
%TF.ProjectId,mykeeb,6d796b65-6562-42e6-9b69-6361645f7063,rev?*%
%TF.SameCoordinates,Original*%
%TF.FileFunction,Paste,Bot*%
%TF.FilePolarity,Positive*%
%FSLAX46Y46*%
G04 Gerber Fmt 4.6, Leading zero omitted, Abs format (unit mm)*
G04 Created by KiCad (PCBNEW 6.0.4) date 2022-05-08 18:53:29*
%MOMM*%
%LPD*%
G01*
G04 APERTURE LIST*
%ADD10R,2.550000X2.500000*%
%ADD11R,1.200000X1.200000*%
%ADD12R,2.500000X2.550000*%
G04 APERTURE END LIST*
D10*
%TO.C,K26*%
X135394375Y-96758125D03*
X149244375Y-94218125D03*
%TD*%
D11*
%TO.C,D33*%
X91678125Y-85253625D03*
X91678125Y-82453625D03*
%TD*%
D10*
%TO.C,K14*%
X97294375Y-61039375D03*
X111144375Y-58499375D03*
%TD*%
%TO.C,K12*%
X59194375Y-59848750D03*
X73044375Y-57308750D03*
%TD*%
D11*
%TO.C,D32*%
X72628125Y-91206750D03*
X72628125Y-88406750D03*
%TD*%
D10*
%TO.C,K22*%
X59194375Y-78898750D03*
X73044375Y-76358750D03*
%TD*%
D11*
%TO.C,D10*%
X34528125Y-65013000D03*
X34528125Y-62213000D03*
%TD*%
%TO.C,D2*%
X72628125Y-34056750D03*
X72628125Y-31256750D03*
%TD*%
D10*
%TO.C,K30*%
X21094375Y-109855000D03*
X34944375Y-107315000D03*
%TD*%
D11*
%TO.C,D14*%
X110728125Y-54297375D03*
X110728125Y-51497375D03*
%TD*%
%TO.C,D5*%
X129778125Y-37628625D03*
X129778125Y-34828625D03*
%TD*%
%TO.C,D15*%
X129778125Y-56678625D03*
X129778125Y-53878625D03*
%TD*%
%TO.C,D36*%
X150144712Y-54778755D03*
X147344712Y-54778755D03*
%TD*%
%TO.C,D11*%
X53578125Y-65013000D03*
X53578125Y-62213000D03*
%TD*%
D10*
%TO.C,K31*%
X40144375Y-109855000D03*
X53994375Y-107315000D03*
%TD*%
D11*
%TO.C,D16*%
X143346375Y-75009375D03*
X146146375Y-75009375D03*
%TD*%
D10*
%TO.C,K20*%
X21094375Y-90805000D03*
X34944375Y-88265000D03*
%TD*%
D11*
%TO.C,D30*%
X34528125Y-103113000D03*
X34528125Y-100313000D03*
%TD*%
%TO.C,D25*%
X129778125Y-75728625D03*
X129778125Y-72928625D03*
%TD*%
%TO.C,D0*%
X34528125Y-45963000D03*
X34528125Y-43163000D03*
%TD*%
%TO.C,D4*%
X110728125Y-35247375D03*
X110728125Y-32447375D03*
%TD*%
D10*
%TO.C,K11*%
X40144375Y-71755000D03*
X53994375Y-69215000D03*
%TD*%
%TO.C,K4*%
X97294375Y-41989375D03*
X111144375Y-39449375D03*
%TD*%
D11*
%TO.C,D31*%
X53578125Y-103113000D03*
X53578125Y-100313000D03*
%TD*%
D10*
%TO.C,K10*%
X21094375Y-71755000D03*
X34944375Y-69215000D03*
%TD*%
D11*
%TO.C,D3*%
X91678125Y-28103625D03*
X91678125Y-25303625D03*
%TD*%
%TO.C,D13*%
X91678125Y-47153625D03*
X91678125Y-44353625D03*
%TD*%
%TO.C,D20*%
X34528125Y-84063000D03*
X34528125Y-81263000D03*
%TD*%
D10*
%TO.C,K3*%
X78244375Y-34845625D03*
X92094375Y-32305625D03*
%TD*%
D11*
%TO.C,D23*%
X91678125Y-66203625D03*
X91678125Y-63403625D03*
%TD*%
D12*
%TO.C,K16*%
X136604375Y-61575625D03*
X139144375Y-75425625D03*
%TD*%
D10*
%TO.C,K35*%
X116344375Y-101520625D03*
X130194375Y-98980625D03*
%TD*%
%TO.C,K2*%
X59194375Y-40798750D03*
X73044375Y-38258750D03*
%TD*%
%TO.C,K32*%
X59194375Y-97948750D03*
X73044375Y-95408750D03*
%TD*%
%TO.C,K5*%
X116344375Y-44370625D03*
X130194375Y-41830625D03*
%TD*%
%TO.C,K6*%
X135394375Y-49133125D03*
X149244375Y-46593125D03*
%TD*%
%TO.C,K13*%
X78244375Y-53895625D03*
X92094375Y-51355625D03*
%TD*%
%TO.C,K1*%
X40144375Y-52705000D03*
X53994375Y-50165000D03*
%TD*%
D11*
%TO.C,D21*%
X53578125Y-84063000D03*
X53578125Y-81263000D03*
%TD*%
D10*
%TO.C,K25*%
X116344375Y-82470625D03*
X130194375Y-79930625D03*
%TD*%
D11*
%TO.C,D1*%
X53578125Y-45963000D03*
X53578125Y-43163000D03*
%TD*%
D10*
%TO.C,K33*%
X78244375Y-91995625D03*
X92094375Y-89455625D03*
%TD*%
D11*
%TO.C,D24*%
X110728125Y-73347375D03*
X110728125Y-70547375D03*
%TD*%
%TO.C,D26*%
X148828125Y-90016125D03*
X148828125Y-87216125D03*
%TD*%
%TO.C,D35*%
X129778125Y-94778625D03*
X129778125Y-91978625D03*
%TD*%
D10*
%TO.C,K21*%
X40144375Y-90805000D03*
X53994375Y-88265000D03*
%TD*%
D11*
%TO.C,D12*%
X72882125Y-53106750D03*
X72882125Y-50306750D03*
%TD*%
D10*
%TO.C,K0*%
X21094375Y-52705000D03*
X34944375Y-50165000D03*
%TD*%
%TO.C,K34*%
X97294375Y-99139375D03*
X111144375Y-96599375D03*
%TD*%
D11*
%TO.C,D34*%
X110728125Y-92397375D03*
X110728125Y-89597375D03*
%TD*%
%TO.C,D22*%
X72882125Y-72331375D03*
X72882125Y-69531375D03*
%TD*%
D10*
%TO.C,K24*%
X97294375Y-80089375D03*
X111144375Y-77549375D03*
%TD*%
%TO.C,K23*%
X78244375Y-72945625D03*
X92094375Y-70405625D03*
%TD*%
D11*
%TO.C,D6*%
X149002750Y-42391125D03*
X149002750Y-39591125D03*
%TD*%
D10*
%TO.C,K15*%
X116344375Y-63420625D03*
X130194375Y-60880625D03*
%TD*%
M02*
