%TF.GenerationSoftware,KiCad,Pcbnew,6.0.4*%
%TF.CreationDate,2022-05-08T18:53:29+02:00*%
%TF.ProjectId,mykeeb,6d796b65-6562-42e6-9b69-6361645f7063,rev?*%
%TF.SameCoordinates,Original*%
%TF.FileFunction,Profile,NP*%
%FSLAX46Y46*%
G04 Gerber Fmt 4.6, Leading zero omitted, Abs format (unit mm)*
G04 Created by KiCad (PCBNEW 6.0.4) date 2022-05-08 18:53:29*
%MOMM*%
%LPD*%
G01*
G04 APERTURE LIST*
%TA.AperFunction,Profile*%
%ADD10C,0.100000*%
%TD*%
G04 APERTURE END LIST*
D10*
X101203107Y-27384357D02*
X112514157Y-27384398D01*
X114895409Y-29765650D01*
X131564173Y-29765650D01*
X136326677Y-34528113D01*
X150614189Y-34528154D01*
X152400128Y-36314093D01*
X152400128Y-46434414D01*
X154186067Y-48220353D01*
X156567319Y-48220353D01*
X159543781Y-51196918D01*
X159543884Y-68460995D01*
X157162632Y-70842247D01*
X154185964Y-70842247D01*
X152400025Y-72628186D01*
X152400025Y-98821917D01*
X150018773Y-101203169D01*
X136921887Y-101203169D01*
X132159383Y-105965673D01*
X113109367Y-105965673D01*
X110728115Y-103584421D01*
X95249977Y-103584421D01*
X91678099Y-100012543D01*
X76199961Y-100012543D01*
X73818709Y-102393795D01*
X67865579Y-102393795D01*
X65484327Y-104775047D01*
X65484327Y-108346925D01*
X61912449Y-111918803D01*
X58340571Y-111918803D01*
X55959319Y-114300055D01*
X19049913Y-114300055D01*
X17859287Y-113109429D01*
X17859287Y-39290617D01*
X19049913Y-38099991D01*
X42862433Y-38099991D01*
X46434311Y-34528113D01*
X46434311Y-32146861D01*
X50006189Y-28574983D01*
X53578067Y-28574983D01*
X55959319Y-26193731D01*
X69056205Y-26193731D01*
X75009335Y-20240601D01*
X94059351Y-20240601D01*
X101203107Y-27384357D01*
M02*
