%TF.GenerationSoftware,KiCad,Pcbnew,6.0.4*%
%TF.CreationDate,2022-05-08T18:53:29+02:00*%
%TF.ProjectId,mykeeb,6d796b65-6562-42e6-9b69-6361645f7063,rev?*%
%TF.SameCoordinates,Original*%
%TF.FileFunction,Legend,Top*%
%TF.FilePolarity,Positive*%
%FSLAX46Y46*%
G04 Gerber Fmt 4.6, Leading zero omitted, Abs format (unit mm)*
G04 Created by KiCad (PCBNEW 6.0.4) date 2022-05-08 18:53:29*
%MOMM*%
%LPD*%
G01*
G04 APERTURE LIST*
%ADD10C,0.150000*%
%ADD11C,0.200000*%
%ADD12C,0.120000*%
G04 APERTURE END LIST*
D10*
X20670112Y-56935762D02*
X20670112Y-57745286D01*
X20622493Y-57840524D01*
X20574874Y-57888143D01*
X20479636Y-57935762D01*
X20336778Y-57935762D01*
X20241540Y-57888143D01*
X20670112Y-57554809D02*
X20574874Y-57602428D01*
X20384398Y-57602428D01*
X20289159Y-57554809D01*
X20241540Y-57507190D01*
X20193921Y-57411952D01*
X20193921Y-57126238D01*
X20241540Y-57031000D01*
X20289159Y-56983381D01*
X20384398Y-56935762D01*
X20574874Y-56935762D01*
X20670112Y-56983381D01*
X21146302Y-57602428D02*
X21146302Y-56935762D01*
X21146302Y-56602428D02*
X21098683Y-56650048D01*
X21146302Y-56697667D01*
X21193921Y-56650048D01*
X21146302Y-56602428D01*
X21146302Y-56697667D01*
X21479636Y-56935762D02*
X21860588Y-56935762D01*
X21622493Y-56602428D02*
X21622493Y-57459571D01*
X21670112Y-57554809D01*
X21765350Y-57602428D01*
X21860588Y-57602428D01*
X22193921Y-57602428D02*
X22193921Y-56602428D01*
X22622493Y-57602428D02*
X22622493Y-57078619D01*
X22574874Y-56983381D01*
X22479636Y-56935762D01*
X22336778Y-56935762D01*
X22241540Y-56983381D01*
X22193921Y-57031000D01*
X23527255Y-56935762D02*
X23527255Y-57602428D01*
X23098683Y-56935762D02*
X23098683Y-57459571D01*
X23146302Y-57554809D01*
X23241540Y-57602428D01*
X23384398Y-57602428D01*
X23479636Y-57554809D01*
X23527255Y-57507190D01*
X24003445Y-57602428D02*
X24003445Y-56602428D01*
X24003445Y-56983381D02*
X24098683Y-56935762D01*
X24289159Y-56935762D01*
X24384398Y-56983381D01*
X24432017Y-57031000D01*
X24479636Y-57126238D01*
X24479636Y-57411952D01*
X24432017Y-57507190D01*
X24384398Y-57554809D01*
X24289159Y-57602428D01*
X24098683Y-57602428D01*
X24003445Y-57554809D01*
X24908207Y-57507190D02*
X24955826Y-57554809D01*
X24908207Y-57602428D01*
X24860588Y-57554809D01*
X24908207Y-57507190D01*
X24908207Y-57602428D01*
X25812969Y-57554809D02*
X25717731Y-57602428D01*
X25527255Y-57602428D01*
X25432017Y-57554809D01*
X25384398Y-57507190D01*
X25336778Y-57411952D01*
X25336778Y-57126238D01*
X25384398Y-57031000D01*
X25432017Y-56983381D01*
X25527255Y-56935762D01*
X25717731Y-56935762D01*
X25812969Y-56983381D01*
X26384398Y-57602428D02*
X26289159Y-57554809D01*
X26241540Y-57507190D01*
X26193921Y-57411952D01*
X26193921Y-57126238D01*
X26241540Y-57031000D01*
X26289159Y-56983381D01*
X26384398Y-56935762D01*
X26527255Y-56935762D01*
X26622493Y-56983381D01*
X26670112Y-57031000D01*
X26717731Y-57126238D01*
X26717731Y-57411952D01*
X26670112Y-57507190D01*
X26622493Y-57554809D01*
X26527255Y-57602428D01*
X26384398Y-57602428D01*
X27146302Y-57602428D02*
X27146302Y-56935762D01*
X27146302Y-57031000D02*
X27193921Y-56983381D01*
X27289159Y-56935762D01*
X27432017Y-56935762D01*
X27527255Y-56983381D01*
X27574874Y-57078619D01*
X27574874Y-57602428D01*
X27574874Y-57078619D02*
X27622493Y-56983381D01*
X27717731Y-56935762D01*
X27860588Y-56935762D01*
X27955826Y-56983381D01*
X28003445Y-57078619D01*
X28003445Y-57602428D01*
X29193921Y-56554809D02*
X28336778Y-57840524D01*
X29527255Y-57602428D02*
X29527255Y-56935762D01*
X29527255Y-57031000D02*
X29574874Y-56983381D01*
X29670112Y-56935762D01*
X29812969Y-56935762D01*
X29908207Y-56983381D01*
X29955826Y-57078619D01*
X29955826Y-57602428D01*
X29955826Y-57078619D02*
X30003445Y-56983381D01*
X30098683Y-56935762D01*
X30241540Y-56935762D01*
X30336778Y-56983381D01*
X30384398Y-57078619D01*
X30384398Y-57602428D01*
X31289159Y-57602428D02*
X31289159Y-57078619D01*
X31241540Y-56983381D01*
X31146302Y-56935762D01*
X30955826Y-56935762D01*
X30860588Y-56983381D01*
X31289159Y-57554809D02*
X31193921Y-57602428D01*
X30955826Y-57602428D01*
X30860588Y-57554809D01*
X30812969Y-57459571D01*
X30812969Y-57364333D01*
X30860588Y-57269095D01*
X30955826Y-57221476D01*
X31193921Y-57221476D01*
X31289159Y-57173857D01*
X31670112Y-57602428D02*
X32193921Y-56935762D01*
X31670112Y-56935762D02*
X32193921Y-57602428D01*
X32574874Y-57602428D02*
X32574874Y-56602428D01*
X33003445Y-57602428D02*
X33003445Y-57078619D01*
X32955826Y-56983381D01*
X32860588Y-56935762D01*
X32717731Y-56935762D01*
X32622493Y-56983381D01*
X32574874Y-57031000D01*
X33479636Y-57602428D02*
X33479636Y-56602428D01*
X33479636Y-56983381D02*
X33574874Y-56935762D01*
X33765350Y-56935762D01*
X33860588Y-56983381D01*
X33908207Y-57031000D01*
X33955826Y-57126238D01*
X33955826Y-57411952D01*
X33908207Y-57507190D01*
X33860588Y-57554809D01*
X33765350Y-57602428D01*
X33574874Y-57602428D01*
X33479636Y-57554809D01*
X34384398Y-57602428D02*
X34384398Y-56935762D01*
X34384398Y-57126238D02*
X34432017Y-57031000D01*
X34479636Y-56983381D01*
X34574874Y-56935762D01*
X34670112Y-56935762D01*
X134588506Y-54983081D02*
X136874221Y-54983081D01*
X135731364Y-56125938D02*
X135731364Y-53840224D01*
%TO.C,K16*%
X150391755Y-69079910D02*
X149391755Y-69079910D01*
X150391755Y-68508482D02*
X149820327Y-68937053D01*
X149391755Y-68508482D02*
X149963184Y-69079910D01*
X150391755Y-67556101D02*
X150391755Y-68127529D01*
X150391755Y-67841815D02*
X149391755Y-67841815D01*
X149534613Y-67937053D01*
X149629851Y-68032291D01*
X149677470Y-68127529D01*
X149391755Y-66698958D02*
X149391755Y-66889434D01*
X149439375Y-66984672D01*
X149486994Y-67032291D01*
X149629851Y-67127529D01*
X149820327Y-67175148D01*
X150201279Y-67175148D01*
X150296517Y-67127529D01*
X150344136Y-67079910D01*
X150391755Y-66984672D01*
X150391755Y-66794196D01*
X150344136Y-66698958D01*
X150296517Y-66651339D01*
X150201279Y-66603720D01*
X149963184Y-66603720D01*
X149867946Y-66651339D01*
X149820327Y-66698958D01*
X149772708Y-66794196D01*
X149772708Y-66984672D01*
X149820327Y-67079910D01*
X149867946Y-67127529D01*
X149963184Y-67175148D01*
%TO.C,J2*%
X93726120Y-55463054D02*
X93726120Y-56177340D01*
X93678501Y-56320197D01*
X93583263Y-56415435D01*
X93440406Y-56463054D01*
X93345168Y-56463054D01*
X94154692Y-55558293D02*
X94202311Y-55510674D01*
X94297549Y-55463054D01*
X94535644Y-55463054D01*
X94630882Y-55510674D01*
X94678501Y-55558293D01*
X94726120Y-55653531D01*
X94726120Y-55748769D01*
X94678501Y-55891626D01*
X94107073Y-56463054D01*
X94726120Y-56463054D01*
%TO.C,K26*%
X148034375Y-87233125D02*
X148034375Y-87614125D01*
X148684375Y-84678125D02*
X148684375Y-85678125D01*
X148684375Y-97678125D02*
X148684375Y-98678125D01*
X147684375Y-84678125D02*
X148684375Y-84678125D01*
X134684375Y-98678125D02*
X134684375Y-97678125D01*
X145494375Y-84693125D02*
X136604375Y-84693125D01*
X134684375Y-84678125D02*
X135684375Y-84678125D01*
X136604375Y-84693125D02*
X136604375Y-85074125D01*
X136604375Y-88122125D02*
X136604375Y-88503125D01*
X147653375Y-91043125D02*
X148034375Y-91043125D01*
X134684375Y-85074125D02*
X134684375Y-84678125D01*
X135684375Y-98678125D02*
X134684375Y-98678125D01*
X148684375Y-98678125D02*
X147684375Y-98678125D01*
X148034375Y-91043125D02*
X148034375Y-90662125D01*
X144224375Y-91043125D02*
X145875375Y-91043125D01*
X139398375Y-89138125D02*
X141684375Y-89138125D01*
X144224374Y-91043126D02*
G75*
G03*
X141684376Y-89059954I-2539999J-634999D01*
G01*
X148034375Y-87233125D02*
G75*
G03*
X145494375Y-84693125I-2540000J0D01*
G01*
D11*
%TO.C,D33*%
X92186125Y-87277625D02*
X91424125Y-87477625D01*
X90978125Y-87277625D02*
X90978125Y-92077625D01*
X92378125Y-87477625D02*
X90978125Y-87477625D01*
X92378125Y-92077625D02*
X90978125Y-92077625D01*
X91678125Y-89677625D02*
X91678125Y-89377625D01*
X92378125Y-87423625D02*
X92378125Y-92077625D01*
X92028125Y-90277625D02*
X91278125Y-90277625D01*
X92028125Y-89677625D02*
X91278125Y-89677625D01*
X92378125Y-87877625D02*
X90978125Y-87877625D01*
X91278125Y-90277625D02*
X91678125Y-89677625D01*
X91678125Y-90277625D02*
X91678125Y-90577625D01*
X92378125Y-87677625D02*
X90978125Y-87677625D01*
X91678125Y-89677625D02*
X92028125Y-90277625D01*
X92186125Y-87277625D02*
X92378125Y-87423625D01*
X91424125Y-87477625D02*
X90978125Y-87277625D01*
D10*
%TO.C,K14*%
X107394375Y-48974375D02*
X98504375Y-48974375D01*
X109934375Y-55324375D02*
X109934375Y-54943375D01*
X109934375Y-51514375D02*
X109934375Y-51895375D01*
X110584375Y-62959375D02*
X109584375Y-62959375D01*
X110584375Y-61959375D02*
X110584375Y-62959375D01*
X101298375Y-53419375D02*
X103584375Y-53419375D01*
X98504375Y-52403375D02*
X98504375Y-52784375D01*
X109553375Y-55324375D02*
X109934375Y-55324375D01*
X96584375Y-49355375D02*
X96584375Y-48959375D01*
X109584375Y-48959375D02*
X110584375Y-48959375D01*
X110584375Y-48959375D02*
X110584375Y-49959375D01*
X97584375Y-62959375D02*
X96584375Y-62959375D01*
X106124375Y-55324375D02*
X107775375Y-55324375D01*
X96584375Y-62959375D02*
X96584375Y-61959375D01*
X98504375Y-48974375D02*
X98504375Y-49355375D01*
X96584375Y-48959375D02*
X97584375Y-48959375D01*
X106124374Y-55324376D02*
G75*
G03*
X103584376Y-53341204I-2539999J-634999D01*
G01*
X109934375Y-51514375D02*
G75*
G03*
X107394375Y-48974375I-2540000J0D01*
G01*
%TO.C,K12*%
X60404375Y-51212750D02*
X60404375Y-51593750D01*
X71453375Y-54133750D02*
X71834375Y-54133750D01*
X58484375Y-61768750D02*
X58484375Y-60768750D01*
X71834375Y-50323750D02*
X71834375Y-50704750D01*
X58484375Y-48164750D02*
X58484375Y-47768750D01*
X72484375Y-60768750D02*
X72484375Y-61768750D01*
X69294375Y-47783750D02*
X60404375Y-47783750D01*
X60404375Y-47783750D02*
X60404375Y-48164750D01*
X72484375Y-47768750D02*
X72484375Y-48768750D01*
X58484375Y-47768750D02*
X59484375Y-47768750D01*
X63198375Y-52228750D02*
X65484375Y-52228750D01*
X59484375Y-61768750D02*
X58484375Y-61768750D01*
X71834375Y-54133750D02*
X71834375Y-53752750D01*
X68024375Y-54133750D02*
X69675375Y-54133750D01*
X71484375Y-47768750D02*
X72484375Y-47768750D01*
X72484375Y-61768750D02*
X71484375Y-61768750D01*
X68024374Y-54133751D02*
G75*
G03*
X65484376Y-52150579I-2539999J-634999D01*
G01*
X71834375Y-50323750D02*
G75*
G03*
X69294375Y-47783750I-2540000J0D01*
G01*
D11*
%TO.C,D32*%
X72228125Y-96230750D02*
X72628125Y-95630750D01*
X73328125Y-98030750D02*
X71928125Y-98030750D01*
X73136125Y-93230750D02*
X73328125Y-93376750D01*
X72374125Y-93430750D02*
X71928125Y-93230750D01*
X73328125Y-93376750D02*
X73328125Y-98030750D01*
X72628125Y-95630750D02*
X72978125Y-96230750D01*
X72628125Y-95630750D02*
X72628125Y-95330750D01*
X72978125Y-95630750D02*
X72228125Y-95630750D01*
X73328125Y-93430750D02*
X71928125Y-93430750D01*
X71928125Y-93230750D02*
X71928125Y-98030750D01*
X73328125Y-93830750D02*
X71928125Y-93830750D01*
X72628125Y-96230750D02*
X72628125Y-96530750D01*
X72978125Y-96230750D02*
X72228125Y-96230750D01*
X73136125Y-93230750D02*
X72374125Y-93430750D01*
X73328125Y-93630750D02*
X71928125Y-93630750D01*
D10*
%TO.C,K22*%
X72484375Y-66818750D02*
X72484375Y-67818750D01*
X71453375Y-73183750D02*
X71834375Y-73183750D01*
X58484375Y-80818750D02*
X58484375Y-79818750D01*
X72484375Y-80818750D02*
X71484375Y-80818750D01*
X68024375Y-73183750D02*
X69675375Y-73183750D01*
X58484375Y-67214750D02*
X58484375Y-66818750D01*
X63198375Y-71278750D02*
X65484375Y-71278750D01*
X71834375Y-69373750D02*
X71834375Y-69754750D01*
X58484375Y-66818750D02*
X59484375Y-66818750D01*
X69294375Y-66833750D02*
X60404375Y-66833750D01*
X60404375Y-66833750D02*
X60404375Y-67214750D01*
X59484375Y-80818750D02*
X58484375Y-80818750D01*
X71484375Y-66818750D02*
X72484375Y-66818750D01*
X72484375Y-79818750D02*
X72484375Y-80818750D01*
X71834375Y-73183750D02*
X71834375Y-72802750D01*
X60404375Y-70262750D02*
X60404375Y-70643750D01*
X71834375Y-69373750D02*
G75*
G03*
X69294375Y-66833750I-2540000J0D01*
G01*
X68024374Y-73183751D02*
G75*
G03*
X65484376Y-71200579I-2539999J-634999D01*
G01*
D11*
%TO.C,D10*%
X34528125Y-69437000D02*
X34878125Y-70037000D01*
X35228125Y-67183000D02*
X35228125Y-71837000D01*
X35228125Y-71837000D02*
X33828125Y-71837000D01*
X34128125Y-70037000D02*
X34528125Y-69437000D01*
X35036125Y-67037000D02*
X34274125Y-67237000D01*
X35228125Y-67437000D02*
X33828125Y-67437000D01*
X34274125Y-67237000D02*
X33828125Y-67037000D01*
X34528125Y-70037000D02*
X34528125Y-70337000D01*
X35228125Y-67637000D02*
X33828125Y-67637000D01*
X34878125Y-69437000D02*
X34128125Y-69437000D01*
X34528125Y-69437000D02*
X34528125Y-69137000D01*
X35036125Y-67037000D02*
X35228125Y-67183000D01*
X33828125Y-67037000D02*
X33828125Y-71837000D01*
X35228125Y-67237000D02*
X33828125Y-67237000D01*
X34878125Y-70037000D02*
X34128125Y-70037000D01*
%TO.C,D2*%
X73328125Y-40880750D02*
X71928125Y-40880750D01*
X72628125Y-39080750D02*
X72628125Y-39380750D01*
X73328125Y-36480750D02*
X71928125Y-36480750D01*
X72978125Y-39080750D02*
X72228125Y-39080750D01*
X72228125Y-39080750D02*
X72628125Y-38480750D01*
X73136125Y-36080750D02*
X73328125Y-36226750D01*
X72978125Y-38480750D02*
X72228125Y-38480750D01*
X72374125Y-36280750D02*
X71928125Y-36080750D01*
X72628125Y-38480750D02*
X72978125Y-39080750D01*
X73328125Y-36680750D02*
X71928125Y-36680750D01*
X72628125Y-38480750D02*
X72628125Y-38180750D01*
X71928125Y-36080750D02*
X71928125Y-40880750D01*
X73328125Y-36280750D02*
X71928125Y-36280750D01*
X73328125Y-36226750D02*
X73328125Y-40880750D01*
X73136125Y-36080750D02*
X72374125Y-36280750D01*
D10*
%TO.C,K30*%
X33384375Y-97775000D02*
X34384375Y-97775000D01*
X33353375Y-104140000D02*
X33734375Y-104140000D01*
X22304375Y-97790000D02*
X22304375Y-98171000D01*
X29924375Y-104140000D02*
X31575375Y-104140000D01*
X25098375Y-102235000D02*
X27384375Y-102235000D01*
X22304375Y-101219000D02*
X22304375Y-101600000D01*
X34384375Y-110775000D02*
X34384375Y-111775000D01*
X20384375Y-98171000D02*
X20384375Y-97775000D01*
X21384375Y-111775000D02*
X20384375Y-111775000D01*
X33734375Y-100330000D02*
X33734375Y-100711000D01*
X31194375Y-97790000D02*
X22304375Y-97790000D01*
X34384375Y-111775000D02*
X33384375Y-111775000D01*
X34384375Y-97775000D02*
X34384375Y-98775000D01*
X33734375Y-104140000D02*
X33734375Y-103759000D01*
X20384375Y-97775000D02*
X21384375Y-97775000D01*
X20384375Y-111775000D02*
X20384375Y-110775000D01*
X29924374Y-104140001D02*
G75*
G03*
X27384376Y-102156829I-2539999J-634999D01*
G01*
X33734375Y-100330000D02*
G75*
G03*
X31194375Y-97790000I-2540000J0D01*
G01*
D11*
%TO.C,D14*%
X110728125Y-58721375D02*
X111078125Y-59321375D01*
X111078125Y-58721375D02*
X110328125Y-58721375D01*
X111428125Y-56521375D02*
X110028125Y-56521375D01*
X111428125Y-56467375D02*
X111428125Y-61121375D01*
X111236125Y-56321375D02*
X111428125Y-56467375D01*
X111428125Y-56921375D02*
X110028125Y-56921375D01*
X110328125Y-59321375D02*
X110728125Y-58721375D01*
X110474125Y-56521375D02*
X110028125Y-56321375D01*
X111236125Y-56321375D02*
X110474125Y-56521375D01*
X111078125Y-59321375D02*
X110328125Y-59321375D01*
X111428125Y-56721375D02*
X110028125Y-56721375D01*
X110028125Y-56321375D02*
X110028125Y-61121375D01*
X110728125Y-58721375D02*
X110728125Y-58421375D01*
X111428125Y-61121375D02*
X110028125Y-61121375D01*
X110728125Y-59321375D02*
X110728125Y-59621375D01*
%TO.C,D5*%
X130286125Y-39652625D02*
X130478125Y-39798625D01*
X130478125Y-39798625D02*
X130478125Y-44452625D01*
X130478125Y-40252625D02*
X129078125Y-40252625D01*
X129778125Y-42052625D02*
X129778125Y-41752625D01*
X130128125Y-42052625D02*
X129378125Y-42052625D01*
X129778125Y-42052625D02*
X130128125Y-42652625D01*
X130478125Y-39852625D02*
X129078125Y-39852625D01*
X129778125Y-42652625D02*
X129778125Y-42952625D01*
X130478125Y-40052625D02*
X129078125Y-40052625D01*
X129524125Y-39852625D02*
X129078125Y-39652625D01*
X130478125Y-44452625D02*
X129078125Y-44452625D01*
X130128125Y-42652625D02*
X129378125Y-42652625D01*
X130286125Y-39652625D02*
X129524125Y-39852625D01*
X129378125Y-42652625D02*
X129778125Y-42052625D01*
X129078125Y-39652625D02*
X129078125Y-44452625D01*
%TO.C,D15*%
X130478125Y-59302625D02*
X129078125Y-59302625D01*
X129078125Y-58702625D02*
X129078125Y-63502625D01*
X130128125Y-61102625D02*
X129378125Y-61102625D01*
X130478125Y-58848625D02*
X130478125Y-63502625D01*
X130478125Y-63502625D02*
X129078125Y-63502625D01*
X129524125Y-58902625D02*
X129078125Y-58702625D01*
X129778125Y-61102625D02*
X130128125Y-61702625D01*
X130478125Y-58902625D02*
X129078125Y-58902625D01*
X129778125Y-61102625D02*
X129778125Y-60802625D01*
X130478125Y-59102625D02*
X129078125Y-59102625D01*
X130286125Y-58702625D02*
X129524125Y-58902625D01*
X129378125Y-61702625D02*
X129778125Y-61102625D01*
X130128125Y-61702625D02*
X129378125Y-61702625D01*
X129778125Y-61702625D02*
X129778125Y-62002625D01*
X130286125Y-58702625D02*
X130478125Y-58848625D01*
%TO.C,D36*%
X146642712Y-55468755D02*
X146642712Y-54068755D01*
X148442712Y-55118755D02*
X148442712Y-54368755D01*
X149042712Y-55118755D02*
X149042712Y-54368755D01*
X151442712Y-55276755D02*
X151242712Y-54514755D01*
X150842712Y-55468755D02*
X150842712Y-54068755D01*
X149042712Y-54768755D02*
X148442712Y-55118755D01*
X148442712Y-54768755D02*
X148142712Y-54768755D01*
X149042712Y-54768755D02*
X149342712Y-54768755D01*
X151296712Y-55468755D02*
X146642712Y-55468755D01*
X151242712Y-55468755D02*
X151242712Y-54068755D01*
X151242712Y-54514755D02*
X151442712Y-54068755D01*
X151442712Y-54068755D02*
X146642712Y-54068755D01*
X148442712Y-54368755D02*
X149042712Y-54768755D01*
X151042712Y-55468755D02*
X151042712Y-54068755D01*
X151442712Y-55276755D02*
X151296712Y-55468755D01*
%TO.C,D11*%
X52878125Y-67037000D02*
X52878125Y-71837000D01*
X54278125Y-67237000D02*
X52878125Y-67237000D01*
X54278125Y-67183000D02*
X54278125Y-71837000D01*
X54086125Y-67037000D02*
X54278125Y-67183000D01*
X53578125Y-69437000D02*
X53578125Y-69137000D01*
X54278125Y-67437000D02*
X52878125Y-67437000D01*
X53928125Y-69437000D02*
X53178125Y-69437000D01*
X53928125Y-70037000D02*
X53178125Y-70037000D01*
X54278125Y-67637000D02*
X52878125Y-67637000D01*
X53578125Y-69437000D02*
X53928125Y-70037000D01*
X54086125Y-67037000D02*
X53324125Y-67237000D01*
X54278125Y-71837000D02*
X52878125Y-71837000D01*
X53578125Y-70037000D02*
X53578125Y-70337000D01*
X53324125Y-67237000D02*
X52878125Y-67037000D01*
X53178125Y-70037000D02*
X53578125Y-69437000D01*
D10*
%TO.C,K31*%
X52784375Y-100330000D02*
X52784375Y-100711000D01*
X39434375Y-98171000D02*
X39434375Y-97775000D01*
X53434375Y-110775000D02*
X53434375Y-111775000D01*
X41354375Y-101219000D02*
X41354375Y-101600000D01*
X39434375Y-97775000D02*
X40434375Y-97775000D01*
X52434375Y-97775000D02*
X53434375Y-97775000D01*
X53434375Y-97775000D02*
X53434375Y-98775000D01*
X53434375Y-111775000D02*
X52434375Y-111775000D01*
X50244375Y-97790000D02*
X41354375Y-97790000D01*
X41354375Y-97790000D02*
X41354375Y-98171000D01*
X39434375Y-111775000D02*
X39434375Y-110775000D01*
X44148375Y-102235000D02*
X46434375Y-102235000D01*
X52403375Y-104140000D02*
X52784375Y-104140000D01*
X40434375Y-111775000D02*
X39434375Y-111775000D01*
X52784375Y-104140000D02*
X52784375Y-103759000D01*
X48974375Y-104140000D02*
X50625375Y-104140000D01*
X48974374Y-104140001D02*
G75*
G03*
X46434376Y-102156829I-2539999J-634999D01*
G01*
X52784375Y-100330000D02*
G75*
G03*
X50244375Y-97790000I-2540000J0D01*
G01*
D11*
%TO.C,D16*%
X141122375Y-74755375D02*
X141322375Y-74309375D01*
X136522375Y-75709375D02*
X136522375Y-74309375D01*
X141122375Y-75709375D02*
X141122375Y-74309375D01*
X141322375Y-75517375D02*
X141176375Y-75709375D01*
X138322375Y-75009375D02*
X138022375Y-75009375D01*
X141176375Y-75709375D02*
X136522375Y-75709375D01*
X141322375Y-75517375D02*
X141122375Y-74755375D01*
X138922375Y-75009375D02*
X139222375Y-75009375D01*
X138322375Y-74609375D02*
X138922375Y-75009375D01*
X141322375Y-74309375D02*
X136522375Y-74309375D01*
X138922375Y-75009375D02*
X138322375Y-75359375D01*
X138922375Y-75359375D02*
X138922375Y-74609375D01*
X140922375Y-75709375D02*
X140922375Y-74309375D01*
X140722375Y-75709375D02*
X140722375Y-74309375D01*
X138322375Y-75359375D02*
X138322375Y-74609375D01*
D10*
%TO.C,K20*%
X33734375Y-81280000D02*
X33734375Y-81661000D01*
X34384375Y-91725000D02*
X34384375Y-92725000D01*
X20384375Y-78725000D02*
X21384375Y-78725000D01*
X22304375Y-82169000D02*
X22304375Y-82550000D01*
X20384375Y-92725000D02*
X20384375Y-91725000D01*
X34384375Y-78725000D02*
X34384375Y-79725000D01*
X25098375Y-83185000D02*
X27384375Y-83185000D01*
X33353375Y-85090000D02*
X33734375Y-85090000D01*
X22304375Y-78740000D02*
X22304375Y-79121000D01*
X33384375Y-78725000D02*
X34384375Y-78725000D01*
X21384375Y-92725000D02*
X20384375Y-92725000D01*
X33734375Y-85090000D02*
X33734375Y-84709000D01*
X34384375Y-92725000D02*
X33384375Y-92725000D01*
X20384375Y-79121000D02*
X20384375Y-78725000D01*
X29924375Y-85090000D02*
X31575375Y-85090000D01*
X31194375Y-78740000D02*
X22304375Y-78740000D01*
X33734375Y-81280000D02*
G75*
G03*
X31194375Y-78740000I-2540000J0D01*
G01*
X29924374Y-85090001D02*
G75*
G03*
X27384376Y-83106829I-2539999J-634999D01*
G01*
D11*
%TO.C,D30*%
X35036125Y-105137000D02*
X34274125Y-105337000D01*
X34128125Y-108137000D02*
X34528125Y-107537000D01*
X35228125Y-105337000D02*
X33828125Y-105337000D01*
X34878125Y-108137000D02*
X34128125Y-108137000D01*
X34878125Y-107537000D02*
X34128125Y-107537000D01*
X35228125Y-105537000D02*
X33828125Y-105537000D01*
X35228125Y-105737000D02*
X33828125Y-105737000D01*
X34274125Y-105337000D02*
X33828125Y-105137000D01*
X35228125Y-109937000D02*
X33828125Y-109937000D01*
X34528125Y-107537000D02*
X34878125Y-108137000D01*
X35036125Y-105137000D02*
X35228125Y-105283000D01*
X33828125Y-105137000D02*
X33828125Y-109937000D01*
X34528125Y-107537000D02*
X34528125Y-107237000D01*
X34528125Y-108137000D02*
X34528125Y-108437000D01*
X35228125Y-105283000D02*
X35228125Y-109937000D01*
%TO.C,D25*%
X130128125Y-80752625D02*
X129378125Y-80752625D01*
X129778125Y-80152625D02*
X129778125Y-79852625D01*
X130286125Y-77752625D02*
X129524125Y-77952625D01*
X130128125Y-80152625D02*
X129378125Y-80152625D01*
X130478125Y-78352625D02*
X129078125Y-78352625D01*
X129778125Y-80152625D02*
X130128125Y-80752625D01*
X130478125Y-78152625D02*
X129078125Y-78152625D01*
X130478125Y-77898625D02*
X130478125Y-82552625D01*
X129524125Y-77952625D02*
X129078125Y-77752625D01*
X130478125Y-77952625D02*
X129078125Y-77952625D01*
X129378125Y-80752625D02*
X129778125Y-80152625D01*
X130286125Y-77752625D02*
X130478125Y-77898625D01*
X130478125Y-82552625D02*
X129078125Y-82552625D01*
X129778125Y-80752625D02*
X129778125Y-81052625D01*
X129078125Y-77752625D02*
X129078125Y-82552625D01*
%TO.C,D0*%
X35228125Y-48133000D02*
X35228125Y-52787000D01*
X34528125Y-50387000D02*
X34878125Y-50987000D01*
X34528125Y-50987000D02*
X34528125Y-51287000D01*
X34878125Y-50987000D02*
X34128125Y-50987000D01*
X35036125Y-47987000D02*
X35228125Y-48133000D01*
X34528125Y-50387000D02*
X34528125Y-50087000D01*
X33828125Y-47987000D02*
X33828125Y-52787000D01*
X35036125Y-47987000D02*
X34274125Y-48187000D01*
X34878125Y-50387000D02*
X34128125Y-50387000D01*
X35228125Y-48387000D02*
X33828125Y-48387000D01*
X35228125Y-48587000D02*
X33828125Y-48587000D01*
X34128125Y-50987000D02*
X34528125Y-50387000D01*
X35228125Y-48187000D02*
X33828125Y-48187000D01*
X34274125Y-48187000D02*
X33828125Y-47987000D01*
X35228125Y-52787000D02*
X33828125Y-52787000D01*
D12*
%TO.C,SW36*%
X158626590Y-58209381D02*
X158626590Y-53709381D01*
X154626590Y-59459381D02*
X156126590Y-59459381D01*
X152126590Y-53709381D02*
X152126590Y-58209381D01*
X156126590Y-52459381D02*
X154626590Y-52459381D01*
D11*
%TO.C,D4*%
X110328125Y-40271375D02*
X110728125Y-39671375D01*
X111428125Y-37671375D02*
X110028125Y-37671375D01*
X111428125Y-37417375D02*
X111428125Y-42071375D01*
X111428125Y-37471375D02*
X110028125Y-37471375D01*
X111236125Y-37271375D02*
X111428125Y-37417375D01*
X110728125Y-40271375D02*
X110728125Y-40571375D01*
X111428125Y-37871375D02*
X110028125Y-37871375D01*
X111078125Y-39671375D02*
X110328125Y-39671375D01*
X110728125Y-39671375D02*
X111078125Y-40271375D01*
X110728125Y-39671375D02*
X110728125Y-39371375D01*
X111236125Y-37271375D02*
X110474125Y-37471375D01*
X111428125Y-42071375D02*
X110028125Y-42071375D01*
X110474125Y-37471375D02*
X110028125Y-37271375D01*
X111078125Y-40271375D02*
X110328125Y-40271375D01*
X110028125Y-37271375D02*
X110028125Y-42071375D01*
D10*
%TO.C,K11*%
X52784375Y-66040000D02*
X52784375Y-65659000D01*
X48974375Y-66040000D02*
X50625375Y-66040000D01*
X39434375Y-59675000D02*
X40434375Y-59675000D01*
X50244375Y-59690000D02*
X41354375Y-59690000D01*
X52403375Y-66040000D02*
X52784375Y-66040000D01*
X39434375Y-60071000D02*
X39434375Y-59675000D01*
X41354375Y-59690000D02*
X41354375Y-60071000D01*
X40434375Y-73675000D02*
X39434375Y-73675000D01*
X44148375Y-64135000D02*
X46434375Y-64135000D01*
X52434375Y-59675000D02*
X53434375Y-59675000D01*
X53434375Y-59675000D02*
X53434375Y-60675000D01*
X39434375Y-73675000D02*
X39434375Y-72675000D01*
X53434375Y-72675000D02*
X53434375Y-73675000D01*
X41354375Y-63119000D02*
X41354375Y-63500000D01*
X52784375Y-62230000D02*
X52784375Y-62611000D01*
X53434375Y-73675000D02*
X52434375Y-73675000D01*
X52784375Y-62230000D02*
G75*
G03*
X50244375Y-59690000I-2540000J0D01*
G01*
X48974374Y-66040001D02*
G75*
G03*
X46434376Y-64056829I-2539999J-634999D01*
G01*
%TO.C,K4*%
X109934375Y-32464375D02*
X109934375Y-32845375D01*
X109584375Y-29909375D02*
X110584375Y-29909375D01*
X98504375Y-29924375D02*
X98504375Y-30305375D01*
X96584375Y-30305375D02*
X96584375Y-29909375D01*
X98504375Y-33353375D02*
X98504375Y-33734375D01*
X109934375Y-36274375D02*
X109934375Y-35893375D01*
X110584375Y-29909375D02*
X110584375Y-30909375D01*
X110584375Y-43909375D02*
X109584375Y-43909375D01*
X96584375Y-43909375D02*
X96584375Y-42909375D01*
X110584375Y-42909375D02*
X110584375Y-43909375D01*
X109553375Y-36274375D02*
X109934375Y-36274375D01*
X96584375Y-29909375D02*
X97584375Y-29909375D01*
X107394375Y-29924375D02*
X98504375Y-29924375D01*
X101298375Y-34369375D02*
X103584375Y-34369375D01*
X97584375Y-43909375D02*
X96584375Y-43909375D01*
X106124375Y-36274375D02*
X107775375Y-36274375D01*
X106124374Y-36274376D02*
G75*
G03*
X103584376Y-34291204I-2539999J-634999D01*
G01*
X109934375Y-32464375D02*
G75*
G03*
X107394375Y-29924375I-2540000J0D01*
G01*
D11*
%TO.C,D31*%
X54278125Y-105537000D02*
X52878125Y-105537000D01*
X53928125Y-108137000D02*
X53178125Y-108137000D01*
X54086125Y-105137000D02*
X53324125Y-105337000D01*
X53324125Y-105337000D02*
X52878125Y-105137000D01*
X53178125Y-108137000D02*
X53578125Y-107537000D01*
X53578125Y-107537000D02*
X53928125Y-108137000D01*
X53578125Y-107537000D02*
X53578125Y-107237000D01*
X54086125Y-105137000D02*
X54278125Y-105283000D01*
X53578125Y-108137000D02*
X53578125Y-108437000D01*
X54278125Y-105283000D02*
X54278125Y-109937000D01*
X54278125Y-105737000D02*
X52878125Y-105737000D01*
X52878125Y-105137000D02*
X52878125Y-109937000D01*
X53928125Y-107537000D02*
X53178125Y-107537000D01*
X54278125Y-105337000D02*
X52878125Y-105337000D01*
X54278125Y-109937000D02*
X52878125Y-109937000D01*
D10*
%TO.C,K10*%
X34384375Y-73675000D02*
X33384375Y-73675000D01*
X34384375Y-59675000D02*
X34384375Y-60675000D01*
X20384375Y-59675000D02*
X21384375Y-59675000D01*
X20384375Y-60071000D02*
X20384375Y-59675000D01*
X34384375Y-72675000D02*
X34384375Y-73675000D01*
X31194375Y-59690000D02*
X22304375Y-59690000D01*
X20384375Y-73675000D02*
X20384375Y-72675000D01*
X22304375Y-59690000D02*
X22304375Y-60071000D01*
X33353375Y-66040000D02*
X33734375Y-66040000D01*
X21384375Y-73675000D02*
X20384375Y-73675000D01*
X33734375Y-66040000D02*
X33734375Y-65659000D01*
X22304375Y-63119000D02*
X22304375Y-63500000D01*
X33734375Y-62230000D02*
X33734375Y-62611000D01*
X33384375Y-59675000D02*
X34384375Y-59675000D01*
X25098375Y-64135000D02*
X27384375Y-64135000D01*
X29924375Y-66040000D02*
X31575375Y-66040000D01*
X29924374Y-66040001D02*
G75*
G03*
X27384376Y-64056829I-2539999J-634999D01*
G01*
X33734375Y-62230000D02*
G75*
G03*
X31194375Y-59690000I-2540000J0D01*
G01*
D11*
%TO.C,D3*%
X91424125Y-30327625D02*
X90978125Y-30127625D01*
X91678125Y-33127625D02*
X91678125Y-33427625D01*
X92378125Y-30273625D02*
X92378125Y-34927625D01*
X92028125Y-32527625D02*
X91278125Y-32527625D01*
X92378125Y-30727625D02*
X90978125Y-30727625D01*
X92028125Y-33127625D02*
X91278125Y-33127625D01*
X91678125Y-32527625D02*
X91678125Y-32227625D01*
X90978125Y-30127625D02*
X90978125Y-34927625D01*
X92378125Y-30527625D02*
X90978125Y-30527625D01*
X92378125Y-34927625D02*
X90978125Y-34927625D01*
X92186125Y-30127625D02*
X91424125Y-30327625D01*
X92186125Y-30127625D02*
X92378125Y-30273625D01*
X92378125Y-30327625D02*
X90978125Y-30327625D01*
X91678125Y-32527625D02*
X92028125Y-33127625D01*
X91278125Y-33127625D02*
X91678125Y-32527625D01*
%TO.C,D13*%
X92378125Y-49577625D02*
X90978125Y-49577625D01*
X92378125Y-49777625D02*
X90978125Y-49777625D01*
X90978125Y-49177625D02*
X90978125Y-53977625D01*
X91678125Y-52177625D02*
X91678125Y-52477625D01*
X92186125Y-49177625D02*
X92378125Y-49323625D01*
X91678125Y-51577625D02*
X92028125Y-52177625D01*
X92378125Y-49377625D02*
X90978125Y-49377625D01*
X92378125Y-53977625D02*
X90978125Y-53977625D01*
X91424125Y-49377625D02*
X90978125Y-49177625D01*
X91678125Y-51577625D02*
X91678125Y-51277625D01*
X92186125Y-49177625D02*
X91424125Y-49377625D01*
X91278125Y-52177625D02*
X91678125Y-51577625D01*
X92028125Y-52177625D02*
X91278125Y-52177625D01*
X92028125Y-51577625D02*
X91278125Y-51577625D01*
X92378125Y-49323625D02*
X92378125Y-53977625D01*
%TO.C,D20*%
X35228125Y-86687000D02*
X33828125Y-86687000D01*
X35228125Y-86487000D02*
X33828125Y-86487000D01*
X34128125Y-89087000D02*
X34528125Y-88487000D01*
X33828125Y-86087000D02*
X33828125Y-90887000D01*
X34528125Y-88487000D02*
X34528125Y-88187000D01*
X35036125Y-86087000D02*
X34274125Y-86287000D01*
X35228125Y-86287000D02*
X33828125Y-86287000D01*
X34878125Y-88487000D02*
X34128125Y-88487000D01*
X35228125Y-86233000D02*
X35228125Y-90887000D01*
X34528125Y-88487000D02*
X34878125Y-89087000D01*
X34878125Y-89087000D02*
X34128125Y-89087000D01*
X34274125Y-86287000D02*
X33828125Y-86087000D01*
X35228125Y-90887000D02*
X33828125Y-90887000D01*
X34528125Y-89087000D02*
X34528125Y-89387000D01*
X35036125Y-86087000D02*
X35228125Y-86233000D01*
D10*
%TO.C,K3*%
X77534375Y-22765625D02*
X78534375Y-22765625D01*
X91534375Y-22765625D02*
X91534375Y-23765625D01*
X79454375Y-22780625D02*
X79454375Y-23161625D01*
X87074375Y-29130625D02*
X88725375Y-29130625D01*
X79454375Y-26209625D02*
X79454375Y-26590625D01*
X77534375Y-23161625D02*
X77534375Y-22765625D01*
X90884375Y-29130625D02*
X90884375Y-28749625D01*
X91534375Y-36765625D02*
X90534375Y-36765625D01*
X90884375Y-25320625D02*
X90884375Y-25701625D01*
X82248375Y-27225625D02*
X84534375Y-27225625D01*
X90534375Y-22765625D02*
X91534375Y-22765625D01*
X78534375Y-36765625D02*
X77534375Y-36765625D01*
X77534375Y-36765625D02*
X77534375Y-35765625D01*
X91534375Y-35765625D02*
X91534375Y-36765625D01*
X88344375Y-22780625D02*
X79454375Y-22780625D01*
X90503375Y-29130625D02*
X90884375Y-29130625D01*
X90884375Y-25320625D02*
G75*
G03*
X88344375Y-22780625I-2540000J0D01*
G01*
X87074374Y-29130626D02*
G75*
G03*
X84534376Y-27147454I-2539999J-634999D01*
G01*
D11*
%TO.C,D23*%
X92378125Y-73027625D02*
X90978125Y-73027625D01*
X92186125Y-68227625D02*
X92378125Y-68373625D01*
X92378125Y-68427625D02*
X90978125Y-68427625D01*
X92186125Y-68227625D02*
X91424125Y-68427625D01*
X92028125Y-71227625D02*
X91278125Y-71227625D01*
X91424125Y-68427625D02*
X90978125Y-68227625D01*
X91678125Y-70627625D02*
X92028125Y-71227625D01*
X92028125Y-70627625D02*
X91278125Y-70627625D01*
X91678125Y-71227625D02*
X91678125Y-71527625D01*
X91278125Y-71227625D02*
X91678125Y-70627625D01*
X92378125Y-68827625D02*
X90978125Y-68827625D01*
X91678125Y-70627625D02*
X91678125Y-70327625D01*
X90978125Y-68227625D02*
X90978125Y-73027625D01*
X92378125Y-68627625D02*
X90978125Y-68627625D01*
X92378125Y-68373625D02*
X92378125Y-73027625D01*
D10*
%TO.C,K16*%
X142319375Y-73834625D02*
X142319375Y-74215625D01*
X142319375Y-74215625D02*
X142700375Y-74215625D01*
X148669375Y-62785625D02*
X148288375Y-62785625D01*
X148684375Y-73865625D02*
X148684375Y-74865625D01*
X148288375Y-60865625D02*
X148684375Y-60865625D01*
X148684375Y-60865625D02*
X148684375Y-61865625D01*
X134684375Y-61865625D02*
X134684375Y-60865625D01*
X145240375Y-62785625D02*
X144859375Y-62785625D01*
X148669375Y-71675625D02*
X148669375Y-62785625D01*
X146129375Y-74215625D02*
X145748375Y-74215625D01*
X134684375Y-74865625D02*
X134684375Y-73865625D01*
X134684375Y-60865625D02*
X135684375Y-60865625D01*
X144224375Y-65579625D02*
X144224375Y-67865625D01*
X142319375Y-70405625D02*
X142319375Y-72056625D01*
X135684375Y-74865625D02*
X134684375Y-74865625D01*
X148684375Y-74865625D02*
X147684375Y-74865625D01*
X142319374Y-70405624D02*
G75*
G03*
X144302546Y-67865626I-634999J2539999D01*
G01*
X146129375Y-74215625D02*
G75*
G03*
X148669375Y-71675625I0J2540000D01*
G01*
%TO.C,K35*%
X117554375Y-89455625D02*
X117554375Y-89836625D01*
X128603375Y-95805625D02*
X128984375Y-95805625D01*
X129634375Y-89440625D02*
X129634375Y-90440625D01*
X128984375Y-95805625D02*
X128984375Y-95424625D01*
X129634375Y-103440625D02*
X128634375Y-103440625D01*
X126444375Y-89455625D02*
X117554375Y-89455625D01*
X115634375Y-89440625D02*
X116634375Y-89440625D01*
X117554375Y-92884625D02*
X117554375Y-93265625D01*
X129634375Y-102440625D02*
X129634375Y-103440625D01*
X128984375Y-91995625D02*
X128984375Y-92376625D01*
X116634375Y-103440625D02*
X115634375Y-103440625D01*
X120348375Y-93900625D02*
X122634375Y-93900625D01*
X115634375Y-103440625D02*
X115634375Y-102440625D01*
X125174375Y-95805625D02*
X126825375Y-95805625D01*
X128634375Y-89440625D02*
X129634375Y-89440625D01*
X115634375Y-89836625D02*
X115634375Y-89440625D01*
X128984375Y-91995625D02*
G75*
G03*
X126444375Y-89455625I-2540000J0D01*
G01*
X125174374Y-95805626D02*
G75*
G03*
X122634376Y-93822454I-2539999J-634999D01*
G01*
%TO.C,K2*%
X58484375Y-29114750D02*
X58484375Y-28718750D01*
X71453375Y-35083750D02*
X71834375Y-35083750D01*
X72484375Y-28718750D02*
X72484375Y-29718750D01*
X69294375Y-28733750D02*
X60404375Y-28733750D01*
X58484375Y-42718750D02*
X58484375Y-41718750D01*
X71834375Y-35083750D02*
X71834375Y-34702750D01*
X68024375Y-35083750D02*
X69675375Y-35083750D01*
X60404375Y-28733750D02*
X60404375Y-29114750D01*
X71484375Y-28718750D02*
X72484375Y-28718750D01*
X72484375Y-41718750D02*
X72484375Y-42718750D01*
X58484375Y-28718750D02*
X59484375Y-28718750D01*
X72484375Y-42718750D02*
X71484375Y-42718750D01*
X63198375Y-33178750D02*
X65484375Y-33178750D01*
X60404375Y-32162750D02*
X60404375Y-32543750D01*
X71834375Y-31273750D02*
X71834375Y-31654750D01*
X59484375Y-42718750D02*
X58484375Y-42718750D01*
X68024374Y-35083751D02*
G75*
G03*
X65484376Y-33100579I-2539999J-634999D01*
G01*
X71834375Y-31273750D02*
G75*
G03*
X69294375Y-28733750I-2540000J0D01*
G01*
%TO.C,K32*%
X71453375Y-92233750D02*
X71834375Y-92233750D01*
X71834375Y-88423750D02*
X71834375Y-88804750D01*
X60404375Y-85883750D02*
X60404375Y-86264750D01*
X63198375Y-90328750D02*
X65484375Y-90328750D01*
X72484375Y-98868750D02*
X72484375Y-99868750D01*
X69294375Y-85883750D02*
X60404375Y-85883750D01*
X59484375Y-99868750D02*
X58484375Y-99868750D01*
X58484375Y-86264750D02*
X58484375Y-85868750D01*
X72484375Y-85868750D02*
X72484375Y-86868750D01*
X68024375Y-92233750D02*
X69675375Y-92233750D01*
X60404375Y-89312750D02*
X60404375Y-89693750D01*
X58484375Y-85868750D02*
X59484375Y-85868750D01*
X71834375Y-92233750D02*
X71834375Y-91852750D01*
X72484375Y-99868750D02*
X71484375Y-99868750D01*
X58484375Y-99868750D02*
X58484375Y-98868750D01*
X71484375Y-85868750D02*
X72484375Y-85868750D01*
X68024374Y-92233751D02*
G75*
G03*
X65484376Y-90250579I-2539999J-634999D01*
G01*
X71834375Y-88423750D02*
G75*
G03*
X69294375Y-85883750I-2540000J0D01*
G01*
%TO.C,K5*%
X128984375Y-34845625D02*
X128984375Y-35226625D01*
X128603375Y-38655625D02*
X128984375Y-38655625D01*
X129634375Y-45290625D02*
X129634375Y-46290625D01*
X117554375Y-35734625D02*
X117554375Y-36115625D01*
X115634375Y-32290625D02*
X116634375Y-32290625D01*
X126444375Y-32305625D02*
X117554375Y-32305625D01*
X117554375Y-32305625D02*
X117554375Y-32686625D01*
X128634375Y-32290625D02*
X129634375Y-32290625D01*
X115634375Y-32686625D02*
X115634375Y-32290625D01*
X120348375Y-36750625D02*
X122634375Y-36750625D01*
X125174375Y-38655625D02*
X126825375Y-38655625D01*
X129634375Y-46290625D02*
X128634375Y-46290625D01*
X128984375Y-38655625D02*
X128984375Y-38274625D01*
X116634375Y-46290625D02*
X115634375Y-46290625D01*
X115634375Y-46290625D02*
X115634375Y-45290625D01*
X129634375Y-32290625D02*
X129634375Y-33290625D01*
X128984375Y-34845625D02*
G75*
G03*
X126444375Y-32305625I-2540000J0D01*
G01*
X125174374Y-38655626D02*
G75*
G03*
X122634376Y-36672454I-2539999J-634999D01*
G01*
%TO.C,K6*%
X145494375Y-37068125D02*
X136604375Y-37068125D01*
X148684375Y-50053125D02*
X148684375Y-51053125D01*
X144224375Y-43418125D02*
X145875375Y-43418125D01*
X148684375Y-37053125D02*
X148684375Y-38053125D01*
X136604375Y-37068125D02*
X136604375Y-37449125D01*
X139398375Y-41513125D02*
X141684375Y-41513125D01*
X135684375Y-51053125D02*
X134684375Y-51053125D01*
X134684375Y-37449125D02*
X134684375Y-37053125D01*
X148034375Y-43418125D02*
X148034375Y-43037125D01*
X134684375Y-51053125D02*
X134684375Y-50053125D01*
X134684375Y-37053125D02*
X135684375Y-37053125D01*
X136604375Y-40497125D02*
X136604375Y-40878125D01*
X147684375Y-37053125D02*
X148684375Y-37053125D01*
X148034375Y-39608125D02*
X148034375Y-39989125D01*
X148684375Y-51053125D02*
X147684375Y-51053125D01*
X147653375Y-43418125D02*
X148034375Y-43418125D01*
X144224374Y-43418126D02*
G75*
G03*
X141684376Y-41434954I-2539999J-634999D01*
G01*
X148034375Y-39608125D02*
G75*
G03*
X145494375Y-37068125I-2540000J0D01*
G01*
%TO.C,K13*%
X88344375Y-41830625D02*
X79454375Y-41830625D01*
X77534375Y-41815625D02*
X78534375Y-41815625D01*
X91534375Y-55815625D02*
X90534375Y-55815625D01*
X90884375Y-44370625D02*
X90884375Y-44751625D01*
X91534375Y-41815625D02*
X91534375Y-42815625D01*
X90503375Y-48180625D02*
X90884375Y-48180625D01*
X78534375Y-55815625D02*
X77534375Y-55815625D01*
X87074375Y-48180625D02*
X88725375Y-48180625D01*
X90534375Y-41815625D02*
X91534375Y-41815625D01*
X90884375Y-48180625D02*
X90884375Y-47799625D01*
X79454375Y-41830625D02*
X79454375Y-42211625D01*
X77534375Y-55815625D02*
X77534375Y-54815625D01*
X91534375Y-54815625D02*
X91534375Y-55815625D01*
X82248375Y-46275625D02*
X84534375Y-46275625D01*
X79454375Y-45259625D02*
X79454375Y-45640625D01*
X77534375Y-42211625D02*
X77534375Y-41815625D01*
X90884375Y-44370625D02*
G75*
G03*
X88344375Y-41830625I-2540000J0D01*
G01*
X87074374Y-48180626D02*
G75*
G03*
X84534376Y-46197454I-2539999J-634999D01*
G01*
%TO.C,K1*%
X53434375Y-40625000D02*
X53434375Y-41625000D01*
X53434375Y-54625000D02*
X52434375Y-54625000D01*
X52784375Y-43180000D02*
X52784375Y-43561000D01*
X39434375Y-41021000D02*
X39434375Y-40625000D01*
X52403375Y-46990000D02*
X52784375Y-46990000D01*
X44148375Y-45085000D02*
X46434375Y-45085000D01*
X41354375Y-44069000D02*
X41354375Y-44450000D01*
X39434375Y-40625000D02*
X40434375Y-40625000D01*
X40434375Y-54625000D02*
X39434375Y-54625000D01*
X39434375Y-54625000D02*
X39434375Y-53625000D01*
X41354375Y-40640000D02*
X41354375Y-41021000D01*
X52784375Y-46990000D02*
X52784375Y-46609000D01*
X53434375Y-53625000D02*
X53434375Y-54625000D01*
X52434375Y-40625000D02*
X53434375Y-40625000D01*
X50244375Y-40640000D02*
X41354375Y-40640000D01*
X48974375Y-46990000D02*
X50625375Y-46990000D01*
X52784375Y-43180000D02*
G75*
G03*
X50244375Y-40640000I-2540000J0D01*
G01*
X48974374Y-46990001D02*
G75*
G03*
X46434376Y-45006829I-2539999J-634999D01*
G01*
D11*
%TO.C,D21*%
X52878125Y-86087000D02*
X52878125Y-90887000D01*
X54086125Y-86087000D02*
X54278125Y-86233000D01*
X53928125Y-88487000D02*
X53178125Y-88487000D01*
X54278125Y-90887000D02*
X52878125Y-90887000D01*
X53178125Y-89087000D02*
X53578125Y-88487000D01*
X53578125Y-88487000D02*
X53928125Y-89087000D01*
X54278125Y-86287000D02*
X52878125Y-86287000D01*
X54278125Y-86487000D02*
X52878125Y-86487000D01*
X54278125Y-86233000D02*
X54278125Y-90887000D01*
X53324125Y-86287000D02*
X52878125Y-86087000D01*
X53928125Y-89087000D02*
X53178125Y-89087000D01*
X53578125Y-88487000D02*
X53578125Y-88187000D01*
X53578125Y-89087000D02*
X53578125Y-89387000D01*
X54278125Y-86687000D02*
X52878125Y-86687000D01*
X54086125Y-86087000D02*
X53324125Y-86287000D01*
D10*
%TO.C,K25*%
X129634375Y-84390625D02*
X128634375Y-84390625D01*
X116634375Y-84390625D02*
X115634375Y-84390625D01*
X117554375Y-73834625D02*
X117554375Y-74215625D01*
X129634375Y-83390625D02*
X129634375Y-84390625D01*
X128634375Y-70390625D02*
X129634375Y-70390625D01*
X115634375Y-70786625D02*
X115634375Y-70390625D01*
X115634375Y-70390625D02*
X116634375Y-70390625D01*
X115634375Y-84390625D02*
X115634375Y-83390625D01*
X128984375Y-72945625D02*
X128984375Y-73326625D01*
X117554375Y-70405625D02*
X117554375Y-70786625D01*
X128603375Y-76755625D02*
X128984375Y-76755625D01*
X126444375Y-70405625D02*
X117554375Y-70405625D01*
X128984375Y-76755625D02*
X128984375Y-76374625D01*
X125174375Y-76755625D02*
X126825375Y-76755625D01*
X120348375Y-74850625D02*
X122634375Y-74850625D01*
X129634375Y-70390625D02*
X129634375Y-71390625D01*
X125174374Y-76755626D02*
G75*
G03*
X122634376Y-74772454I-2539999J-634999D01*
G01*
X128984375Y-72945625D02*
G75*
G03*
X126444375Y-70405625I-2540000J0D01*
G01*
D11*
%TO.C,D1*%
X52878125Y-47987000D02*
X52878125Y-52787000D01*
X54086125Y-47987000D02*
X53324125Y-48187000D01*
X53928125Y-50987000D02*
X53178125Y-50987000D01*
X53578125Y-50387000D02*
X53578125Y-50087000D01*
X54086125Y-47987000D02*
X54278125Y-48133000D01*
X53578125Y-50387000D02*
X53928125Y-50987000D01*
X53578125Y-50987000D02*
X53578125Y-51287000D01*
X54278125Y-48587000D02*
X52878125Y-48587000D01*
X53324125Y-48187000D02*
X52878125Y-47987000D01*
X54278125Y-48187000D02*
X52878125Y-48187000D01*
X54278125Y-48387000D02*
X52878125Y-48387000D01*
X53928125Y-50387000D02*
X53178125Y-50387000D01*
X54278125Y-52787000D02*
X52878125Y-52787000D01*
X54278125Y-48133000D02*
X54278125Y-52787000D01*
X53178125Y-50987000D02*
X53578125Y-50387000D01*
D10*
%TO.C,K33*%
X77534375Y-79915625D02*
X78534375Y-79915625D01*
X79454375Y-83359625D02*
X79454375Y-83740625D01*
X88344375Y-79930625D02*
X79454375Y-79930625D01*
X87074375Y-86280625D02*
X88725375Y-86280625D01*
X90503375Y-86280625D02*
X90884375Y-86280625D01*
X77534375Y-80311625D02*
X77534375Y-79915625D01*
X91534375Y-93915625D02*
X90534375Y-93915625D01*
X90884375Y-86280625D02*
X90884375Y-85899625D01*
X91534375Y-79915625D02*
X91534375Y-80915625D01*
X82248375Y-84375625D02*
X84534375Y-84375625D01*
X90534375Y-79915625D02*
X91534375Y-79915625D01*
X90884375Y-82470625D02*
X90884375Y-82851625D01*
X77534375Y-93915625D02*
X77534375Y-92915625D01*
X91534375Y-92915625D02*
X91534375Y-93915625D01*
X79454375Y-79930625D02*
X79454375Y-80311625D01*
X78534375Y-93915625D02*
X77534375Y-93915625D01*
X90884375Y-82470625D02*
G75*
G03*
X88344375Y-79930625I-2540000J0D01*
G01*
X87074374Y-86280626D02*
G75*
G03*
X84534376Y-84297454I-2539999J-634999D01*
G01*
D11*
%TO.C,D24*%
X111428125Y-75971375D02*
X110028125Y-75971375D01*
X110728125Y-78371375D02*
X110728125Y-78671375D01*
X111078125Y-78371375D02*
X110328125Y-78371375D01*
X110328125Y-78371375D02*
X110728125Y-77771375D01*
X110728125Y-77771375D02*
X111078125Y-78371375D01*
X111428125Y-75771375D02*
X110028125Y-75771375D01*
X111428125Y-75517375D02*
X111428125Y-80171375D01*
X110028125Y-75371375D02*
X110028125Y-80171375D01*
X111428125Y-80171375D02*
X110028125Y-80171375D01*
X111236125Y-75371375D02*
X111428125Y-75517375D01*
X110728125Y-77771375D02*
X110728125Y-77471375D01*
X111078125Y-77771375D02*
X110328125Y-77771375D01*
X111428125Y-75571375D02*
X110028125Y-75571375D01*
X111236125Y-75371375D02*
X110474125Y-75571375D01*
X110474125Y-75571375D02*
X110028125Y-75371375D01*
%TO.C,D26*%
X149336125Y-92040125D02*
X148574125Y-92240125D01*
X149178125Y-95040125D02*
X148428125Y-95040125D01*
X149528125Y-92440125D02*
X148128125Y-92440125D01*
X148828125Y-95040125D02*
X148828125Y-95340125D01*
X148428125Y-95040125D02*
X148828125Y-94440125D01*
X149178125Y-94440125D02*
X148428125Y-94440125D01*
X149528125Y-92240125D02*
X148128125Y-92240125D01*
X148128125Y-92040125D02*
X148128125Y-96840125D01*
X149528125Y-92186125D02*
X149528125Y-96840125D01*
X148828125Y-94440125D02*
X148828125Y-94140125D01*
X149336125Y-92040125D02*
X149528125Y-92186125D01*
X148828125Y-94440125D02*
X149178125Y-95040125D01*
X148574125Y-92240125D02*
X148128125Y-92040125D01*
X149528125Y-92640125D02*
X148128125Y-92640125D01*
X149528125Y-96840125D02*
X148128125Y-96840125D01*
%TO.C,D35*%
X130286125Y-96802625D02*
X129524125Y-97002625D01*
X129778125Y-99202625D02*
X129778125Y-98902625D01*
X129524125Y-97002625D02*
X129078125Y-96802625D01*
X129078125Y-96802625D02*
X129078125Y-101602625D01*
X129378125Y-99802625D02*
X129778125Y-99202625D01*
X129778125Y-99202625D02*
X130128125Y-99802625D01*
X129778125Y-99802625D02*
X129778125Y-100102625D01*
X130128125Y-99202625D02*
X129378125Y-99202625D01*
X130478125Y-96948625D02*
X130478125Y-101602625D01*
X130478125Y-97202625D02*
X129078125Y-97202625D01*
X130286125Y-96802625D02*
X130478125Y-96948625D01*
X130478125Y-101602625D02*
X129078125Y-101602625D01*
X130478125Y-97002625D02*
X129078125Y-97002625D01*
X130128125Y-99802625D02*
X129378125Y-99802625D01*
X130478125Y-97402625D02*
X129078125Y-97402625D01*
D10*
%TO.C,K21*%
X48974375Y-85090000D02*
X50625375Y-85090000D01*
X39434375Y-78725000D02*
X40434375Y-78725000D01*
X41354375Y-78740000D02*
X41354375Y-79121000D01*
X52434375Y-78725000D02*
X53434375Y-78725000D01*
X50244375Y-78740000D02*
X41354375Y-78740000D01*
X41354375Y-82169000D02*
X41354375Y-82550000D01*
X52403375Y-85090000D02*
X52784375Y-85090000D01*
X39434375Y-79121000D02*
X39434375Y-78725000D01*
X52784375Y-85090000D02*
X52784375Y-84709000D01*
X44148375Y-83185000D02*
X46434375Y-83185000D01*
X52784375Y-81280000D02*
X52784375Y-81661000D01*
X53434375Y-91725000D02*
X53434375Y-92725000D01*
X53434375Y-92725000D02*
X52434375Y-92725000D01*
X39434375Y-92725000D02*
X39434375Y-91725000D01*
X40434375Y-92725000D02*
X39434375Y-92725000D01*
X53434375Y-78725000D02*
X53434375Y-79725000D01*
X48974374Y-85090001D02*
G75*
G03*
X46434376Y-83106829I-2539999J-634999D01*
G01*
X52784375Y-81280000D02*
G75*
G03*
X50244375Y-78740000I-2540000J0D01*
G01*
D11*
%TO.C,D12*%
X73582125Y-59930750D02*
X72182125Y-59930750D01*
X72882125Y-57530750D02*
X73232125Y-58130750D01*
X72882125Y-57530750D02*
X72882125Y-57230750D01*
X73390125Y-55130750D02*
X72628125Y-55330750D01*
X73582125Y-55530750D02*
X72182125Y-55530750D01*
X73232125Y-58130750D02*
X72482125Y-58130750D01*
X73582125Y-55276750D02*
X73582125Y-59930750D01*
X73232125Y-57530750D02*
X72482125Y-57530750D01*
X73582125Y-55730750D02*
X72182125Y-55730750D01*
X72482125Y-58130750D02*
X72882125Y-57530750D01*
X73390125Y-55130750D02*
X73582125Y-55276750D01*
X72882125Y-58130750D02*
X72882125Y-58430750D01*
X72182125Y-55130750D02*
X72182125Y-59930750D01*
X72628125Y-55330750D02*
X72182125Y-55130750D01*
X73582125Y-55330750D02*
X72182125Y-55330750D01*
D10*
%TO.C,K0*%
X33384375Y-40625000D02*
X34384375Y-40625000D01*
X20384375Y-40625000D02*
X21384375Y-40625000D01*
X25098375Y-45085000D02*
X27384375Y-45085000D01*
X21384375Y-54625000D02*
X20384375Y-54625000D01*
X34384375Y-40625000D02*
X34384375Y-41625000D01*
X33353375Y-46990000D02*
X33734375Y-46990000D01*
X33734375Y-43180000D02*
X33734375Y-43561000D01*
X20384375Y-54625000D02*
X20384375Y-53625000D01*
X34384375Y-53625000D02*
X34384375Y-54625000D01*
X22304375Y-40640000D02*
X22304375Y-41021000D01*
X20384375Y-41021000D02*
X20384375Y-40625000D01*
X31194375Y-40640000D02*
X22304375Y-40640000D01*
X22304375Y-44069000D02*
X22304375Y-44450000D01*
X29924375Y-46990000D02*
X31575375Y-46990000D01*
X34384375Y-54625000D02*
X33384375Y-54625000D01*
X33734375Y-46990000D02*
X33734375Y-46609000D01*
X33734375Y-43180000D02*
G75*
G03*
X31194375Y-40640000I-2540000J0D01*
G01*
X29924374Y-46990001D02*
G75*
G03*
X27384376Y-45006829I-2539999J-634999D01*
G01*
%TO.C,K34*%
X109584375Y-87059375D02*
X110584375Y-87059375D01*
X110584375Y-101059375D02*
X109584375Y-101059375D01*
X98504375Y-87074375D02*
X98504375Y-87455375D01*
X101298375Y-91519375D02*
X103584375Y-91519375D01*
X96584375Y-87455375D02*
X96584375Y-87059375D01*
X96584375Y-87059375D02*
X97584375Y-87059375D01*
X110584375Y-100059375D02*
X110584375Y-101059375D01*
X109553375Y-93424375D02*
X109934375Y-93424375D01*
X110584375Y-87059375D02*
X110584375Y-88059375D01*
X97584375Y-101059375D02*
X96584375Y-101059375D01*
X109934375Y-89614375D02*
X109934375Y-89995375D01*
X98504375Y-90503375D02*
X98504375Y-90884375D01*
X109934375Y-93424375D02*
X109934375Y-93043375D01*
X107394375Y-87074375D02*
X98504375Y-87074375D01*
X96584375Y-101059375D02*
X96584375Y-100059375D01*
X106124375Y-93424375D02*
X107775375Y-93424375D01*
X109934375Y-89614375D02*
G75*
G03*
X107394375Y-87074375I-2540000J0D01*
G01*
X106124374Y-93424376D02*
G75*
G03*
X103584376Y-91441204I-2539999J-634999D01*
G01*
D11*
%TO.C,D34*%
X110328125Y-97421375D02*
X110728125Y-96821375D01*
X111236125Y-94421375D02*
X110474125Y-94621375D01*
X111428125Y-94567375D02*
X111428125Y-99221375D01*
X110728125Y-96821375D02*
X111078125Y-97421375D01*
X111078125Y-97421375D02*
X110328125Y-97421375D01*
X111428125Y-95021375D02*
X110028125Y-95021375D01*
X110728125Y-97421375D02*
X110728125Y-97721375D01*
X111428125Y-99221375D02*
X110028125Y-99221375D01*
X111236125Y-94421375D02*
X111428125Y-94567375D01*
X111428125Y-94621375D02*
X110028125Y-94621375D01*
X110728125Y-96821375D02*
X110728125Y-96521375D01*
X110028125Y-94421375D02*
X110028125Y-99221375D01*
X110474125Y-94621375D02*
X110028125Y-94421375D01*
X111078125Y-96821375D02*
X110328125Y-96821375D01*
X111428125Y-94821375D02*
X110028125Y-94821375D01*
%TO.C,D22*%
X73582125Y-74555375D02*
X72182125Y-74555375D01*
X72882125Y-77355375D02*
X72882125Y-77655375D01*
X73582125Y-74755375D02*
X72182125Y-74755375D01*
X73582125Y-74501375D02*
X73582125Y-79155375D01*
X73232125Y-77355375D02*
X72482125Y-77355375D01*
X73390125Y-74355375D02*
X72628125Y-74555375D01*
X73582125Y-74955375D02*
X72182125Y-74955375D01*
X72628125Y-74555375D02*
X72182125Y-74355375D01*
X72882125Y-76755375D02*
X72882125Y-76455375D01*
X72182125Y-74355375D02*
X72182125Y-79155375D01*
X72482125Y-77355375D02*
X72882125Y-76755375D01*
X73582125Y-79155375D02*
X72182125Y-79155375D01*
X73390125Y-74355375D02*
X73582125Y-74501375D01*
X73232125Y-76755375D02*
X72482125Y-76755375D01*
X72882125Y-76755375D02*
X73232125Y-77355375D01*
D10*
%TO.C,K24*%
X110584375Y-68009375D02*
X110584375Y-69009375D01*
X109553375Y-74374375D02*
X109934375Y-74374375D01*
X96584375Y-82009375D02*
X96584375Y-81009375D01*
X97584375Y-82009375D02*
X96584375Y-82009375D01*
X109934375Y-70564375D02*
X109934375Y-70945375D01*
X106124375Y-74374375D02*
X107775375Y-74374375D01*
X110584375Y-81009375D02*
X110584375Y-82009375D01*
X96584375Y-68405375D02*
X96584375Y-68009375D01*
X109584375Y-68009375D02*
X110584375Y-68009375D01*
X107394375Y-68024375D02*
X98504375Y-68024375D01*
X109934375Y-74374375D02*
X109934375Y-73993375D01*
X98504375Y-71453375D02*
X98504375Y-71834375D01*
X101298375Y-72469375D02*
X103584375Y-72469375D01*
X98504375Y-68024375D02*
X98504375Y-68405375D01*
X96584375Y-68009375D02*
X97584375Y-68009375D01*
X110584375Y-82009375D02*
X109584375Y-82009375D01*
X109934375Y-70564375D02*
G75*
G03*
X107394375Y-68024375I-2540000J0D01*
G01*
X106124374Y-74374376D02*
G75*
G03*
X103584376Y-72391204I-2539999J-634999D01*
G01*
%TO.C,K23*%
X90503375Y-67230625D02*
X90884375Y-67230625D01*
X79454375Y-60880625D02*
X79454375Y-61261625D01*
X91534375Y-74865625D02*
X90534375Y-74865625D01*
X82248375Y-65325625D02*
X84534375Y-65325625D01*
X90884375Y-63420625D02*
X90884375Y-63801625D01*
X77534375Y-60865625D02*
X78534375Y-60865625D01*
X90884375Y-67230625D02*
X90884375Y-66849625D01*
X79454375Y-64309625D02*
X79454375Y-64690625D01*
X78534375Y-74865625D02*
X77534375Y-74865625D01*
X77534375Y-61261625D02*
X77534375Y-60865625D01*
X87074375Y-67230625D02*
X88725375Y-67230625D01*
X90534375Y-60865625D02*
X91534375Y-60865625D01*
X91534375Y-60865625D02*
X91534375Y-61865625D01*
X88344375Y-60880625D02*
X79454375Y-60880625D01*
X91534375Y-73865625D02*
X91534375Y-74865625D01*
X77534375Y-74865625D02*
X77534375Y-73865625D01*
X90884375Y-63420625D02*
G75*
G03*
X88344375Y-60880625I-2540000J0D01*
G01*
X87074374Y-67230626D02*
G75*
G03*
X84534376Y-65247454I-2539999J-634999D01*
G01*
D11*
%TO.C,D6*%
X149510750Y-44415125D02*
X149702750Y-44561125D01*
X149352750Y-46815125D02*
X148602750Y-46815125D01*
X149702750Y-49215125D02*
X148302750Y-49215125D01*
X149702750Y-45015125D02*
X148302750Y-45015125D01*
X149702750Y-44561125D02*
X149702750Y-49215125D01*
X149002750Y-46815125D02*
X149352750Y-47415125D01*
X149702750Y-44815125D02*
X148302750Y-44815125D01*
X148748750Y-44615125D02*
X148302750Y-44415125D01*
X149510750Y-44415125D02*
X148748750Y-44615125D01*
X149002750Y-46815125D02*
X149002750Y-46515125D01*
X148602750Y-47415125D02*
X149002750Y-46815125D01*
X148302750Y-44415125D02*
X148302750Y-49215125D01*
X149702750Y-44615125D02*
X148302750Y-44615125D01*
X149352750Y-47415125D02*
X148602750Y-47415125D01*
X149002750Y-47415125D02*
X149002750Y-47715125D01*
D10*
%TO.C,K15*%
X115634375Y-51736625D02*
X115634375Y-51340625D01*
X128984375Y-57705625D02*
X128984375Y-57324625D01*
X117554375Y-51355625D02*
X117554375Y-51736625D01*
X128634375Y-51340625D02*
X129634375Y-51340625D01*
X115634375Y-65340625D02*
X115634375Y-64340625D01*
X128603375Y-57705625D02*
X128984375Y-57705625D01*
X116634375Y-65340625D02*
X115634375Y-65340625D01*
X128984375Y-53895625D02*
X128984375Y-54276625D01*
X129634375Y-65340625D02*
X128634375Y-65340625D01*
X115634375Y-51340625D02*
X116634375Y-51340625D01*
X117554375Y-54784625D02*
X117554375Y-55165625D01*
X129634375Y-64340625D02*
X129634375Y-65340625D01*
X129634375Y-51340625D02*
X129634375Y-52340625D01*
X125174375Y-57705625D02*
X126825375Y-57705625D01*
X120348375Y-55800625D02*
X122634375Y-55800625D01*
X126444375Y-51355625D02*
X117554375Y-51355625D01*
X125174374Y-57705626D02*
G75*
G03*
X122634376Y-55722454I-2539999J-634999D01*
G01*
X128984375Y-53895625D02*
G75*
G03*
X126444375Y-51355625I-2540000J0D01*
G01*
%TD*%
M02*
