M48
; DRILL file {KiCad 6.0.4} date So 08 Mai 2022 18:53:24 CEST
; FORMAT={-:-/ absolute / inch / decimal}
; #@! TF.CreationDate,2022-05-08T18:53:24+02:00
; #@! TF.GenerationSoftware,Kicad,Pcbnew,6.0.4
; #@! TF.FileFunction,MixedPlating,1,2
FMAT,2
INCH
; #@! TA.AperFunction,Plated,PTH,ViaDrill
T1C0.0157
; #@! TA.AperFunction,Plated,PTH,ComponentDrill
T2C0.0157
; #@! TA.AperFunction,Plated,PTH,ComponentDrill
T3C0.0394
; #@! TA.AperFunction,Plated,PTH,ComponentDrill
T4C0.0433
; #@! TA.AperFunction,NonPlated,NPTH,ComponentDrill
T5C0.0670
; #@! TA.AperFunction,NonPlated,NPTH,ComponentDrill
T6C0.1181
; #@! TA.AperFunction,NonPlated,NPTH,ComponentDrill
T7C0.1260
; #@! TA.AperFunction,NonPlated,NPTH,ComponentDrill
T8C0.1570
%
G90
G05
T1
X0.9375Y-1.875
X0.9375Y-2.625
X0.9375Y-3.375
X0.9375Y-4.125
X1.4531Y-2.25
X1.4531Y-3.75
X1.6875Y-1.875
X1.6875Y-2.625
X1.6875Y-3.375
X1.6875Y-4.125
X1.8984Y-3.5859
X2.2031Y-2.25
X2.2031Y-3.0
X2.2031Y-3.75
X2.3906Y-2.5781
X2.4375Y-1.4062
X2.4375Y-2.1562
X2.4375Y-2.9062
X2.4375Y-3.6562
X2.5781Y-3.2813
X2.625Y-1.8047
X2.8125Y-2.6016
X3.1875Y-1.1719
X3.1875Y-1.9219
X3.1875Y-2.6719
X3.1875Y-3.4219
X3.375Y-2.1094
X3.3984Y-2.8828
X3.6797Y-2.2969
X3.7031Y-1.5469
X3.7031Y-3.0469
X3.9375Y-1.4531
X3.9375Y-2.2031
X3.9375Y-2.9531
X3.9375Y-3.7031
X4.0781Y-1.8281
X4.1484Y-2.7656
X4.4531Y-2.2031
X4.4531Y-2.9531
X4.6875Y-1.5469
X4.6875Y-2.2969
X4.6875Y-3.0469
X4.6875Y-3.7969
X5.2031Y-1.9219
X5.2031Y-2.6719
X5.2031Y-3.4219
X5.25Y-2.1797
X5.3672Y-3.2344
X5.4375Y-1.7344
X5.4375Y-3.6094
X5.5781Y-2.5312
X5.6719Y-3.3984
T2
X1.3494Y-1.875
X1.3494Y-2.625
X1.3494Y-3.375
X1.3494Y-4.125
X1.3994Y-1.875
X1.3994Y-2.625
X1.3994Y-3.375
X1.3994Y-4.125
X2.0994Y-1.875
X2.0994Y-2.625
X2.0994Y-3.375
X2.0994Y-4.125
X2.1494Y-1.875
X2.1494Y-2.625
X2.1494Y-3.375
X2.1494Y-4.125
X2.8494Y-1.4062
X2.8494Y-3.6562
X2.8594Y-2.1562
X2.8594Y-2.9131
X2.8994Y-1.4062
X2.8994Y-3.6562
X2.9094Y-2.1562
X2.9094Y-2.9131
X3.5994Y-1.1719
X3.5994Y-1.9219
X3.5994Y-2.6719
X3.5994Y-3.4219
X3.6494Y-1.1719
X3.6494Y-1.9219
X3.6494Y-2.6719
X3.6494Y-3.4219
X4.3494Y-1.4531
X4.3494Y-2.2031
X4.3494Y-2.9531
X4.3494Y-3.7031
X4.3994Y-1.4531
X4.3994Y-2.2031
X4.3994Y-2.9531
X4.3994Y-3.7031
X5.0994Y-1.5469
X5.0994Y-2.2969
X5.0994Y-3.0469
X5.0994Y-3.7969
X5.1494Y-1.5469
X5.1494Y-2.2969
X5.1494Y-3.0469
X5.1494Y-3.7969
X5.5781Y-2.9431
X5.5781Y-2.9931
X5.8494Y-3.6094
X5.8563Y-1.7344
X5.8994Y-3.6094
X5.9062Y-1.7344
X5.9766Y-2.1463
X5.9766Y-2.1963
T3
X2.9531Y-1.6313
X2.9531Y-1.7313
X2.9531Y-1.8313
X2.9531Y-1.9313
X2.9531Y-2.3813
X2.9531Y-2.4813
X2.9531Y-2.5813
X2.9531Y-2.6813
X4.4531Y-1.6781
X4.4531Y-1.7781
X4.4531Y-1.8781
X4.4531Y-1.9781
X4.4531Y-2.4281
X4.4531Y-2.5281
X4.4531Y-2.6281
X4.4531Y-2.7281
T4
X6.0286Y-2.0752
X6.0286Y-2.3311
X6.2058Y-2.0752
X6.2058Y-2.3311
T5
X0.8781Y-1.875
X0.8781Y-2.625
X0.8781Y-3.375
X0.8781Y-4.125
X1.2781Y-1.875
X1.2781Y-2.625
X1.2781Y-3.375
X1.2781Y-4.125
X1.6281Y-1.875
X1.6281Y-2.625
X1.6281Y-3.375
X1.6281Y-4.125
X2.0281Y-1.875
X2.0281Y-2.625
X2.0281Y-3.375
X2.0281Y-4.125
X2.3781Y-1.4062
X2.3781Y-2.1562
X2.3781Y-2.9062
X2.3781Y-3.6562
X2.7781Y-1.4062
X2.7781Y-2.1562
X2.7781Y-2.9062
X2.7781Y-3.6562
X3.1281Y-1.1719
X3.1281Y-1.9219
X3.1281Y-2.6719
X3.1281Y-3.4219
X3.5281Y-1.1719
X3.5281Y-1.9219
X3.5281Y-2.6719
X3.5281Y-3.4219
X3.8781Y-1.4531
X3.8781Y-2.2031
X3.8781Y-2.9531
X3.8781Y-3.7031
X4.2781Y-1.4531
X4.2781Y-2.2031
X4.2781Y-2.9531
X4.2781Y-3.7031
X4.6281Y-1.5469
X4.6281Y-2.2969
X4.6281Y-3.0469
X4.6281Y-3.7969
X5.0281Y-1.5469
X5.0281Y-2.2969
X5.0281Y-3.0469
X5.0281Y-3.7969
X5.3781Y-1.7344
X5.3781Y-3.6094
X5.5781Y-2.4719
X5.5781Y-2.8719
X5.7781Y-1.7344
X5.7781Y-3.6094
T6
X0.9781Y-1.675
X0.9781Y-2.075
X0.9781Y-2.425
X0.9781Y-2.825
X0.9781Y-3.175
X0.9781Y-3.575
X0.9781Y-3.925
X0.9781Y-4.325
X1.2281Y-1.775
X1.2281Y-1.975
X1.2281Y-2.525
X1.2281Y-2.725
X1.2281Y-3.275
X1.2281Y-3.475
X1.2281Y-4.025
X1.2281Y-4.225
X1.7281Y-1.675
X1.7281Y-2.075
X1.7281Y-2.425
X1.7281Y-2.825
X1.7281Y-3.175
X1.7281Y-3.575
X1.7281Y-3.925
X1.7281Y-4.325
X1.9781Y-1.775
X1.9781Y-1.975
X1.9781Y-2.525
X1.9781Y-2.725
X1.9781Y-3.275
X1.9781Y-3.475
X1.9781Y-4.025
X1.9781Y-4.225
X2.4781Y-1.2063
X2.4781Y-1.6062
X2.4781Y-1.9563
X2.4781Y-2.3562
X2.4781Y-2.7062
X2.4781Y-3.1062
X2.4781Y-3.4562
X2.4781Y-3.8562
X2.7281Y-1.3062
X2.7281Y-1.5062
X2.7281Y-2.0562
X2.7281Y-2.2563
X2.7281Y-2.8062
X2.7281Y-3.0063
X2.7281Y-3.5562
X2.7281Y-3.7563
X3.2281Y-0.9719
X3.2281Y-1.3719
X3.2281Y-1.7219
X3.2281Y-2.1219
X3.2281Y-2.4719
X3.2281Y-2.8719
X3.2281Y-3.2219
X3.2281Y-3.6219
X3.4781Y-1.0719
X3.4781Y-1.2719
X3.4781Y-1.8219
X3.4781Y-2.0219
X3.4781Y-2.5719
X3.4781Y-2.7719
X3.4781Y-3.3219
X3.4781Y-3.5219
X3.9781Y-1.2531
X3.9781Y-1.6531
X3.9781Y-2.0031
X3.9781Y-2.4031
X3.9781Y-2.7531
X3.9781Y-3.1531
X3.9781Y-3.5031
X3.9781Y-3.9031
X4.2281Y-1.3531
X4.2281Y-1.5531
X4.2281Y-2.1031
X4.2281Y-2.3031
X4.2281Y-2.8531
X4.2281Y-3.0531
X4.2281Y-3.6031
X4.2281Y-3.8031
X4.7281Y-1.3469
X4.7281Y-1.7469
X4.7281Y-2.0969
X4.7281Y-2.4969
X4.7281Y-2.8469
X4.7281Y-3.2469
X4.7281Y-3.5969
X4.7281Y-3.9969
X4.9781Y-1.4469
X4.9781Y-1.6469
X4.9781Y-2.1969
X4.9781Y-2.3969
X4.9781Y-2.9469
X4.9781Y-3.1469
X4.9781Y-3.6969
X4.9781Y-3.8969
X5.3781Y-2.5719
X5.4781Y-1.5344
X5.4781Y-1.9344
X5.4781Y-2.8219
X5.4781Y-3.4094
X5.4781Y-3.8094
X5.6781Y-2.8219
X5.7281Y-1.6344
X5.7281Y-1.8344
X5.7281Y-3.5094
X5.7281Y-3.7094
X5.7781Y-2.5719
T7
X2.0156Y-1.3125
X2.3906Y-4.2188
X6.1172Y-2.625
T8
X1.0781Y-1.875
X1.0781Y-2.625
X1.0781Y-3.375
X1.0781Y-4.125
X1.8281Y-1.875
X1.8281Y-2.625
X1.8281Y-3.375
X1.8281Y-4.125
X2.5781Y-1.4062
X2.5781Y-2.1562
X2.5781Y-2.9062
X2.5781Y-3.6562
X3.3281Y-1.1719
X3.3281Y-1.9219
X3.3281Y-2.6719
X3.3281Y-3.4219
X4.0781Y-1.4531
X4.0781Y-2.2031
X4.0781Y-2.9531
X4.0781Y-3.7031
X4.8281Y-1.5469
X4.8281Y-2.2969
X4.8281Y-3.0469
X4.8281Y-3.7969
X5.5781Y-1.7344
X5.5781Y-2.6719
X5.5781Y-3.6094
T0
M30
