%TF.GenerationSoftware,KiCad,Pcbnew,6.0.4*%
%TF.CreationDate,2022-05-08T18:53:29+02:00*%
%TF.ProjectId,mykeeb,6d796b65-6562-42e6-9b69-6361645f7063,rev?*%
%TF.SameCoordinates,Original*%
%TF.FileFunction,Soldermask,Bot*%
%TF.FilePolarity,Negative*%
%FSLAX46Y46*%
G04 Gerber Fmt 4.6, Leading zero omitted, Abs format (unit mm)*
G04 Created by KiCad (PCBNEW 6.0.4) date 2022-05-08 18:53:29*
%MOMM*%
%LPD*%
G01*
G04 APERTURE LIST*
%ADD10C,1.701800*%
%ADD11C,3.000000*%
%ADD12C,3.987800*%
%ADD13R,2.550000X2.500000*%
%ADD14R,1.200000X1.200000*%
%ADD15C,0.800000*%
%ADD16C,2.000000*%
%ADD17R,2.500000X2.550000*%
%ADD18R,1.700000X1.700000*%
%ADD19O,1.700000X1.700000*%
%ADD20C,3.200000*%
G04 APERTURE END LIST*
D10*
%TO.C,K26*%
X136604375Y-91678125D03*
D11*
X145494375Y-94218125D03*
X139144375Y-86598125D03*
D12*
X141684375Y-91678125D03*
D11*
X139144375Y-96758125D03*
X145494375Y-89138125D03*
D10*
X146764375Y-91678125D03*
D13*
X135394375Y-96758125D03*
X149244375Y-94218125D03*
%TD*%
D14*
%TO.C,D33*%
X91678125Y-85253625D03*
D15*
X91424125Y-86915625D03*
X92694125Y-86915625D03*
D14*
X91678125Y-82453625D03*
%TD*%
D11*
%TO.C,K14*%
X101044375Y-61039375D03*
X107394375Y-58499375D03*
D10*
X98504375Y-55959375D03*
D11*
X101044375Y-50879375D03*
D10*
X108664375Y-55959375D03*
D11*
X107394375Y-53419375D03*
D12*
X103584375Y-55959375D03*
D13*
X97294375Y-61039375D03*
X111144375Y-58499375D03*
%TD*%
D11*
%TO.C,K12*%
X62944375Y-49688750D03*
X62944375Y-59848750D03*
D12*
X65484375Y-54768750D03*
D10*
X60404375Y-54768750D03*
X70564375Y-54768750D03*
D11*
X69294375Y-57308750D03*
X69294375Y-52228750D03*
D13*
X59194375Y-59848750D03*
X73044375Y-57308750D03*
%TD*%
D15*
%TO.C,D32*%
X72374125Y-92868750D03*
D14*
X72628125Y-91206750D03*
X72628125Y-88406750D03*
D15*
X73644125Y-92868750D03*
%TD*%
D11*
%TO.C,K22*%
X69294375Y-76358750D03*
X62944375Y-68738750D03*
D12*
X65484375Y-73818750D03*
D11*
X62944375Y-78898750D03*
D10*
X70564375Y-73818750D03*
X60404375Y-73818750D03*
D11*
X69294375Y-71278750D03*
D13*
X59194375Y-78898750D03*
X73044375Y-76358750D03*
%TD*%
D15*
%TO.C,D10*%
X34274125Y-66675000D03*
D14*
X34528125Y-65013000D03*
X34528125Y-62213000D03*
D15*
X35544125Y-66675000D03*
%TD*%
D14*
%TO.C,D2*%
X72628125Y-34056750D03*
D15*
X72374125Y-35718750D03*
D14*
X72628125Y-31256750D03*
D15*
X73644125Y-35718750D03*
%TD*%
D11*
%TO.C,K30*%
X31194375Y-107315000D03*
X31194375Y-102235000D03*
X24844375Y-109855000D03*
D10*
X32464375Y-104775000D03*
D12*
X27384375Y-104775000D03*
D10*
X22304375Y-104775000D03*
D11*
X24844375Y-99695000D03*
D13*
X21094375Y-109855000D03*
X34944375Y-107315000D03*
%TD*%
D15*
%TO.C,D14*%
X110474125Y-55959375D03*
D14*
X110728125Y-54297375D03*
D15*
X111744125Y-55959375D03*
D14*
X110728125Y-51497375D03*
%TD*%
%TO.C,D5*%
X129778125Y-37628625D03*
D15*
X129524125Y-39290625D03*
X130794125Y-39290625D03*
D14*
X129778125Y-34828625D03*
%TD*%
%TO.C,D15*%
X129778125Y-56678625D03*
D15*
X129524125Y-58340625D03*
X130794125Y-58340625D03*
D14*
X129778125Y-53878625D03*
%TD*%
%TO.C,D36*%
X150144712Y-54778755D03*
D15*
X151804712Y-54514755D03*
D14*
X147344712Y-54778755D03*
D15*
X151804712Y-55784755D03*
%TD*%
%TO.C,D11*%
X53324125Y-66675000D03*
D14*
X53578125Y-65013000D03*
X53578125Y-62213000D03*
D15*
X54594125Y-66675000D03*
%TD*%
D11*
%TO.C,K31*%
X43894375Y-109855000D03*
X50244375Y-107315000D03*
D10*
X41354375Y-104775000D03*
D11*
X43894375Y-99695000D03*
X50244375Y-102235000D03*
D10*
X51514375Y-104775000D03*
D12*
X46434375Y-104775000D03*
D13*
X40144375Y-109855000D03*
X53994375Y-107315000D03*
%TD*%
D15*
%TO.C,D16*%
X141684375Y-74755375D03*
D14*
X143346375Y-75009375D03*
D15*
X141684375Y-76025375D03*
D14*
X146146375Y-75009375D03*
%TD*%
D11*
%TO.C,K20*%
X31194375Y-83185000D03*
X24844375Y-80645000D03*
D10*
X22304375Y-85725000D03*
D12*
X27384375Y-85725000D03*
D11*
X31194375Y-88265000D03*
X24844375Y-90805000D03*
D10*
X32464375Y-85725000D03*
D13*
X21094375Y-90805000D03*
X34944375Y-88265000D03*
%TD*%
D14*
%TO.C,D30*%
X34528125Y-103113000D03*
D15*
X34274125Y-104775000D03*
D14*
X34528125Y-100313000D03*
D15*
X35544125Y-104775000D03*
%TD*%
D14*
%TO.C,D25*%
X129778125Y-75728625D03*
D15*
X129524125Y-77390625D03*
D14*
X129778125Y-72928625D03*
D15*
X130794125Y-77390625D03*
%TD*%
%TO.C,D0*%
X34274125Y-47625000D03*
D14*
X34528125Y-45963000D03*
X34528125Y-43163000D03*
D15*
X35544125Y-47625000D03*
%TD*%
D16*
%TO.C,SW36*%
X157626590Y-59209381D03*
X157626590Y-52709381D03*
X153126590Y-59209381D03*
X153126590Y-52709381D03*
%TD*%
D15*
%TO.C,D4*%
X110474125Y-36909375D03*
D14*
X110728125Y-35247375D03*
X110728125Y-32447375D03*
D15*
X111744125Y-36909375D03*
%TD*%
D10*
%TO.C,K11*%
X41354375Y-66675000D03*
D11*
X43894375Y-61595000D03*
D10*
X51514375Y-66675000D03*
D11*
X43894375Y-71755000D03*
X50244375Y-64135000D03*
X50244375Y-69215000D03*
D12*
X46434375Y-66675000D03*
D13*
X40144375Y-71755000D03*
X53994375Y-69215000D03*
%TD*%
D11*
%TO.C,K4*%
X107394375Y-39449375D03*
X101044375Y-31829375D03*
D12*
X103584375Y-36909375D03*
D11*
X101044375Y-41989375D03*
X107394375Y-34369375D03*
D10*
X108664375Y-36909375D03*
X98504375Y-36909375D03*
D13*
X97294375Y-41989375D03*
X111144375Y-39449375D03*
%TD*%
D15*
%TO.C,D31*%
X53324125Y-104775000D03*
D14*
X53578125Y-103113000D03*
D15*
X54594125Y-104775000D03*
D14*
X53578125Y-100313000D03*
%TD*%
D10*
%TO.C,K10*%
X22304375Y-66675000D03*
D11*
X31194375Y-69215000D03*
D10*
X32464375Y-66675000D03*
D11*
X31194375Y-64135000D03*
D12*
X27384375Y-66675000D03*
D11*
X24844375Y-71755000D03*
X24844375Y-61595000D03*
D13*
X21094375Y-71755000D03*
X34944375Y-69215000D03*
%TD*%
D15*
%TO.C,D3*%
X91424125Y-29765625D03*
D14*
X91678125Y-28103625D03*
D15*
X92694125Y-29765625D03*
D14*
X91678125Y-25303625D03*
%TD*%
%TO.C,D13*%
X91678125Y-47153625D03*
D15*
X91424125Y-48815625D03*
D14*
X91678125Y-44353625D03*
D15*
X92694125Y-48815625D03*
%TD*%
D14*
%TO.C,D20*%
X34528125Y-84063000D03*
D15*
X34274125Y-85725000D03*
X35544125Y-85725000D03*
D14*
X34528125Y-81263000D03*
%TD*%
D12*
%TO.C,K3*%
X84534375Y-29765625D03*
D11*
X81994375Y-34845625D03*
X88344375Y-27225625D03*
X81994375Y-24685625D03*
X88344375Y-32305625D03*
D10*
X89614375Y-29765625D03*
X79454375Y-29765625D03*
D13*
X78244375Y-34845625D03*
X92094375Y-32305625D03*
%TD*%
D14*
%TO.C,D23*%
X91678125Y-66203625D03*
D15*
X91424125Y-67865625D03*
X92694125Y-67865625D03*
D14*
X91678125Y-63403625D03*
%TD*%
D11*
%TO.C,K16*%
X139144375Y-71675625D03*
X146764375Y-65325625D03*
X144224375Y-71675625D03*
D10*
X141684375Y-62785625D03*
D11*
X136604375Y-65325625D03*
D10*
X141684375Y-72945625D03*
D12*
X141684375Y-67865625D03*
D17*
X136604375Y-61575625D03*
X139144375Y-75425625D03*
%TD*%
D10*
%TO.C,K35*%
X127714375Y-96440625D03*
D11*
X120094375Y-101520625D03*
X126444375Y-98980625D03*
X120094375Y-91360625D03*
X126444375Y-93900625D03*
D10*
X117554375Y-96440625D03*
D12*
X122634375Y-96440625D03*
D13*
X116344375Y-101520625D03*
X130194375Y-98980625D03*
%TD*%
D11*
%TO.C,K2*%
X69294375Y-33178750D03*
X62944375Y-40798750D03*
D10*
X60404375Y-35718750D03*
D12*
X65484375Y-35718750D03*
D10*
X70564375Y-35718750D03*
D11*
X69294375Y-38258750D03*
X62944375Y-30638750D03*
D13*
X59194375Y-40798750D03*
X73044375Y-38258750D03*
%TD*%
D11*
%TO.C,K32*%
X62944375Y-87788750D03*
X62944375Y-97948750D03*
X69294375Y-95408750D03*
D10*
X60404375Y-92868750D03*
D11*
X69294375Y-90328750D03*
D12*
X65484375Y-92868750D03*
D10*
X70564375Y-92868750D03*
D13*
X59194375Y-97948750D03*
X73044375Y-95408750D03*
%TD*%
D11*
%TO.C,K5*%
X120094375Y-34210625D03*
X126444375Y-41830625D03*
D10*
X117554375Y-39290625D03*
D11*
X120094375Y-44370625D03*
D12*
X122634375Y-39290625D03*
D10*
X127714375Y-39290625D03*
D11*
X126444375Y-36750625D03*
D13*
X116344375Y-44370625D03*
X130194375Y-41830625D03*
%TD*%
D12*
%TO.C,K6*%
X141684375Y-44053125D03*
D11*
X139144375Y-38973125D03*
X139144375Y-49133125D03*
D10*
X136604375Y-44053125D03*
X146764375Y-44053125D03*
D11*
X145494375Y-46593125D03*
X145494375Y-41513125D03*
D13*
X135394375Y-49133125D03*
X149244375Y-46593125D03*
%TD*%
D10*
%TO.C,K13*%
X79454375Y-48815625D03*
D12*
X84534375Y-48815625D03*
D11*
X88344375Y-46275625D03*
X81994375Y-53895625D03*
X81994375Y-43735625D03*
X88344375Y-51355625D03*
D10*
X89614375Y-48815625D03*
D13*
X78244375Y-53895625D03*
X92094375Y-51355625D03*
%TD*%
D10*
%TO.C,K1*%
X51514375Y-47625000D03*
X41354375Y-47625000D03*
D11*
X50244375Y-50165000D03*
X43894375Y-42545000D03*
X43894375Y-52705000D03*
D12*
X46434375Y-47625000D03*
D11*
X50244375Y-45085000D03*
D13*
X40144375Y-52705000D03*
X53994375Y-50165000D03*
%TD*%
D14*
%TO.C,D21*%
X53578125Y-84063000D03*
D15*
X53324125Y-85725000D03*
D14*
X53578125Y-81263000D03*
D15*
X54594125Y-85725000D03*
%TD*%
D11*
%TO.C,K25*%
X120094375Y-72310625D03*
D12*
X122634375Y-77390625D03*
D11*
X120094375Y-82470625D03*
X126444375Y-79930625D03*
X126444375Y-74850625D03*
D10*
X127714375Y-77390625D03*
X117554375Y-77390625D03*
D13*
X116344375Y-82470625D03*
X130194375Y-79930625D03*
%TD*%
D18*
%TO.C,J2*%
X75009454Y-60483799D03*
D19*
X75009454Y-63023799D03*
X75009454Y-65563799D03*
X75009454Y-68103799D03*
D18*
X113109454Y-61674424D03*
D19*
X113109454Y-64214424D03*
X113109454Y-66754424D03*
X113109454Y-69294424D03*
D18*
X75009454Y-41433799D03*
D19*
X75009454Y-43973799D03*
X75009454Y-46513799D03*
X75009454Y-49053799D03*
D18*
X113109454Y-42624424D03*
D19*
X113109454Y-45164424D03*
X113109454Y-47704424D03*
X113109454Y-50244424D03*
%TD*%
D14*
%TO.C,D1*%
X53578125Y-45963000D03*
D15*
X53324125Y-47625000D03*
X54594125Y-47625000D03*
D14*
X53578125Y-43163000D03*
%TD*%
D12*
%TO.C,K33*%
X84534375Y-86915625D03*
D11*
X88344375Y-84375625D03*
D10*
X79454375Y-86915625D03*
D11*
X81994375Y-91995625D03*
X81994375Y-81835625D03*
X88344375Y-89455625D03*
D10*
X89614375Y-86915625D03*
D13*
X78244375Y-91995625D03*
X92094375Y-89455625D03*
%TD*%
D15*
%TO.C,D24*%
X110474125Y-75009375D03*
D14*
X110728125Y-73347375D03*
X110728125Y-70547375D03*
D15*
X111744125Y-75009375D03*
%TD*%
%TO.C,D26*%
X148574125Y-91678125D03*
D14*
X148828125Y-90016125D03*
D15*
X149844125Y-91678125D03*
D14*
X148828125Y-87216125D03*
%TD*%
D15*
%TO.C,D35*%
X129524125Y-96440625D03*
D14*
X129778125Y-94778625D03*
D15*
X130794125Y-96440625D03*
D14*
X129778125Y-91978625D03*
%TD*%
D12*
%TO.C,K21*%
X46434375Y-85725000D03*
D11*
X43894375Y-80645000D03*
D10*
X41354375Y-85725000D03*
X51514375Y-85725000D03*
D11*
X50244375Y-88265000D03*
X50244375Y-83185000D03*
X43894375Y-90805000D03*
D13*
X40144375Y-90805000D03*
X53994375Y-88265000D03*
%TD*%
D14*
%TO.C,D12*%
X72882125Y-53106750D03*
D15*
X72628125Y-54768750D03*
D14*
X72882125Y-50306750D03*
D15*
X73898125Y-54768750D03*
%TD*%
D20*
%TO.C,H1*%
X51196875Y-33337500D03*
%TD*%
D11*
%TO.C,K0*%
X24844375Y-42545000D03*
X24844375Y-52705000D03*
D10*
X32464375Y-47625000D03*
D11*
X31194375Y-50165000D03*
D12*
X27384375Y-47625000D03*
D11*
X31194375Y-45085000D03*
D10*
X22304375Y-47625000D03*
D13*
X21094375Y-52705000D03*
X34944375Y-50165000D03*
%TD*%
D10*
%TO.C,K34*%
X98504375Y-94059375D03*
X108664375Y-94059375D03*
D12*
X103584375Y-94059375D03*
D11*
X101044375Y-99139375D03*
X107394375Y-96599375D03*
X107394375Y-91519375D03*
X101044375Y-88979375D03*
D13*
X97294375Y-99139375D03*
X111144375Y-96599375D03*
%TD*%
D15*
%TO.C,D34*%
X110474125Y-94059375D03*
D14*
X110728125Y-92397375D03*
X110728125Y-89597375D03*
D15*
X111744125Y-94059375D03*
%TD*%
D20*
%TO.C,H3*%
X155376590Y-66675056D03*
%TD*%
D14*
%TO.C,D22*%
X72882125Y-72331375D03*
D15*
X72628125Y-73993375D03*
X73898125Y-73993375D03*
D14*
X72882125Y-69531375D03*
%TD*%
D12*
%TO.C,K24*%
X103584375Y-75009375D03*
D11*
X107394375Y-72469375D03*
X107394375Y-77549375D03*
D10*
X108664375Y-75009375D03*
D11*
X101044375Y-80089375D03*
X101044375Y-69929375D03*
D10*
X98504375Y-75009375D03*
D13*
X97294375Y-80089375D03*
X111144375Y-77549375D03*
%TD*%
D11*
%TO.C,K23*%
X81994375Y-72945625D03*
X88344375Y-65325625D03*
X88344375Y-70405625D03*
D12*
X84534375Y-67865625D03*
D10*
X89614375Y-67865625D03*
D11*
X81994375Y-62785625D03*
D10*
X79454375Y-67865625D03*
D13*
X78244375Y-72945625D03*
X92094375Y-70405625D03*
%TD*%
D20*
%TO.C,H2*%
X60721875Y-107156250D03*
%TD*%
D15*
%TO.C,D6*%
X148748750Y-44053125D03*
D14*
X149002750Y-42391125D03*
X149002750Y-39591125D03*
D15*
X150018750Y-44053125D03*
%TD*%
D11*
%TO.C,K15*%
X120094375Y-63420625D03*
D12*
X122634375Y-58340625D03*
D10*
X127714375Y-58340625D03*
X117554375Y-58340625D03*
D11*
X126444375Y-55800625D03*
X126444375Y-60880625D03*
X120094375Y-53260625D03*
D13*
X116344375Y-63420625D03*
X130194375Y-60880625D03*
%TD*%
M02*
